<svg xmlns="http://www.w3.org/2000/svg" xmlns:xlink="http://www.w3.org/1999/xlink" width="505" height="280" viewBox="0 0 505 280">
  <defs>
    <clipPath id="clip-path">
      <path id="Path_168346" data-name="Path 168346" d="M642.152-317.679a18.072,18.072,0,0,0-18.072,18.073,18.072,18.072,0,0,0,18.072,18.072,18.072,18.072,0,0,0,18.073-18.072A18.072,18.072,0,0,0,642.152-317.679Zm0,27.647a9.575,9.575,0,0,1-9.574-9.574,9.574,9.574,0,0,1,9.574-9.574,9.573,9.573,0,0,1,9.574,9.574A9.574,9.574,0,0,1,642.152-290.032Z" fill="none"/>
    </clipPath>
  </defs>
  <g id="t1-i4" transform="translate(-180 -4069)">
    <rect id="Rectangle_36653" data-name="Rectangle 36653" width="505" height="280" transform="translate(180 4069)" fill="none"/>
    <g id="Group_110119" data-name="Group 110119" transform="translate(-425.999 4412.703)">
      <path id="Path_168218" data-name="Path 168218" d="M680.979-319.865c69.431-24.323,140-2.819,187.86,44.015s148.3-32.326,201.574,14.433c36.354,31.91,19.7,113.952-30.146,149.486-67.754,48.3-320.17,49.75-362.051,33.176-71.567-28.322-.457-80.77-33.863-131.046C604.941-269.116,650.3-309.117,680.979-319.865Z" fill="#e9fbfc"/>
      <path id="Path_168219" data-name="Path 168219" d="M1087.173-84.718c-38.422-1.6-169.126,1.112-208.877,2.171s-85.893-1.4-109.862-5.008-162.514.307-156.227,10.017,61.729,4.344,124.6,8.247,204.271-.488,236.166,0,61.143-.976,102.246-2.927S1109.444-83.789,1087.173-84.718Z" fill="#8fe5eb"/>
      <g id="Group_110081" data-name="Group 110081">
        <path id="Path_168220" data-name="Path 168220" d="M992.705-302.455a31.66,31.66,0,0,0,.2-3.53c0-.63-.021-1.255-.058-1.876l-5.832-1.887a25.635,25.635,0,0,0-2.066-6.988l3.868-4.76a31.473,31.473,0,0,0-3.064-4.453l-5.833,1.9a25.936,25.936,0,0,0-5.775-4.439l.332-6.128a31.079,31.079,0,0,0-5.093-1.8l-3.6,4.971a25.919,25.919,0,0,0-4.317-.362,26.146,26.146,0,0,0-2.965.171l-3.335-5.155a31.212,31.212,0,0,0-5.181,1.531l.007,6.138a25.837,25.837,0,0,0-6,4.129l-5.723-2.209a31.427,31.427,0,0,0-3.3,4.286l3.611,4.958a25.635,25.635,0,0,0-2.434,6.869l-5.924,1.576a31.648,31.648,0,0,0-.2,3.53q0,.945.057,1.875l5.833,1.887a25.642,25.642,0,0,0,2.065,6.989l-3.868,4.759a31.628,31.628,0,0,0,3.064,4.454l5.833-1.9a25.962,25.962,0,0,0,5.775,4.439l-.332,6.129a31.3,31.3,0,0,0,5.093,1.8l3.6-4.971a26.024,26.024,0,0,0,4.317.361,26.148,26.148,0,0,0,2.965-.17l3.335,5.154a31.083,31.083,0,0,0,5.181-1.531l-.007-6.138a25.891,25.891,0,0,0,6-4.128l5.723,2.208a31.549,31.549,0,0,0,3.295-4.285l-3.611-4.958a25.648,25.648,0,0,0,2.435-6.869Zm-31.241,8.8a12.331,12.331,0,0,1-12.331-12.331,12.331,12.331,0,0,1,12.331-12.331,12.331,12.331,0,0,1,12.331,12.331A12.331,12.331,0,0,1,961.464-293.654Z" fill="#5085c7" opacity="0.75"/>
        <g id="Group_110078" data-name="Group 110078">
          <path id="Path_168221" data-name="Path 168221" d="M978.283-291.747a.63.63,0,0,1-.406-.147.635.635,0,0,1-.082-.895,20.676,20.676,0,0,0,4.765-13.2,20.606,20.606,0,0,0-1.121-6.729.636.636,0,0,1,.394-.808.636.636,0,0,1,.808.394,21.9,21.9,0,0,1,1.19,7.143,21.952,21.952,0,0,1-5.059,14.009A.635.635,0,0,1,978.283-291.747Z" fill="#fff"/>
        </g>
        <g id="Group_110079" data-name="Group 110079">
          <path id="Path_168222" data-name="Path 168222" d="M976.5-320.852a.631.631,0,0,1-.435-.173,20.526,20.526,0,0,0-7.11-4.38.635.635,0,0,1-.38-.814.636.636,0,0,1,.814-.381,21.81,21.81,0,0,1,7.547,4.65.635.635,0,0,1,.027.9A.634.634,0,0,1,976.5-320.852Z" fill="#fff"/>
        </g>
        <g id="Group_110080" data-name="Group 110080">
          <path id="Path_168223" data-name="Path 168223" d="M956.681-325.991a.637.637,0,0,1-.616-.48.637.637,0,0,1,.461-.772,22.039,22.039,0,0,1,5.382-.665.635.635,0,0,1,.635.635.635.635,0,0,1-.635.635,20.734,20.734,0,0,0-5.071.627A.6.6,0,0,1,956.681-325.991Z" fill="#fff"/>
        </g>
      </g>
      <rect id="Rectangle_36654" data-name="Rectangle 36654" width="207.494" height="118.024" transform="translate(730.955 -340.703)" fill="#5085c7" opacity="0.4"/>
      <rect id="Rectangle_36655" data-name="Rectangle 36655" width="195.863" height="108.349" transform="translate(740.528 -337.823)" fill="#fff"/>
      <g id="Group_110084" data-name="Group 110084">
        <path id="Path_168224" data-name="Path 168224" d="M902.938-99.621c1.14,4.633-1.111,8.307-4.124,10.986-2.45,2.178-9.983,3.1-9.62,4.192s9.257,1.434,12.252.981,3.812-1.906,7.54-1.9c2.443,0,2.9-1.987,1.808-4.443s-1.47-3.815-.486-6.017S902.938-99.621,902.938-99.621Z" fill="#12263f"/>
        <path id="Path_168225" data-name="Path 168225" d="M947.382-99.621c-.182,4.81-.74,8.393.44,10.623,4.556,3.811,8.344,8.141,6.9,8.44-6.9,1.424-9.529-2.71-13.432-3.885-4.789-1.442.454-7.46-1.422-15.178-1.043-4.292,7.231-3.263,7.231-3.263Z" fill="#12263f"/>
        <path id="Path_168226" data-name="Path 168226" d="M910.431-287.842c9.438-8.985,25.57-8.781,25.23,4.9s.789,14.967,4.673,22.144c13.478,24.9-16.063,23.437-28.383,24.254s-11.3-22.394-9.121-35.258S907.669-285.213,910.431-287.842Z" fill="#12263f"/>
        <path id="Path_168227" data-name="Path 168227" d="M914.831-209.4c-3.026,25.412-8.525,44.2-9.137,56.244s-3.063,59.482-3.063,59.482,6.738-.471,7.351-1.492,12.659-27.77,12.047-44.309,12.032-41.687,12.032-41.687l-3.048-24.674Z" fill="#e0aa16"/>
        <path id="Path_168228" data-name="Path 168228" d="M917.737-198.335,913-196.355c-1.286,8.058-2.713,15.3-3.967,21.729,7.532,4.869,11.422,21.09,13.089,31.007.849-11.1,6.084-24.506,9.333-31.921Z" fill="#bd8e12"/>
        <path id="Path_168229" data-name="Path 168229" d="M939.589-211.96s10.2,13.01,9.879,27.77c-.486,22.468-2.937,28.883,1.327,52.442,1.665,9.2-3.675,39.3-3.675,39.3s-4.563.358-7.013-.862c.2-2.212-2.948-38.188-9.088-54.727-2.974-8.008-7.153-30.437-9.4-43.3s-2.654-15.518-1.837-15.518S939.589-211.96,939.589-211.96Z" fill="#f6bf28"/>
        <path id="Path_168230" data-name="Path 168230" d="M881.48-248.091s.454-6.732-.272-8.812-6.988-3.894-6.988-3.894-.273,9.62.363,10.8,4.356,4.537,4.356,4.537Z" fill="#f09959"/>
        <path id="Path_168231" data-name="Path 168231" d="M916.692-253c-14.338,15.433-19.018,21.927-20.107,21.927-3.4-6.007-14.707-18.713-14.707-18.713l-4.82,3.1s11.138,29.1,18.217,29.4,21.467-10.035,21.65-11.222S916.692-253,916.692-253Z" fill="#98f2f9"/>
        <path id="Path_168232" data-name="Path 168232" d="M901.738-218.792c7.014-2.855,15.05-8.828,15.187-9.713.182-1.187-.233-24.492-.233-24.492-3.126,3.365-5.855,6.349-8.223,8.958C905.9-234.473,906.068-224.058,901.738-218.792Z" fill="#83d1d6"/>
        <path id="Path_168233" data-name="Path 168233" d="M931.259-263.157s13.72,6.878,16.715,19.052-5.867,27.214-6.956,35.24-26.136,9.439-26.136.847c0-8.237-6.276-25.72-5.921-30.174.831-10.45,16.106-23.25,16.106-23.25Z" fill="#98f2f9"/>
        <path id="Path_168234" data-name="Path 168234" d="M927.272-278.928l5.89,18.164s-6.289,4.854-17.053,16.53c.418-7.77,6.927-16.24,6.927-16.24l-4.456-17.152Z" fill="#f09959"/>
        <path id="Path_168235" data-name="Path 168235" d="M930.019-270.456l-2.747-8.472-8.692,1.3,4.456,17.152s-.435.694-1.076,1.784A20.937,20.937,0,0,0,930.019-270.456Z" fill="#e38540"/>
        <path id="Path_168236" data-name="Path 168236" d="M924.026-274.828c-1.589,5.78-7.741,8.962-12.112,7.761s-5.307-6.332-3.719-12.112,6.421-9.493,10.792-8.291S925.615-280.609,924.026-274.828Z" fill="#f09959"/>
        <path id="Path_168237" data-name="Path 168237" d="M913.787-216.162c1.908,12.087-5.175,37.945-5.175,37.945s4.224.96,16.884-.266,18.242-13.86,20.148-14.213,2.884,11.759,3.824,12.716,1.083-15.295-1.374-21.684c-4.356-11.325-3.5-16.129-1.875-22.991C949.114-236.856,913.787-216.162,913.787-216.162Z" fill="#98f2f9"/>
        <path id="Path_168238" data-name="Path 168238" d="M949.123-197.721a22.679,22.679,0,0,0-1.029-3.943c-4.356-11.325-3.5-16.129-1.875-22.991a5.417,5.417,0,0,0,.165-1.432c.367-1.224.709-2.464,1.01-3.712l-1.478-13.346-10.661-12.661c-7.989,11.708-2.6,26.274-3.8,34.306s-14.586,18.272-14.586,18.272l.436,2.85a7.236,7.236,0,0,0,8.138,6.081c5.518-.766,12.756-2.3,15.977-5.293C944.54-202.483,947.3-200.245,949.123-197.721Z" fill="#83d1d6"/>
        <path id="Path_168239" data-name="Path 168239" d="M920-203.687s-5.91,1.653-6.617,2.023-1.1,2.323-1.1,2.323-3.382,2.938-2.087,3.978,3.611,3.674,6.67,2.448c1.878-.752,3.334-7.652,4.565-7.707S920-203.687,920-203.687Z" fill="#f09959"/>
        <path id="Path_168240" data-name="Path 168240" d="M936.741-257.348c6.325.179,12.059,11.571,14.058,21.454s4.1,23.934,4.1,23.934-10.483,8.273-20.84,10.691c-9.035,2.109-13.648,2.934-13.648,2.934l-1.833-5.158,21.618-12.7s-7.949-14.975-8.739-26.274S931.934-257.485,936.741-257.348Z" fill="#98f2f9"/>
        <rect id="Rectangle_36656" data-name="Rectangle 36656" width="16.081" height="10.213" transform="translate(860.129 -259.9) rotate(-11.346)" fill="#f6bf28"/>
        <path id="Path_168241" data-name="Path 168241" d="M877.687-248.908c.218-4.142-1.834-9.79-3.014-9.782s.363,3.7-.272,6.152C874.057-251.211,877.687-248.908,877.687-248.908Z" fill="#f09959"/>
        <path id="Path_168242" data-name="Path 168242" d="M909.354-285.664c.351,11.344,13.6,10.475,17.231,9.775s-4.419,23.933,2.5,25.355c5.078,1.043,3.934-6.9,9.575-6.369,2.495.235,5,4.093,5,4.093a7.7,7.7,0,0,0-2.281-4.093c-1.906-1.716-6.9-12.244-8.216-19.776s-10.207-12.405-12.839-12.555-9.075,2.844-9.075,2.844Z" fill="#12263f"/>
        <g id="Group_110082" data-name="Group 110082">
          <path id="Path_168243" data-name="Path 168243" d="M928.964-247.967a2.651,2.651,0,0,1-.547-.058c-2.213-.471-3.286-2.8-3.377-7.32a105.581,105.581,0,0,1,1.241-14.12c.274-2.128.558-4.329.791-6.46a.331.331,0,0,1,.366-.294.332.332,0,0,1,.294.366c-.235,2.137-.519,4.341-.793,6.473-1.313,10.192-2.553,19.818,1.616,20.706a1.835,1.835,0,0,0,.388.041c2.394,0,4.551-4.667,5.808-9.212a.332.332,0,0,1,.408-.232.332.332,0,0,1,.231.409C934.561-254.668,932.328-247.967,928.964-247.967Z" fill="#12263f"/>
        </g>
        <g id="Group_110083" data-name="Group 110083">
          <path id="Path_168244" data-name="Path 168244" d="M928.078-245.33a2.613,2.613,0,0,1-1.96-.872c-4.517-4.774-.051-28.731.141-29.748a.332.332,0,0,1,.388-.265.332.332,0,0,1,.264.388c-.046.246-4.6,24.639-.312,29.17a1.983,1.983,0,0,0,1.8.642c2.346-.31,3.7-3.492,4.9-6.3,1.159-2.724,2.248-5.3,4.19-5.229a.332.332,0,0,1,.32.343.329.329,0,0,1-.343.32h-.048c-1.456,0-2.453,2.345-3.509,4.826-1.264,2.971-2.7,6.339-5.418,6.7A3.054,3.054,0,0,1,928.078-245.33Z" fill="#12263f"/>
        </g>
        <path id="Path_168245" data-name="Path 168245" d="M927.077-273.71c-.934,1.2-2.4,1.631-3.268.955s-.821-2.2.113-3.4,2.4-1.631,3.268-.955S928.011-274.913,927.077-273.71Z" fill="#f09959"/>
      </g>
      <g id="Group_110089" data-name="Group 110089">
        <path id="Path_168246" data-name="Path 168246" d="M824.124-231.7c3.235,6.468.557,13.917-5.805,16.549-6.4,2.649-13.407,1.145-16.642-5.324a12.831,12.831,0,0,1,5.366-17.325A12.831,12.831,0,0,1,824.124-231.7Z" fill="#12263f"/>
        <g id="Group_110085" data-name="Group 110085">
          <path id="Path_168247" data-name="Path 168247" d="M806.686-214.375a6.052,6.052,0,0,1-3.91-1.84,9.994,9.994,0,0,1-2.968-5.623,19.555,19.555,0,0,1,1.089-10.021.331.331,0,0,1,.422-.205.331.331,0,0,1,.205.421,18.92,18.92,0,0,0-1.065,9.68,9.34,9.34,0,0,0,2.757,5.252c2.269,2.013,3.79,1.647,3.8,1.643a.334.334,0,0,1,.406.233.331.331,0,0,1-.228.406A2.032,2.032,0,0,1,806.686-214.375Z" fill="#12263f"/>
        </g>
        <g id="Group_110088" data-name="Group 110088">
          <path id="Path_168248" data-name="Path 168248" d="M816.578-206.53c3.682.825,8.33,11.056,10.606,17.61,2.3,6.611,6.188,14.811,8.736,17.359s19.291,8.455,19.291,8.455-41.369.08-40.522,0S816.578-206.53,816.578-206.53Z" fill="#98f2f9"/>
          <path id="Path_168249" data-name="Path 168249" d="M838.541-166.392c-2.265-.324-10.435.728-6.956-.728s2.992-3.317,2.992-3.317-4.934,4.125-5.824.518c-.767-3.11-1.06-14.092-3.972-25.1-2.406-5.458-5.554-10.918-8.2-11.512,0,0-.093,3.876-.246,9.31,1.016,12.025,2.74,29.693,3.178,34.146,5.483.008,14.66,0,22.337-.01l5.107-.244S840.806-166.069,838.541-166.392Z" fill="#83d1d6"/>
          <path id="Path_168250" data-name="Path 168250" d="M803.043-208.8s-11.711,6.544-14.441,7.936,7.648,42.238,9.956,43.988,22.628.3,24.941-1.9-1.775-8.974.227-22.527-6.106-25.252-7.148-25.226-7.84-2.267-7.84-2.267Z" fill="#98f2f9"/>
          <path id="Path_168251" data-name="Path 168251" d="M798.558-156.873c2.308,1.75,16.849,1.79,23.038-.136.7-.218,3.87-1.481,3.945-2.67-.747-.14-3.713.216-4.917-.06-4.186-.962-6.491-6.148-6.491-6.148s-2.306-.829-7.462-3.013-3.034-8.8-3.155-11.709-5.1-12.436-14.439-19.656l-.857.384C787.554-193.243,796.423-158.492,798.558-156.873Z" fill="#83d1d6"/>
          <g id="Group_110087" data-name="Group 110087">
            <path id="Path_168252" data-name="Path 168252" d="M879.017-188.92h-28.2l-12.843,27.331h31.061l11.626-24.74A1.817,1.817,0,0,0,879.017-188.92Z" fill="#5f9eed"/>
            <g id="Group_110086" data-name="Group 110086">
              <path id="Path_168253" data-name="Path 168253" d="M839.655-161.2H822.687a1.905,1.905,0,0,1-1.906-1.9,1.906,1.906,0,0,1,1.906-1.906h15.752l10.65-22.922a1.908,1.908,0,0,1,2.532-.925,1.906,1.906,0,0,1,.925,2.532L841.384-162.3A1.907,1.907,0,0,1,839.655-161.2Z" fill="#5085c7"/>
            </g>
          </g>
          <path id="Path_168254" data-name="Path 168254" d="M810.23-167.04c7.361,1.376,9.171,3.066,13.183,3.712,4.549.734,4.008,1.739.63,1.739s-11.868.131-14.782-.516S810.23-167.04,810.23-167.04Z" fill="#f09959"/>
          <path id="Path_168255" data-name="Path 168255" d="M787.682-200.1c-5.642,18.038-13.64,38.506-12.366,38.506s33.668,1.309,34.943.219.91-5.277.728-5.823-18.417-3.782-18.417-3.782,2.4-4.68,3.311-13.825S788.752-203.516,787.682-200.1Z" fill="#98f2f9"/>
        </g>
        <path id="Path_168256" data-name="Path 168256" d="M807.332-224.471l-4.544,16.607s7.679,11.986,9.79,10.922-1.18-9.743-1.18-10.922,3.291-13.346,3.291-13.346Z" fill="#f09959"/>
        <path id="Path_168257" data-name="Path 168257" d="M811.555-207.018a4.465,4.465,0,0,1-.157-.846c0-1.179,3.291-13.346,3.291-13.346l-7.357-3.261-1.5,5.5A28.667,28.667,0,0,0,811.555-207.018Z" fill="#e38540"/>
        <path id="Path_168258" data-name="Path 168258" d="M824.336-224.745c.866,4.815.3,11.211-3.981,12.837s-9.427-1.485-11.505-6.949-.295-11.211,3.981-12.837S823.3-230.5,824.336-224.745Z" fill="#f09959"/>
        <path id="Path_168259" data-name="Path 168259" d="M809.864-222.036c.6,1.684.079,3.407-1.163,3.849s-2.734-.564-3.333-2.248-.079-3.406,1.163-3.848S809.265-223.719,809.864-222.036Z" fill="#f09959"/>
        <path id="Path_168260" data-name="Path 168260" d="M824.386-230.795c-1.456,11.3-15.185,9.844-15.185,9.844s-2.832-3.722-4.106-1.77,1.767-11.457,9.646-11.879C817.329-234.739,824.386-230.795,824.386-230.795Z" fill="#12263f"/>
        <ellipse id="Ellipse_5376" data-name="Ellipse 5376" cx="7.436" cy="6.977" rx="7.436" ry="6.977" transform="translate(795.56 -242.55)" fill="#12263f"/>
      </g>
      <g id="Group_110092" data-name="Group 110092">
        <g id="Group_110091" data-name="Group 110091">
          <path id="Path_168261" data-name="Path 168261" d="M788.184-79.479h1.7l10.98-50.873h-3.741Z" fill="#204470"/>
          <path id="Path_168262" data-name="Path 168262" d="M841.051-79.479h-1.7l-12.779-52.672h3.741Z" fill="#204470"/>
          <g id="Group_110090" data-name="Group 110090">
            <path id="Path_168263" data-name="Path 168263" d="M807.585-128.447c-6.811,0-11.127-1.223-13.88-3.906-3.414-3.325-4.121-8.477-4.131-15.188-.008-5.282-.134-8.722-.42-11.5a1.906,1.906,0,0,1,1.7-2.091,1.906,1.906,0,0,1,2.091,1.7c.3,2.915.432,6.47.44,11.887.01,6.8.873,10.413,2.978,12.464,2.16,2.1,6.065,2.972,12.658,2.806a74.881,74.881,0,0,0,14.271-1.763c4.632-.941,7.978-1.622,11.947.275a1.905,1.905,0,0,1,.9,2.541,1.9,1.9,0,0,1-2.541.9c-2.817-1.346-5.206-.86-9.544.021a78.226,78.226,0,0,1-14.936,1.839Q808.33-128.447,807.585-128.447Z" fill="#204470"/>
          </g>
        </g>
        <path id="Path_168264" data-name="Path 168264" d="M792.111-161.37l10.426.433-2.776,28.788s-7.772-4.961-7.65-10.3S792.111-161.37,792.111-161.37Z" fill="#2e5b9a"/>
        <path id="Path_168265" data-name="Path 168265" d="M843.581-158.689c8.817-1.337,11.813-.916,17.209,9.126s12.578,28.122,16.708,30.457c6.22,3.517,8.281,12.139,10.834,11.751s4.2.741,1.419,3.051-7.266,4.276-8.8,3.866-2.725-7.04-6.733-9.193-2.8-3.922-2.541-5.826-11.7-10.672-20.717-21.576c-5.51-6.663-8.348-11.061-8.768-15.047A10.456,10.456,0,0,1,843.581-158.689Z" fill="#f09959"/>
        <path id="Path_168266" data-name="Path 168266" d="M865.438-122.277c-2.048-5.194-4.1-13.768-6.032-21.628-2.746-11.178-5.623-13.832-7.447-15.025-2.2-.552-4.816-.3-8.378.241a10.456,10.456,0,0,0-1.39,6.609c.42,3.986,3.258,8.384,8.768,15.047a158.087,158.087,0,0,0,14.479,14.756Z" fill="#e38540"/>
        <path id="Path_168267" data-name="Path 168267" d="M846.266-149.85s-2.346,17.7-4.53,19.5c-1.562,1.287-2.669,1.373-3.761-3.906s1.7-24.981,1.7-24.981Z" fill="#1b7a80"/>
        <path id="Path_168268" data-name="Path 168268" d="M844.4-140.273l-21.71,3.648L834.944-154.2l9.328-1.9,5.594,1.286Z" fill="#f09959"/>
        <path id="Path_168269" data-name="Path 168269" d="M871.676-115.457c-.7,2.837-.619,4.933.6,5.984s5.844,8.858,5.844,8.858l1.44-.218-3.333-7.144Z" fill="#204470"/>
        <path id="Path_168270" data-name="Path 168270" d="M880.95-100.438c1.535.41,6.022-1.556,8.8-3.866s1.135-3.438-1.418-3.051a1.108,1.108,0,0,1-.429-.021c-1.275,2.849-5.47,4.986-6.824,1.976-1.342-2.982-7.09-8.919-9.405-10.189a.532.532,0,0,1,0,.132c-.263,1.9-1.467,3.673,2.541,5.826S879.415-100.848,880.95-100.438Z" fill="#204470"/>
        <path id="Path_168271" data-name="Path 168271" d="M799.269-157.98c-7.7,13.823-2.441,22.609,6.921,23.5s24.141-.814,32.756-7.973,15.686-14.728,14.7-15.858S799.269-157.98,799.269-157.98Z" fill="#e38540"/>
        <path id="Path_168272" data-name="Path 168272" d="M842.95-147.666c1.577-4.733,3.395-8.363,6.916-8.429,3.7-.069,5.978,1.857,6.136,7.912.188,7.211.442,31.091.109,41.71-.252,8.037,2.091,10.611,1.893,18.99-.149,6.311,6.579,3.123,3.98,6.4-1.787,2.25-7.107,1.515-10.375,1.1-2.912-.37,1.507-9.1-2.523-11.429-3.458-2-3.526-5.253-1.342-7.713s.243-9.74-1.213-14.836-3.714-10.61-5.2-22.659C840.911-140.06,841.986-144.776,842.95-147.666Z" fill="#f09959"/>
        <path id="Path_168273" data-name="Path 168273" d="M859.681-83.663a15.244,15.244,0,0,1-3.686.755c-2.427.081-3.155-2.589-3.316-6.215-.142-3.166-2.441-8.152-4.8-10.174-.044.058-.088.114-.136.167-2.184,2.46-2.116,5.711,1.342,7.713,4.03,2.333-.389,11.059,2.523,11.429,3.268.416,8.588,1.151,10.375-1.1C863.673-83.214,861.577-83.383,859.681-83.663Z" fill="#204470"/>
        <path id="Path_168274" data-name="Path 168274" d="M848.29-100.032s-3.538,3.7-3.215,5.233a58.651,58.651,0,0,1,1.6,8.413c.183,2.993.344,6.428.344,6.428s1.274,0,1.376-.362.808-12.165.808-12.165Z" fill="#204470"/>
        <path id="Path_168275" data-name="Path 168275" d="M795.56-159.239s-4.569,19.389,1.2,24.763,29.742.54,35.388.218c3.822-.218,7.522,4.447,7.522,4.447s-2.669-10.818-.849-19.554,4.757-9.324,4.757-9.324l-3.908-.55Z" fill="#28b5bd"/>
        <path id="Path_168276" data-name="Path 168276" d="M794.525-164.309c1.954,4.145-2.1,11.3-.682,13.367s9.562.288,14.895-4.005,15.429-5.236,15.429-5.236Z" fill="#98f2f9"/>
        <path id="Path_168277" data-name="Path 168277" d="M802.788-128.981c16.137.607,33.124.32,33.124-2.085s-.728-4.1-13.225-3.132-20.991,2.3-24.752,1.456S802.788-128.981,802.788-128.981Z" fill="#204470"/>
      </g>
      <rect id="Rectangle_36657" data-name="Rectangle 36657" width="230.885" height="4.393" rx="2.05" transform="translate(745.751 -161.589)" fill="#204470"/>
      <g id="Group_110097" data-name="Group 110097">
        <path id="Path_168278" data-name="Path 168278" d="M1005.089-220.467c1.564,5.512-2.254,11.192-6.461,12.385s-7.207-2.552-8.771-8.064.579-10.947,4.785-12.14S1003.526-225.978,1005.089-220.467Z" fill="#f09959"/>
        <path id="Path_168279" data-name="Path 168279" d="M981.506-113.664s10.781,16.743,12.237,17.471,5.1.91,3.73,3.64-1.911,13.468-3.184,14.014-12.194,1.819-10.556,0,2.645-.91,3.472-4.186,1.987-9.464.441-10.738S976.635-106.2,976.635-106.2Z" fill="#f09959"/>
        <path id="Path_168280" data-name="Path 168280" d="M927.25-106.473s-13.1,21.6-15.531,23.538-10.435,4.854-3.883,5.339,9.707-2.184,13.832-3.4,9.222-1.942,7.281-5.1S927.814-96.131,932-100.5,927.25-106.473,927.25-106.473Z" fill="#f09959"/>
        <path id="Path_168281" data-name="Path 168281" d="M994.122-156.555s-32.439-.849-45.3,9.706c-7.522,11.406-25.721,45.058-27.136,48.766.971.971,6.431,2.722,8.858,2.48,7.158-8.536,16.62-15.915,20.384-22.611,4.637-8.251,6.066-12.376,13.589-13.1s24.51-3.155,29.606-3.155S994.122-156.555,994.122-156.555Z" fill="#209299"/>
        <path id="Path_168282" data-name="Path 168282" d="M1022.41-77.538h-1.7l-12.193-50.873h3.741Z" fill="#204470"/>
        <path id="Path_168283" data-name="Path 168283" d="M971.473-77.538h1.7l13.992-52.672h-3.741Z" fill="#204470"/>
        <path id="Path_168284" data-name="Path 168284" d="M1012.6-158.777l-18.859,3.255s-25.063.23-36.519,2.364c-10.423,1.941-11.958,13.784,0,30.091,6.793,9.263,12.537,16.653,24.282,24.984,2.988-2.193,4.131-3.023,4.957-8.3-.85-1.166-3.051-8.461-3.734-9.888-6.5-13.581-15.168-18.519-15.288-19.856,1.456-2.366,38.566,12.333,45.945,3.687C1020.43-140.7,1012.6-158.777,1012.6-158.777Z" fill="#28b5bd"/>
        <path id="Path_168285" data-name="Path 168285" d="M1013.386-201.474a19.734,19.734,0,0,0-14.758,3.672c-4.134,4.214-8.812,11.164-8.525,22.628.364,14.559-2.253,15.494.477,19.5,11.385,4.7,30.859,24.9,26.273,3.246-3.321-15.682,7.282-27.37-1.271-44.765C1014.885-198.611,1014.015-199.984,1013.386-201.474Z" fill="#ff805a"/>
        <path id="Path_168286" data-name="Path 168286" d="M990.1-169.7c-.222,7.59-1.294,9.826-.474,12.206,4.642.474,13.132,2.331,15.254,5.3,2.427,3.4,4.853,3.882,3.721,1.375s-4.125-6.067.485-18.281,6.795-20.465,2.265-28.959Z" fill="#db5b35"/>
        <path id="Path_168287" data-name="Path 168287" d="M1013.386-201.474a59.232,59.232,0,0,1-3.81-15.376l-8.008,2.366s4.55,10.191.182,13.831a41.992,41.992,0,0,0-3.122,2.851A19.734,19.734,0,0,1,1013.386-201.474Z" fill="#f09959"/>
        <path id="Path_168288" data-name="Path 168288" d="M1009.817-214.922c-.474-.422-1.068-.949-1.691-1.5l-6.532,1.93-.014.035a26.661,26.661,0,0,1,2.041,7.978,23.054,23.054,0,0,0,6.514-6.47C1010-213.7,1009.9-214.361,1009.817-214.922Z" fill="#e38540"/>
        <path id="Path_168289" data-name="Path 168289" d="M1007.756-199.2c-8.248,2.885-7.333,11.573-14.923,24.387-3.929,6.631-7.577,6.533-7.577,6.533a175.653,175.653,0,0,1-20.356-1.289c-6.978-.853-7.421,1.224-2.568,2.959,9.788,3.5,19.945,7.266,28.135,6.356s22.2-21.8,22.919-27.245C1014.384-195.018,1011.91-200.65,1007.756-199.2Z" fill="#f09959"/>
        <g id="Group_110093" data-name="Group 110093">
          <path id="Path_168290" data-name="Path 168290" d="M1003.51-126.5q-.766,0-1.573-.02A78.143,78.143,0,0,1,987-128.364c-4.338-.881-6.727-1.367-9.544-.021a1.905,1.905,0,0,1-2.541-.9,1.905,1.905,0,0,1,.9-2.541c3.968-1.9,7.315-1.216,11.946-.275a74.863,74.863,0,0,0,14.271,1.764c7.17.177,11.556-.9,13.8-3.383,2-2.219,2.591-5.918,1.855-11.642-.25-1.938-.5-3.55-.719-4.972-.617-3.99-1.024-6.626-.521-10.69.469-3.788,1.726-8.842,4.638-18.647a1.9,1.9,0,0,1,2.369-1.284,1.906,1.906,0,0,1,1.285,2.369c-5.446,18.341-5.169,20.132-4,27.669.224,1.445.477,3.082.732,5.069.889,6.909,0,11.574-2.8,14.681C1015.771-127.963,1011.064-126.5,1003.51-126.5Z" fill="#204470"/>
        </g>
        <path id="Path_168291" data-name="Path 168291" d="M928.141-88.271c-8.7,4.253-13.375,6.69-16.163,6.457-.658-.054-1.2-.122-1.66-.193-3.1,1.833-8.051,4-2.482,4.411,6.552.485,9.707-2.184,13.832-3.4s9.222-1.942,7.281-5.1A6.626,6.626,0,0,1,928.141-88.271Z" fill="#db5b35"/>
        <path id="Path_168292" data-name="Path 168292" d="M994.69-95.837c-.212,6.884-1.158,13.706-5.369,14.994a7.065,7.065,0,0,1-3.033.271c-.663.818-1.47.828-2.555,2.033-1.638,1.819,9.282.545,10.556,0s1.819-11.284,3.184-14.014C998.595-94.795,996.339-95.318,994.69-95.837Z" fill="#db5b35"/>
        <g id="Group_110094" data-name="Group 110094">
          <path id="Path_168293" data-name="Path 168293" d="M961.2-161.2H933.576a1.9,1.9,0,0,1-1.728-1.1l-11.163-24.024a1.906,1.906,0,0,1,.925-2.532,1.907,1.907,0,0,1,2.532.925l10.65,22.922H961.2a1.906,1.906,0,0,1,1.906,1.906A1.906,1.906,0,0,1,961.2-161.2Z" fill="#5085c7"/>
        </g>
        <path id="Path_168294" data-name="Path 168294" d="M966.978-169.326c-5.582-.08-11.117-3.407-13.867-2.922s-11.729,6.714-10.6,6.957,8.251-3.447,8.494-3.5,1.779,2.555,5.581,3.514.027-2.849,11.812.71C976.063-162.256,966.978-169.326,966.978-169.326Z" fill="#f09959"/>
        <path id="Path_168295" data-name="Path 168295" d="M1012.564-208.082l.822,6.608s-7.223.429-10.817,2.452-8.9,7.865-8.9,7.865L998-198.618l.624-4.772Z" fill="#f2e5de"/>
        <path id="Path_168296" data-name="Path 168296" d="M1009.491-199.993c-5.365-1.005-7.847,3.8-11.325,11.648s-9.416,17.376-10.6,18.6-19.9,0-19.9,0-.566,5.419,0,6.066,3.8.567,3.8.567,1.294,1.033,2.507,1.851,11.487,2.355,16.259,2.112,9.141-.647,9.788-1.375,13.67-20.789,14.479-27.988S1012.229-199.48,1009.491-199.993Z" fill="#f2e5de"/>
        <path id="Path_168297" data-name="Path 168297" d="M993.671-233c-10.146.485-8.555,15.749-8.555,15.749s2.636.813,8.156-.1a30.48,30.48,0,0,1-.242-5.824,38.055,38.055,0,0,0,1.456,5.46c1.167.535,2.487.061,4.732-.482a9.982,9.982,0,0,0,6.64,7.6c2.464.775,5.072,1.7,7.984.243s1.311-16.339-.235-19.332c-2.321-4.493-6.179-8.514-12.852-6.391A49.577,49.577,0,0,0,993.671-233Z" fill="#12263f"/>
        <path id="Path_168298" data-name="Path 168298" d="M1011.315-214.869l4.148,6.059s-4.6,11.486,8.773,16.69c10.472,4.076,9.238,11.257,4.506,18.479s2.831,13.528,2.831,13.528,1.154-8,11.328-9.51c13.872-2.059,17.8-20.684,7.439-30-8.574-7.706-11.183-1.324-16.987-8.24s-16.76-2.244-16.76-2.244l-4.016-5.857Z" fill="#12263f"/>
        <g id="Group_110095" data-name="Group 110095">
          <path id="Path_168299" data-name="Path 168299" d="M1055.112-180.9a.328.328,0,0,1-.159-.041.331.331,0,0,1-.132-.45c3.5-6.39.644-14.132-.791-16.229-.152-.221-.3-.446-.448-.683-1.41-2.2-3.166-4.942-12.522-6.626-2.242-.4-4.06-1.738-5.984-3.151-3.992-2.931-8.516-6.252-18.345-1.728a.331.331,0,0,1-.44-.163.332.332,0,0,1,.163-.439c10.184-4.687,14.875-1.244,19.014,1.795,1.861,1.366,3.619,2.657,5.709,3.033,9.642,1.735,11.484,4.611,12.964,6.921.149.233.29.454.436.667a17.95,17.95,0,0,1,2.37,6.88,16.154,16.154,0,0,1-1.544,10.042A.331.331,0,0,1,1055.112-180.9Z" fill="#12263f"/>
        </g>
        <g id="Group_110096" data-name="Group 110096">
          <path id="Path_168300" data-name="Path 168300" d="M1009.1-208.7a14.493,14.493,0,0,1-2.149-.173c-3.536-.53-8.281-2.541-8.653-13.841a.331.331,0,0,1,.32-.342.326.326,0,0,1,.343.32c.154,4.678,1.083,8.14,2.761,10.29a7.772,7.772,0,0,0,5.328,2.917c3.3.495,5.491-.118,6.508-1.82a.333.333,0,0,1,.455-.115.331.331,0,0,1,.115.455C1013.209-209.471,1011.522-208.7,1009.1-208.7Z" fill="#12263f"/>
        </g>
      </g>
      <g id="Group_110101" data-name="Group 110101">
        <path id="Path_168301" data-name="Path 168301" d="M692.456-200.679c-11.776,6.733-28.155,34.724-24.7,39.292s22.021-7.444,22.021-7.444Z" fill="#83d1d6"/>
        <path id="Path_168302" data-name="Path 168302" d="M714.457-233.14c-4.5-.122-2.828-3.464-8-2.13-2.719.7-.712,1.82-4.244,1.456s-5.27-.728-5.715,1.578-.66,3.033-2.359,3.4-2.466,3.4,0,5.46,1.267,2.912.721,4.611,1.315,1.82,2.326,3.4-.93,1.876.526,3.243a5.155,5.155,0,0,0,3.5,1.246l6.129-11.752Z" fill="#12263f"/>
        <path id="Path_168303" data-name="Path 168303" d="M806.07-92.078s6.552.182,11.648-1.82,8.553-5.1,7.644-1.456-5.1,9.884-8.736,10.493-4.914,4.612-6.916,4.612S804.8-84.861,799.7-87.166C795.056-89.267,806.07-92.078,806.07-92.078Z" fill="#12263f"/>
        <path id="Path_168304" data-name="Path 168304" d="M754.439-92.692a25.2,25.2,0,0,0,7.55,6.443c4.953,2.729,10.667,4.044,7.124,5.278a23.229,23.229,0,0,1-13.776.727c-3.544-1.029-7.7-1.244-8.8-2.919s1.292-5.879.3-12.163C746.042-100.361,754.439-92.692,754.439-92.692Z" fill="#12263f"/>
        <path id="Path_168305" data-name="Path 168305" d="M723.759-153.768s37.953,14.211,41.011,18.183,42.952,40.162,42.952,42.831-6.794,7.523-6.794,7.523-34.217-20.991-42.71-31.668S729-132.724,717.975-133.713,723.759-153.768,723.759-153.768Z" fill="#209299"/>
        <path id="Path_168306" data-name="Path 168306" d="M725.215-153.768s25.966-.971,31.547,0,17.824.959,9.816,23.559C760.3-112.5,758.23-90.07,758.23-90.07L745.751-87s.495-40.326,6.45-51.064a200.331,200.331,0,0,0-23.328,5.264c-20.465,5.853-31.686,2.922-31.686,2.922l-3.047-10.677Z" fill="#28b5bd"/>
        <path id="Path_168307" data-name="Path 168307" d="M703.532-220.808l-6.345,18.745,8.015,5.278,4.542-16.2Z" fill="#a86b48"/>
        <path id="Path_168308" data-name="Path 168308" d="M705.919-199.341l3.826-13.642-6.213-7.825-2.321,6.856A39.056,39.056,0,0,0,705.919-199.341Z" fill="#7a4e34"/>
        <path id="Path_168309" data-name="Path 168309" d="M719.715-217.635c.206,5.7-2.6,10.635-7.046,11.074s-8.513-3.808-9.073-9.485,2.595-10.636,7.046-11.075S719.39-226.632,719.715-217.635Z" fill="#a86b48"/>
        <path id="Path_168310" data-name="Path 168310" d="M694.14-202.609c-19.474,13.152-7.362,34.4-3.085,49.936,3.642,13.229,3.523,21.223,4.069,21.223s13.94-2,21.583-8.918a117.007,117.007,0,0,0,12.811-13.614s-9.792-1.744-12.993-14.413c-1.625-6.431-.886-9.923-4.59-20.115S694.14-202.609,694.14-202.609Z" fill="#98f2f9"/>
        <path id="Path_168311" data-name="Path 168311" d="M694.14-202.609l2.086-5.1s6.613,4.368,9.252,6.431a14.864,14.864,0,0,0,4.267,2.548s.953,7.316.334,6.652C702.274-200.447,694.14-202.609,694.14-202.609Z" fill="#98f2f9"/>
        <g id="Group_110099" data-name="Group 110099">
          <path id="Path_168312" data-name="Path 168312" d="M685.509-77.538h1.7L699.4-128.411h-3.741Z" fill="#204470"/>
          <path id="Path_168313" data-name="Path 168313" d="M736.446-77.538h-1.7l-13.992-52.672h3.741Z" fill="#204470"/>
          <g id="Group_110098" data-name="Group 110098">
            <path id="Path_168314" data-name="Path 168314" d="M704.451-126.5c-6.811,0-11.127-1.224-13.88-3.906-3.414-3.326-4.121-8.477-4.131-15.189-.021-14.109-.8-17.027-4.774-25.643a1.906,1.906,0,0,1,.933-2.529,1.907,1.907,0,0,1,2.529.933c4.2,9.108,5.1,12.455,5.124,27.233.01,6.8.873,10.414,2.978,12.464,2.16,2.1,6.064,2.971,12.658,2.807a74.863,74.863,0,0,0,14.271-1.764c4.631-.941,7.978-1.622,11.947.275a1.906,1.906,0,0,1,.9,2.541,1.9,1.9,0,0,1-2.541.9c-2.817-1.346-5.206-.86-9.544.021a78.143,78.143,0,0,1-14.936,1.839Q705.2-126.506,704.451-126.5Z" fill="#204470"/>
          </g>
        </g>
        <g id="Group_110100" data-name="Group 110100">
          <path id="Path_168315" data-name="Path 168315" d="M788.6-161.422H760.976a1.906,1.906,0,0,1-1.906-1.906,1.906,1.906,0,0,1,1.906-1.906h26.407l10.65-22.921a1.906,1.906,0,0,1,2.531-.925,1.906,1.906,0,0,1,.926,2.531l-11.163,24.024A1.906,1.906,0,0,1,788.6-161.422Z" fill="#5085c7"/>
        </g>
        <path id="Path_168316" data-name="Path 168316" d="M694.861-183.46s4.854,14.8,10.86,20.93,18.093,8.186,21.877,7.945c-3.017-1.212-8.762-4.664-11.073-13.81-1.625-6.431-.886-9.923-4.59-20.115-2.749-7.565-11.221-11.667-15.4-13.279,5.222,3.751,11.752,9.928,13.758,14.628C712.515-181.943,694.861-183.46,694.861-183.46Z" fill="#83d1d6"/>
        <path id="Path_168317" data-name="Path 168317" d="M761.849-170.469s8.371-3.822,9.281-3.458,10.192,5.969,10.192,6.9-8.19-3.46-8.19-3.46.91,2.426.364,3.589-6.841,1.164-12.52.8S761.849-170.469,761.849-170.469Z" fill="#a86b48"/>
        <path id="Path_168318" data-name="Path 168318" d="M695.129-194.9c-7.717,15.816,18.755,31.85,34.46,33.276s34.364-3.714,34.364-3.714l-2.1-5.135s-31.464-4.106-32.26-4.682S697.955-200.689,695.129-194.9Z" fill="#98f2f9"/>
        <path id="Path_168319" data-name="Path 168319" d="M705.163-220.275c.715,1.881.19,3.826-1.172,4.344s-3.046-.587-3.762-2.468-.19-3.826,1.172-4.344S704.447-222.156,705.163-220.275Z" fill="#a86b48"/>
        <path id="Path_168320" data-name="Path 168320" d="M719.726-232.317c2.132-.89,4.533-1.843,3.79,1.779-.323,1.578,0,1.133.567,2.589s-1.428,2.6-2.075,3.408.942,1.688-.352,2.658-3-.359-4.206,0c-3.6,1.075-3.155-1.756-5.177-2.345s-3.014-.5-3.4.8,1.416,5.553-.121,5.149-1.883,3.033-2.3,4.975-1.468-1.34-1.4-3.561c.105-3.406-.741-4.836-2-5.79s-1.788-9.618,4.278-9.941,6.106-.909,8.694-1.456S718.754-231.912,719.726-232.317Z" fill="#12263f"/>
      </g>
      <g id="Group_110102" data-name="Group 110102">
        <path id="Path_168321" data-name="Path 168321" d="M1059.851-133.365c3.869,3.531,2.187,7.063-.672,13.622s-3.364,30.778-3.364,30.778l2.354-.336s-.336-24.892,2.86-31.619,4.541-10.091,7.4-7.9S1059.851-133.365,1059.851-133.365Z" fill="#f6bf28"/>
        <path id="Path_168322" data-name="Path 168322" d="M1057.726-137.938c.47-2.093,3.26-4.358,6.991-6.279-.555,3.087-2.333,8.135-.493,9.17,2.482,1.4.242-5.651,1.2-9.525a46.091,46.091,0,0,1,11.6-3.8l-.016.042c-2.186,5.55-5.045,7.737-3.868,8.578.886.632,3.77-5.779,7.58-9.065,2.859-.152,5.278.235,6.71,1.368,2.211,1.751,3.7,3.305,1.471,8.637a10.005,10.005,0,0,1-4.829,1.751c-5.046.5-7.4.672-3.869,2.354,1.73.824,4.629-.046,6.979-.576-.762,1.4-1.7,2.995-2.838,4.806a17.942,17.942,0,0,1-2.364,3.009,7.466,7.466,0,0,1-3.8-.007c-2.354-1.009-8.409-4.205-9.922-2.859-1.482,1.317,11.213,2.151,10.333,5.5-6.153,3.545-13.194,1.859-14.439-1.4C1062.484-130.609,1056.312-131.638,1057.726-137.938Z" fill="#f6ce60"/>
        <path id="Path_168323" data-name="Path 168323" d="M1070.447-114.024c-6.727-5.046-13.623-.337-17.155,5.045s-1.009,17.491-1.009,17.491,1.346,0,1.346-.5-3.7-14.3,5.045-20.519c5.471-3.893,9.418-2.018,9.923-.168s-2.186,5.214-2.186,5.214Z" fill="#f6bf28"/>
        <path id="Path_168324" data-name="Path 168324" d="M1054.974-124.4c6.727,0,8.914,10.428,7.064,16.482s-4.373,17.323-4.373,17.323l-1.682-1.682s6.391-15.809,4.877-22.873-5.213-8.241-5.886-8.241S1054.974-124.4,1054.974-124.4Z" fill="#e0aa16"/>
        <path id="Path_168325" data-name="Path 168325" d="M1060.616-107.867a4.874,4.874,0,0,1,1.771-1.488,13.309,13.309,0,0,1-.349,1.441c-.843,2.759-1.826,6.6-2.646,9.964l-.366-2.119c-.042-.242-.075-.5-.1-.783A65.14,65.14,0,0,0,1060.616-107.867Z" fill="#bd8e12"/>
        <path id="Path_168326" data-name="Path 168326" d="M1062.456-107.816c12.782-5.382,6.047-12.767,17.316-7.89a8.362,8.362,0,0,1,2.729,2.4,8.392,8.392,0,0,1-3.57.287c-3.364-.5-2.187,2.186,3.363,2.859a12.418,12.418,0,0,1,2.6.549c2.644,5.078,3.836,11.76-1.76,14.083a12.694,12.694,0,0,1-3.982.817c-1.727-1.372.421-9.313-2.24-8.217-2.556,1.052.8,6.807.34,8.257a36.9,36.9,0,0,1-7.984-1.119,3.975,3.975,0,0,1-2.111-2.429c-.841-3.532,4.709-5.718,4.877-8.746.155-2.783-2.034,6.123-7.833,7.434C1058.959-101.977,1056.481-105.3,1062.456-107.816Z" fill="#f6ce60"/>
        <path id="Path_168327" data-name="Path 168327" d="M1053.348-117.332c1.346-2.859-2.186-3.532-2.018-1.346.149,1.938.166,6.647-1.821,7.929a31.187,31.187,0,0,1-11.614-3.856,1.437,1.437,0,0,1,.148-.877c1.514-3.027,11.269-5.55,8.241-6.559-2.411-.8-6.635,3.94-10.04,6.329-2.044-1.551-3.414-3.4-3.414-5.465,0-2.794,3.4-5.957,7.785-7.468,1.976.2,3.812,1.279,6.679,2.9,4.235,2.4,3.255-1.48-.749-3.783a12.059,12.059,0,0,1,9.445,5.184s-.24,1.508,1.356,3.841c4.355,6.365-.671,10.08-6.678,9.839A39.424,39.424,0,0,1,1053.348-117.332Z" fill="#f6ce60"/>
        <path id="Path_168328" data-name="Path 168328" d="M1070.042-114.309c3.289,2.541,6.943,5.512,11.428,7.531s3.588,8.6,3.588,8.6.673-5.681-3.065-7.625-6.2-4.26-9.045-4.709a40.928,40.928,0,0,1-4.41-.9s.9-1.794.374-2.467S1070.042-114.309,1070.042-114.309Z" fill="#f6bf28"/>
        <path id="Path_168329" data-name="Path 168329" d="M1086.254-144.154c-12.035,3.214-20.856,10.914-22.5,12.782s-1.645,2.392-1.645,2.392l1.271,2.392.6-.3s-.972-2.018,1.57-4.634a46,46,0,0,1,13.38-9.643C1082.591-142.734,1086.254-144.154,1086.254-144.154Z" fill="#f6bf28"/>
        <path id="Rectangle_36658" data-name="Rectangle 36658" d="M7.671,0h1.1a7.671,7.671,0,0,1,7.671,7.671v8.813a0,0,0,0,1,0,0H0a0,0,0,0,1,0,0V7.671A7.671,7.671,0,0,1,7.671,0Z" transform="translate(1063.551 -77.538) rotate(180)" fill="#28b5bd"/>
        <rect id="Rectangle_36659" data-name="Rectangle 36659" width="16.438" height="1.157" transform="translate(1047.113 -92.134)" fill="#fff"/>
        <rect id="Rectangle_36660" data-name="Rectangle 36660" width="16.438" height="0.681" transform="translate(1047.113 -90.024)" fill="#fff"/>
      </g>
      <g id="Group_110118" data-name="Group 110118">
        <g id="Group_110105" data-name="Group 110105">
          <path id="Path_168330" data-name="Path 168330" d="M860.249-306.831a21.221,21.221,0,0,0-20.944-21.22,21.282,21.282,0,0,0-21.5,20.875,21.152,21.152,0,0,0,5.614,14.726,9.625,9.625,0,0,1,2.55,6.526v9.513a11.223,11.223,0,0,0,11.19,11.19h3.73a11.224,11.224,0,0,0,11.19-11.19v-9.512a9.729,9.729,0,0,1,2.588-6.569A21.144,21.144,0,0,0,860.249-306.831Z" fill="#f6bf28"/>
          <path id="Path_168331" data-name="Path 168331" d="M857.285-305.407a18.257,18.257,0,0,0-18.019-18.255A18.307,18.307,0,0,0,820.774-305.7a18.192,18.192,0,0,0,4.829,12.669,8.281,8.281,0,0,1,2.194,5.615v8.183a9.655,9.655,0,0,0,9.626,9.627h3.21a9.655,9.655,0,0,0,9.626-9.627v-8.183a8.369,8.369,0,0,1,2.227-5.651A18.19,18.19,0,0,0,857.285-305.407Z" fill="#fff" opacity="0.5"/>
          <g id="Group_110103" data-name="Group 110103">
            <path id="Path_168332" data-name="Path 168332" d="M842.165-282.109h-6.989a.636.636,0,0,1-.633-.577c-.012-.136-1.316-13.626-7.349-17.4a.636.636,0,0,1-.2-.876.634.634,0,0,1,.875-.2c5.885,3.685,7.557,15.052,7.879,17.788h5.746a20.8,20.8,0,0,1,.572-5.1,27.976,27.976,0,0,1,6.835-12.585.635.635,0,0,1,.9-.038.635.635,0,0,1,.038.9c-7.931,8.635-7.049,17.3-7.039,17.383a.636.636,0,0,1-.158.495A.632.632,0,0,1,842.165-282.109Z" fill="#303c60"/>
          </g>
          <g id="Group_110104" data-name="Group 110104">
            <path id="Path_168333" data-name="Path 168333" d="M847.4-299.221c-2.359,0-5.576-1.677-8.964-3.493-4.375,2.33-8.462,4.42-10.749,3.033-1.075-.652-1.589-1.927-1.572-3.9.017-1.857.549-3.109,1.583-3.72,2.291-1.357,6.386.807,10.74,3.145,4.44-2.368,8.621-4.573,10.9-3.183,1.025.624,1.533,1.893,1.509,3.772-.025,1.954-.587,3.269-1.67,3.907A3.452,3.452,0,0,1,847.4-299.221Zm-7.613-4.213c3.488,1.855,7.138,3.63,8.75,2.68.674-.4,1.025-1.349,1.044-2.829.018-1.4-.284-2.3-.9-2.67C847.121-307.2,843.338-305.319,839.783-303.434Zm-10.373-3.021a2.078,2.078,0,0,0-1.069.248c-.624.369-.947,1.257-.959,2.638-.013,1.465.31,2.408.959,2.8,1.568.95,5.23-.816,8.743-2.669C834.244-304.952,831.263-306.455,829.41-306.455Z" fill="#303c60"/>
          </g>
          <rect id="Rectangle_36661" data-name="Rectangle 36661" width="9.275" height="5.591" rx="2.795" transform="translate(834.604 -267.793)" fill="#91e8ed"/>
          <path id="Path_168334" data-name="Path 168334" d="M825.356-283.252v6.728A11.753,11.753,0,0,0,837.075-264.8h3.906A11.753,11.753,0,0,0,852.7-276.524v-6.728Z" fill="#91e8ed"/>
          <rect id="Rectangle_36662" data-name="Rectangle 36662" width="29.817" height="3.219" rx="1.609" transform="translate(824.291 -284.353)" fill="#77bfc2"/>
          <rect id="Rectangle_36663" data-name="Rectangle 36663" width="29.817" height="3.219" rx="1.525" transform="matrix(0.992, -0.123, 0.123, 0.992, 824.206, -278.448)" fill="#77bfc2"/>
          <rect id="Rectangle_36664" data-name="Rectangle 36664" width="29.817" height="3.219" rx="1.525" transform="matrix(0.992, -0.123, 0.123, 0.992, 824.206, -273.798)" fill="#77bfc2"/>
          <rect id="Rectangle_36665" data-name="Rectangle 36665" width="25.092" height="3.219" rx="1.399" transform="matrix(0.992, -0.123, 0.123, 0.992, 827.132, -269.387)" fill="#77bfc2"/>
        </g>
        <g id="Group_110107" data-name="Group 110107">
          <path id="Path_168335" data-name="Path 168335" d="M1063.6-274.065h14.261A14.329,14.329,0,0,1,1063.6-259.8a14.33,14.33,0,0,1-14.261-14.261,14.33,14.33,0,0,1,14.261-14.261Z" fill="#c9f6f9"/>
          <g id="Group_110106" data-name="Group 110106">
            <path id="Path_168336" data-name="Path 168336" d="M1080.251-276.062a14.259,14.259,0,0,0-14.26-14.26v14.26Z" fill="#ff805a"/>
            <path id="Path_168337" data-name="Path 168337" d="M1051.73-276.062a14.261,14.261,0,0,0,14.261,14.261A14.328,14.328,0,0,1,1051.73-276.062Z" fill="#ff805a"/>
            <path id="Path_168338" data-name="Path 168338" d="M1065.991-290.322a14.26,14.26,0,0,0-14.261,14.26A14.328,14.328,0,0,1,1065.991-290.322Z" fill="#ff805a"/>
            <path id="Path_168339" data-name="Path 168339" d="M1065.991-261.8a14.26,14.26,0,0,0,14.26-14.261A14.328,14.328,0,0,1,1065.991-261.8Z" fill="#ff805a"/>
          </g>
        </g>
        <g id="Group_110108" data-name="Group 110108">
          <rect id="Rectangle_36666" data-name="Rectangle 36666" width="3.874" height="11.211" transform="translate(753 -267.552)" fill="#91e8ed"/>
          <rect id="Rectangle_36667" data-name="Rectangle 36667" width="3.875" height="7.564" transform="translate(802.661 -263.905)" fill="#91e8ed"/>
          <rect id="Rectangle_36668" data-name="Rectangle 36668" width="3.874" height="26.23" transform="translate(769.42 -282.572)" fill="#91e8ed"/>
          <rect id="Rectangle_36669" data-name="Rectangle 36669" width="3.874" height="11.79" transform="translate(777.63 -268.132)" fill="#91e8ed"/>
          <rect id="Rectangle_36670" data-name="Rectangle 36670" width="3.874" height="15.127" transform="translate(785.84 -271.469)" fill="#91e8ed"/>
          <rect id="Rectangle_36671" data-name="Rectangle 36671" width="3.874" height="18.613" transform="translate(761.21 -274.954)" fill="#91e8ed"/>
          <rect id="Rectangle_36672" data-name="Rectangle 36672" width="3.874" height="22.924" transform="translate(794.077 -279.266)" fill="#91e8ed"/>
        </g>
        <g id="Group_110110" data-name="Group 110110">
          <g id="Group_110109" data-name="Group 110109" clip-path="url(#clip-path)">
            <path id="Path_168340" data-name="Path 168340" d="M658.487-289.618l-16.335-9.988L639.2-280.689A19.17,19.17,0,0,0,658.487-289.618Z" fill="#77bfc2"/>
            <path id="Path_168341" data-name="Path 168341" d="M658.5-289.64c.044-.072.1-.172.1-.168a19.146,19.146,0,0,0,.424-18.847c-5.78,3.028-2.338,1.188-16.875,9.049C658.513-289.6,655.973-291.144,658.5-289.64Z" fill="#f6bf28"/>
            <path id="Path_168342" data-name="Path 168342" d="M624.2-306.222l17.955,6.616L659-308.714C651.117-323.285,629.909-321.538,624.2-306.222Z" fill="#91e8ed"/>
            <path id="Path_168343" data-name="Path 168343" d="M639.2-280.689l2.954-18.917L624.2-306.222A19.185,19.185,0,0,0,639.2-280.689Z" fill="#ff805a"/>
            <path id="Path_168344" data-name="Path 168344" d="M623.022-303.091a1.843,1.843,0,0,1,.907.235,18.206,18.206,0,0,1,.652-2.548l9.75,3.593v-.009a1.73,1.73,0,0,1,.424-1.19l-.976-.359-8.753-3.225a18.738,18.738,0,0,1,2.82-4.743,1.9,1.9,0,0,1-.974-.817,20.056,20.056,0,0,0-3.038,5.121l-.01,0-.221.592-.223.6.01,0a19.6,19.6,0,0,0-.714,2.788A1.754,1.754,0,0,1,623.022-303.091Z" fill="#fff"/>
            <path id="Path_168345" data-name="Path 168345" d="M659.847-308.452l.01-.006-.3-.559-.019-.033-.247-.46-.009.005a19.547,19.547,0,0,0-7.893-7.655,19.784,19.784,0,0,0-10.525-2.158,19.816,19.816,0,0,0-11.415,4.552,1.964,1.964,0,0,1,.807.984,18.551,18.551,0,0,1,10.7-4.269,18.225,18.225,0,0,1,17.176,9.085l-4.975,2.69c-1.027.553-2.462,1.329-4.866,2.63l-5.96,3.224-.153.083-.5-.306-.028.174-3.5-1.29a1.755,1.755,0,0,1-.468,1.181l3.771,1.39-2.774,17.763a18.536,18.536,0,0,1-12.51-8.916,18.363,18.363,0,0,1-2.521-9.049,1.807,1.807,0,0,1-.617.113,1.86,1.86,0,0,1-.653-.119,19.637,19.637,0,0,0,2.694,9.7,19.8,19.8,0,0,0,13.411,9.531l0,.011.626.1.629.1,0-.011a19.782,19.782,0,0,0,2.439.152,19.675,19.675,0,0,0,8.318-1.849,19.758,19.758,0,0,0,8.22-7.111l.013.008.124-.2.2-.332c.031-.051.068-.115.09-.151l.013-.022.01-.017.2-.329-.009-.006A19.86,19.86,0,0,0,659.847-308.452Zm-19.922,27.223,2.708-17.339,7.048,4.311c2.841,1.738,4.466,2.732,5.49,3.356l2.433,1.488A18.436,18.436,0,0,1,639.925-281.229Zm18.353-9.284-.121-.071c-.667-.4-.957-.567-2.287-1.379l-12.445-7.61,10.331-5.586c1.517-.816,2.139-1.141,3.68-1.947l1.319-.69A18.584,18.584,0,0,1,658.278-290.513Z" fill="#e7f3fe"/>
          </g>
        </g>
        <g id="Group_110112" data-name="Group 110112">
          <path id="Rectangle_36673" data-name="Rectangle 36673" d="M4.084,0H50.666a4.085,4.085,0,0,1,4.085,4.085V20.658a4.085,4.085,0,0,1-4.085,4.085H4.084A4.084,4.084,0,0,1,0,20.659V4.084A4.084,4.084,0,0,1,4.084,0Z" transform="translate(704.184 -320.848)" fill="#91e8ed"/>
          <rect id="Rectangle_36674" data-name="Rectangle 36674" width="51.757" height="17.081" rx="2.043" transform="translate(705.681 -314.348)" fill="#fff"/>
          <g id="Group_110111" data-name="Group 110111">
            <rect id="Rectangle_36675" data-name="Rectangle 36675" width="2.145" height="1.93" rx="0.965" transform="translate(706.441 -319.027)" fill="#fff"/>
            <rect id="Rectangle_36676" data-name="Rectangle 36676" width="2.145" height="1.93" rx="0.965" transform="translate(710.341 -319.027)" fill="#fff"/>
            <rect id="Rectangle_36677" data-name="Rectangle 36677" width="2.145" height="1.93" rx="0.965" transform="translate(714.241 -319.027)" fill="#fff"/>
          </g>
          <path id="Path_168347" data-name="Path 168347" d="M755.332-310.6H727.955a.821.821,0,0,1-.819-.819.822.822,0,0,1,.819-.819h27.377a.822.822,0,0,1,.819.819A.821.821,0,0,1,755.332-310.6Z" fill="#91e8ed"/>
          <path id="Path_168348" data-name="Path 168348" d="M734.741-299.663H707.364a.821.821,0,0,1-.819-.819.821.821,0,0,1,.819-.818h27.377a.821.821,0,0,1,.819.818A.821.821,0,0,1,734.741-299.663Z" fill="#91e8ed"/>
          <rect id="Rectangle_36678" data-name="Rectangle 36678" width="3.393" height="1.638" rx="0.819" transform="translate(736.671 -301.3)" fill="#91e8ed"/>
          <rect id="Rectangle_36679" data-name="Rectangle 36679" width="3.393" height="1.638" rx="0.819" transform="translate(740.942 -301.3)" fill="#91e8ed"/>
          <path id="Path_168349" data-name="Path 168349" d="M755.595-307.035H710.26a.558.558,0,0,1-.556-.556.557.557,0,0,1,.556-.556h45.335a.557.557,0,0,1,.556.556A.558.558,0,0,1,755.595-307.035Z" fill="#91e8ed"/>
          <path id="Path_168350" data-name="Path 168350" d="M755.595-304.637H710.26a.557.557,0,0,1-.556-.556.558.558,0,0,1,.556-.556h45.335a.558.558,0,0,1,.556.556A.557.557,0,0,1,755.595-304.637Z" fill="#91e8ed"/>
        </g>
        <g id="Group_110113" data-name="Group 110113">
          <path id="Path_168351" data-name="Path 168351" d="M903.366-311.861h-23.38v-13.626h17.583l5.8,5.8Z" fill="#ff805a"/>
          <path id="Path_168352" data-name="Path 168352" d="M897.14-325.487v7.273h6.226v-1.4l-5.836-5.836Z" fill="#ff805a" style="mix-blend-mode: multiply;isolation: isolate"/>
          <path id="Path_168353" data-name="Path 168353" d="M897.569-325.487v5.876h5.8Z" fill="#ff805a"/>
          <path id="Path_168354" data-name="Path 168354" d="M893.042-320.374H882.623a.414.414,0,0,1-.413-.413.414.414,0,0,1,.413-.412h10.419a.414.414,0,0,1,.413.412A.414.414,0,0,1,893.042-320.374Z" fill="#fff"/>
          <path id="Path_168355" data-name="Path 168355" d="M893.042-318.261H882.623a.414.414,0,0,1-.413-.413.414.414,0,0,1,.413-.413h10.419a.414.414,0,0,1,.413.413A.414.414,0,0,1,893.042-318.261Z" fill="#fff"/>
          <path id="Path_168356" data-name="Path 168356" d="M893.042-316.037H882.623a.414.414,0,0,1-.413-.413.414.414,0,0,1,.413-.413h10.419a.414.414,0,0,1,.413.413A.414.414,0,0,1,893.042-316.037Z" fill="#fff"/>
        </g>
        <circle id="Ellipse_5377" data-name="Ellipse 5377" cx="0.699" cy="0.699" r="0.699" transform="translate(890.278 -325.138)" fill="#12263f"/>
        <rect id="Rectangle_36680" data-name="Rectangle 36680" width="14.859" height="17.916" transform="translate(778.248 -327.64) rotate(10.935)" fill="#f6bf28"/>
        <path id="Path_168357" data-name="Path 168357" d="M789.75-317.216l-7.735-1.495a.381.381,0,0,1-.3-.446.382.382,0,0,1,.447-.3l7.734,1.494a.382.382,0,0,1,.3.447A.381.381,0,0,1,789.75-317.216Z" fill="#303c60"/>
        <path id="Path_168358" data-name="Path 168358" d="M789.376-315.282l-7.734-1.495a.382.382,0,0,1-.3-.446.381.381,0,0,1,.446-.3l7.735,1.494a.383.383,0,0,1,.3.447A.384.384,0,0,1,789.376-315.282Z" fill="#303c60"/>
        <path id="Path_168359" data-name="Path 168359" d="M788.992-313.3l-7.734-1.494a.383.383,0,0,1-.3-.447.383.383,0,0,1,.446-.3l7.735,1.495a.382.382,0,0,1,.3.446A.383.383,0,0,1,788.992-313.3Z" fill="#303c60"/>
        <path id="Path_168360" data-name="Path 168360" d="M784.514-325.281a.636.636,0,0,1-.744.5.637.637,0,0,1-.5-.745.637.637,0,0,1,.745-.5A.635.635,0,0,1,784.514-325.281Z" fill="#303c60"/>
        <path id="Path_168361" data-name="Path 168361" d="M914.156-292.8l-22.579-2.378,1.491-14.153,17.9,1.886,4.184,5.169Z" fill="#91e8ed"/>
        <path id="Path_168362" data-name="Path 168362" d="M910.65-306.43l-16.806-1.77-1.258,11.941,20.894,2.2.737-6.992-4.088-.431Z" fill="#fff"/>
        <path id="Path_168363" data-name="Path 168363" d="M908.372-302.092l-10.887-1.147a.458.458,0,0,1-.406-.5.457.457,0,0,1,.5-.406L908.467-303a.457.457,0,0,1,.406.5A.457.457,0,0,1,908.372-302.092Z" fill="#77bfc2"/>
        <path id="Path_168364" data-name="Path 168364" d="M908.119-299.693l-10.887-1.147a.458.458,0,0,1-.406-.5.458.458,0,0,1,.5-.406l10.886,1.147a.457.457,0,0,1,.406.5A.457.457,0,0,1,908.119-299.693Z" fill="#77bfc2"/>
        <path id="Path_168365" data-name="Path 168365" d="M907.855-297.188l-10.887-1.147a.456.456,0,0,1-.405-.5.457.457,0,0,1,.5-.406l10.887,1.147a.456.456,0,0,1,.405.5A.457.457,0,0,1,907.855-297.188Z" fill="#77bfc2"/>
        <circle id="Ellipse_5378" data-name="Ellipse 5378" cx="0.699" cy="0.699" r="0.699" transform="translate(900.818 -306.757)" fill="#12263f"/>
        <g id="Group_110115" data-name="Group 110115">
          <path id="Path_168366" data-name="Path 168366" d="M1045.338-317.1a7.8,7.8,0,0,1-7.8,7.795,7.8,7.8,0,0,1-7.795-7.795,7.8,7.8,0,0,1,7.795-7.8A7.8,7.8,0,0,1,1045.338-317.1Z" fill="#f6bf28"/>
          <g id="Group_110114" data-name="Group 110114">
            <path id="Path_168367" data-name="Path 168367" d="M1036.769-314.429h-.014a.383.383,0,0,1-.272-.129l-2.117-2.406a.381.381,0,0,1,.034-.538.381.381,0,0,1,.538.034l1.852,2.1,4.236-4.145a.381.381,0,0,1,.539.005.381.381,0,0,1-.006.539l-4.523,4.427A.382.382,0,0,1,1036.769-314.429Z" fill="#12263f"/>
          </g>
        </g>
        <g id="Group_110116" data-name="Group 110116">
          <path id="Rectangle_36681" data-name="Rectangle 36681" d="M10.122,0H39.007A10.123,10.123,0,0,1,49.13,10.123v0A10.123,10.123,0,0,1,39.007,20.245H10.122A10.122,10.122,0,0,1,0,10.123v0A10.122,10.122,0,0,1,10.122,0Z" transform="translate(692.359 -244.736) rotate(-180)" fill="#91e8ed"/>
          <path id="Path_168368" data-name="Path 168368" d="M686.425-247.79v11.17l-12.871-12.872S686.163-247.79,686.425-247.79Z" fill="#91e8ed"/>
          <rect id="Rectangle_36682" data-name="Rectangle 36682" width="44.048" height="16.231" rx="8.116" transform="translate(689.818 -246.743) rotate(180)" fill="#fff"/>
          <path id="Path_168369" data-name="Path 168369" d="M665.831-258.96h19.9a.876.876,0,0,0,.873-.873.875.875,0,0,0-.873-.872h-19.9a.875.875,0,0,0-.873.872A.876.876,0,0,0,665.831-258.96Z" fill="#91e8ed"/>
          <rect id="Rectangle_36683" data-name="Rectangle 36683" width="37.873" height="0.98" rx="0.49" transform="translate(686.6 -255.624) rotate(180)" fill="#91e8ed"/>
          <rect id="Rectangle_36684" data-name="Rectangle 36684" width="37.873" height="0.98" rx="0.49" transform="translate(686.6 -253.724) rotate(180)" fill="#91e8ed"/>
        </g>
        <g id="Group_110117" data-name="Group 110117">
          <path id="Rectangle_36685" data-name="Rectangle 36685" d="M1.87,0h.416a1.87,1.87,0,0,1,1.87,1.87v0A1.871,1.871,0,0,1,2.286,3.741H1.87A1.87,1.87,0,0,1,0,1.871v0A1.87,1.87,0,0,1,1.87,0Z" transform="translate(1023.967 -269.881) rotate(180)" fill="#f6bf28"/>
          <path id="Rectangle_36686" data-name="Rectangle 36686" d="M1.87,0h.416a1.87,1.87,0,0,1,1.87,1.87v0a1.87,1.87,0,0,1-1.87,1.87H1.871A1.871,1.871,0,0,1,0,1.87v0A1.87,1.87,0,0,1,1.87,0Z" transform="translate(1016.409 -269.881) rotate(180)" fill="#f6bf28"/>
          <path id="Rectangle_36687" data-name="Rectangle 36687" d="M1.87,0h.416a1.87,1.87,0,0,1,1.87,1.87v0A1.871,1.871,0,0,1,2.286,3.741H1.87A1.87,1.87,0,0,1,0,1.871v0A1.87,1.87,0,0,1,1.87,0Z" transform="translate(1008.852 -269.881) rotate(-180)" fill="#f6bf28"/>
        </g>
      </g>
    </g>
  </g>
</svg>
