<svg xmlns="http://www.w3.org/2000/svg" xmlns:xlink="http://www.w3.org/1999/xlink" width="1032.099" height="244.742" viewBox="0 0 1032.099 244.742">
  <defs>
    <radialGradient id="radial-gradient" cx="0.487" cy="0.5" r="0.458" gradientTransform="matrix(-1, 0, 0, 0.918, 0.974, 0.041)" gradientUnits="objectBoundingBox">
      <stop offset="0" stop-opacity="0.251"/>
      <stop offset="1" stop-color="#f2f2f2" stop-opacity="0"/>
    </radialGradient>
  </defs>
  <g id="t1-info1" transform="translate(-284 -784)">
    <ellipse id="Ellipse_5653" data-name="Ellipse 5653" cx="75.599" cy="10.972" rx="75.599" ry="10.972" transform="translate(300.635 1006.798)" fill="url(#radial-gradient)"/>
    <ellipse id="Ellipse_5654" data-name="Ellipse 5654" cx="75.599" cy="10.972" rx="75.599" ry="10.972" transform="translate(513 1006.798)" fill="url(#radial-gradient)"/>
    <ellipse id="Ellipse_5655" data-name="Ellipse 5655" cx="75.599" cy="10.972" rx="75.599" ry="10.972" transform="translate(724 1006.798)" fill="url(#radial-gradient)"/>
    <ellipse id="Ellipse_5656" data-name="Ellipse 5656" cx="75.599" cy="10.972" rx="75.599" ry="10.972" transform="translate(936 1006.798)" fill="url(#radial-gradient)"/>
    <ellipse id="Ellipse_5657" data-name="Ellipse 5657" cx="75.599" cy="10.972" rx="75.599" ry="10.972" transform="translate(1148 1006.798)" fill="url(#radial-gradient)"/>
    <g id="Group_116800" data-name="Group 116800" transform="translate(931.099 2691.371)">
      <path id="Path_176807" data-name="Path 176807" d="M385-1831.552" fill="none"/>
      <g id="Group_116799" data-name="Group 116799">
        <path id="Path_176808" data-name="Path 176808" d="M383.156-1832.639h1.438v73.428a17.029,17.029,0,0,1-8.489,14.707l-75.076,43.345a17.031,17.031,0,0,1-16.982,0l-72.7-42.1.721-1.245,72.7,42.1a15.586,15.586,0,0,0,15.543,0l75.075-43.344a15.589,15.589,0,0,0,7.771-13.462Z" fill="#12263f"/>
      </g>
      <path id="Path_176809" data-name="Path 176809" d="M199.9-1759.133v-87.839a16.473,16.473,0,0,1,8.241-14.271l76.071-43.92a16.475,16.475,0,0,1,16.478,0l76.071,43.92A16.476,16.476,0,0,1,385-1846.972v15.42l-171.941,89.53-4.917-2.839A16.473,16.473,0,0,1,199.9-1759.133Z" fill="#98f2f9"/>
      <path id="Path_176810" data-name="Path 176810" d="M376.255-1841.923v77.742a16.477,16.477,0,0,1-8.239,14.27L300.69-1711.04a16.477,16.477,0,0,1-16.479,0l-67.326-38.871a16.477,16.477,0,0,1-8.239-14.27v-77.742a16.48,16.48,0,0,1,8.239-14.271l67.326-38.871a16.482,16.482,0,0,1,16.479,0l67.326,38.871A16.48,16.48,0,0,1,376.255-1841.923Z" fill="#28b5bd"/>
      <path id="Path_176811" data-name="Path 176811" d="M367.51-1836.874v67.644a16.475,16.475,0,0,1-8.239,14.27l-58.581,33.823a16.482,16.482,0,0,1-16.479,0l-58.581-33.822a16.48,16.48,0,0,1-8.239-14.271v-67.644a16.48,16.48,0,0,1,8.239-14.271l58.581-33.822a16.478,16.478,0,0,1,16.479,0l58.581,33.822A16.478,16.478,0,0,1,367.51-1836.874Z" fill="#fff"/>
    </g>
    <g id="Group_116802" data-name="Group 116802" transform="translate(930.824 2691.371)">
      <path id="Path_176812" data-name="Path 176812" d="M128.193-1831.552" fill="none"/>
      <g id="Group_116801" data-name="Group 116801">
        <path id="Path_176813" data-name="Path 176813" d="M171.43-1832.639h1.439v73.428a17.028,17.028,0,0,1-8.49,14.707L89.3-1701.159a17.031,17.031,0,0,1-16.982,0l-72.7-42.1.721-1.245,72.7,42.1a15.586,15.586,0,0,0,15.543,0l75.075-43.344a15.588,15.588,0,0,0,7.77-13.462Z" fill="#12263f"/>
      </g>
      <path id="Path_176814" data-name="Path 176814" d="M-11.824-1759.133v-87.839a16.474,16.474,0,0,1,8.24-14.271l76.072-43.92a16.475,16.475,0,0,1,16.478,0l76.071,43.92a16.478,16.478,0,0,1,8.238,14.271v15.42L1.334-1742.022l-4.918-2.839A16.474,16.474,0,0,1-11.824-1759.133Z" fill="#ffa185"/>
      <path id="Path_176815" data-name="Path 176815" d="M164.53-1841.923v77.742a16.477,16.477,0,0,1-8.239,14.27L88.964-1711.04a16.475,16.475,0,0,1-16.478,0L5.16-1749.911a16.475,16.475,0,0,1-8.239-14.27v-77.742a16.478,16.478,0,0,1,8.239-14.271l67.326-38.871a16.48,16.48,0,0,1,16.478,0l67.327,38.871A16.48,16.48,0,0,1,164.53-1841.923Z" fill="#ff805a"/>
      <path id="Path_176816" data-name="Path 176816" d="M155.785-1836.874v67.644a16.478,16.478,0,0,1-8.239,14.27l-58.582,33.823a16.481,16.481,0,0,1-16.478,0L13.9-1754.959a16.478,16.478,0,0,1-8.239-14.271v-67.644a16.478,16.478,0,0,1,8.239-14.271l58.581-33.822a16.476,16.476,0,0,1,16.478,0l58.582,33.822A16.48,16.48,0,0,1,155.785-1836.874Z" fill="#fff"/>
    </g>
    <g id="Group_116804" data-name="Group 116804" transform="translate(930.549 2691.371)">
      <g id="Group_116803" data-name="Group 116803">
        <path id="Path_176818" data-name="Path 176818" d="M-40.295-1832.639h1.438v73.428a17.03,17.03,0,0,1-8.489,14.707l-75.076,43.345a17.029,17.029,0,0,1-16.981,0l-72.7-42.1.721-1.245,72.7,42.1a15.584,15.584,0,0,0,15.542,0l75.076-43.344a15.588,15.588,0,0,0,7.77-13.462Z" fill="#12263f"/>
      </g>
      <path id="Path_176819" data-name="Path 176819" d="M-223.549-1759.133v-87.839a16.474,16.474,0,0,1,8.24-14.271l76.071-43.92a16.477,16.477,0,0,1,16.479,0l76.071,43.92a16.477,16.477,0,0,1,8.237,14.271v15.42l-171.94,89.53-4.918-2.839A16.474,16.474,0,0,1-223.549-1759.133Z" fill="#f6cf65"/>
      <path id="Path_176820" data-name="Path 176820" d="M-47.195-1841.923v77.742a16.477,16.477,0,0,1-8.239,14.27l-67.327,38.871a16.475,16.475,0,0,1-16.478,0l-67.326-38.871a16.475,16.475,0,0,1-8.239-14.27v-77.742a16.478,16.478,0,0,1,8.239-14.271l67.326-38.871a16.48,16.48,0,0,1,16.478,0l67.327,38.871A16.48,16.48,0,0,1-47.195-1841.923Z" fill="#f6bf28"/>
      <path id="Path_176821" data-name="Path 176821" d="M-55.94-1836.874v67.644a16.478,16.478,0,0,1-8.239,14.27l-58.582,33.823a16.481,16.481,0,0,1-16.478,0l-58.582-33.822a16.48,16.48,0,0,1-8.239-14.271v-67.644a16.48,16.48,0,0,1,8.239-14.271l58.582-33.822a16.476,16.476,0,0,1,16.478,0l58.582,33.822A16.48,16.48,0,0,1-55.94-1836.874Z" fill="#fff"/>
    </g>
    <g id="Group_116806" data-name="Group 116806" transform="translate(931.275 2691.371)">
      <g id="Group_116805" data-name="Group 116805">
        <path id="Path_176823" data-name="Path 176823" d="M-252.02-1832.639h1.438v73.428a17.03,17.03,0,0,1-8.489,14.707l-75.076,43.345a17.029,17.029,0,0,1-16.981,0l-72.7-42.1.721-1.245,72.7,42.1a15.586,15.586,0,0,0,15.543,0l75.076-43.344a15.59,15.59,0,0,0,7.77-13.462Z" fill="#12263f"/>
      </g>
      <path id="Path_176824" data-name="Path 176824" d="M-435.275-1759.133v-87.839a16.475,16.475,0,0,1,8.241-14.271l76.071-43.92a16.475,16.475,0,0,1,16.478,0l76.072,43.92a16.477,16.477,0,0,1,8.237,14.271v15.42l-171.941,89.53-4.917-2.839A16.475,16.475,0,0,1-435.275-1759.133Z" fill="#ffa185"/>
      <path id="Path_176825" data-name="Path 176825" d="M-258.921-1841.923v77.742a16.475,16.475,0,0,1-8.239,14.27l-67.326,38.871a16.475,16.475,0,0,1-16.478,0l-67.327-38.871a16.477,16.477,0,0,1-8.239-14.27v-77.742a16.48,16.48,0,0,1,8.239-14.271l67.327-38.871a16.48,16.48,0,0,1,16.478,0l67.326,38.871A16.478,16.478,0,0,1-258.921-1841.923Z" fill="#ff805a"/>
      <path id="Path_176826" data-name="Path 176826" d="M-267.665-1836.874v67.644a16.476,16.476,0,0,1-8.24,14.27l-58.581,33.823a16.481,16.481,0,0,1-16.478,0l-58.582-33.822a16.48,16.48,0,0,1-8.239-14.271v-67.644a16.48,16.48,0,0,1,8.239-14.271l58.582-33.822a16.476,16.476,0,0,1,16.478,0l58.581,33.822A16.479,16.479,0,0,1-267.665-1836.874Z" fill="#fff"/>
    </g>
    <g id="Group_116808" data-name="Group 116808" transform="translate(931 2691.371)">
      <g id="Group_116807" data-name="Group 116807">
        <path id="Path_176828" data-name="Path 176828" d="M-463.746-1832.639h1.439v73.428A17.03,17.03,0,0,1-470.8-1744.5l-75.076,43.345a17.031,17.031,0,0,1-16.982,0l-72.7-42.1.721-1.245,72.7,42.1a15.586,15.586,0,0,0,15.543,0l75.076-43.344a15.589,15.589,0,0,0,7.769-13.462Z" fill="#12263f"/>
      </g>
      <path id="Path_176829" data-name="Path 176829" d="M-647-1759.133v-87.839a16.473,16.473,0,0,1,8.241-14.271l76.071-43.92a16.475,16.475,0,0,1,16.478,0l76.071,43.92a16.476,16.476,0,0,1,8.238,14.271v15.42l-171.941,89.53-4.917-2.839A16.473,16.473,0,0,1-647-1759.133Z" fill="#98f2f9"/>
      <path id="Path_176830" data-name="Path 176830" d="M-470.646-1841.923v77.742a16.477,16.477,0,0,1-8.239,14.27l-67.326,38.871a16.477,16.477,0,0,1-16.479,0l-67.326-38.871a16.477,16.477,0,0,1-8.239-14.27v-77.742a16.48,16.48,0,0,1,8.239-14.271l67.326-38.871a16.482,16.482,0,0,1,16.479,0l67.326,38.871A16.48,16.48,0,0,1-470.646-1841.923Z" fill="#28b5bd"/>
      <path id="Path_176831" data-name="Path 176831" d="M-479.391-1836.874v67.644a16.475,16.475,0,0,1-8.239,14.27l-58.581,33.823a16.482,16.482,0,0,1-16.479,0l-58.581-33.822a16.48,16.48,0,0,1-8.239-14.271v-67.644a16.48,16.48,0,0,1,8.239-14.271l58.581-33.822a16.478,16.478,0,0,1,16.479,0l58.581,33.822A16.478,16.478,0,0,1-479.391-1836.874Z" fill="#fff"/>
    </g>
    <path id="Path_178434" data-name="Path 178434" d="M2.344,0H-.984V-13.031L-4.23-11.777v-2.766l6.223-2.543h.352Z" transform="translate(377 851.292)" fill="#28b5bd"/>
    <path id="Path_178438" data-name="Path 178438" d="M-4.617-8.391l.844-8.672H4.488v2.836H-1.055l-.3,3.656a3.512,3.512,0,0,1,1.98-.645,3.846,3.846,0,0,1,3.252,1.5A6.877,6.877,0,0,1,5.016-5.473,6.1,6.1,0,0,1,3.656-1.336,4.564,4.564,0,0,1,.023.234,5.051,5.051,0,0,1-2.473-.4,4.706,4.706,0,0,1-4.283-2.18a5.112,5.112,0,0,1-.674-2.578h3.281a3.088,3.088,0,0,0,.527,1.652A1.38,1.38,0,0,0,0-2.52a1.388,1.388,0,0,0,1.266-.791,4.936,4.936,0,0,0,.445-2.361A3.838,3.838,0,0,0,1.178-7.9a1.728,1.728,0,0,0-1.494-.75A1.755,1.755,0,0,0-1.77-8l-.211.293Z" transform="translate(1224 851.292)" fill="#28b5bd"/>
    <path id="Path_178435" data-name="Path 178435" d="M5.1,0H-4.957V-2.344L-.34-8.215A12.862,12.862,0,0,0,.955-10.354a4.277,4.277,0,0,0,.416-1.764A3.422,3.422,0,0,0,.979-13.9a1.25,1.25,0,0,0-1.131-.645,1.454,1.454,0,0,0-1.283.75,3.943,3.943,0,0,0-.475,2.109H-5.238a6.329,6.329,0,0,1,.65-2.871A4.857,4.857,0,0,1-2.76-16.576,5,5,0,0,1-.094-17.3a4.793,4.793,0,0,1,3.545,1.26,4.843,4.843,0,0,1,1.26,3.58,6.831,6.831,0,0,1-.7,2.924,17.977,17.977,0,0,1-2.525,3.65L-.7-2.754H5.1Z" transform="translate(589 851.292)" fill="#ff805a"/>
    <path id="Path_178437" data-name="Path 178437" d="M3.785-6.445H5.238v2.754H3.785V0H.469V-3.691H-5.18l-.152-2.145L.457-17.062H3.785Zm-5.895,0H.469v-5.707l-.07.129Z" transform="translate(1012 851.292)" fill="#ff805a"/>
    <path id="Path_178436" data-name="Path 178436" d="M-2-10.043H-.4a1.5,1.5,0,0,0,1.342-.639,3.02,3.02,0,0,0,.428-1.705,2.542,2.542,0,0,0-.439-1.588,1.413,1.413,0,0,0-1.178-.568A1.393,1.393,0,0,0-1.377-14a2.081,2.081,0,0,0-.439,1.359H-5.133a4.688,4.688,0,0,1,.615-2.4A4.32,4.32,0,0,1-2.795-16.7,5.085,5.085,0,0,1-.34-17.3,5.067,5.067,0,0,1,3.352-16a4.742,4.742,0,0,1,1.336,3.563,4.057,4.057,0,0,1-.6,2.15A4.11,4.11,0,0,1,2.5-8.766a3.649,3.649,0,0,1,1.8,1.547,4.815,4.815,0,0,1,.592,2.438A4.785,4.785,0,0,1,3.439-1.137,5.3,5.3,0,0,1-.363.234,4.834,4.834,0,0,1-3.92-1.119,4.786,4.786,0,0,1-5.285-4.676h3.316a2.434,2.434,0,0,0,.48,1.535A1.479,1.479,0,0,0-.27-2.52a1.631,1.631,0,0,0,1.354-.633,2.653,2.653,0,0,0,.5-1.687q0-2.52-1.957-2.531H-2Z" transform="translate(800 851.292)" fill="#f6bf28"/>
    <path id="Path_178424" data-name="Path 178424" d="M13.169,16V3.914h3.893a5.727,5.727,0,0,1,2.88.726,5.105,5.105,0,0,1,2,2.05,6.19,6.19,0,0,1,.726,2.968v.556a6.226,6.226,0,0,1-.7,2.976,5.127,5.127,0,0,1-1.976,2.059A5.6,5.6,0,0,1,17.146,16Zm2.914-9.836v7.6H17.1a2.267,2.267,0,0,0,1.926-.892,4.373,4.373,0,0,0,.672-2.652V9.691a4.337,4.337,0,0,0-.672-2.64,2.306,2.306,0,0,0-1.959-.888ZM26.982,16H24.176V7.019h2.806ZM24.01,4.694a1.26,1.26,0,0,1,.432-.985,1.826,1.826,0,0,1,2.241,0,1.26,1.26,0,0,1,.432.985,1.26,1.26,0,0,1-.432.985,1.826,1.826,0,0,1-2.241,0A1.26,1.26,0,0,1,24.01,4.694Zm9.4,8.782a.646.646,0,0,0-.374-.573,5.682,5.682,0,0,0-1.419-.448,6.473,6.473,0,0,1-1.727-.61,2.892,2.892,0,0,1-1.038-.917,2.19,2.19,0,0,1-.357-1.237,2.482,2.482,0,0,1,1.021-2.038,4.206,4.206,0,0,1,2.673-.8,4.66,4.66,0,0,1,2.855.805,2.518,2.518,0,0,1,1.079,2.117H33.315q0-1.079-1.137-1.079a1.127,1.127,0,0,0-.739.245.758.758,0,0,0-.3.61.7.7,0,0,0,.365.606,3.451,3.451,0,0,0,1.166.382,10.078,10.078,0,0,1,1.407.357,2.556,2.556,0,0,1,2.025,2.5,2.352,2.352,0,0,1-1.092,2,4.787,4.787,0,0,1-2.826.772,4.885,4.885,0,0,1-2.059-.415,3.442,3.442,0,0,1-1.411-1.129,2.556,2.556,0,0,1-.506-1.5h2.615a1.081,1.081,0,0,0,.415.909,1.707,1.707,0,0,0,1.021.286,1.343,1.343,0,0,0,.859-.232A.743.743,0,0,0,33.407,13.477Zm12.343-1.9a5.416,5.416,0,0,1-.942,3.341,3.021,3.021,0,0,1-2.544,1.249,2.589,2.589,0,0,1-2.034-.9v4.192h-2.8V7.019h2.615l.083.83a2.589,2.589,0,0,1,2.117-1,3.045,3.045,0,0,1,2.582,1.224,5.483,5.483,0,0,1,.921,3.366Zm-2.8-.174q0-2.391-1.395-2.391a1.316,1.316,0,0,0-1.328.714v3.536a1.359,1.359,0,0,0,1.345.747q1.336,0,1.378-2.308Zm3.677.025a5.3,5.3,0,0,1,.523-2.395,3.74,3.74,0,0,1,1.5-1.615,4.525,4.525,0,0,1,2.3-.564A4.13,4.13,0,0,1,54.134,8.1,4.794,4.794,0,0,1,55.3,11.5v.1a4.651,4.651,0,0,1-1.166,3.333,4.141,4.141,0,0,1-3.158,1.233,4.188,4.188,0,0,1-3.08-1.15A4.5,4.5,0,0,1,46.638,11.9Zm2.8.174a3.342,3.342,0,0,0,.39,1.826,1.3,1.3,0,0,0,1.154.581q1.494,0,1.527-2.3v-.282q0-2.416-1.544-2.416-1.4,0-1.519,2.083ZM59.1,7.019l.091,1.054a3.046,3.046,0,0,1,2.565-1.22,2.562,2.562,0,0,1,2.1.838,3.991,3.991,0,0,1,.718,2.523V16H61.762V10.331a1.516,1.516,0,0,0-.274-1,1.267,1.267,0,0,0-1-.32,1.334,1.334,0,0,0-1.22.647V16h-2.8V7.019ZM69.067,16H66.261V7.019h2.806ZM66.1,4.694a1.26,1.26,0,0,1,.432-.985,1.826,1.826,0,0,1,2.241,0,1.26,1.26,0,0,1,.432.985,1.26,1.26,0,0,1-.432.985,1.826,1.826,0,0,1-2.241,0A1.26,1.26,0,0,1,66.1,4.694Zm13.032,6.89a5.474,5.474,0,0,1-.913,3.4,3.058,3.058,0,0,1-2.573,1.187,2.654,2.654,0,0,1-2.208-1.087L73.317,16H70.81V3.25h2.8V7.741a2.561,2.561,0,0,1,2.017-.888,3.059,3.059,0,0,1,2.59,1.2,5.5,5.5,0,0,1,.913,3.387Zm-2.806-.178a3.651,3.651,0,0,0-.344-1.844,1.161,1.161,0,0,0-1.058-.551,1.339,1.339,0,0,0-1.312.721V13.3a1.347,1.347,0,0,0,1.328.713,1.188,1.188,0,0,0,1.253-.961A6.9,6.9,0,0,0,76.322,11.406ZM83.311,16H80.505V7.019h2.806ZM80.339,4.694a1.26,1.26,0,0,1,.432-.985,1.826,1.826,0,0,1,2.241,0,1.26,1.26,0,0,1,.432.985,1.26,1.26,0,0,1-.432.985,1.826,1.826,0,0,1-2.241,0A1.26,1.26,0,0,1,80.339,4.694ZM87.984,16H85.179V3.25h2.806Zm4.673,0H89.852V7.019h2.806ZM89.686,4.694a1.26,1.26,0,0,1,.432-.985,1.826,1.826,0,0,1,2.241,0,1.26,1.26,0,0,1,.432.985,1.26,1.26,0,0,1-.432.985,1.826,1.826,0,0,1-2.241,0A1.26,1.26,0,0,1,89.686,4.694Zm4.341,6.749a5.486,5.486,0,0,1,.921-3.362,3.033,3.033,0,0,1,2.573-1.229,2.579,2.579,0,0,1,2.025.946V3.25h2.806V16H99.838l-.141-.963a2.649,2.649,0,0,1-2.191,1.129,3.027,3.027,0,0,1-2.54-1.229A5.66,5.66,0,0,1,94.027,11.443Zm2.8.174q0,2.391,1.395,2.391a1.377,1.377,0,0,0,1.328-.78V9.808a1.34,1.34,0,0,0-1.312-.8q-1.295,0-1.4,2.092ZM109,16a3.159,3.159,0,0,1-.266-.805,2.6,2.6,0,0,1-2.158.971,3.187,3.187,0,0,1-2.158-.768,2.444,2.444,0,0,1-.888-1.93,2.512,2.512,0,0,1,1.079-2.208,5.5,5.5,0,0,1,3.138-.747h.863v-.475q0-1.243-1.071-1.243a.875.875,0,0,0-1,.984h-2.8a2.508,2.508,0,0,1,1.108-2.114,4.657,4.657,0,0,1,2.826-.813,4.083,4.083,0,0,1,2.714.838,2.915,2.915,0,0,1,1.021,2.3v3.976a4.072,4.072,0,0,0,.382,1.893V16Zm-1.751-1.826a1.56,1.56,0,0,0,.867-.224,1.4,1.4,0,0,0,.494-.506V12.007H107.8q-1.461,0-1.461,1.312a.8.8,0,0,0,.257.618A.931.931,0,0,0,107.25,14.174Zm5.362-2.731a5.486,5.486,0,0,1,.921-3.362,3.033,3.033,0,0,1,2.573-1.229,2.579,2.579,0,0,1,2.025.946V3.25h2.806V16h-2.515l-.141-.963a2.649,2.649,0,0,1-2.191,1.129,3.027,3.027,0,0,1-2.54-1.229A5.66,5.66,0,0,1,112.613,11.443Zm2.8.174q0,2.391,1.395,2.391a1.377,1.377,0,0,0,1.328-.78V9.808a1.34,1.34,0,0,0-1.312-.8q-1.295,0-1.4,2.092ZM14.161,31.576a5.416,5.416,0,0,1-.942,3.341,3.021,3.021,0,0,1-2.544,1.249,2.589,2.589,0,0,1-2.034-.9v4.192h-2.8V27.019H8.459l.083.83a2.589,2.589,0,0,1,2.117-1,3.045,3.045,0,0,1,2.582,1.224,5.483,5.483,0,0,1,.921,3.366Zm-2.8-.174q0-2.391-1.395-2.391a1.316,1.316,0,0,0-1.328.714v3.536a1.359,1.359,0,0,0,1.345.747q1.336,0,1.378-2.308ZM20.453,36a3.159,3.159,0,0,1-.266-.805,2.6,2.6,0,0,1-2.158.971,3.187,3.187,0,0,1-2.158-.768,2.444,2.444,0,0,1-.888-1.93,2.512,2.512,0,0,1,1.079-2.208,5.5,5.5,0,0,1,3.138-.747h.863v-.475q0-1.243-1.071-1.243a.875.875,0,0,0-1,.984H15.2a2.508,2.508,0,0,1,1.108-2.114,4.657,4.657,0,0,1,2.826-.813,4.083,4.083,0,0,1,2.714.838,2.915,2.915,0,0,1,1.021,2.3v3.976a4.072,4.072,0,0,0,.382,1.893V36ZM18.7,34.174a1.56,1.56,0,0,0,.867-.224,1.4,1.4,0,0,0,.494-.506V32.007H19.25q-1.461,0-1.461,1.312a.8.8,0,0,0,.257.618A.931.931,0,0,0,18.7,34.174ZM29.85,29.55l-.921-.066a1.655,1.655,0,0,0-1.693.83V36h-2.8V27.019h2.623l.091,1.154a2.166,2.166,0,0,1,1.967-1.32,2.728,2.728,0,0,1,.78.1ZM35.669,36a3.158,3.158,0,0,1-.266-.805,2.6,2.6,0,0,1-2.158.971,3.187,3.187,0,0,1-2.158-.768,2.444,2.444,0,0,1-.888-1.93,2.512,2.512,0,0,1,1.079-2.208,5.5,5.5,0,0,1,3.138-.747h.863v-.475q0-1.243-1.071-1.243a.875.875,0,0,0-1,.984h-2.8a2.508,2.508,0,0,1,1.108-2.114,4.657,4.657,0,0,1,2.826-.813,4.083,4.083,0,0,1,2.714.838,2.915,2.915,0,0,1,1.021,2.3v3.976a4.072,4.072,0,0,0,.382,1.893V36Zm-1.751-1.826a1.56,1.56,0,0,0,.867-.224,1.4,1.4,0,0,0,.494-.506V32.007h-.813Q33,32.007,33,33.319a.8.8,0,0,0,.257.618A.931.931,0,0,0,33.917,34.174Zm14.651-.7a.646.646,0,0,0-.374-.573,5.682,5.682,0,0,0-1.419-.448,6.473,6.473,0,0,1-1.727-.61,2.892,2.892,0,0,1-1.038-.917,2.19,2.19,0,0,1-.357-1.237,2.482,2.482,0,0,1,1.021-2.038,4.206,4.206,0,0,1,2.673-.8,4.66,4.66,0,0,1,2.855.805,2.518,2.518,0,0,1,1.079,2.117H48.477q0-1.079-1.137-1.079a1.127,1.127,0,0,0-.739.245.758.758,0,0,0-.3.61.7.7,0,0,0,.365.606,3.451,3.451,0,0,0,1.166.382,10.079,10.079,0,0,1,1.407.357,2.556,2.556,0,0,1,2.025,2.5,2.352,2.352,0,0,1-1.092,2,4.787,4.787,0,0,1-2.826.772,4.885,4.885,0,0,1-2.059-.415,3.442,3.442,0,0,1-1.411-1.129,2.556,2.556,0,0,1-.506-1.5h2.615a1.081,1.081,0,0,0,.415.909,1.707,1.707,0,0,0,1.021.286,1.343,1.343,0,0,0,.859-.232A.743.743,0,0,0,48.568,33.477Zm8.351,2.689a4.617,4.617,0,0,1-3.345-1.233A4.257,4.257,0,0,1,52.3,31.725v-.232a5.516,5.516,0,0,1,.51-2.432,3.735,3.735,0,0,1,1.49-1.631,4.5,4.5,0,0,1,2.324-.577,3.888,3.888,0,0,1,2.988,1.175A4.616,4.616,0,0,1,60.7,31.3v1.087H55.142a2.016,2.016,0,0,0,.656,1.187,1.951,1.951,0,0,0,1.312.432,2.514,2.514,0,0,0,2.075-.93l1.278,1.511a3.573,3.573,0,0,1-1.482,1.15A5.007,5.007,0,0,1,56.919,36.166ZM56.6,29.011q-1.229,0-1.461,1.627h2.822v-.216a1.386,1.386,0,0,0-.34-1.042A1.354,1.354,0,0,0,56.6,29.011Zm10.658.54-.921-.066a1.655,1.655,0,0,0-1.693.83V36h-2.8V27.019h2.623l.091,1.154a2.166,2.166,0,0,1,1.967-1.32,2.728,2.728,0,0,1,.78.1Zm7.886-2.532.091,1.054a3.088,3.088,0,0,1,2.565-1.22,2.273,2.273,0,0,1,2.3,1.353,2.989,2.989,0,0,1,2.64-1.353q2.731,0,2.806,3.3V36H82.742V30.331a1.712,1.712,0,0,0-.232-1,.989.989,0,0,0-.847-.315,1.325,1.325,0,0,0-1.237.739l.008.116V36H77.629V30.347a1.8,1.8,0,0,0-.224-1.021.987.987,0,0,0-.855-.315,1.342,1.342,0,0,0-1.229.739V36h-2.8V27.019Zm16.344,9.147a4.617,4.617,0,0,1-3.345-1.233,4.257,4.257,0,0,1-1.278-3.208v-.232a5.516,5.516,0,0,1,.51-2.432,3.735,3.735,0,0,1,1.49-1.631,4.5,4.5,0,0,1,2.324-.577,3.888,3.888,0,0,1,2.988,1.175,4.616,4.616,0,0,1,1.1,3.275v1.087H89.715a2.016,2.016,0,0,0,.656,1.187,1.951,1.951,0,0,0,1.312.432,2.514,2.514,0,0,0,2.075-.93l1.278,1.511a3.573,3.573,0,0,1-1.482,1.15A5.007,5.007,0,0,1,91.491,36.166Zm-.315-7.155q-1.229,0-1.461,1.627h2.822v-.216a1.386,1.386,0,0,0-.34-1.042A1.354,1.354,0,0,0,91.176,29.011Zm4.873,2.432a5.486,5.486,0,0,1,.921-3.362,3.033,3.033,0,0,1,2.573-1.229,2.579,2.579,0,0,1,2.025.946V23.25h2.806V36h-2.515l-.141-.963a2.649,2.649,0,0,1-2.191,1.129,3.027,3.027,0,0,1-2.54-1.229A5.66,5.66,0,0,1,96.049,31.443Zm2.8.174q0,2.391,1.395,2.391a1.377,1.377,0,0,0,1.328-.78v-3.42a1.34,1.34,0,0,0-1.312-.8q-1.295,0-1.4,2.092ZM108.915,36h-2.806V27.019h2.806Zm-2.972-11.306a1.26,1.26,0,0,1,.432-.985,1.826,1.826,0,0,1,2.241,0,1.341,1.341,0,0,1,0,1.971,1.826,1.826,0,0,1-2.241,0A1.26,1.26,0,0,1,105.943,24.694Zm4.341,6.749a5.486,5.486,0,0,1,.921-3.362,3.033,3.033,0,0,1,2.573-1.229,2.579,2.579,0,0,1,2.025.946V23.25h2.806V36h-2.515l-.141-.963a2.649,2.649,0,0,1-2.191,1.129,3.027,3.027,0,0,1-2.54-1.229A5.66,5.66,0,0,1,110.284,31.443Zm2.8.174q0,2.391,1.395,2.391a1.377,1.377,0,0,0,1.328-.78v-3.42a1.34,1.34,0,0,0-1.312-.8q-1.295,0-1.4,2.092Zm6.765-.191a5.3,5.3,0,0,1,.523-2.395,3.74,3.74,0,0,1,1.5-1.615,4.525,4.525,0,0,1,2.3-.564,4.13,4.13,0,0,1,3.179,1.249,4.794,4.794,0,0,1,1.162,3.4v.1a4.651,4.651,0,0,1-1.166,3.333,4.141,4.141,0,0,1-3.158,1.233,4.188,4.188,0,0,1-3.08-1.15,4.5,4.5,0,0,1-1.253-3.117Zm2.8.174a3.342,3.342,0,0,0,.39,1.826,1.3,1.3,0,0,0,1.154.581q1.494,0,1.527-2.3v-.282q0-2.416-1.544-2.416-1.4,0-1.519,2.083Z" transform="translate(310 879)" fill="#12263f"/>
    <path id="Path_178425" data-name="Path 178425" d="M5.636,16H2.731V3.914H5.636Zm4.541-8.981.091,1.054a3.088,3.088,0,0,1,2.565-1.22,2.273,2.273,0,0,1,2.3,1.353,2.989,2.989,0,0,1,2.64-1.353q2.731,0,2.806,3.3V16H17.772V10.331a1.712,1.712,0,0,0-.232-1,.989.989,0,0,0-.847-.315,1.325,1.325,0,0,0-1.237.739l.008.116V16H12.659V10.347a1.8,1.8,0,0,0-.224-1.021.987.987,0,0,0-.855-.315,1.342,1.342,0,0,0-1.229.739V16h-2.8V7.019Zm20.337,4.557a5.416,5.416,0,0,1-.942,3.341,3.021,3.021,0,0,1-2.544,1.249,2.589,2.589,0,0,1-2.034-.9v4.192H22.2V7.019h2.615l.083.83a2.589,2.589,0,0,1,2.117-1,3.045,3.045,0,0,1,2.582,1.224,5.483,5.483,0,0,1,.921,3.366Zm-2.8-.174q0-2.391-1.395-2.391a1.316,1.316,0,0,0-1.328.714v3.536a1.359,1.359,0,0,0,1.345.747q1.336,0,1.378-2.308Zm3.677.025a5.3,5.3,0,0,1,.523-2.395,3.74,3.74,0,0,1,1.5-1.615,4.525,4.525,0,0,1,2.3-.564A4.13,4.13,0,0,1,38.9,8.1a4.794,4.794,0,0,1,1.162,3.4v.1a4.651,4.651,0,0,1-1.166,3.333,4.141,4.141,0,0,1-3.158,1.233,4.188,4.188,0,0,1-3.08-1.15A4.5,4.5,0,0,1,31.4,11.9Zm2.8.174a3.342,3.342,0,0,0,.39,1.826,1.3,1.3,0,0,0,1.154.581q1.494,0,1.527-2.3v-.282q0-2.416-1.544-2.416-1.4,0-1.519,2.083ZM46.725,9.55,45.8,9.484a1.655,1.655,0,0,0-1.693.83V16h-2.8V7.019h2.623l.091,1.154a2.166,2.166,0,0,1,1.967-1.32,2.728,2.728,0,0,1,.78.1Zm4.682-4.765V7.019h1.478V8.961H51.407V13.07a1.049,1.049,0,0,0,.183.706.98.98,0,0,0,.722.2,4.1,4.1,0,0,0,.7-.05v2a5.163,5.163,0,0,1-1.577.241,2.93,2.93,0,0,1-2.133-.681,2.79,2.79,0,0,1-.689-2.067V8.961H47.464V7.019H48.61V4.786ZM59.044,16a3.158,3.158,0,0,1-.266-.805,2.6,2.6,0,0,1-2.158.971,3.187,3.187,0,0,1-2.158-.768,2.444,2.444,0,0,1-.888-1.93,2.512,2.512,0,0,1,1.079-2.208,5.5,5.5,0,0,1,3.138-.747h.863v-.475q0-1.243-1.071-1.243a.875.875,0,0,0-1,.984h-2.8A2.508,2.508,0,0,1,54.9,7.665a4.657,4.657,0,0,1,2.826-.813,4.083,4.083,0,0,1,2.714.838,2.915,2.915,0,0,1,1.021,2.3v3.976a4.072,4.072,0,0,0,.382,1.893V16Zm-1.751-1.826a1.56,1.56,0,0,0,.867-.224,1.4,1.4,0,0,0,.494-.506V12.007H57.84q-1.461,0-1.461,1.312a.8.8,0,0,0,.257.618A.931.931,0,0,0,57.292,14.174Zm8.284-7.155.091,1.054a3.046,3.046,0,0,1,2.565-1.22,2.562,2.562,0,0,1,2.1.838,3.991,3.991,0,0,1,.718,2.523V16H68.241V10.331a1.516,1.516,0,0,0-.274-1,1.267,1.267,0,0,0-1-.32,1.334,1.334,0,0,0-1.22.647V16h-2.8V7.019Zm10.816,6.989a1.244,1.244,0,0,0,.913-.32,1.172,1.172,0,0,0,.315-.892h2.623a3.105,3.105,0,0,1-1.058,2.424,3.937,3.937,0,0,1-2.727.946,3.986,3.986,0,0,1-3.088-1.229,4.841,4.841,0,0,1-1.129-3.4v-.116a5.471,5.471,0,0,1,.5-2.4,3.656,3.656,0,0,1,1.448-1.6,4.319,4.319,0,0,1,2.241-.56,3.887,3.887,0,0,1,2.781.971,3.445,3.445,0,0,1,1.029,2.631H77.621a1.536,1.536,0,0,0-.34-1.071,1.175,1.175,0,0,0-.913-.374q-1.087,0-1.27,1.386a9.782,9.782,0,0,0-.058,1.212,3.842,3.842,0,0,0,.324,1.876A1.121,1.121,0,0,0,76.392,14.008ZM84.378,16H81.572V7.019h2.806ZM81.406,4.694a1.26,1.26,0,0,1,.432-.985,1.826,1.826,0,0,1,2.241,0,1.26,1.26,0,0,1,.432.985,1.26,1.26,0,0,1-.432.985,1.826,1.826,0,0,1-2.241,0A1.26,1.26,0,0,1,81.406,4.694ZM91.159,16a3.159,3.159,0,0,1-.266-.805,2.6,2.6,0,0,1-2.158.971,3.187,3.187,0,0,1-2.158-.768,2.444,2.444,0,0,1-.888-1.93,2.512,2.512,0,0,1,1.079-2.208,5.5,5.5,0,0,1,3.138-.747h.863v-.475q0-1.243-1.071-1.243a.875.875,0,0,0-1,.984h-2.8a2.508,2.508,0,0,1,1.108-2.114,4.657,4.657,0,0,1,2.826-.813,4.083,4.083,0,0,1,2.714.838,2.915,2.915,0,0,1,1.021,2.3v3.976a4.072,4.072,0,0,0,.382,1.893V16Zm-1.751-1.826a1.56,1.56,0,0,0,.867-.224,1.4,1.4,0,0,0,.494-.506V12.007h-.813q-1.461,0-1.461,1.312a.8.8,0,0,0,.257.618A.931.931,0,0,0,89.408,14.174Zm18.287-2.6a5.416,5.416,0,0,1-.942,3.341,3.021,3.021,0,0,1-2.544,1.249,2.589,2.589,0,0,1-2.034-.9v4.192h-2.8V7.019h2.615l.083.83a2.589,2.589,0,0,1,2.117-1,3.045,3.045,0,0,1,2.582,1.224,5.483,5.483,0,0,1,.921,3.366Zm-2.8-.174q0-2.391-1.395-2.391a1.316,1.316,0,0,0-1.328.714v3.536a1.359,1.359,0,0,0,1.345.747q1.336,0,1.378-2.308Zm9.089,4.6a3.159,3.159,0,0,1-.266-.805,2.6,2.6,0,0,1-2.158.971A3.187,3.187,0,0,1,109.4,15.4a2.444,2.444,0,0,1-.888-1.93A2.512,2.512,0,0,1,109.6,11.26a5.5,5.5,0,0,1,3.138-.747h.863v-.475q0-1.243-1.071-1.243a.875.875,0,0,0-1,.984h-2.8a2.508,2.508,0,0,1,1.108-2.114,4.657,4.657,0,0,1,2.826-.813,4.083,4.083,0,0,1,2.714.838,2.915,2.915,0,0,1,1.021,2.3v3.976a4.072,4.072,0,0,0,.382,1.893V16Zm-1.751-1.826a1.56,1.56,0,0,0,.867-.224,1.4,1.4,0,0,0,.494-.506V12.007h-.813q-1.461,0-1.461,1.312a.8.8,0,0,0,.257.618A.931.931,0,0,0,112.235,14.174ZM123.383,9.55l-.921-.066a1.655,1.655,0,0,0-1.693.83V16h-2.8V7.019h2.623l.091,1.154a2.166,2.166,0,0,1,1.967-1.32,2.728,2.728,0,0,1,.78.1ZM129.2,16a3.158,3.158,0,0,1-.266-.805,2.6,2.6,0,0,1-2.158.971,3.187,3.187,0,0,1-2.158-.768,2.444,2.444,0,0,1-.888-1.93,2.512,2.512,0,0,1,1.079-2.208,5.5,5.5,0,0,1,3.138-.747h.863v-.475q0-1.243-1.071-1.243a.875.875,0,0,0-1,.984h-2.8a2.508,2.508,0,0,1,1.108-2.114,4.657,4.657,0,0,1,2.826-.813,4.083,4.083,0,0,1,2.714.838,2.915,2.915,0,0,1,1.021,2.3v3.976A4.072,4.072,0,0,0,132,15.859V16Zm-1.751-1.826a1.56,1.56,0,0,0,.867-.224,1.4,1.4,0,0,0,.494-.506V12.007H128q-1.461,0-1.461,1.312a.8.8,0,0,0,.257.618A.931.931,0,0,0,127.45,14.174ZM29.63,36H26.824V23.25H29.63Zm6.782,0a3.158,3.158,0,0,1-.266-.805,2.6,2.6,0,0,1-2.158.971A3.187,3.187,0,0,1,31.83,35.4a2.444,2.444,0,0,1-.888-1.93,2.512,2.512,0,0,1,1.079-2.208,5.5,5.5,0,0,1,3.138-.747h.863v-.475q0-1.243-1.071-1.243a.875.875,0,0,0-1,.984h-2.8a2.508,2.508,0,0,1,1.108-2.114,4.657,4.657,0,0,1,2.826-.813,4.083,4.083,0,0,1,2.714.838,2.915,2.915,0,0,1,1.021,2.3v3.976a4.072,4.072,0,0,0,.382,1.893V36ZM34.66,34.174a1.56,1.56,0,0,0,.867-.224,1.4,1.4,0,0,0,.494-.506V32.007h-.813q-1.461,0-1.461,1.312a.8.8,0,0,0,.257.618A.931.931,0,0,0,34.66,34.174Zm18.287-2.59a5.474,5.474,0,0,1-.913,3.4,3.058,3.058,0,0,1-2.573,1.187,2.654,2.654,0,0,1-2.208-1.087L47.136,36H44.629V23.25h2.8v4.491a2.561,2.561,0,0,1,2.017-.888,3.059,3.059,0,0,1,2.59,1.2,5.5,5.5,0,0,1,.913,3.387Zm-2.806-.178a3.651,3.651,0,0,0-.344-1.844,1.161,1.161,0,0,0-1.058-.551,1.339,1.339,0,0,0-1.312.721V33.3a1.347,1.347,0,0,0,1.328.713,1.188,1.188,0,0,0,1.253-.961A6.9,6.9,0,0,0,50.141,31.406ZM59.239,36a3.158,3.158,0,0,1-.266-.805,2.6,2.6,0,0,1-2.158.971,3.187,3.187,0,0,1-2.158-.768,2.444,2.444,0,0,1-.888-1.93,2.512,2.512,0,0,1,1.079-2.208,5.5,5.5,0,0,1,3.138-.747h.863v-.475q0-1.243-1.071-1.243a.875.875,0,0,0-1,.984h-2.8a2.508,2.508,0,0,1,1.108-2.114,4.657,4.657,0,0,1,2.826-.813,4.083,4.083,0,0,1,2.714.838,2.915,2.915,0,0,1,1.021,2.3v3.976a4.072,4.072,0,0,0,.382,1.893V36Zm-1.751-1.826a1.56,1.56,0,0,0,.867-.224,1.4,1.4,0,0,0,.494-.506V32.007h-.813q-1.461,0-1.461,1.312a.8.8,0,0,0,.257.618A.931.931,0,0,0,57.487,34.174Zm10.417-.7a.646.646,0,0,0-.374-.573,5.682,5.682,0,0,0-1.419-.448,6.473,6.473,0,0,1-1.727-.61,2.892,2.892,0,0,1-1.038-.917,2.19,2.19,0,0,1-.357-1.237,2.482,2.482,0,0,1,1.021-2.038,4.206,4.206,0,0,1,2.673-.8,4.66,4.66,0,0,1,2.855.805,2.518,2.518,0,0,1,1.079,2.117H67.813q0-1.079-1.137-1.079a1.127,1.127,0,0,0-.739.245.758.758,0,0,0-.3.61.7.7,0,0,0,.365.606,3.451,3.451,0,0,0,1.166.382,10.078,10.078,0,0,1,1.407.357,2.556,2.556,0,0,1,2.025,2.5,2.352,2.352,0,0,1-1.092,2,4.787,4.787,0,0,1-2.826.772,4.885,4.885,0,0,1-2.059-.415,3.442,3.442,0,0,1-1.411-1.129,2.556,2.556,0,0,1-.506-1.5h2.615a1.081,1.081,0,0,0,.415.909,1.707,1.707,0,0,0,1.021.286,1.343,1.343,0,0,0,.859-.232A.743.743,0,0,0,67.9,33.477Zm8.351,2.689a4.617,4.617,0,0,1-3.345-1.233,4.257,4.257,0,0,1-1.278-3.208v-.232a5.516,5.516,0,0,1,.51-2.432,3.735,3.735,0,0,1,1.49-1.631,4.5,4.5,0,0,1,2.324-.577,3.888,3.888,0,0,1,2.988,1.175,4.616,4.616,0,0,1,1.1,3.275v1.087H74.479a2.016,2.016,0,0,0,.656,1.187,1.951,1.951,0,0,0,1.312.432,2.514,2.514,0,0,0,2.075-.93L79.8,34.589a3.573,3.573,0,0,1-1.482,1.15A5.007,5.007,0,0,1,76.255,36.166Zm-.315-7.155q-1.229,0-1.461,1.627H77.3v-.216a1.386,1.386,0,0,0-.34-1.042A1.354,1.354,0,0,0,75.94,29.011Zm9.106,2.432a5.486,5.486,0,0,1,.921-3.362,3.033,3.033,0,0,1,2.573-1.229,2.579,2.579,0,0,1,2.025.946V23.25h2.806V36H90.856l-.141-.963a2.649,2.649,0,0,1-2.191,1.129,3.027,3.027,0,0,1-2.54-1.229A5.66,5.66,0,0,1,85.046,31.443Zm2.8.174q0,2.391,1.395,2.391a1.377,1.377,0,0,0,1.328-.78v-3.42a1.34,1.34,0,0,0-1.312-.8q-1.295,0-1.4,2.092Zm11.463,4.549a4.617,4.617,0,0,1-3.345-1.233,4.257,4.257,0,0,1-1.278-3.208v-.232a5.516,5.516,0,0,1,.51-2.432,3.735,3.735,0,0,1,1.49-1.631,4.5,4.5,0,0,1,2.324-.577A3.888,3.888,0,0,1,102,28.027a4.616,4.616,0,0,1,1.1,3.275v1.087H97.53a2.016,2.016,0,0,0,.656,1.187,1.951,1.951,0,0,0,1.312.432,2.514,2.514,0,0,0,2.075-.93l1.278,1.511a3.573,3.573,0,0,1-1.482,1.15A5.007,5.007,0,0,1,99.307,36.166Zm-.315-7.155q-1.229,0-1.461,1.627h2.822v-.216a1.386,1.386,0,0,0-.34-1.042A1.354,1.354,0,0,0,98.991,29.011ZM107.167,36h-2.806V23.25h2.806ZM39.744,47.019l.091,1.054a3.046,3.046,0,0,1,2.565-1.22,2.562,2.562,0,0,1,2.1.838,3.991,3.991,0,0,1,.718,2.523V56H42.409V50.331a1.516,1.516,0,0,0-.274-1,1.267,1.267,0,0,0-1-.32,1.334,1.334,0,0,0-1.22.647V56h-2.8V47.019Zm11.364,9.147a4.617,4.617,0,0,1-3.345-1.233,4.257,4.257,0,0,1-1.278-3.208v-.232A5.516,5.516,0,0,1,47,49.061a3.735,3.735,0,0,1,1.49-1.631,4.5,4.5,0,0,1,2.324-.577A3.888,3.888,0,0,1,53.8,48.027a4.616,4.616,0,0,1,1.1,3.275v1.087H49.332a2.016,2.016,0,0,0,.656,1.187,1.951,1.951,0,0,0,1.312.432,2.514,2.514,0,0,0,2.075-.93l1.278,1.511a3.573,3.573,0,0,1-1.482,1.15A5.007,5.007,0,0,1,51.108,56.166Zm-.315-7.155q-1.229,0-1.461,1.627h2.822v-.216a1.386,1.386,0,0,0-.34-1.042A1.354,1.354,0,0,0,50.793,49.011Zm4.9,2.432a6.064,6.064,0,0,1,.448-2.407,3.609,3.609,0,0,1,1.287-1.615,3.392,3.392,0,0,1,1.951-.569,2.7,2.7,0,0,1,2.191.946l.1-.78h2.54V55.66a3.787,3.787,0,0,1-.552,2.063,3.542,3.542,0,0,1-1.6,1.345,5.873,5.873,0,0,1-2.424.469,5.067,5.067,0,0,1-1.913-.374,3.454,3.454,0,0,1-1.415-.971l1.17-1.644a2.565,2.565,0,0,0,2.059.921,1.666,1.666,0,0,0,1.859-1.909v-.282a2.627,2.627,0,0,1-2.034.888A3.246,3.246,0,0,1,56.7,54.908a5.21,5.21,0,0,1-1.013-3.366Zm2.806.174a3.2,3.2,0,0,0,.415,1.747,1.309,1.309,0,0,0,1.162.643,1.486,1.486,0,0,0,1.32-.606V49.625a1.449,1.449,0,0,0-1.3-.614,1.318,1.318,0,0,0-1.17.668A3.644,3.644,0,0,0,58.5,51.617Zm6.948-.191a5.3,5.3,0,0,1,.523-2.395,3.74,3.74,0,0,1,1.5-1.615,4.525,4.525,0,0,1,2.3-.564A4.13,4.13,0,0,1,72.948,48.1a4.794,4.794,0,0,1,1.162,3.4v.1a4.651,4.651,0,0,1-1.166,3.333,4.141,4.141,0,0,1-3.158,1.233,4.188,4.188,0,0,1-3.08-1.15A4.5,4.5,0,0,1,65.452,51.9Zm2.8.174a3.342,3.342,0,0,0,.39,1.826,1.3,1.3,0,0,0,1.154.581q1.494,0,1.527-2.3v-.282q0-2.416-1.544-2.416-1.4,0-1.519,2.083Zm10.9,2.407a1.244,1.244,0,0,0,.913-.32,1.172,1.172,0,0,0,.315-.892h2.623a3.105,3.105,0,0,1-1.058,2.424,3.937,3.937,0,0,1-2.727.946,3.986,3.986,0,0,1-3.088-1.229,4.841,4.841,0,0,1-1.129-3.4v-.116a5.471,5.471,0,0,1,.5-2.4,3.656,3.656,0,0,1,1.448-1.6,4.319,4.319,0,0,1,2.241-.56,3.887,3.887,0,0,1,2.781.971,3.445,3.445,0,0,1,1.029,2.631H80.368a1.536,1.536,0,0,0-.34-1.071,1.175,1.175,0,0,0-.913-.374q-1.087,0-1.27,1.386a9.782,9.782,0,0,0-.058,1.212,3.842,3.842,0,0,0,.324,1.876A1.121,1.121,0,0,0,79.14,54.008ZM87.125,56H84.32V47.019h2.806ZM84.154,44.694a1.26,1.26,0,0,1,.432-.985,1.826,1.826,0,0,1,2.241,0,1.341,1.341,0,0,1,0,1.971,1.826,1.826,0,0,1-2.241,0A1.26,1.26,0,0,1,84.154,44.694Zm4.341,6.732a5.3,5.3,0,0,1,.523-2.395,3.74,3.74,0,0,1,1.5-1.615,4.525,4.525,0,0,1,2.3-.564A4.13,4.13,0,0,1,96,48.1a4.794,4.794,0,0,1,1.162,3.4v.1a4.651,4.651,0,0,1-1.166,3.333,4.141,4.141,0,0,1-3.158,1.233,4.188,4.188,0,0,1-3.08-1.15A4.5,4.5,0,0,1,88.5,51.9Zm2.8.174a3.342,3.342,0,0,0,.39,1.826,1.3,1.3,0,0,0,1.154.581q1.494,0,1.527-2.3v-.282q0-2.416-1.544-2.416-1.4,0-1.519,2.083Z" transform="translate(522 869)" fill="#12263f"/>
    <path id="Path_178427" data-name="Path 178427" d="M20.387,13.742H16.394L15.7,16H12.584L17.017,3.914h2.739L24.222,16H21.093Zm-3.3-2.25h2.6L18.386,7.3Zm11.057.589,1.494-5.063h3L28.978,17.5l-.158.382a2.781,2.781,0,0,1-2.756,1.743,4.384,4.384,0,0,1-1.154-.165V17.469h.365a1.913,1.913,0,0,0,.9-.17,1.033,1.033,0,0,0,.461-.611l.224-.6L23.74,7.019h2.988Zm10.567,2.947a2.884,2.884,0,0,1-2.4,1.137,2.829,2.829,0,0,1-2.237-.859,3.613,3.613,0,0,1-.76-2.469V7.019h2.8v5.835a1,1,0,0,0,1.121,1.154,1.462,1.462,0,0,0,1.37-.689v-6.3h2.814V16H38.8ZM42.6,11.443a5.486,5.486,0,0,1,.921-3.362,3.033,3.033,0,0,1,2.573-1.229A2.579,2.579,0,0,1,48.12,7.8V3.25h2.806V16H48.41l-.141-.963a2.649,2.649,0,0,1-2.191,1.129,3.027,3.027,0,0,1-2.54-1.229A5.66,5.66,0,0,1,42.6,11.443Zm2.8.174q0,2.391,1.395,2.391a1.377,1.377,0,0,0,1.328-.78V9.808a1.34,1.34,0,0,0-1.312-.8q-1.295,0-1.4,2.092ZM57.574,16a3.158,3.158,0,0,1-.266-.805,2.6,2.6,0,0,1-2.158.971,3.187,3.187,0,0,1-2.158-.768,2.444,2.444,0,0,1-.888-1.93,2.512,2.512,0,0,1,1.079-2.208,5.5,5.5,0,0,1,3.138-.747h.863v-.475q0-1.243-1.071-1.243a.875.875,0,0,0-1,.984h-2.8a2.508,2.508,0,0,1,1.108-2.114,4.657,4.657,0,0,1,2.826-.813,4.083,4.083,0,0,1,2.714.838,2.915,2.915,0,0,1,1.021,2.3v3.976a4.072,4.072,0,0,0,.382,1.893V16Zm-1.751-1.826a1.56,1.56,0,0,0,.867-.224,1.4,1.4,0,0,0,.494-.506V12.007h-.813q-1.461,0-1.461,1.312a.8.8,0,0,0,.257.618A.931.931,0,0,0,55.823,14.174ZM70.831,16a3.159,3.159,0,0,1-.266-.805,2.6,2.6,0,0,1-2.158.971,3.187,3.187,0,0,1-2.158-.768,2.444,2.444,0,0,1-.888-1.93A2.512,2.512,0,0,1,66.44,11.26a5.5,5.5,0,0,1,3.138-.747h.863v-.475q0-1.243-1.071-1.243a.875.875,0,0,0-1,.984h-2.8a2.508,2.508,0,0,1,1.108-2.114,4.657,4.657,0,0,1,2.826-.813,4.083,4.083,0,0,1,2.714.838,2.915,2.915,0,0,1,1.021,2.3v3.976a4.072,4.072,0,0,0,.382,1.893V16Zm-1.751-1.826a1.56,1.56,0,0,0,.867-.224,1.4,1.4,0,0,0,.494-.506V12.007h-.813q-1.461,0-1.461,1.312a.8.8,0,0,0,.257.618A.931.931,0,0,0,69.079,14.174ZM81.763,7.981A3.07,3.07,0,0,1,86.3,7.732a3.954,3.954,0,0,1,.772,2.6V16H84.261V10.4a1.581,1.581,0,0,0-.291-1.05,1.248,1.248,0,0,0-.988-.336,1.345,1.345,0,0,0-1.22.548V16h-2.8V3.25h2.8ZM93.683,16a3.159,3.159,0,0,1-.266-.805,2.6,2.6,0,0,1-2.158.971A3.187,3.187,0,0,1,89.1,15.4a2.444,2.444,0,0,1-.888-1.93,2.512,2.512,0,0,1,1.079-2.208,5.5,5.5,0,0,1,3.138-.747h.863v-.475q0-1.243-1.071-1.243a.875.875,0,0,0-1,.984h-2.8a2.508,2.508,0,0,1,1.108-2.114,4.657,4.657,0,0,1,2.826-.813,4.083,4.083,0,0,1,2.714.838A2.915,2.915,0,0,1,96.1,9.99v3.976a4.072,4.072,0,0,0,.382,1.893V16Zm-1.751-1.826a1.56,1.56,0,0,0,.867-.224,1.4,1.4,0,0,0,.494-.506V12.007h-.813q-1.461,0-1.461,1.312a.8.8,0,0,0,.257.618A.931.931,0,0,0,91.931,14.174Zm9.513-.166a1.244,1.244,0,0,0,.913-.32,1.172,1.172,0,0,0,.315-.892H105.3a3.105,3.105,0,0,1-1.058,2.424,3.937,3.937,0,0,1-2.727.946,3.986,3.986,0,0,1-3.088-1.229,4.841,4.841,0,0,1-1.129-3.4v-.116a5.471,5.471,0,0,1,.5-2.4,3.656,3.656,0,0,1,1.448-1.6,4.319,4.319,0,0,1,2.241-.56,3.887,3.887,0,0,1,2.781.971,3.445,3.445,0,0,1,1.029,2.631h-2.623a1.536,1.536,0,0,0-.34-1.071,1.175,1.175,0,0,0-.913-.374q-1.087,0-1.27,1.386a9.782,9.782,0,0,0-.058,1.212,3.842,3.842,0,0,0,.324,1.876A1.121,1.121,0,0,0,101.444,14.008Zm9.38,2.158a4.617,4.617,0,0,1-3.345-1.233,4.257,4.257,0,0,1-1.278-3.208v-.232a5.516,5.516,0,0,1,.51-2.432,3.735,3.735,0,0,1,1.49-1.631,4.5,4.5,0,0,1,2.324-.577,3.888,3.888,0,0,1,2.988,1.175,4.616,4.616,0,0,1,1.1,3.275v1.087h-5.562a2.016,2.016,0,0,0,.656,1.187,1.951,1.951,0,0,0,1.312.432,2.514,2.514,0,0,0,2.075-.93l1.278,1.511a3.573,3.573,0,0,1-1.482,1.15A5.007,5.007,0,0,1,110.824,16.166Zm-.315-7.155q-1.229,0-1.461,1.627h2.822v-.216a1.386,1.386,0,0,0-.34-1.042A1.354,1.354,0,0,0,110.509,9.011Zm10.658.54-.921-.066a1.655,1.655,0,0,0-1.693.83V16h-2.8V7.019h2.623l.091,1.154a2.166,2.166,0,0,1,1.967-1.32,2.728,2.728,0,0,1,.78.1ZM30.821,36.166a4.617,4.617,0,0,1-3.345-1.233A4.257,4.257,0,0,1,26.2,31.725v-.232a5.516,5.516,0,0,1,.51-2.432,3.735,3.735,0,0,1,1.49-1.631,4.5,4.5,0,0,1,2.324-.577,3.888,3.888,0,0,1,2.988,1.175,4.616,4.616,0,0,1,1.1,3.275v1.087H29.045a2.016,2.016,0,0,0,.656,1.187,1.951,1.951,0,0,0,1.312.432,2.514,2.514,0,0,0,2.075-.93l1.278,1.511a3.573,3.573,0,0,1-1.482,1.15A5.007,5.007,0,0,1,30.821,36.166Zm-.315-7.155q-1.229,0-1.461,1.627h2.822v-.216a1.386,1.386,0,0,0-.34-1.042A1.354,1.354,0,0,0,30.506,29.011ZM38.682,36H35.876V23.25h2.806Zm6.068.166A4.617,4.617,0,0,1,41.4,34.933a4.257,4.257,0,0,1-1.278-3.208v-.232a5.516,5.516,0,0,1,.51-2.432,3.735,3.735,0,0,1,1.49-1.631,4.5,4.5,0,0,1,2.324-.577,3.888,3.888,0,0,1,2.988,1.175,4.616,4.616,0,0,1,1.1,3.275v1.087H42.973a2.016,2.016,0,0,0,.656,1.187,1.951,1.951,0,0,0,1.312.432,2.514,2.514,0,0,0,2.075-.93l1.278,1.511a3.573,3.573,0,0,1-1.482,1.15A5.007,5.007,0,0,1,44.75,36.166Zm-.315-7.155q-1.229,0-1.461,1.627H45.8v-.216a1.386,1.386,0,0,0-.34-1.042A1.354,1.354,0,0,0,44.434,29.011Zm9.023,5a1.244,1.244,0,0,0,.913-.32,1.172,1.172,0,0,0,.315-.892h2.623A3.105,3.105,0,0,1,56.25,35.22a3.937,3.937,0,0,1-2.727.946,3.986,3.986,0,0,1-3.088-1.229,4.841,4.841,0,0,1-1.129-3.4v-.116a5.471,5.471,0,0,1,.5-2.4,3.656,3.656,0,0,1,1.448-1.6,4.319,4.319,0,0,1,2.241-.56,3.887,3.887,0,0,1,2.781.971,3.445,3.445,0,0,1,1.029,2.631H54.686a1.536,1.536,0,0,0-.34-1.071,1.175,1.175,0,0,0-.913-.374q-1.087,0-1.27,1.386a9.781,9.781,0,0,0-.058,1.212,3.842,3.842,0,0,0,.324,1.876A1.121,1.121,0,0,0,53.457,34.008Zm8.832,0a1.244,1.244,0,0,0,.913-.32,1.172,1.172,0,0,0,.315-.892h2.623a3.105,3.105,0,0,1-1.058,2.424,3.937,3.937,0,0,1-2.727.946,3.986,3.986,0,0,1-3.088-1.229,4.841,4.841,0,0,1-1.129-3.4v-.116a5.471,5.471,0,0,1,.5-2.4,3.656,3.656,0,0,1,1.448-1.6,4.319,4.319,0,0,1,2.241-.56,3.887,3.887,0,0,1,2.781.971,3.445,3.445,0,0,1,1.029,2.631H63.518a1.536,1.536,0,0,0-.34-1.071,1.175,1.175,0,0,0-.913-.374q-1.087,0-1.27,1.386a9.781,9.781,0,0,0-.058,1.212,3.842,3.842,0,0,0,.324,1.876A1.121,1.121,0,0,0,62.289,34.008ZM70.275,36H67.469V27.019h2.806ZM67.3,24.694a1.26,1.26,0,0,1,.432-.985,1.826,1.826,0,0,1,2.241,0,1.341,1.341,0,0,1,0,1.971,1.826,1.826,0,0,1-2.241,0A1.26,1.26,0,0,1,67.3,24.694Zm4.341,6.732a5.3,5.3,0,0,1,.523-2.395,3.74,3.74,0,0,1,1.5-1.615,4.525,4.525,0,0,1,2.3-.564A4.13,4.13,0,0,1,79.148,28.1a4.794,4.794,0,0,1,1.162,3.4v.1a4.651,4.651,0,0,1-1.166,3.333,4.141,4.141,0,0,1-3.158,1.233,4.188,4.188,0,0,1-3.08-1.15A4.5,4.5,0,0,1,71.653,31.9Zm2.8.174a3.342,3.342,0,0,0,.39,1.826,1.3,1.3,0,0,0,1.154.581q1.494,0,1.527-2.3v-.282q0-2.416-1.544-2.416-1.4,0-1.519,2.083Zm9.67-4.582.091,1.054a3.046,3.046,0,0,1,2.565-1.22,2.562,2.562,0,0,1,2.1.838,3.991,3.991,0,0,1,.718,2.523V36H86.777V30.331a1.516,1.516,0,0,0-.274-1,1.267,1.267,0,0,0-1-.32,1.334,1.334,0,0,0-1.22.647V36h-2.8V27.019Zm11.364,9.147a4.617,4.617,0,0,1-3.345-1.233,4.257,4.257,0,0,1-1.278-3.208v-.232a5.516,5.516,0,0,1,.51-2.432,3.735,3.735,0,0,1,1.49-1.631,4.5,4.5,0,0,1,2.324-.577,3.888,3.888,0,0,1,2.988,1.175,4.616,4.616,0,0,1,1.1,3.275v1.087H93.7a2.016,2.016,0,0,0,.656,1.187,1.951,1.951,0,0,0,1.312.432,2.514,2.514,0,0,0,2.075-.93l1.278,1.511a3.573,3.573,0,0,1-1.482,1.15A5.007,5.007,0,0,1,95.476,36.166Zm-.315-7.155q-1.229,0-1.461,1.627h2.822v-.216a1.386,1.386,0,0,0-.34-1.042A1.354,1.354,0,0,0,95.16,29.011Zm9.928,4.466a.646.646,0,0,0-.374-.573,5.682,5.682,0,0,0-1.419-.448,6.473,6.473,0,0,1-1.727-.61,2.892,2.892,0,0,1-1.038-.917,2.19,2.19,0,0,1-.357-1.237,2.482,2.482,0,0,1,1.021-2.038,4.206,4.206,0,0,1,2.673-.8,4.66,4.66,0,0,1,2.855.805,2.518,2.518,0,0,1,1.079,2.117H105q0-1.079-1.137-1.079a1.127,1.127,0,0,0-.739.245.758.758,0,0,0-.3.61.7.7,0,0,0,.365.606,3.451,3.451,0,0,0,1.166.382,10.078,10.078,0,0,1,1.407.357,2.556,2.556,0,0,1,2.025,2.5,2.352,2.352,0,0,1-1.092,2,4.787,4.787,0,0,1-2.826.772,4.885,4.885,0,0,1-2.059-.415,3.442,3.442,0,0,1-1.411-1.129,2.556,2.556,0,0,1-.506-1.5h2.615a1.081,1.081,0,0,0,.415.909,1.707,1.707,0,0,0,1.021.286,1.343,1.343,0,0,0,.859-.232A.743.743,0,0,0,105.088,33.477ZM25.177,56H22.371V47.019h2.806ZM22.2,44.694a1.26,1.26,0,0,1,.432-.985,1.826,1.826,0,0,1,2.241,0,1.341,1.341,0,0,1,0,1.971,1.826,1.826,0,0,1-2.241,0A1.26,1.26,0,0,1,22.2,44.694Zm7.263,2.324.091,1.054a3.046,3.046,0,0,1,2.565-1.22,2.562,2.562,0,0,1,2.1.838,3.991,3.991,0,0,1,.718,2.523V56H32.133V50.331a1.516,1.516,0,0,0-.274-1,1.267,1.267,0,0,0-1-.32,1.334,1.334,0,0,0-1.22.647V56h-2.8V47.019Zm10.276-2.233v2.233h1.478v1.942H39.744V53.07a1.049,1.049,0,0,0,.183.706.98.98,0,0,0,.722.2,4.1,4.1,0,0,0,.7-.05v2a5.163,5.163,0,0,1-1.577.241,2.93,2.93,0,0,1-2.133-.681,2.79,2.79,0,0,1-.689-2.067V48.961H35.8V47.019h1.146V44.786Zm6.923,11.38a4.617,4.617,0,0,1-3.345-1.233,4.257,4.257,0,0,1-1.278-3.208v-.232a5.516,5.516,0,0,1,.51-2.432,3.735,3.735,0,0,1,1.49-1.631,4.5,4.5,0,0,1,2.324-.577,3.888,3.888,0,0,1,2.988,1.175,4.616,4.616,0,0,1,1.1,3.275v1.087H44.891a2.016,2.016,0,0,0,.656,1.187,1.951,1.951,0,0,0,1.312.432,2.514,2.514,0,0,0,2.075-.93l1.278,1.511a3.573,3.573,0,0,1-1.482,1.15A5.007,5.007,0,0,1,46.667,56.166Zm-.315-7.155q-1.229,0-1.461,1.627h2.822v-.216a1.386,1.386,0,0,0-.34-1.042A1.354,1.354,0,0,0,46.352,49.011ZM54.528,56H51.722V43.25h2.806ZM59.2,56H56.4V47.019H59.2ZM56.23,44.694a1.26,1.26,0,0,1,.432-.985,1.826,1.826,0,0,1,2.241,0,1.341,1.341,0,0,1,0,1.971,1.826,1.826,0,0,1-2.241,0A1.26,1.26,0,0,1,56.23,44.694ZM60.6,51.443a6.064,6.064,0,0,1,.448-2.407,3.609,3.609,0,0,1,1.287-1.615,3.392,3.392,0,0,1,1.951-.569,2.7,2.7,0,0,1,2.191.946l.1-.78h2.54V55.66a3.787,3.787,0,0,1-.552,2.063,3.542,3.542,0,0,1-1.6,1.345,5.873,5.873,0,0,1-2.424.469,5.067,5.067,0,0,1-1.913-.374,3.454,3.454,0,0,1-1.415-.971l1.17-1.644a2.565,2.565,0,0,0,2.059.921A1.666,1.666,0,0,0,66.3,55.56v-.282a2.627,2.627,0,0,1-2.034.888,3.246,3.246,0,0,1-2.656-1.258A5.21,5.21,0,0,1,60.6,51.542Zm2.806.174a3.2,3.2,0,0,0,.415,1.747,1.309,1.309,0,0,0,1.162.643A1.486,1.486,0,0,0,66.3,53.4V49.625a1.449,1.449,0,0,0-1.3-.614,1.318,1.318,0,0,0-1.17.668A3.644,3.644,0,0,0,63.4,51.617Zm11.646,4.549A4.617,4.617,0,0,1,71.7,54.933a4.257,4.257,0,0,1-1.278-3.208v-.232a5.516,5.516,0,0,1,.51-2.432,3.735,3.735,0,0,1,1.49-1.631,4.5,4.5,0,0,1,2.324-.577,3.888,3.888,0,0,1,2.988,1.175,4.616,4.616,0,0,1,1.1,3.275v1.087H73.271a2.016,2.016,0,0,0,.656,1.187,1.951,1.951,0,0,0,1.312.432,2.514,2.514,0,0,0,2.075-.93l1.278,1.511a3.573,3.573,0,0,1-1.482,1.15A5.007,5.007,0,0,1,75.048,56.166Zm-.315-7.155q-1.229,0-1.461,1.627h2.822v-.216a1.386,1.386,0,0,0-.34-1.042A1.354,1.354,0,0,0,74.732,49.011Zm7.794-1.992.091,1.054a3.046,3.046,0,0,1,2.565-1.22,2.562,2.562,0,0,1,2.1.838A3.991,3.991,0,0,1,88,50.214V56H85.191V50.331a1.516,1.516,0,0,0-.274-1,1.267,1.267,0,0,0-1-.32,1.334,1.334,0,0,0-1.22.647V56H79.9V47.019ZM92.8,44.786v2.233h1.478v1.942H92.8V53.07a1.049,1.049,0,0,0,.183.706.98.98,0,0,0,.722.2,4.1,4.1,0,0,0,.7-.05v2a5.163,5.163,0,0,1-1.577.241,2.93,2.93,0,0,1-2.133-.681,2.79,2.79,0,0,1-.689-2.067V48.961H88.86V47.019h1.146V44.786Zm6.923,11.38a4.617,4.617,0,0,1-3.345-1.233A4.257,4.257,0,0,1,95.1,51.725v-.232a5.516,5.516,0,0,1,.51-2.432,3.735,3.735,0,0,1,1.49-1.631,4.5,4.5,0,0,1,2.324-.577,3.888,3.888,0,0,1,2.988,1.175,4.616,4.616,0,0,1,1.1,3.275v1.087H97.949a2.016,2.016,0,0,0,.656,1.187,1.951,1.951,0,0,0,1.312.432,2.514,2.514,0,0,0,2.075-.93l1.278,1.511a3.573,3.573,0,0,1-1.482,1.15A5.007,5.007,0,0,1,99.726,56.166Zm-.315-7.155q-1.229,0-1.461,1.627h2.822v-.216a1.386,1.386,0,0,0-.34-1.042A1.354,1.354,0,0,0,99.41,49.011Zm9.928,4.466a.646.646,0,0,0-.374-.573,5.682,5.682,0,0,0-1.419-.448,6.473,6.473,0,0,1-1.727-.61,2.892,2.892,0,0,1-1.038-.917,2.19,2.19,0,0,1-.357-1.237,2.482,2.482,0,0,1,1.021-2.038,4.206,4.206,0,0,1,2.673-.8,4.66,4.66,0,0,1,2.855.805,2.518,2.518,0,0,1,1.079,2.117h-2.806q0-1.079-1.137-1.079a1.127,1.127,0,0,0-.739.245.758.758,0,0,0-.3.61.7.7,0,0,0,.365.606,3.451,3.451,0,0,0,1.166.382,10.078,10.078,0,0,1,1.407.357,2.556,2.556,0,0,1,2.025,2.5,2.352,2.352,0,0,1-1.092,2,4.787,4.787,0,0,1-2.826.772,4.885,4.885,0,0,1-2.059-.415,3.442,3.442,0,0,1-1.411-1.129,2.556,2.556,0,0,1-.506-1.5h2.615a1.081,1.081,0,0,0,.415.909,1.707,1.707,0,0,0,1.021.286,1.343,1.343,0,0,0,.859-.232A.743.743,0,0,0,109.338,53.477Z" transform="translate(945 869)" fill="#12263f"/>
    <path id="Path_178428" data-name="Path 178428" d="M18.457,12.788a1.2,1.2,0,0,0-.452-1,5.623,5.623,0,0,0-1.59-.739,15.25,15.25,0,0,1-1.859-.739Q12.207,9.16,12.207,7.143a2.843,2.843,0,0,1,.585-1.772,3.785,3.785,0,0,1,1.656-1.2,6.444,6.444,0,0,1,2.407-.427,5.637,5.637,0,0,1,2.337.465A3.7,3.7,0,0,1,20.8,5.537,3.457,3.457,0,0,1,21.371,7.5H18.465a1.461,1.461,0,0,0-.452-1.146,1.763,1.763,0,0,0-1.224-.407,1.989,1.989,0,0,0-1.233.344A1.014,1.014,0,0,0,15.6,8.01a6.281,6.281,0,0,0,1.751.78,10.729,10.729,0,0,1,2.059.867,3.459,3.459,0,0,1,1.959,3.113,2.951,2.951,0,0,1-1.2,2.49,5.317,5.317,0,0,1-3.279.9,6.505,6.505,0,0,1-2.66-.527,4.011,4.011,0,0,1-1.793-1.444,3.763,3.763,0,0,1-.6-2.113h2.922a1.854,1.854,0,0,0,.5,1.432,2.374,2.374,0,0,0,1.631.461,1.875,1.875,0,0,0,1.141-.311A1.027,1.027,0,0,0,18.457,12.788Zm8.625,3.378a4.617,4.617,0,0,1-3.345-1.233,4.257,4.257,0,0,1-1.278-3.208v-.232a5.516,5.516,0,0,1,.51-2.432,3.735,3.735,0,0,1,1.49-1.631,4.5,4.5,0,0,1,2.324-.577,3.888,3.888,0,0,1,2.988,1.175,4.616,4.616,0,0,1,1.1,3.275v1.087H25.305a2.016,2.016,0,0,0,.656,1.187,1.951,1.951,0,0,0,1.312.432,2.514,2.514,0,0,0,2.075-.93l1.278,1.511a3.573,3.573,0,0,1-1.482,1.15A5.007,5.007,0,0,1,27.082,16.166Zm-.315-7.155q-1.229,0-1.461,1.627h2.822v-.216a1.386,1.386,0,0,0-.34-1.042A1.354,1.354,0,0,0,26.766,9.011Zm10.658.54L36.5,9.484a1.655,1.655,0,0,0-1.693.83V16h-2.8V7.019h2.623l.091,1.154a2.166,2.166,0,0,1,1.967-1.32,2.728,2.728,0,0,1,.78.1ZM51,11.576a5.416,5.416,0,0,1-.942,3.341,3.021,3.021,0,0,1-2.544,1.249,2.589,2.589,0,0,1-2.034-.9v4.192h-2.8V7.019H45.3l.083.83a2.589,2.589,0,0,1,2.117-1,3.045,3.045,0,0,1,2.582,1.224A5.483,5.483,0,0,1,51,11.443Zm-2.8-.174q0-2.391-1.395-2.391a1.316,1.316,0,0,0-1.328.714v3.536a1.359,1.359,0,0,0,1.345.747q1.336,0,1.378-2.308Zm8.375,4.765a4.617,4.617,0,0,1-3.345-1.233,4.257,4.257,0,0,1-1.278-3.208v-.232a5.516,5.516,0,0,1,.51-2.432,3.735,3.735,0,0,1,1.49-1.631,4.5,4.5,0,0,1,2.324-.577,3.888,3.888,0,0,1,2.988,1.175,4.616,4.616,0,0,1,1.1,3.275v1.087H54.806a2.016,2.016,0,0,0,.656,1.187,1.951,1.951,0,0,0,1.312.432,2.514,2.514,0,0,0,2.075-.93l1.278,1.511a3.573,3.573,0,0,1-1.482,1.15A5.007,5.007,0,0,1,56.583,16.166Zm-.315-7.155q-1.229,0-1.461,1.627h2.822v-.216a1.386,1.386,0,0,0-.34-1.042A1.354,1.354,0,0,0,56.267,9.011Zm10.658.54L66,9.484a1.655,1.655,0,0,0-1.693.83V16h-2.8V7.019h2.623l.091,1.154a2.166,2.166,0,0,1,1.967-1.32,2.728,2.728,0,0,1,.78.1ZM70.885,16H68.079V7.019h2.806ZM67.913,4.694a1.26,1.26,0,0,1,.432-.985,1.826,1.826,0,0,1,2.241,0,1.26,1.26,0,0,1,.432.985,1.26,1.26,0,0,1-.432.985,1.826,1.826,0,0,1-2.241,0A1.26,1.26,0,0,1,67.913,4.694Zm4.341,6.732a5.3,5.3,0,0,1,.523-2.395,3.74,3.74,0,0,1,1.5-1.615,4.525,4.525,0,0,1,2.3-.564A4.13,4.13,0,0,1,79.758,8.1a4.794,4.794,0,0,1,1.162,3.4v.1a4.651,4.651,0,0,1-1.166,3.333A4.141,4.141,0,0,1,76.6,16.166a4.188,4.188,0,0,1-3.08-1.15A4.5,4.5,0,0,1,72.263,11.9Zm2.8.174a3.342,3.342,0,0,0,.39,1.826,1.3,1.3,0,0,0,1.154.581q1.494,0,1.527-2.3v-.282q0-2.416-1.544-2.416-1.4,0-1.519,2.083ZM76.961,3.25h2.955L77.608,5.856l-2.283,0ZM81.8,11.443a5.486,5.486,0,0,1,.921-3.362,3.033,3.033,0,0,1,2.573-1.229A2.579,2.579,0,0,1,87.32,7.8V3.25h2.806V16H87.611l-.141-.963a2.649,2.649,0,0,1-2.191,1.129,3.027,3.027,0,0,1-2.54-1.229A5.66,5.66,0,0,1,81.8,11.443Zm2.8.174q0,2.391,1.395,2.391a1.377,1.377,0,0,0,1.328-.78V9.808a1.34,1.34,0,0,0-1.312-.8q-1.295,0-1.4,2.092ZM94.667,16H91.861V7.019h2.806ZM91.695,4.694a1.26,1.26,0,0,1,.432-.985,1.826,1.826,0,0,1,2.241,0,1.26,1.26,0,0,1,.432.985,1.26,1.26,0,0,1-.432.985,1.826,1.826,0,0,1-2.241,0A1.26,1.26,0,0,1,91.695,4.694Zm8.492,9.313a1.244,1.244,0,0,0,.913-.32,1.172,1.172,0,0,0,.315-.892h2.623a3.105,3.105,0,0,1-1.058,2.424,3.937,3.937,0,0,1-2.727.946,3.986,3.986,0,0,1-3.088-1.229,4.841,4.841,0,0,1-1.129-3.4v-.116a5.471,5.471,0,0,1,.5-2.4,3.656,3.656,0,0,1,1.448-1.6,4.319,4.319,0,0,1,2.241-.56,3.887,3.887,0,0,1,2.781.971,3.445,3.445,0,0,1,1.029,2.631h-2.623a1.536,1.536,0,0,0-.34-1.071,1.175,1.175,0,0,0-.913-.374q-1.087,0-1.27,1.386a9.782,9.782,0,0,0-.058,1.212,3.842,3.842,0,0,0,.324,1.876A1.121,1.121,0,0,0,100.187,14.008Zm4.682-2.582a5.3,5.3,0,0,1,.523-2.395,3.74,3.74,0,0,1,1.5-1.615,4.525,4.525,0,0,1,2.3-.564A4.13,4.13,0,0,1,112.372,8.1a4.794,4.794,0,0,1,1.162,3.4v.1a4.651,4.651,0,0,1-1.166,3.333,4.141,4.141,0,0,1-3.158,1.233,4.188,4.188,0,0,1-3.08-1.15,4.5,4.5,0,0,1-1.253-3.117Zm2.8.174a3.342,3.342,0,0,0,.39,1.826,1.3,1.3,0,0,0,1.154.581q1.494,0,1.527-2.3v-.282q0-2.416-1.544-2.416-1.4,0-1.519,2.083Zm11.8,1.876a.646.646,0,0,0-.374-.573,5.682,5.682,0,0,0-1.419-.448,6.473,6.473,0,0,1-1.727-.61,2.892,2.892,0,0,1-1.038-.917,2.19,2.19,0,0,1-.357-1.237,2.482,2.482,0,0,1,1.021-2.038,4.206,4.206,0,0,1,2.673-.8,4.66,4.66,0,0,1,2.855.805,2.518,2.518,0,0,1,1.079,2.117h-2.806q0-1.079-1.137-1.079a1.127,1.127,0,0,0-.739.245.758.758,0,0,0-.3.61.7.7,0,0,0,.365.606,3.451,3.451,0,0,0,1.166.382,10.078,10.078,0,0,1,1.407.357,2.556,2.556,0,0,1,2.025,2.5,2.352,2.352,0,0,1-1.092,2,4.787,4.787,0,0,1-2.826.772,4.885,4.885,0,0,1-2.059-.415,3.442,3.442,0,0,1-1.411-1.129,2.556,2.556,0,0,1-.506-1.5h2.615a1.081,1.081,0,0,0,.415.909,1.707,1.707,0,0,0,1.021.286,1.343,1.343,0,0,0,.859-.232A.743.743,0,0,0,119.469,13.477Z" transform="translate(1157 889)" fill="#12263f"/>
    <path id="Path_178426" data-name="Path 178426" d="M30.423,11.725H28.845V16H25.932V3.914h4.756a5.309,5.309,0,0,1,3.362.954,3.231,3.231,0,0,1,1.212,2.695,3.924,3.924,0,0,1-.51,2.09A3.623,3.623,0,0,1,33.154,11l2.523,4.88V16H32.556ZM28.845,9.484h1.843a1.654,1.654,0,0,0,1.249-.437,1.689,1.689,0,0,0,.419-1.219A1.709,1.709,0,0,0,31.933,6.6a1.639,1.639,0,0,0-1.245-.445H28.845Zm12.393,6.682a4.617,4.617,0,0,1-3.345-1.233,4.257,4.257,0,0,1-1.278-3.208v-.232a5.516,5.516,0,0,1,.51-2.432,3.735,3.735,0,0,1,1.49-1.631,4.5,4.5,0,0,1,2.324-.577,3.888,3.888,0,0,1,2.988,1.175,4.616,4.616,0,0,1,1.1,3.275v1.087H39.462a2.016,2.016,0,0,0,.656,1.187,1.951,1.951,0,0,0,1.312.432,2.514,2.514,0,0,0,2.075-.93l1.278,1.511a3.573,3.573,0,0,1-1.482,1.15A5.007,5.007,0,0,1,41.239,16.166Zm-.315-7.155q-1.229,0-1.461,1.627h2.822v-.216a1.386,1.386,0,0,0-.34-1.042A1.354,1.354,0,0,0,40.923,9.011ZM49.1,16H46.294V3.25H49.1Zm6.068.166a4.617,4.617,0,0,1-3.345-1.233,4.257,4.257,0,0,1-1.278-3.208v-.232a5.516,5.516,0,0,1,.51-2.432,3.735,3.735,0,0,1,1.49-1.631,4.5,4.5,0,0,1,2.324-.577,3.888,3.888,0,0,1,2.988,1.175,4.616,4.616,0,0,1,1.1,3.275v1.087H53.391a2.016,2.016,0,0,0,.656,1.187,1.951,1.951,0,0,0,1.312.432,2.514,2.514,0,0,0,2.075-.93l1.278,1.511a3.573,3.573,0,0,1-1.482,1.15A5.007,5.007,0,0,1,55.167,16.166Zm-.315-7.155q-1.229,0-1.461,1.627h2.822v-.216a1.386,1.386,0,0,0-.34-1.042A1.354,1.354,0,0,0,54.852,9.011Zm8.7,3.661L64.97,7.019h2.947L64.987,16H62.132L59.2,7.019h2.955ZM73.686,16a3.159,3.159,0,0,1-.266-.805,2.6,2.6,0,0,1-2.158.971A3.187,3.187,0,0,1,69.1,15.4a2.444,2.444,0,0,1-.888-1.93A2.512,2.512,0,0,1,69.3,11.26a5.5,5.5,0,0,1,3.138-.747H73.3v-.475q0-1.243-1.071-1.243a.875.875,0,0,0-1,.984h-2.8A2.508,2.508,0,0,1,69.54,7.665a4.657,4.657,0,0,1,2.826-.813,4.083,4.083,0,0,1,2.714.838A2.915,2.915,0,0,1,76.1,9.99v3.976a4.072,4.072,0,0,0,.382,1.893V16Zm-1.751-1.826a1.56,1.56,0,0,0,.867-.224,1.4,1.4,0,0,0,.494-.506V12.007h-.813q-1.461,0-1.461,1.312a.8.8,0,0,0,.257.618A.931.931,0,0,0,71.935,14.174Zm8.284-7.155.091,1.054a3.046,3.046,0,0,1,2.565-1.22,2.562,2.562,0,0,1,2.1.838,3.991,3.991,0,0,1,.718,2.523V16H82.884V10.331a1.516,1.516,0,0,0-.274-1,1.267,1.267,0,0,0-1-.32,1.334,1.334,0,0,0-1.22.647V16H77.6V7.019Zm10.816,6.989a1.244,1.244,0,0,0,.913-.32,1.172,1.172,0,0,0,.315-.892h2.623a3.105,3.105,0,0,1-1.058,2.424,3.937,3.937,0,0,1-2.727.946,3.986,3.986,0,0,1-3.088-1.229,4.841,4.841,0,0,1-1.129-3.4v-.116a5.471,5.471,0,0,1,.5-2.4,3.656,3.656,0,0,1,1.448-1.6,4.319,4.319,0,0,1,2.241-.56,3.887,3.887,0,0,1,2.781.971,3.445,3.445,0,0,1,1.029,2.631H92.263a1.536,1.536,0,0,0-.34-1.071,1.175,1.175,0,0,0-.913-.374q-1.087,0-1.27,1.386a9.782,9.782,0,0,0-.058,1.212,3.842,3.842,0,0,0,.324,1.876A1.121,1.121,0,0,0,91.035,14.008ZM99.02,16H96.215V7.019H99.02ZM96.049,4.694a1.26,1.26,0,0,1,.432-.985,1.826,1.826,0,0,1,2.241,0,1.26,1.26,0,0,1,.432.985,1.26,1.26,0,0,1-.432.985,1.826,1.826,0,0,1-2.241,0A1.26,1.26,0,0,1,96.049,4.694ZM105.8,16a3.159,3.159,0,0,1-.266-.805,2.6,2.6,0,0,1-2.158.971,3.187,3.187,0,0,1-2.158-.768,2.444,2.444,0,0,1-.888-1.93,2.512,2.512,0,0,1,1.079-2.208,5.5,5.5,0,0,1,3.138-.747h.863v-.475q0-1.243-1.071-1.243a.875.875,0,0,0-1,.984h-2.8a2.508,2.508,0,0,1,1.108-2.114,4.657,4.657,0,0,1,2.826-.813,4.083,4.083,0,0,1,2.714.838,2.915,2.915,0,0,1,1.021,2.3v3.976a4.072,4.072,0,0,0,.382,1.893V16Zm-1.751-1.826a1.56,1.56,0,0,0,.867-.224,1.4,1.4,0,0,0,.494-.506V12.007H104.6q-1.461,0-1.461,1.312a.8.8,0,0,0,.257.618A.931.931,0,0,0,104.051,14.174Z" transform="translate(733 889)" fill="#12263f"/>
  </g>
</svg>
