<svg xmlns="http://www.w3.org/2000/svg" width="100" height="100" viewBox="0 0 100 100">
  <g id="t1-ic6" transform="translate(6114 8181)">
    <rect id="Rectangle_36884" data-name="Rectangle 36884" width="100" height="100" rx="10" transform="translate(-6114 -8181)" fill="#f6bf28"/>
    <g id="informe-financiero" transform="translate(-6121.058 -8168)">
      <path id="Path_172160" data-name="Path 172160" d="M73.595,18.563v-7.21a4.766,4.766,0,0,0-4.761-4.761H63.048v-1.1a3.3,3.3,0,0,0-3.3-3.3H54.083A2.565,2.565,0,0,0,51.549,0H45.1A2.565,2.565,0,0,0,42.57,2.2H36.9a3.3,3.3,0,0,0-3.3,3.3v1.1H27.819a4.766,4.766,0,0,0-4.761,4.761V59.985a1.1,1.1,0,0,0,2.2,0V11.353a2.566,2.566,0,0,1,2.563-2.563H42.54v2.2H29.284a1.833,1.833,0,0,0-1.831,1.831V68.774a1.833,1.833,0,0,0,1.831,1.831H67.37A1.833,1.833,0,0,0,69.2,68.774V51.419a14.37,14.37,0,0,0,2.2.326V70.239A2.566,2.566,0,0,1,68.834,72.8H27.819a2.566,2.566,0,0,1-2.563-2.563V65.112a1.1,1.1,0,0,0-2.2,0v5.127A4.766,4.766,0,0,0,27.819,75H68.834A4.766,4.766,0,0,0,73.6,70.239v-18.5A14.428,14.428,0,0,0,86.81,38.452h2.662a1.83,1.83,0,0,0,1.83-1.9A18.823,18.823,0,0,0,73.595,18.563Zm-2.2-7.21V22.962a14.37,14.37,0,0,0-2.2.326V12.817a1.833,1.833,0,0,0-1.831-1.831H54.113v-2.2H68.834A2.566,2.566,0,0,1,71.4,11.353ZM60.851,5.493v1.1H54.113v-2.2h5.64A1.1,1.1,0,0,1,60.851,5.493ZM44.738,2.563A.367.367,0,0,1,45.1,2.2h6.445a.367.367,0,0,1,.366.366V12.817a.367.367,0,0,1-.366.366H45.1a.367.367,0,0,1-.366-.366ZM35.8,6.592v-1.1a1.1,1.1,0,0,1,1.1-1.1h5.64v2.2ZM29.65,68.408v-2.2H67v2.2ZM67,64.014H29.65V13.184H42.57a2.565,2.565,0,0,0,2.534,2.2h6.445a2.565,2.565,0,0,0,2.534-2.2H67v10.8a14.427,14.427,0,0,0,0,26.742V64.014ZM82.816,36.255a1.1,1.1,0,0,0,0,2.2H84.6A12.23,12.23,0,1,1,71.4,25.168V36.621a1.833,1.833,0,0,0,1.831,1.831h4.46a1.1,1.1,0,0,0,0-2.2H73.6V20.763A16.721,16.721,0,0,1,89.087,36.255Z"/>
      <path id="Path_172161" data-name="Path 172161" d="M95.812,131.567a4.7,4.7,0,0,0-3.236-5.379c-.315-.111-.638-.228-.959-.35v-5.146a3.312,3.312,0,0,1,1.327.639,1.1,1.1,0,0,0,1.482-1.622,5.639,5.639,0,0,0-2.809-1.254v-1.047a1.1,1.1,0,0,0-2.2,0v1.132c-.16.035-.323.076-.489.126a4.452,4.452,0,0,0-3.049,3.492,3.92,3.92,0,0,0,1.284,3.863,10.537,10.537,0,0,0,2.255,1.292v6.531a4.485,4.485,0,0,1-2.372-.893,1.1,1.1,0,0,0-1.2,1.839,6.563,6.563,0,0,0,3.575,1.255v1.173a1.1,1.1,0,0,0,2.2,0v-1.261a5.353,5.353,0,0,0,4.2-4.39Zm-7.291-7.275a1.752,1.752,0,0,1-.48-1.727,2.3,2.3,0,0,1,1.379-1.745v4.047A6.531,6.531,0,0,1,88.521,124.293Zm3.323,3.968a2.539,2.539,0,0,1,1.8,2.943,3.2,3.2,0,0,1-2.028,2.471v-5.494Z" transform="translate(-53.165 -99.272)"/>
      <path id="Path_172162" data-name="Path 172162" d="M174.657,237.2h4.907a1.1,1.1,0,0,0,0-2.2h-4.907a1.1,1.1,0,1,0,0,2.2Z" transform="translate(-128.454 -200.576)"/>
      <path id="Path_172163" data-name="Path 172163" d="M174.657,207.2h7.837a1.1,1.1,0,0,0,0-2.2h-7.837a1.1,1.1,0,1,0,0,2.2Z" transform="translate(-128.454 -174.971)"/>
      <path id="Path_172164" data-name="Path 172164" d="M185.423,175H174.657a1.1,1.1,0,1,0,0,2.2h10.767a1.1,1.1,0,0,0,0-2.2Z" transform="translate(-128.454 -149.365)"/>
      <path id="Path_172165" data-name="Path 172165" d="M174.657,147.2h16.626a1.1,1.1,0,0,0,0-2.2H174.657a1.1,1.1,0,0,0,0,2.2Z" transform="translate(-128.454 -123.76)"/>
      <path id="Path_172166" data-name="Path 172166" d="M263.057,378.831v2.93a1.833,1.833,0,0,0,1.831,1.831h2.93a1.833,1.833,0,0,0,1.831-1.831v-2.93A1.833,1.833,0,0,0,267.818,377h-2.93A1.833,1.833,0,0,0,263.057,378.831Zm2.2.366h2.2v2.2h-2.2Z" transform="translate(-204.843 -321.775)"/>
      <path id="Path_172167" data-name="Path 172167" d="M207.819,342h-2.93a1.833,1.833,0,0,0-1.831,1.831v8.057a1.833,1.833,0,0,0,1.831,1.831h2.93a1.833,1.833,0,0,0,1.831-1.831v-8.057A1.833,1.833,0,0,0,207.819,342Zm-.366,9.521h-2.2V344.2h2.2Z" transform="translate(-153.633 -291.902)"/>
      <path id="Path_172168" data-name="Path 172168" d="M147.819,282h-2.93a1.833,1.833,0,0,0-1.831,1.831v16.846a1.833,1.833,0,0,0,1.831,1.831h2.93a1.833,1.833,0,0,0,1.831-1.831V283.831A1.833,1.833,0,0,0,147.819,282Zm-.366,18.311h-2.2V284.2h2.2Z" transform="translate(-102.422 -240.691)"/>
      <path id="Path_172169" data-name="Path 172169" d="M87.819,327h-2.93a1.833,1.833,0,0,0-1.831,1.831v10.254a1.833,1.833,0,0,0,1.831,1.831h2.93a1.833,1.833,0,0,0,1.831-1.831V328.831A1.833,1.833,0,0,0,87.819,327Zm-.366,11.719h-2.2V329.2h2.2Z" transform="translate(-51.211 -279.1)"/>
    </g>
  </g>
</svg>
