<svg xmlns="http://www.w3.org/2000/svg" xmlns:xlink="http://www.w3.org/1999/xlink" width="400" height="300" viewBox="0 0 400 300">
  <defs>
    <linearGradient id="linear-gradient" x1="-24.893" y1="218.492" x2="-23.859" y2="218.492" gradientUnits="objectBoundingBox">
      <stop offset="0" stop-color="#f0ecf4"/>
      <stop offset="1" stop-color="#fb8c89"/>
    </linearGradient>
  </defs>
  <g id="t2-c3" transform="translate(-1020 -4472)">
    <rect id="Rectangle_36436" data-name="Rectangle 36436" width="400" height="300" rx="30" transform="translate(1020 4472)" fill="#fdf2d3"/>
    <path id="Rectangle_36436_-_Outline" data-name="Rectangle 36436 - Outline" d="M30,3A26.975,26.975,0,0,0,3,30V270a26.975,26.975,0,0,0,27,27H370a26.975,26.975,0,0,0,27-27V30A26.975,26.975,0,0,0,370,3H30m0-3H370a30,30,0,0,1,30,30V270a30,30,0,0,1-30,30H30A30,30,0,0,1,0,270V30A30,30,0,0,1,30,0Z" transform="translate(1020 4472)" fill="#f6bf28"/>
    <path id="Rectangle_36437" data-name="Rectangle 36437" d="M0,0H400a0,0,0,0,1,0,0V25a30,30,0,0,1-30,30H30A30,30,0,0,1,0,25V0A0,0,0,0,1,0,0Z" transform="translate(1020 4717)" fill="#f6bf28"/>
    <path id="Path_178446" data-name="Path 178446" d="M54.362,15.7a5.712,5.712,0,0,1-.881,2.884,5.316,5.316,0,0,1-2.261,1.939,7.7,7.7,0,0,1-3.325.688,6.142,6.142,0,0,1-4.855-2.009,8.294,8.294,0,0,1-1.772-5.672v-.773a9.467,9.467,0,0,1,.8-4.023,6.064,6.064,0,0,1,2.3-2.664,6.429,6.429,0,0,1,3.48-.94,6.741,6.741,0,0,1,4.576,1.5,5.921,5.921,0,0,1,1.966,4.13h-3.76a2.8,2.8,0,0,0-.72-2.052,2.96,2.96,0,0,0-2.062-.623A2.252,2.252,0,0,0,45.79,9.141,6.766,6.766,0,0,0,45.1,12.5v1.106a7.487,7.487,0,0,0,.628,3.577A2.3,2.3,0,0,0,47.9,18.261a2.9,2.9,0,0,0,1.987-.612,2.6,2.6,0,0,0,.73-1.944Zm1.16-.623a6.86,6.86,0,0,1,.677-3.1,4.84,4.84,0,0,1,1.944-2.089,5.856,5.856,0,0,1,2.976-.73,5.344,5.344,0,0,1,4.114,1.617,6.2,6.2,0,0,1,1.5,4.4v.129a6.019,6.019,0,0,1-1.509,4.313,5.359,5.359,0,0,1-4.087,1.6,5.42,5.42,0,0,1-3.985-1.488,5.819,5.819,0,0,1-1.622-4.034Zm3.62.226a4.325,4.325,0,0,0,.5,2.363,1.682,1.682,0,0,0,1.493.752q1.934,0,1.977-2.976v-.365q0-3.126-2-3.126-1.815,0-1.966,2.7Zm12.611-5.93.118,1.364a4,4,0,0,1,3.319-1.579,2.942,2.942,0,0,1,2.976,1.751,3.868,3.868,0,0,1,3.416-1.751q3.534,0,3.631,4.275V21H81.583V13.663a2.216,2.216,0,0,0-.3-1.3,1.28,1.28,0,0,0-1.1-.408,1.715,1.715,0,0,0-1.6.956l.011.15V21H74.966V13.685a2.329,2.329,0,0,0-.29-1.321,1.277,1.277,0,0,0-1.106-.408,1.736,1.736,0,0,0-1.59.956V21h-3.62V9.377ZM94.205,19.743a3.732,3.732,0,0,1-3.1,1.472,3.661,3.661,0,0,1-2.9-1.112,4.676,4.676,0,0,1-.983-3.2V9.377h3.62v7.552a1.3,1.3,0,0,0,1.45,1.493,1.892,1.892,0,0,0,1.772-.892V9.377h3.642V21H94.313Zm8.809-10.366.118,1.364a3.942,3.942,0,0,1,3.319-1.579,3.316,3.316,0,0,1,2.712,1.085,5.165,5.165,0,0,1,.929,3.266V21h-3.631V13.663a1.961,1.961,0,0,0-.354-1.294,1.64,1.64,0,0,0-1.289-.414,1.726,1.726,0,0,0-1.579.838V21h-3.62V9.377ZM115.915,21h-3.631V9.377h3.631ZM112.069,6.369a1.63,1.63,0,0,1,.559-1.275,2.364,2.364,0,0,1,2.9,0,1.63,1.63,0,0,1,.559,1.275,1.63,1.63,0,0,1-.559,1.275,2.364,2.364,0,0,1-2.9,0A1.63,1.63,0,0,1,112.069,6.369Zm10.989,12.053a1.61,1.61,0,0,0,1.182-.414,1.517,1.517,0,0,0,.408-1.155h3.395a4.018,4.018,0,0,1-1.37,3.137,5.1,5.1,0,0,1-3.529,1.225,5.158,5.158,0,0,1-4-1.59,6.264,6.264,0,0,1-1.461-4.4v-.15a7.08,7.08,0,0,1,.65-3.11,4.732,4.732,0,0,1,1.875-2.073,5.589,5.589,0,0,1,2.9-.725,5.03,5.03,0,0,1,3.6,1.257,4.458,4.458,0,0,1,1.332,3.405h-3.395a1.987,1.987,0,0,0-.44-1.386,1.52,1.52,0,0,0-1.182-.483q-1.407,0-1.644,1.794a12.658,12.658,0,0,0-.075,1.568,4.972,4.972,0,0,0,.419,2.428A1.45,1.45,0,0,0,123.059,18.422ZM136.121,21a4.088,4.088,0,0,1-.344-1.042,3.366,3.366,0,0,1-2.793,1.257,4.124,4.124,0,0,1-2.793-.994,3.163,3.163,0,0,1-1.149-2.5,3.251,3.251,0,0,1,1.4-2.857A7.114,7.114,0,0,1,134.5,13.9h1.117v-.615q0-1.608-1.386-1.608a1.133,1.133,0,0,0-1.289,1.274h-3.62a3.245,3.245,0,0,1,1.434-2.736,6.027,6.027,0,0,1,3.658-1.051,5.284,5.284,0,0,1,3.513,1.085,3.772,3.772,0,0,1,1.321,2.976v5.146a5.269,5.269,0,0,0,.494,2.449V21Zm-2.267-2.363a2.019,2.019,0,0,0,1.123-.29,1.818,1.818,0,0,0,.639-.655V15.833h-1.053q-1.891,0-1.891,1.7a1.036,1.036,0,0,0,.333.8A1.205,1.205,0,0,0,133.854,18.637Zm12.311-.215a1.61,1.61,0,0,0,1.182-.414,1.517,1.517,0,0,0,.408-1.155h3.395a4.018,4.018,0,0,1-1.37,3.137,5.1,5.1,0,0,1-3.529,1.225,5.158,5.158,0,0,1-4-1.59,6.264,6.264,0,0,1-1.461-4.4v-.15a7.08,7.08,0,0,1,.65-3.11,4.732,4.732,0,0,1,1.875-2.073,5.589,5.589,0,0,1,2.9-.725,5.03,5.03,0,0,1,3.6,1.257,4.458,4.458,0,0,1,1.332,3.405h-3.395a1.987,1.987,0,0,0-.44-1.386,1.52,1.52,0,0,0-1.182-.483q-1.407,0-1.644,1.794a12.659,12.659,0,0,0-.075,1.568,4.972,4.972,0,0,0,.419,2.428A1.45,1.45,0,0,0,146.165,18.422ZM156.5,21h-3.631V9.377H156.5ZM152.653,6.369a1.63,1.63,0,0,1,.559-1.275,2.364,2.364,0,0,1,2.9,0,1.63,1.63,0,0,1,.559,1.275,1.63,1.63,0,0,1-.559,1.275,2.364,2.364,0,0,1-2.9,0A1.63,1.63,0,0,1,152.653,6.369Zm5.618,8.712a6.86,6.86,0,0,1,.677-3.1,4.84,4.84,0,0,1,1.944-2.089,5.856,5.856,0,0,1,2.976-.73,5.344,5.344,0,0,1,4.114,1.617,6.2,6.2,0,0,1,1.5,4.4v.129a6.019,6.019,0,0,1-1.509,4.313,5.359,5.359,0,0,1-4.087,1.6,5.42,5.42,0,0,1-3.985-1.488,5.819,5.819,0,0,1-1.622-4.034Zm3.62.226a4.325,4.325,0,0,0,.5,2.363,1.682,1.682,0,0,0,1.493.752q1.934,0,1.977-2.976v-.365q0-3.126-2-3.126-1.815,0-1.966,2.7ZM164.362,4.5h3.824L165.2,7.873l-2.954-.005Zm10.044,4.877.118,1.364a3.942,3.942,0,0,1,3.319-1.579,3.316,3.316,0,0,1,2.712,1.085,5.165,5.165,0,0,1,.929,3.266V21h-3.631V13.663a1.961,1.961,0,0,0-.354-1.294,1.64,1.64,0,0,0-1.289-.414,1.726,1.726,0,0,0-1.579.838V21h-3.62V9.377Z" transform="translate(1109 4731)" fill="#12263f"/>
    <g id="Group_112028" data-name="Group 112028" transform="translate(-1272.003 4114.111)">
      <g id="Group_111989" data-name="Group 111989" transform="translate(2490.343 407.464)">
        <ellipse id="Ellipse_5517" data-name="Ellipse 5517" cx="48.025" cy="5.966" rx="48.025" ry="5.966" transform="translate(15.015 168.781)" fill="#ccc" style="mix-blend-mode: multiply;isolation: isolate"/>
        <g id="Group_111988" data-name="Group 111988">
          <g id="Group_111987" data-name="Group 111987">
            <g id="Group_111961" data-name="Group 111961" transform="translate(12.131)">
              <path id="Path_171795" data-name="Path 171795" d="M2581.544,588.859l-60.51-23.429a8.666,8.666,0,0,1-4.713-12.115l66.821-136.424a10.668,10.668,0,0,1,13.187-5.186l60.509,23.429a8.665,8.665,0,0,1,4.712,12.115L2594.73,583.673A10.667,10.667,0,0,1,2581.544,588.859Z" transform="translate(-2510.31 -409.076)" fill="#28b5bd"/>
              <path id="Path_171796" data-name="Path 171796" d="M2576.263,586.814l-60.509-23.428a8.665,8.665,0,0,1-4.712-12.116l66.82-136.424a10.669,10.669,0,0,1,13.187-5.185l60.509,23.428a8.665,8.665,0,0,1,4.712,12.115l-66.821,136.425A10.667,10.667,0,0,1,2576.263,586.814Z" transform="translate(-2510.087 -408.99)" fill="#c9f6f9"/>
              <g id="Group_111960" data-name="Group 111960" transform="translate(8.481 7.977)">
                <path id="Path_171797" data-name="Path 171797" d="M2652.941,446.046l-17.194,35.111-20.469,41.8-11.924,24.34-3.511,7.163-8.209,16.763a1.136,1.136,0,0,1-1.4.548l-3.569-1.386-.328-.124-20.3-7.859-.267-.1-46.229-17.9a.925.925,0,0,1-.5-1.287l22.252-45.431,19.743-40.3,16.386-33.441,2.933-5.993a1.135,1.135,0,0,1,1.4-.554l33.721,13.055,36.973,14.317A.921.921,0,0,1,2652.941,446.046Z" transform="translate(-2518.942 -417.319)" fill="#83d1d6"/>
                <path id="Path_171798" data-name="Path 171798" d="M2638.329,481.157l-20.469,41.8L2580,423.934l2.933-5.993a1.135,1.135,0,0,1,1.4-.554l33.721,13.055Z" transform="translate(-2521.523 -417.319)" fill="#83bdff" style="mix-blend-mode: screen;isolation: isolate"/>
                <path id="Path_171799" data-name="Path 171799" d="M2600.831,556.226l-8.209,16.763a1.136,1.136,0,0,1-1.4.548l-3.569-1.386-.328-.124-20.3-7.859-24.746-64.721,19.743-40.3Z" transform="translate(-2519.928 -419.087)" fill="#83bdff" style="mix-blend-mode: screen;isolation: isolate"/>
              </g>
              <path id="Path_171800" data-name="Path 171800" d="M2638.478,432.089l-30.423-11.779a.689.689,0,0,1-.375-.964h0a.849.849,0,0,1,1.05-.413l30.423,11.779a.69.69,0,0,1,.375.964h0A.849.849,0,0,1,2638.478,432.089Z" transform="translate(-2514.209 -409.408)" fill="#f8f9ff"/>
              <ellipse id="Ellipse_5518" data-name="Ellipse 5518" cx="6.882" cy="6.314" rx="6.882" ry="6.314" transform="translate(32.085 152.759) rotate(-20.301)" fill="#83d1d6"/>
            </g>
            <g id="Group_111985" data-name="Group 111985" transform="translate(0 48.666)">
              <g id="Group_111984" data-name="Group 111984">
                <g id="Group_111962" data-name="Group 111962" transform="translate(66.771 5.561)">
                  <path id="Path_171801" data-name="Path 171801" d="M2604.173,504.3a50.882,50.882,0,0,0-2.447-6.076c-1.2-2.5-2.2-5.146-3.413-7.64a66.07,66.07,0,0,1-3.3-7.827,60.385,60.385,0,0,1-2.421-7.183c-.421-2.1-1.163-4.075-1.659-6.153a27.754,27.754,0,0,0-1.124-3.806l-16.511,6.37c-1.223,3.692-1.252,8.07-.94,11.987.438,5.494.788,11.131-.331,16.555-.788,3.818-3.1,7.3-4.892,10.447a6.965,6.965,0,0,0,2.391.681c1.017.251,2.027.558,3.031.863a68.51,68.51,0,0,0,7.853,1.565c4.485.81,8.966,1.7,13.444,2.581,2.56.5,5.187.843,7.714,1.568,1.2.346,2.269.987,3.516.956.068-2.186-.034-4.393.067-6.578A22.064,22.064,0,0,0,2604.173,504.3Z" transform="translate(-2567.139 -465.611)" fill="#ff805a"/>
                  <path id="Path_171802" data-name="Path 171802" d="M2575.7,474.686c.01-.192-.289-.178-.3.012-.26,5.272,1.573,10.275,1.874,15.5A52.1,52.1,0,0,1,2575,507.268c-.052.185.239.251.29.067a53.821,53.821,0,0,0,2.334-16.031C2577.469,485.7,2575.427,480.31,2575.7,474.686Z" transform="translate(-2567.471 -465.989)" fill="#38173e"/>
                  <path id="Path_171803" data-name="Path 171803" d="M2579.6,476.806c-.031-.188-.329-.177-.3.012a119.541,119.541,0,0,1,.828,32.065c-.021.189.269.258.29.067A119.819,119.819,0,0,0,2579.6,476.806Z" transform="translate(-2567.653 -466.079)" fill="#38173e"/>
                  <path id="Path_171804" data-name="Path 171804" d="M2582.583,472.912c-.038-.188-.321-.095-.284.092,2.634,13.276,7.121,26.292,7.038,39.965,0,.192.3.179.3-.012C2589.718,499.254,2585.222,486.218,2582.583,472.912Z" transform="translate(-2567.78 -465.915)" fill="#38173e"/>
                  <path id="Path_171805" data-name="Path 171805" d="M2592.384,496.631c-1.779-6.107-2.523-12.458-4.235-18.584-.052-.185-.335-.094-.284.091,1.615,5.779,2.373,11.748,3.941,17.536,1.625,6,4.835,11.639,4.659,18.005-.006.192.292.178.3-.012C2596.931,507.617,2594.037,502.3,2592.384,496.631Z" transform="translate(-2568.015 -466.132)" fill="#38173e"/>
                  <path id="Path_171806" data-name="Path 171806" d="M2596.3,493.74c-.08-.171-.365-.083-.285.092a65.519,65.519,0,0,1,5.663,20.216c.022.19.32.178.3-.012A65.885,65.885,0,0,0,2596.3,493.74Z" transform="translate(-2568.359 -466.796)" fill="#38173e"/>
                  <path id="Path_171807" data-name="Path 171807" d="M2589.215,470.334c-.039-.187-.323-.095-.285.092a140.221,140.221,0,0,0,3.86,14.576.149.149,0,0,0,.283-.091A139.861,139.861,0,0,1,2589.215,470.334Z" transform="translate(-2568.06 -465.806)" fill="#38173e"/>
                </g>
                <g id="Group_111966" data-name="Group 111966" transform="translate(29.524 9.115)">
                  <path id="Path_171808" data-name="Path 171808" d="M2584.914,492.538h0a5.181,5.181,0,0,1-.864,6.223l-17.4,17.26a4.071,4.071,0,0,1-6.359-.8l-10.666-17.8,5.224-1.574,8.344,10.328,13.392-14.593A5.181,5.181,0,0,1,2584.914,492.538Z" transform="translate(-2529.151 -470.191)" fill="#f6bf28"/>
                  <g id="Group_111965" data-name="Group 111965">
                    <path id="Path_171809" data-name="Path 171809" d="M2551.5,498.362c.005-.069.019-.137.027-.206.007-.121.021-.24.028-.361a.534.534,0,0,1-.051-.218,37.031,37.031,0,0,1,.908-8.907,6.952,6.952,0,0,1,.581-2.381.491.491,0,0,1,.429-.242,4.4,4.4,0,0,1,1.015.2.488.488,0,0,1,.294.243.386.386,0,0,1,.2.3c.4,2.919,2.954,11.474-.253,13.906a1.738,1.738,0,0,1-1.543.581C2551.654,501.143,2551.377,499.621,2551.5,498.362Z" transform="translate(-2529.229 -470.028)" fill="#28b5bd"/>
                    <path id="Path_171810" data-name="Path 171810" d="M2553.27,489.668c-.017-.192.281-.189.3,0a48.278,48.278,0,0,1-.033,9.3c-.018.19-.318.19-.3,0A48.435,48.435,0,0,0,2553.27,489.668Z" transform="translate(-2529.304 -470.175)" fill="#38173e"/>
                    <path id="Path_171811" data-name="Path 171811" d="M2551.478,497.549l-1.656.235-2.106-3.5s-1.4-2.317,1.456-4.159a6.859,6.859,0,0,1,5.725-.7l1.524.467s1.1,1.558-3.592,1.088c0,0,3.634-.119,3.719,1.335,0,0,.57,1.6-4.845.11,0,0,4.454.372,4.781,2.118,0,0,.036,1.551-5.182-.329C2551.445,494.209,2551.427,494.836,2551.478,497.549Z" transform="translate(-2529.056 -470.157)" fill="#ffaeab"/>
                    <g id="Group_111964" data-name="Group 111964">
                      <path id="Path_171812" data-name="Path 171812" d="M2552.541,479.855c-.334-.03-20.57-10.3-20.57-10.3l-.184,24.838,20.527-7.009C2555.471,487.645,2555.93,480.161,2552.541,479.855Z" transform="translate(-2528.397 -469.331)" fill="#98f2f9"/>
                      <path id="Path_171813" data-name="Path 171813" d="M2528.249,481.825c-.052,6.924,1.328,12.545,3.082,12.559,1.389.011,2.6-3.514,3.064-8.432.126-1.28.194-2.65.2-4.08a45.661,45.661,0,0,0-.244-5.181c-.468-4.335-1.551-7.36-2.839-7.37C2529.763,469.309,2528.3,474.908,2528.249,481.825Z" transform="translate(-2528.248 -469.321)" fill="#28b5bd"/>
                      <path id="Path_171814" data-name="Path 171814" d="M2531.03,481.613a4.544,4.544,0,0,0,3.482,4.664c.126-1.28.194-2.65.2-4.08a45.661,45.661,0,0,0-.244-5.181A4.572,4.572,0,0,0,2531.03,481.613Z" transform="translate(-2528.365 -469.646)" fill="#209299"/>
                      <path id="Path_171815" data-name="Path 171815" d="M2552.905,488.052l2.07.015a3.972,3.972,0,0,0,4-3.943h0a3.972,3.972,0,0,0-3.942-4l-2.07-.015C2555.389,482.922,2555.161,485.556,2552.905,488.052Z" transform="translate(-2529.29 -469.777)" fill="#28b5bd"/>
                      <g id="Group_111963" data-name="Group 111963" transform="translate(0.99 1.795)">
                        <path id="Path_171816" data-name="Path 171816" d="M2536.467,472.669q7.473,3.65,14.9,7.4c.172.086.019.344-.152.257q-7.424-3.751-14.9-7.4C2536.14,472.843,2536.295,472.586,2536.467,472.669Z" transform="translate(-2529.576 -471.257)" fill="#38173e"/>
                        <path id="Path_171817" data-name="Path 171817" d="M2532.775,492.712c2.809-6.632,2.233-14.28.622-21.12-.044-.188.245-.265.289-.078,1.628,6.909,2.214,14.58-.623,21.28C2532.989,492.968,2532.7,492.89,2532.775,492.712Z" transform="translate(-2529.429 -471.204)" fill="#38173e"/>
                        <path id="Path_171818" data-name="Path 171818" d="M2531.35,471.271c.086-.172.344-.019.258.153a10.235,10.235,0,0,0-1.085,4.339.149.149,0,0,1-.3,0A10.6,10.6,0,0,1,2531.35,471.271Z" transform="translate(-2529.322 -471.195)" fill="#38173e"/>
                        <path id="Path_171819" data-name="Path 171819" d="M2530,473.3a.15.15,0,0,1,.288.082,20.6,20.6,0,0,0-.7,5.584.149.149,0,0,1-.3,0A20.877,20.877,0,0,1,2530,473.3Z" transform="translate(-2529.282 -471.28)" fill="#38173e"/>
                        <path id="Path_171820" data-name="Path 171820" d="M2533.124,479.105c.143-.128.353.084.21.214-1.053.952-1.062,3.384-.39,4.514a.15.15,0,0,1-.26.149C2531.929,482.711,2531.96,480.157,2533.124,479.105Z" transform="translate(-2529.404 -471.528)" fill="#38173e"/>
                        <path id="Path_171821" data-name="Path 171821" d="M2552.712,488.094a4.812,4.812,0,0,0,1.019-6.865c-.113-.156.147-.3.26-.149a5.107,5.107,0,0,1-1.129,7.274C2552.706,488.468,2552.559,488.207,2552.712,488.094Z" transform="translate(-2530.27 -471.61)" fill="#38173e"/>
                      </g>
                    </g>
                    <path id="Path_171822" data-name="Path 171822" d="M2551.071,490.174a17.314,17.314,0,0,1,3.749.779.15.15,0,0,1-.081.288,17.009,17.009,0,0,0-3.669-.768C2550.877,490.46,2550.878,490.162,2551.071,490.174Z" transform="translate(-2529.206 -470.203)" fill="#38173e"/>
                    <path id="Path_171823" data-name="Path 171823" d="M2551.3,491.941a28.558,28.558,0,0,1,3.583,1.021c.18.065.1.353-.082.288a28.18,28.18,0,0,0-3.582-1.021C2551.031,492.188,2551.113,491.9,2551.3,491.941Z" transform="translate(-2529.214 -470.277)" fill="#38173e"/>
                    <path id="Path_171824" data-name="Path 171824" d="M2548.983,492.918a20.175,20.175,0,0,0,2.463,1.3c.012,0,.011.016.02.022.091-.027.2.01.185.127q-.059.529-.117,1.057-.008.441-.015.882c0,.164-.261.208-.295.037l-.049-.249,0-.006a13.546,13.546,0,0,1-.528-1.727.145.145,0,0,1,.078-.165,20.48,20.48,0,0,1-1.892-1.024C2548.667,493.074,2548.819,492.816,2548.983,492.918Z" transform="translate(-2529.115 -470.318)" fill="#38173e"/>
                  </g>
                </g>
                <path id="Path_171825" data-name="Path 171825" d="M2605.422,552.525,2593.7,576.451a1.136,1.136,0,0,1-1.4.548l-3.569-1.386-.328-.124-20.568-7.962a122.437,122.437,0,0,1,7.691-24.742l25.31-1.755A95.882,95.882,0,0,1,2605.422,552.525Z" transform="translate(-2500.398 -463.238)" fill="#204470"/>
                <g id="Group_111967" data-name="Group 111967" transform="translate(69.755 27.504)">
                  <path id="Path_171826" data-name="Path 171826" d="M2575.631,540.564s2.632-11.7,1.023-15.059l-4.869-10.175a16,16,0,0,1-.95-11.109,15.241,15.241,0,0,1,1.507-3.592l4.4-7.553a9.107,9.107,0,0,1,5.054-4.177,7.938,7.938,0,0,1,2.462-.377l1.969.015a7.932,7.932,0,0,1,3.134.676,8.323,8.323,0,0,1,1.379.75,15.888,15.888,0,0,1,4.447,4.6,15.454,15.454,0,0,1,1.741,6.565,33.353,33.353,0,0,1-.584,9.572,37.979,37.979,0,0,0-.284,12.344,47.611,47.611,0,0,0,2.147,9.625,33.713,33.713,0,0,0,2,4.624c.274.521.937,1.178.624,1.757-.29.536-1.692.745-2.235.875s-.863.24-1.415.335a94.976,94.976,0,0,1-16.481,1.439c-.731,0-1.459-.058-2.187-.118s-2.027-.068-2.594-.593C2575.778,540.869,2575.629,540.772,2575.631,540.564Z" transform="translate(-2570.255 -488.522)" fill="#f6bf28"/>
                </g>
                <g id="Group_111968" data-name="Group 111968" transform="translate(77.1 29.127)">
                  <path id="Path_171827" data-name="Path 171827" d="M2585.517,495.539a17.67,17.67,0,0,1-2.71,2.6c-.815.579-2.966,1.882-3.928,1.023-.143-.127-.355.081-.213.21.775.692,2.19.145,3.009-.229a13.188,13.188,0,0,0,4.051-3.387C2585.855,495.61,2585.647,495.4,2585.517,495.539Z" transform="translate(-2577.953 -490.44)" fill="#38173e"/>
                  <path id="Path_171828" data-name="Path 171828" d="M2579.538,492.6a13.115,13.115,0,0,0-1.614,5.476.15.15,0,0,0,.3,0,12.706,12.706,0,0,1,1.572-5.326C2579.876,492.582,2579.619,492.427,2579.538,492.6Z" transform="translate(-2577.924 -490.314)" fill="#38173e"/>
                  <path id="Path_171829" data-name="Path 171829" d="M2589.839,490.324a.149.149,0,0,0-.288.078,2.979,2.979,0,0,1-1.092,2.7c-.128.143.08.356.21.213C2589.437,492.455,2590.131,491.532,2589.839,490.324Z" transform="translate(-2578.368 -490.217)" fill="#38173e"/>
                </g>
                <path id="Path_171830" data-name="Path 171830" d="M2581.675,516.237a6.364,6.364,0,0,1-3.989-.8c-.879-.488-2.723-1.564-2.727-2.727a.215.215,0,0,0-.43,0c0,1.33,1.72,2.385,2.747,2.987a6.923,6.923,0,0,0,4.51.96C2582.059,516.616,2581.946,516.2,2581.675,516.237Z" transform="translate(-2500.68 -462.032)" fill="#38173e"/>
                <g id="Group_111969" data-name="Group 111969" transform="translate(40.438 31.194)">
                  <path id="Path_171831" data-name="Path 171831" d="M2565.764,533.722l-6.755-3.679-4.565,3.692c-.918.685-1.835,1.407-2.73,2.177l-.873-.2a9.39,9.39,0,0,0-4.046-.051l-3.146.62c-.549.173-.639.873.055.973l2.5-.188-1.778.857a24.354,24.354,0,0,0-2.867,1.667l-1.432.985a.519.519,0,0,0,.537.861l4.045-2.1-2.39,1.48-2.467,1.715c-.513.458.055,1.106.474.85l2.185-1.349,2.8-1.45-1.793,1.588a6.011,6.011,0,0,0-1.029,1.18l-.978,1.5c-.173.836.264.857.832.67l.918-1.278a4.922,4.922,0,0,1,1.25-1.23l1.924-1.334-2.41,3.741a.509.509,0,0,0,.922.43,21.981,21.981,0,0,1,2.721-3.476,9.769,9.769,0,0,0,5.178-2.052l2.052-1.6Z" transform="translate(-2539.644 -493.968)" fill="#ffaeab"/>
                  <path id="Path_171832" data-name="Path 171832" d="M2583.244,498.7l-7.62,15.357-21.944,19.427.848,5.159,17.4-9.416a45.233,45.233,0,0,0,16-14.621l5.682-8.475a11.8,11.8,0,0,0,1.6-10.01c-1.324-4.217-4.054-5.1-8.678-1.484A11.826,11.826,0,0,0,2583.244,498.7Z" transform="translate(-2540.238 -492.375)" fill="#f6bf28"/>
                </g>
                <g id="Group_111971" data-name="Group 111971" transform="translate(0 54.696)">
                  <path id="Path_171833" data-name="Path 171833" d="M2542.743,543.924l-38.85-.287a1.808,1.808,0,0,1-1.758-1.449l-4.677-23.108a1.807,1.807,0,0,1,1.785-2.165l38.85.287a1.807,1.807,0,0,1,1.759,1.448l4.677,23.109A1.807,1.807,0,0,1,2542.743,543.924Z" transform="translate(-2497.421 -516.914)" fill="#cce0e6"/>
                  <path id="Path_171834" data-name="Path 171834" d="M2517.6,531.466a3.489,3.489,0,1,0,3.5-3.161A3.341,3.341,0,0,0,2517.6,531.466Z" transform="translate(-2498.274 -517.395)" fill="#9ddee8"/>
                  <rect id="Rectangle_36833" data-name="Rectangle 36833" width="36.744" height="2.321" transform="translate(9.067 26.742) rotate(0.424)" fill="#9ddee8"/>
                  <rect id="Rectangle_36834" data-name="Rectangle 36834" width="19.145" height="2.321" transform="translate(45.809 27.014) rotate(0.424)" fill="#cce0e6"/>
                  <g id="Group_111970" data-name="Group 111970" transform="translate(19.62 1.545)">
                    <path id="Path_171835" data-name="Path 171835" d="M2537.619,518.609q-9.788-.187-19.575.049a.149.149,0,0,0,.012.3q9.788-.236,19.575-.049C2537.824,518.911,2537.811,518.613,2537.619,518.609Z" transform="translate(-2517.906 -518.527)" fill="#38173e"/>
                    <path id="Path_171836" data-name="Path 171836" d="M2540.245,519.117c-.034-.188-.317-.1-.283.092q2.133,11.8,4.126,23.63c.031.187.329.177.3-.012Q2542.387,530.961,2540.245,519.117Z" transform="translate(-2518.839 -518.547)" fill="#38173e"/>
                    <path id="Path_171837" data-name="Path 171837" d="M2520.841,528.142c-.187.044-.094.328.091.284,4.364-1.031,4.735,6.654.185,6.145-.189-.021-.258.269-.067.291a3.325,3.325,0,0,0,3.717-3.448C2524.677,529.217,2523.01,527.629,2520.841,528.142Z" transform="translate(-2518.026 -518.929)" fill="#38173e"/>
                    <path id="Path_171838" data-name="Path 171838" d="M2563.365,546.805l-16.831-.132c-.192,0-.179.3.012.3l16.831.132C2563.569,547.1,2563.557,546.807,2563.365,546.805Z" transform="translate(-2519.111 -519.717)" fill="#38173e"/>
                  </g>
                </g>
                <path id="Path_171839" data-name="Path 171839" d="M2588.576,490.306c.176.917-3.954,4.462-6.115,6.335a3.582,3.582,0,0,1-1.785.872c-3.789.575.356-4.965-.02-6.968l-.209-1.18-.363-2.005-1.093-3.83,6.177-4.36,1.074-1.468.132.688.506,2.773.968,5.237Z" transform="translate(-2500.869 -460.561)" fill="#ffaeab"/>
                <path id="Path_171840" data-name="Path 171840" d="M2586.881,481.161a10.2,10.2,0,0,1-6.434,8.2l-.363-2.005-1.093-3.83,6.177-4.36,1.074-1.468.132.688Z" transform="translate(-2500.869 -460.561)" fill="#ff9092"/>
                <g id="Group_111982" data-name="Group 111982" transform="translate(69.755 1.602)">
                  <g id="Group_111980" data-name="Group 111980">
                    <g id="Group_111979" data-name="Group 111979">
                      <path id="Path_171841" data-name="Path 171841" d="M2591.279,475.694c.393-1.717-.094-3.973-1.553-4.081a2.531,2.531,0,0,0-1.414.418c-1.112-4.861-4.829-10.252-8.476-10.522-4.771-.352-8.892,1.99-9.567,14.077-.266,4.783,3.07,9.784,7.755,10.538,3.522.565,7.611-3.18,9.528-7.1C2589.106,478.571,2590.78,477.872,2591.279,475.694Z" transform="translate(-2570.255 -461.477)" fill="#ffaeab"/>
                      <g id="Group_111978" data-name="Group 111978" transform="translate(1.242 9.205)">
                        <g id="Group_111973" data-name="Group 111973" transform="translate(3.775 6.712)">
                          <g id="Group_111972" data-name="Group 111972">
                            <path id="Path_171842" data-name="Path 171842" d="M2576.242,481.93a4.058,4.058,0,0,1-.487-.015.291.291,0,1,1,.071-.577c.148.017,3.694.363,4.544-3.019a.3.3,0,0,1,.36-.214.288.288,0,0,1,.217.351A4.625,4.625,0,0,1,2576.242,481.93Z" transform="translate(-2575.493 -478.096)" fill="#38173e"/>
                          </g>
                        </g>
                        <path id="Path_171843" data-name="Path 171843" d="M2580.266,474.636a.873.873,0,1,1-.927-.877A.909.909,0,0,1,2580.266,474.636Z" transform="translate(-2571.846 -471.201)" fill="#38173e"/>
                        <path id="Path_171844" data-name="Path 171844" d="M2574.218,474.894a.873.873,0,1,1-.927-.877A.909.909,0,0,1,2574.218,474.894Z" transform="translate(-2571.591 -471.211)" fill="#38173e"/>
                        <g id="Group_111975" data-name="Group 111975" transform="translate(6.607)">
                          <g id="Group_111974" data-name="Group 111974">
                            <path id="Path_171845" data-name="Path 171845" d="M2581.706,472.8a.3.3,0,0,1-.288-.138,1.883,1.883,0,0,0-2.531-.782.3.3,0,0,1-.4-.118.29.29,0,0,1,.125-.394,2.469,2.469,0,0,1,3.32.992.289.289,0,0,1-.1.4A.312.312,0,0,1,2581.706,472.8Z" transform="translate(-2578.45 -471.088)" fill="#38173e"/>
                          </g>
                        </g>
                        <g id="Group_111977" data-name="Group 111977" transform="translate(0 0.495)">
                          <g id="Group_111976" data-name="Group 111976">
                            <path id="Path_171846" data-name="Path 171846" d="M2574.351,472.131a.253.253,0,0,1-.261.067,1.583,1.583,0,0,0-2.057.866.253.253,0,0,1-.323.141.241.241,0,0,1-.142-.315,2.081,2.081,0,0,1,2.678-1.156.241.241,0,0,1,.158.307A.235.235,0,0,1,2574.351,472.131Z" transform="translate(-2571.551 -471.605)" fill="#38173e"/>
                          </g>
                        </g>
                      </g>
                    </g>
                  </g>
                  <g id="Group_111981" data-name="Group 111981" transform="translate(4.142 14.573)">
                    <path id="Path_171847" data-name="Path 171847" d="M2575.963,479.334a.267.267,0,1,0-.074-.529c-.006,0-.523.062-.7-.191-.08-.117-.194-.5.423-1.521a.263.263,0,0,0-.1-.365.28.28,0,0,0-.375.1c-.578.959-.712,1.642-.407,2.09a1.358,1.358,0,0,0,1.223.419Z" transform="translate(-2574.579 -476.693)" fill="#38173e"/>
                  </g>
                </g>
                <path id="Path_171848" data-name="Path 171848" d="M2589.352,576.422l-.328-.124c-1.226-5.628-4.324-10.621-6.58-15.9-.08-.176.183-.325.256-.148C2585,565.622,2588.139,570.686,2589.352,576.422Z" transform="translate(-2501.014 -464.047)" fill="#38173e"/>
                <path id="Path_171849" data-name="Path 171849" d="M2596.428,541.382a81.645,81.645,0,0,1-16.349.869c-.191-.01-.193.289,0,.3a82.137,82.137,0,0,0,16.428-.878C2596.694,541.64,2596.616,541.353,2596.428,541.382Z" transform="translate(-2500.909 -463.253)" fill="#38173e"/>
                <path id="Path_171850" data-name="Path 171850" d="M2597.507,539.323a40.721,40.721,0,0,1-11.03,1.462.15.15,0,0,0,0,.3,40.914,40.914,0,0,0,11.11-1.473A.149.149,0,0,0,2597.507,539.323Z" transform="translate(-2501.179 -463.165)" fill="#38173e"/>
                <path id="Path_171851" data-name="Path 171851" d="M2555.588,535.394c-.011-.191-.309-.194-.3,0a17.351,17.351,0,0,0,.519,3.407.149.149,0,0,0,.288-.077A16.994,16.994,0,0,1,2555.588,535.394Z" transform="translate(-2499.867 -462.993)" fill="#38173e"/>
                <path id="Path_171852" data-name="Path 171852" d="M2556.513,534.578l-.024,3.156a.15.15,0,0,0,.3,0l.023-3.155A.149.149,0,0,0,2556.513,534.578Z" transform="translate(-2499.918 -462.959)" fill="#38173e"/>
                <path id="Path_171853" data-name="Path 171853" d="M2572.734,503.779a11.775,11.775,0,0,0-1.9,10.345c.052.185.336.094.284-.092a11.449,11.449,0,0,1,1.837-10.051C2573.066,503.827,2572.848,503.624,2572.734,503.779Z" transform="translate(-2500.505 -461.661)" fill="#38173e"/>
                <path id="Path_171854" data-name="Path 171854" d="M2589.716,508.248c-1.748,7.242-7.051,12.916-11.567,18.6-.12.15.119.329.239.179,4.559-5.738,9.859-11.429,11.624-18.74C2590.057,508.1,2589.761,508.063,2589.716,508.248Z" transform="translate(-2500.832 -461.847)" fill="#38173e"/>
                <path id="Path_171855" data-name="Path 171855" d="M2585.318,498.533q-5.125,9.25-10.738,18.217c-.088.142.146.254.233.114q5.614-8.966,10.738-18.217C2585.632,498.5,2585.4,498.387,2585.318,498.533Z" transform="translate(-2500.682 -461.438)" fill="#38173e"/>
                <g id="Group_111983" data-name="Group 111983" transform="translate(68.19)">
                  <path id="Path_171856" data-name="Path 171856" d="M2589.9,465.006l-.033-.07c-1.8-3.721-7.031-5.565-10.915-5.046-7.173.957-10.5,8.393-10.323,14.92.037,1.361.3,2.753.288,4.1a10.333,10.333,0,0,1,2.915-7.047,9.205,9.205,0,0,1,4.093-2.4c1.371-.4,7.712-1.071,7.712-1.071s-.353,1.317-.571,1.824l-.012.027c-.687,1.535.084,3.167.71,4.576.288.652,1.3,3.088.106,3.387C2589.447,476.8,2592.31,470.094,2589.9,465.006Z" transform="translate(-2568.62 -459.804)" fill="#ff6b6e"/>
                  <path id="Path_171857" data-name="Path 171857" d="M2583.853,464.646c-5.363,1.6-11.939,3.391-14.682,8.786a.149.149,0,0,0,.263.14c2.7-5.318,9.225-7.061,14.51-8.642A.149.149,0,0,0,2583.853,464.646Z" transform="translate(-2568.643 -460.008)" fill="#38173e"/>
                  <path id="Path_171858" data-name="Path 171858" d="M2586.671,467.176a11.613,11.613,0,0,0,.014,8.862c.063.18.347.09.284-.092a11.382,11.382,0,0,1-.034-8.63C2587,467.139,2586.742,467,2586.671,467.176Z" transform="translate(-2569.346 -460.112)" fill="#38173e"/>
                  <path id="Path_171859" data-name="Path 171859" d="M2587.942,468.142a18.969,18.969,0,0,1-.542,5.26.149.149,0,0,0,.291.067,19.18,19.18,0,0,0,.549-5.339A.149.149,0,0,0,2587.942,468.142Z" transform="translate(-2569.414 -460.15)" fill="#38173e"/>
                  <path id="Path_171860" data-name="Path 171860" d="M2588.875,464.84c-.049-.186-.333-.095-.283.091.781,2.917,1.484,5.933-.037,8.742a.15.15,0,0,0,.264.14C2590.373,470.94,2589.677,467.835,2588.875,464.84Z" transform="translate(-2569.462 -460.013)" fill="#38173e"/>
                  <path id="Path_171861" data-name="Path 171861" d="M2583.038,466.464a31.284,31.284,0,0,0-4.927,1.541c-.176.071-.087.356.092.283a31.426,31.426,0,0,1,4.927-1.541C2583.317,466.705,2583.225,466.422,2583.038,466.464Z" transform="translate(-2569.017 -460.085)" fill="#38173e"/>
                  <path id="Path_171862" data-name="Path 171862" d="M2582.508,461a11.457,11.457,0,0,0-7.6,2.314c-2.369,1.821-3.328,4.427-4.822,6.91-.1.166.166.3.264.14,1.388-2.308,2.313-4.793,4.448-6.557a11.148,11.148,0,0,1,7.718-2.509C2582.713,461.3,2582.7,461,2582.508,461Z" transform="translate(-2568.682 -459.854)" fill="#38173e"/>
                  <path id="Path_171863" data-name="Path 171863" d="M2586.511,463.786c-3.351-2.409-9.427-.483-11.664,2.683-.111.156.154.294.263.14,2.053-2.9,8.051-4.866,11.2-2.6C2586.463,464.117,2586.667,463.9,2586.511,463.786Z" transform="translate(-2568.882 -459.927)" fill="#38173e"/>
                </g>
              </g>
            </g>
            <g id="Group_111986" data-name="Group 111986" transform="translate(79.405 114.308)">
              <path id="Path_171864" data-name="Path 171864" d="M2580.621,528.343l-.291.239.04-.012C2580.46,528.494,2580.541,528.419,2580.621,528.343Z" transform="translate(-2580.33 -528.343)" fill="url(#linear-gradient)"/>
            </g>
          </g>
        </g>
      </g>
      <g id="Group_112012" data-name="Group 112012" transform="translate(2330.003 404.708)">
        <ellipse id="Ellipse_5519" data-name="Ellipse 5519" cx="48.025" cy="5.966" rx="48.025" ry="5.966" transform="translate(39.333 170.344)" fill="#ccc" style="mix-blend-mode: multiply;isolation: isolate"/>
        <g id="Group_112011" data-name="Group 112011">
          <g id="Group_112007" data-name="Group 112007">
            <g id="Group_111991" data-name="Group 111991">
              <path id="Path_171865" data-name="Path 171865" d="M2456.314,568.9l-62.363,17.916a10.364,10.364,0,0,1-12.454-6.407l-50.942-142.835a8.9,8.9,0,0,1,5.993-11.706l62.363-17.916a10.364,10.364,0,0,1,12.454,6.407L2462.307,557.2A8.9,8.9,0,0,1,2456.314,568.9Z" transform="translate(-2330.003 -406.174)" fill="#28b5bd"/>
              <path id="Path_171866" data-name="Path 171866" d="M2461.394,567.443l-62.363,17.916a10.365,10.365,0,0,1-12.454-6.407l-50.942-142.835a8.9,8.9,0,0,1,5.993-11.706l62.363-17.916a10.364,10.364,0,0,1,12.455,6.407l50.941,142.834A8.9,8.9,0,0,1,2461.394,567.443Z" transform="translate(-2330.218 -406.112)" fill="#c9f6f9"/>
              <path id="Path_171867" data-name="Path 171867" d="M2460.336,548.129l-27.478,7.895-45.38,13.035a1.093,1.093,0,0,1-1.324-.679l-5.815-16.3-10.312-28.905v-.006l-16.54-46.38v-.007l-14.072-39.449a.95.95,0,0,1,.635-1.244l71.459-20.525h.006l1.4-.405a1.1,1.1,0,0,1,1.319.68l13.476,37.783,12.559,35.225,14.531,40.725,6.174,17.321A.938.938,0,0,1,2460.336,548.129Z" transform="translate(-2330.398 -406.493)" fill="#83d1d6"/>
              <g id="Group_111990" data-name="Group 111990" transform="translate(23.088 8.623)">
                <path id="Path_171868" data-name="Path 171868" d="M2428.331,453.619l-57.681,69.546-16.54-46.38v-.007l58.022-61.218h.006l1.4-.405a1.1,1.1,0,0,1,1.319.68Z" transform="translate(-2354.11 -415.116)" fill="#83bdff" style="mix-blend-mode: screen;isolation: isolate"/>
                <path id="Path_171869" data-name="Path 171869" d="M2456.606,532.823l-21.939,26.454-45.38,13.035a1.093,1.093,0,0,1-1.324-.679l-5.815-16.3,59.927-63.232Z" transform="translate(-2355.295 -418.37)" fill="#83bdff" style="mix-blend-mode: screen;isolation: isolate"/>
              </g>
              <path id="Path_171870" data-name="Path 171870" d="M2391.133,415.914l-31.356,9.007a.824.824,0,0,1-.991-.51h0a.709.709,0,0,1,.477-.932l31.356-9.008a.826.826,0,0,1,.991.51h0A.709.709,0,0,1,2391.133,415.914Z" transform="translate(-2331.218 -406.464)" fill="#f8f9ff"/>
              <ellipse id="Ellipse_5520" data-name="Ellipse 5520" cx="6.387" cy="6.803" rx="6.387" ry="6.803" transform="translate(87.467 162.936) rotate(-65.077)" fill="#83d1d6"/>
            </g>
            <path id="Path_171871" data-name="Path 171871" d="M2403.9,534.021l26.557-1.219s9.292,13.965,10.548,26.424l-40.785,11.8S2396.547,549.182,2403.9,534.021Z" transform="translate(-2332.932 -411.468)" fill="#12263f"/>
            <path id="Path_171872" data-name="Path 171872" d="M2423.4,541.474c-.036-.188-.32-.095-.284.092a36.838,36.838,0,0,1,.7,7.519,15.859,15.859,0,0,1-.257,3.753q.176,1.549-1.61,1.723-.761.047-1.525.06a.149.149,0,0,0,.013.3c.745-.02,1.319-.03,1.766-.078,0,.007-.007.009-.007.016a59.586,59.586,0,0,1-.64,10.233c-.029.189.262.257.29.067a60,60,0,0,0,.647-10.313c0-.019-.013-.027-.019-.042,1.088-.189,1.278-.768,1.479-2.843A36.75,36.75,0,0,0,2423.4,541.474Z" transform="translate(-2333.819 -411.83)" fill="#98f2f9"/>
            <path id="Path_171873" data-name="Path 171873" d="M2429.37,537.092q-.19-.886-.379-1.772c-.04-.188-.325-.1-.284.091q.19.886.379,1.772a.122.122,0,0,0,.064.087.13.13,0,0,0-.1.015c-.142.087-.289.162-.433.243l-.549-1.718a.149.149,0,0,0-.284.091l.567,1.777c-4.93,2.646-11.265,2.035-16.915,1.146a8.475,8.475,0,0,1,.075-1.988c.03-.19-.26-.258-.291-.068a8.908,8.908,0,0,0-.086,2.007c-.206-.033-.415-.065-.619-.1.007-.016.021-.027.021-.048a7.747,7.747,0,0,1,.22-1.774.149.149,0,0,0-.29-.067,8.071,8.071,0,0,0-.228,1.844c-.858-.142-1.7-.284-2.508-.417-.189-.032-.257.26-.067.29,1.122.184,2.294.385,3.495.576,0,.024,0,.048.006.072.021.191.319.179.3-.012v-.011c5.689.893,12.013,1.488,17-1.17a.144.144,0,0,0,.255-.125l-.006-.016c.168-.094.338-.181.5-.283a.146.146,0,0,0-.034-.261A.158.158,0,0,0,2429.37,537.092Z" transform="translate(-2333.281 -411.57)" fill="#12263f"/>
            <path id="Path_171874" data-name="Path 171874" d="M2422.147,536.948a.8.8,0,0,0-.942.251c-.329.478.185.958.637,1.054a.843.843,0,0,0,1.071-.714A.6.6,0,0,0,2422.147,536.948Zm.37.835a.679.679,0,0,1-.839.1c-.313-.17-.374-.566.024-.677a.644.644,0,0,1,.33.01.145.145,0,0,0,.107.029,3.408,3.408,0,0,1,.336.147.131.131,0,0,0,.093,0A.429.429,0,0,1,2422.517,537.783Z" transform="translate(-2333.854 -411.641)" fill="#12263f"/>
            <g id="Group_112006" data-name="Group 112006" transform="translate(70.965 40.086)">
              <g id="Group_111995" data-name="Group 111995" transform="translate(25.441 17.813)">
                <path id="Path_171875" data-name="Path 171875" d="M2431.5,486.273h0a5.18,5.18,0,0,0,.467,6.265l16.27,18.328a4.07,4.07,0,0,0,6.4-.393l11.774-17.091-5.114-1.9-8.982,9.777-12.44-15.413A5.18,5.18,0,0,0,2431.5,486.273Z" transform="translate(-2430.664 -467.3)" fill="#12263f"/>
                <g id="Group_111994" data-name="Group 111994" transform="translate(27.365)">
                  <path id="Path_171876" data-name="Path 171876" d="M2465.844,494.287c0-.069-.01-.138-.015-.208,0-.121-.006-.241-.006-.362a.521.521,0,0,0,.065-.215,37.032,37.032,0,0,0-.341-8.946,6.944,6.944,0,0,0-.43-2.413.488.488,0,0,0-.413-.268,4.354,4.354,0,0,0-1.026.132.488.488,0,0,0-.308.223.384.384,0,0,0-.219.286c-.586,2.889-3.676,11.264-.631,13.9a1.742,1.742,0,0,0,1.5.678C2465.509,497.051,2465.881,495.549,2465.844,494.287Z" transform="translate(-2459.319 -467.214)" fill="#f6bf28"/>
                  <path id="Path_171877" data-name="Path 171877" d="M2464.824,485.5c.03-.19-.269-.2-.3-.016a48.324,48.324,0,0,0-.556,9.283c.007.192.305.21.3.017A48.412,48.412,0,0,1,2464.824,485.5Z" transform="translate(-2459.435 -467.361)" fill="#12263f"/>
                  <path id="Path_171878" data-name="Path 171878" d="M2465.736,493.466l1.638.339,2.324-3.364s1.546-2.223-1.189-4.244a6.864,6.864,0,0,0-5.669-1.062l-1.551.37s-1.2,1.485,3.517,1.313c0,0-3.619-.349-3.8,1.1,0,0-.67,1.564,4.829.417,0,0-4.47.089-4.906,1.811,0,0-.136,1.545,5.192,0C2465.981,490.135,2465.959,490.761,2465.736,493.466Z" transform="translate(-2459.308 -467.343)" fill="#ffaeab"/>
                  <g id="Group_111993" data-name="Group 111993">
                    <path id="Path_171879" data-name="Path 171879" d="M2465.157,475.756c.335-.009,21.183-8.975,21.183-8.975l-1.393,24.8-20.041-8.3C2461.74,483.343,2461.755,475.846,2465.157,475.756Z" transform="translate(-2459.377 -466.576)" fill="#fae3b6"/>
                    <path id="Path_171880" data-name="Path 171880" d="M2490.015,479.254c-.389,6.914-2.122,12.436-3.873,12.337-1.387-.078-2.375-3.672-2.522-8.609-.044-1.284-.026-2.657.054-4.085a45.3,45.3,0,0,1,.573-5.155c.74-4.3,2.013-7.246,3.3-7.174C2489.3,466.667,2490.4,472.349,2490.015,479.254Z" transform="translate(-2460.266 -466.567)" fill="#f6bf28"/>
                    <path id="Path_171881" data-name="Path 171881" d="M2487.39,478.865a4.542,4.542,0,0,1-3.771,4.434c-.044-1.284-.026-2.657.054-4.085a45.3,45.3,0,0,1,.573-5.155A4.571,4.571,0,0,1,2487.39,478.865Z" transform="translate(-2460.266 -466.883)" fill="#fae3b6"/>
                    <path id="Path_171882" data-name="Path 171882" d="M2465.052,483.908l-2.067-.116a3.971,3.971,0,0,1-3.743-4.188h0a3.971,3.971,0,0,1,4.188-3.743l2.067.116C2462.9,478.63,2462.959,481.273,2465.052,483.908Z" transform="translate(-2459.236 -466.959)" fill="#f6bf28"/>
                    <g id="Group_111992" data-name="Group 111992" transform="translate(3.918 1.801)">
                      <path id="Path_171883" data-name="Path 171883" d="M2482.021,469.6q-7.69,3.168-15.337,6.44c-.176.076-.04.342.137.266q7.646-3.273,15.336-6.44C2482.335,469.8,2482.2,469.532,2482.021,469.6Z" transform="translate(-2463.466 -468.495)" fill="#12263f"/>
                      <path id="Path_171884" data-name="Path 171884" d="M2484.99,489.838c-2.383-6.8-1.323-14.393.719-21.117.057-.184-.228-.281-.283-.1-2.063,6.792-3.135,14.411-.728,21.276C2484.76,490.082,2485.055,490.02,2484.99,489.838Z" transform="translate(-2464.173 -468.45)" fill="#12263f"/>
                      <path id="Path_171885" data-name="Path 171885" d="M2487.845,468.529c-.075-.177-.341-.04-.266.137a10.228,10.228,0,0,1,.807,4.4.15.15,0,0,0,.3.017A10.609,10.609,0,0,0,2487.845,468.529Z" transform="translate(-2464.352 -468.447)" fill="#12263f"/>
                      <path id="Path_171886" data-name="Path 171886" d="M2489.085,470.645a.15.15,0,0,0-.293.063,20.629,20.629,0,0,1,.347,5.617.15.15,0,0,0,.3.016A20.906,20.906,0,0,0,2489.085,470.645Z" transform="translate(-2464.404 -468.535)" fill="#12263f"/>
                      <path id="Path_171887" data-name="Path 171887" d="M2485.586,476.237c-.134-.138-.358.061-.223.2.991,1.017.846,3.445.1,4.53a.15.15,0,0,0,.25.166C2486.551,479.911,2486.681,477.359,2485.586,476.237Z" transform="translate(-2464.257 -468.774)" fill="#12263f"/>
                      <path id="Path_171888" data-name="Path 171888" d="M2465.406,483.964a4.813,4.813,0,0,1-.581-6.917c.124-.148-.127-.312-.249-.165a5.107,5.107,0,0,0,.665,7.33C2465.388,484.337,2465.552,484.086,2465.406,483.964Z" transform="translate(-2463.328 -468.801)" fill="#12263f"/>
                    </g>
                  </g>
                  <path id="Path_171889" data-name="Path 171889" d="M2466.848,486.146a17.436,17.436,0,0,0-3.79.54.15.15,0,0,0,.063.292,17.112,17.112,0,0,1,3.71-.533C2467.023,486.445,2467.041,486.146,2466.848,486.146Z" transform="translate(-2459.393 -467.394)" fill="#12263f"/>
                  <path id="Path_171890" data-name="Path 171890" d="M2466.511,487.9a28.321,28.321,0,0,0-3.64.791c-.184.054-.123.347.063.293a28.467,28.467,0,0,1,3.64-.792C2466.765,488.159,2466.7,487.867,2466.511,487.9Z" transform="translate(-2459.385 -467.468)" fill="#12263f"/>
                  <path id="Path_171891" data-name="Path 171891" d="M2468.8,489.018a20.255,20.255,0,0,1-2.541,1.143c-.012,0-.012.014-.021.021-.089-.034-.2,0-.193.115q.025.532.05,1.063l-.041.88c-.007.164.247.224.292.056l.064-.245.006-.006a13.447,13.447,0,0,0,.636-1.69.144.144,0,0,0-.068-.169,20.322,20.322,0,0,0,1.953-.9A.15.15,0,0,0,2468.8,489.018Z" transform="translate(-2459.524 -467.515)" fill="#12263f"/>
                </g>
              </g>
              <path id="Path_171892" data-name="Path 171892" d="M2439.684,486.5l-1.436,7.873a71.866,71.866,0,0,1-4.764,15.7l-3.555,8.2.077,17.417c-10.514,5.858-25.907-3.953-25.907-3.953l2.629-35.082c.974-12.507,6-16.46,9.626-17.452a17.5,17.5,0,0,1,6.069-.558l.532.05a16.624,16.624,0,0,1,2.246.4l4.705,1.158a17.3,17.3,0,0,1,4.436,1.779c.016.007.041.022.058.03.262.149.517.3.773.464A20.058,20.058,0,0,1,2439.684,486.5Z" transform="translate(-2404.1 -449.262)" fill="#e86038"/>
              <path id="Path_171893" data-name="Path 171893" d="M2435.175,482.034c.243,6.018-1.179,10.944-3.631,11.752-2.957.973-6.287-4.444-7.438-12.085-.147-1.02-.261-2.026-.318-3.009a16.624,16.624,0,0,1,2.246.4l4.705,1.158A17.3,17.3,0,0,1,2435.175,482.034Z" transform="translate(-2404.932 -449.267)" fill="#12263f"/>
              <g id="Group_111996" data-name="Group 111996" transform="translate(4.862 30.157)">
                <path id="Path_171894" data-name="Path 171894" d="M2423.5,528.467l7.678-.451,2.558,5.286c.54,1.01,1.061,2.054,1.543,3.132l.874.193a9.414,9.414,0,0,1,3.683,1.677l2.582,1.9c.423.39.206,1.062-.464.856l-2.179-1.234,1.244,1.533a24.65,24.65,0,0,1,1.883,2.73l.876,1.5a.519.519,0,0,1-.853.55l-2.765-3.624,1.532,2.356,1.5,2.6c.27.633-.519.977-.791.568l-1.4-2.152-1.915-2.5.945,2.2a6.073,6.073,0,0,1,.428,1.507l.245,1.773c-.2.831-.6.663-1.038.253l-.287-1.547a4.884,4.884,0,0,0-.607-1.645L2437.6,543.9l.588,4.411a.51.51,0,0,1-1.018,0,21.913,21.913,0,0,0-.981-4.3,9.778,9.778,0,0,1-3.811-4.064l-1.174-2.323Z" transform="translate(-2409.783 -481.509)" fill="#ffaeab"/>
                <path id="Path_171895" data-name="Path 171895" d="M2421.861,488.974l.352,17.14,11.579,26.924-2.965,4.307-11.732-15.931a45.222,45.222,0,0,1-8.244-20.041l-1.531-10.089a11.8,11.8,0,0,1,2.815-9.739c2.994-3.25,5.838-2.885,8.483,2.354A11.818,11.818,0,0,1,2421.861,488.974Z" transform="translate(-2409.177 -479.456)" fill="#12263f"/>
              </g>
              <path id="Path_171896" data-name="Path 171896" d="M2434.843,476.158l-2.7,4.173-.56.872c-.079.128-3.193,4.236-5.118.84-1-1.762-1.61-3.247-1.459-3.492l3.548-5.982,2.31-3.887Z" transform="translate(-2404.983 -448.843)" fill="#ffaeab"/>
              <path id="Path_171897" data-name="Path 171897" d="M2435,476.158l-2.7,4.173a10.566,10.566,0,0,1-3.585-7.643l0-.12,2.31-3.887Z" transform="translate(-2405.141 -448.843)" fill="#ff9092"/>
              <path id="Path_171898" data-name="Path 171898" d="M2438.99,474.79a7.417,7.417,0,0,1-2.842,1.507c-3.282.912-7.357-2.441-9.4-6.186-1.483-.3-3.108-.835-3.7-2.975-.467-1.68-.145-3.987,1.225-4.237a2.2,2.2,0,0,1,1.355.281c.763-4.98,3.944-10.75,7.364-11.37,4.479-.822,8.5,1.121,9.846,13.173A11.527,11.527,0,0,1,2438.99,474.79Z" transform="translate(-2404.893 -448.123)" fill="#ffaeab"/>
              <g id="Group_111997" data-name="Group 111997" transform="translate(31.666 16.695)">
                <path id="Path_171899" data-name="Path 171899" d="M2437.316,471.462a1.865,1.865,0,0,0,1.3.272,1.151,1.151,0,0,0,.574-.318,1.185,1.185,0,0,0,.33-.672,2.772,2.772,0,0,0-.4-1.752l-1.463-3.438a.247.247,0,0,0-.337-.13.266.266,0,0,0-.133.346l1.467,3.464a2.062,2.062,0,0,1,.324,1.544.6.6,0,0,1-.151.269.974.974,0,0,1-1.152.006.528.528,0,0,1-.06-.032.279.279,0,0,0-.369.091.081.081,0,0,0-.015.035A.246.246,0,0,0,2437.316,471.462Z" transform="translate(-2437.164 -465.4)" fill="#12263f"/>
              </g>
              <g id="Group_112002" data-name="Group 112002" transform="translate(26.976 13.311)">
                <g id="Group_111999" data-name="Group 111999" transform="translate(0.882 2.593)">
                  <path id="Path_171900" data-name="Path 171900" d="M2441.266,465.359a.867.867,0,1,1-1.024-.772A.908.908,0,0,1,2441.266,465.359Z" transform="translate(-2433.458 -464.573)" fill="#12263f"/>
                  <path id="Path_171901" data-name="Path 171901" d="M2435.111,465.807a.867.867,0,1,1-1.024-.772A.908.908,0,0,1,2435.111,465.807Z" transform="translate(-2433.197 -464.592)" fill="#12263f"/>
                  <g id="Group_111998" data-name="Group 111998" transform="translate(0 5.206)">
                    <path id="Path_171902" data-name="Path 171902" d="M2436.887,472.345a29.194,29.194,0,0,0-3.4-2.336.359.359,0,0,0-.3.413,2.968,2.968,0,0,0,3.421,2.465.361.361,0,0,0,.321-.4A.345.345,0,0,0,2436.887,472.345Z" transform="translate(-2433.188 -470.009)" fill="#fff"/>
                  </g>
                </g>
                <g id="Group_112000" data-name="Group 112000" transform="translate(6.211)">
                  <path id="Path_171903" data-name="Path 171903" d="M2438.831,462.5a.242.242,0,0,0,.264.046,1.532,1.532,0,0,1,2.107.706.245.245,0,0,0,.33.117.259.259,0,0,0,.119-.34,2.009,2.009,0,0,0-2.745-.95.258.258,0,0,0-.135.333A.221.221,0,0,0,2438.831,462.5Z" transform="translate(-2438.752 -461.866)" fill="#12263f"/>
                </g>
                <g id="Group_112001" data-name="Group 112001" transform="translate(0 0.553)">
                  <path id="Path_171904" data-name="Path 171904" d="M2435.05,463a.242.242,0,0,1-.26.067,1.532,1.532,0,0,0-2.041.879.245.245,0,0,1-.32.144.258.258,0,0,1-.147-.329,2.009,2.009,0,0,1,2.656-1.175.258.258,0,0,1,.163.321A.249.249,0,0,1,2435.05,463Z" transform="translate(-2432.267 -462.443)" fill="#12263f"/>
                </g>
              </g>
              <path id="Path_171905" data-name="Path 171905" d="M2421.038,536.625a19.946,19.946,0,0,1-13.953-4.123c-.2-.155-.476.138-.271.295a20.39,20.39,0,0,0,14.24,4.228C2421.311,537.005,2421.3,536.6,2421.038,536.625Z" transform="translate(-2404.212 -451.54)" fill="#12263f"/>
              <path id="Path_171906" data-name="Path 171906" d="M2422.363,534.9c-3.23.14-8,.659-10.7-1.433-.2-.157-.475.137-.271.295,2.8,2.172,7.671,1.682,10.992,1.538A.2.2,0,0,0,2422.363,534.9Z" transform="translate(-2404.405 -451.58)" fill="#12263f"/>
              <path id="Path_171907" data-name="Path 171907" d="M2430.992,501.264a32.334,32.334,0,0,0-3.183,12.816c-.01.258.39.239.4-.017a31.716,31.716,0,0,1,3.136-12.611C2431.457,501.219,2431.1,501.032,2430.992,501.264Z" transform="translate(-2405.102 -450.216)" fill="#12263f"/>
              <path id="Path_171908" data-name="Path 171908" d="M2436,483.738a23.406,23.406,0,0,1-.973,6.5,7.822,7.822,0,0,1-1.735,3.166c-3.053,2.821-5.291.877-6.965-1.313a21.452,21.452,0,0,1-3.931-12.486c0-.258-.395-.24-.4.016-.085,4.6,2.125,14.1,7.471,15.567,5.751,1.575,6.752-7.964,6.933-11.465C2436.411,483.463,2436.01,483.483,2436,483.738Z" transform="translate(-2404.856 -449.297)" fill="#12263f"/>
              <g id="Group_112004" data-name="Group 112004" transform="translate(16.643 66.902)">
                <path id="Path_171909" data-name="Path 171909" d="M2441.8,548.371l38.692-3.523a1.808,1.808,0,0,0,1.631-1.59l2.737-23.418a1.807,1.807,0,0,0-1.959-2.009l-38.692,3.522a1.808,1.808,0,0,0-1.631,1.591l-2.736,23.417A1.807,1.807,0,0,0,2441.8,548.371Z" transform="translate(-2422.253 -517.823)" fill="#e6e6e6"/>
                <path id="Path_171910" data-name="Path 171910" d="M2467.512,533.866a3.49,3.49,0,1,1-3.751-2.858A3.342,3.342,0,0,1,2467.512,533.866Z" transform="translate(-2423.13 -518.38)" fill="#83d1d6"/>
                <rect id="Rectangle_36835" data-name="Rectangle 36835" width="36.744" height="2.321" transform="matrix(-0.996, 0.091, -0.091, -0.996, 55.869, 29.571)" fill="gray"/>
                <rect id="Rectangle_36836" data-name="Rectangle 36836" width="19.145" height="2.321" transform="translate(19.277 32.903) rotate(174.798)" fill="#e6e6e6"/>
                <g id="Group_112003" data-name="Group 112003" transform="translate(1.063 3.172)">
                  <path id="Path_171911" data-name="Path 171911" d="M2445.911,522.717q9.739-1,19.511-1.582a.15.15,0,0,1,.012.3q-9.773.58-19.511,1.581C2445.732,523.035,2445.72,522.736,2445.911,522.717Z" transform="translate(-2423.568 -521.135)" fill="#12263f"/>
                  <path id="Path_171912" data-name="Path 171912" d="M2444.1,523.437c.018-.191.309-.122.291.067q-1.143,11.939-2.144,23.892c-.015.189-.314.2-.3.012Q2442.954,535.416,2444.1,523.437Z" transform="translate(-2423.406 -521.227)" fill="#12263f"/>
                  <path id="Path_171913" data-name="Path 171913" d="M2464.132,530.815c.189.029.122.319-.067.291-4.434-.664-4.164,7.026.328,6.139.187-.036.28.247.092.284a3.325,3.325,0,0,1-3.992-3.126C2460.4,532.208,2461.929,530.486,2464.132,530.815Z" transform="translate(-2424.189 -521.542)" fill="#12263f"/>
                  <path id="Path_171914" data-name="Path 171914" d="M2422.724,552.954l16.762-1.534c.19-.017.2.281.013.3l-16.762,1.534C2422.546,553.269,2422.533,552.971,2422.724,552.954Z" transform="translate(-2422.587 -522.415)" fill="#12263f"/>
                </g>
              </g>
              <g id="Group_112005" data-name="Group 112005" transform="translate(16.645)">
                <path id="Path_171915" data-name="Path 171915" d="M2447.869,454.375a3.741,3.741,0,0,1-2.4.065c-1.121-.365-1.594-1.316-2.247-2.256-1.138-1.638-2.746-3.561-4.835-3.568a5.914,5.914,0,0,0-2.819.677c-.72.365-.577.083-1.135-.437a3.348,3.348,0,0,0-1.459-.767,5.193,5.193,0,0,0-5.027,1.73c-1.06,1.078-1.742,2.513-2.771,3.645a6.427,6.427,0,0,1-3.691,2,8.041,8.041,0,0,0,3.6.85,7.006,7.006,0,0,0-.319,2.005c-.031,1.892.071,3.867-1.742,4.8.994-.067,1.837-.4,2.553-.1a10.25,10.25,0,0,0,.668,2.522c.305,1.055.991,2.773,2.041,3.271.2-2.161-1.09-4.353.511-6.266,1.326-1.587,4.159-2.28,4.721-4.5-.126,1.428-.1,2.521-1.014,3.709,2.282.11,5.227-1.908,6.289-3.941-.3,1.487.437,2.214,1.4,3.153a5.416,5.416,0,0,1,1.859,3.387,3.522,3.522,0,0,0,.553-2.2c.216.6.439,1.18.586,1.733a8.972,8.972,0,0,1,.067,4.112c1.188-2.376,2.354-4.851,2.349-7.6a9.9,9.9,0,0,0-1.506-4.913C2445.476,456.391,2446.924,455.616,2447.869,454.375Z" transform="translate(-2421.48 -447.968)" fill="#f6bf28"/>
                <path id="Path_171916" data-name="Path 171916" d="M2438.314,456.488a7.093,7.093,0,0,1-4.082,4.564c-.172.085-.01.336.161.252a7.358,7.358,0,0,0,4.211-4.748A.149.149,0,0,0,2438.314,456.488Z" transform="translate(-2422.016 -448.323)" fill="#12263f"/>
                <path id="Path_171917" data-name="Path 171917" d="M2442.947,461.333c-1.632-1.313-2.887-2.782-2.425-5.019a.15.15,0,0,0-.291-.067c-.481,2.335.787,3.916,2.514,5.307C2442.894,461.673,2443.1,461.453,2442.947,461.333Z" transform="translate(-2422.268 -448.313)" fill="#12263f"/>
                <path id="Path_171918" data-name="Path 171918" d="M2443.4,455.185c-.14-.132-.342.088-.2.219,2.786,2.628,2.807,6.406,1.349,9.734-.077.175.186.316.263.14C2446.329,461.821,2446.284,457.9,2443.4,455.185Z" transform="translate(-2422.396 -448.271)" fill="#12263f"/>
                <path id="Path_171919" data-name="Path 171919" d="M2444.588,454.538c-2.08-.929-2.009-3.782-4.154-4.686a3.578,3.578,0,0,0-4.1,1.03.149.149,0,0,0,.219.2,3.247,3.247,0,0,1,3.747-.929,4.639,4.639,0,0,1,2.143,2.436,4.273,4.273,0,0,0,2.006,2.212C2444.623,454.88,2444.764,454.617,2444.588,454.538Z" transform="translate(-2422.106 -448.036)" fill="#12263f"/>
                <path id="Path_171920" data-name="Path 171920" d="M2433.895,450.438a3.724,3.724,0,0,0-4.092-.841c-2.282,1.009-2.573,4.031-5.018,4.883-.181.063-.091.348.091.284a5.179,5.179,0,0,0,2.567-2.182,8.279,8.279,0,0,1,2.067-2.491,3.418,3.418,0,0,1,4.183.565C2433.831,450.79,2434.033,450.57,2433.895,450.438Z" transform="translate(-2421.615 -448.024)" fill="#12263f"/>
                <path id="Path_171921" data-name="Path 171921" d="M2429.293,453.305a5.408,5.408,0,0,0-2.511,2.964c-.7,1.821-.33,5.121-2.146,6.262a.149.149,0,0,0,.161.251c1.164-.731,1.339-1.959,1.551-3.234.385-2.324.84-4.784,3.107-5.992C2429.624,453.466,2429.462,453.215,2429.293,453.305Z" transform="translate(-2421.611 -448.193)" fill="#12263f"/>
                <path id="Path_171922" data-name="Path 171922" d="M2434.657,454.608a10.449,10.449,0,0,1-3.83,5.777,12.371,12.371,0,0,0-2.618,2.05c-1.209,1.558-.85,3.538-.478,5.336.038.188.322.1.283-.091-.456-2.212-.557-4.11,1.19-5.774.826-.786,1.895-1.28,2.737-2.058a10.63,10.63,0,0,0,3.006-5.173C2435,454.489,2434.707,454.423,2434.657,454.608Z" transform="translate(-2421.729 -448.244)" fill="#12263f"/>
                <path id="Path_171923" data-name="Path 171923" d="M2434.558,452.245c-3.683.139-5.062,3.861-5.927,6.868-.053.185.238.251.291.067.824-2.866,2.1-6.5,5.649-6.637A.149.149,0,0,0,2434.558,452.245Z" transform="translate(-2421.782 -448.149)" fill="#12263f"/>
                <path id="Path_171924" data-name="Path 171924" d="M2438.946,452.444a1.282,1.282,0,0,0-1.8-.007c-.131.14.089.342.219.2.579-.621,1.408-.095,1.742.5a5.923,5.923,0,0,1,.578,2.014c.029.188.327.177.3-.012A4.513,4.513,0,0,0,2438.946,452.444Z" transform="translate(-2422.141 -448.141)" fill="#12263f"/>
              </g>
            </g>
          </g>
          <g id="Group_112010" data-name="Group 112010" transform="translate(42.747 32.327)">
            <g id="Group_112009" data-name="Group 112009">
              <g id="Group_112008" data-name="Group 112008">
                <path id="Path_171925" data-name="Path 171925" d="M2395.052,449.054a1.776,1.776,0,0,0,1.235-2.348,1.8,1.8,0,0,0-2.12-1.085l-6.444,1.573a11.373,11.373,0,0,0-.511-4.429c-.66-2.02-1.619-3-2.891-2.889a1.219,1.219,0,0,0-1.053,1.512,13.134,13.134,0,0,1,.014,6.14l-.613,2.577a4.116,4.116,0,0,1-1.541,2.346l2.066,8.468h0a14.106,14.106,0,0,0,4.717-.318l6.98-1.677a1.777,1.777,0,0,0,1.3-2.142h0a1.767,1.767,0,0,1,.51-3.172,1.766,1.766,0,0,0-.828-1.108l.021,0a1.776,1.776,0,0,0,1.3-2.141h0A1.776,1.776,0,0,0,2395.052,449.054Z" transform="translate(-2374.911 -439.866)" fill="#fff"/>
                <rect id="Rectangle_36837" data-name="Rectangle 36837" width="6.449" height="11.239" rx="2.423" transform="matrix(0.972, -0.237, 0.237, 0.972, 0, 12.661)" fill="#f6bf28"/>
              </g>
            </g>
            <path id="Path_171926" data-name="Path 171926" d="M2380.435,452.323a6.135,6.135,0,0,0-2.415.617c-.449.215-.023.866.423.652a5.059,5.059,0,0,1,1.582-.453q.613,2.425,1.228,4.85c.124.485.864.249.741-.235l-1.227-4.843A.384.384,0,0,0,2380.435,452.323Z" transform="translate(-2374.771 -440.393)" fill="#12263f"/>
            <path id="Path_171927" data-name="Path 171927" d="M2385.382,440.572c-.364-.344-.886.232-.522.577,1.95,1.843,2.212,4.556,1.822,7.08-.076.492.682.667.759.171C2387.876,445.587,2387.543,442.615,2385.382,440.572Z" transform="translate(-2375.063 -439.892)" fill="#12263f"/>
            <path id="Path_171928" data-name="Path 171928" d="M2395.306,448.441q-1.931.391-3.832.9c-.484.129-.248.87.235.741q1.9-.507,3.831-.9C2396.03,449.083,2395.792,448.343,2395.306,448.441Z" transform="translate(-2375.337 -440.228)" fill="#12263f"/>
            <path id="Path_171929" data-name="Path 171929" d="M2395.54,452.39l-2.594.821a.389.389,0,0,0,.235.741l2.593-.821A.389.389,0,0,0,2395.54,452.39Z" transform="translate(-2375.399 -440.395)" fill="#12263f"/>
            <path id="Path_171930" data-name="Path 171930" d="M2395.986,455.989l-1.441.457a.389.389,0,0,0,.235.74l1.441-.456A.389.389,0,0,0,2395.986,455.989Z" transform="translate(-2375.467 -440.547)" fill="#12263f"/>
          </g>
        </g>
      </g>
      <g id="Group_112027" data-name="Group 112027" transform="translate(2364.406 372.889)">
        <g id="Group_112018" data-name="Group 112018">
          <g id="Group_112016" data-name="Group 112016" transform="translate(0 0.757)">
            <g id="Group_112013" data-name="Group 112013" transform="translate(50.42 6.57)">
              <path id="Path_171931" data-name="Path 171931" d="M2418.747,381.562a.6.6,0,0,1,.7-.952c1.073.571,2.129,1.175,3.14,1.795a.6.6,0,0,1-.624,1.017c-.99-.607-2.025-1.2-3.077-1.758A.617.617,0,0,1,2418.747,381.562Z" transform="translate(-2418.57 -380.54)" fill="#38173e"/>
            </g>
            <g id="Group_112014" data-name="Group 112014">
              <path id="Path_171932" data-name="Path 171932" d="M2374.109,444.745a.574.574,0,0,1-.1-.132,33.94,33.94,0,0,1-2.716-6.52.6.6,0,1,1,1.139-.355,32.833,32.833,0,0,0,2.616,6.29.6.6,0,0,1-.938.717Zm-4.319-13.157a.6.6,0,0,1-.166-.313c-.413-2.184-.757-4.514-1.02-6.925a.6.6,0,1,1,1.187-.129c.26,2.381.6,4.679,1.007,6.833a.6.6,0,0,1-1.007.534Zm-1.527-13.813a.593.593,0,0,1-.176-.4c-.036-.961-.054-1.852-.052-2.649a28.577,28.577,0,0,1,.342-4.4.6.6,0,1,1,1.178.185,27.658,27.658,0,0,0-.328,4.218c0,.781.016,1.657.052,2.6a.6.6,0,0,1-1.016.446Zm2.782-7.969c-.294-.291-.578-.592-.847-.895a.6.6,0,0,1,.893-.792,18.294,18.294,0,0,0,5.287,4.1.6.6,0,0,1-.548,1.059A19.58,19.58,0,0,1,2371.046,409.805Zm-4.194-6.873a.6.6,0,0,1-.153-.255,19.477,19.477,0,0,1-.709-7.09.6.6,0,1,1,1.19.095,18.257,18.257,0,0,0,.664,6.656.6.6,0,0,1-.992.594Zm3.756,1.3a.6.6,0,0,1-.113-.694,16.54,16.54,0,0,1,2.965-4.173,14.506,14.506,0,0,1,1.561-1.369.6.6,0,0,1,.719.952,13.361,13.361,0,0,0-1.432,1.256,15.342,15.342,0,0,0-2.749,3.873.6.6,0,0,1-.8.263A.592.592,0,0,1,2370.608,404.234Zm11.714,10.8a.6.6,0,0,1,.449-1.02,12.463,12.463,0,0,0,1.442-.011,10.442,10.442,0,0,0,4.82-1.63.6.6,0,1,1,.634,1.01,11.634,11.634,0,0,1-5.376,1.81,13.991,13.991,0,0,1-1.579.012A.594.594,0,0,1,2382.322,415.038Zm-14.48-25.688a.6.6,0,0,1-.128-.661,21.9,21.9,0,0,1,2.148-3.857c.519-.742,1.077-1.461,1.656-2.138a.6.6,0,1,1,.905.777c-.553.646-1.086,1.334-1.583,2.045a20.7,20.7,0,0,0-2.03,3.646.6.6,0,0,1-.784.311A.6.6,0,0,1,2367.843,389.349Zm13.53,7.076a.589.589,0,0,1-.171-.346.6.6,0,0,1,.513-.669,15.759,15.759,0,0,1,7.137.638.6.6,0,1,1-.395,1.125,14.569,14.569,0,0,0-6.586-.58A.6.6,0,0,1,2381.372,396.425Zm12.067,11.735a.6.6,0,0,1-.13-.655,7.7,7.7,0,0,0-.055-6.264.6.6,0,0,1,1.083-.5,8.9,8.9,0,0,1,.072,7.226.6.6,0,0,1-.781.319A.567.567,0,0,1,2393.44,408.16Zm-16.689-29.219a.587.587,0,0,1-.08-.1.6.6,0,0,1,.174-.825,25.619,25.619,0,0,1,6.426-2.987.6.6,0,0,1,.351,1.141,24.4,24.4,0,0,0-6.127,2.846A.6.6,0,0,1,2376.75,378.941Zm13.095-4.156a.6.6,0,0,1,.378-1.019,39.464,39.464,0,0,1,7.042.169.6.6,0,0,1-.13,1.187,38.35,38.35,0,0,0-6.83-.166A.6.6,0,0,1,2389.845,374.785Zm13.764,1.436a.6.6,0,0,1,.568-1,58,58,0,0,1,6.674,2.17.6.6,0,0,1-.436,1.111,56.855,56.855,0,0,0-6.536-2.126A.587.587,0,0,1,2403.61,376.221Z" transform="translate(-2365.925 -373.68)" fill="#12263f"/>
            </g>
            <g id="Group_112015" data-name="Group 112015" transform="translate(12.6 75.19)">
              <path id="Path_171933" data-name="Path 171933" d="M2379.257,453.21a.6.6,0,0,1,.73-.934,7.53,7.53,0,0,0,3.112,1.07.6.6,0,0,1-.128,1.187,8.706,8.706,0,0,1-3.6-1.237A.7.7,0,0,1,2379.257,453.21Z" transform="translate(-2379.081 -452.189)" fill="#38173e"/>
            </g>
          </g>
          <g id="Group_112017" data-name="Group 112017" transform="translate(41.891)">
            <path id="Path_171934" data-name="Path 171934" d="M2417.84,376l-3.456,10.285,21.259,4.235Z" transform="translate(-2409.865 -373.021)" fill="#28b5bd"/>
            <path id="Path_171935" data-name="Path 171935" d="M2415.82,377.141l-6.154,5.661,25.778,7.584-14.023-17.5-3.779,2.975,12.3,11.318Z" transform="translate(-2409.666 -372.889)" fill="#fff"/>
          </g>
        </g>
        <g id="Group_112026" data-name="Group 112026" transform="translate(136.632 9.69)">
          <g id="Group_112022" data-name="Group 112022" transform="translate(11.822)">
            <g id="Group_112019" data-name="Group 112019" transform="translate(0 30.32)">
              <path id="Path_171936" data-name="Path 171936" d="M2521.554,419.212a.586.586,0,0,1-.2-.026.6.6,0,0,1-.4-.743,29.52,29.52,0,0,1,1.275-3.422.6.6,0,1,1,1.09.484,28.355,28.355,0,0,0-1.222,3.284A.6.6,0,0,1,2521.554,419.212Z" transform="translate(-2520.932 -414.666)" fill="#38173e"/>
            </g>
            <g id="Group_112020" data-name="Group 112020" transform="translate(4.844)">
              <path id="Path_171937" data-name="Path 171937" d="M2556.44,419.217a.622.622,0,0,1-.156-.014,10.665,10.665,0,0,1-6.079-4.062.6.6,0,1,1,.944-.729,9.364,9.364,0,0,0,5.4,3.626.6.6,0,0,1-.105,1.179Zm6.84-.986a.6.6,0,0,1-.3-1.127,10.764,10.764,0,0,0,4.679-4.616.6.6,0,0,1,1.064.541,11.979,11.979,0,0,1-5.2,5.137A.593.593,0,0,1,2563.28,418.231Zm52.075-9.891a.6.6,0,0,1-.607-.468,21.15,21.15,0,0,0-2.569-6.324.6.6,0,0,1,1.023-.613,22.33,22.33,0,0,1,2.712,6.682.6.6,0,0,1-.456.71A.542.542,0,0,1,2615.355,408.34Zm-67.433.634a.6.6,0,0,1-.614-.5,15.627,15.627,0,0,1-.171-1.745,17.237,17.237,0,0,1,.679-5.493.6.6,0,1,1,1.146.33,16.052,16.052,0,0,0-.633,5.113,14.366,14.366,0,0,0,.158,1.61.6.6,0,0,1-.5.682C2547.968,408.97,2547.945,408.973,2547.923,408.974Zm-21.312-.5a.6.6,0,0,1-.5-.959,31.366,31.366,0,0,1,4.978-5.165.6.6,0,1,1,.758.921,30.236,30.236,0,0,0-4.789,4.968A.593.593,0,0,1,2526.611,408.469Zm42.106-1.945a.6.6,0,0,1-.585-.393,10.984,10.984,0,0,0-3.9-4.911c-.091-.069-.182-.136-.273-.2a.6.6,0,1,1,.7-.965c.1.072.2.144.293.217a12.135,12.135,0,0,1,4.3,5.455.6.6,0,0,1-.357.764A.615.615,0,0,1,2568.717,406.524Zm-31.3-6.928a.6.6,0,0,1-.287-1.133,28.638,28.638,0,0,1,6.8-2.316.6.6,0,0,1,.24,1.168,27.47,27.47,0,0,0-6.516,2.22A.6.6,0,0,1,2537.413,399.6Zm70.963-3.3a.6.6,0,0,1-.45-.178,37.905,37.905,0,0,0-5.31-4.464.6.6,0,1,1,.684-.978,39.064,39.064,0,0,1,5.477,4.606.6.6,0,0,1-.4,1.014Zm-50.36,1.778a.6.6,0,0,1-.2-.026,28.658,28.658,0,0,0-6.789-1.2.6.6,0,0,1-.561-.629.6.6,0,0,1,.63-.562l.188.012a.49.49,0,0,1-.059-.039.6.6,0,0,1-.121-.835,27.462,27.462,0,0,1,5.045-5.123.6.6,0,0,1,.737.939,26.244,26.244,0,0,0-4.826,4.9.6.6,0,0,1-.257.2,29.6,29.6,0,0,1,6.364,1.2.6.6,0,0,1-.15,1.167Zm38.873-9.849a.6.6,0,0,1-.279-.056q-.648-.306-1.294-.583a39.972,39.972,0,0,0-5.221-1.808.6.6,0,0,1,.314-1.151,40.979,40.979,0,0,1,5.378,1.863q.665.286,1.333.6a.6.6,0,0,1-.231,1.136Zm-34.306-1.087a.6.6,0,0,1-.256-1.146l.172-.072a37.082,37.082,0,0,1,6.675-2.023.6.6,0,0,1,.239,1.168,35.953,35.953,0,0,0-6.458,1.957l-.165.069A.586.586,0,0,1,2562.583,387.14Zm20.771-2.651a.754.754,0,0,1-.092,0,46.28,46.28,0,0,0-6.952-.249.6.6,0,0,1-.049-1.192h0a47.656,47.656,0,0,1,7.132.255.6.6,0,0,1-.041,1.189Z" transform="translate(-2525.99 -383.007)" fill="#12263f"/>
            </g>
            <g id="Group_112021" data-name="Group 112021" transform="translate(92.791 31.202)">
              <path id="Path_171938" data-name="Path 171938" d="M2618.441,420.229a.6.6,0,0,1-.234-.038.6.6,0,0,1-.35-.768,18.819,18.819,0,0,0,.919-3.342.6.6,0,1,1,1.175.208,20.18,20.18,0,0,1-.977,3.554A.6.6,0,0,1,2618.441,420.229Z" transform="translate(-2617.82 -415.587)" fill="#12263f"/>
            </g>
          </g>
          <g id="Group_112025" data-name="Group 112025" transform="translate(0 25.405)">
            <rect id="Rectangle_36838" data-name="Rectangle 36838" width="21.875" height="15.312" transform="translate(0 14.133) rotate(-2.389)" fill="#28b5bd"/>
            <g id="Group_112023" data-name="Group 112023" transform="translate(1.829)">
              <path id="Path_171939" data-name="Path 171939" d="M2528.547,427.813l-8.32,5.721-8.966-5-.763-18.279,17.286-.721Z" transform="translate(-2510.498 -409.534)" fill="#fae3b6"/>
            </g>
            <g id="Group_112024" data-name="Group 112024" transform="translate(4.086 3.438)">
              <path id="Path_171940" data-name="Path 171940" d="M2525.16,413.124l-11.809.492a.536.536,0,0,0,.045,1.071l11.809-.492A.536.536,0,0,0,2525.16,413.124Z" transform="translate(-2512.855 -413.123)" fill="#38173e"/>
              <path id="Path_171941" data-name="Path 171941" d="M2525.315,416.85l-11.809.492a.536.536,0,0,0,.044,1.071l11.81-.492A.536.536,0,0,0,2525.315,416.85Z" transform="translate(-2512.862 -413.281)" fill="#38173e"/>
              <path id="Path_171942" data-name="Path 171942" d="M2525.471,420.576l-11.81.493a.536.536,0,0,0,.045,1.071l11.809-.493A.536.536,0,0,0,2525.471,420.576Z" transform="translate(-2512.868 -413.438)" fill="#38173e"/>
              <path id="Path_171943" data-name="Path 171943" d="M2525.626,424.3l-11.81.493a.536.536,0,0,0,.045,1.071l11.81-.493A.536.536,0,0,0,2525.626,424.3Z" transform="translate(-2512.875 -413.596)" fill="#38173e"/>
            </g>
          </g>
          <path id="Path_171944" data-name="Path 171944" d="M2528.983,428.424q-4.552,2.7-8.892,5.733-4.58-2.656-9.339-4.973c-.346-.169-.625.359-.28.527q4.75,2.31,9.318,4.961a.378.378,0,0,0,.644-.027q4.333-3.021,8.872-5.72C2529.636,428.73,2529.313,428.228,2528.983,428.424Z" transform="translate(-2508.662 -384.925)" fill="#38173e"/>
        </g>
      </g>
    </g>
  </g>
</svg>
