<svg xmlns="http://www.w3.org/2000/svg" xmlns:xlink="http://www.w3.org/1999/xlink" width="400" height="300" viewBox="0 0 400 300">
  <defs>
    <linearGradient id="linear-gradient" x1="0.639" y1="-14.129" x2="0.128" y2="39.268" gradientUnits="objectBoundingBox">
      <stop offset="0" stop-color="#53d8ff"/>
      <stop offset="1" stop-color="#3840f7"/>
    </linearGradient>
    <linearGradient id="linear-gradient-2" x1="0.598" y1="-8.041" x2="0.176" y2="28.086" xlink:href="#linear-gradient"/>
    <linearGradient id="linear-gradient-3" x1="0.583" y1="-6.863" x2="0.168" y2="29.215" xlink:href="#linear-gradient"/>
    <linearGradient id="linear-gradient-4" x1="0.574" y1="-5.737" x2="0.135" y2="30.707" xlink:href="#linear-gradient"/>
    <linearGradient id="linear-gradient-5" x1="1543.628" y1="-4.467" x2="1544.635" y2="-4.467" gradientUnits="objectBoundingBox">
      <stop offset="0" stop-color="#febbba"/>
      <stop offset="1" stop-color="#ff928e"/>
    </linearGradient>
    <linearGradient id="linear-gradient-6" x1="1799.853" y1="-3.267" x2="1800.867" y2="-3.267" xlink:href="#linear-gradient-5"/>
    <linearGradient id="linear-gradient-7" x1="298.048" y1="-0.353" x2="299.041" y2="-0.353" xlink:href="#linear-gradient-5"/>
    <linearGradient id="linear-gradient-8" x1="-252.672" y1="-0.247" x2="-250.691" y2="2.436" xlink:href="#linear-gradient-5"/>
    <linearGradient id="linear-gradient-9" x1="2144.433" y1="-3.43" x2="2146.435" y2="-5.211" xlink:href="#linear-gradient-5"/>
    <linearGradient id="linear-gradient-10" x1="237.475" y1="-0.993" x2="238.476" y2="-0.993" xlink:href="#linear-gradient-5"/>
    <linearGradient id="linear-gradient-11" x1="594.07" y1="-1.316" x2="595.06" y2="-1.316" xlink:href="#linear-gradient-5"/>
    <linearGradient id="linear-gradient-12" x1="-247.877" y1="253.179" x2="-248.2" y2="252.114" xlink:href="#linear-gradient-5"/>
    <linearGradient id="linear-gradient-13" x1="-807.771" y1="1215.864" x2="-808.718" y2="1211.251" xlink:href="#linear-gradient-5"/>
    <linearGradient id="linear-gradient-14" x1="208.439" y1="-0.062" x2="208.952" y2="2.428" gradientUnits="objectBoundingBox">
      <stop offset="0" stop-color="#09005d"/>
      <stop offset="1" stop-color="#1a0f91"/>
    </linearGradient>
    <linearGradient id="linear-gradient-15" x1="715.509" y1="0.5" x2="716.509" y2="0.5" xlink:href="#linear-gradient-5"/>
    <linearGradient id="linear-gradient-16" x1="0" y1="0.5" x2="1" y2="0.5" xlink:href="#linear-gradient-5"/>
    <linearGradient id="linear-gradient-17" x1="0" y1="0.5" x2="1" y2="0.5" xlink:href="#linear-gradient-5"/>
    <linearGradient id="linear-gradient-18" x1="0.367" y1="0.85" x2="0.601" y2="0.282" xlink:href="#linear-gradient-5"/>
    <linearGradient id="linear-gradient-19" x1="0" y1="0.5" x2="1" y2="0.5" xlink:href="#linear-gradient-5"/>
    <linearGradient id="linear-gradient-20" x1="200.213" y1="74.817" x2="199.172" y2="75.568" xlink:href="#linear-gradient-5"/>
    <linearGradient id="linear-gradient-21" x1="822.164" y1="257.998" x2="817.887" y2="260.608" xlink:href="#linear-gradient-5"/>
    <linearGradient id="linear-gradient-22" x1="-1.05" y1="2.829" x2="0.734" y2="-0.03" xlink:href="#linear-gradient-5"/>
    <linearGradient id="linear-gradient-23" x1="0.47" y1="0.997" x2="0.639" y2="-1.153" xlink:href="#linear-gradient-5"/>
    <linearGradient id="linear-gradient-24" x1="0.751" y1="1.908" x2="0.44" y2="0.311" xlink:href="#linear-gradient-5"/>
    <linearGradient id="linear-gradient-25" x1="-248.665" y1="436.568" x2="-247.264" y2="437.321" xlink:href="#linear-gradient-5"/>
    <linearGradient id="linear-gradient-26" x1="-1044.884" y1="1415.871" x2="-1039.012" y2="1418.314" xlink:href="#linear-gradient-5"/>
    <linearGradient id="linear-gradient-27" x1="0.623" y1="0.5" x2="1.623" y2="0.5" xlink:href="#linear-gradient-5"/>
    <linearGradient id="linear-gradient-28" x1="-0.307" y1="110.807" x2="-1.046" y2="113.243" xlink:href="#linear-gradient-14"/>
    <linearGradient id="linear-gradient-29" x1="0.733" y1="0.134" x2="0.333" y2="0.8" xlink:href="#linear-gradient-14"/>
    <linearGradient id="linear-gradient-30" x1="-1110.388" y1="4.475" x2="-1110.373" y2="8.119" xlink:href="#linear-gradient-14"/>
    <linearGradient id="linear-gradient-31" x1="-3493.32" y1="1.164" x2="-3493.582" y2="-0.58" xlink:href="#linear-gradient-5"/>
    <linearGradient id="linear-gradient-32" x1="-1988.054" y1="3.704" x2="-1988.027" y2="7.136" xlink:href="#linear-gradient-14"/>
    <linearGradient id="linear-gradient-33" x1="-3897.321" y1="1.13" x2="-3897.606" y2="-0.791" xlink:href="#linear-gradient-5"/>
    <linearGradient id="linear-gradient-34" x1="-974.719" y1="0.5" x2="-973.719" y2="0.5" xlink:href="#linear-gradient-5"/>
    <linearGradient id="linear-gradient-35" x1="-520.475" y1="0.5" x2="-519.475" y2="0.5" xlink:href="#linear-gradient-5"/>
    <linearGradient id="linear-gradient-36" x1="-1932.68" y1="1.029" x2="-1931.391" y2="0.222" xlink:href="#linear-gradient-5"/>
    <linearGradient id="linear-gradient-37" x1="-1581.676" y1="0.175" x2="-1582.993" y2="1.493" xlink:href="#linear-gradient-5"/>
    <linearGradient id="linear-gradient-38" x1="-4893.801" y1="2.763" x2="-4890.539" y2="0.44" xlink:href="#linear-gradient-5"/>
    <linearGradient id="linear-gradient-39" x1="-1.289" y1="3.145" x2="0.762" y2="0.112" gradientUnits="objectBoundingBox">
      <stop offset="0" stop-color="#4f52ff"/>
      <stop offset="1" stop-color="#4042e2"/>
    </linearGradient>
    <linearGradient id="linear-gradient-40" x1="-1.297" y1="3.157" x2="0.754" y2="0.125" xlink:href="#linear-gradient-39"/>
    <linearGradient id="linear-gradient-41" x1="-1.74" y1="3.813" x2="0.31" y2="0.78" xlink:href="#linear-gradient-39"/>
    <linearGradient id="linear-gradient-42" x1="-1.749" y1="3.825" x2="0.302" y2="0.793" xlink:href="#linear-gradient-39"/>
    <linearGradient id="linear-gradient-43" x1="0.857" y1="-10.913" x2="0.637" y2="-3.931" xlink:href="#linear-gradient-14"/>
    <linearGradient id="linear-gradient-44" x1="0.211" y1="32.997" x2="0.464" y2="4.261" xlink:href="#linear-gradient-39"/>
  </defs>
  <g id="t2-c4" transform="translate(-390 -4808)">
    <rect id="Rectangle_36438" data-name="Rectangle 36438" width="400" height="300" rx="30" transform="translate(390 4808)" fill="#fdf2d3"/>
    <path id="Rectangle_36438_-_Outline" data-name="Rectangle 36438 - Outline" d="M30,3A26.975,26.975,0,0,0,3,30V270a26.975,26.975,0,0,0,27,27H370a26.975,26.975,0,0,0,27-27V30A26.975,26.975,0,0,0,370,3H30m0-3H370a30,30,0,0,1,30,30V270a30,30,0,0,1-30,30H30A30,30,0,0,1,0,270V30A30,30,0,0,1,30,0Z" transform="translate(390 4808)" fill="#f6bf28"/>
    <path id="Rectangle_36439" data-name="Rectangle 36439" d="M0,0H400a0,0,0,0,1,0,0V25a30,30,0,0,1-30,30H30A30,30,0,0,1,0,25V0A0,0,0,0,1,0,0Z" transform="translate(390 5053)" fill="#f6bf28"/>
    <path id="Path_178447" data-name="Path 178447" d="M75.2,15.7a5.712,5.712,0,0,1-.881,2.884,5.316,5.316,0,0,1-2.261,1.939,7.7,7.7,0,0,1-3.325.688,6.142,6.142,0,0,1-4.855-2.009,8.294,8.294,0,0,1-1.772-5.672v-.773a9.467,9.467,0,0,1,.8-4.023,6.064,6.064,0,0,1,2.3-2.664,6.429,6.429,0,0,1,3.48-.94,6.741,6.741,0,0,1,4.576,1.5,5.921,5.921,0,0,1,1.966,4.13h-3.76a2.8,2.8,0,0,0-.72-2.052,2.96,2.96,0,0,0-2.062-.623A2.252,2.252,0,0,0,66.63,9.141a6.766,6.766,0,0,0-.687,3.362v1.106a7.487,7.487,0,0,0,.628,3.577,2.3,2.3,0,0,0,2.165,1.074,2.9,2.9,0,0,0,1.987-.612,2.6,2.6,0,0,0,.73-1.944Zm1.16-.623a6.86,6.86,0,0,1,.677-3.1,4.84,4.84,0,0,1,1.944-2.089,5.856,5.856,0,0,1,2.976-.73,5.344,5.344,0,0,1,4.114,1.617,6.2,6.2,0,0,1,1.5,4.4v.129a6.019,6.019,0,0,1-1.509,4.313,5.359,5.359,0,0,1-4.087,1.6A5.42,5.42,0,0,1,78,19.727a5.819,5.819,0,0,1-1.622-4.034Zm3.62.226a4.325,4.325,0,0,0,.5,2.363,1.682,1.682,0,0,0,1.493.752q1.934,0,1.977-2.976v-.365q0-3.126-2-3.126-1.815,0-1.966,2.7ZM92.5,9.377l.118,1.364a3.942,3.942,0,0,1,3.319-1.579,3.316,3.316,0,0,1,2.712,1.085,5.165,5.165,0,0,1,.929,3.266V21H95.945V13.663a1.961,1.961,0,0,0-.354-1.294,1.64,1.64,0,0,0-1.289-.414,1.726,1.726,0,0,0-1.579.838V21H89.1V9.377ZM102.423,21V11.891h-1.687V9.377h1.687V8.99a4.438,4.438,0,0,1,1.525-3.556,6.1,6.1,0,0,1,3.964-1.16,14.066,14.066,0,0,1,3.781.623L111.2,7.755l-.6-.161a9.572,9.572,0,0,0-2.471-.312q-2.073,0-2.073,1.891v.2h2.277v2.514h-2.277V21Zm10.936,0h-3.642V9.377h3.642Zm8.755,0a4.087,4.087,0,0,1-.344-1.042,3.366,3.366,0,0,1-2.793,1.257,4.124,4.124,0,0,1-2.793-.994,3.163,3.163,0,0,1-1.149-2.5,3.251,3.251,0,0,1,1.4-2.857,7.114,7.114,0,0,1,4.061-.967h1.117v-.615q0-1.608-1.386-1.608a1.133,1.133,0,0,0-1.289,1.274h-3.62a3.245,3.245,0,0,1,1.434-2.736,6.027,6.027,0,0,1,3.658-1.051,5.284,5.284,0,0,1,3.513,1.085,3.772,3.772,0,0,1,1.321,2.976v5.146a5.269,5.269,0,0,0,.494,2.449V21Zm-2.267-2.363a2.019,2.019,0,0,0,1.123-.29,1.818,1.818,0,0,0,.639-.655V15.833h-1.053q-1.891,0-1.891,1.7a1.036,1.036,0,0,0,.333.8A1.205,1.205,0,0,0,119.847,18.637Zm10.721-9.26.118,1.364A3.942,3.942,0,0,1,134,9.162a3.316,3.316,0,0,1,2.712,1.085,5.165,5.165,0,0,1,.929,3.266V21h-3.631V13.663a1.961,1.961,0,0,0-.354-1.294,1.64,1.64,0,0,0-1.289-.414,1.726,1.726,0,0,0-1.579.838V21h-3.62V9.377Zm13.353,8.83h5.3V21h-9.872V18.98L144.5,12.17h-4.931V9.377H149.1v1.955ZM157.52,21a4.088,4.088,0,0,1-.344-1.042,3.366,3.366,0,0,1-2.793,1.257,4.124,4.124,0,0,1-2.793-.994,3.163,3.163,0,0,1-1.149-2.5,3.251,3.251,0,0,1,1.4-2.857A7.114,7.114,0,0,1,155.9,13.9h1.117v-.615q0-1.608-1.386-1.608a1.133,1.133,0,0,0-1.289,1.274h-3.62a3.245,3.245,0,0,1,1.434-2.736,6.027,6.027,0,0,1,3.658-1.051,5.284,5.284,0,0,1,3.513,1.085,3.772,3.772,0,0,1,1.321,2.976v5.146a5.269,5.269,0,0,0,.494,2.449V21Zm-2.267-2.363a2.019,2.019,0,0,0,1.123-.29,1.818,1.818,0,0,0,.639-.655V15.833h-1.053q-1.891,0-1.891,1.7a1.036,1.036,0,0,0,.333.8A1.205,1.205,0,0,0,155.253,18.637Z" transform="translate(479 5067)" fill="#12263f"/>
    <g id="Group_112070" data-name="Group 112070" transform="translate(-1706.827 5011.943)">
      <path id="Path_171945" data-name="Path 171945" d="M2383.534,1.011a82.939,82.939,0,0,1-12.684,10.678c-41.373,29.685-90.327,21.033-100.732,18.918-15.364-3.12-45.062-9.152-66.533-34.4-32.484-38.2-27.426-98.385-2.229-138.114,4.608-7.267,28.955-47.6,78.437-54.07,29.946-3.915,64.854,3.982,90.133,25.16C2422.989-126.36,2419.212-36.551,2383.534,1.011Z" transform="translate(0 0)" fill="#e9fbfc"/>
      <g id="Group_112040" data-name="Group 112040" transform="translate(2184.517 -183.724)">
        <g id="Group_112034" data-name="Group 112034" transform="translate(0 1.505)">
          <g id="Group_112030" data-name="Group 112030">
            <path id="Path_171946" data-name="Path 171946" d="M2183.927-138.413a.656.656,0,0,1-.384-.59c0-.859.012-1.731.043-2.594a.636.636,0,0,1,.677-.606c.873.042.575.894.584,3.218a.634.634,0,0,1-.65.633A.67.67,0,0,1,2183.927-138.413Z" transform="translate(-2183.543 201.864)" fill="#91b3fa"/>
            <path id="Path_171947" data-name="Path 171947" d="M2184.187-133.872c.276-1.627.621-3.26,1.025-4.858a.643.643,0,0,1,.791-.455c.951.255.284.754-.529,5.546a.638.638,0,0,1-.75.516A.657.657,0,0,1,2184.187-133.872Zm3.5-12.526c.607-1.54,1.288-3.085,2-4.536a.655.655,0,0,1,1.177.573c-.708,1.449-1.366,2.939-1.961,4.446a.644.644,0,0,1-.843.355A.65.65,0,0,1,2187.685-146.4Zm6-11.527c.908-1.372,1.885-2.726,2.9-4.024a.654.654,0,0,1,1.037.8c-1,1.272-1.954,2.6-2.844,3.943A.655.655,0,0,1,2193.686-157.925Zm8.295-9.129a.636.636,0,0,1-.006-.908c1.18-1.156,2.42-2.28,3.691-3.34.654-.545,1.507.442.853.987-1.243,1.038-2.46,2.14-3.616,3.272A.659.659,0,0,1,2201.98-167.054Zm10.041-8.141a.631.631,0,0,1,.182-.887c1.4-.891,2.85-1.738,4.315-2.517a.65.65,0,0,1,.636,1.133c-1.437.764-2.859,1.593-4.229,2.466A.663.663,0,0,1,2212.021-175.2Zm11.878-5.581a.658.658,0,0,1-.337-.352.629.629,0,0,1,.362-.829c1.559-.591,3.158-1.128,4.757-1.6a.666.666,0,0,1,.818.435.632.632,0,0,1-.427.8c-1.567.458-3.135.984-4.663,1.563A.659.659,0,0,1,2223.9-180.776Zm12.6-3.358a.66.66,0,0,1-.375-.48.631.631,0,0,1,.527-.737c1.649-.265,3.332-.469,5-.6a.664.664,0,0,1,.715.587.634.634,0,0,1-.585.694c-1.635.133-3.283.333-4.9.592A.677.677,0,0,1,2236.494-184.134Zm12.687-1.36a.634.634,0,0,1,.67-.613c1.674.073,3.37.215,5.04.419a.642.642,0,1,1-.139,1.276c-1.635-.2-3.3-.338-4.938-.41A.661.661,0,0,1,2249.181-185.494Zm40.743,16.862c-3.691-3.256-4.571-3.269-3.979-4.04a.657.657,0,0,1,.913-.114c1.344,1.012,2.665,2.09,3.926,3.2A.641.641,0,1,1,2289.924-168.632ZM2262.2-183.718a.64.64,0,0,1,.785-.462c1.629.409,3.267.887,4.865,1.421a.641.641,0,1,1-.4,1.218c-1.566-.523-3.17-.993-4.767-1.394A.654.654,0,0,1,2262.2-183.718Zm17.146,7.5c-4.264-2.446-5.139-2.288-4.721-3.166a.666.666,0,0,1,.867-.3c1.525.727,3.037,1.519,4.495,2.355a.642.642,0,0,1,.246.879A.649.649,0,0,1,2279.341-176.214Z" transform="translate(-2183.314 186.107)" fill="#98f2f9"/>
            <path id="Path_171948" data-name="Path 171948" d="M2267.915-166.785c-1.382-1.7-2.272-2.311-1.607-2.877a.661.661,0,0,1,.921.073c1.5,1.7,2.265,2.4,1.6,2.913A.746.746,0,0,1,2267.915-166.785Z" transform="translate(-2153.921 191.955)" fill="#98f2f9"/>
          </g>
          <g id="Group_112031" data-name="Group 112031" transform="translate(12.545 69.292)">
            <path id="Path_171949" data-name="Path 171949" d="M2277.922-131.34a.656.656,0,0,1-.379-.671c.106-.838.195-1.688.264-2.525a.635.635,0,0,1,.7-.576.66.66,0,0,1,.6.7c-.072.855-.162,1.722-.269,2.578a.638.638,0,0,1-.727.546A.719.719,0,0,1,2277.922-131.34Z" transform="translate(-2162.354 135.115)" fill="#91b3fa"/>
            <path id="Path_171950" data-name="Path 171950" d="M2214.7-86.691c-1.628-.8-3.24-1.685-4.793-2.619a.643.643,0,0,1-.228-.885c.517-.851.827,0,5.589,2.356a.646.646,0,0,1,.3.864A.664.664,0,0,1,2214.7-86.691Zm7.777,2.581c.315-.943.833-.168,5.952,1.114a.653.653,0,0,1,.484.781.642.642,0,0,1-.784.465c-1.753-.44-3.514-.959-5.234-1.542A.652.652,0,0,1,2222.481-84.11Zm-19.845-10.268c-1.412-1.132-2.794-2.339-4.108-3.585a.635.635,0,0,1-.026-.909c.7-.715.808.183,4.946,3.5a.639.639,0,0,1,.1.9A.657.657,0,0,1,2202.636-94.378Zm34.006,14.145a.655.655,0,0,1-.382-.655.636.636,0,0,1,.712-.565c1.764.2,3.555.322,5.32.371a.66.66,0,0,1,.646.66.633.633,0,0,1-.659.624c-1.8-.05-3.631-.178-5.431-.378A.674.674,0,0,1,2236.642-80.234Zm14.1.027a.659.659,0,0,1-.381-.511.633.633,0,0,1,.565-.709c1.754-.189,3.521-.454,5.253-.79a.666.666,0,0,1,.775.508.63.63,0,0,1-.5.753c-1.768.342-3.573.613-5.362.806A.659.659,0,0,1,2250.743-80.206Zm13.714-3.021a.66.66,0,0,1-.346-.374.63.63,0,0,1,.392-.815c1.664-.564,3.324-1.2,4.933-1.9a.667.667,0,0,1,.866.332.629.629,0,0,1-.321.845c-1.643.715-3.336,1.367-5.034,1.943A.667.667,0,0,1,2264.457-83.227Zm12.667-5.907a.656.656,0,0,1-.282-.246.631.631,0,0,1,.2-.883c1.495-.909,2.967-1.893,4.377-2.923a.662.662,0,0,1,.913.139.631.631,0,0,1-.125.9c-1.437,1.052-2.941,2.056-4.465,2.983A.658.658,0,0,1,2277.124-89.134Zm10.818-8.644c-.717-.717.192-.787,3.6-4.719a.654.654,0,0,1,1,.845c-1.163,1.341-2.4,2.65-3.676,3.888A.66.66,0,0,1,2287.942-97.778Zm8.914-10.633c-.859-.546.005-.806,2.442-5.4a.655.655,0,0,1,1.158.61c-.832,1.568-1.74,3.117-2.7,4.6A.652.652,0,0,1,2296.856-108.411Zm6.236-12.358a.649.649,0,0,1-.345-.807c.6-1.64,1.129-3.32,1.581-4.99a.641.641,0,0,1,.8-.442.654.654,0,0,1,.464.794c-.461,1.7-1,3.416-1.613,5.09a.645.645,0,0,1-.833.375Z" transform="translate(-2190.784 138.016)" fill="#98f2f9"/>
            <path id="Path_171951" data-name="Path 171951" d="M2194.5-109.625c-1.422-1.773-2.152-2.495-1.467-2.981.712-.506,1.029.379,2.485,2.195a.632.632,0,0,1-.1.9A.661.661,0,0,1,2194.5-109.625Z" transform="translate(-2192.775 143.143)" fill="#98f2f9"/>
          </g>
          <g id="Group_112033" data-name="Group 112033" transform="translate(17.049 16.109)">
            <path id="Path_171952" data-name="Path 171952" d="M2201.58-103.234l9.338-.491a41.549,41.549,0,0,0,9.432,9.276c-.271,8.951-.924,9.56.007,9.946l10.417,4.309a.772.772,0,0,0,.869-.192l6.131-6.856a41.392,41.392,0,0,0,13.213.091l6.275,6.951a.787.787,0,0,0,.873.2l10.332-4.158a.739.739,0,0,0,.465-.742l-.661-9.21a39.456,39.456,0,0,0,9.251-9.133l9.344.626a.755.755,0,0,0,.752-.461l4.194-10.19a.759.759,0,0,0-.209-.859l-7.066-6.161a39.606,39.606,0,0,0-.137-13.018c6.657-6.065,7.53-6.008,7.139-6.919-4.493-9.98-4.141-10.777-5.163-10.723l-9.338.491a41.568,41.568,0,0,0-9.432-9.276c.27-8.945.924-9.56-.008-9.946-10.423-4.1-10.625-4.855-11.286-4.117l-6.131,6.856a41.376,41.376,0,0,0-13.21-.092c-6.2-6.584-6.217-7.528-7.149-7.153-10.149,4.294-10.867,3.905-10.8,4.9l.66,9.21a39.465,39.465,0,0,0-9.251,9.133c-8.932-.414-9.713-1.1-10.1-.166-3.967,10.155-4.748,10.382-3.983,11.049l7.066,6.161a39.6,39.6,0,0,0,.136,13.017c-6.634,6.044-7.53,6-7.138,6.919C2200.91-103.977,2200.557-103.18,2201.58-103.234Z" transform="translate(-2196.09 174.253)" fill="#83d1d6"/>
            <g id="Group_112032" data-name="Group 112032" transform="translate(36.937 36.375)">
              <path id="Path_171953" data-name="Path 171953" d="M2223.373-138.339a10.718,10.718,0,0,1,12.326-9.019,11.049,11.049,0,0,1,9.372,12.3,10.721,10.721,0,0,1-12.328,9.02h0A11.047,11.047,0,0,1,2223.373-138.339Zm9.5,11.352.007,0Zm2.56-18.466a8.793,8.793,0,0,0-10.124,7.407,9.072,9.072,0,0,0,7.7,10.106,8.805,8.805,0,0,0,10.125-7.409A9.074,9.074,0,0,0,2235.435-145.452Z" transform="translate(-2223.271 147.484)" fill="#28b5bd"/>
            </g>
            <path id="Path_171954" data-name="Path 171954" d="M2227.361-107.32h0a28.867,28.867,0,0,1-4.22-2.39.966.966,0,0,1-.345-1.2.879.879,0,0,1,.083-.144.981.981,0,0,1,1.359-.235,27.094,27.094,0,0,0,4.911,2.655h0c13.027,5.388,27.844-.311,33.562-12.715q.218-.475.42-.963c5.409-13.147-1.14-28.2-14.476-33.722-13.318-5.51-28.578.567-33.98,13.677-3.212,7.807-1.279,13.333-1.648,14.134a.987.987,0,0,1-1.859-.274,27.086,27.086,0,0,1,2.143-15.645c10.011-21.724,41.87-20.836,51.42,1.412a27.108,27.108,0,0,1,.215,21.17q-.216.528-.455,1.044A27.012,27.012,0,0,1,2249.9-106.7a28.278,28.278,0,0,1-21.485-.156C2228.062-107,2227.71-107.16,2227.361-107.32Z" transform="translate(-2190.802 179.391)" fill="#28b5bd"/>
          </g>
        </g>
        <g id="Group_112039" data-name="Group 112039" transform="translate(118.155)">
          <path id="Path_171955" data-name="Path 171955" d="M2285.4-140.166a22.757,22.757,0,0,0,5.615,4.778l.106,5.221c.011.579.507.355,6.26,2.322.533.173.475-.325,3.611-4.325a22.789,22.789,0,0,0,7.349-.6l3.768,3.619c.418.4.609-.107,6.07-2.784a.43.43,0,0,0,.229-.443l-.735-5.172a22.769,22.769,0,0,0,4.778-5.616c4.986-.2,5.445.141,5.62-.4,1.8-5.938,2.223-6.1,1.772-6.438l-4.174-3.135a22.744,22.744,0,0,0-.6-7.349l3.62-3.768c.4-.417-.107-.609-2.786-6.07-.253-.5-.542-.107-5.613.507a22.774,22.774,0,0,0-5.616-4.778l-.1-5.221c-.011-.579-.507-.355-6.262-2.322-.53-.171-.458.306-3.609,4.325a22.742,22.742,0,0,0-7.349.6l-3.768-3.62a.429.429,0,0,0-.493-.072l-5.577,2.856a.431.431,0,0,0-.229.443l.737,5.172a22.766,22.766,0,0,0-4.778,5.616c-4.987.2-5.447-.141-5.62.4-1.8,5.936-2.223,6.1-1.772,6.438l4.175,3.135a22.788,22.788,0,0,0,.6,7.349c-3.381,3.67-3.951,3.752-3.691,4.261l2.856,5.577C2280.038-139.16,2280.352-139.554,2285.4-140.166Z" transform="translate(-2268.632 189.026)" fill="#83d1d6"/>
          <g id="Group_112038" data-name="Group 112038">
            <g id="Group_112035" data-name="Group 112035" transform="translate(27.672 27.494)">
              <path id="Path_171956" data-name="Path 171956" d="M2290.87-160.866a6.536,6.536,0,0,1,6.948-6.1,6.536,6.536,0,0,1,6.1,6.948,6.548,6.548,0,0,1-6.948,6.1h0A6.547,6.547,0,0,1,2290.87-160.866Zm6.166,5.975.005,0Zm-4.221-5.85a4.6,4.6,0,0,0,4.283,4.878h0a4.6,4.6,0,0,0,3.747-7.61A4.6,4.6,0,0,0,2292.815-160.741Z" transform="translate(-2290.857 166.982)" fill="#28b5bd"/>
            </g>
            <g id="Group_112036" data-name="Group 112036">
              <path id="Path_171957" data-name="Path 171957" d="M2271.695-154.083c-.251-.841-.473-1.7-.658-2.566a.65.65,0,0,1,.5-.772c.882-.19.757.8,1.4,2.965a.649.649,0,0,1-.436.809A.65.65,0,0,1,2271.695-154.083Z" transform="translate(-2270.304 197.899)" fill="#91b3fa"/>
              <path id="Path_171958" data-name="Path 171958" d="M2270.494-154.618a34.73,34.73,0,0,1,.637-5.313.65.65,0,0,1,1.274.254c-.929,4.651-.2,5.782-1.29,5.736A.65.65,0,0,1,2270.494-154.618Zm3.71-12.676a.65.65,0,0,1-.3-.87,34.216,34.216,0,0,1,2.712-4.613.65.65,0,0,1,1.065.745,32.8,32.8,0,0,0-2.609,4.438A.661.661,0,0,1,2274.2-167.294Zm8.394-10.83a.641.641,0,0,1-.222-.167.65.65,0,0,1,.071-.916,34.464,34.464,0,0,1,4.325-3.153.65.65,0,0,1,.893.212.648.648,0,0,1-.211.894,33.266,33.266,0,0,0-4.161,3.033A.649.649,0,0,1,2282.6-178.124Zm12-6.6a.653.653,0,0,1-.349-.4.65.65,0,0,1,.431-.811,34.172,34.172,0,0,1,5.225-1.16.651.651,0,0,1,.734.553.649.649,0,0,1-.553.734,32.714,32.714,0,0,0-5.025,1.116A.65.65,0,0,1,2294.6-184.727Zm13.269-1.911a.649.649,0,0,1,.718-.573,34.482,34.482,0,0,1,5.255,1.014.65.65,0,0,1-.346,1.253,33.051,33.051,0,0,0-5.056-.976A.648.648,0,0,1,2307.866-186.637Z" transform="translate(-2270.494 187.215)" fill="#98f2f9"/>
              <path id="Path_171959" data-name="Path 171959" d="M2310.071-181.472c-1.962-1.352-2.828-1.492-2.387-2.25a.642.642,0,0,1,.887-.236c.759.439,1.51.916,2.237,1.417a.649.649,0,0,1,.167.9A.65.65,0,0,1,2310.071-181.472Z" transform="translate(-2257.187 188.351)" fill="#98f2f9"/>
            </g>
            <g id="Group_112037" data-name="Group 112037" transform="translate(13.265 26.532)">
              <path id="Path_171960" data-name="Path 171960" d="M2319.829-164.4c-.3-2.373-.774-3.1.084-3.28a.649.649,0,0,1,.768.5c.178.857.326,1.737.437,2.612a.65.65,0,0,1-.562.727A.651.651,0,0,1,2319.829-164.4Z" transform="translate(-2266.198 167.69)" fill="#98f2f9"/>
              <path id="Path_171961" data-name="Path 171961" d="M2287.437-131.4c.338-1.025,1.107.031,5.736.8a.65.65,0,0,1-.213,1.281,34.19,34.19,0,0,1-5.111-1.265A.649.649,0,0,1,2287.437-131.4Zm13.351,1.848a.65.65,0,0,1,.6-.7c4.717-.387,5.527-1.378,5.782-.325a.649.649,0,0,1-.48.784,34.185,34.185,0,0,1-5.2.836A.652.652,0,0,1,2300.788-129.549Zm13-3.537c-.507-.957.776-.773,4.547-3.589a.65.65,0,0,1,.777,1.041,34.377,34.377,0,0,1-4.446,2.817A.651.651,0,0,1,2313.79-133.086Zm10.565-8.368c-.842-.684.414-1.016,2.781-5.082a.65.65,0,0,1,1.124.654,34.338,34.338,0,0,1-2.99,4.332A.651.651,0,0,1,2324.355-141.454Zm5.987-12.646c1.285-4.551.643-5.662,1.72-5.531a.651.651,0,0,1,.567.723,34.455,34.455,0,0,1-1.037,5.161.65.65,0,0,1-.8.448A.649.649,0,0,1,2330.342-154.1Z" transform="translate(-2277.69 170.579)" fill="#98f2f9"/>
              <path id="Path_171962" data-name="Path 171962" d="M2282.68-140.262c-.739-.477-1.469-.988-2.167-1.519a.648.648,0,0,1-.125-.91c.546-.719,1.09.109,3,1.337a.65.65,0,0,1,.194.9A.65.65,0,0,1,2282.68-140.262Z" transform="translate(-2280.255 176.566)" fill="#91b3fa"/>
            </g>
            <path id="Path_171963" data-name="Path 171963" d="M2291.965-144.022a.977.977,0,0,1-.39-1.351.976.976,0,0,1,1.332-.356,14.217,14.217,0,0,0,2.754,1.222,14.119,14.119,0,0,0,10.792-.872c11.165-5.721,9.845-22.2-2.108-26.055a14.169,14.169,0,0,0-17.188,7.536c-2.972,6.451.387,9.807-1.669,10.283a.974.974,0,0,1-1.17-.728,16.08,16.08,0,0,1,.365-8.566,16.116,16.116,0,0,1,20.26-10.379,16.113,16.113,0,0,1,9.666,22.086,16.1,16.1,0,0,1-19.547,8.551h0A16.189,16.189,0,0,1,2291.965-144.022Z" transform="translate(-2265.68 191.933)" fill="#28b5bd"/>
          </g>
        </g>
      </g>
      <g id="Group_112042" data-name="Group 112042" transform="translate(2300.978 -159.436)">
        <path id="Path_171964" data-name="Path 171964" d="M2291.548-133.991c-.024-.3-.334-.568-.862-.78.572-.315.889-.654.862-.985-.08-1-3.259-1.565-7.1-1.257s-6.888,1.375-6.806,2.378c.024.3.335.568.861.78-.572.315-.888.654-.861.985.024.3.335.568.861.779-.572.317-.888.655-.861.987.024.3.335.568.861.779-.572.315-.888.654-.861.985.035.444.678.8,1.715,1.035a8.8,8.8,0,0,0,.026,1.084c.151,1.849,2.231,3.3,4.983,3.3s5.132-1.977,5.159-3.833a9.144,9.144,0,0,0-.054-1.211c1.317-.439,2.119-.977,2.076-1.5-.024-.3-.334-.568-.862-.779.572-.315.889-.654.862-.985-.024-.306-.334-.568-.862-.78C2291.258-133.321,2291.575-133.659,2291.548-133.991Z" transform="translate(-2266.233 180.913)" fill="#204470"/>
        <g id="Group_112041" data-name="Group 112041" transform="translate(12.432 46.236)">
          <path id="Path_171965" data-name="Path 171965" d="M2282.167-130.067a16.669,16.669,0,0,1-3.047-.249.093.093,0,0,1-.073-.107.092.092,0,0,1,.108-.073,19.878,19.878,0,0,0,5.074.16,21.838,21.838,0,0,0,4.254-.735.094.094,0,0,1,.115.064.093.093,0,0,1-.062.114,22.052,22.052,0,0,1-4.293.741C2283.53-130.1,2282.833-130.067,2282.167-130.067Z" transform="translate(-2278.162 136.839)" fill="url(#linear-gradient)"/>
          <path id="Path_171966" data-name="Path 171966" d="M2282.362-131.24a14.479,14.479,0,0,1-3.74-.4.093.093,0,0,1-.063-.114.093.093,0,0,1,.114-.064,17.849,17.849,0,0,0,5.733.315,18,18,0,0,0,5.574-1.213.093.093,0,0,1,.123.046.092.092,0,0,1-.045.122,18.238,18.238,0,0,1-5.637,1.228C2283.717-131.267,2283.024-131.24,2282.362-131.24Z" transform="translate(-2278.338 136.245)" fill="url(#linear-gradient-2)"/>
          <path id="Path_171967" data-name="Path 171967" d="M2282.4-132.536a13.505,13.505,0,0,1-3.942-.474.092.092,0,0,1-.058-.117.092.092,0,0,1,.117-.058,16.853,16.853,0,0,0,5.946.379,18.007,18.007,0,0,0,5.574-1.212.092.092,0,0,1,.122.045.092.092,0,0,1-.045.122,18.2,18.2,0,0,1-5.637,1.23C2283.764-132.565,2283.065-132.536,2282.4-132.536Z" transform="translate(-2278.395 135.779)" fill="url(#linear-gradient-3)"/>
          <path id="Path_171968" data-name="Path 171968" d="M2282.248-133.84a15.866,15.866,0,0,1-3.32-.3.092.092,0,0,1-.071-.11.092.092,0,0,1,.11-.069,19.265,19.265,0,0,0,5.331.213,18.2,18.2,0,0,0,5.545-1.2.092.092,0,0,1,.122.045.092.092,0,0,1-.046.122,18.329,18.329,0,0,1-5.607,1.216C2283.607-133.867,2282.913-133.84,2282.248-133.84Z" transform="translate(-2278.23 135.316)" fill="url(#linear-gradient-4)"/>
        </g>
        <path id="Path_171969" data-name="Path 171969" d="M2278.077-131.326a12.985,12.985,0,0,0-2.325-4.541,30.049,30.049,0,0,1-6.475-16.737c-.668-11.632,9.648-17.456,19.063-16.665s18.7,7.8,17.686,18.621c-.625,6.658-4.353,11.709-7.127,14.611a15.418,15.418,0,0,0-3.7,6.554c-.833,3.006-2.814,6.754-7.526,6.982C2281.579-122.208,2279.047-127.89,2278.077-131.326Z" transform="translate(-2269.246 169.341)" fill="#f6bf28"/>
        <path id="Path_171970" data-name="Path 171970" d="M2283.955-130.743l3.294-21.424c.068-.443.287-.741.487-.665s.308.5.24.939l-.007.038-3.752,21.226c-.029.159-.109.26-.181.224S2283.932-130.59,2283.955-130.743Z" transform="translate(-2263.97 175.262)" fill="#e86038"/>
        <path id="Path_171971" data-name="Path 171971" d="M2282.5-130.618l-3.294-21.424c-.068-.443-.285-.739-.486-.665s-.308.5-.24.939l.007.038,3.752,21.226c.029.159.109.26.181.224S2282.528-130.464,2282.5-130.618Z" transform="translate(-2265.939 175.307)" fill="#e86038"/>
        <path id="Path_171972" data-name="Path 171972" d="M2288.913-153.016a.346.346,0,0,0-.432-.113l-1.835.857-.637-1.814a.387.387,0,0,0-.223-.224.451.451,0,0,0-.563.174l0,.005-1.509,2.75-1.4-3.915,0-.007a.447.447,0,0,0-.212-.239.549.549,0,0,0-.692.137l-2.109,2.9a.255.255,0,0,0,.075.367.354.354,0,0,0,.448-.049l1.856-2.071,1.671,3.723v0a.3.3,0,0,0,.148.144.347.347,0,0,0,.436-.114l1.614-2.589.606,1.31.005.012.015.027a.346.346,0,0,0,.432.113l2.178-1.018A.26.26,0,0,0,2288.913-153.016Z" transform="translate(-2265.657 174.27)" fill="#fff"/>
        <path id="Path_171973" data-name="Path 171973" d="M2291.23-146.023a.406.406,0,0,1-.249-.083.417.417,0,0,1-.087-.584,24.446,24.446,0,0,0,1.529-2.321.418.418,0,0,1,.571-.154.419.419,0,0,1,.153.572,25.39,25.39,0,0,1-1.582,2.4A.416.416,0,0,1,2291.23-146.023Z" transform="translate(-2261.507 176.562)" fill="#fff"/>
        <path id="Path_171974" data-name="Path 171974" d="M2293.224-146.066a.4.4,0,0,1-.166-.035.417.417,0,0,1-.217-.55,19.516,19.516,0,0,0,.448-14.81.419.419,0,0,1,.205-.554.417.417,0,0,1,.555.207,20.044,20.044,0,0,1-.44,15.493A.42.42,0,0,1,2293.224-146.066Z" transform="translate(-2260.791 171.956)" fill="#fff"/>
      </g>
      <g id="Group_112069" data-name="Group 112069" transform="translate(2181.156 -120.585)">
        <g id="Group_112048" data-name="Group 112048" transform="translate(51.803)">
          <path id="Path_171975" data-name="Path 171975" d="M2242.09-38.133s-.544,2.913-.824,5.8a1.991,1.991,0,0,0,1.883,2.176c3.846.2,12.072.587,15.027.484a.648.648,0,0,0,.579-.882h0a1.448,1.448,0,0,0-.734-.788l-13.534-6.377Z" transform="translate(-2211.271 177.578)" fill="#12263f"/>
          <path id="Path_171976" data-name="Path 171976" d="M2241.571-39.264l.381,3.5s2.371,1.131,4.01-.1l-.95-3.9Z" transform="translate(-2211.159 176.991)" fill="url(#linear-gradient-5)"/>
          <path id="Path_171977" data-name="Path 171977" d="M2245.125-87.669c-.187.91-1.394,45.484,3.181,65.509a.68.68,0,0,1-.406.784,11.777,11.777,0,0,1-3.888.751,1.167,1.167,0,0,1-1.151-.848c-1.318-4.649-7.623-27.936-8.263-50.129-.715-24.8.008-.844.008-.844l.7-15.319Z" transform="translate(-2213.775 159.767)" fill="#204470"/>
          <path id="Path_171978" data-name="Path 171978" d="M2230.8-37.122a20.965,20.965,0,0,0-1.667,5.373,1.216,1.216,0,0,0,1.055,1.465c1.269.136,3.223.315,4.79.319a1.21,1.21,0,0,0,1.212-1.338,10.223,10.223,0,0,0-2.331-5.624Z" transform="translate(-2215.632 177.941)" fill="#12263f"/>
          <path id="Path_171979" data-name="Path 171979" d="M2229.853-40.386l.917,5.289a3.41,3.41,0,0,0,2.848.223l-.408-5.684Z" transform="translate(-2215.364 176.708)" fill="url(#linear-gradient-6)"/>
          <path id="Path_171980" data-name="Path 171980" d="M2228.823-86.217c-4.122,23.485.291,58.145,1.826,64.934a1.058,1.058,0,0,0,.845.811,7.108,7.108,0,0,0,3.049-.092.97.97,0,0,0,.705-.886c.266-5.475.2-39.1,3.96-52.358a3.016,3.016,0,0,1,1.18-1.654l7.1-4.944.618-8.095Z" transform="translate(-2216.348 159.503)" fill="#204470"/>
          <g id="Group_112043" data-name="Group 112043" transform="translate(11.188 11.177)">
            <path id="Path_171981" data-name="Path 171981" d="M2253.971-118.969c-11.678-.306-24.6,2.832-24.6,2.832-3.676,20.281-1.026,43.741-1.026,43.741,9.02,2.457,19.257-1.266,19.257-1.266,1.583-8.477,8.825-32.307,8.825-32.307a38.479,38.479,0,0,0,14.323-4.395,25.045,25.045,0,0,1-4.851-10.4A39.218,39.218,0,0,1,2253.971-118.969Z" transform="translate(-2227.424 136.746)" fill="#ff805a"/>
            <path id="Path_171982" data-name="Path 171982" d="M2278.474-131.624a2.234,2.234,0,0,0-2.593-.754c-1.788,7.244-10.856,13.044-20.143,15.834a25.045,25.045,0,0,0,4.851,10.4C2276.038-114.637,2278.474-131.624,2278.474-131.624Z" transform="translate(-2217.262 132.526)" fill="url(#linear-gradient-7)"/>
          </g>
          <g id="Group_112044" data-name="Group 112044" transform="translate(69.834)">
            <path id="Path_171983" data-name="Path 171983" d="M2272.866-128.321c.115.382-1.28.95-2.083-.618-.021-.749-.447-3.958.007-4.563a59.711,59.711,0,0,1,7.066-7.248,1.1,1.1,0,0,1,.124,1.527l-2.262,2.311a10.828,10.828,0,0,1,1.283,2.6,3.135,3.135,0,0,1-.334,2.306c-.4.705-.946,1.62-1.459,2.336A3.1,3.1,0,0,1,2272.866-128.321Z" transform="translate(-2270.582 140.751)" fill="url(#linear-gradient-8)"/>
            <path id="Path_171984" data-name="Path 171984" d="M2274.347-136.819l-2.057,1.709-.657,1.716,1.8,2.037a23.437,23.437,0,0,1,1.106-4.147C2275-136.239,2274.768-136.6,2274.347-136.819Z" transform="translate(-2270.205 142.162)" fill="url(#linear-gradient-9)"/>
          </g>
          <path id="Path_171985" data-name="Path 171985" d="M2236.629-106.007l-4.373-11.352s-10.979,7.308-12.864,16.69a25.819,25.819,0,0,1,9.46,2.632C2229.7-102.467,2236.629-106.007,2236.629-106.007Z" transform="translate(-2219.118 149.146)" fill="#ff805a"/>
          <path id="Path_171986" data-name="Path 171986" d="M2246.134-99.681s-12.316,6.805-16.392.855a4.642,4.642,0,0,1-.817-3.619,25.819,25.819,0,0,0-9.46-2.632,12.98,12.98,0,0,0,1.325,8.906c7.114,13.313,26.937-.474,26.937-.474Z" transform="translate(-2219.191 153.554)" fill="url(#linear-gradient-10)"/>
          <path id="Path_171987" data-name="Path 171987" d="M2239.335-126.5l-3.819,10.712a.388.388,0,0,0,.171.469,8.74,8.74,0,0,0,9.068-.523,1.826,1.826,0,0,0,.852-1.295l1.292-9.291Z" transform="translate(-2213.34 145.864)" fill="url(#linear-gradient-11)"/>
          <g id="Group_112045" data-name="Group 112045" transform="translate(18.978 3.895)">
            <path id="Path_171988" data-name="Path 171988" d="M2246.864-133.772s4.007,7.721,3.454,10.819-5.608,2.826-10,.265l-3.007-8.324Z" transform="translate(-2231.666 139.361)" fill="url(#linear-gradient-12)"/>
            <path id="Path_171989" data-name="Path 171989" d="M2242.042-125.284a.316.316,0,0,0,.143-.462,8.29,8.29,0,0,1-1.113-2.422s-.728-.477,1.878-1.075,6.5-1.526,7.332-3.733c.815-2.151-1.222-7.6-4.595-3.3a.317.317,0,0,1-.5,0,3.266,3.266,0,0,0-3.964-1.33,2.994,2.994,0,0,0-2.078,2.874.314.314,0,0,1-.376.318,3.652,3.652,0,0,0-4.282,1.947c-.889,1.905-.333,2.992.177,3.528a.315.315,0,0,1-.14.522,1.9,1.9,0,0,0-1.362,2.155c.093,2.01,2.339,1.854,2.979,1.769a.311.311,0,0,1,.28.1c.542.611,2.987,3.21,5.657,3.545a.318.318,0,0,0,.338-.419l-1.124-3.373a.318.318,0,0,1,.175-.393Z" transform="translate(-2233.157 137.885)" fill="#12263f"/>
            <path id="Path_171990" data-name="Path 171990" d="M2240.861-127.99s-2.887-2.022-3.116-.345,2.594,2.457,4,1.844Z" transform="translate(-2231.515 141.073)" fill="url(#linear-gradient-13)"/>
          </g>
          <g id="Group_112047" data-name="Group 112047" transform="translate(24.399 39.254)">
            <g id="Group_112046" data-name="Group 112046">
              <path id="Path_171991" data-name="Path 171991" d="M2237.173-86.49l6.709-23.428a.685.685,0,0,1,.578-.492c1.215-.141,4.737-.539,8.8-.883a99.9,99.9,0,0,1,13.984-.465.686.686,0,0,1,.561.987c-1.933,3.911-9.884,19.818-13.866,25.029a.689.689,0,0,1-.553.272l-15.565-.145A.685.685,0,0,1,2237.173-86.49Z" transform="translate(-2237.146 111.864)" fill="url(#linear-gradient-14)"/>
              <path id="Path_171992" data-name="Path 171992" d="M2238.53-95.248s-.935-3.842-.558-5.206,1.107-3.116,3.542-2.726a35.537,35.537,0,0,1,5.305,1.415,1.393,1.393,0,0,1-2,1.2l1.147.889s-.163,1.421-1.726.662l1.067,1.177a1.244,1.244,0,0,1-1.821.42C2242.342-98.165,2241.79-94.784,2238.53-95.248Z" transform="translate(-2236.882 114.961)" fill="url(#linear-gradient-15)"/>
            </g>
            <path id="Path_171993" data-name="Path 171993" d="M2248.677-105.778a1.97,1.97,0,0,0,1.97,1.97,1.97,1.97,0,0,0,1.969-1.97,1.969,1.969,0,0,0-1.969-1.969A1.97,1.97,0,0,0,2248.677-105.778Z" transform="translate(-2233.008 113.342)" fill="#91b3fa"/>
            <path id="Path_171994" data-name="Path 171994" d="M2242.793-103.4l-.5-.148,1.366-4.634a2.111,2.111,0,0,1,1.588-1.478c4.33-.9,15.732-1.088,16.215-1.1l.008.525c-.118,0-11.836.19-16.116,1.084a1.589,1.589,0,0,0-1.194,1.114Z" transform="translate(-2235.3 112.262)" fill="#91b3fa"/>
          </g>
        </g>
        <g id="Group_112049" data-name="Group 112049" transform="translate(0 108.412)">
          <path id="Path_171995" data-name="Path 171995" d="M2185.292-57.094c-.715,1.059-3.558,25.017-4,33.865a1.047,1.047,0,0,0,1.048,1.1h0a1.048,1.048,0,0,0,1.035-.887l5.2-33.313Z" transform="translate(-2180.99 62.362)" fill="#7d97f4"/>
          <path id="Path_171996" data-name="Path 171996" d="M2201.917-57.094c.714,1.059,3.557,25.017,4,33.865a1.047,1.047,0,0,1-1.048,1.1h0a1.047,1.047,0,0,1-1.036-.887l-5.2-33.313Z" transform="translate(-2174.764 62.362)" fill="#7d97f4"/>
          <path id="Path_171997" data-name="Path 171997" d="M2181.072-57.573l0,.261a3.561,3.561,0,0,0,3.629,3.456l24.029.409a3.593,3.593,0,0,0,3.761-3.26l.012-.239a3.548,3.548,0,0,0-3.621-3.593l-24.039-.431A3.578,3.578,0,0,0,2181.072-57.573Z" transform="translate(-2181.069 60.971)" fill="#7d97f4"/>
        </g>
        <g id="Group_112053" data-name="Group 112053" transform="translate(7.137 37.2)">
          <g id="Group_112050" data-name="Group 112050" transform="translate(36.433 105.11)">
            <path id="Path_171998" data-name="Path 171998" d="M2220.17-32.628c-4.271,0-6.162-.367-7.006-.7a1.62,1.62,0,0,0,1.579,1.256h15.111a.734.734,0,0,0,.708-.928C2228.84-32.863,2225.182-32.628,2220.17-32.628Z" transform="translate(-2213.121 36.992)" fill="#91b3fa"/>
            <path id="Path_171999" data-name="Path 171999" d="M2230.573-32.034a.7.7,0,0,0-.124-.257c-1.151-1.47-3.462-3.778-6.608-3.733-4.608.064-6.214.564-9.795.027l-.845,2.8a1.618,1.618,0,0,0-.026.834c.845.334,2.735.7,7.006.7C2225.193-31.66,2228.851-31.9,2230.573-32.034Z" transform="translate(-2213.133 36.024)" fill="#204470"/>
          </g>
          <path id="Path_172000" data-name="Path 172000" d="M2214.842-38.224,2213.8-34.7a6.094,6.094,0,0,0,4.317.207l.4-3.056Z" transform="translate(-2176.458 140.346)" fill="url(#linear-gradient-16)"/>
          <g id="Group_112051" data-name="Group 112051" transform="translate(62.217 100.012)">
            <path id="Path_172001" data-name="Path 172001" d="M2239.174-32.652c-3.331,2.676-5.032,3.574-5.9,3.844a1.618,1.618,0,0,0,2.013-.015l11.78-9.465a.732.732,0,0,0-.026-1.163C2245.785-38.264,2243.079-35.791,2239.174-32.652Z" transform="translate(-2231.688 39.894)" fill="#91b3fa"/>
            <path id="Path_172002" data-name="Path 172002" d="M2247.461-39.333a.7.7,0,0,0-.257-.122c-1.814-.42-5.055-.762-7.479,1.242-3.552,2.937-4.492,4.331-7.618,6.157l1.087,2.7a1.579,1.579,0,0,0,.5.664c.867-.27,2.569-1.169,5.9-3.844C2243.5-35.673,2246.2-38.146,2247.461-39.333Z" transform="translate(-2232.107 39.777)" fill="#204470"/>
          </g>
          <path id="Path_172003" data-name="Path 172003" d="M2199.546-67.792s25.573,2.089,30.818,4.558-4.281,37.082-4.281,37.082-1.428.688-4.606-.3c0,0,3.259-25.543.834-31.082l-27.69-4.529Z" transform="translate(-2183.343 129.734)" fill="#204470"/>
          <path id="Path_172004" data-name="Path 172004" d="M2230.237-37.275c.238.217,2.541,4.862,2.541,4.862s2.564-.554,3.087-2.177l-2.307-4.193Z" transform="translate(-2170.561 140.145)" fill="url(#linear-gradient-17)"/>
          <path id="Path_172005" data-name="Path 172005" d="M2187.121-67.949a12.951,12.951,0,0,0-.8,4.669,7.01,7.01,0,0,0,6.69,6.86l30.232,1.379a1.449,1.449,0,0,1,1.339,1.09c.711,2.748,4.182,11.186,21.156,28.024a1.369,1.369,0,0,0,1.693.183l2.416-1.526a.557.557,0,0,0,.183-.751l-17.6-30.058a6.808,6.808,0,0,0-4.139-3.07l-25.766-6.586Z" transform="translate(-2186.321 129.678)" fill="#12263f"/>
          <path id="Path_172006" data-name="Path 172006" d="M2210.561-102.5s-3.238,5.726-6.54,8.5l6.826,3.808s1.538-6.061,5.051-7.837Z" transform="translate(-2179.969 117.277)" fill="url(#linear-gradient-18)"/>
          <path id="Path_172007" data-name="Path 172007" d="M2186.506-57.326s8.162,1.989,15.952,0c0,0,10.9-14.654,15.117-18.642a29.993,29.993,0,0,0,21.7,12.12l.836-1.866s-11.92-5.5-15.589-13.938-5.144-12.044-8.482-14.246c-2.079-1.372-3.324-2.309-3.968-2.821a1.07,1.07,0,0,0-1.224-.077C2207.3-94.639,2190.634-83.221,2186.506-57.326Z" transform="translate(-2186.255 119.269)" fill="#98f2f9"/>
          <path id="Path_172008" data-name="Path 172008" d="M2210.247-79.5a.521.521,0,0,1-.416-.2,32.543,32.543,0,0,1-4.106-7.282.523.523,0,0,1,.3-.675.522.522,0,0,1,.677.3,32.131,32.131,0,0,0,3.96,7.02.523.523,0,0,1-.1.734A.526.526,0,0,1,2210.247-79.5Z" transform="translate(-2179.37 122.592)" fill="#12263f"/>
          <path id="Path_172009" data-name="Path 172009" d="M2224.676-74.235l1.685-.448,5.117-1.185a2.369,2.369,0,0,1,1.8.3l4.4,2.768-12.149-.02Z" transform="translate(-2172.556 126.814)" fill="url(#linear-gradient-19)"/>
          <g id="Group_112052" data-name="Group 112052" transform="translate(22.172)">
            <path id="Path_172010" data-name="Path 172010" d="M2215.039-108.822s3.147,5.232,3.693,8.125,1.423,4.7-1.868,5.729a7.223,7.223,0,0,1-8.27-2.973s-3-4.154-2.7-6.057S2215.039-108.822,2215.039-108.822Z" transform="translate(-2201.476 115.01)" fill="url(#linear-gradient-20)"/>
            <path id="Path_172011" data-name="Path 172011" d="M2210.632-98.545l.425-.056s-2.228-3.367-.769-4.2,7.4-2.885,8.432-5.225a4.064,4.064,0,0,0-2.287-5.338.229.229,0,0,0-.275.144l-.106.284a.23.23,0,0,1-.427.014h0a.23.23,0,0,0-.419-.01c-.318.7-1.272,1.9-4.129,2.825-4.055,1.315-6.581,3.359-6.27,6.24a.23.23,0,0,1-.329.234c-.331-.147-.834-.169-1.418.469-1.014,1.11-.219,3.537,2.552,5.256a.23.23,0,0,1,.038.368c-.414.355-1,1.146.876,1.852a4.715,4.715,0,0,0,3.353.322.232.232,0,0,0,.141-.26l-.492-2.525a.231.231,0,0,1,.2-.273Z" transform="translate(-2202.638 113.375)" fill="#12263f"/>
            <path id="Path_172012" data-name="Path 172012" d="M2209.51-101.426s-1.389-3.424-2.848-2.22,1.35,3.863,2.644,3.828Z" transform="translate(-2201.341 116.775)" fill="url(#linear-gradient-21)"/>
          </g>
        </g>
        <g id="Group_112056" data-name="Group 112056" transform="translate(53.458 67.559)">
          <g id="Group_112054" data-name="Group 112054" transform="translate(0 23.696)">
            <path id="Path_172013" data-name="Path 172013" d="M2221.512-71.252h.06l25.957-.026a1.161,1.161,0,0,0,1.161-1.16,1.156,1.156,0,0,0-1.163-1.159l-25.958.026a1.162,1.162,0,0,0-1.16,1.162A1.162,1.162,0,0,0,2221.512-71.252Z" transform="translate(-2220.409 73.596)" fill="#28b5bd"/>
          </g>
          <g id="Group_112055" data-name="Group 112055" transform="translate(26.117)">
            <path id="Path_172014" data-name="Path 172014" d="M2250.684-90.413l-.026.053-10.921,23.548a1.16,1.16,0,0,0,.563,1.541,1.155,1.155,0,0,0,1.541-.567l10.921-23.547a1.16,1.16,0,0,0-.562-1.542A1.163,1.163,0,0,0,2250.684-90.413Z" transform="translate(-2239.628 91.034)" fill="#28b5bd"/>
          </g>
        </g>
        <g id="Group_112062" data-name="Group 112062" transform="translate(98.682 34.319)">
          <g id="Group_112057" data-name="Group 112057" transform="translate(43.939 76.307)">
            <rect id="Rectangle_36840" data-name="Rectangle 36840" width="2.74" height="29.627" transform="translate(13.241 6.638)" fill="#83d1d6"/>
            <path id="Path_172015" data-name="Path 172015" d="M2311.94-31.762h-23.994a1.784,1.784,0,0,1,1.783-1.784h20.428a1.783,1.783,0,0,1,1.783,1.784Z" transform="translate(-2285.333 68.598)" fill="#83d1d6"/>
            <rect id="Rectangle_36841" data-name="Rectangle 36841" width="30.169" height="8.556" rx="2.168" fill="#83d1d6"/>
          </g>
          <g id="Group_112058" data-name="Group 112058" transform="translate(2.943 57.627)">
            <path id="Path_172016" data-name="Path 172016" d="M2284.447-68.993A23.83,23.83,0,0,0,2275.8-65.3a2.28,2.28,0,0,0-1.007,2.18,96.725,96.725,0,0,0,10.232,32.117,3.454,3.454,0,0,1,.332,2.37l-1.291,6.009-2.395,2.245h6.167l4.1-11.112-1.755-.556a3.321,3.321,0,0,1-2.32-3.109l-.205-11.92a13.567,13.567,0,0,0-3.256-8.974l9.848-.478Z" transform="translate(-2249.066 74.558)" fill="url(#linear-gradient-22)"/>
            <path id="Path_172017" data-name="Path 172017" d="M2278.086-29.048c-.561.735,6.044,1.705,9.381.1,0,0,4.627-8.05,4.627-12.195,0,0-.367-.845-3.084-.654,0,0-1.553,9.531-3.193,10.6s-4.589.107-4.589.107A9.662,9.662,0,0,0,2278.086-29.048Z" transform="translate(-2247.889 84.307)" fill="#12263f"/>
            <path id="Path_172018" data-name="Path 172018" d="M2299.048-56.281c-.053-.091-10.6-1.269-10.6-1.269a24.39,24.39,0,0,1-.733,7.625c-1.079,4.416-16.57,23.548-16.57,23.548l1.625,5.149a26.123,26.123,0,0,1-14.824.893l10.067-6.042s9.421-32.1,15.191-37.831l10.576-3.658Z" transform="translate(-2255.106 74.962)" fill="url(#linear-gradient-23)"/>
            <path id="Path_172019" data-name="Path 172019" d="M2316.01-73.088s6.08,9.042,6.578,13.166-1.666,5.8-8.043,6.076-23.405.272-23.405.272l-14.533-12.419s10.591-3.779,13.344-4.848S2316.01-73.088,2316.01-73.088Z" transform="translate(-2248.407 73.088)" fill="#204470"/>
            <path id="Path_172020" data-name="Path 172020" d="M2272.9-34.822s1.749,1.695.567,3.579c0,0-13.852,2.454-17.612,1.341,0,0,.78-1.783,5.016-3.812l-.312.239a.506.506,0,0,0,.334.908C2263.684-32.725,2269.458-33.236,2272.9-34.822Z" transform="translate(-2255.855 86.821)" fill="#12263f"/>
          </g>
          <g id="Group_112060" data-name="Group 112060" transform="translate(32.983)">
            <path id="Path_172021" data-name="Path 172021" d="M2287.379-115.208c12.427-2.112,18.277,8.023,17.849,10.152a.389.389,0,0,0,.487.446c1.427-.383,4.579-.868,6.533,1.58,1.724,2.161.435,4.2-.616,5.32a.392.392,0,0,0,.327.663c2.623-.332,8.322-.41,9.254,4.929.87,4.979-2.6,6.383-4.65,6.778a.39.39,0,0,0-.13.713c1.026.651,2.214,1.995,1.732,4.647-.751,4.157-8.9,3.817-9.856,3.763a.4.4,0,0,1-.17-.05l-13.055-7.447a.4.4,0,0,1-.193-.273l-2.635-15.222a.39.39,0,0,1,.1-.34l-8.511-12.011C2280.76-112.013,2287.234-115.182,2287.379-115.208Z" transform="translate(-2276.148 115.496)" fill="#12263f"/>
            <path id="Path_172022" data-name="Path 172022" d="M2296.824-65.314a138.745,138.745,0,0,1-10.564-11.2,9.475,9.475,0,0,1-1.6-8.526c1.592-5.359,4.418-10.91,4.676-11.775.4-1.324,8.333-1.269,8.333-1.269s15.617,10.137,21.754,27.308l-6.891,2.146a80.49,80.49,0,0,0-8.108-11.192s6.973,9.21,7.218,12.981Z" transform="translate(-2275.7 121.743)" fill="#28b5bd"/>
            <path id="Path_172023" data-name="Path 172023" d="M2287.287-101.608c.083.274,2.155,7.142,2.316,7.285s4.544.378,6.606-1.031l-5.115-10.005Z" transform="translate(-2274.615 119.133)" fill="url(#linear-gradient-24)"/>
            <g id="Group_112059" data-name="Group 112059" transform="translate(0 1.238)">
              <path id="Path_172024" data-name="Path 172024" d="M2281.223-108.416s-1,3.934,1.768,9.225,5.905,5.286,7.62,3.592a11.162,11.162,0,0,0,3.325-9.683C2293.435-110.4,2282.668-113.423,2281.223-108.416Z" transform="translate(-2276.855 115.879)" fill="url(#linear-gradient-25)"/>
              <path id="Path_172025" data-name="Path 172025" d="M2291.212-103.71s-4.6-7.025-8.906-1.5l-.077,2.011s-5.047-.6-4.164-5.228,5.245-7.521,10.863-5.517,8.836,4.062,9.2,8.087-2.84,3.143-2.84,3.143-1.045-2.835-2.53-3.13-1.1,1.916-1.1,1.916Z" transform="translate(-2277.962 114.585)" fill="#12263f"/>
              <path id="Path_172026" data-name="Path 172026" d="M2288.854-105.547s-2.384-3.6.058-4.134,2.063,3.506,1.8,5Z" transform="translate(-2274.427 116.327)" fill="url(#linear-gradient-26)"/>
            </g>
            <path id="Path_172027" data-name="Path 172027" d="M2282.894-72.024l5.2-5.013L2295.29-74s7.161,1.11,11.261,0l4.1-1.109,9.262-2.884,1.455,4.111a2.476,2.476,0,0,1-.905,2.844,16.251,16.251,0,0,1-2.339,1.457c-1.22.534-30.069-.368-30.069-.368Z" transform="translate(-2276.191 128.955)" fill="url(#linear-gradient-27)"/>
          </g>
          <g id="Group_112061" data-name="Group 112061" transform="translate(0 31.902)">
            <path id="Path_172028" data-name="Path 172028" d="M2305.72-71.139h-.069l-30.169-.033a1.351,1.351,0,0,1-1.348-1.352,1.343,1.343,0,0,1,1.352-1.349l30.168.033a1.352,1.352,0,0,1,1.35,1.352A1.352,1.352,0,0,1,2305.72-71.139Z" transform="translate(-2246.352 98.531)" fill="url(#linear-gradient-28)"/>
            <path id="Path_172029" data-name="Path 172029" d="M2255.7-92.019h25.125a4.788,4.788,0,0,1,4.331,2.746l11.616,24.63h-31.224a2.909,2.909,0,0,1-2.707-1.841l-9.007-22.791A2.006,2.006,0,0,1,2255.7-92.019Z" transform="translate(-2253.689 92.019)" fill="url(#linear-gradient-29)"/>
            <path id="Path_172030" data-name="Path 172030" d="M2269.252-82.062c.545,1.692.143,3.335-.9,3.67s-2.325-.765-2.87-2.457-.143-3.335.9-3.669S2268.709-83.753,2269.252-82.062Z" transform="translate(-2249.543 94.69)" fill="#7d97f4"/>
          </g>
        </g>
        <g id="Group_112066" data-name="Group 112066" transform="translate(157.704 7.147)">
          <g id="Group_112063" data-name="Group 112063" transform="translate(18.431 66.095)">
            <path id="Path_172031" data-name="Path 172031" d="M2327-34.635a36.571,36.571,0,0,1,.441,3.846,1.656,1.656,0,0,1-1.493,1.748c-3.087.3-10.117.852-14.605.205a.754.754,0,0,1-.413-1.3,23.309,23.309,0,0,1,13.676-5.811Z" transform="translate(-2310.688 105.122)" fill="url(#linear-gradient-30)"/>
            <path id="Path_172032" data-name="Path 172032" d="M2325.227-37.461l-1.562,3.827a1.275,1.275,0,0,1-1.308.792,7.074,7.074,0,0,1-1.276-.247,1.676,1.676,0,0,1-1.115-2.083l1.179-3.942Z" transform="translate(-2307.383 103.984)" fill="url(#linear-gradient-31)"/>
            <path id="Path_172033" data-name="Path 172033" d="M2344.633-32.738a16.394,16.394,0,0,0-4.346,5.971,1.427,1.427,0,0,0,1.356,1.894h6.433a1.518,1.518,0,0,0,1.5-1.773C2349.166-28.963,2347.984-32.728,2344.633-32.738Z" transform="translate(-2300.095 106.272)" fill="url(#linear-gradient-32)"/>
            <path id="Path_172034" data-name="Path 172034" d="M2347.579-35.118s-.632,2.8-1.117,4.643a.591.591,0,0,1-.773.4,5.382,5.382,0,0,0-2.342-.425.455.455,0,0,1-.5-.454l-.06-4.643Z" transform="translate(-2299.168 105.247)" fill="url(#linear-gradient-33)"/>
            <path id="Path_172035" data-name="Path 172035" d="M2339.1-79.619,2320.082-21.6s3.647,2.389,5.385,2.288l22.587-46.623s3.953,28.728,2.037,49.352l6.47.495s10.521-52.707,2.552-70.759Z" transform="translate(-2307.316 86.852)" fill="#204470"/>
            <path id="Path_172036" data-name="Path 172036" d="M2340.82-70.187h.023a.185.185,0,0,0,.16-.207l-.738-5.857a.187.187,0,0,0-.206-.16.185.185,0,0,0-.159.207l.738,5.857A.184.184,0,0,0,2340.82-70.187Z" transform="translate(-2300.204 90.598)" fill="#28b5bd"/>
          </g>
          <path id="Path_172037" data-name="Path 172037" d="M2336.342-119.1s15.407,1.368,13.228,12.347a149.653,149.653,0,0,1,12.5,34.907,1.109,1.109,0,0,1-.9,1.319l-25.658,4.393a1.383,1.383,0,0,1-1.571-1.015l-6.13-23.693-2.389,11.015-7.591-1.977,6.389-32.37S2325.11-118.893,2336.342-119.1Z" transform="translate(-2289.693 141.375)" fill="#f6bf28"/>
          <path id="Path_172038" data-name="Path 172038" d="M2325.692-96.388a.209.209,0,0,0,.041,0,.191.191,0,0,0,.146-.227l-2.137-9.821a.193.193,0,0,0-.229-.147.191.191,0,0,0-.145.227l2.139,9.821A.19.19,0,0,0,2325.692-96.388Z" transform="translate(-2287.708 145.863)" fill="#bd8e12"/>
          <path id="Path_172039" data-name="Path 172039" d="M2327.619-73.114a3.659,3.659,0,0,1,2.648-.344l1.786.444a.648.648,0,0,0,.8-.556l1.848-16.442c2.309,1.1,5.642.965,6.74.885l-4.25,19.386h-14.88Z" transform="translate(-2288.085 151.813)" fill="url(#linear-gradient-34)"/>
          <path id="Path_172040" data-name="Path 172040" d="M2297.124-100.87l.45-1.495a2.961,2.961,0,0,1,1.728-1.892l8.134-3.271s.123-1.044-1.719-1.752a2.448,2.448,0,0,1-1.411-2.772s2.515,1.148,6.2,2.968a8.623,8.623,0,0,1,3.915,4.263l18.43,22.468-2.164,1.488a5.779,5.779,0,0,1-8.376-2.056l-9.985-19.147A37.236,37.236,0,0,1,2297.124-100.87Z" transform="translate(-2297.124 143.904)" fill="url(#linear-gradient-35)"/>
          <g id="Group_112065" data-name="Group 112065" transform="translate(23.879)">
            <path id="Path_172041" data-name="Path 172041" d="M2329.076-126.769l4.739,13.263s-4.2,3.28-7.258,2.171l-2.389-7.6S2325.991-128.23,2329.076-126.769Z" transform="translate(-2311.297 138.566)" fill="url(#linear-gradient-36)"/>
            <g id="Group_112064" data-name="Group 112064">
              <path id="Path_172042" data-name="Path 172042" d="M2317.372-129.618c0,.2,4.564,12.922,4.564,12.922l7.206-2.76-2.536-12.7S2317.372-133.04,2317.372-129.618Z" transform="translate(-2313.736 136.652)" fill="url(#linear-gradient-37)"/>
              <path id="Path_172043" data-name="Path 172043" d="M2326.3-127.9l1.859,6.58a.964.964,0,0,1,.036.257c0,.537-.132,2.383-2.013,2.132-1.707-.228-3.268-.41-4.26.057a.953.953,0,0,0-.492,1.186,41.162,41.162,0,0,0,2.6,5.858.952.952,0,0,0,1.224.393,30.764,30.764,0,0,0,6.179-3.635.958.958,0,0,0,.338-.917c-.316-1.682-1.257-6.8-1.3-8.269-.039-1.377,1.506-2.427,2.185-2.822a.942.942,0,0,0,.443-.594,2.476,2.476,0,0,0-2.163-3.335.955.955,0,0,1-.776-1.137,2.48,2.48,0,0,0-1.865-3.193,3.5,3.5,0,0,0-3.989,1.591.957.957,0,0,1-1.185.317.755.755,0,0,0-.847.151.938.938,0,0,1-1.375-.209,2.852,2.852,0,0,0-3.515-1.16c-3.256,1.053-3.1,4.808-1.906,6.847s4.658.7,6.3-.654c1.247-1.029,3.146-.413,3.984-.06A.949.949,0,0,1,2326.3-127.9Z" transform="translate(-2314.696 135.491)" fill="#e86038"/>
              <path id="Path_172044" data-name="Path 172044" d="M2327.073-124.019s-1.927-3.645-.652-4.789,3.433-.958,3.374,1.893C2329.723-123.369,2327.073-124.019,2327.073-124.019Z" transform="translate(-2310.645 137.654)" fill="url(#linear-gradient-38)"/>
            </g>
          </g>
          <path id="Path_172045" data-name="Path 172045" d="M2336.969-82.183a18.846,18.846,0,0,0,1.883-.088l.137-.016,5.61-26.156a.191.191,0,0,0-.147-.227.191.191,0,0,0-.227.147l-5.551,25.885c-.836.073-5.294.368-7.648-1.3l4.861-22.725-1.015-1.912a.192.192,0,0,0-.258-.079.19.19,0,0,0-.079.258l.948,1.79L2330.6-83.775l.1.073C2332.4-82.424,2335.14-82.183,2336.969-82.183Z" transform="translate(-2285.109 145.115)" fill="#bd8e12"/>
        </g>
        <g id="Group_112067" data-name="Group 112067" transform="translate(40.402 95.677)">
          <path id="Path_172046" data-name="Path 172046" d="M2211.778-16.191a.9.9,0,0,1-.386-.088,1.1,1.1,0,0,1-.511-1.4l20.5-52.016a.95.95,0,0,1,1.285-.559,1.107,1.107,0,0,1,.511,1.4l-20.5,52.015A.977.977,0,0,1,2211.778-16.191Z" transform="translate(-2210.801 70.342)" fill="url(#linear-gradient-39)"/>
          <path id="Path_172047" data-name="Path 172047" d="M2234.187-16.191a.979.979,0,0,1-.9-.647l-20.5-52.015a1.108,1.108,0,0,1,.511-1.4.951.951,0,0,1,1.286.559l20.5,52.016a1.1,1.1,0,0,1-.512,1.4A.894.894,0,0,1,2234.187-16.191Z" transform="translate(-2210.116 70.342)" fill="url(#linear-gradient-40)"/>
          <path id="Path_172048" data-name="Path 172048" d="M2314.164-16.191a.9.9,0,0,1-.386-.088,1.1,1.1,0,0,1-.511-1.4l20.5-52.016a.949.949,0,0,1,1.284-.559,1.107,1.107,0,0,1,.512,1.4l-20.5,52.015A.978.978,0,0,1,2314.164-16.191Z" transform="translate(-2174.057 70.342)" fill="url(#linear-gradient-41)"/>
          <path id="Path_172049" data-name="Path 172049" d="M2336.573-16.191a.979.979,0,0,1-.9-.647l-20.5-52.015a1.108,1.108,0,0,1,.512-1.4.95.95,0,0,1,1.285.559l20.5,52.016a1.1,1.1,0,0,1-.512,1.4A.892.892,0,0,1,2336.573-16.191Z" transform="translate(-2173.372 70.342)" fill="url(#linear-gradient-42)"/>
        </g>
        <g id="Group_112068" data-name="Group 112068" transform="translate(176.629 88.892)">
          <path id="Path_172050" data-name="Path 172050" d="M2311.717-71.761h29.691v-3.064h-29.691C2312.353-74.825,2312.353-71.761,2311.717-71.761Z" transform="translate(-2310.812 75.518)" fill="#91b3fa"/>
          <path id="Path_172051" data-name="Path 172051" d="M2341.369-71.578a.279.279,0,0,0,.278-.279v-2.507a.279.279,0,0,0-.278-.279H2311.33a.279.279,0,0,1-.279-.279v-.136a.279.279,0,0,1,.279-.279h32.019a1.281,1.281,0,0,1,1.281,1.283v1.958a1.209,1.209,0,0,1-1.209,1.209H2311.33a.28.28,0,0,1-.279-.28V-71.3a.279.279,0,0,1,.279-.279Z" transform="translate(-2311.051 75.335)" fill="url(#linear-gradient-43)"/>
        </g>
        <path id="Path_172052" data-name="Path 172052" d="M2384.712-70.683a.9.9,0,0,0-.371-.965,2.2,2.2,0,0,0-1.357-.424H2205.074a2.407,2.407,0,0,0-1.706.62.967.967,0,0,0-.133,1.287l1.928,2.768a3.009,3.009,0,0,0,2.451,1.04h174.148a2.006,2.006,0,0,0,2.007-1.1Z" transform="translate(-2173.181 165.398)" fill="url(#linear-gradient-44)"/>
      </g>
    </g>
  </g>
</svg>
