<svg xmlns="http://www.w3.org/2000/svg" width="400" height="330" viewBox="0 0 400 330">
  <g id="t2-i3" transform="translate(-1243 357)">
    <rect id="Rectángulo_36715" data-name="Rectángulo 36715" width="400" height="330" transform="translate(1243 -357)" fill="none"/>
    <g id="Group_111227" data-name="Group 111227">
      <path id="Path_170643" data-name="Path 170643" d="M1598.015-57.658c-.083.469,10.332-4.139,11.294-4.872a37.918,37.918,0,0,0,9.522-11.392C1624.495-84.083,1629-96.84,1632.273-108c3.437-11.721,4.381-24.822-1.012-35.781-6.365-12.933-18.293-21.031-22.45-35.32-5.29-18.181-1.569-37.206-4.156-55.732-2.719-19.468-11.026-37.987-22.822-53.632-8.048-10.674-18.006-20.313-30.29-25.588-25.317-10.874-56.513-2.015-79.959,9.722-16.428,8.223-31.579,19.045-48.734,25.8-18.375,7.237-37.186,5.811-56.461,7.793-15.085,1.551-31.053,6.668-39.707,19.121-7.009,10.085-8.226,23.612-16.338,32.833-7.417,8.431-19.182,11.634-27.646,19.014-27.167,23.686-22.423,78.7-12.785,108.916,2.882,9.035,6.784,18.012,13.417,24.789,8.285,8.465,20.759,13.986,32.51,12.5H1597.3S1598.014-57.651,1598.015-57.658Z" fill="#e9fbfc"/>
      <ellipse id="Ellipse_5509" data-name="Ellipse 5509" cx="172.603" cy="13.943" rx="172.603" ry="13.943" transform="translate(1270.661 -55.974)" fill="#8fe5eb"/>
      <g id="Group_111207" data-name="Group 111207">
        <path id="Path_170644" data-name="Path 170644" d="M1349.028-94.855a.473.473,0,0,0,.1,0,.493.493,0,0,0,.419-.556c-9.876-70.388-20.971-120.716-31.242-141.714-.228-.466-.393-.8-.45-.969a.492.492,0,0,0-.626-.306.492.492,0,0,0-.306.625,11.583,11.583,0,0,0,.5,1.083c10.226,20.907,21.289,71.13,31.151,141.418A.493.493,0,0,0,1349.028-94.855Z" fill="#ffd8cc"/>
        <path id="Path_170645" data-name="Path 170645" d="M1309.639-242c1.234,2.369,8.5,7.486,9.173,7.134s.641-9.237-.594-11.606a4.837,4.837,0,0,0-6.525-2.054A4.837,4.837,0,0,0,1309.639-242Z" fill="#ffd8cc"/>
        <path id="Path_170646" data-name="Path 170646" d="M1323.826-233.2c-1.176,2.468-.884,11.552-.18,11.887s7.941-5.163,9.116-7.631a4.949,4.949,0,0,0-2.34-6.6A4.948,4.948,0,0,0,1323.826-233.2Z" fill="#ffd8cc"/>
        <path id="Path_170647" data-name="Path 170647" d="M1312.074-219.2c2.669.59,11.455-1.74,11.623-2.5s-6.82-6.574-9.489-7.164a4.949,4.949,0,0,0-5.9,3.766A4.947,4.947,0,0,0,1312.074-219.2Z" fill="#ffd8cc"/>
        <path id="Path_170648" data-name="Path 170648" d="M1340.066-185.052c-2.408,3.906-3.565,19.118-2.45,19.805s14.185-7.181,16.593-11.086a8.308,8.308,0,0,0-2.713-11.431A8.307,8.307,0,0,0,1340.066-185.052Z" fill="#ffd8cc"/>
        <path id="Path_170649" data-name="Path 170649" d="M1317.923-163.815c4.347,1.467,19.429-.831,19.848-2.072s-10.191-12.2-14.538-13.67a8.307,8.307,0,0,0-10.526,5.216A8.307,8.307,0,0,0,1317.923-163.815Z" fill="#ffd8cc"/>
        <path id="Path_170650" data-name="Path 170650" d="M1349.266-166.415c-3.926,4.014-9.405,21.861-8.26,22.981s18.868-4.751,22.794-8.764a10.166,10.166,0,0,0-.159-14.375A10.165,10.165,0,0,0,1349.266-166.415Z" fill="#ffd8cc"/>
        <path id="Path_170651" data-name="Path 170651" d="M1318.049-138.963c5.477,1.238,23.546-3.458,23.9-5.021s-13.941-13.572-19.417-14.81a10.166,10.166,0,0,0-12.156,7.675A10.164,10.164,0,0,0,1318.049-138.963Z" fill="#ffd8cc"/>
        <path id="Path_170652" data-name="Path 170652" d="M1353.186-143.354c-3.926,4.014-9.405,21.861-8.259,22.981s18.867-4.751,22.793-8.764a10.166,10.166,0,0,0-.159-14.376A10.166,10.166,0,0,0,1353.186-143.354Z" fill="#ffd8cc"/>
        <path id="Path_170653" data-name="Path 170653" d="M1321.97-115.9c5.476,1.237,23.545-3.459,23.9-5.022s-13.941-13.572-19.417-14.809a10.165,10.165,0,0,0-12.156,7.675A10.166,10.166,0,0,0,1321.97-115.9Z" fill="#ffd8cc"/>
        <path id="Path_170654" data-name="Path 170654" d="M1364.94-113.325c-5.158,2.215-17.022,16.63-16.39,18.1s19.255,2.794,24.413.579A10.165,10.165,0,0,0,1378.292-108,10.164,10.164,0,0,0,1364.94-113.325Z" fill="#ffd8cc"/>
        <path id="Path_170655" data-name="Path 170655" d="M1325.085-93.21c5.278,1.912,23.793-.488,24.338-2s-12.134-15.208-17.413-17.121a10.166,10.166,0,0,0-13.02,6.095A10.166,10.166,0,0,0,1325.085-93.21Z" fill="#ffd8cc"/>
        <path id="Path_170656" data-name="Path 170656" d="M1328.814-218.216c-1.194,2.507-.9,11.737-.182,12.078s8.068-5.247,9.262-7.754a5.029,5.029,0,0,0-2.378-6.7A5.029,5.029,0,0,0,1328.814-218.216Z" fill="#ffd8cc"/>
        <path id="Path_170657" data-name="Path 170657" d="M1317.2-203.77c2.712.6,11.638-1.768,11.809-2.542s-6.928-6.679-9.64-7.278a5.027,5.027,0,0,0-5.994,3.826A5.028,5.028,0,0,0,1317.2-203.77Z" fill="#ffd8cc"/>
        <path id="Path_170658" data-name="Path 170658" d="M1334.963-204.072c-1.982,3.411-2.639,16.514-1.666,17.08s12.035-6.488,14.018-9.9a7.143,7.143,0,0,0-2.586-9.766A7.144,7.144,0,0,0,1334.963-204.072Z" fill="#ffd8cc"/>
        <path id="Path_170659" data-name="Path 170659" d="M1316.7-183.8c3.853.851,16.534-2.512,16.777-3.611s-9.844-9.49-13.7-10.34a7.144,7.144,0,0,0-8.516,5.435A7.144,7.144,0,0,0,1316.7-183.8Z" fill="#ffd8cc"/>
      </g>
      <g id="Group_111208" data-name="Group 111208">
        <path id="Path_170660" data-name="Path 170660" d="M1546.774-139.83a.574.574,0,0,1-.122-.024.616.616,0,0,1-.414-.766c25.419-85.137,58.579-177.254,75.215-201.277.369-.534.636-.919.738-1.114a.617.617,0,0,1,.83-.261.617.617,0,0,1,.262.831,14.789,14.789,0,0,1-.818,1.245c-16.563,23.919-49.664,115.912-75.047,200.928A.616.616,0,0,1,1546.774-139.83Z" fill="#fff1cc"/>
        <path id="Path_170661" data-name="Path 170661" d="M1633.077-346.3c-1.971,2.7-11.906,7.658-12.676,7.1s.941-11.536,2.912-14.232a6.049,6.049,0,0,1,8.451-1.314A6.048,6.048,0,0,1,1633.077-346.3Z" fill="#fff1cc"/>
        <path id="Path_170662" data-name="Path 170662" d="M1613.89-338.073c.989,3.27-1.076,14.443-2.01,14.725s-8.844-7.873-9.833-11.143a6.188,6.188,0,0,1,4.13-7.713A6.187,6.187,0,0,1,1613.89-338.073Z" fill="#fff1cc"/>
        <path id="Path_170663" data-name="Path 170663" d="M1625.785-318.564c-3.409.227-13.83-4.3-13.894-5.274s9.662-6.845,13.071-7.072a6.186,6.186,0,0,1,6.584,5.761A6.187,6.187,0,0,1,1625.785-318.564Z" fill="#fff1cc"/>
        <path id="Path_170664" data-name="Path 170664" d="M1584.781-281.621c2.242,5.279.817,24.3-.689,24.936s-16.184-11.537-18.426-16.816a10.383,10.383,0,0,1,5.5-13.617A10.384,10.384,0,0,1,1584.781-281.621Z" fill="#fff1cc"/>
        <path id="Path_170665" data-name="Path 170665" d="M1608.16-251.218c-5.647,1-23.856-4.674-24.14-6.287s14.885-13.169,20.533-14.165a10.384,10.384,0,0,1,12.03,8.422A10.384,10.384,0,0,1,1608.16-251.218Z" fill="#fff1cc"/>
        <path id="Path_170666" data-name="Path 170666" d="M1569.913-260.315c4.1,5.7,7.519,28.783,5.893,29.953s-22.426-9.414-26.525-15.111a12.707,12.707,0,0,1,2.9-17.736A12.708,12.708,0,0,1,1569.913-260.315Z" fill="#fff1cc"/>
        <path id="Path_170667" data-name="Path 170667" d="M1603.339-220.527c-7,.5-28.45-8.694-28.593-10.692s19.777-14.157,26.778-14.658a12.706,12.706,0,0,1,13.582,11.767A12.708,12.708,0,0,1,1603.339-220.527Z" fill="#fff1cc"/>
        <path id="Path_170668" data-name="Path 170668" d="M1560.738-232.55c4.1,5.7,7.52,28.783,5.894,29.952s-22.426-9.413-26.525-15.11A12.709,12.709,0,0,1,1543-235.445,12.708,12.708,0,0,1,1560.738-232.55Z" fill="#fff1cc"/>
        <path id="Path_170669" data-name="Path 170669" d="M1594.165-192.763c-7,.5-28.45-8.694-28.593-10.692s19.777-14.157,26.777-14.658a12.708,12.708,0,0,1,13.583,11.767A12.707,12.707,0,0,1,1594.165-192.763Z" fill="#fff1cc"/>
        <path id="Path_170670" data-name="Path 170670" d="M1540.575-197.645c5.959,3.707,17.916,23.749,16.858,25.45s-24.321-.162-30.281-3.868a12.708,12.708,0,0,1-4.079-17.5A12.708,12.708,0,0,1,1540.575-197.645Z" fill="#fff1cc"/>
        <path id="Path_170671" data-name="Path 170671" d="M1586.055-165.3c-6.882,1.373-29.313-5.069-29.705-7.034s17.852-16.518,24.735-17.89a12.707,12.707,0,0,1,14.947,9.977A12.707,12.707,0,0,1,1586.055-165.3Z" fill="#fff1cc"/>
        <path id="Path_170672" data-name="Path 170672" d="M1604.912-320.5c1.005,3.322-1.093,14.674-2.041,14.961s-8.986-8-9.991-11.322a6.286,6.286,0,0,1,4.2-7.836A6.285,6.285,0,0,1,1604.912-320.5Z" fill="#fff1cc"/>
        <path id="Path_170673" data-name="Path 170673" d="M1616.549-300.463c-3.464.231-14.051-4.37-14.117-5.358s9.817-6.954,13.281-7.185a6.286,6.286,0,0,1,6.69,5.853A6.286,6.286,0,0,1,1616.549-300.463Z" fill="#fff1cc"/>
        <path id="Path_170674" data-name="Path 170674" d="M1594.658-304.17c1.81,4.588.162,20.9-1.148,21.422s-13.655-10.278-15.466-14.866a8.93,8.93,0,0,1,5.029-11.584A8.93,8.93,0,0,1,1594.658-304.17Z" fill="#fff1cc"/>
        <path id="Path_170675" data-name="Path 170675" d="M1613.421-275.692c-4.921.328-19.962-6.208-20.056-7.612s13.947-9.88,18.868-10.208a8.931,8.931,0,0,1,9.505,8.316A8.93,8.93,0,0,1,1613.421-275.692Z" fill="#fff1cc"/>
      </g>
      <g id="Group_111209" data-name="Group 111209">
        <path id="Path_170676" data-name="Path 170676" d="M1353.614-49.984s45.139-63.79-76.223-122.327C1277.391-172.311,1267.923-33.855,1353.614-49.984Z" fill="#28b5bd"/>
        <path id="Path_170677" data-name="Path 170677" d="M1277.25-172.542l80.579,113.653C1365.308-78.274,1371.677-127,1277.25-172.542Z" fill="#98f2f9"/>
        <path id="Path_170678" data-name="Path 170678" d="M1354.427-63.421a.265.265,0,0,1-.218-.113l-77.177-108.854a.268.268,0,0,1,.064-.373.268.268,0,0,1,.373.064l77.176,108.854a.267.267,0,0,1-.063.373A.269.269,0,0,1,1354.427-63.421Z" fill="#12263f"/>
        <path id="Path_170679" data-name="Path 170679" d="M1317.54-115.448a.284.284,0,0,1-.058-.006l-36.181-8.057a.268.268,0,0,1-.2-.319.272.272,0,0,1,.32-.2l36.18,8.057a.268.268,0,0,1,.2.319A.268.268,0,0,1,1317.54-115.448Z" fill="#12263f"/>
        <path id="Path_170680" data-name="Path 170680" d="M1334.071-92.131a.267.267,0,0,1-.265-.236l-4.173-36.147a.268.268,0,0,1,.235-.3.271.271,0,0,1,.3.235l4.173,36.147a.268.268,0,0,1-.236.3Z" fill="#12263f"/>
      </g>
      <g id="Group_111210" data-name="Group 111210">
        <path id="Path_170681" data-name="Path 170681" d="M1333.9-54.19s9.245-55.505-87.778-55.373C1246.123-109.563,1283.421-16.854,1333.9-54.19Z" fill="#f6bf28"/>
        <path id="Path_170682" data-name="Path 170682" d="M1246.123-109.563,1333.9-54.19S1291.294-11.232,1246.123-109.563Z" fill="#e0aa16"/>
        <path id="Path_170683" data-name="Path 170683" d="M1265.879-85.369a.3.3,0,0,0,.042.007l23.8,2.611a.328.328,0,0,0,.363-.29.33.33,0,0,0-.291-.362l-23.8-2.611a.327.327,0,0,0-.362.29A.328.328,0,0,0,1265.879-85.369Z" fill="#12263f"/>
        <path id="Path_170684" data-name="Path 170684" d="M1292.744-60.072a.3.3,0,0,0,.074.009l31.691.278a.328.328,0,0,0,.331-.325.327.327,0,0,0-.326-.331l-31.69-.278a.327.327,0,0,0-.331.325A.328.328,0,0,0,1292.744-60.072Z" fill="#12263f"/>
      </g>
      <path id="Path_170685" data-name="Path 170685" d="M1528.8-305.79a1.188,1.188,0,0,1,.753.193c.237.2.275.545.407.826.38.811,1.43.977,2.311,1.139s1.928.652,1.916,1.547a1.7,1.7,0,0,0,.005.609.807.807,0,0,0,.235.31,12.334,12.334,0,0,0,2.127,1.194,2.018,2.018,0,0,1,1.172,1.963c-.079.375-.329.7-.381,1.081a2.18,2.18,0,0,0,.742,1.6l2.241,2.575a2.16,2.16,0,0,1,.645,1.167c.066.819-.779,1.429-.962,2.23-.224.982.58,1.883.8,2.867a2.625,2.625,0,0,1-2,3.027,2.2,2.2,0,0,0-.9.245c-.411.293-.428.881-.524,1.376a3.245,3.245,0,0,1-2.02,2.378c-2.005.742-4.138-.632-6.27-.8a31.528,31.528,0,0,0-3.89.318,8.652,8.652,0,0,1-4.4-.971,1.26,1.26,0,0,1-.41-.3c-.265-.329-.167-.808-.223-1.227-.168-1.246-1.633-1.8-2.865-2.053s-2.7-.654-3.055-1.861c-.187-.638.012-1.35-.212-1.976-.271-.76-1.082-1.191-1.485-1.888a3.468,3.468,0,0,1,.285-3.206,8.319,8.319,0,0,0,1.229-3.094,17.186,17.186,0,0,0-.239-2.205,2.131,2.131,0,0,1,.739-1.982c.754-.493,1.769-.125,2.648-.324,2.059-.466,2.559-3.7,4.642-4.054a5.931,5.931,0,0,1,1.242.012,8.95,8.95,0,0,0,2.983-.614A9.188,9.188,0,0,1,1528.8-305.79Z" fill="#12263f"/>
      <g id="Group_111211" data-name="Group 111211">
        <path id="Path_170686" data-name="Path 170686" d="M1529-184.614s.628,6.751-.756,7.505c-2.505,1.366-7.116,2.65-6.741,3.843s11.4,1.33,11.717.247-.894-4.413.469-10.867Z" fill="#ff9391"/>
        <path id="Path_170687" data-name="Path 170687" d="M1533.125-175.443a9.729,9.729,0,0,1,.091,2.424c-.315,1.083-11.341.946-11.717-.247-.278-.885,2.165-1.86,4.484-2.832C1526.521-175.176,1527.675-173.736,1533.125-175.443Z" fill="#cc5531"/>
      </g>
      <g id="Group_111212" data-name="Group 111212">
        <path id="Path_170688" data-name="Path 170688" d="M1509.508-184.614s.628,6.751-.756,7.505c-2.505,1.366-7.117,2.65-6.741,3.843s11.4,1.33,11.717.247-.894-4.413.469-10.867Z" fill="#ff9391"/>
        <path id="Path_170689" data-name="Path 170689" d="M1513.637-175.443a9.738,9.738,0,0,1,.091,2.424c-.315,1.083-11.342.946-11.717-.247-.278-.885,2.165-1.86,4.483-2.832C1507.033-175.176,1508.187-173.736,1513.637-175.443Z" fill="#cc5531"/>
      </g>
      <path id="Path_170690" data-name="Path 170690" d="M1539.4-278.953s5.781,11.756,7.612,21.2,1.734,13.49,1.734,13.49l-2.794.482s-3.565-14.743-4.914-18.308-4.625-11.563-4.625-11.563Z" fill="#ff9391"/>
      <path id="Path_170691" data-name="Path 170691" d="M1506.268-252.965a26.365,26.365,0,0,0-3.553-.091c-.957.129-1.979-.456-2.095.091s1.672,1.047,1.672,1.047-1.613,1.119-2.161,1.387-1.405,1-1.24,1.415,2.707-1.058,2.707-1.058-2.018,1.451-1.947,1.868,2.909-1.053,2.909-1.053a16.339,16.339,0,0,0-2.3,1.708c-.076.266.261.374,1.174.054a9.171,9.171,0,0,0,1.763-.881s-1.489,1.132-1.621,1.33-.168.567,1.135-.049a14.916,14.916,0,0,0,4.835-3.83Z" fill="#ff7f7f"/>
      <path id="Path_170692" data-name="Path 170692" d="M1546.031-244.165a26.491,26.491,0,0,0-.783,3.467c-.06.963-.834,1.851-.32,2.072s1.353-1.435,1.353-1.435.783,1.8.939,2.39.7,1.573,1.145,1.493-.509-2.862-.509-2.862,1.029,2.263,1.451,2.275-.464-3.059-.464-3.059a16.251,16.251,0,0,0,1.226,2.593c.246.127.417-.183.282-1.14a9.221,9.221,0,0,0-.519-1.9,20.673,20.673,0,0,0,.987,1.849c.168.167.523.275.173-1.122a14.9,14.9,0,0,0-2.811-5.49Z" fill="#ff9391"/>
      <path id="Path_170693" data-name="Path 170693" d="M1516.172-278.086s-3.437,15.514-4.657,18.019-5.425,7.022-5.425,7.022l1.4,2.132s10.513-6.456,11.091-13.972A26.6,26.6,0,0,0,1516.172-278.086Z" fill="#ff7f7f"/>
      <path id="Path_170694" data-name="Path 170694" d="M1444.309-214.393a29.067,29.067,0,0,0-3.28,2.13c-.788.712-2.079.817-1.844,1.386s2.168-.091,2.168-.091-.767,2.019-1.1,2.6-.653,1.78-.244,2.055,1.8-2.645,1.8-2.645-.928,2.573-.6,2.907,1.984-2.766,1.984-2.766a17.873,17.873,0,0,0-1.027,2.984c.1.288.469.176,1.1-.682a10.118,10.118,0,0,0,1.051-1.9,22.976,22.976,0,0,0-.644,2.215c0,.261.2.619,1-.751a16.386,16.386,0,0,0,2-6.483Z" fill="#ff7f7f"/>
      <path id="Path_170695" data-name="Path 170695" d="M1327.7-181.321c-.346,1.551-.423,3.243-1.363,4.524-1.134,1.545-3.335,2.2-4.083,3.965-.713,1.681.145,3.879-1,5.3-.617.762-1.7,1.11-2.131,1.992a2.555,2.555,0,0,0-.2,1.25,5.332,5.332,0,0,0,5.238,4.876c3.384-.07,5.929-3.348,9.271-3.886,1.807-.291,3.661.256,5.48.044a6.848,6.848,0,0,0,5.827-6.938,18.989,18.989,0,0,1-.148-2.015,12.472,12.472,0,0,1,.336-1.85,10.661,10.661,0,0,0-1.932-8.46,10.667,10.667,0,0,0-7.632-4.129C1332.138-186.878,1328.419-184.545,1327.7-181.321Z" fill="#12263f"/>
      <path id="Path_170696" data-name="Path 170696" d="M1377.057-193.046a29.127,29.127,0,0,0-3.233,2.2c-.771.729-2.06.863-1.812,1.426s2.165-.138,2.165-.138-.722,2.035-1.039,2.627-.614,1.793-.2,2.059,1.738-2.683,1.738-2.683-.87,2.592-.54,2.919,1.923-2.809,1.923-2.809a17.989,17.989,0,0,0-.961,3.006c.1.286.473.166,1.084-.706a10.161,10.161,0,0,0,1.009-1.919,22.883,22.883,0,0,0-.595,2.228c.01.262.215.614.982-.772a16.387,16.387,0,0,0,1.86-6.526Z" fill="#ff9391"/>
      <path id="Path_170697" data-name="Path 170697" d="M1307.812-137.409a26.441,26.441,0,0,1-.552,3.509c-.3.916.091,2.027-.468,2.042s-.727-1.832-.727-1.832-1.391,1.383-1.754,1.873-1.234,1.2-1.613.963,1.528-2.469,1.528-2.469-1.791,1.721-2.187,1.577,1.56-2.67,1.56-2.67a16.232,16.232,0,0,1-2.1,1.956c-.274.027-.319-.324.159-1.163a9.2,9.2,0,0,1,1.184-1.574,20.843,20.843,0,0,1-1.6,1.354c-.218.093-.587.062.253-1.107a14.9,14.9,0,0,1,4.637-4.06Z" fill="#ff9391"/>
      <path id="Path_170698" data-name="Path 170698" d="M1366.141-179.834s1.117-2.97,1.6-3.8.332-2,.882-1.9.329,1.943.329,1.943,1.649-1.063,2.106-1.467,1.457-.918,1.779-.607-2.009,2.1-2.009,2.1,2.11-1.311,2.468-1.087-2.082,2.286-2.082,2.286a16.294,16.294,0,0,1,2.456-1.477c.275.031.246.383-.4,1.1a9.175,9.175,0,0,1-1.486,1.293,20.874,20.874,0,0,1,1.846-.991c.233-.046.588.061-.478,1.029a14.891,14.891,0,0,1-5.38,3.007Z" fill="#ff9391"/>
      <path id="Path_170699" data-name="Path 170699" d="M1436.445-210.659a29.062,29.062,0,0,0,.887,3.809c.4.982.062,2.232.677,2.205s.651-2.07.651-2.07,1.638,1.407,2.076,1.916,1.451,1.22,1.849.929-1.876-2.589-1.876-2.589,2.1,1.747,2.528,1.556-1.927-2.806-1.927-2.806a17.948,17.948,0,0,0,2.457,1.98c.3.007.326-.381-.267-1.265a10.106,10.106,0,0,0-1.426-1.633,22.975,22.975,0,0,0,1.864,1.358c.247.085.65.022-.366-1.194a16.4,16.4,0,0,0-5.416-4.088Z" fill="#ff9391"/>
      <path id="Path_170700" data-name="Path 170700" d="M1500.37-244.7a28.99,28.99,0,0,1,.817-3.824c.384-.99.022-2.234.637-2.217s.689,2.057.689,2.057,1.612-1.437,2.04-1.953,1.429-1.247,1.832-.963-1.829,2.623-1.829,2.623,2.072-1.785,2.5-1.6-1.875,2.841-1.875,2.841a17.968,17.968,0,0,1,2.42-2.025c.3-.012.332.376-.244,1.27a10.161,10.161,0,0,1-1.4,1.659,22.959,22.959,0,0,1,1.839-1.392c.246-.089.649-.033-.345,1.2a16.4,16.4,0,0,1-5.34,4.185Z" fill="#ff9391"/>
      <rect id="Rectangle_36812" data-name="Rectangle 36812" width="70.551" height="49.271" transform="translate(1323.934 -92.776)" fill="#ffa185"/>
      <rect id="Rectangle_36813" data-name="Rectangle 36813" width="70.551" height="80.597" transform="translate(1371.343 -124.103)" fill="#ffa185"/>
      <rect id="Rectangle_36814" data-name="Rectangle 36814" width="84.042" height="106.422" transform="translate(1426.461 -149.927)" fill="#ffa185"/>
      <g id="Group_111213" data-name="Group 111213">
        <path id="Path_170701" data-name="Path 170701" d="M1393.79-129.88l-1.435-7.406,5.536-.727.213,8.447S1394.882-128.833,1393.79-129.88Z" fill="#fff"/>
        <path id="Path_170702" data-name="Path 170702" d="M1398.1-130.155a8,8,0,0,1-4.307.275s-7.546,3.062-7.345,5.329c0,0-.35.668,3.093.585s8.792-.138,8.937-.214S1399.945-125.121,1398.1-130.155Z" fill="#12263f"/>
      </g>
      <g id="Group_111214" data-name="Group 111214">
        <path id="Path_170703" data-name="Path 170703" d="M1416.375-131.814l-3.126-6.865,5.214-2,2.18,8.163S1417.682-131.051,1416.375-131.814Z" fill="#fff"/>
        <path id="Path_170704" data-name="Path 170704" d="M1420.5-133.087a7.99,7.99,0,0,1-4.123,1.273s-6.622,4.74-5.9,6.9c0,0-.185.732,3.143-.153s8.517-2.189,8.64-2.3S1423.471-128.624,1420.5-133.087Z" fill="#12263f"/>
      </g>
      <rect id="Rectangle_36815" data-name="Rectangle 36815" width="70.551" height="128.777" transform="translate(1470.112 -172.283)" fill="#ffa185"/>
      <rect id="Rectangle_36816" data-name="Rectangle 36816" width="24.429" height="22.355" transform="translate(1470.112 -172.283)" fill="#cc5531"/>
      <rect id="Rectangle_36817" data-name="Rectangle 36817" width="24.429" height="25.824" transform="translate(1426.461 -149.927)" fill="#cc5531"/>
      <rect id="Rectangle_36818" data-name="Rectangle 36818" width="24.429" height="31.182" transform="translate(1371.343 -123.959)" fill="#cc5531"/>
      <rect id="Rectangle_36819" data-name="Rectangle 36819" width="24.731" height="49.338" transform="translate(1323.934 -92.843)" fill="#cc5531"/>
      <path id="Path_170705" data-name="Path 170705" d="M1398.9-188.279s-7.323,18.887-7.9,27.559.77,27.623.77,27.623h7.838s-.514-22.227.835-28.49,8.094-16.863,8.48-16.863-3.213,28.908,3.918,44.711c0,0,8.223-1.734,7.837-2.313s-3.661-13.875-2.312-24.475,5.4-29.679,5.01-31.028S1398.9-188.279,1398.9-188.279Z" fill="#28b5bd"/>
      <path id="Path_170706" data-name="Path 170706" d="M1400.823-228.613s8.679-3.413,15.038-1.871,19.851,11.756,24.476,17.345l-4.24,4.344s-12.527-9.933-16.285-8.777c0,0,5.3,19.85,6.071,27.944,0,0-15.418,4.818-27.944,2.12,0,0-.193-21.182-1.35-21.287s-5.139,11.2-16.124,19.681l-4.753-4.5s11.241-12.013,13.747-19.529S1393.405-226.822,1400.823-228.613Z" fill="#ff805a"/>
      <path id="Path_170707" data-name="Path 170707" d="M1351.3-105.666s-3.151,7.23-1.8,8.034c2.454,1.456,7.015,2.907,6.6,4.086s-11.443.913-11.718-.181,2.391-4.926,1.265-11.425Z" fill="#ff9391"/>
      <path id="Path_170708" data-name="Path 170708" d="M1345.025-96.325c-.654,1.515-.741,2.209-.643,2.6.275,1.094,11.3,1.36,11.718.181.311-.874-2.095-1.938-4.377-2.994C1351.151-95.638,1350.41-94.421,1345.025-96.325Z" fill="#12263f"/>
      <path id="Path_170709" data-name="Path 170709" d="M1304.8-92.4s-6.491,1.961-6.669,3.526c-.321,2.835.226,7.591-1.021,7.692s-5.525-10.062-4.641-10.761,4.425-.834,9.89-4.526Z" fill="#ff9391"/>
      <path id="Path_170710" data-name="Path 170710" d="M1294.744-92.776a9.713,9.713,0,0,0-2.28.829c-.884.7,3.394,10.863,4.641,10.761.925-.075.908-2.706.935-5.22C1296.983-86.558,1295.215-87.084,1294.744-92.776Z" fill="#12263f"/>
      <g id="Group_111216" data-name="Group 111216">
        <g id="Group_111215" data-name="Group 111215">
          <path id="Path_170711" data-name="Path 170711" d="M1393.33-235.115s-.795-.47-1.021-.012c-.576,1.167.8,1.643,1.513,1.55Z" fill="#ff6868"/>
          <path id="Path_170712" data-name="Path 170712" d="M1391.886-237.571l.006,0c-.038-.071-.076-.142-.112-.216a6.279,6.279,0,0,1,3.3-8.56,6.3,6.3,0,0,1,7.716,2.56,6.267,6.267,0,0,1,.909,3.062c.117,1.576.205,2.929.172,4.106a12.9,12.9,0,0,0,2.328,6.44h0c-2.629,4.676-5.382,1.568-5.382,1.568l-.639-1.207a.7.7,0,0,0-.885-.322l-.006,0C1394.852-228.334,1392.826-235.632,1391.886-237.571Z" fill="#ff9391"/>
          <path id="Path_170713" data-name="Path 170713" d="M1399.144-237.427a.585.585,0,0,1,.271-.781.586.586,0,0,1,.781.271.585.585,0,0,1-.271.781A.584.584,0,0,1,1399.144-237.427Z" fill="#01011c"/>
          <path id="Path_170714" data-name="Path 170714" d="M1394.017-236.1a.584.584,0,0,1,.271-.781.584.584,0,0,1,.78.271.584.584,0,0,1-.271.781A.584.584,0,0,1,1394.017-236.1Z" fill="#01011c"/>
          <path id="Path_170715" data-name="Path 170715" d="M1400.63-239.16a.338.338,0,0,0,.137-.121.342.342,0,0,0-.1-.474,1.836,1.836,0,0,0-2.507.563.343.343,0,0,0,.062.48.343.343,0,0,0,.481-.062,1.157,1.157,0,0,1,1.589-.408A.34.34,0,0,0,1400.63-239.16Z" fill="#01011c"/>
          <path id="Path_170716" data-name="Path 170716" d="M1395.3-237.592a.338.338,0,0,0,.137-.121.342.342,0,0,0-.1-.474,1.836,1.836,0,0,0-2.507.563.343.343,0,0,0,.062.48.343.343,0,0,0,.481-.062,1.157,1.157,0,0,1,1.589-.408A.342.342,0,0,0,1395.3-237.592Z" fill="#01011c"/>
          <path id="Path_170717" data-name="Path 170717" d="M1403.774-243.121l.32,4.565-1.127.292-3.006-4.632Z" fill="#12263f"/>
          <path id="Path_170718" data-name="Path 170718" d="M1402.749-238.308a.938.938,0,0,1,.247-.612,1.576,1.576,0,0,1,1.621-.608c1.03.358.526,2.874-1.3,2.629C1403.32-236.9,1402.734-237.1,1402.749-238.308Z" fill="#ff9391"/>
          <path id="Path_170719" data-name="Path 170719" d="M1397.364-234.212a1.172,1.172,0,0,0,.946-.494.1.1,0,0,0-.032-.139.1.1,0,0,0-.14.031.954.954,0,0,1-1.094.349.358.358,0,0,1-.213-.118c-.033-.061,0-.179.053-.341a2.989,2.989,0,0,0-.043-2.035.1.1,0,0,0-.128-.064.1.1,0,0,0-.064.128,2.776,2.776,0,0,1,.04,1.911c-.061.2-.11.361-.037.5a.508.508,0,0,0,.335.216A1.337,1.337,0,0,0,1397.364-234.212Z" fill="#ff6868"/>
          <path id="Path_170720" data-name="Path 170720" d="M1399.951-234.282a8.709,8.709,0,0,1-3.683,1.33s1.137,1.486,2.447,1.013S1399.951-234.282,1399.951-234.282Z" fill="#fff"/>
          <path id="Path_170721" data-name="Path 170721" d="M1391.731-240.205s-.535.964.927,4.489c0,0-2.128-3.688-1.907-4.315S1391.731-240.205,1391.731-240.205Z" fill="#12263f"/>
        </g>
        <path id="Path_170722" data-name="Path 170722" d="M1403.55-244.548a6.565,6.565,0,0,0-1.8-2.1,1.741,1.741,0,0,0,1.148-.594c.241-.371,0-1.021-.438-.961-.254.036-.424.279-.652.4-.521.27-1.127-.172-1.488-.634s-.736-1.024-1.319-1.083a.976.976,0,0,0-.536.1,3.14,3.14,0,0,0,.937,1.8,8.206,8.206,0,0,0-3.09-1.1,3.234,3.234,0,0,0-2.459.447c.061.679,1.2.606,1.556,1.188a14.769,14.769,0,0,0-4.347,1.114,2.959,2.959,0,0,0-.983.6,1.154,1.154,0,0,0-.342,1.056.9.9,0,0,0,1.209.566,9.472,9.472,0,0,0-1.585,1.863,3.189,3.189,0,0,0-.442,2.349,3.165,3.165,0,0,0,1.346-.9,1.153,1.153,0,0,0-.018,1.266.908.908,0,0,0,.924.2,2.684,2.684,0,0,0,.856-.5l4-3.069a5.534,5.534,0,0,0-.417,2.7,7.524,7.524,0,0,0,3.153-2.959,7.455,7.455,0,0,0,1.309,1.625.554.554,0,0,0,.276.168c.363.057.447-.483.645-.794a1.2,1.2,0,0,1,1.222-.371c.769.122,1.4.474,1.618-.462A3.03,3.03,0,0,0,1403.55-244.548Z" fill="#12263f"/>
      </g>
      <path id="Path_170723" data-name="Path 170723" d="M1339.92-136.966s15.97,7.537,16.2,12.334-4.047,25.583-4.047,25.583l-8.713-1.448s3.141-18.438,1.77-21.293-12.062-4.149-13.09-3.779-6.584,15.468-10.531,21.186c-4.387,6.354-19.739,15.05-19.739,15.05l-3.2-6.625s13.936-7.768,15.306-13.707,5.826-21.361,9.138-28.9Z" fill="#12263f"/>
      <path id="Path_170724" data-name="Path 170724" d="M1365.354-180.79l4.455,2.512s-8.186,18.81-22.579,20.409c0,0,1.371,5.711,0,7.539a5.426,5.426,0,0,1-3.046,2.132s-4.2,7.817-3.291,11.472c0,0-11.025,3.149-18.792-.506,0,0,3.046-15.992,4.264-18.124,0,0-14.469,11.423-17.362,19.19l-5.179-2.285s13.822-24.292,24.331-27.185,14.963-1.295,17.552-1.752S1356.521-166.246,1365.354-180.79Z" fill="#f9f9fb"/>
      <g id="Group_111217" data-name="Group 111217">
        <path id="Path_170725" data-name="Path 170725" d="M1341.812-177.721s.394-.774.8-.524c1.046.637.12,1.747-.5,2.033Z" fill="#ff9391"/>
        <path id="Path_170726" data-name="Path 170726" d="M1334.766-185.764a5.928,5.928,0,0,0-4.832,6.163,5.885,5.885,0,0,0,.81,2.648,25.424,25.424,0,0,0,2.868,4.624,5.877,5.877,0,0,1,1.494,4.036l-.022,1.21c3.608,1.317,4.878-.343,4.878-.343l-.381-3.339h0c3.641-.863,2.371-7.62,2.141-9.634l-.006,0c-.006-.076-.012-.152-.02-.228A5.906,5.906,0,0,0,1334.766-185.764Z" fill="#ff9391"/>
        <path id="Path_170727" data-name="Path 170727" d="M1334.982-179.777a24.541,24.541,0,0,0-2.464,4.141c-.068.162-.539,1.385-.35,1.5a7.6,7.6,0,0,1-2.4-2.645,6.2,6.2,0,0,1-.211-5.9,6.19,6.19,0,0,1,4.554-3.321,6.5,6.5,0,0,1,6.026,1.663c1.414,1.53,1.711,3.636,2.078,5.6-.412-2.205-3.591-3.522-5.472-4.1.055.017-1.113,2.073-1.176,2.174C1335.376-180.373,1335.18-180.074,1334.982-179.777Z" fill="#12263f"/>
        <path id="Path_170728" data-name="Path 170728" d="M1332.721-175.513a.873.873,0,0,0-.5-.361,1.481,1.481,0,0,0-1.594.333c-.638.8,1.03,2.548,2.355,1.435C1332.978-174.106,1333.34-174.563,1332.721-175.513Z" fill="#ff9391"/>
        <path id="Path_170729" data-name="Path 170729" d="M1340.847-177.554a.515.515,0,0,0-.524-.506.514.514,0,0,0-.507.524.516.516,0,0,0,.524.506A.515.515,0,0,0,1340.847-177.554Z" fill="#010131"/>
        <path id="Path_170730" data-name="Path 170730" d="M1336.076-176.46a.516.516,0,0,0-.525-.506.516.516,0,0,0-.506.524.516.516,0,0,0,.524.507A.517.517,0,0,0,1336.076-176.46Z" fill="#010131"/>
        <path id="Path_170731" data-name="Path 170731" d="M1340.332-173.941s-.679-.49-.939-.408a.765.765,0,0,0-.395.4.6.6,0,0,0-.488-.306c-.321.005-.984.89-.984.89s.957,1.381,1.921,1.172c.982-.213.875-1.68.875-1.68Z" fill="#ff7367"/>
        <path id="Path_170732" data-name="Path 170732" d="M1334.464-177.05a.212.212,0,0,1-.173-.055.214.214,0,0,1-.011-.3,2.57,2.57,0,0,1,1.563-.715.214.214,0,0,1,.232.2.219.219,0,0,1-.2.231,2.132,2.132,0,0,0-1.285.581A.215.215,0,0,1,1334.464-177.05Z" fill="#010131"/>
        <path id="Path_170733" data-name="Path 170733" d="M1339.382-178.566a.216.216,0,0,1-.156-.1.215.215,0,0,1,.061-.3,2.539,2.539,0,0,1,1.688-.325.213.213,0,0,1,.179.244.216.216,0,0,1-.245.179,2.135,2.135,0,0,0-1.386.26A.217.217,0,0,1,1339.382-178.566Z" fill="#010131"/>
        <path id="Path_170734" data-name="Path 170734" d="M1338.6-174.772a.918.918,0,0,0,.733-.9.18.18,0,0,0-.055-.122,2.663,2.663,0,0,1-.674-1.587.182.182,0,0,0-.189-.172.182.182,0,0,0-.172.189,3.027,3.027,0,0,0,.725,1.769c-.019.146-.128.479-.707.516a.179.179,0,0,0-.168.192.179.179,0,0,0,.191.168A1.6,1.6,0,0,0,1338.6-174.772Z" fill="#ff6868"/>
        <path id="Path_170735" data-name="Path 170735" d="M1340.332-173.941l-2.806.58a3.361,3.361,0,0,0,1.812.575C1340.1-172.9,1340.332-173.941,1340.332-173.941Z" fill="#f9f9fb"/>
      </g>
      <path id="Path_170736" data-name="Path 170736" d="M1333.43-149.732a7.09,7.09,0,0,1-4.112-1.37.134.134,0,0,1-.033-.187.133.133,0,0,1,.186-.033,6.735,6.735,0,0,0,7.971.006.132.132,0,0,1,.188.02.133.133,0,0,1-.02.188A7.263,7.263,0,0,1,1333.43-149.732Z" fill="#6e9af4"/>
      <path id="Path_170737" data-name="Path 170737" d="M1491.675-182.5s-.083,5.746-.038,5.828-.419.8-.419.8l-1.813.325-1.654-.76s.146-5.342-.027-6.184S1491.675-182.5,1491.675-182.5Z" fill="#ff9391"/>
      <path id="Path_170738" data-name="Path 170738" d="M1487.751-176.3a4.715,4.715,0,0,0,3.875-.479s6.955,2.607,6.743,4.589c0,0,.3.591-2.718.464s-7.7-.262-7.822-.332S1487.113-171.814,1487.751-176.3Z" fill="#12263f"/>
      <path id="Path_170739" data-name="Path 170739" d="M1456.6-162.159s-2.221,5.3-2.21,5.392-.688.587-.688.587l-1.8-.375-1.25-1.323s2.128-4.9,2.282-5.747S1456.6-162.159,1456.6-162.159Z" fill="#ff9391"/>
      <path id="Path_170740" data-name="Path 170740" d="M1450.651-157.878a4.712,4.712,0,0,0,3.772,1s5.48,5.015,4.544,6.774c0,0,.054.659-2.694-.584s-7.044-3.116-7.134-3.227S1448.382-153.949,1450.651-157.878Z" fill="#12263f"/>
      <path id="Path_170741" data-name="Path 170741" d="M1479.8-213.351s17.811,2.717,18.582,10.426-5.428,24.09-5.428,24.09H1486.2s2.479-19.08,1.515-20.429-13.464,0-15.776,1.542-6.938,31.413-14.261,39.122l-7.131-2.312s5.589-16.382,5.2-22.549.771-24.716.771-24.716Z" fill="#12263f"/>
      <path id="Path_170742" data-name="Path 170742" d="M1441.894-214.424l5.766,1.873,9.508-15.05-3.341,21.913s22.163-3.038,27.045-7.663l1.735-17.533s16.445,4.548,21.07-12.237l-4.111-2.652s-4.625,7.48-10.021,6.438-6.81-8.843-10.15-9.357-16.96-.427-20.814,1.888S1450.262-234.724,1441.894-214.424Z" fill="#28b5bd"/>
      <g id="Group_111219" data-name="Group 111219">
        <g id="Group_111218" data-name="Group 111218">
          <path id="Path_170743" data-name="Path 170743" d="M1475.5-259.949s.44-.815.87-.539c1.1.705.167,1.824-.5,2.115Z" fill="#ff6868"/>
          <path id="Path_170744" data-name="Path 170744" d="M1475.471-262.807l-.006,0c0-.081-.008-.162-.016-.243a6.3,6.3,0,0,0-7.266-5.648,6.317,6.317,0,0,0-5.3,6.194,6.29,6.29,0,0,0,.8,3.1c.715,1.415,1.341,2.623,1.977,3.617a9,9,0,0,1,1.368,5.543l-.118,1.531c4.041,1.7,5.626-.368,5.626-.368l-.182-2.774a.7.7,0,0,1,.594-.735h.006C1477.7-253.335,1475.668-260.654,1475.471-262.807Z" fill="#ff9391"/>
          <path id="Path_170745" data-name="Path 170745" d="M1469.31-258.926a.587.587,0,0,0-.637-.531.587.587,0,0,0-.531.637.587.587,0,0,0,.637.531A.587.587,0,0,0,1469.31-258.926Z" fill="#01011c"/>
          <path id="Path_170746" data-name="Path 170746" d="M1474.4-260.437a.587.587,0,0,0-.637-.531.586.586,0,0,0-.531.637.588.588,0,0,0,.637.531A.588.588,0,0,0,1474.4-260.437Z" fill="#01011c"/>
          <path id="Path_170747" data-name="Path 170747" d="M1467.136-259.646a.35.35,0,0,1-.181-.033.345.345,0,0,1-.16-.459,1.842,1.842,0,0,1,2.446-.814.346.346,0,0,1,.2.446.344.344,0,0,1-.445.194,1.159,1.159,0,0,0-1.577.473A.343.343,0,0,1,1467.136-259.646Z" fill="#01011c"/>
          <path id="Path_170748" data-name="Path 170748" d="M1472.526-261.057a.347.347,0,0,1-.18-.033.343.343,0,0,1-.16-.459,1.841,1.841,0,0,1,2.445-.814.344.344,0,0,1,.2.445.343.343,0,0,1-.445.2,1.16,1.16,0,0,0-1.577.473A.343.343,0,0,1,1472.526-261.057Z" fill="#01011c"/>
          <path id="Path_170749" data-name="Path 170749" d="M1462.384-261.422l2.088,4.088,1.119-.332.186-5.536Z" fill="#12263f"/>
          <path id="Path_170750" data-name="Path 170750" d="M1465.756-257.817a.937.937,0,0,0-.529-.4,1.578,1.578,0,0,0-1.707.317c-.7.84,1.035,2.741,2.475,1.587C1465.995-256.311,1466.392-256.789,1465.756-257.817Z" fill="#ff9391"/>
          <path id="Path_170751" data-name="Path 170751" d="M1472.5-257.085a1.171,1.171,0,0,1-1.068.065.1.1,0,0,1-.045-.136.1.1,0,0,1,.136-.046.957.957,0,0,0,1.121-.266.363.363,0,0,0,.122-.211c0-.071-.1-.153-.222-.267a3,3,0,0,1-1.017-1.77.1.1,0,0,1,.077-.122.1.1,0,0,1,.122.078,2.781,2.781,0,0,0,.954,1.663c.158.141.282.253.289.408a.5.5,0,0,1-.175.359A1.34,1.34,0,0,1,1472.5-257.085Z" fill="#ff6868"/>
          <path id="Path_170752" data-name="Path 170752" d="M1470.244-255.806a8.73,8.73,0,0,0,3.853-.764s-.208,1.865-1.578,2.137S1470.244-255.806,1470.244-255.806Z" fill="#fff"/>
          <path id="Path_170753" data-name="Path 170753" d="M1474.241-265.15s.959.551,1.527,4.337c0,0-.08-4.271-.595-4.7S1474.241-265.15,1474.241-265.15Z" fill="#12263f"/>
        </g>
        <path id="Path_170754" data-name="Path 170754" d="M1464.019-269.294c1.252-1.4,3.556-1.281,5.042-2.432a8.734,8.734,0,0,1-1.912,2.567l6.623-1.92a14.724,14.724,0,0,1-2.232,1.862,28.186,28.186,0,0,0,5.172-.032,1.007,1.007,0,0,1-.061.9c-.645,1.6-1.441,3.353-3.039,4a4.89,4.89,0,0,1-1.568.3c-2.113.113-4.448-.4-6.2.79-.81.553-1.815,2.472-2.969,2.2C1461.852-261.3,1460.137-264.944,1464.019-269.294Z" fill="#12263f"/>
      </g>
      <path id="Path_170755" data-name="Path 170755" d="M1537.082-254.4s4.625,10.478,5.139,16.363-7.452,57.02-7.452,57.02h-7.194v-50.826l-12.8,50.826h-6.682s5.863-58.036,12.287-70.645Z" fill="#83d1d6"/>
      <path id="Path_170756" data-name="Path 170756" d="M1519.934-250.716l17.863-1.995s-.843-4.47-.843-5.576-.129-11.255-.129-11.255l1.8,3.165,6.038-3.936s-6.3-12.591-7.451-13.233-8.866-1.928-8.866-1.928l-6.937,2.056s-5.4,2.313-6.81,6.039-3.083,9.893-3.083,9.893l2.69.827a6.252,6.252,0,0,0,1.857.274l1.941-.009s.83,2.51,1.986,2.826Z" fill="#f6bf28"/>
      <g id="Group_111220" data-name="Group 111220">
        <path id="Path_170757" data-name="Path 170757" d="M1519.978-294.527s-.615-.682-.965-.315c-.892.937.269,1.8.976,1.919Z" fill="#ff6868"/>
        <path id="Path_170758" data-name="Path 170758" d="M1519.336-297.286h.006c-.015-.079-.03-.158-.042-.238a6.241,6.241,0,0,1,5.667-7.145,6.262,6.262,0,0,1,6.562,4.716,6.231,6.231,0,0,1-.044,3.175,31.8,31.8,0,0,1-1.356,4.752,9.759,9.759,0,0,0-.345,6.543l.078.261c-3.323,2.333-5.162.773-5.162.773l-.434-2.894a.816.816,0,0,0-.744-.693C1519.434-288.341,1519.638-295.267,1519.336-297.286Z" fill="#ff9391"/>
        <path id="Path_170759" data-name="Path 170759" d="M1522.452-291.274s.457-.333.731-.257a.806.806,0,0,1,.425.41.621.621,0,0,1,.5-.335,7.75,7.75,0,0,1,1.271.255s-.871,1.421-1.869,1.169a1.348,1.348,0,0,1-1.043-1.193Z" fill="#ff6868"/>
        <path id="Path_170760" data-name="Path 170760" d="M1525.89-294.97a.635.635,0,0,1,.533-.722.635.635,0,0,1,.721.534.634.634,0,0,1-.533.721A.634.634,0,0,1,1525.89-294.97Z" fill="#010131"/>
        <path id="Path_170761" data-name="Path 170761" d="M1520.8-295.01a.635.635,0,0,1,.533-.722.635.635,0,0,1,.721.534.634.634,0,0,1-.533.721A.634.634,0,0,1,1520.8-295.01Z" fill="#010131"/>
        <path id="Path_170762" data-name="Path 170762" d="M1523.386-290.689a3.183,3.183,0,0,0,2.276-.607.076.076,0,0,0,.014-.106.076.076,0,0,0-.106-.014c-.074.057-1.815,1.367-3.109.029a.076.076,0,0,0-.107,0,.076.076,0,0,0,0,.107A2.012,2.012,0,0,0,1523.386-290.689Z" fill="#250537"/>
        <path id="Path_170763" data-name="Path 170763" d="M1527.716-296.515a.221.221,0,0,0,.142-.126.224.224,0,0,0-.116-.294,2.682,2.682,0,0,0-1.794-.03.223.223,0,0,0-.139.284.228.228,0,0,0,.283.139,2.226,2.226,0,0,1,1.472.018A.228.228,0,0,0,1527.716-296.515Z" fill="#010131"/>
        <path id="Path_170764" data-name="Path 170764" d="M1522.029-296.486a.222.222,0,0,0,.142-.126.222.222,0,0,0-.116-.294,2.65,2.65,0,0,0-1.793-.03.223.223,0,0,0-.14.283.225.225,0,0,0,.284.14,2.226,2.226,0,0,1,1.471.017A.223.223,0,0,0,1522.029-296.486Z" fill="#010131"/>
        <path id="Path_170765" data-name="Path 170765" d="M1523.656-292.656a1.062,1.062,0,0,0,.349-.174.112.112,0,0,0,.014-.157.112.112,0,0,0-.157-.014.841.841,0,0,1-1.012-.005c-.108-.074-.137-.121-.142-.148-.009-.053.055-.146.137-.263a2.715,2.715,0,0,0,.532-1.771.112.112,0,0,0-.113-.11.11.11,0,0,0-.11.113,2.486,2.486,0,0,1-.493,1.64c-.111.16-.2.286-.173.432a.479.479,0,0,0,.236.292A1.065,1.065,0,0,0,1523.656-292.656Z" fill="#ff6868"/>
        <path id="Path_170766" data-name="Path 170766" d="M1529.686-295.114c-.125-.3-.113-.65-.249-.949-.345-.758-1.391-.83-2.052-1.337-.816-.626-1.037-1.923-2-2.292-.425-.163-.945-.114-1.286-.416a2.391,2.391,0,0,1-.464-.863c-.137-.3-.408-.6-.735-.557a.743.743,0,0,0-.386.211c-.735.682-.828,1.931-1.689,2.443a6.027,6.027,0,0,1-.9.346,2.7,2.7,0,0,0-1.633,1.977,1.772,1.772,0,0,1-.475-2.072,15.86,15.86,0,0,1,1.122-2c.356-.675.556-1.422.891-2.107a2.864,2.864,0,0,1,1.581-1.568,12.2,12.2,0,0,1,1.881-.156,11.77,11.77,0,0,0,1.585-.485,5.07,5.07,0,0,1,4.557.908,9.952,9.952,0,0,1,1.192,1.22l2.5,2.871a4.141,4.141,0,0,1,.977,1.528,4.177,4.177,0,0,1-.7,2.952c-.235.449-.528.943-1.021,1.06C1531.458-294.175,1530.136-294.023,1529.686-295.114Z" fill="#12263f"/>
        <path id="Path_170767" data-name="Path 170767" d="M1529.861-294.766a.928.928,0,0,1,.416-.508,1.564,1.564,0,0,1,1.718-.1c.871.644-.353,2.882-2.01,2.109C1529.985-293.261,1529.49-293.627,1529.861-294.766Z" fill="#ff9391"/>
      </g>
      <path id="Path_170768" data-name="Path 170768" d="M1529.079-267.393a5.46,5.46,0,0,1-2.52-.582.134.134,0,0,1-.058-.181.134.134,0,0,1,.18-.058c3.02,1.556,6.633-.652,6.669-.675a.134.134,0,0,1,.184.043.133.133,0,0,1-.043.184A9.469,9.469,0,0,1,1529.079-267.393Z" fill="#bd8e12"/>
      <g id="Group_111221" data-name="Group 111221">
        <path id="Path_170769" data-name="Path 170769" d="M1328.137-41.8a.108.108,0,0,0,.025,0,.123.123,0,0,0,.092-.149c-4.115-17.456-8.07-29.843-11.138-34.88-.068-.112-.118-.193-.136-.233a.124.124,0,0,0-.164-.063.125.125,0,0,0-.063.165c.025.054.072.132.15.26,3.055,5.016,7,17.377,11.11,34.808A.122.122,0,0,0,1328.137-41.8Z" fill="#12263f"/>
        <path id="Path_170770" data-name="Path 170770" d="M1314.825-77.861a6.269,6.269,0,0,0,2.471,1.58,6.28,6.28,0,0,0-.419-2.9,1.221,1.221,0,0,0-1.687-.364A1.22,1.22,0,0,0,1314.825-77.861Z" fill="#12263f"/>
        <path id="Path_170771" data-name="Path 170771" d="M1318.594-75.977a6.4,6.4,0,0,0,.231,2.991,6.416,6.416,0,0,0,2.113-2.129,1.248,1.248,0,0,0-.741-1.6A1.248,1.248,0,0,0,1318.594-75.977Z" fill="#12263f"/>
        <path id="Path_170772" data-name="Path 170772" d="M1315.967-72.187a6.415,6.415,0,0,0,2.862-.9,6.4,6.4,0,0,0-2.55-1.58,1.249,1.249,0,0,0-1.4,1.083A1.249,1.249,0,0,0,1315.967-72.187Z" fill="#12263f"/>
        <path id="Path_170773" data-name="Path 170773" d="M1323.792-64.258c-.514,1.037-.452,4.886-.156,5.033s3.4-2.134,3.912-3.171a2.1,2.1,0,0,0-.947-2.809A2.1,2.1,0,0,0,1323.792-64.258Z" fill="#12263f"/>
        <path id="Path_170774" data-name="Path 170774" d="M1318.722-58.408c1.126.267,4.862-.66,4.938-.982s-2.843-2.829-3.97-3.1a2.1,2.1,0,0,0-2.523,1.555A2.1,2.1,0,0,0,1318.722-58.408Z" fill="#12263f"/>
        <path id="Path_170775" data-name="Path 170775" d="M1326.536-59.789c-.893,1.1-1.855,5.711-1.542,5.966s4.631-1.632,5.524-2.731a2.566,2.566,0,0,0-.374-3.609A2.566,2.566,0,0,0,1326.536-59.789Z" fill="#12263f"/>
        <path id="Path_170776" data-name="Path 170776" d="M1319.33-52.167c1.405.184,5.836-1.416,5.888-1.817s-3.818-3.086-5.222-3.27a2.565,2.565,0,0,0-2.876,2.211A2.565,2.565,0,0,0,1319.33-52.167Z" fill="#12263f"/>
        <path id="Path_170777" data-name="Path 170777" d="M1328.056-54.086c-.893,1.1-1.855,5.711-1.541,5.966s4.63-1.632,5.523-2.732a2.564,2.564,0,0,0-.373-3.607A2.565,2.565,0,0,0,1328.056-54.086Z" fill="#12263f"/>
        <path id="Path_170778" data-name="Path 170778" d="M1320.85-46.464c1.405.183,5.836-1.416,5.888-1.817s-3.817-3.086-5.222-3.27a2.565,2.565,0,0,0-2.876,2.211A2.565,2.565,0,0,0,1320.85-46.464Z" fill="#12263f"/>
        <path id="Path_170779" data-name="Path 170779" d="M1331.707-46.814c-1.245.676-3.891,4.573-3.7,4.928s4.9.256,6.147-.421a2.565,2.565,0,0,0,1.029-3.478A2.564,2.564,0,0,0,1331.707-46.814Z" fill="#12263f"/>
        <path id="Path_170780" data-name="Path 170780" d="M1322.16-40.835c1.37.358,5.966-.675,6.069-1.066s-3.4-3.54-4.773-3.9a2.565,2.565,0,0,0-3.13,1.834A2.565,2.565,0,0,0,1322.16-40.835Z" fill="#12263f"/>
        <path id="Path_170781" data-name="Path 170781" d="M1320.195-72.329a6.512,6.512,0,0,0,.235,3.038,6.505,6.505,0,0,0,2.147-2.163,1.268,1.268,0,0,0-.753-1.628A1.269,1.269,0,0,0,1320.195-72.329Z" fill="#12263f"/>
        <path id="Path_170782" data-name="Path 170782" d="M1317.614-68.43a6.523,6.523,0,0,0,2.908-.913,6.51,6.51,0,0,0-2.591-1.6,1.27,1.27,0,0,0-1.418,1.1A1.27,1.27,0,0,0,1317.614-68.43Z" fill="#12263f"/>
        <path id="Path_170783" data-name="Path 170783" d="M1322.069-68.918a9.245,9.245,0,0,0-.022,4.33,9.262,9.262,0,0,0,3.292-2.813,1.8,1.8,0,0,0-.877-2.394A1.8,1.8,0,0,0,1322.069-68.918Z" fill="#12263f"/>
        <path id="Path_170784" data-name="Path 170784" d="M1317.951-63.4a9.246,9.246,0,0,0,4.131-1.3,9.248,9.248,0,0,0-3.681-2.28,1.8,1.8,0,0,0-2.013,1.564A1.8,1.8,0,0,0,1317.951-63.4Z" fill="#12263f"/>
      </g>
      <g id="Group_111222" data-name="Group 111222">
        <path id="Path_170785" data-name="Path 170785" d="M1314.563-41.539l.017,0a.089.089,0,0,0,.067-.107c-2.939-12.467-5.765-21.314-7.956-24.911-.049-.08-.084-.138-.1-.167a.087.087,0,0,0-.117-.044.088.088,0,0,0-.045.117c.018.039.052.094.107.186,2.182,3.582,5,12.411,7.935,24.86A.087.087,0,0,0,1314.563-41.539Z" fill="#4250f0"/>
        <path id="Path_170786" data-name="Path 170786" d="M1305.055-67.291a4.461,4.461,0,0,0,1.765,1.128,4.473,4.473,0,0,0-.3-2.072.872.872,0,0,0-1.2-.261A.871.871,0,0,0,1305.055-67.291Z" fill="#4250f0"/>
        <path id="Path_170787" data-name="Path 170787" d="M1307.747-65.945a4.577,4.577,0,0,0,.165,2.136,4.576,4.576,0,0,0,1.509-1.521.892.892,0,0,0-.529-1.145A.892.892,0,0,0,1307.747-65.945Z" fill="#4250f0"/>
        <path id="Path_170788" data-name="Path 170788" d="M1305.871-63.238a4.58,4.58,0,0,0,2.044-.642,4.592,4.592,0,0,0-1.822-1.128.893.893,0,0,0-1,.774A.893.893,0,0,0,1305.871-63.238Z" fill="#4250f0"/>
        <path id="Path_170789" data-name="Path 170789" d="M1311.46-57.575a7.677,7.677,0,0,0-.112,3.594,7.686,7.686,0,0,0,2.794-2.264,1.5,1.5,0,0,0-.676-2.006A1.5,1.5,0,0,0,1311.46-57.575Z" fill="#4250f0"/>
        <path id="Path_170790" data-name="Path 170790" d="M1307.838-53.4a7.685,7.685,0,0,0,3.527-.7,7.673,7.673,0,0,0-2.835-2.212,1.5,1.5,0,0,0-1.8,1.11A1.5,1.5,0,0,0,1307.838-53.4Z" fill="#4250f0"/>
        <path id="Path_170791" data-name="Path 170791" d="M1313.419-54.383c-.638.785-1.325,4.078-1.1,4.26s3.307-1.165,3.945-1.95A1.831,1.831,0,0,0,1316-54.65,1.831,1.831,0,0,0,1313.419-54.383Z" fill="#4250f0"/>
        <path id="Path_170792" data-name="Path 170792" d="M1308.273-48.94c1,.131,4.167-1.011,4.205-1.3s-2.727-2.2-3.73-2.336a1.832,1.832,0,0,0-2.054,1.579A1.832,1.832,0,0,0,1308.273-48.94Z" fill="#4250f0"/>
        <path id="Path_170793" data-name="Path 170793" d="M1314.505-50.31c-.638.785-1.325,4.078-1.1,4.26s3.307-1.165,3.945-1.95a1.832,1.832,0,0,0-.267-2.577A1.831,1.831,0,0,0,1314.505-50.31Z" fill="#4250f0"/>
        <path id="Path_170794" data-name="Path 170794" d="M1309.359-44.867c1,.132,4.167-1.011,4.2-1.3s-2.727-2.2-3.73-2.336a1.832,1.832,0,0,0-2.054,1.579A1.832,1.832,0,0,0,1309.359-44.867Z" fill="#4250f0"/>
        <path id="Path_170795" data-name="Path 170795" d="M1317.112-45.117c-.889.484-2.779,3.267-2.641,3.52s3.5.183,4.39-.3a1.832,1.832,0,0,0,.735-2.484A1.831,1.831,0,0,0,1317.112-45.117Z" fill="#4250f0"/>
        <path id="Path_170796" data-name="Path 170796" d="M1310.294-40.846c.979.255,4.261-.482,4.334-.762s-2.43-2.528-3.409-2.783a1.831,1.831,0,0,0-2.235,1.309A1.833,1.833,0,0,0,1310.294-40.846Z" fill="#4250f0"/>
        <path id="Path_170797" data-name="Path 170797" d="M1308.891-63.34a4.645,4.645,0,0,0,.167,2.17,4.645,4.645,0,0,0,1.534-1.545.907.907,0,0,0-.538-1.163A.906.906,0,0,0,1308.891-63.34Z" fill="#4250f0"/>
        <path id="Path_170798" data-name="Path 170798" d="M1307.047-60.555a4.656,4.656,0,0,0,2.077-.652,4.646,4.646,0,0,0-1.851-1.146.905.905,0,0,0-1.012.786A.906.906,0,0,0,1307.047-60.555Z" fill="#4250f0"/>
        <path id="Path_170799" data-name="Path 170799" d="M1310.229-60.9a6.6,6.6,0,0,0-.016,3.093,6.608,6.608,0,0,0,2.351-2.009,1.288,1.288,0,0,0-.626-1.71A1.287,1.287,0,0,0,1310.229-60.9Z" fill="#4250f0"/>
        <path id="Path_170800" data-name="Path 170800" d="M1307.288-56.964a6.6,6.6,0,0,0,2.95-.926,6.591,6.591,0,0,0-2.629-1.628,1.287,1.287,0,0,0-1.438,1.116A1.287,1.287,0,0,0,1307.288-56.964Z" fill="#4250f0"/>
      </g>
      <g id="Group_111223" data-name="Group 111223">
        <path id="Path_170801" data-name="Path 170801" d="M1541.448-44.8s-62.675-55.651,49.856-146.332C1591.3-191.128,1634.886-48.8,1541.448-44.8Z" fill="#f6bf28"/>
        <path id="Path_170802" data-name="Path 170802" d="M1591.394-191.4,1534.877-53.073C1522.348-71.5,1503.838-120.849,1591.394-191.4Z" fill="#e0aa16"/>
        <path id="Path_170803" data-name="Path 170803" d="M1537.264-58.646a.285.285,0,0,1-.1-.02.268.268,0,0,1-.146-.349l54.131-132.49a.267.267,0,0,1,.349-.147.269.269,0,0,1,.146.35l-54.13,132.49A.27.27,0,0,1,1537.264-58.646Z" fill="#12263f"/>
        <path id="Path_170804" data-name="Path 170804" d="M1563.136-121.971a.267.267,0,0,1-.241-.151.266.266,0,0,1,.125-.357l35.834-17.22a.267.267,0,0,1,.357.125.268.268,0,0,1-.125.357L1563.252-122A.268.268,0,0,1,1563.136-121.971Z" fill="#12263f"/>
        <path id="Path_170805" data-name="Path 170805" d="M1551.54-93.59a.269.269,0,0,1-.266-.238l-4.436-38.775a.267.267,0,0,1,.235-.3.273.273,0,0,1,.3.236l4.436,38.775a.267.267,0,0,1-.235.3Z" fill="#12263f"/>
      </g>
      <g id="Group_111224" data-name="Group 111224">
        <path id="Path_170806" data-name="Path 170806" d="M1544.3-45.46s-20.454-64.8,95.575-81.072C1639.877-126.532,1610.98-9.368,1544.3-45.46Z" fill="#28b5bd"/>
        <path id="Path_170807" data-name="Path 170807" d="M1639.877-126.532,1544.3-45.46S1602.52-1.313,1639.877-126.532Z" fill="#83d1d6"/>
        <path id="Path_170808" data-name="Path 170808" d="M1620.352-94.259a.3.3,0,0,1-.048.016l-28.021,7.153a.4.4,0,0,1-.483-.286.4.4,0,0,1,.286-.482l28.021-7.153a.4.4,0,0,1,.482.286A.4.4,0,0,1,1620.352-94.259Z" fill="#28b5bd"/>
        <path id="Path_170809" data-name="Path 170809" d="M1592.515-59.463a.4.4,0,0,1-.087.024l-37.844,5.7a.4.4,0,0,1-.451-.333.4.4,0,0,1,.334-.451l37.843-5.7a.4.4,0,0,1,.451.332A.4.4,0,0,1,1592.515-59.463Z" fill="#28b5bd"/>
      </g>
      <g id="Group_111225" data-name="Group 111225">
        <path id="Path_170810" data-name="Path 170810" d="M1552.961-39.2a.249.249,0,0,1-.054-.006.269.269,0,0,1-.208-.318c7.981-37.951,15.884-64.937,22.252-75.987.142-.245.244-.422.281-.511a.268.268,0,0,1,.352-.143.268.268,0,0,1,.143.352,6.486,6.486,0,0,1-.31.571c-6.341,11-14.222,37.932-22.192,75.828A.267.267,0,0,1,1552.961-39.2Z" fill="#12263f"/>
        <path id="Path_170811" data-name="Path 170811" d="M1579.849-117.847c-.76,1.244-4.9,3.761-5.258,3.544s-.007-5.052.753-6.3a2.639,2.639,0,0,1,3.628-.876A2.64,2.64,0,0,1,1579.849-117.847Z" fill="#12263f"/>
        <path id="Path_170812" data-name="Path 170812" d="M1571.8-113.577c.548,1.387.053,6.321-.342,6.477s-4.132-3.105-4.68-4.491a2.7,2.7,0,0,1,1.518-3.5A2.7,2.7,0,0,1,1571.8-113.577Z" fill="#12263f"/>
        <path id="Path_170813" data-name="Path 170813" d="M1577.678-105.521c-1.474.222-6.17-1.371-6.234-1.792s3.956-3.326,5.43-3.548a2.7,2.7,0,0,1,3.073,2.268A2.7,2.7,0,0,1,1577.678-105.521Z" fill="#12263f"/>
        <path id="Path_170814" data-name="Path 170814" d="M1561.177-87.971c1.166,2.215,1.233,10.539.6,10.872s-7.456-4.434-8.622-6.649a4.532,4.532,0,0,1,1.9-6.122A4.532,4.532,0,0,1,1561.177-87.971Z" fill="#12263f"/>
        <path id="Path_170815" data-name="Path 170815" d="M1572.445-75.591c-2.421.638-10.546-1.171-10.728-1.862s6-6.266,8.42-6.9a4.533,4.533,0,0,1,5.537,3.23A4.531,4.531,0,0,1,1572.445-75.591Z" fill="#12263f"/>
        <path id="Path_170816" data-name="Path 170816" d="M1555.48-78.166c1.988,2.33,4.31,12.248,3.645,12.816s-10.095-3.285-12.083-5.615a5.545,5.545,0,0,1,.618-7.819A5.547,5.547,0,0,1,1555.48-78.166Z" fill="#12263f"/>
        <path id="Path_170817" data-name="Path 170817" d="M1571.457-62.067c-3.027.471-12.69-2.754-12.824-3.618s8.091-6.872,11.118-7.343a5.546,5.546,0,0,1,6.333,4.628A5.546,5.546,0,0,1,1571.457-62.067Z" fill="#12263f"/>
        <path id="Path_170818" data-name="Path 170818" d="M1552.492-65.758c1.989,2.33,4.311,12.248,3.645,12.816s-10.094-3.285-12.083-5.615a5.546,5.546,0,0,1,.618-7.819A5.547,5.547,0,0,1,1552.492-65.758Z" fill="#12263f"/>
        <path id="Path_170819" data-name="Path 170819" d="M1568.469-49.659c-3.027.471-12.689-2.754-12.824-3.618s8.092-6.872,11.118-7.343a5.547,5.547,0,0,1,6.334,4.628A5.546,5.546,0,0,1,1568.469-49.659Z" fill="#12263f"/>
        <path id="Path_170820" data-name="Path 170820" d="M1544.982-49.847c2.726,1.4,8.651,9.683,8.252,10.461s-10.584.809-13.311-.588a5.547,5.547,0,0,1-2.406-7.466A5.547,5.547,0,0,1,1544.982-49.847Z" fill="#12263f"/>
        <path id="Path_170821" data-name="Path 170821" d="M1565.933-37.422c-2.944.846-12.933-1.146-13.175-1.986s7.169-7.83,10.113-8.675a5.546,5.546,0,0,1,6.862,3.8A5.545,5.545,0,0,1,1565.933-37.422Z" fill="#12263f"/>
        <path id="Path_170822" data-name="Path 170822" d="M1568.53-105.608c.557,1.409.054,6.423-.348,6.582s-4.2-3.155-4.755-4.564a2.744,2.744,0,0,1,1.543-3.56A2.743,2.743,0,0,1,1568.53-105.608Z" fill="#12263f"/>
        <path id="Path_170823" data-name="Path 170823" d="M1574.315-97.314c-1.5.226-6.27-1.393-6.334-1.821s4.019-3.379,5.517-3.6a2.743,2.743,0,0,1,3.121,2.305A2.743,2.743,0,0,1,1574.315-97.314Z" fill="#12263f"/>
        <path id="Path_170824" data-name="Path 170824" d="M1564.659-98.135c.953,1.93.826,9.087.275,9.359s-6.311-3.978-7.265-5.908a3.9,3.9,0,0,1,1.769-5.22A3.9,3.9,0,0,1,1564.659-98.135Z" fill="#12263f"/>
        <path id="Path_170825" data-name="Path 170825" d="M1573.849-86.426c-2.128.32-8.907-1.979-9-2.587s5.709-4.8,7.838-5.122a3.9,3.9,0,0,1,4.434,3.274A3.9,3.9,0,0,1,1573.849-86.426Z" fill="#12263f"/>
      </g>
      <g id="Group_111226" data-name="Group 111226">
        <path id="Path_170826" data-name="Path 170826" d="M1525.82-39.278a.215.215,0,0,1-.036,0,.18.18,0,0,1-.166-.194c2-25.968,4.9-44.628,8.175-52.543.073-.175.126-.3.143-.364a.18.18,0,0,1,.221-.127.181.181,0,0,1,.127.222c-.023.084-.074.206-.157.407-3.261,7.881-6.155,26.5-8.149,52.433A.181.181,0,0,1,1525.82-39.278Z" fill="#83d1d6"/>
        <path id="Path_170827" data-name="Path 170827" d="M1536.851-94a9.107,9.107,0,0,1-3.192,2.819,9.1,9.1,0,0,1-.049-4.258,1.774,1.774,0,0,1,2.34-.9A1.774,1.774,0,0,1,1536.851-94Z" fill="#83d1d6"/>
        <path id="Path_170828" data-name="Path 170828" d="M1531.864-90.449a9.308,9.308,0,0,1,.338,4.343,9.307,9.307,0,0,1-3.508-2.581,1.813,1.813,0,0,1,.7-2.466A1.813,1.813,0,0,1,1531.864-90.449Z" fill="#83d1d6"/>
        <path id="Path_170829" data-name="Path 170829" d="M1536.483-85.6a9.3,9.3,0,0,1-4.308-.649,9.31,9.31,0,0,1,3.306-2.837,1.813,1.813,0,0,1,2.243,1.242A1.814,1.814,0,0,1,1536.483-85.6Z" fill="#83d1d6"/>
        <path id="Path_170830" data-name="Path 170830" d="M1527.029-72.47c.97,1.374,1.742,6.91,1.35,7.187s-5.352-2.3-6.322-3.674a3.043,3.043,0,0,1,.73-4.242A3.044,3.044,0,0,1,1527.029-72.47Z" fill="#83d1d6"/>
        <path id="Path_170831" data-name="Path 170831" d="M1535.614-65.211c-1.556.636-7.125.142-7.306-.3s3.447-4.7,5-5.333a3.044,3.044,0,0,1,3.969,1.666A3.044,3.044,0,0,1,1535.614-65.211Z" fill="#83d1d6"/>
        <path id="Path_170832" data-name="Path 170832" d="M1524.092-65.443c1.528,1.378,3.941,7.779,3.547,8.215s-7.009-1.3-8.536-2.682a3.725,3.725,0,0,1-.272-5.261A3.726,3.726,0,0,1,1524.092-65.443Z" fill="#83d1d6"/>
        <path id="Path_170833" data-name="Path 170833" d="M1536.138-56.119c-1.975.578-8.69-.725-8.855-1.288s4.787-5.284,6.761-5.862a3.726,3.726,0,0,1,4.622,2.528A3.726,3.726,0,0,1,1536.138-56.119Z" fill="#83d1d6"/>
        <path id="Path_170834" data-name="Path 170834" d="M1523.187-56.919c1.528,1.377,3.941,7.779,3.547,8.215s-7.008-1.305-8.536-2.683a3.725,3.725,0,0,1-.272-5.261A3.726,3.726,0,0,1,1523.187-56.919Z" fill="#83d1d6"/>
        <path id="Path_170835" data-name="Path 170835" d="M1535.233-47.6c-1.975.578-8.69-.725-8.855-1.288s4.787-5.283,6.761-5.861a3.725,3.725,0,0,1,4.622,2.528A3.725,3.725,0,0,1,1535.233-47.6Z" fill="#83d1d6"/>
        <path id="Path_170836" data-name="Path 170836" d="M1519.577-45.668c1.937.692,6.607,5.691,6.409,6.244s-6.977,1.464-8.915.772a3.726,3.726,0,0,1-2.255-4.761A3.726,3.726,0,0,1,1519.577-45.668Z" fill="#83d1d6"/>
        <path id="Path_170837" data-name="Path 170837" d="M1534.614-39.226c-1.887.821-8.713.368-8.947-.171s4.089-5.84,5.976-6.661a3.725,3.725,0,0,1,4.9,1.931A3.724,3.724,0,0,1,1534.614-39.226Z" fill="#83d1d6"/>
        <path id="Path_170838" data-name="Path 170838" d="M1530.383-84.856c.494.889.6,4.272.344,4.413s-3.071-1.734-3.565-2.624a1.842,1.842,0,0,1,.716-2.5A1.842,1.842,0,0,1,1530.383-84.856Z" fill="#83d1d6"/>
        <path id="Path_170839" data-name="Path 170839" d="M1534.96-79.839c-.978.281-4.3-.38-4.377-.659s2.381-2.6,3.359-2.883a1.843,1.843,0,0,1,2.28,1.262A1.843,1.843,0,0,1,1534.96-79.839Z" fill="#83d1d6"/>
        <path id="Path_170840" data-name="Path 170840" d="M1528.459-79.542c.8,1.2,1.344,5.979,1,6.208s-4.55-2.1-5.354-3.3a2.618,2.618,0,0,1,.722-3.631A2.618,2.618,0,0,1,1528.459-79.542Z" fill="#83d1d6"/>
        <path id="Path_170841" data-name="Path 170841" d="M1535.6-72.549c-1.389.4-6.1-.539-6.218-.935s3.382-3.7,4.771-4.1a2.617,2.617,0,0,1,3.239,1.792A2.617,2.617,0,0,1,1535.6-72.549Z" fill="#83d1d6"/>
      </g>
    </g>
  </g>
</svg>
