<svg xmlns="http://www.w3.org/2000/svg" width="295" height="380" viewBox="0 0 295 380">
  <g id="t3-i2" transform="translate(-1727 463)">
    <rect id="Rectángulo_36704" data-name="Rectángulo 36704" width="295" height="380" transform="translate(1727 -463)" fill="none"/>
    <g id="Group_116700" data-name="Group 116700">
      <path id="Path_175942" data-name="Path 175942" d="M1925.2-445.693c-70.832-49.221-147.868,47.614-179.547,135.121-27.338,75.516-15.866,179.558,22.845,189.874,38.183,10.176,36.033-51.149,89.737-45.65,55.752,5.71,51.28,20.518,91.966,36.466,16.6,6.508,50.037,8.8,61.212-25.9C2030.06-213.672,2014.16-380.409,1925.2-445.693Z" fill="#e9fbfc"/>
      <path id="Path_175943" data-name="Path 175943" d="M1903.367-117.466c.6-12.19-12-32.851-58.428-18.651-26.852,8.213-39.663,26.461-34.578,43.525,4.461,14.967,30.584-4.707,46.43-5.976C1883.757-100.727,1902.455-98.751,1903.367-117.466Z" fill="#e9fbfc"/>
      <path id="Path_175944" data-name="Path 175944" d="M1788.586-441.071c-.628-15.952-21.869-.39-38.57,15.639-13.089,12.562-6.29,34.017,7.394,35.644,15.961,1.9,12.287-19.74,14.253-29.081C1775.5-437.1,1789.028-429.813,1788.586-441.071Z" fill="#e9fbfc"/>
    </g>
    <g id="Group_116721" data-name="Group 116721">
      <rect id="Rectangle_37606" data-name="Rectangle 37606" width="183.307" height="251.451" rx="10.549" transform="translate(1832.659 -436.451)" fill="#209299"/>
      <g id="Group_116719" data-name="Group 116719">
        <g id="Group_116701" data-name="Group 116701">
          <rect id="Rectangle_37607" data-name="Rectangle 37607" width="150.875" height="219.164" transform="translate(1848.523 -426.317)" fill="#f6f5f5"/>
          <path id="Path_175945" data-name="Path 175945" d="M1848.523-426.316c-.047,85.462-2.806,188.534,6.794,211.355,42.284,4.119,91.794,5.442,144.084,5.688l-19.877-216.383Z" fill="#e4e4e4"/>
          <path id="Path_175946" data-name="Path 175946" d="M1862.075-221.867c65.905,10.547,109.953,11.1,145.678,8.451-4.63-49.282-6.486-131.152-8.352-212.89l-79.417.176-71.876,4.744C1847.06-336.55,1846.946-258.185,1862.075-221.867Z" fill="#fff"/>
        </g>
        <g id="Group_116718" data-name="Group 116718">
          <rect id="Rectangle_37608" data-name="Rectangle 37608" width="79.392" height="12.093" transform="translate(1965.016 -394.016) rotate(178.652)" fill="#28b5bd"/>
          <g id="Group_116717" data-name="Group 116717">
            <rect id="Rectangle_37609" data-name="Rectangle 37609" width="71.611" height="5.535" transform="translate(1943.958 -278.367) rotate(178.652)" fill="#209299"/>
            <rect id="Rectangle_37610" data-name="Rectangle 37610" width="56.57" height="5.535" transform="matrix(-1, 0.024, -0.024, -1, 1928.921, -266.301)" fill="#83d1d6"/>
            <g id="Group_116704" data-name="Group 116704">
              <g id="Group_116702" data-name="Group 116702">
                <rect id="Rectangle_37611" data-name="Rectangle 37611" width="16.953" height="16.953" transform="matrix(1, 0.024, -0.024, 1, 1965.393, -284.505)" fill="#fff"/>
                <path id="Path_175947" data-name="Path 175947" d="M1982.463-266.612l-18.015-.424.424-18.015,18.015.424Zm-16.923-1.466,15.881.374.374-15.881-15.881-.374Z" fill="#83d1d6"/>
              </g>
              <g id="Group_116703" data-name="Group 116703">
                <path id="Path_175948" data-name="Path 175948" d="M1968.378-279.55c.524,2,1.49,10.394,5.692,8.048.969-.541,1.79-1.972,2.515-2.795l3.909-4.438,7.818-8.877c.668-.758-2.281-2.66-3.12-1.708l-6.949,7.89-3.475,3.946c-.8.912-2.662,3.856-3.855,4.117l1.945.628c.459.376-.393-2.289-.412-2.362l-.969-3.713c-.267-1.022-3.494-2.251-3.1-.736Z" fill="#e86038"/>
              </g>
            </g>
            <rect id="Rectangle_37612" data-name="Rectangle 37612" width="71.611" height="5.535" transform="matrix(-1, 0.024, -0.024, -1, 1941.782, -370.804)" fill="#209299"/>
            <rect id="Rectangle_37613" data-name="Rectangle 37613" width="48.675" height="5.535" transform="translate(1918.853 -358.739) rotate(178.652)" fill="#83d1d6"/>
            <g id="Group_116707" data-name="Group 116707">
              <g id="Group_116705" data-name="Group 116705">
                <rect id="Rectangle_37614" data-name="Rectangle 37614" width="16.953" height="16.953" transform="matrix(1, 0.024, -0.024, 1, 1963.441, -376.942)" fill="#fff"/>
                <path id="Path_175949" data-name="Path 175949" d="M1980.511-359.049l-18.015-.424.424-18.015,18.015.424Zm-16.923-1.466,15.881.374.374-15.881-15.881-.374Z" fill="#83d1d6"/>
              </g>
              <g id="Group_116706" data-name="Group 116706">
                <path id="Path_175950" data-name="Path 175950" d="M1966.2-372.483c.523,2,1.49,10.395,5.692,8.048.969-.541,1.789-1.971,2.514-2.794l3.909-4.438,7.819-8.877c.668-.758-2.281-2.66-3.12-1.708l-6.95,7.89-3.474,3.945c-.8.913-2.663,3.856-3.856,4.117l1.946.629c.458.376-.393-2.29-.412-2.362l-.97-3.713c-.267-1.022-3.494-2.252-3.1-.737Z" fill="#e86038"/>
              </g>
            </g>
            <rect id="Rectangle_37615" data-name="Rectangle 37615" width="58.97" height="5.535" transform="translate(1930.154 -339.992) rotate(178.652)" fill="#209299"/>
            <rect id="Rectangle_37616" data-name="Rectangle 37616" width="71.611" height="5.535" transform="translate(1942.791 -327.926) rotate(178.652)" fill="#83d1d6"/>
            <g id="Group_116710" data-name="Group 116710">
              <g id="Group_116708" data-name="Group 116708">
                <rect id="Rectangle_37617" data-name="Rectangle 37617" width="16.953" height="16.953" transform="matrix(1, 0.024, -0.024, 1, 1964.177, -346.13)" fill="#fff"/>
                <path id="Path_175951" data-name="Path 175951" d="M1981.248-328.237l-18.016-.424.424-18.015,18.016.424Zm-16.924-1.466,15.882.374.373-15.881-15.881-.374Z" fill="#83d1d6"/>
              </g>
              <g id="Group_116709" data-name="Group 116709">
                <path id="Path_175952" data-name="Path 175952" d="M1966.928-341.192c.523,2,1.49,10.394,5.692,8.048.969-.541,1.79-1.972,2.514-2.795q1.954-2.219,3.91-4.438l7.818-8.876c.668-.759-2.281-2.661-3.12-1.709l-6.949,7.891-3.475,3.945c-.8.913-2.663,3.856-3.856,4.117l1.946.628c.458.377-.393-2.289-.412-2.362l-.97-3.712c-.267-1.023-3.493-2.252-3.1-.737Z" fill="#e86038"/>
              </g>
            </g>
            <rect id="Rectangle_37618" data-name="Rectangle 37618" width="71.611" height="5.535" transform="translate(1943.232 -309.179) rotate(178.652)" fill="#209299"/>
            <rect id="Rectangle_37619" data-name="Rectangle 37619" width="32.026" height="5.535" transform="translate(1903.658 -297.114) rotate(178.652)" fill="#83d1d6"/>
            <g id="Group_116713" data-name="Group 116713">
              <g id="Group_116711" data-name="Group 116711">
                <rect id="Rectangle_37620" data-name="Rectangle 37620" width="16.953" height="16.953" transform="matrix(1, 0.024, -0.024, 1, 1964.672, -315.317)" fill="#fff"/>
                <path id="Path_175953" data-name="Path 175953" d="M1981.743-297.424l-18.016-.424.424-18.015,18.016.424Zm-16.923-1.466,15.881.374.374-15.881-15.882-.374Z" fill="#83d1d6"/>
              </g>
              <g id="Group_116712" data-name="Group 116712">
                <path id="Path_175954" data-name="Path 175954" d="M1967.653-310.161c.524,2,1.49,10.4,5.692,8.048.969-.541,1.79-1.971,2.515-2.794l3.909-4.438,7.818-8.877c.668-.758-2.281-2.66-3.12-1.708l-6.949,7.89-3.475,3.945c-.8.913-2.663,3.856-3.855,4.117l1.945.629c.459.376-.393-2.29-.412-2.362l-.969-3.713c-.268-1.022-3.494-2.252-3.1-.737Z" fill="#e86038"/>
              </g>
            </g>
            <rect id="Rectangle_37621" data-name="Rectangle 37621" width="28.386" height="5.535" transform="translate(1873.213 -239.488) rotate(-1.348)" fill="#83d1d6"/>
            <path id="Path_175955" data-name="Path 175955" d="M1944.65-247.705l-71.591,1.685-.13-5.533c27.7-.65,62.964-1.948,70.16-.844A6.208,6.208,0,0,1,1944.65-247.705Z" fill="#209299"/>
            <g id="Group_116716" data-name="Group 116716">
              <g id="Group_116714" data-name="Group 116714">
                <rect id="Rectangle_37622" data-name="Rectangle 37622" width="16.953" height="16.953" transform="translate(1966.107 -253.92) rotate(1.348)" fill="#fff"/>
                <path id="Path_175956" data-name="Path 175956" d="M1983.177-236.027l-18.015-.423.424-18.016,18.015.424Zm-16.923-1.466,15.881.374.374-15.881-15.881-.374Z" fill="#83d1d6"/>
              </g>
              <g id="Group_116715" data-name="Group 116715">
                <path id="Path_175957" data-name="Path 175957" d="M1968.861-249.208c.523,2,1.49,10.394,5.692,8.048.969-.541,1.79-1.972,2.514-2.794l3.909-4.439,7.819-8.876c.668-.759-2.281-2.661-3.12-1.709q-3.474,3.947-6.95,7.891l-3.474,3.945c-.8.913-2.663,3.856-3.856,4.117l1.946.629c.458.376-.393-2.29-.412-2.362q-.484-1.857-.97-3.713c-.267-1.023-3.494-2.252-3.1-.737Z" fill="#e86038"/>
              </g>
            </g>
          </g>
        </g>
      </g>
      <g id="Group_116720" data-name="Group 116720">
        <path id="Path_175958" data-name="Path 175958" d="M1890.332-434.928v16.915h67.962v-16.915a9.764,9.764,0,0,0-2.861-6.91,7.906,7.906,0,0,0-.69-.619,9.7,9.7,0,0,0-6.22-2.242,11.5,11.5,0,0,1-4.995-1.139,11.916,11.916,0,0,1-1.879-1.131,11.5,11.5,0,0,1-4.17-5.914,11.543,11.543,0,0,0-4.3-6.006,11.543,11.543,0,0,0-6.746-2.178h-4.242a11.545,11.545,0,0,0-6.746,2.178,11.536,11.536,0,0,0-4.3,6.006,11.505,11.505,0,0,1-4.17,5.914,11.967,11.967,0,0,1-1.879,1.131,11.509,11.509,0,0,1-5,1.139,9.7,9.7,0,0,0-6.22,2.242A9.726,9.726,0,0,0,1890.332-434.928Z" fill="#e86038"/>
        <path id="Path_175959" data-name="Path 175959" d="M1884.817-426.317v12.575h78.992v-12.575h-5.515v8.3h-67.962v-8.3Z" fill="#e4e4e4"/>
        <ellipse id="Ellipse_5651" data-name="Ellipse 5651" cx="6.028" cy="5.729" rx="6.028" ry="5.729" transform="translate(1918.284 -456.656)" fill="#fff"/>
      </g>
    </g>
    <g id="Group_116726" data-name="Group 116726">
      <g id="Group_116722" data-name="Group 116722">
        <path id="Path_175960" data-name="Path 175960" d="M1879.059-298.55c-2.739-.519-5.3-5.1-6.189-6.85a2.185,2.185,0,0,1-.2-1.393l1.09-5.778s2.516.428,2.321,3.777a2.46,2.46,0,0,0,.176,1.02l.963,2.519,2.847-2.2-1.562-4.408a7.582,7.582,0,0,1-3.168.23c-2.215-.707.689-2.434,1.607-2.618s2.939-.918,3.857.643,1.47,2.48,1.47,2.48,1.01-3.49.321-11.3c-.031-.352.849-.344,1.1-.093.74.753,1.918,3.044,1.981,10.011,0,0,.123-8.119,1.515-8.954,1.148-.689,1.728,3.285.919,10.024,0,0,1.5-5.835,2.571-5.845,1.81-.018.024,15.583-4.525,20.233Z" fill="#f9b384"/>
        <path id="Path_175961" data-name="Path 175961" d="M1887.648-300.938q-.121,1.164-.267,2.256v.009a65.446,65.446,0,0,1-1.2,6.881c-.024.1-.04.186-.064.275-1.383,5.669-1.634,8.443-6.357,7.7l-4.86-5.531-.049-.057-.355-.4.986-2.912.13-.38.727-2.118.089-.275,1.246-3.648.5-1.479Z" fill="#f9b384"/>
      </g>
      <g id="Group_116723" data-name="Group 116723">
        <path id="Path_175962" data-name="Path 175962" d="M1797.355-99.521l-1.237,3.866c-8.483,2.787-13.431,5.98-13.748,9.7h24.53l1.967-12.946A19.028,19.028,0,0,1,1797.355-99.521Z" fill="#12263f"/>
        <path id="Path_175963" data-name="Path 175963" d="M1800.431-109.133l-3.076,9.612a19.028,19.028,0,0,0,11.512.624l1.268-8.349Z" fill="#f9b384"/>
        <path id="Path_175964" data-name="Path 175964" d="M1842.369-99.95l.72-9.789-11.524.606-.629,9.025A18.855,18.855,0,0,0,1842.369-99.95Z" fill="#f9b384"/>
        <path id="Path_175965" data-name="Path 175965" d="M1856.23-85.951c-.317-3.724-4.65-8.828-14.152-10.041l.291-3.958a18.855,18.855,0,0,1-11.433-.158l-.988,14.157Z" fill="#12263f"/>
      </g>
      <path id="Path_175966" data-name="Path 175966" d="M1833.029-296.037l-13.9.1v-21.026h13.481l.008,1.286.065,6.664.1,10.7Z" fill="#f9b384"/>
      <path id="Path_175967" data-name="Path 175967" d="M1832.681-308.006c-2.5,2.628-9.017-.339-11.766-3.235l11.7-3.428Z" fill="#e28b6d"/>
      <path id="Path_175968" data-name="Path 175968" d="M1835.908-321.818a30.033,30.033,0,0,1-.364,4.731c-.679,4.237-2.475,7.9-6.615,8.014-9.785.283-12.575-5.313-14.419-9.891s1.148-15.607,1.148-15.607l12.664-1.254,6.955,5.7A51.914,51.914,0,0,1,1835.908-321.818Z" fill="#f9b384"/>
      <path id="Path_175969" data-name="Path 175969" d="M1814.905-321.585s2.791-.128,3.268-7.334c4.992,1.671,8.64.147,11.53-3.177,2.466,3.257,9.37,4.277,11.7-2.392,1.685-4.818-2.965-11.995-9.738-7.648-6.637-3.354-16.7-3.124-19.6,5.1,0,0-10.071,4.644.593,14.868A12.342,12.342,0,0,0,1814.905-321.585Z" fill="#12263f"/>
      <path id="Path_175970" data-name="Path 175970" d="M1853.4-220.469l-7.684,116.188h-18.061l4.515-112.745,2.763-1.28Z" fill="#12263f"/>
      <path id="Path_175971" data-name="Path 175971" d="M1806.361-236.367l-12.669,132.086h19.678L1832.1-213.993l21.3-6.47.943-23.452-47.443-1.078Z" fill="#204470"/>
      <path id="Path_175972" data-name="Path 175972" d="M1809.186-236.078c10.748,3.858,35.966-.551,41.2-5.926l-3.721-7.441-41.477,5.512Z" opacity="0.6"/>
      <path id="Path_175973" data-name="Path 175973" d="M1849.421-243.8c-.348.146-.7.3-1.067.437a73.039,73.039,0,0,1-13.473,4.011,61.909,61.909,0,0,1-9.033,1.108,52.232,52.232,0,0,1-14.184-1.148l6.024-56.172.736-6.85s7.885,9.705,16.578-1.011Z" fill="#fff"/>
      <path id="Path_175974" data-name="Path 175974" d="M1825.848-238.24a52.232,52.232,0,0,1-14.184-1.148l6.024-56.172,2.151-3.109C1825.152-285.747,1830.595-257.131,1825.848-238.24Z" fill="#ffa185" opacity="0.3"/>
      <path id="Path_175975" data-name="Path 175975" d="M1819.132-304.634c5.99,25.434,8.455,51.6-.371,80.667-6.545,2.49-13.67,2.462-21.3.27l1.887-52.835L1754.942-246l-2.7-16.645C1769.318-278.973,1798.835-303.633,1819.132-304.634Z" fill="#ff805a"/>
      <path id="Path_175976" data-name="Path 175976" d="M1848.354-243.359a73.039,73.039,0,0,1-13.473,4.011c-2.677-15.349-3.267-40.564-1.092-51.942Z" fill="#ffa185" opacity="0.3"/>
      <path id="Path_175977" data-name="Path 175977" d="M1886.184-291.792c-.024.1-.04.186-.064.275-1.383,5.669-1.634,8.443-6.357,7.7l-4.86-5.531-.049-.057.631-3.316.13-.38.727-2.118.089-.275Z" fill="#e28b6d" opacity="0.6"/>
      <path id="Path_175978" data-name="Path 175978" d="M1885.343-286.64s-11.928,25.271-19,25.878c-6.86.588-10.109-6.065-10.109-6.065l4.852,36.932a30.96,30.96,0,0,1-19.141,2.693c-6.413-20.823-8.837-47.749-9.314-77.735,5.192.324,15.474.767,19.156,3.134,6.6,4.245,14.758,19.408,14.758,19.408l9.5-12.939Z" fill="#ff805a"/>
      <g id="Group_116725" data-name="Group 116725">
        <path id="Path_175979" data-name="Path 175979" d="M1739.929-322.248s.722-12.089,1.952-11.519,3.7,11.083,3.7,11.083l-2.638,4.257Z" fill="#12263f"/>
        <path id="Path_175980" data-name="Path 175980" d="M1776.23-103.944l.358,3.979A12.77,12.77,0,0,1,1765.012-86.1l-1.022.092a12.77,12.77,0,0,1-13.861-11.576l-.358-3.979Z" fill="#ff805a"/>
        <rect id="Rectangle_37623" data-name="Rectangle 37623" width="26.565" height="193.438" transform="translate(1732.462 -294.229) rotate(-5.134)" fill="#f6bf28"/>
        <g id="Group_116724" data-name="Group 116724" opacity="0.3">
          <path id="Path_175981" data-name="Path 175981" d="M1755.083-129.106l-.073-.8-15.244-169.681,11.007-.989.073.806L1766.09-130.1Zm-13.562-169.02,15.028,167.265,7.786-.7-15.028-167.264Z" fill="#bd8e12"/>
        </g>
        <path id="Path_175982" data-name="Path 175982" d="M1776.227-103.941l-26.452,2.378-.7-7.763-.485-5.394-1.5-16.578,26.46-2.378,1.488,16.578.485,5.394Z" fill="#12263f"/>
        <rect id="Rectangle_37624" data-name="Rectangle 37624" width="26.559" height="5.416" transform="translate(1748.594 -114.721) rotate(-5.136)" fill="#f6bf28"/>
        <path id="Path_175983" data-name="Path 175983" d="M1732.458-294.228l7.35-29.455a6.319,6.319,0,0,0,5.614-.775l13.5,27.852Z" fill="#ffe9ac"/>
      </g>
      <path id="Path_175984" data-name="Path 175984" d="M1816.368-322.8c-.118-.435-2.092-1.032-2.528-1.152a3.03,3.03,0,0,0-2.062.019c-2.388,1.079-2.069,4.5-.832,6.3a5.387,5.387,0,0,0,2.921,2.144c.433.124,4.541.173,4.361-.487Z" fill="#f9b384"/>
      <path id="Path_175985" data-name="Path 175985" d="M1741.194-254.09a3.6,3.6,0,0,0-4.595-2.374c-3.009,1.039-5.631,2.8-6.037,5.8-.37,2.732,1,11.457,7.1,12.578l-.5-4.483s3.736-.872,4.483-2.491C1742.168-246.192,1742.2-250.925,1741.194-254.09Z" fill="#f9b384"/>
      <path id="Path_175986" data-name="Path 175986" d="M1854.366-284.1c.32,1.91.594,3.825.856,5.741s.486,3.837.732,5.755l.627,5.767c.183,1.926.362,3.852.48,5.785l-.314.037c-.331-1.909-.6-3.824-.867-5.74l-.721-5.756c-.2-1.923-.438-3.843-.616-5.769s-.363-3.851-.491-5.783Z" fill="#cc5531"/>
      <path id="Path_175987" data-name="Path 175987" d="M1799.982-284.409c0,2.144-.056,4.286-.12,6.428s-.165,4.281-.244,6.422l-.351,6.416c-.143,2.138-.29,4.275-.5,6.41l-.316-.015c-.005-2.145.05-4.286.109-6.428l.256-6.421c.122-2.139.214-4.279.362-6.416s.289-4.276.486-6.411Z" fill="#cc5531"/>
      <path id="Path_175988" data-name="Path 175988" d="M1826.183-323.005a1.271,1.271,0,0,1-.7,1.607c-.558.126-1.15-.391-1.32-1.154a1.27,1.27,0,0,1,.7-1.607C1825.421-324.285,1826.012-323.768,1826.183-323.005Z" fill="#102048"/>
      <path id="Path_175989" data-name="Path 175989" d="M1834.243-323.948c-.033.781-.523,1.395-1.1,1.37s-1.008-.676-.975-1.457.523-1.395,1.095-1.37S1834.276-324.729,1834.243-323.948Z" fill="#102048"/>
      <path id="Path_175990" data-name="Path 175990" d="M1829.749-323.307a18.437,18.437,0,0,1,.412,1.936,1.5,1.5,0,0,0,.392.672,2.544,2.544,0,0,0,.758.374,2.116,2.116,0,0,1,.959.722,1.256,1.256,0,0,1,.1,1.323,2.482,2.482,0,0,1-.791.8c-.277.187-.544.386-.832.561l-.208-.238c.212-.262.446-.5.669-.749a2.4,2.4,0,0,0,.522-.681c.171-.374-.2-.783-.726-.994a2.823,2.823,0,0,1-.986-.56,1.972,1.972,0,0,1-.519-1.069c-.134-.75.019-1.391-.053-2.014Z" fill="#e28b6d"/>
      <path id="Path_175991" data-name="Path 175991" d="M1822.324-325.052a2.358,2.358,0,0,1,.826-1.261,2.513,2.513,0,0,1,1.466-.549,2.714,2.714,0,0,1,2.55,1.433l-.248.2a3.472,3.472,0,0,0-2.263-.825,2.642,2.642,0,0,0-2.044,1.139Z" fill="#102048"/>
      <path id="Path_175992" data-name="Path 175992" d="M1830.671-326.043a2.434,2.434,0,0,1,.635-1.022,2.119,2.119,0,0,1,1.148-.568,2.015,2.015,0,0,1,2.144,1.07l-.253.19a2.563,2.563,0,0,0-1.773-.464,2.269,2.269,0,0,0-.844.309,5.527,5.527,0,0,0-.785.646Z" fill="#102048"/>
      <path id="Path_175993" data-name="Path 175993" d="M1826.2-315.475c1.412,2.21,3.294,2.45,4.747.124Z" fill="#fff"/>
      <path id="Path_175994" data-name="Path 175994" d="M1835.946-322.357a37.267,37.267,0,0,1-.4,5.27,2.437,2.437,0,0,1-1.69-2.321C1833.854-320.629,1834.789-322.171,1835.946-322.357Z" fill="#fc8879" opacity="0.4"/>
      <circle id="Ellipse_5652" data-name="Ellipse 5652" cx="2.608" cy="2.608" r="2.608" transform="translate(1820.143 -320.571)" fill="#fc8879" opacity="0.4"/>
      <path id="Path_175995" data-name="Path 175995" d="M1814.659-320.206a13.015,13.015,0,0,0-1.458-.96,1.264,1.264,0,0,0-.643-.167,1.443,1.443,0,0,0-.673.308l-.265-.171a1.258,1.258,0,0,1,.768-.827,1.507,1.507,0,0,1,1.17.135,3.034,3.034,0,0,1,1.353,1.49Z" fill="#e28b6d"/>
      <path id="Path_175996" data-name="Path 175996" d="M1741.645-245.059l-3.753,11.4-.775-8.913A7.772,7.772,0,0,0,1741.645-245.059Z" fill="#6f3428" opacity="0.6"/>
    </g>
    <g id="Group_116727" data-name="Group 116727">
      <rect id="Rectangle_37625" data-name="Rectangle 37625" width="289.791" height="1.617" transform="translate(1730.209 -86.685)" fill="#102048"/>
    </g>
  </g>
</svg>
