<svg xmlns="http://www.w3.org/2000/svg" xmlns:xlink="http://www.w3.org/1999/xlink" width="295" height="200" viewBox="0 0 295 200">
  <defs>
    <clipPath id="clip-path">
      <path id="Path_169794" data-name="Path 169794" d="M-988.526,87.181v-24.8h-69.948v24.8A58.411,58.411,0,0,0-1081.962,134a58.528,58.528,0,0,0,58.462,58.462A58.528,58.528,0,0,0-965.038,134,58.411,58.411,0,0,0-988.526,87.181Z" fill="none"/>
    </clipPath>
  </defs>
  <g id="t4-i8" transform="translate(1171 -34)">
    <rect id="Rectángulo_36457" data-name="Rectángulo 36457" width="295" height="200" rx="10" transform="translate(-1171 34)" fill="#e5f8f9"/>
    <g id="Group_110685" data-name="Group 110685">
      <g id="Group_110672" data-name="Group 110672">
        <g id="Group_110671" data-name="Group 110671">
          <path id="Path_169737" data-name="Path 169737" d="M-1023.5,223.722v-31.26A58.528,58.528,0,0,0-965.038,134h31.26a89.136,89.136,0,0,1-26.279,63.443A89.136,89.136,0,0,1-1023.5,223.722Z" fill="#bfff29"/>
          <path id="Path_169738" data-name="Path 169738" d="M-1023.5,223.722a89.135,89.135,0,0,1-63.443-26.279A89.136,89.136,0,0,1-1113.222,134h31.26a58.528,58.528,0,0,0,58.462,58.462Z" fill="#ffcd29"/>
          <path id="Path_169739" data-name="Path 169739" d="M-1023.5,192.463v31.26a91.008,91.008,0,0,1-14.647-1.181l-19.916-14.434,23.139-16.769A58.161,58.161,0,0,0-1023.5,192.463Z" opacity="0.1"/>
          <path id="Path_169740" data-name="Path 169740" d="M-1053.708,208.108l30.208-21.892V230Z" fill="#bfff29"/>
          <path id="Path_169741" data-name="Path 169741" d="M-933.777,134a90.707,90.707,0,0,1-1.178,14.624l-14.452,19.943-16.757-23.124A58.324,58.324,0,0,0-965.037,134Z" opacity="0.1"/>
          <path id="Path_169742" data-name="Path 169742" d="M-949.408,164.208-971.3,134h43.783Z" fill="#56aaff"/>
          <path id="Path_169743" data-name="Path 169743" d="M-933.778,134h-31.26A58.528,58.528,0,0,0-1023.5,75.538V44.278a89.136,89.136,0,0,1,63.443,26.279A89.135,89.135,0,0,1-933.778,134Z" fill="#56aaff"/>
          <path id="Path_169744" data-name="Path 169744" d="M-1081.962,134h-31.26a89.134,89.134,0,0,1,26.279-63.443A89.135,89.135,0,0,1-1023.5,44.278v31.26A58.528,58.528,0,0,0-1081.962,134Z" fill="#ff6161"/>
          <g id="Group_110667" data-name="Group 110667">
            <path id="Path_169745" data-name="Path 169745" d="M-1088.746,88.22a23.222,23.222,0,0,1,2.163-3.183,6.025,6.025,0,0,1,3.161-2.4,3.671,3.671,0,0,1,3.116.737,4.015,4.015,0,0,1,1.634,2.749,5.822,5.822,0,0,1-1.477,4.029,7.061,7.061,0,0,1-.642.728l3.535,2.771-1.736,2.215Zm6.225,1.3a4.346,4.346,0,0,0,.645-.7c.931-1.188.905-2.392-.107-3.186-.91-.713-1.947-.508-2.821.607a4.827,4.827,0,0,0-.636.993Z" fill="#fff"/>
            <path id="Path_169746" data-name="Path 169746" d="M-1081.1,78.726l2.063-1.968,7.024,7.362,3.614-3.448,1.647,1.726-5.677,5.416Z" fill="#fff"/>
            <path id="Path_169747" data-name="Path 169747" d="M-1065.193,77.209l1.1,3.159-2.42,1.679-4.005-12.51,3.063-2.124,10.36,8.1-2.511,1.742-2.634-2.1Zm1.408-3.562-2.162-1.744c-.609-.485-1.324-1.123-1.9-1.629l-.03.021c.271.719.66,1.606.906,2.32l.906,2.615Z" fill="#fff"/>
            <path id="Path_169748" data-name="Path 169748" d="M-1056.082,74.987l-5.211-11.428,3.018-1.377,4.284,3.106a36.428,36.428,0,0,1,3.651,3.066l.051-.023a46.643,46.643,0,0,1-2.393-4.664l-1.524-3.341,2.374-1.082,5.212,11.428-2.713,1.237-4.452-3.295a46.717,46.717,0,0,1-3.825-3.13l-.043.04c.756,1.478,1.525,3.073,2.376,4.939l1.569,3.441Z" fill="#fff"/>
          </g>
          <g id="Group_110668" data-name="Group 110668">
            <path id="Path_169749" data-name="Path 169749" d="M-968.665,76.078a25.375,25.375,0,0,1,2.8,2.639,8.077,8.077,0,0,1,2.51,4.686,5.556,5.556,0,0,1-2.029,4.775,6.367,6.367,0,0,1-5.15,1.925,9.01,9.01,0,0,1-5.128-3.15,24.5,24.5,0,0,1-2.054-2.492Zm-5.582,9.057a5.21,5.21,0,0,0,.63.762c1.734,1.9,3.912,2.168,6.113.129a3.6,3.6,0,0,0,.242-5.608,5.925,5.925,0,0,0-.956-.868Z" fill="#fff"/>
            <path id="Path_169750" data-name="Path 169750" d="M-957.9,100.048c-3.489,2.189-6.932,1.4-8.884-1.709-1.981-3.157-.756-6.5,2.275-8.4,3.188-2,6.85-1.46,8.821,1.681C-953.632,94.886-954.959,98.205-957.9,100.048Zm-4.967-7.6c-2.084,1.308-2.938,3.208-1.927,4.818,1.02,1.626,3.152,1.587,5.22.289,1.91-1.2,2.977-3.145,1.937-4.8C-958.652,91.128-960.794,91.151-962.862,92.449Z" fill="#fff"/>
          </g>
          <g id="Group_110669" data-name="Group 110669">
            <path id="Path_169751" data-name="Path 169751" d="M-1071.066,185.965l2.885-1.694,2.116,2.047-11.494,6.357-2.679-2.593,5.937-11.735,2.2,2.126-1.545,2.991Zm-3.767-.689-1.291,2.459c-.358.691-.846,1.516-1.23,2.182l.027.026c.652-.407,1.447-.96,2.1-1.34l2.389-1.4Z" fill="#fff"/>
            <path id="Path_169752" data-name="Path 169752" d="M-1080.523,170.558a8.11,8.11,0,0,1,2.366,2.256c2.606,3.474,1.785,6.884-1.077,9.031-3.43,2.572-7.172,1.558-9.453-1.484a7.393,7.393,0,0,1-1.409-2.81l2.151-.891a6.135,6.135,0,0,0,1.058,2.188,3.779,3.779,0,0,0,5.729.712,3.75,3.75,0,0,0,.865-5.68,7.078,7.078,0,0,0-1.748-1.648Z" fill="#fff"/>
            <path id="Path_169753" data-name="Path 169753" d="M-1091.183,171.538l1.582,2.979-2.106,1.119-4.528-8.525,2.106-1.119,1.609,3.028,8.985-4.773,1.337,2.518Z" fill="#fff"/>
          </g>
          <g id="Group_110670" data-name="Group 110670">
            <path id="Path_169754" data-name="Path 169754" d="M-970.387,176.028a8.1,8.1,0,0,1,1.368-2.969c2.444-3.59,5.937-3.918,8.895-1.9,3.543,2.412,3.8,6.282,1.655,9.424a7.4,7.4,0,0,1-2.2,2.243l-1.539-1.747a6.127,6.127,0,0,0,1.728-1.709,3.78,3.78,0,0,0-1.18-5.652,3.751,3.751,0,0,0-5.655,1.02,7.073,7.073,0,0,0-.993,2.188Z" fill="#fff"/>
            <path id="Path_169755" data-name="Path 169755" d="M-964.451,187.663l-3.475-3.35-3.246,3.367,3.474,3.35-1.966,2.039-9.042-8.717,1.966-2.039,3.783,3.647,3.247-3.367-3.783-3.647,1.979-2.053,9.042,8.717Z" fill="#fff"/>
            <path id="Path_169756" data-name="Path 169756" d="M-983.076,194.318l3.7-2.77-1.787-2.387-4.133,3.093-1.4-1.865,6.415-4.8,7.528,10.056-6.207,4.646-1.4-1.865,3.924-2.937-1.563-2.089-3.7,2.77Z" fill="#fff"/>
            <path id="Path_169757" data-name="Path 169757" d="M-995.9,195.866a8.1,8.1,0,0,1,2.584-2c3.824-2.055,7.073-.733,8.766,2.419,2.029,3.775.466,7.323-2.883,9.122a7.417,7.417,0,0,1-2.989.972l-.559-2.26a6.124,6.124,0,0,0,2.322-.719,3.777,3.777,0,0,0,1.562-5.556,3.75,3.75,0,0,0-5.485-1.707,7.072,7.072,0,0,0-1.891,1.482Z" fill="#fff"/>
            <path id="Path_169758" data-name="Path 169758" d="M-993.25,207.952l-2.66.917-1.81-5.25-.052.019c-.107.549-.243,1.069-.362,1.583l-1.335,4.875-3.294,1.135,2.186-6.41-6.49-5.39,3.136-1.081,4.674,4.124.59-1.6L-1000,197l2.66-.917Z" fill="#fff"/>
          </g>
          <path id="Path_169759" data-name="Path 169759" d="M-988.935,59.892l-23.139,16.769a58.171,58.171,0,0,0-11.428-1.124V44.277a90.715,90.715,0,0,1,14.654,1.184Z" opacity="0.1"/>
          <path id="Path_169760" data-name="Path 169760" d="M-993.292,59.892-1023.5,81.783V38Z" fill="#ff6161"/>
          <path id="Path_169761" data-name="Path 169761" d="M-1080.836,122.556A58.344,58.344,0,0,0-1081.963,134h-31.26a90.664,90.664,0,0,1,1.178-14.617l14.452-19.946Z" opacity="0.1"/>
          <path id="Path_169762" data-name="Path 169762" d="M-1097.592,103.792-1075.7,134h-43.783Z" fill="#ffcd29"/>
        </g>
        <path id="Path_169763" data-name="Path 169763" d="M-953.1,155.264c.04-.133.079-.266.119-.4q.168-.567.328-1.139c.03-.109.059-.218.088-.327q.5-1.833.907-3.7c.039-.179.08-.357.117-.537.068-.324.132-.649.2-.975q.067-.342.131-.685c.057-.306.112-.614.166-.922.044-.257.086-.515.128-.774.046-.288.093-.577.137-.866.047-.316.089-.633.133-.95.034-.252.07-.5.1-.756q.1-.781.179-1.568c.023-.218.041-.437.062-.655.034-.358.067-.717.1-1.077.018-.231.034-.463.051-.694.025-.356.047-.712.067-1.07q.02-.338.036-.675c.018-.389.032-.778.044-1.167.006-.192.014-.384.018-.576q.021-.871.022-1.748h0v0A73.56,73.56,0,0,0-999.583,64.45h0c-.39-.134-.782-.263-1.175-.391l-.364-.118c-.369-.118-.74-.232-1.112-.345l-.426-.126q-.555-.165-1.114-.321l-.374-.1q-1.8-.49-3.643-.891c-.187-.041-.374-.083-.562-.123-.318-.066-.638-.129-.958-.192q-.351-.069-.7-.135-.453-.084-.908-.162c-.262-.046-.525-.088-.788-.131-.284-.046-.569-.092-.854-.135-.321-.048-.644-.091-.966-.135-.233-.031-.464-.066-.7-.1q-.805-.1-1.615-.185c-.215-.022-.431-.04-.646-.061-.361-.034-.722-.067-1.085-.1-.229-.018-.46-.034-.69-.05-.357-.026-.715-.048-1.073-.069l-.674-.035q-.582-.027-1.167-.044c-.192-.006-.384-.014-.576-.018q-.871-.021-1.747-.022h0a73.56,73.56,0,0,0-69.94,50.791c-.037.114-.075.228-.111.343q-.18.564-.351,1.131c-.04.134-.08.267-.119.4q-.168.567-.328,1.137c-.031.111-.059.221-.09.332q-.5,1.83-.9,3.7c-.039.18-.08.359-.118.54-.067.324-.131.648-.2.973q-.067.343-.132.687c-.056.307-.112.613-.165.92-.044.259-.086.518-.128.777-.047.288-.093.575-.136.863-.048.318-.091.638-.135.958-.032.241-.068.482-.1.725q-.1.793-.182,1.593c-.023.216-.041.434-.062.651-.034.36-.067.72-.1,1.081-.018.23-.034.461-.05.691-.026.357-.048.715-.068,1.073q-.019.336-.036.673c-.018.389-.032.78-.044,1.17-.006.191-.014.382-.018.573-.014.582-.022,1.164-.022,1.749v0h0a73.561,73.561,0,0,0,49.613,69.55h0c.39.134.782.263,1.175.391l.364.118q.555.177,1.112.345c.142.043.284.084.426.126q.555.165,1.114.321c.124.035.25.067.374.1q1.8.492,3.645.892c.186.041.372.083.559.122.319.066.638.129.958.192.235.046.469.091.7.135q.453.084.907.162c.263.046.526.089.79.131.284.046.567.092.852.135.322.048.645.091.968.135.232.031.463.066.695.1q.805.1,1.616.185c.213.022.428.04.641.06.363.035.726.068,1.09.1.229.018.458.034.688.05q.537.039,1.075.069l.671.035q.585.027,1.172.044c.191.006.381.014.571.018q.873.021,1.749.022h0a73.558,73.558,0,0,0,69.942-50.8c.037-.112.074-.225.11-.338Q-953.267,155.832-953.1,155.264Zm-70.4,37.2v-6.246l-7.884,5.713A58.551,58.551,0,0,1-1081.963,134h6.263l-5.727-7.9h0a58.551,58.551,0,0,1,57.925-50.56h0v6.246l7.883-5.713A58.552,58.552,0,0,1-965.037,134v0H-971.3l5.727,7.9h0A58.552,58.552,0,0,1-1023.5,192.463Z" opacity="0.1"/>
      </g>
      <g id="Group_110684" data-name="Group 110684">
        <g id="Group_110683" data-name="Group 110683" clip-path="url(#clip-path)">
          <g id="Group_110682" data-name="Group 110682">
            <path id="Path_169764" data-name="Path 169764" d="M-996.216,176.505c.82,3.62,6.334,1.5,6.334,1.5l-.632-2.791-.632-2.792S-997.035,172.885-996.216,176.505Z" fill="#e8c9ae"/>
            <g id="Group_110678" data-name="Group 110678">
              <path id="Path_169765" data-name="Path 169765" d="M-1052.316,179.682l-4.31,22.9s-8.768-5.069-8.768,9.187h18.374l10.533-32.084Z" fill="#12263f"/>
              <path id="Path_169766" data-name="Path 169766" d="M-992.759,179.682l4.31,22.9s8.768-5.069,8.768,9.187h-18.374l-10.533-32.084Z" fill="#12263f"/>
              <path id="Path_169767" data-name="Path 169767" d="M-1051.379,184.1c1.562,7.364,7.493,11.039,14.553,11.486,3.65.232,8.327.391,14.288.391s10.639-.159,14.289-.391c7.06-.447,12.991-4.122,14.552-11.486l.938-4.419h-59.557Z" fill="#12263f"/>
              <path id="Path_169768" data-name="Path 169768" d="M-992.759,141.009v38.673s-6.093,3.183-29.779,3.183-29.778-3.183-29.778-3.183V141.009Z" fill="#f1f2f2"/>
              <g id="Group_110676" data-name="Group 110676">
                <g id="Group_110673" data-name="Group 110673">
                  <path id="Path_169769" data-name="Path 169769" d="M-1021.021,145.828l3.044-4.819h-9.121l3.044,4.819-4.8,26,6.312,5.481,6.312-5.481Z" fill="#e86038"/>
                  <path id="Path_169770" data-name="Path 169770" d="M-1022.538,141.009v36.3l6.312-5.481-4.8-26,3.044-4.819Z" opacity="0.1"/>
                </g>
                <g id="Group_110674" data-name="Group 110674">
                  <path id="Path_169771" data-name="Path 169771" d="M-1022.538,141.009l-6.8,9.637-12.111-9.637Z" opacity="0.1"/>
                  <path id="Path_169772" data-name="Path 169772" d="M-1022.538,141.009l-6.8,8.271-12.111-8.272Z" fill="#f1f2f2"/>
                </g>
                <g id="Group_110675" data-name="Group 110675">
                  <path id="Path_169773" data-name="Path 169773" d="M-1022.538,141.009l6.8,9.637,12.111-9.637Z" opacity="0.1"/>
                  <path id="Path_169774" data-name="Path 169774" d="M-1022.538,141.009l6.8,8.271,12.111-8.272Z" fill="#f1f2f2"/>
                </g>
              </g>
              <path id="Path_169775" data-name="Path 169775" d="M-1019.329,80.993h-6.417c-14.674,0-26.57,11.863-26.57,30.708v29.308s4.1,2.122,29.778,2.122,29.779-2.122,29.779-2.122V111.7C-992.759,92.856-1004.655,80.993-1019.329,80.993Z" fill="#e8c9ae"/>
              <path id="Path_169776" data-name="Path 169776" d="M-992.762,125.278c-1.185-4.013-2.62-13.583-3.726-17.866h5.429Z" fill="#12263f"/>
              <path id="Path_169777" data-name="Path 169777" d="M-992.759,121.864V133c1.809,0,3.9-2.96,3.9-6.61S-990.816,119.569-992.759,121.864Z" fill="#e8c9ae"/>
              <path id="Path_169778" data-name="Path 169778" d="M-1052.316,121.864V133c-1.809,0-3.9-2.96-3.9-6.61S-1054.259,119.569-1052.316,121.864Z" fill="#e8c9ae"/>
              <g id="Group_110677" data-name="Group 110677">
                <path id="Path_169779" data-name="Path 169779" d="M-1022.329,138.675a7.135,7.135,0,0,0,7.172-8.2,47.7,47.7,0,0,1-14.344,0A7.135,7.135,0,0,0-1022.329,138.675Z" fill="#bf4348"/>
                <path id="Path_169780" data-name="Path 169780" d="M-1027.615,123.348c0,2.015-.766,3.649-1.71,3.649s-1.709-1.634-1.709-3.649.765-3.65,1.709-3.65S-1027.615,121.332-1027.615,123.348Z" fill="#464547"/>
                <path id="Path_169781" data-name="Path 169781" d="M-1017.043,123.348c0,2.015.765,3.649,1.709,3.649s1.71-1.634,1.71-3.649-.765-3.65-1.71-3.65S-1017.043,121.332-1017.043,123.348Z" fill="#464547"/>
              </g>
              <path id="Path_169782" data-name="Path 169782" d="M-991.059,107.412l-.472,4.932c-27.963-1.546-57.585-3.239-57.585-3.239l-3.132.195c.966-17.444,12.463-28.308,26.5-28.308h6.417c13.527,0,24.693,10.082,26.354,26.42Z" opacity="0.1"/>
              <path id="Path_169783" data-name="Path 169783" d="M-1052.314,125.278s2.633-12.961,3.2-16.172c0,0,58.155,1.518,60.223-.69,0,0,.144-43.669-32.414-43.669s-33.687,26.3-33.687,26.3S-1060.165,94.163-1052.314,125.278Z" fill="#12263f"/>
            </g>
            <g id="Group_110680" data-name="Group 110680">
              <path id="Path_169784" data-name="Path 169784" d="M-1052.316,141.009s-21.3,6.031-21.3,20.962,21.3,17.294,21.3,17.294V141.009Z" fill="#fff"/>
              <g id="Group_110679" data-name="Group 110679">
                <path id="Path_169785" data-name="Path 169785" d="M-1060.3,153.251a2.88,2.88,0,0,1-1.95-4.361c1.323-2.108,5.05-7.58,4.85-9.6-.359-3.633-3.055-7.211,1.995-7.657,6.637-.587,9.507,10.4,4.35,17.744A8.79,8.79,0,0,1-1060.3,153.251Z" fill="#e8c9ae"/>
                <path id="Path_169786" data-name="Path 169786" d="M-1050.241,148.066c.038-.069.072-.139.109-.208.08-.152.16-.305.235-.459.04-.085.078-.169.117-.254.065-.14.128-.281.188-.422.04-.1.078-.191.116-.286.053-.132.1-.264.152-.4.038-.1.075-.208.11-.312.042-.125.083-.25.122-.375s.068-.222.1-.334.065-.236.1-.355.061-.235.089-.353.049-.225.073-.338c.02-.094.043-.188.061-.282h0c.984-5.175-.808-10.352-4.32-11.727.088.182,4.971,5.388,1.5,11.79a24.554,24.554,0,0,0-8.833,2.1c-.751,1.222-1.474,2.322-1.921,3.034a2.878,2.878,0,0,0,1.949,4.359,10.665,10.665,0,0,0,1.93.169l0,0,.166-.005.177-.006.2-.01c.1-.007.206-.015.31-.025l.173-.02c.086-.01.173-.021.26-.034l.152-.023c.122-.021.245-.044.368-.07.044-.009.088-.02.131-.03.1-.023.2-.048.3-.075l.116-.031c.129-.037.257-.077.386-.12l.123-.044c.117-.042.234-.086.351-.134l.066-.026c.134-.056.267-.117.4-.182l.112-.055c.135-.068.27-.139.4-.216l.047-.029c.124-.072.248-.15.371-.23l.1-.064q.2-.137.4-.286l.07-.055q.178-.138.354-.29c.026-.022.052-.043.077-.066q.2-.173.39-.362l.081-.082q.175-.176.348-.366l.054-.06c.125-.139.248-.287.37-.439l.1-.122c.113-.145.225-.294.336-.45l.03-.041c.15-.214.292-.431.429-.651.026-.042.05-.085.076-.128C-1050.443,148.419-1050.339,148.243-1050.241,148.066Z" opacity="0.05"/>
                <path id="Path_169787" data-name="Path 169787" d="M-1039.466,166.8c0-3.252-2.213-4.037-2.213-4.037s2.621-.626,2.621-4.038-2.621-4.038-2.621-4.038,2.243-.655,2.243-4.037c0-2.853-3.4-5.988-9.749-5.988s-19.792,1.571-19.792,17.4c0,18.627,15.883,17.2,20.2,17.2,4.477,0,8.8-1.11,8.8-5.009a3.56,3.56,0,0,0-1.7-3.416S-1039.466,170.267-1039.466,166.8Z" fill="#e8c9ae"/>
                <path id="Path_169788" data-name="Path 169788" d="M-1041.678,170.832s1.7.772,1.7,3.419c0,3.9-4.323,5.008-8.8,5.008a38.794,38.794,0,0,1-7.6-.4,5.926,5.926,0,0,0,2.2-4.289,5.3,5.3,0,0,0-2.119-4.235,7.433,7.433,0,0,0,1.638-4.523,4.631,4.631,0,0,0-1.837-3.845,5.15,5.15,0,0,0,1.917-3.617,6.681,6.681,0,0,0-1.519-3.887,5.97,5.97,0,0,0,2.081-5.186,6.047,6.047,0,0,0-2.361-3.824,30.876,30.876,0,0,1,7.194-.8c5.94,0,9.3,2.748,9.712,5.441a4.283,4.283,0,0,1,.038.548c0,3.38-2.242,4.037-2.242,4.037s2.619.625,2.619,4.037-2.619,4.037-2.619,4.037,2.211.785,2.211,4.037C-1039.467,170.267-1041.678,170.832-1041.678,170.832Z" opacity="0.05"/>
                <path id="Path_169789" data-name="Path 169789" d="M-1040.7,155.163c-.513-.031-8.933-.5-10.571-.5,0,0,8.238-.248,10.533-.558a2.693,2.693,0,0,1-.94.576A3.189,3.189,0,0,1-1040.7,155.163Z" opacity="0.05"/>
                <path id="Path_169790" data-name="Path 169790" d="M-1041.678,162.759a2.837,2.837,0,0,1,.824.527c-2.475-.119-9.718-.454-11.115-.454,0,0,8.014-.21,11.182-.489A3.219,3.219,0,0,1-1041.678,162.759Z" opacity="0.05"/>
                <path id="Path_169791" data-name="Path 169791" d="M-1041.678,170.832a2.37,2.37,0,0,1,.57.412c-2.218-.132-7.173-.426-8.472-.426,0,0,6.01-.2,8.758-.471A2.411,2.411,0,0,1-1041.678,170.832Z" opacity="0.05"/>
              </g>
            </g>
            <g id="Group_110681" data-name="Group 110681">
              <path id="Path_169792" data-name="Path 169792" d="M-991.506,188.707c9.218,5.817,16.271-10.035,16.271-10.035l-7.109-4.485-7.11-4.486S-1000.724,182.891-991.506,188.707Z" fill="#e8c9ae"/>
              <path id="Path_169793" data-name="Path 169793" d="M-992.759,141.009s23.5,8.652,23.5,19.128a34.349,34.349,0,0,1-5.972,18.535l-14.219-8.971s2.439-4.207,2.322-5.72-5.627-3.844-5.627-3.844Z" fill="#f1f2f2"/>
            </g>
          </g>
        </g>
      </g>
    </g>
  </g>
</svg>
