<svg xmlns="http://www.w3.org/2000/svg" width="295" height="200" viewBox="0 0 295 200">
  <g id="t4-i10" transform="translate(-1821 7367)">
    <rect id="Rectángulo_36457" data-name="Rectángulo 36457" width="295" height="200" rx="10" transform="translate(1821 -7367)" fill="#e5f8f9"/>
    <g id="Group_116071" data-name="Group 116071" transform="translate(1582.739 -7732.954)">
      <g id="Group_116047" data-name="Group 116047" transform="translate(281.02 435.719)">
        <g id="Group_116046" data-name="Group 116046" transform="translate(0 24.421)">
          <path id="Path_174063" data-name="Path 174063" d="M490.334,1039.418a34.135,34.135,0,0,0-18.1-17.679c-8.319-3.369-17.87-2.143-26.632-3.271-7.61-.98-13.1-4.377-17.644-10.417-4.354-5.787-8.257-12.2-15.376-14.874-5.625-2.115-12.019-1.529-17.61.675-10.3,4.062-18.081,12.7-24.634,21.3-5.982,7.855-10.862,16.456-21.928,16.737s-21.614-6.036-32.763-4.362c-14.735,2.212-27.006,14.478-29.578,29.082a35.914,35.914,0,0,0,14.027,34.76H478.673C491.764,1077.482,498.634,1058.3,490.334,1039.418Z" transform="translate(-285.545 -991.86)" fill="#ffe9ac"/>
          <g id="Group_116045" data-name="Group 116045" transform="translate(5.713 2.761)">
            <path id="Path_174064" data-name="Path 174064" d="M555.787,1303.889h.491a37.68,37.68,0,0,0,7.783-13.35,35.073,35.073,0,0,0-.326-24.157,69.629,69.629,0,0,0-5.745-10.6,68.054,68.054,0,0,1-5.8-10.745,23.975,23.975,0,0,1-1.342-4.966c-.123-.016-.246-.029-.37-.044a24.294,24.294,0,0,0,1.378,5.141,68.315,68.315,0,0,0,5.825,10.8,69.325,69.325,0,0,1,5.717,10.544,34.714,34.714,0,0,1,.319,23.909A37.267,37.267,0,0,1,555.787,1303.889Z" transform="translate(-518.139 -1207.141)" fill="#fff"/>
            <path id="Path_174065" data-name="Path 174065" d="M873.212,1092.258c3.679.784,7.225,1.487,10.654,1.929.059-.113.116-.227.174-.341-3.458-.439-7.036-1.148-10.753-1.94-5.659-1.206-11.785-2.511-17.86-2.511a31.7,31.7,0,0,0-11.1,1.834,22.65,22.65,0,0,0-3.929,1.91c-3.25-1.385-6.518-2.9-9.755-4.558,2.349-1.77,4.722-3.5,7.121-5.177,17.808-12.435,34.243-19.485,50.121-21.485-.032-.116-.065-.233-.1-.349-15.92,2.017-32.391,9.085-50.228,21.54-2.45,1.711-4.873,3.482-7.27,5.289a120.339,120.339,0,0,1-10.718-6.229,93.352,93.352,0,0,1-20.383-17.888c25.417-2.851,51.294-6.444,72.425-20.567.8-.536,1.691-1.169,2.612-1.886-.1-.073-.2-.144-.308-.215-.883.683-1.734,1.287-2.5,1.8-21.126,14.12-47.051,17.685-72.5,20.536a69.847,69.847,0,0,1-11.653-19.814c-4.483-11.874-4.246-23.527.649-31.97.213-.367.437-.728.669-1.085-.2.094-.407.191-.61.289q-.189.306-.37.616c-4.95,8.537-5.2,20.3-.675,32.278A70.122,70.122,0,0,0,798.483,1064q-2.21.247-4.416.49c-5.3.585-10.78,1.19-16.1,1.875-1.942.25-3.918.542-5.883.907-4.213-8.892-8.841-17.567-14.824-25.007-.085.085-.173.168-.259.252,5.931,7.383,10.531,15.994,14.718,24.823-8.572,1.635-16.9,4.708-21.341,11.862-4.151,6.68-4.147,15.915.011,27.447.144.4.292.792.442,1.182h.385c-.165-.427-.328-.859-.489-1.3-4.119-11.423-4.134-20.553-.044-27.136,4.392-7.068,12.67-10.1,21.195-11.716,1.487,3.146,2.924,6.319,4.352,9.471l.155.343c4.959,10.948,10.089,21.513,16.8,30.342h.448c-6.777-8.845-11.935-19.474-16.926-30.49l-.155-.343c-1.416-3.126-2.841-6.271-4.315-9.391,1.927-.356,3.865-.642,5.77-.887,5.318-.684,10.8-1.289,16.094-1.874q2.321-.256,4.65-.516a93.6,93.6,0,0,0,20.613,18.14,120.543,120.543,0,0,0,10.6,6.168c-6.108,4.62-12.05,9.481-17.852,14.228q-3.013,2.465-6.089,4.964h.569q2.9-2.351,5.747-4.686c5.842-4.779,11.826-9.675,17.978-14.323,3.219,1.656,6.468,3.166,9.7,4.549a26.769,26.769,0,0,0-10.207,12.458c-.273.662-.511,1.331-.732,2h.378c.208-.625.432-1.248.686-1.865a26.357,26.357,0,0,1,10.277-12.423,237.278,237.278,0,0,0,25.551,8.948l.287.085a49.377,49.377,0,0,1,9.415,3.491c.081-.093.163-.185.244-.278a49.235,49.235,0,0,0-9.557-3.557l-.287-.085a237.737,237.737,0,0,1-25.275-8.833,22.247,22.247,0,0,1,3.646-1.747C853.765,1088.115,864.1,1090.316,873.212,1092.258Z" transform="translate(-686.659 -1011.084)" fill="#fff"/>
            <path id="Path_174066" data-name="Path 174066" d="M335.059,1338.455a28.768,28.768,0,0,1-1.942,19.236,33.117,33.117,0,0,1-7.8,10.074c.065.1.132.2.2.3a33.487,33.487,0,0,0,7.924-10.219,29.131,29.131,0,0,0,1.968-19.48,24.725,24.725,0,0,0-7.262-12.632l-.232.275A24.373,24.373,0,0,1,335.059,1338.455Z" transform="translate(-325.318 -1280.541)" fill="#fff"/>
          </g>
        </g>
        <path id="Path_174067" data-name="Path 174067" d="M824.282,824.7a13.423,13.423,0,0,1,2.806,13.547,21.74,21.74,0,0,1-9.73,11.35c-3.539,2.06-8.156,3.2-11.636,1.039A9.434,9.434,0,0,1,801.7,842.8a20.361,20.361,0,0,1,2.225-8.824c1.792-3.923,4.2-7.728,7.8-10.114C816.673,820.576,821.275,821.627,824.282,824.7Z" transform="translate(-727.554 -821.845)" fill="#f7f0e3"/>
      </g>
      <g id="Group_116048" data-name="Group 116048" transform="translate(293.526 370.954)">
        <path id="Path_174068" data-name="Path 174068" d="M515.832,382.526h-25.9V370.954h25.9Zm-25.365-.539h24.826V371.493H490.467Z" transform="translate(-473.076 -370.954)" fill="#e9ddca"/>
        <path id="Path_174069" data-name="Path 174069" d="M398.511,459.569h-25.9V448h25.9Zm-25.365-.539h24.826V448.536H373.146Z" transform="translate(-372.607 -436.931)" fill="#e9ddca"/>
      </g>
      <g id="Group_116051" data-name="Group 116051" transform="translate(371.016 373.747)">
        <g id="Group_116049" data-name="Group 116049" transform="translate(0 0)">
          <path id="Path_174070" data-name="Path 174070" d="M1065.421,426.21a40.032,40.032,0,0,0-8.85-15.379q-6.348-7.022-17.314-11.6t-27.868-4.585a109.03,109.03,0,0,0-27.481,3.636,81.665,81.665,0,0,0-24.315,10.391l8.945,24.559-4.794,3.884,6.953,2.043a102.1,102.1,0,0,1,18.759-7.826,64.86,64.86,0,0,1,17.968-2.424q9.509,0,14.4,4.585a14.632,14.632,0,0,1,4.885,11.067,21.236,21.236,0,0,1-5.015,13.9q-5.032,6.074-11.1,12.279-4.219,4.308-8.188,8.9a63.867,63.867,0,0,0-7,9.855,53.579,53.579,0,0,0-4.886,11.33,46.508,46.508,0,0,0-1.849,13.623c0,1.625.034,3.557.129,5.806.016.415.038.819.063,1.218h-6.573l7.173,4.851h34.878a23.173,23.173,0,0,1-.267-3.777v-3.241a23.428,23.428,0,0,1,1.849-9.038,46.743,46.743,0,0,1,4.627-8.5,62.8,62.8,0,0,1,6.21-7.685q3.432-3.65,6.606-6.886,4.219-4.308,8.713-9.17a72.089,72.089,0,0,0,7.93-10.25,57.588,57.588,0,0,0,5.677-11.743,41.339,41.339,0,0,0,2.253-13.895A55.57,55.57,0,0,0,1065.421,426.21Z" transform="translate(-952.769 -394.033)" fill="#e49b31"/>
          <path id="Path_174071" data-name="Path 174071" d="M959.362,423.558A65.366,65.366,0,0,0,941.6,425.9a102.106,102.106,0,0,0-18.539,7.574l-10.974-29.5a81.6,81.6,0,0,1,24.03-10.056,109.9,109.9,0,0,1,27.158-3.519q16.7,0,27.541,4.437t17.111,11.229a38.554,38.554,0,0,1,8.747,14.884,52.752,52.752,0,0,1,2.482,15.4,39.255,39.255,0,0,1-2.227,13.447,55.255,55.255,0,0,1-5.61,11.365,69.974,69.974,0,0,1-7.837,9.92q-4.437,4.7-8.611,8.874-3.137,3.137-6.528,6.664a61.033,61.033,0,0,0-6.137,7.438,44.942,44.942,0,0,0-4.573,8.228,22.267,22.267,0,0,0-1.828,8.747v3.137a21.974,21.974,0,0,0,.264,3.655H941.6a36.53,36.53,0,0,1-.655-5.874c-.094-2.176-.128-4.046-.128-5.619a44.136,44.136,0,0,1,1.828-13.184,51.3,51.3,0,0,1,4.828-10.965,61.831,61.831,0,0,1,6.919-9.537q3.914-4.437,8.092-8.611,6.005-6.005,10.974-11.883a20.3,20.3,0,0,0,4.956-13.447A14.03,14.03,0,0,0,973.591,428Q968.759,423.559,959.362,423.558Z" transform="translate(-912.092 -390.399)" fill="#fbc343"/>
        </g>
        <g id="Group_116050" data-name="Group 116050" transform="translate(27.294 146.432)">
          <path id="Path_174072" data-name="Path 174072" d="M1189.442,1430.889q0,9.432-6.107,14.563a21.139,21.139,0,0,1-27.628,0q-6.1-5.135-6.1-14.563t6.1-14.563a21.223,21.223,0,0,1,22.876-2.755A19.611,19.611,0,0,1,1189.442,1430.889Z" transform="translate(-1142.785 -1411.188)" fill="#e49b31"/>
          <path id="Path_174073" data-name="Path 174073" d="M1141.942,1429.549q0,9.432-6.107,14.563a21.139,21.139,0,0,1-27.627,0q-6.1-5.135-6.1-14.563t6.1-14.563a21.139,21.139,0,0,1,27.627,0Q1141.942,1420.131,1141.942,1429.549Z" transform="translate(-1102.108 -1409.848)" fill="#fbc343"/>
        </g>
      </g>
      <g id="Group_116070" data-name="Group 116070" transform="translate(291.911 410.216)">
        <g id="Group_116054" data-name="Group 116054" transform="translate(9.104 0)">
          <circle id="Ellipse_5561" data-name="Ellipse 5561" cx="3.756" cy="3.756" r="3.756" transform="matrix(0.184, -0.983, 0.983, 0.184, 25.8, 42.827)" fill="#d3dfff"/>
          <ellipse id="Ellipse_5562" data-name="Ellipse 5562" cx="2.113" cy="2.128" rx="2.113" ry="2.128" transform="translate(31.098 48.867) rotate(-79.386)" fill="#d3dfff"/>
          <g id="Group_116053" data-name="Group 116053">
            <circle id="Ellipse_5563" data-name="Ellipse 5563" cx="14.789" cy="14.789" r="14.789" transform="translate(0 20.915) rotate(-45)" fill="#d3dfff"/>
            <g id="Group_116052" data-name="Group 116052" transform="translate(13.373 19.052)">
              <circle id="Ellipse_5564" data-name="Ellipse 5564" cx="1.863" cy="1.863" r="1.863" fill="#fff"/>
              <circle id="Ellipse_5565" data-name="Ellipse 5565" cx="1.863" cy="1.863" r="1.863" transform="translate(5.679)" fill="#fff"/>
              <circle id="Ellipse_5566" data-name="Ellipse 5566" cx="1.863" cy="1.863" r="1.863" transform="translate(11.357)" fill="#fff"/>
            </g>
          </g>
        </g>
        <g id="Group_116069" data-name="Group 116069" transform="translate(0 53.238)">
          <g id="Group_116057" data-name="Group 116057" transform="translate(8.662 58.83)">
            <g id="Group_116055" data-name="Group 116055" transform="translate(10.671 24.223)">
              <path id="Path_174074" data-name="Path 174074" d="M496.052,1598.808l1.382,5.327a3.052,3.052,0,0,0,3.19,2.227c4.531-.308,13.945-1.418,19.347-5.4l-1.536-7.678c-7.429-.42-14.376-.006-20.392,2.019A2.942,2.942,0,0,0,496.052,1598.808Z" transform="translate(-495.961 -1593.136)" fill="#102048"/>
              <path id="Path_174075" data-name="Path 174075" d="M544.743,1620.4a.18.18,0,0,1-.173-.131l-1.855-6.643a.18.18,0,1,1,.346-.1l1.855,6.643a.179.179,0,0,1-.125.221A.175.175,0,0,1,544.743,1620.4Z" transform="translate(-535.993 -1610.483)" fill="#fff"/>
              <path id="Path_174076" data-name="Path 174076" d="M572.659,1614.145a.18.18,0,0,1-.173-.131l-1.855-6.643a.18.18,0,1,1,.346-.1l1.855,6.643a.18.18,0,0,1-.173.228Z" transform="translate(-559.9 -1605.13)" fill="#fff"/>
            </g>
            <path id="Path_174077" data-name="Path 174077" d="M514.276,1425.6l-17.266,5.124,12.822,17.569,18.408,1.464,25.391-10.736-9.649-14.519Z" transform="translate(-486.188 -1424.498)" fill="#fbc343"/>
            <path id="Path_174078" data-name="Path 174078" d="M642.284,1435.525c37.917-11.225,44.011,22.286-15.15,28.387a28.619,28.619,0,0,1-5.5-9.842l31.242-14.438Z" transform="translate(-592.91 -1431.987)" fill="#fbc343"/>
            <path id="Path_174079" data-name="Path 174079" d="M719.583,1606.261a16.41,16.41,0,0,1-3.473-1.69l-6.094,1.911,1.4,6.629,6.33,1.286A13.609,13.609,0,0,0,719.583,1606.261Z" transform="translate(-668.599 -1578.706)" fill="#f9b384"/>
            <path id="Path_174080" data-name="Path 174080" d="M620.962,1484.247l-.271-.466c6.518-3.788,23.212-12.888,37.436-15.572l.1.53C644.085,1471.408,627.455,1480.473,620.962,1484.247Z" transform="translate(-592.103 -1461.931)" fill="#e49b31"/>
            <path id="Path_174081" data-name="Path 174081" d="M449.755,1426.929c-35.293-6.71-44.434,27.208,14.727,33.308a21.49,21.49,0,0,0,4.7-8.54,269.335,269.335,0,0,0-30.384-17.366Z" transform="translate(-421.667 -1425.831)" fill="#fbc343"/>
            <path id="Path_174082" data-name="Path 174082" d="M548.322,1483.49c-1.679-1.068-3.428-2.2-5.28-3.394-9.3-6-19.835-12.807-28.788-16.686l.214-.494c8.994,3.9,19.551,10.714,28.866,16.728,1.851,1.2,3.6,2.325,5.277,3.392Z" transform="translate(-500.955 -1457.397)" fill="#e49b31"/>
            <path id="Path_174083" data-name="Path 174083" d="M434.127,1519.006l-.472-.26a9.9,9.9,0,0,1,6.307-4.808l.144.519A9.264,9.264,0,0,0,434.127,1519.006Z" transform="translate(-431.933 -1501.091)" fill="#e49b31"/>
            <path id="Path_174084" data-name="Path 174084" d="M914.123,1504.791a9.265,9.265,0,0,0-5.979-4.549l.144-.519a9.9,9.9,0,0,1,6.307,4.808Z" transform="translate(-838.267 -1488.917)" fill="#e49b31"/>
            <path id="Path_174085" data-name="Path 174085" d="M694.384,1601.584l-.394-.367a20.176,20.176,0,0,0,5.3-9.759l.527.11A20.7,20.7,0,0,1,694.384,1601.584Z" transform="translate(-654.874 -1567.476)" fill="#e49b31"/>
            <g id="Group_116056" data-name="Group 116056" transform="translate(49.145 24.713)">
              <path id="Path_174086" data-name="Path 174086" d="M783.253,1597.418c-4.522-2.794-13.288,2.033-15.488,2.278a5.3,5.3,0,0,1-2.113-.3,13.609,13.609,0,0,1-1.839,8.137l1.075.218a31.656,31.656,0,0,0,15.319,1.139C787.485,1607.422,786.808,1599.614,783.253,1597.418Z" transform="translate(-763.812 -1596.551)" fill="#102048"/>
              <path id="Path_174087" data-name="Path 174087" d="M850.362,1619.64a.182.182,0,0,1-.054-.008.179.179,0,0,1-.117-.225c.537-1.7.772-5.047-.784-7.295a.18.18,0,0,1,.3-.2c1.629,2.354,1.39,5.839.832,7.608A.18.18,0,0,1,850.362,1619.64Z" transform="translate(-837.085 -1609.635)" fill="#fff"/>
              <path id="Path_174088" data-name="Path 174088" d="M825.675,1624.328a.181.181,0,0,1-.054-.008.179.179,0,0,1-.117-.225c.537-1.7.771-5.048-.784-7.3a.179.179,0,0,1,.3-.2c1.629,2.354,1.39,5.839.831,7.607A.179.179,0,0,1,825.675,1624.328Z" transform="translate(-815.943 -1613.649)" fill="#fff"/>
            </g>
          </g>
          <g id="Group_116065" data-name="Group 116065">
            <g id="Group_116059" data-name="Group 116059" transform="translate(20.01 0.317)">
              <path id="Path_174089" data-name="Path 174089" d="M511.167,1033.015s8.889-7.558,8.559-8.995c-.235-1.026-2.753.479-2.753.479s3.531-4.189,3.352-4.7c-.321-.909-2.763.786-2.763.786s1.651-2.376.862-2.763-2.51,1.077-2.51,1.077,1.005-1.319.533-1.665-2.51,1.077-2.51,1.077.731-1.663-.822-1.033-12.444,10.625-12.444,10.625Z" transform="translate(-500.671 -1017.136)" fill="#f9b384"/>
              <g id="Group_116058" data-name="Group 116058" transform="translate(10.003 0.996)">
                <path id="Path_174090" data-name="Path 174090" d="M574.442,1049.478a.179.179,0,0,1-.121-.047,8.154,8.154,0,0,0-3.882-2.25.179.179,0,1,1,.106-.343,8.439,8.439,0,0,1,4.018,2.328.18.18,0,0,1-.121.312Z" transform="translate(-570.312 -1043.561)" fill="#e28b6d"/>
                <path id="Path_174091" data-name="Path 174091" d="M579.346,1077.118l-.025,0a.18.18,0,0,1-.153-.2,3.012,3.012,0,0,1,1.2-2.388,2.33,2.33,0,0,1,2.1.093.18.18,0,1,1-.142.33,2,2,0,0,0-1.78-.11,2.743,2.743,0,0,0-1.023,2.124A.179.179,0,0,1,579.346,1077.118Z" transform="translate(-577.895 -1067.1)" fill="#e28b6d"/>
                <path id="Path_174092" data-name="Path 174092" d="M576.43,1026.531a.179.179,0,0,1-.123-.31l2.23-2.1a.18.18,0,1,1,.246.261l-2.23,2.1A.178.178,0,0,1,576.43,1026.531Z" transform="translate(-575.397 -1024.07)" fill="#e28b6d"/>
                <path id="Path_174093" data-name="Path 174093" d="M590.8,1030.756a.18.18,0,0,1-.13-.3l2.142-2.232a.18.18,0,0,1,.259.249l-2.142,2.232A.179.179,0,0,1,590.8,1030.756Z" transform="translate(-587.707 -1027.576)" fill="#e28b6d"/>
                <path id="Path_174094" data-name="Path 174094" d="M605.492,1042.065a.18.18,0,0,1-.131-.3l1.681-1.8a.18.18,0,0,1,.263.245l-1.681,1.8A.18.18,0,0,1,605.492,1042.065Z" transform="translate(-600.285 -1037.629)" fill="#e28b6d"/>
              </g>
            </g>
            <g id="Group_116060" data-name="Group 116060" transform="translate(0 9.094)">
              <path id="Path_174095" data-name="Path 174095" d="M592.339,1224.165l-32.5,1.257L556.25,1195.8s10.88-10.319,15.065-14.119l7.066-.362C600.305,1191.28,596.715,1203.727,592.339,1224.165Z" transform="translate(-528.257 -1166.51)" fill="#3a6bea"/>
              <path id="Path_174096" data-name="Path 174096" d="M710.329,1181.315s25.082,2.145,32.99,19.329c7.737,16.815-24.059,22.8-24.059,22.8Z" transform="translate(-660.204 -1166.51)" fill="#3a6bea"/>
              <path id="Path_174097" data-name="Path 174097" d="M382.818,1096.732l10.365-12.613-9.692-5.874A126.4,126.4,0,0,0,365,1094.634a13.686,13.686,0,0,0-3.18,5.5,11.83,11.83,0,0,0-.3,5.161h0a9.965,9.965,0,0,0,8.806,8.343c3.949.462,19.032-.718,31.241-4.309l3.591-13.859C403.312,1094.42,389.6,1094.239,382.818,1096.732Z" transform="translate(-361.364 -1078.245)" fill="#3a6bea"/>
            </g>
            <g id="Group_116061" data-name="Group 116061" transform="translate(5.297 13.266)" opacity="0.8">
              <path id="Path_174098" data-name="Path 174098" d="M782.84,1199.291l.162-.037c-.113-.067-.227-.132-.341-.2a54.376,54.376,0,0,1-5.6,1.081c-1.124.135-4.877.383-5.974-2.118a3.918,3.918,0,0,1,.484-3.6l-.269-.077a4.157,4.157,0,0,0-.462,3.784c1.171,2.672,5.083,2.418,6.253,2.277A55.531,55.531,0,0,0,782.84,1199.291Z" transform="translate(-717.081 -1181.839)" fill="#fff"/>
              <path id="Path_174099" data-name="Path 174099" d="M889.264,1358.727a8.328,8.328,0,0,0-3.738-.819,5.245,5.245,0,0,0-4.355,5.032,7.893,7.893,0,0,0,1.856,5.182l.229-.144a7.635,7.635,0,0,1-1.816-5.025,4.97,4.97,0,0,1,4.111-4.777,8.036,8.036,0,0,1,3.615.8c.437.169.88.339,1.331.483.023-.087.046-.174.067-.262C890.125,1359.058,889.691,1358.892,889.264,1358.727Z" transform="translate(-811.799 -1321.893)" fill="#fff"/>
              <path id="Path_174100" data-name="Path 174100" d="M422.217,1296.351c-1.566-1.3-4-1.641-6.674-.95a11.518,11.518,0,0,0-5.835,3.455c.092.03.183.063.276.091a11.3,11.3,0,0,1,5.626-3.285c2.59-.671,4.937-.343,6.436.9a5.847,5.847,0,0,1,1.582,2.179l.278-.032A6.156,6.156,0,0,0,422.217,1296.351Z" transform="translate(-408.06 -1268.082)" fill="#fff"/>
              <path id="Path_174101" data-name="Path 174101" d="M398.243,1117.745a32.488,32.488,0,0,0,8.438-3.274,9.217,9.217,0,0,0,2.917-2.384,4.094,4.094,0,0,0,.749-3.646,2.851,2.851,0,0,0-.731-1.152l-.207.17a2.6,2.6,0,0,1,.682,1.067,3.826,3.826,0,0,1-.71,3.4,8.973,8.973,0,0,1-2.835,2.31,31.824,31.824,0,0,1-7.953,3.144Z" transform="translate(-398.243 -1107.289)" fill="#fff"/>
            </g>
            <g id="Group_116063" data-name="Group 116063" transform="translate(32.238)">
              <path id="Path_174102" data-name="Path 174102" d="M672.242,1132.746l0,.46-.073,7.143-.009.774a4.448,4.448,0,0,1-8.9,0l-.086-8.828Z" transform="translate(-652.059 -1115.434)" fill="#f9b384"/>
              <path id="Path_174103" data-name="Path 174103" d="M692.431,1138.662l-.073,7.143c-3.97-1.616-5.6-5.914-5.6-5.914Z" transform="translate(-672.253 -1120.889)" fill="#102048"/>
              <path id="Path_174104" data-name="Path 174104" d="M668.339,1048.148c1.423,1.707,5.577,11.382,1.366,14.682-4.739,3.714-11.951-2.39-11.951-2.39l-.967-11.268,6.26-1.65Z" transform="translate(-646.59 -1042.841)" fill="#f9b384"/>
              <path id="Path_174105" data-name="Path 174105" d="M592.808,1047.559s-13.885,7.242-2.564,28.117a5.687,5.687,0,0,0,7.43,2.543h0a5.632,5.632,0,0,0,2.47-7.865c-1.852-3.29-3.639-7.526-2.876-10.679Z" transform="translate(-585.801 -1042.872)" fill="#102048"/>
              <circle id="Ellipse_5567" data-name="Ellipse 5567" cx="3.756" cy="3.756" r="3.756" transform="translate(3.006 8.115) rotate(-45)" fill="#fbc343"/>
              <path id="Path_174106" data-name="Path 174106" d="M634.5,1027.558c-.406-2.343-.653-3.95,1.715-5.158,0,0,8.347,1.518,9.94-1.631s-.835-8.119-5.918-4.666c-13.013-2.542-14.758,9.636-10.813,13.7l3.894-.6A1.418,1.418,0,0,0,634.5,1027.558Z" transform="translate(-621.566 -1014.931)" fill="#102048"/>
              <g id="Group_116062" data-name="Group 116062" transform="translate(16.793 8.353)">
                <circle id="Ellipse_5568" data-name="Ellipse 5568" cx="0.555" cy="0.555" r="0.555" transform="translate(2.054 3.726)" fill="#102048"/>
                <circle id="Ellipse_5569" data-name="Ellipse 5569" cx="0.555" cy="0.555" r="0.555" transform="translate(5.81 1.877)" fill="#102048"/>
                <path id="Path_174107" data-name="Path 174107" d="M737.131,1099.5a.157.157,0,0,1-.114-.265c.223-.234.466-.564.364-.8s-.556-.355-.762-.355c-.443,0-.655-.788-.693-.945a.157.157,0,0,1,.305-.074c.081.333.264.705.388.705.212,0,.86.1,1.051.545.136.318-.006.7-.425,1.143A.157.157,0,0,1,737.131,1099.5Z" transform="translate(-731.151 -1093.515)" fill="#102048"/>
                <path id="Path_174108" data-name="Path 174108" d="M730.034,1125.323a.157.157,0,0,1-.088-.027,2.1,2.1,0,0,0-2.11-.108.157.157,0,0,1-.157-.272,2.389,2.389,0,0,1,2.443.12.157.157,0,0,1-.088.287Z" transform="translate(-724.026 -1117.228)" fill="#102048"/>
                <path id="Path_174109" data-name="Path 174109" d="M705.076,1084.611c.316.594-.234.713-.879,1.056s-1.3.468-1.455.184.25-.791.894-1.133S704.831,1084.151,705.076,1084.611Z" transform="translate(-702.71 -1082.733)" fill="#102048"/>
                <path id="Path_174110" data-name="Path 174110" d="M735.447,1073.891c.139.531.534.3,1.11.148s1.04-.44.974-.693-.586-.336-1.161-.186S735.34,1073.48,735.447,1073.891Z" transform="translate(-730.731 -1073.085)" fill="#102048"/>
              </g>
              <circle id="Ellipse_5570" data-name="Ellipse 5570" cx="1.636" cy="1.636" r="1.636" transform="matrix(0.735, -0.678, 0.678, 0.735, 14.528, 15.13)" fill="#eb5d60" opacity="0.4"/>
              <ellipse id="Ellipse_5571" data-name="Ellipse 5571" cx="2.216" cy="2.518" rx="2.216" ry="2.518" transform="matrix(0.611, -0.792, 0.792, 0.611, 7.28, 15.445)" fill="#f9b384"/>
              <path id="Path_174111" data-name="Path 174111" d="M654.575,1115.778a.157.157,0,0,1-.157-.157,1.377,1.377,0,0,0-.6-1.147,1.108,1.108,0,0,0-1.033-.137.157.157,0,0,1-.119-.291,1.422,1.422,0,0,1,1.326.167,1.691,1.691,0,0,1,.744,1.408A.157.157,0,0,1,654.575,1115.778Z" transform="translate(-642.974 -1099.727)" fill="#102048"/>
            </g>
            <g id="Group_116064" data-name="Group 116064" transform="translate(15.652 27.459)">
              <rect id="Rectangle_37238" data-name="Rectangle 37238" width="8.352" height="0.359" transform="translate(0 6.133) rotate(-47.248)" fill="#102048"/>
              <path id="Path_174112" data-name="Path 174112" d="M787.241,1344.007l-.1-.343c4.127-1.258,8.132-2.763,11.762-7.3l.28.224C795.485,1341.206,791.424,1342.733,787.241,1344.007Z" transform="translate(-741.631 -1317.651)" fill="#102048"/>
            </g>
          </g>
          <g id="Group_116068" data-name="Group 116068" transform="translate(26.377 39.909)">
            <g id="Group_116066" data-name="Group 116066">
              <path id="Path_174113" data-name="Path 174113" d="M582.394,1292.776H547.286a2.385,2.385,0,0,0-2.286,2.473v25.066a2.385,2.385,0,0,0,2.286,2.473h35.108a2.385,2.385,0,0,0,2.286-2.473v-25.066A2.385,2.385,0,0,0,582.394,1292.776Z" transform="translate(-545 -1292.776)" fill="#d3dfff"/>
            </g>
            <g id="Group_116067" data-name="Group 116067" transform="translate(17.027 12.704)">
              <path id="Path_174114" data-name="Path 174114" d="M668.208,1381.936a.252.252,0,0,1,.241.261v2.646a.252.252,0,0,1-.241.261H664.5a.252.252,0,0,1-.241-.261V1382.2a.252.252,0,0,1,.241-.261h3.707m0-.718H664.5a.971.971,0,0,0-.96.979v2.646a.971.971,0,0,0,.96.979h3.707a.971.971,0,0,0,.96-.979V1382.2a.971.971,0,0,0-.96-.979Z" transform="translate(-663.542 -1381.218)" fill="#1f3c88"/>
            </g>
          </g>
        </g>
      </g>
      <rect id="Rectangle_37239" data-name="Rectangle 37239" width="211.676" height="0.718" transform="translate(280.261 559.29)" fill="#102048"/>
    </g>
  </g>
</svg>
