<svg xmlns="http://www.w3.org/2000/svg" xmlns:xlink="http://www.w3.org/1999/xlink" width="400" height="380" viewBox="0 0 400 380">
  <defs>
    <linearGradient id="linear-gradient" y1="0.5" x2="1" y2="0.5" gradientUnits="objectBoundingBox">
      <stop offset="0" stop-color="#5f6271"/>
      <stop offset="1" stop-color="#2b3149"/>
    </linearGradient>
    <linearGradient id="linear-gradient-4" x1="1.044" y1="0.448" x2="0.329" y2="0.516" gradientUnits="objectBoundingBox">
      <stop offset="0" stop-color="#a7a7a9"/>
      <stop offset="1" stop-color="#ebf0f6"/>
    </linearGradient>
    <linearGradient id="linear-gradient-5" x1="0" y1="0.5" x2="1" y2="0.5" xlink:href="#linear-gradient-4"/>
    <linearGradient id="linear-gradient-7" x1="7.497" y1="0.5" x2="8.497" y2="0.5" xlink:href="#linear-gradient-4"/>
    <linearGradient id="linear-gradient-8" x1="69.542" y1="0.5" x2="70.542" y2="0.5" xlink:href="#linear-gradient-4"/>
    <linearGradient id="linear-gradient-9" x1="20.299" y1="0.5" x2="21.299" y2="0.5" xlink:href="#linear-gradient-4"/>
    <linearGradient id="linear-gradient-10" x1="4.589" y1="0.5" x2="5.589" y2="0.5" xlink:href="#linear-gradient-4"/>
    <linearGradient id="linear-gradient-11" x1="0.371" y1="0.128" x2="0.509" y2="0.722" gradientUnits="objectBoundingBox">
      <stop offset="0" stop-color="#204470"/>
      <stop offset="1" stop-color="#12263f"/>
    </linearGradient>
    <linearGradient id="linear-gradient-12" x1="26.88" y1="-0.222" x2="27.938" y2="-0.222" gradientUnits="objectBoundingBox">
      <stop offset="0" stop-color="#ffc655"/>
      <stop offset="1" stop-color="#fff39f"/>
    </linearGradient>
    <linearGradient id="linear-gradient-13" x1="13.818" y1="-0.334" x2="14.802" y2="-0.334" xlink:href="#linear-gradient-11"/>
    <linearGradient id="linear-gradient-14" x1="0" y1="0.5" x2="1" y2="0.5" xlink:href="#linear-gradient-11"/>
    <linearGradient id="linear-gradient-15" x1="10.404" y1="0.5" x2="11.404" y2="0.5" xlink:href="#linear-gradient-12"/>
    <linearGradient id="linear-gradient-16" x1="5.755" y1="0.5" x2="6.755" y2="0.5" xlink:href="#linear-gradient-11"/>
    <linearGradient id="linear-gradient-18" x1="-0.013" y1="-0.051" x2="0.942" y2="0.976" xlink:href="#linear-gradient-4"/>
    <linearGradient id="linear-gradient-19" y1="0.5" x2="1" y2="0.5" gradientUnits="objectBoundingBox">
      <stop offset="0" stop-color="#5085c7"/>
      <stop offset="1" stop-color="#204470"/>
    </linearGradient>
    <linearGradient id="linear-gradient-20" x1="0.188" y1="0.094" x2="1.097" y2="1.278" gradientUnits="objectBoundingBox">
      <stop offset="0" stop-color="#cedaef"/>
      <stop offset="0.235" stop-color="#fff"/>
      <stop offset="1" stop-color="#587ad1"/>
    </linearGradient>
    <linearGradient id="linear-gradient-21" x1="0.546" y1="-0.13" x2="0.546" y2="1.391" xlink:href="#linear-gradient-20"/>
    <linearGradient id="linear-gradient-22" y1="0.5" x2="1" y2="0.5" gradientUnits="objectBoundingBox">
      <stop offset="0" stop-color="#f6bf28"/>
      <stop offset="1" stop-color="#e86038"/>
    </linearGradient>
    <linearGradient id="linear-gradient-28" x1="0.582" y1="0.076" x2="0.413" y2="0.946" xlink:href="#linear-gradient-19"/>
    <linearGradient id="linear-gradient-29" x1="0.43" y1="0.103" x2="0.558" y2="0.837" gradientUnits="objectBoundingBox">
      <stop offset="0" stop-color="#28b5bd"/>
      <stop offset="1" stop-color="#209299"/>
    </linearGradient>
    <linearGradient id="linear-gradient-30" x1="9.634" y1="-2.069" x2="10.624" y2="-2.069" gradientUnits="objectBoundingBox">
      <stop offset="0" stop-color="#ffd488"/>
      <stop offset="1" stop-color="#efa8a8"/>
    </linearGradient>
    <linearGradient id="linear-gradient-31" x1="8.2" y1="-1.538" x2="9.169" y2="-1.538" xlink:href="#linear-gradient-30"/>
    <linearGradient id="linear-gradient-33" x1="5.294" y1="0.107" x2="6.287" y2="0.107" xlink:href="#linear-gradient-30"/>
    <linearGradient id="linear-gradient-35" x1="5.421" y1="0.024" x2="6.451" y2="0.024" xlink:href="#linear-gradient-30"/>
    <linearGradient id="linear-gradient-36" x1="4.776" y1="-0.432" x2="5.805" y2="-0.432" xlink:href="#linear-gradient-30"/>
    <linearGradient id="linear-gradient-41" x1="0" y1="0.5" x2="1" y2="0.5" xlink:href="#linear-gradient-30"/>
    <linearGradient id="linear-gradient-43" x1="0.49" y1="0.505" x2="0.554" y2="1.143" xlink:href="#linear-gradient-4"/>
    <linearGradient id="linear-gradient-46" x1="4.707" y1="0.5" x2="5.707" y2="0.5" xlink:href="#linear-gradient-4"/>
    <linearGradient id="linear-gradient-47" x1="43.441" y1="0.5" x2="44.441" y2="0.5" xlink:href="#linear-gradient-4"/>
    <linearGradient id="linear-gradient-48" x1="12.638" y1="0.5" x2="13.638" y2="0.5" xlink:href="#linear-gradient-4"/>
    <linearGradient id="linear-gradient-49" x1="0.475" y1="0.063" x2="0.534" y2="1.07" xlink:href="#linear-gradient-11"/>
    <linearGradient id="linear-gradient-50" x1="0.462" y1="0.114" x2="0.568" y2="0.98" xlink:href="#linear-gradient-4"/>
    <linearGradient id="linear-gradient-51" x1="5.853" y1="0.056" x2="6.051" y2="1.018" xlink:href="#linear-gradient-11"/>
    <linearGradient id="linear-gradient-54" x1="-23.817" y1="0.5" x2="-22.817" y2="0.5" gradientUnits="objectBoundingBox">
      <stop offset="0" stop-color="#cedaef"/>
      <stop offset="1" stop-color="#ebf0f6"/>
    </linearGradient>
    <linearGradient id="linear-gradient-55" x1="-31.186" y1="-0.095" x2="-31.079" y2="0.863" xlink:href="#linear-gradient-4"/>
    <linearGradient id="linear-gradient-66" x1="0.911" y1="0.511" x2="0.356" y2="0.501" xlink:href="#linear-gradient-30"/>
    <linearGradient id="linear-gradient-68" x1="-10.97" y1="0.5" x2="-9.97" y2="0.5" xlink:href="#linear-gradient-30"/>
    <linearGradient id="linear-gradient-70" x1="37.426" y1="0.5" x2="38.426" y2="0.5" xlink:href="#linear-gradient-12"/>
    <linearGradient id="linear-gradient-71" x1="17.146" y1="0.5" x2="18.146" y2="0.5" xlink:href="#linear-gradient-11"/>
    <linearGradient id="linear-gradient-72" x1="32.756" y1="0.5" x2="33.756" y2="0.5" xlink:href="#linear-gradient-12"/>
    <linearGradient id="linear-gradient-73" x1="9.507" y1="0.5" x2="10.507" y2="0.5" xlink:href="#linear-gradient-11"/>
    <linearGradient id="linear-gradient-75" x1="0" y1="0.5" x2="1" y2="0.5" xlink:href="#linear-gradient-29"/>
    <linearGradient id="linear-gradient-76" x1="14.946" y1="0.5" x2="15.946" y2="0.5" xlink:href="#linear-gradient-11"/>
  </defs>
  <g id="t4-i1" transform="translate(-1195 821)">
    <rect id="Rectángulo_36706" data-name="Rectángulo 36706" width="400" height="380" transform="translate(1195 -821)" fill="none"/>
    <g id="Group_116699" data-name="Group 116699">
      <g id="Group_116569" data-name="Group 116569">
        <path id="Path_175649" data-name="Path 175649" d="M1499.127-517.205l33.753-15.99a8.623,8.623,0,0,1,7.347-.018l33.675,15.755a2.914,2.914,0,0,1-.013,5.285l-33.417,15.423a11.24,11.24,0,0,1-9.64-.1L1499.1-512.338A2.7,2.7,0,0,1,1499.127-517.205Z" opacity="0.2" fill="url(#linear-gradient)"/>
        <path id="Path_175650" data-name="Path 175650" d="M1201.544-520.625l33.753-15.991a8.623,8.623,0,0,1,7.347-.017l33.675,15.755a2.913,2.913,0,0,1-.013,5.284l-33.417,15.423a11.244,11.244,0,0,1-9.64-.1l-31.733-15.485A2.7,2.7,0,0,1,1201.544-520.625Z" opacity="0.2" fill="url(#linear-gradient)"/>
        <path id="Path_175651" data-name="Path 175651" d="M1402.213-525.186l33.753-15.99a8.623,8.623,0,0,1,7.347-.018l33.675,15.755a2.914,2.914,0,0,1-.013,5.285l-33.417,15.423a11.24,11.24,0,0,1-9.64-.1l-31.733-15.484A2.7,2.7,0,0,1,1402.213-525.186Z" opacity="0.2" fill="url(#linear-gradient)"/>
        <path id="Path_175652" data-name="Path 175652" d="M1575.573-524.334h0v-9.692h-16.86l-18.49-8.65a8.623,8.623,0,0,0-7.347.018l-18.222,8.632h-17.075v9.692h.012a2.662,2.662,0,0,0,1.5,2.533l31.733,15.484a11.24,11.24,0,0,0,9.64.1l33.417-15.423A2.872,2.872,0,0,0,1575.573-524.334Z" fill="url(#linear-gradient-4)"/>
        <path id="Path_175652_-_Outline" data-name="Path 175652 - Outline" d="M1536.573-543.614a8.8,8.8,0,0,1,3.707.824l18.465,8.638H1575.7v9.942h0a3,3,0,0,1-1.756,2.686L1540.524-506.1a11.288,11.288,0,0,1-4.763,1.046,11.425,11.425,0,0,1-4.984-1.151l-31.733-15.484a2.785,2.785,0,0,1-1.576-2.52h-.01v-9.942h17.172l18.2-8.62A8.806,8.806,0,0,1,1536.573-543.614Zm38.879,9.713h-16.763l-.025-.012-18.49-8.65a8.551,8.551,0,0,0-3.6-.8,8.556,8.556,0,0,0-3.64.819l-18.247,8.644h-16.978v9.442h.017l-.005.13a2.543,2.543,0,0,0,1.434,2.416l31.733,15.484a11.174,11.174,0,0,0,4.874,1.126,11.039,11.039,0,0,0,4.658-1.023l33.417-15.423a2.753,2.753,0,0,0,1.611-2.582l0-.127h.006Z" fill="#0071bc"/>
        <path id="Path_175653" data-name="Path 175653" d="M1499.127-536.36l33.753-15.99a8.623,8.623,0,0,1,7.347-.018l33.675,15.755a2.914,2.914,0,0,1-.013,5.285l-33.417,15.423a11.24,11.24,0,0,1-9.64-.1L1499.1-531.493A2.7,2.7,0,0,1,1499.127-536.36Z" fill="url(#linear-gradient-5)"/>
        <path id="Path_175654" data-name="Path 175654" d="M1573.889-532.071l-33.417,15.424a11.24,11.24,0,0,1-9.64-.1L1499.1-532.235a2.623,2.623,0,0,1-1.47-2.037,2.655,2.655,0,0,0,1.47,2.779l31.733,15.484a11.24,11.24,0,0,0,9.64.1l33.417-15.423a2.862,2.862,0,0,0,1.646-2.984A2.829,2.829,0,0,1,1573.889-532.071Z" fill="#fefefe" opacity="0.5"/>
        <path id="Path_175655" data-name="Path 175655" d="M1531.3-546.564,1520.286-530.1l32.933-1.245,7.467,1.532-7.18-4.6-22.019-1.053,6.588-10.444Z" fill="#fefefe"/>
      </g>
      <path id="Path_175656" data-name="Path 175656" d="M1376.235-485.008l53.707-24.407a3.153,3.153,0,0,0,.037-5.723l-110.607-52a9.465,9.465,0,0,0-7.944-.051l-53.639,24.376a3.127,3.127,0,0,0-.036,5.677l110.773,52.079A9.189,9.189,0,0,0,1376.235-485.008Z" opacity="0.2" fill="url(#linear-gradient)"/>
      <g id="Group_116571" data-name="Group 116571">
        <g id="Group_116570" data-name="Group 116570">
          <path id="Path_175657" data-name="Path 175657" d="M1222.294-533.281l21.373,11.917,17.262-8.421,4.7,2.462-18.393,8.838,19.919,8.852-5.519,2.774-19.883-9.253-20.4,8.549-5.519-2.584,21.373-9.394-19.494-10.243Z" fill="url(#linear-gradient-7)"/>
          <path id="Path_175658" data-name="Path 175658" d="M1245.942-547.893v28.568a2.942,2.942,0,0,1-2.64,1.513,2.726,2.726,0,0,1-2.843-1.513v-29.96Z" fill="url(#linear-gradient-8)"/>
          <path id="Path_175659" data-name="Path 175659" d="M1253.555-553.956v5.017a17.5,17.5,0,0,1-10.91,2.5c-6.247-.694-7.774-3.361-7.774-3.361V-564.35Z" fill="url(#linear-gradient-9)"/>
        </g>
        <path id="Path_175660" data-name="Path 175660" d="M1230.788-624.532l-11.55,6.717a6.841,6.841,0,0,0-3.138,7.794l2.427,36.516a6.883,6.883,0,0,0,3.612,4.3l38.449,18.664a7.386,7.386,0,0,0,6.116.152l27.147-11.546Z" fill="url(#linear-gradient-10)"/>
        <path id="Path_175660_-_Outline" data-name="Path 175660 - Outline" d="M1230.808-624.688l.068.068,63.195,62.727-.171.073-27.147,11.546a7.467,7.467,0,0,1-2.939.6,7.559,7.559,0,0,1-3.28-.754l-38.449-18.664a7.015,7.015,0,0,1-3.678-4.377l0-.013v-.013l-2.426-36.5a6.96,6.96,0,0,1,3.2-7.924Zm62.823,62.71-62.863-62.4-11.467,6.669a6.709,6.709,0,0,0-3.081,7.652l0,.013v.013l2.426,36.5a6.765,6.765,0,0,0,3.543,4.208l38.449,18.664a7.308,7.308,0,0,0,3.171.729,7.218,7.218,0,0,0,2.841-.579Z" fill="#0071bc"/>
        <path id="Path_175661" data-name="Path 175661" d="M1232.238-621.637l-9.739,5.513a6.078,6.078,0,0,0-2.8,7.13l2.457,32.552a7.148,7.148,0,0,0,3.876,4.351l35.073,15.793a8.428,8.428,0,0,0,6.681.1l22.235-9.2Z" fill="url(#linear-gradient-11)"/>
      </g>
      <g id="Group_116572" data-name="Group 116572">
        <path id="Path_175662" data-name="Path 175662" d="M1396.653-545.31s-2.173,4-3.667,4.043,2.8,3.077,5.117,3.242,5.4-1.318,5.313-1.782,1.1-6.093,1.1-6.093Z" fill="url(#linear-gradient-12)"/>
        <path id="Path_175663" data-name="Path 175663" d="M1395.525-541.505a3.435,3.435,0,0,0,4.518,1.973c3.394-1.12,3.83-1.675,3.83-1.675s.89,3.129.118,3.815-1.532,3.353-6.538,2.614-16.713-2.921-16.141-4.35a6.314,6.314,0,0,1,5.528-3.505C1389.5-542.534,1396.557-543.683,1395.525-541.505Z" fill="url(#linear-gradient-13)"/>
      </g>
      <path id="Path_175664" data-name="Path 175664" d="M1431.79-588.057s-25.839-18.095-39.113-12.965c-14.778,5.71,2.26,57.651,2.26,57.651l9.1-.117,5.225-38.19,32.359,2.762Z" fill="url(#linear-gradient-14)"/>
      <g id="Group_116573" data-name="Group 116573">
        <path id="Path_175665" data-name="Path 175665" d="M1375.42-520.746s-2.875,3.53-4.351,3.293,2.184,3.543,4.428,4.134,5.551-.3,5.551-.768,2.208-5.784,2.208-5.784Z" fill="url(#linear-gradient-15)"/>
        <path id="Path_175666" data-name="Path 175666" d="M1373.608-517.216a3.435,3.435,0,0,0,4.074,2.775c3.543-.473,4.074-.936,4.074-.936s.3,3.239-.59,3.77-2.126,3.012-6.909,1.358-15.884-5.964-15.057-7.263a6.319,6.319,0,0,1,6.082-2.421C1367.88-519.342,1375.025-519.165,1373.608-517.216Z" fill="url(#linear-gradient-16)"/>
      </g>
      <path id="Path_175667" data-name="Path 175667" d="M1456.819-581.048s4.539,16.546-8.184,18.888-48.34-11.718-48.34-11.718l-17.039,56.725a18.314,18.314,0,0,1-7.053-1.395L1373.19-520s10.11-66.254,15.592-70.91,44.763,2.6,44.763,2.6Z" fill="url(#linear-gradient-14)"/>
      <g id="Group_116588" data-name="Group 116588">
        <g id="Group_116583" data-name="Group 116583">
          <path id="Path_175668" data-name="Path 175668" d="M1515.088-739.3v129.12a5.111,5.111,0,0,1-7.285,4.631l-144.316-67.983a9.052,9.052,0,0,1-5.2-8.187V-812.178a4.1,4.1,0,0,1,5.858-3.717l145.968,68.759A8.665,8.665,0,0,1,1515.088-739.3Z" fill="url(#linear-gradient-18)"/>
          <path id="Path_175668_-_Outline" data-name="Path 175668 - Outline" d="M1362.394-816.42a4.206,4.206,0,0,1,1.81.412l145.968,68.759a8.77,8.77,0,0,1,3.673,3.241,8.774,8.774,0,0,1,1.368,4.708v129.12a5.184,5.184,0,0,1-1.585,3.761,5.3,5.3,0,0,1-3.65,1.485,5.215,5.215,0,0,1-2.228-.5l-144.316-67.983a9.155,9.155,0,0,1-3.838-3.384,9.16,9.16,0,0,1-1.429-4.916V-812.178A4.239,4.239,0,0,1,1362.394-816.42Zm147.584,211.236a5,5,0,0,0,4.985-5V-739.3a8.571,8.571,0,0,0-4.9-7.723L1364.1-815.782a3.958,3.958,0,0,0-1.7-.388,3.989,3.989,0,0,0-3.977,3.992v130.459a8.958,8.958,0,0,0,5.123,8.074l144.316,67.983A4.967,4.967,0,0,0,1509.978-605.183Z" fill="#0071bc"/>
          <path id="Path_175669" data-name="Path 175669" d="M1456.081-673.4l-87.529-41.065a5.771,5.771,0,0,1-3.319-5.225v-76.27a2.625,2.625,0,0,1,3.74-2.377l88.584,41.56a5.53,5.53,0,0,1,3.18,5v75.414A3.268,3.268,0,0,1,1456.081-673.4Z" fill="#fefefe"/>
          <path id="Path_175670" data-name="Path 175670" d="M1507.059-610.954l-38.48-18.083a5.769,5.769,0,0,1-3.319-5.224V-750.145a2.625,2.625,0,0,1,3.74-2.377l39.535,18.578a5.53,5.53,0,0,1,3.18,5v115.028A3.268,3.268,0,0,1,1507.059-610.954Z" fill="#fefefe"/>
          <path id="Path_175671" data-name="Path 175671" d="M1456.081-634.574l-87.529-41.065a5.771,5.771,0,0,1-3.319-5.224v-27.2a2.625,2.625,0,0,1,3.74-2.377l88.584,41.56a5.53,5.53,0,0,1,3.18,5v26.339A3.268,3.268,0,0,1,1456.081-634.574Z" fill="#fefefe"/>
          <path id="Path_175672" data-name="Path 175672" d="M1369.658-737.738V-791.3l-1.382-.63v55.111l83.051,39.146v-1.572Z" fill="#f6bf28"/>
          <g id="Group_116574" data-name="Group 116574">
            <path id="Path_175673" data-name="Path 175673" d="M1373.877-738.2l5.028,2.481v-10.97l-5.028-2.481Z" fill="#f6bf28"/>
            <path id="Path_175674" data-name="Path 175674" d="M1383-734.025l5.028,2.481v-17.622L1383-751.646Z" fill="#f6bf28"/>
            <path id="Path_175675" data-name="Path 175675" d="M1392.129-729.853l5.028,2.481v-27.46l-5.028-2.481Z" fill="#f6bf28"/>
            <path id="Path_175676" data-name="Path 175676" d="M1401.255-725.682l5.028,2.481v-21.453l-5.028-2.481Z" fill="#f6bf28"/>
            <path id="Path_175677" data-name="Path 175677" d="M1410.382-721.511l5.028,2.481v-16.983l-5.028-2.481Z" fill="#f6bf28"/>
            <path id="Path_175678" data-name="Path 175678" d="M1419.508-717.34l5.028,2.481V-741.1l-5.028-2.481Z" fill="#f6bf28"/>
            <path id="Path_175679" data-name="Path 175679" d="M1428.634-713.168l5.028,2.481v-32.872l-5.028-2.481Z" fill="#f6bf28"/>
            <path id="Path_175680" data-name="Path 175680" d="M1437.76-709l5.028,2.481v-33.966l-5.028-2.481Z" fill="#f6bf28"/>
          </g>
          <path id="Path_175681" data-name="Path 175681" d="M1374.8-783.875l57.929,26.562v-2.422L1374.8-786.3Z" fill="#d6d6d6"/>
          <path id="Path_175682" data-name="Path 175682" d="M1374.8-777.291l22.353,10.271v-2.422L1374.8-779.714Z" fill="#d6d6d6"/>
          <path id="Path_175683" data-name="Path 175683" d="M1374.8-724.95l57.929,26.562v-2.422L1374.8-727.373Z" fill="#d6d6d6"/>
          <path id="Path_175684" data-name="Path 175684" d="M1374.8-718.366l22.353,10.271v-2.422L1374.8-720.789Z" fill="#d6d6d6"/>
          <g id="Group_116575" data-name="Group 116575">
            <path id="Path_175685" data-name="Path 175685" d="M1471.286-725.107a20.045,20.045,0,0,0,1.6,7.521,28.144,28.144,0,0,0,11.886,13.577,17.8,17.8,0,0,0,1.857.921c6.328,2.748,11.75,1.283,14.09-3.157a11.688,11.688,0,0,0,1.239-5.512c0-8.472-6.857-18.334-15.329-22.019C1478.143-737.461,1471.286-733.58,1471.286-725.107Z" fill="#28b5bd"/>
            <path id="Path_175686" data-name="Path 175686" d="M1472.887-717.586a28.144,28.144,0,0,0,11.886,13.577l1.857-14.423Z" fill="#e86038"/>
            <path id="Path_175687" data-name="Path 175687" d="M1484.773-704.009a17.8,17.8,0,0,0,1.857.921c6.328,2.748,11.75,1.283,14.09-3.157l-14.09-12.187Z" fill="#f6bf28"/>
          </g>
          <path id="Path_175688" data-name="Path 175688" d="M1472.585-696.256l28.09,12.907v-3.044l-28.09-12.907Z" fill="#e86038"/>
          <g id="Group_116576" data-name="Group 116576">
            <path id="Path_175689" data-name="Path 175689" d="M1472.585-684.389l28.09,12.907v-3.044l-28.09-12.907Z" fill="#d6d6d6"/>
            <path id="Path_175690" data-name="Path 175690" d="M1472.585-676.933l28.09,12.907v-3.044l-28.09-12.907Z" fill="#d6d6d6"/>
            <path id="Path_175691" data-name="Path 175691" d="M1472.585-669.477l28.09,12.907v-3.044l-28.09-12.907Z" fill="#d6d6d6"/>
            <path id="Path_175692" data-name="Path 175692" d="M1472.585-662.021l15.111,6.973v-3.044l-15.111-6.973Z" fill="#d6d6d6"/>
          </g>
          <g id="Group_116577" data-name="Group 116577">
            <path id="Path_175693" data-name="Path 175693" d="M1371.472-700.582l28.09,12.907v-3.044l-28.09-12.907Z" fill="#d6d6d6"/>
            <path id="Path_175694" data-name="Path 175694" d="M1371.472-693.126l28.09,12.907v-3.044l-28.09-12.907Z" fill="#d6d6d6"/>
            <path id="Path_175695" data-name="Path 175695" d="M1371.472-685.67l28.09,12.907v-3.044l-28.09-12.907Z" fill="#d6d6d6"/>
            <path id="Path_175696" data-name="Path 175696" d="M1371.472-678.213l15.111,6.973v-3.044l-15.111-6.973Z" fill="#d6d6d6"/>
          </g>
          <g id="Group_116578" data-name="Group 116578">
            <path id="Path_175697" data-name="Path 175697" d="M1417.1-679.64l28.09,12.907v-3.044l-28.09-12.907Z" fill="#d6d6d6"/>
            <path id="Path_175698" data-name="Path 175698" d="M1417.1-672.184l28.09,12.907v-3.044l-28.09-12.907Z" fill="#d6d6d6"/>
            <path id="Path_175699" data-name="Path 175699" d="M1417.1-664.727l28.09,12.907v-3.044l-28.09-12.907Z" fill="#d6d6d6"/>
            <path id="Path_175700" data-name="Path 175700" d="M1417.1-657.271l15.111,6.973v-3.044l-15.111-6.973Z" fill="#d6d6d6"/>
          </g>
          <g id="Group_116579" data-name="Group 116579">
            <path id="Path_175701" data-name="Path 175701" d="M1472.585-653.525l28.09,12.907v-3.044l-28.09-12.907Z" fill="#d6d6d6"/>
            <path id="Path_175702" data-name="Path 175702" d="M1472.585-646.069l28.09,12.907v-3.044l-28.09-12.907Z" fill="#d6d6d6"/>
            <path id="Path_175703" data-name="Path 175703" d="M1472.585-638.613l28.09,12.907v-3.044l-28.09-12.907Z" fill="#d6d6d6"/>
            <path id="Path_175704" data-name="Path 175704" d="M1472.585-631.157l15.111,6.973v-3.044l-15.111-6.973Z" fill="#d6d6d6"/>
          </g>
          <path id="Path_175705" data-name="Path 175705" d="M1515.088-739.3v6.626l-156.8-74.409v-5.095a4.1,4.1,0,0,1,5.858-3.717l145.968,68.759A8.665,8.665,0,0,1,1515.088-739.3Z" fill="url(#linear-gradient-19)"/>
          <g id="Group_116581" data-name="Group 116581">
            <path id="Path_175706" data-name="Path 175706" d="M1561.884-728.23c-17.478-9.862-33.232-2.76-35.253,15.856a44.637,44.637,0,0,0,1.669,16.857c3.523,12.543,11.858,24.845,22.468,32.3a37.587,37.587,0,0,0,3.8,2.41c13.03,7.355,25.1,5.264,31.227-4.005a26.42,26.42,0,0,0,3.992-11.854C1591.806-695.279,1579.329-718.372,1561.884-728.23Z" fill="url(#linear-gradient-20)"/>
            <path id="Path_175707" data-name="Path 175707" d="M1556.886-726.009c-17.478-9.861-33.232-2.76-35.253,15.856A44.636,44.636,0,0,0,1523.3-693.3c3.524,12.543,11.859,24.845,22.468,32.3a37.768,37.768,0,0,0,3.8,2.411c13.03,7.354,25.106,5.263,31.227-4.006a26.434,26.434,0,0,0,3.993-11.854C1586.808-693.058,1574.331-716.151,1556.886-726.009Z" fill="url(#linear-gradient-21)"/>
            <g id="Group_116580" data-name="Group 116580">
              <path id="Path_175708" data-name="Path 175708" d="M1554.863-707.451c-7.856-4.433-14.938-1.241-15.846,7.127a20.076,20.076,0,0,0,.75,7.577,27.334,27.334,0,0,0,10.1,14.519,16.812,16.812,0,0,0,1.707,1.084c5.856,3.3,11.284,2.366,14.035-1.8a11.865,11.865,0,0,0,1.8-5.328C1568.312-692.64,1562.7-703.02,1554.863-707.451Zm10,21.739a9.747,9.747,0,0,1-1.472,4.374c-2.259,3.419-6.714,4.191-11.521,1.477a13.947,13.947,0,0,1-1.4-.889,22.433,22.433,0,0,1-8.289-11.917,16.462,16.462,0,0,1-.615-6.219c.745-6.867,6.557-9.487,13.005-5.849S1565.606-692.579,1564.86-685.712Z" fill="url(#linear-gradient-22)"/>
              <path id="Path_175709" data-name="Path 175709" d="M1555.465-712.974c-10.72-6.048-20.382-1.692-21.621,9.725a27.379,27.379,0,0,0,1.024,10.339,37.3,37.3,0,0,0,13.78,19.811,22.959,22.959,0,0,0,2.329,1.478c7.991,4.511,15.4,3.228,19.151-2.456a16.2,16.2,0,0,0,2.449-7.271C1573.816-692.764,1566.164-706.928,1555.465-712.974Zm14.762,30.3a14.245,14.245,0,0,1-2.151,6.388c-3.3,4.995-9.806,6.122-16.828,2.158a20.406,20.406,0,0,1-2.046-1.3,32.77,32.77,0,0,1-12.108-17.407,24.068,24.068,0,0,1-.9-9.084c1.089-10.031,9.578-13.858,19-8.544C1564.592-705.152,1571.316-692.708,1570.227-682.677Z" fill="url(#linear-gradient-22)"/>
              <path id="Path_175710" data-name="Path 175710" d="M1556.112-718.908c-13.8-7.784-26.232-2.178-27.827,12.516a35.237,35.237,0,0,0,1.317,13.306,48.006,48.006,0,0,0,17.736,25.5,29.654,29.654,0,0,0,3,1.9c10.285,5.8,19.816,4.154,24.648-3.162a20.862,20.862,0,0,0,3.152-9.357C1579.731-692.9,1569.882-711.127,1556.112-718.908Zm19,38.993a18.316,18.316,0,0,1-2.769,8.222c-4.245,6.428-12.62,7.878-21.657,2.778a26.2,26.2,0,0,1-2.634-1.672,42.173,42.173,0,0,1-15.583-22.4,30.96,30.96,0,0,1-1.157-11.692c1.4-12.91,12.327-17.836,24.449-11C1567.859-708.841,1576.513-692.825,1575.111-679.915Z" fill="url(#linear-gradient-22)"/>
              <path id="Path_175711" data-name="Path 175711" d="M1554.2-701.363c-4.7-2.651-8.935-.742-9.478,4.264a12.005,12.005,0,0,0,.448,4.532,16.358,16.358,0,0,0,6.041,8.685,10.142,10.142,0,0,0,1.021.648c3.5,1.977,6.751,1.415,8.4-1.077a7.089,7.089,0,0,0,1.074-3.187C1562.244-692.5,1558.89-698.712,1554.2-701.363Zm5.476,12.719a5.4,5.4,0,0,1-.817,2.427c-1.253,1.9-3.725,2.326-6.393.82a7.652,7.652,0,0,1-.777-.493,12.448,12.448,0,0,1-4.6-6.613,9.15,9.15,0,0,1-.342-3.451c.414-3.811,3.639-5.265,7.217-3.246S1560.089-692.454,1559.675-688.644Z" fill="url(#linear-gradient-22)"/>
              <path id="Path_175712" data-name="Path 175712" d="M1553.576-695.646c-1.735-.978-3.3-.273-3.5,1.575a4.43,4.43,0,0,0,.166,1.673,6.043,6.043,0,0,0,2.23,3.207,4.047,4.047,0,0,0,.377.239c1.294.73,2.493.522,3.1-.4a2.621,2.621,0,0,0,.4-1.177A5.74,5.74,0,0,0,1553.576-695.646Z" fill="url(#linear-gradient-22)"/>
              <path id="Path_175713" data-name="Path 175713" d="M1556.886-726.009c-17.478-9.861-33.232-2.76-35.253,15.856A44.636,44.636,0,0,0,1523.3-693.3c3.524,12.543,11.859,24.845,22.468,32.3a37.768,37.768,0,0,0,3.8,2.411c13.03,7.354,25.106,5.263,31.227-4.006a26.434,26.434,0,0,0,3.993-11.854C1586.808-693.058,1574.331-716.151,1556.886-726.009Zm24.07,49.4a23.228,23.228,0,0,1-3.508,10.416c-5.379,8.143-15.988,9.981-27.437,3.519a33.031,33.031,0,0,1-3.337-2.118c-9.322-6.553-16.646-17.361-19.742-28.382a39.243,39.243,0,0,1-1.466-14.811c1.776-16.356,15.618-22.6,30.974-13.932C1571.768-713.256,1582.731-692.965,1580.956-676.61Z" fill="url(#linear-gradient-22)"/>
            </g>
            <path id="Path_175714" data-name="Path 175714" d="M1553.211-693.109l-40.766,19.194-3.57-1.234-11.048,4.135,4.132,1.563v4.386l10.486-4.833v-2.576l40.766-19.184S1554.473-692.886,1553.211-693.109Z" fill="#204470"/>
          </g>
          <g id="Group_116582" data-name="Group 116582">
            <path id="Path_175715" data-name="Path 175715" d="M1579.405-633.03v46.509a1.784,1.784,0,0,1-2.537,1.617l-49.671-23.3a2.4,2.4,0,0,1-1.392-2.181V-657.66a1.618,1.618,0,0,1,2.3-1.463l49.462,23.2A3.193,3.193,0,0,1,1579.405-633.03Z" fill="url(#linear-gradient-28)"/>
            <path id="Path_175716" data-name="Path 175716" d="M1567.437-621.482c-3.342-11.882-12.692-21.514-20.884-21.514s-12.122,9.632-8.78,21.514,12.693,21.514,20.884,21.514S1570.779-609.6,1567.437-621.482Zm-6,14.44L1542.7-615.9c-.3-5.058,1.946-8.719,5.809-8.719a6.482,6.482,0,0,1,.947.074,9.389,9.389,0,0,1-2.057-3.734c-.859-3.053.151-5.528,2.256-5.528s4.507,2.475,5.365,5.528c.762,2.708.051,4.957-1.588,5.431a20.1,20.1,0,0,1,7.308,10.829A17.462,17.462,0,0,1,1561.435-607.042Z" fill="#fff"/>
          </g>
        </g>
        <g id="Group_116585" data-name="Group 116585">
          <path id="Path_175717" data-name="Path 175717" d="M1360.87-793.1v46.51a1.783,1.783,0,0,1-2.537,1.616l-49.671-23.3a2.4,2.4,0,0,1-1.392-2.181v-47.271a1.618,1.618,0,0,1,2.3-1.463l49.463,23.206A3.192,3.192,0,0,1,1360.87-793.1Z" fill="url(#linear-gradient-29)"/>
          <g id="Group_116584" data-name="Group 116584">
            <path id="Path_175718" data-name="Path 175718" d="M1315.763-799.847l36.614,17.27v-2.615l-36.614-17.27Z" fill="#fff"/>
            <path id="Path_175719" data-name="Path 175719" d="M1315.763-792.881l36.614,17.27v-2.615l-36.614-17.27Z" fill="#fff"/>
            <path id="Path_175720" data-name="Path 175720" d="M1315.763-785.916l36.614,17.27v-2.615l-36.614-17.27Z" fill="#fff"/>
            <path id="Path_175721" data-name="Path 175721" d="M1315.763-778.95l36.614,17.27v-2.615l-36.614-17.27Z" fill="#fff"/>
            <path id="Path_175722" data-name="Path 175722" d="M1315.763-771.984l18.307,8.635v-2.615l-18.307-8.635Z" fill="#fff"/>
          </g>
        </g>
        <g id="Group_116587" data-name="Group 116587">
          <path id="Path_175723" data-name="Path 175723" d="M1360.87-731.813V-685.3a1.783,1.783,0,0,1-2.537,1.616l-49.671-23.3a2.4,2.4,0,0,1-1.392-2.18v-47.271a1.617,1.617,0,0,1,2.3-1.463l49.463,23.205A3.193,3.193,0,0,1,1360.87-731.813Z" fill="#f6bf28"/>
          <g id="Group_116586" data-name="Group 116586">
            <path id="Path_175724" data-name="Path 175724" d="M1315.763-738.565l36.614,17.27v-2.615l-36.614-17.27Z" fill="#fff"/>
            <path id="Path_175725" data-name="Path 175725" d="M1315.763-731.6l36.614,17.27v-2.615l-36.614-17.27Z" fill="#fff"/>
            <path id="Path_175726" data-name="Path 175726" d="M1315.763-724.633l36.614,17.271v-2.615l-36.614-17.27Z" fill="#fff"/>
            <path id="Path_175727" data-name="Path 175727" d="M1315.763-717.668l36.614,17.27v-2.615l-36.614-17.27Z" fill="#fff"/>
            <path id="Path_175728" data-name="Path 175728" d="M1315.763-710.7l18.307,8.635v-2.615l-18.307-8.635Z" fill="#fff"/>
          </g>
        </g>
      </g>
      <g id="Group_116589" data-name="Group 116589">
        <path id="Path_175729" data-name="Path 175729" d="M1280.29-587.711s-.576,2.823.3,3.769,6.711,1.273,7.244.222-.316-3.936-.316-3.936Z" fill="url(#linear-gradient-30)"/>
        <path id="Path_175730" data-name="Path 175730" d="M1300.3-597.194s.152,3.9.905,3.942,9.441.21,8.4-.675a13.617,13.617,0,0,1-2.531-2.848,5.543,5.543,0,0,1-.536-1.348Z" fill="url(#linear-gradient-31)"/>
        <path id="Path_175731" data-name="Path 175731" d="M1311.488-679.323s1.774,37.5-.162,42.209a68.618,68.618,0,0,0-4.512,23.613c.031,9.255.471,14.738.471,14.738s.956.813-2.143,2.13-4.953.4-4.953.4-3.4-17.886-3.709-26.228a33.157,33.157,0,0,1,2.749-14.548l-.5-23.909s-3.051,26.3-4.559,29.682-4.774,15.93-5.556,26.141a69.681,69.681,0,0,0,.449,16.681,7.452,7.452,0,0,1-4.6,2.523,5.965,5.965,0,0,1-4.948-1.756s-1.994-22.61-.575-33.762,1.531-14.187,1.531-14.187-5.993-25.867-4.976-30.933a42.573,42.573,0,0,1,3.809-10.208Z" fill="url(#linear-gradient-14)"/>
        <path id="Path_175732" data-name="Path 175732" d="M1296.544-754.405s2.021,5.041,1.546,6.039-1.077,1.5-.288,2.3a3.379,3.379,0,0,1,1.321,3.026c-.068,1.672-.034,7.125-1.007,8.214a2.284,2.284,0,0,1-2.106.825l.8,3.068s-.278,2.195-4.292,3.174-8.071-1.12-8.276-1.154-2.261-14.317-1.849-17.987,2.958-7.209,4.658-8.053S1296.544-754.405,1296.544-754.405Z" fill="url(#linear-gradient-33)"/>
        <path id="Path_175733" data-name="Path 175733" d="M1298.106-756.235a5.9,5.9,0,0,1-3.08,5.214c-3.231,1.7-6.708.318-7.129.573s1.378,2.042.72,3.474-1.1,1.413-.663,3.42,1.9,6.416,4.143,6.235,4.032-2.178,5.485-2.482,1.849.072,1.849.072.369,5.545-1.9,6.168-7.254,1.079-8.978-1.487-.97-8.3-3.432-8.716-1.5,1.993-.477,3.677,1.418,5.295-.7,5.078-5.531-2.205-7.52-7.73,1.731-7.314,1.731-7.314-3.153-1.457-1.283-4.974,11.1-5.472,15.922-4.48S1298.106-756.235,1298.106-756.235Z" fill="url(#linear-gradient)"/>
        <path id="Path_175734" data-name="Path 175734" d="M1283.934-730.449s4.188,3.842,9.12,2.54,4.478-5.652,4.478-5.652,13.537-2.346,16.489,1.178,15.4,25.624,17.98,24.483,16.926-6.783,16.926-6.783.825-.3,1.973,1.907a6.868,6.868,0,0,1,.377,4.7s-17.26,8.658-22.747,8.314-17.647-14.3-17.647-14.3,2.631,31.262.6,34.739-8.962,9.251-20.342,9.558-13.444-4.259-13.444-4.259l-.765-9.522s-13.356-.141-13.43-5.594,6.287-35.012,8.083-36.829S1283.934-730.449,1283.934-730.449Z" fill="#fefefe"/>
        <path id="Path_175735" data-name="Path 175735" d="M1293.054-727.909l-3.79,5.56s-9.078-5.725-8.343-7.282,3.013-.818,3.013-.818A14.068,14.068,0,0,0,1293.054-727.909Z" fill="#fefefe"/>
        <path id="Path_175736" data-name="Path 175736" d="M1297.532-733.561l-2.376,4.718,4.744,2.905-.005-8.015S1298.864-733.843,1297.532-733.561Z" fill="#fefefe"/>
        <path id="Path_175737" data-name="Path 175737" d="M1275.773-717.037a9.513,9.513,0,0,1,1.707,6.579c-.528,3.7-2.7,16.241-4.3,16.841s-4,4.445-4,4.445,5.426-4.324,6.822-4.553,15.524-.54,15.524-.54-14.059-.285-14.336-2.266,1.669-11.681,1.508-15.792S1275.773-717.037,1275.773-717.037Z" fill="#08011c" opacity="0.2"/>
        <path id="Path_175738" data-name="Path 175738" d="M1310.908-724.087l-.059,9.536s12.828,14.534,17.681,14.787,22.747-8.314,22.747-8.314-19.177,7.255-22.8,6.132-13.716-12.33-15.1-14.929A37.774,37.774,0,0,1,1310.908-724.087Z" fill="#08011c" opacity="0.2"/>
        <path id="Path_175739" data-name="Path 175739" d="M1350.1-714.019s.951-2.995,3.212-4.2a38.234,38.234,0,0,1,5.156-2.156s.568,1.971-1.939,2.65-.781,1.77-.084,1.509,7.237-4.68,9.151-4.732-3.33,7.032-5.871,8.569-8.212,2.914-8.212,2.914S1351.266-713.354,1350.1-714.019Z" fill="url(#linear-gradient-35)"/>
        <path id="Path_175740" data-name="Path 175740" d="M1290.682-693.48a8.276,8.276,0,0,0-.537,4.4l.493,1.958s9.26-1.2,12.923-4.217,4.961-6.079,3.642-6.675-5.811,4.034-8.358,4.238-3.115-1.2-1.1-2.182a3.493,3.493,0,0,0,2.158-2.534s-3.029.375-4.368,1.415S1290.682-693.48,1290.682-693.48Z" fill="url(#linear-gradient-36)"/>
        <path id="Path_175741" data-name="Path 175741" d="M1289.056-585.21a8.087,8.087,0,0,1-4.484,1.484,8.381,8.381,0,0,1-4.887-1.773s-1.331,3.183.356,4.439,8.329,5.969,10.756,6.2,9.284-3.047,7.456-3.811a43.383,43.383,0,0,1-7.569-4.263A8.25,8.25,0,0,1,1289.056-585.21Z" fill="url(#linear-gradient-14)"/>
        <path id="Path_175742" data-name="Path 175742" d="M1299.438-595.251s4.266,1.8,6.279,1.53a8.859,8.859,0,0,0,3.82-1.752,10.172,10.172,0,0,0,5.062,2.377c2.809.31,5.052,1.575,2.263,3.512s-2.041,2.577-6.561,1.626-10.713-2.755-11.188-4S1299.438-595.251,1299.438-595.251Z" fill="url(#linear-gradient-14)"/>
      </g>
      <path id="Path_175743" data-name="Path 175743" d="M1376.235-543.482l53.707-24.407a3.153,3.153,0,0,0,.037-5.723l-110.607-52a9.465,9.465,0,0,0-7.944-.051l-53.639,24.376a3.127,3.127,0,0,0-.036,5.677l110.773,52.079A9.189,9.189,0,0,0,1376.235-543.482Z" fill="url(#linear-gradient)"/>
      <path id="Path_175744" data-name="Path 175744" d="M1376.235-545.448l53.707-24.407a3.153,3.153,0,0,0,.037-5.723l-110.607-52a9.465,9.465,0,0,0-7.944-.051l-53.639,24.376a3.127,3.127,0,0,0-.036,5.677L1368.526-545.5A9.189,9.189,0,0,0,1376.235-545.448Z" fill="url(#linear-gradient-5)"/>
      <path id="Path_175744_-_Outline" data-name="Path 175744 - Outline" d="M1372.434-544.5h0a9.374,9.374,0,0,1-3.961-.885L1257.7-597.464a3.221,3.221,0,0,1-1.869-2.965,3.22,3.22,0,0,1,1.906-2.939l53.639-24.376a9.522,9.522,0,0,1,3.968-.86,9.657,9.657,0,0,1,4.081.911l110.607,52a3.246,3.246,0,0,1,1.882,2.987,3.246,3.246,0,0,1-1.921,2.963l-53.707,24.407A9.255,9.255,0,0,1,1372.434-544.5Zm-57.09-83.853a9.274,9.274,0,0,0-3.864.837l-53.639,24.376a2.972,2.972,0,0,0-1.76,2.713,2.974,2.974,0,0,0,1.725,2.737l110.773,52.079a9.121,9.121,0,0,0,3.855.861,9.007,9.007,0,0,0,3.749-.812l53.707-24.407a3,3,0,0,0,1.775-2.737,3,3,0,0,0-1.739-2.759l-110.607-52A9.4,9.4,0,0,0,1315.344-628.353Z" fill="#0071bc"/>
      <path id="Path_175745" data-name="Path 175745" d="M1419.417-656.986a69.443,69.443,0,0,0-2.74,6.493c-.25,1.2.86,2.161.6,2.789a16.053,16.053,0,0,0-.641,3.619c-.043,1.025,2.264,10.423,3.888,10.423s5.211-.358,5.211-.358l1.3,5.911,11.673-5.468s-2.383-5.126-2.383-8.543-3.844-8.474-7.6-10.26S1419.417-656.986,1419.417-656.986Z" fill="url(#linear-gradient-41)"/>
      <path id="Path_175746" data-name="Path 175746" d="M1417.366-662.574s-2.136,5.719,1.111,7.063,6.151,2.611,6.151,2.611a4.418,4.418,0,0,0-1.281,3.689,9.8,9.8,0,0,0,1.623,4.806s.513-4.123,2.649-3.7-.855,7.6,2.563,8.288,4.937,2.135,8.534-2.136,4.708-7.521,4.708-9.912-2.306-4.185-2.306-4.185a5.391,5.391,0,0,0-5.038-4.31C1431.72-660.66,1417.366-662.574,1417.366-662.574Z" fill="url(#linear-gradient)"/>
      <path id="Path_175747" data-name="Path 175747" d="M1467.253-637.363c-.876,3.8-12.643,12.2-12.643,12.2s.176,34.7-1.527,37.8-6.058,9.6-17.224,10.828a24.59,24.59,0,0,1-10.214-.614c-3.681-1.226-5.208-3.617-5.057-6.184.25-4.268-.013-14.833-.013-14.833s-2.879,17.074-6.109,17.249-25.673-8.574-25.673-8.574a5.245,5.245,0,0,1,2.491-4.9,22.116,22.116,0,0,1,4.143-2.027s12.367,5.194,13.356,3.78,4.194-27.351,6.61-30.481,12.142-8.161,12.142-8.161,11.491-6.372,13.519-6.372c2,.013,15.259-2.165,15.91-3.467s-3.881-29.354-3.881-29.354,3.017-1.953,5.495-1.94,3.005,0,3.005,0,4.068,19.427,5.357,29.5A22.24,22.24,0,0,1,1467.253-637.363Z" fill="url(#linear-gradient-43)"/>
      <path id="Path_175747_-_Outline" data-name="Path 175747 - Outline" d="M1461.684-672.527l.021.1c.041.194,4.084,19.547,5.359,29.514a21.452,21.452,0,0,1,.311,5.577c-.369,1.6-2.621,4.16-6.691,7.6-2.8,2.362-5.537,4.348-5.948,4.644.01,2.147.136,34.739-1.543,37.8a20.01,20.01,0,0,1-5.094,6.16,23.209,23.209,0,0,1-12.226,4.732,37.209,37.209,0,0,1-4.044.236,20.067,20.067,0,0,1-6.223-.856,8.177,8.177,0,0,1-4.026-2.632,5.431,5.431,0,0,1-1.117-3.678c.2-3.346.074-10.659.014-13.581-.3,1.581-.872,4.471-1.625,7.346-1.506,5.752-2.98,8.707-4.38,8.783-.034,0-.071,0-.109,0-3.554,0-24.717-8.235-25.616-8.585l-.07-.027-.008-.075a5.621,5.621,0,0,1,.179-1.873,5.029,5.029,0,0,1,2.374-3.144,22.065,22.065,0,0,1,4.171-2.039l.042-.012.041.017c.1.04,9.592,4.014,12.5,4.014.47,0,.641-.1.7-.191.373-.527,1.111-4.887,1.966-9.934,1.4-8.293,3.151-18.613,4.647-20.552,2.417-3.128,11.786-7.99,12.184-8.2.467-.259,11.539-6.386,13.576-6.386h.018a72.4,72.4,0,0,0,8.452-1.244c1.988-.385,3.7-.776,4.939-1.128,1.9-.54,2.314-.874,2.389-1.025.145-.293.117-2.645-1.708-15.1-1.039-7.091-2.173-14.112-2.184-14.182l-.013-.081.068-.044c.124-.08,3.057-1.96,5.538-1.96h.025c.731,0,1.364.005,1.88.005.877,0,1.119-.005,1.121-.005Zm-1.225.258c-.517,0-1.15,0-1.881-.005h-.024c-2.2,0-4.874,1.592-5.334,1.877.13.807,1.193,7.425,2.172,14.1,2.109,14.387,1.79,15.032,1.685,15.243s-.489.571-2.545,1.154c-1.249.355-2.964.747-4.959,1.133a73.852,73.852,0,0,1-8.5,1.249h-.019c-1.972,0-13.343,6.293-13.457,6.356s-9.72,5.044-12.1,8.128c-1.458,1.889-3.273,12.611-4.6,20.44-.9,5.287-1.6,9.463-2.008,10.036-.14.2-.436.3-.907.3-2.891,0-11.774-3.688-12.557-4.016a23.753,23.753,0,0,0-4.074,2,5.118,5.118,0,0,0-2.435,4.7c1.4.544,22.047,8.54,25.452,8.54l.1,0c.88-.048,2.314-1.578,4.152-8.6,1.109-4.236,1.834-8.505,1.841-8.548l.248.018c0,.106.26,10.619.013,14.843-.161,2.744,1.651,4.952,4.972,6.058a19.82,19.82,0,0,0,6.144.843,36.955,36.955,0,0,0,4.016-.235c7.942-.873,13.7-4.494,17.128-10.764,1.668-3.042,1.513-37.4,1.512-37.742v-.065l.053-.038c.117-.084,11.738-8.416,12.594-12.131a21.774,21.774,0,0,0-.315-5.489c-1.226-9.584-5.016-27.864-5.334-29.394C1461.342-672.272,1461.042-672.27,1460.459-672.27Z" fill="#0071bc"/>
      <path id="Path_175748" data-name="Path 175748" d="M1454.625-671.3s-6.844-6.906-7.084-7.91-1.377-11.913-.44-12.114,2.945,6.721,3.815,7.008,6.592,1.359,7.429,2.229,1.673,9.687,1.673,9.687S1456.166-672.146,1454.625-671.3Z" fill="url(#linear-gradient-41)"/>
      <path id="Path_175749" data-name="Path 175749" d="M1393.755-595.515s-1.008-3.826-2.968-4.691a23.053,23.053,0,0,0-5.655-1.174s-.952,1.252.84,1.9,2.015,1.206,2.015,1.206-7.519-.441-9.687-.547-3.858,3.707,1.319,4.7,4.393,3.518,5.849,3.909a17.187,17.187,0,0,0,3.315.449S1389.947-594.383,1393.755-595.515Z" fill="url(#linear-gradient-41)"/>
      <g id="Group_116591" data-name="Group 116591">
        <g id="Group_116590" data-name="Group 116590">
          <path id="Path_175750" data-name="Path 175750" d="M1419.827-535.611l19.7,10.982,15.908-7.76,4.329,2.269-16.95,8.144,18.356,8.157-5.086,2.556-18.323-8.527-18.8,7.878-5.086-2.381,19.7-8.657-17.964-9.439Z" fill="url(#linear-gradient-46)"/>
          <path id="Path_175751" data-name="Path 175751" d="M1441.619-549.077v26.327a2.711,2.711,0,0,1-2.432,1.394,2.512,2.512,0,0,1-2.62-1.394v-27.61Z" fill="url(#linear-gradient-47)"/>
          <path id="Path_175752" data-name="Path 175752" d="M1448.635-554.664v4.623a16.123,16.123,0,0,1-10.054,2.3c-5.757-.64-7.164-3.1-7.164-3.1v-13.407Z" fill="url(#linear-gradient-48)"/>
        </g>
        <path id="Path_175753" data-name="Path 175753" d="M1441.354-560.4l-.8,1.239-1.953,3-7.185-2.128-4.456-1.314-7.4-3.568,1.077-.488,7.736-3.518,9.351,4.882Z" fill="url(#linear-gradient-49)"/>
        <path id="Path_175754" data-name="Path 175754" d="M1474-608.185,1445.685-556.3l-3.354,6.159-10.916-4.907-14.933-6.722,3.079-1.4,1.077-.488,10.777,4.907,2.516,1.151a2.592,2.592,0,0,0,3.655-2.366l.05-.813.088-1.515,1.84-31.231a7.5,7.5,0,0,1,4.344-6.8l20.9-9.652a6.674,6.674,0,0,1,5.834.1l1.8.9,1.54.776Z" fill="url(#linear-gradient-50)"/>
        <path id="Path_175754_-_Outline" data-name="Path 175754 - Outline" d="M1467.628-610.722a6.83,6.83,0,0,1,3.074.736l1.8.9,1.558.785.092.093-.045.082-28.315,51.886-3.409,6.261-.106-.047-10.916-4.907-15.185-6.835,4.459-2.028,10.829,4.93,2.516,1.151a2.441,2.441,0,0,0,1.012.221,2.473,2.473,0,0,0,2.466-2.473v-.008l.05-.813.088-1.515,1.84-31.227a7.647,7.647,0,0,1,4.416-6.907l20.9-9.652A6.786,6.786,0,0,1,1467.628-610.722Zm6.2,2.586-1.439-.725-1.8-.9a6.58,6.58,0,0,0-2.962-.71,6.538,6.538,0,0,0-2.764.61l-20.9,9.652a7.4,7.4,0,0,0-4.271,6.684v.007l-1.978,33.555a2.723,2.723,0,0,1-2.716,2.719,2.688,2.688,0,0,1-1.115-.243l-2.516-1.151-10.725-4.883-1.025.465-2.828,1.288,14.681,6.609,10.81,4.859,3.3-6.057Z" fill="#0071bc"/>
        <path id="Path_175755" data-name="Path 175755" d="M1475.413-605.066l-.935,34.78a6.16,6.16,0,0,1-3.337,5.311l-28.8,14.835.872-41.551a7.055,7.055,0,0,1,4.014-6.219l22.594-10.791A3.912,3.912,0,0,1,1475.413-605.066Z" fill="url(#linear-gradient-51)"/>
      </g>
      <path id="Path_175756" data-name="Path 175756" d="M1425.645-577.141c-3.681-1.226-5.208-3.617-5.057-6.184.25-4.268-.013-14.833-.013-14.833s2.1-9.3,2.253-11.867l.15-2.566s-.288,29,1.039,32.171A26.61,26.61,0,0,0,1425.645-577.141Z" fill="#08011c" opacity="0.29"/>
      <path id="Path_175757" data-name="Path 175757" d="M1467.253-637.363c-.876,3.8-12.643,12.2-12.643,12.2v-6.672s9.839-2.942,11.179-6.184a20.67,20.67,0,0,0,1.151-4.882A22.24,22.24,0,0,1,1467.253-637.363Z" fill="#08011c" opacity="0.29"/>
      <g id="Group_116692" data-name="Group 116692">
        <path id="Path_175758" data-name="Path 175758" d="M1380.061-561.918l-19.2,11.863a2.328,2.328,0,0,1-2.418.018l-25.7-15.35a1.191,1.191,0,0,1-.015-2.035l19.1-11.8a2.826,2.826,0,0,1,2.935-.022l25.275,15.1A1.3,1.3,0,0,1,1380.061-561.918Z" fill="url(#linear-gradient)"/>
        <path id="Path_175759" data-name="Path 175759" d="M1354.867-582.778l7.64-22.147a1.651,1.651,0,0,1,2.412-.874l25.309,15.123a2.214,2.214,0,0,1,.961,2.62l-7.584,21.985a1.476,1.476,0,0,1-2.155.781l-25.83-15.435A1.734,1.734,0,0,1,1354.867-582.778Z" fill="url(#linear-gradient)"/>
        <path id="Path_175760" data-name="Path 175760" d="M1380.061-563.149l-19.2,11.863a2.328,2.328,0,0,1-2.418.018l-25.7-15.35a1.191,1.191,0,0,1-.015-2.035l19.1-11.8a2.826,2.826,0,0,1,2.935-.022l25.275,15.1A1.3,1.3,0,0,1,1380.061-563.149Z" fill="url(#linear-gradient-54)"/>
        <path id="Path_175760_-_Outline" data-name="Path 175760 - Outline" d="M1359.642-550.813a2.453,2.453,0,0,1-1.258-.347l-25.7-15.35a1.307,1.307,0,0,1-.641-1.12,1.305,1.305,0,0,1,.624-1.128l19.1-11.8a2.945,2.945,0,0,1,1.551-.441,2.954,2.954,0,0,1,1.514.418l25.275,15.1a1.419,1.419,0,0,1,.7,1.217,1.418,1.418,0,0,1-.678,1.226l-19.2,11.863A2.449,2.449,0,0,1,1359.642-550.813Zm-6.323-29.939a2.7,2.7,0,0,0-1.419.4l-19.1,11.8a1.057,1.057,0,0,0-.505.914,1.058,1.058,0,0,0,.519.908l25.7,15.35a2.2,2.2,0,0,0,1.13.312,2.2,2.2,0,0,0,1.158-.329l19.2-11.863a1.17,1.17,0,0,0,.559-1.012,1.171,1.171,0,0,0-.575-1l-25.275-15.1A2.7,2.7,0,0,0,1353.319-580.752Z" fill="#0071bc"/>
        <path id="Path_175761" data-name="Path 175761" d="M1353.753-582.688l7.64-22.148a1.652,1.652,0,0,1,2.413-.873l25.308,15.122a2.214,2.214,0,0,1,.961,2.62l-7.584,21.986a1.474,1.474,0,0,1-2.154.78l-25.831-15.435A1.734,1.734,0,0,1,1353.753-582.688Z" fill="url(#linear-gradient-55)"/>
        <path id="Path_175761_-_Outline" data-name="Path 175761 - Outline" d="M1381.1-564.865a1.607,1.607,0,0,1-.824-.229l-25.831-15.435a1.865,1.865,0,0,1-.807-2.2l7.64-22.148a1.777,1.777,0,0,1,1.68-1.194,1.787,1.787,0,0,1,.916.254l25.308,15.122a2.347,2.347,0,0,1,1.015,2.768l-7.584,21.986A1.6,1.6,0,0,1,1381.1-564.865Zm-18.142-40.956a1.526,1.526,0,0,0-1.443,1.026l-7.64,22.148a1.614,1.614,0,0,0,.7,1.9l25.831,15.435a1.357,1.357,0,0,0,.7.194,1.349,1.349,0,0,0,1.276-.907l7.584-21.986a2.1,2.1,0,0,0-.907-2.472L1363.742-605.6A1.537,1.537,0,0,0,1362.954-605.821Z" fill="#0071bc"/>
        <g id="Group_116685" data-name="Group 116685">
          <path id="Path_175762" data-name="Path 175762" d="M1389.182-587.786l-7.135,20.691a1.33,1.33,0,0,1-.541.7,1.382,1.382,0,0,1-1.486.036l-24.308-14.521a1.643,1.643,0,0,1-.707-1.933l7.188-20.842a1.559,1.559,0,0,1,1.232-1.029h.005a1.545,1.545,0,0,1,1.034.208l23.814,14.23A2.082,2.082,0,0,1,1389.182-587.786Z" fill="url(#linear-gradient)"/>
          <g id="Group_116684" data-name="Group 116684" opacity="0.5">
            <g id="Group_116592" data-name="Group 116592">
              <path id="Path_175763" data-name="Path 175763" d="M1363.435-598.82l-.325-.19a.137.137,0,0,1-.062-.156.087.087,0,0,1,.133-.04l.324.189a.138.138,0,0,1,.063.156A.088.088,0,0,1,1363.435-598.82Z" fill="#fff"/>
            </g>
            <g id="Group_116593" data-name="Group 116593">
              <path id="Path_175764" data-name="Path 175764" d="M1366.125-597.245l-2.3-1.346a.136.136,0,0,1-.063-.155.087.087,0,0,1,.133-.041l2.3,1.346a.137.137,0,0,1,.062.156A.087.087,0,0,1,1366.125-597.245Z" fill="#fff"/>
            </g>
            <g id="Group_116594" data-name="Group 116594">
              <path id="Path_175765" data-name="Path 175765" d="M1368.6-595.792l-2.129-1.247a.136.136,0,0,1-.062-.156.087.087,0,0,1,.133-.04l2.129,1.246a.137.137,0,0,1,.062.156A.088.088,0,0,1,1368.6-595.792Z" fill="#fff"/>
            </g>
            <g id="Group_116595" data-name="Group 116595">
              <path id="Path_175766" data-name="Path 175766" d="M1370.937-594.426l-1.844-1.08a.135.135,0,0,1-.062-.155.087.087,0,0,1,.133-.041l1.844,1.08a.135.135,0,0,1,.062.155A.087.087,0,0,1,1370.937-594.426Z" fill="#fff"/>
            </g>
            <g id="Group_116596" data-name="Group 116596">
              <path id="Path_175767" data-name="Path 175767" d="M1373.228-593.084l-1.948-1.141a.137.137,0,0,1-.063-.155.087.087,0,0,1,.133-.041l1.948,1.141a.135.135,0,0,1,.063.155A.087.087,0,0,1,1373.228-593.084Z" fill="#fff"/>
            </g>
            <g id="Group_116597" data-name="Group 116597">
              <path id="Path_175768" data-name="Path 175768" d="M1375.419-591.8l-1.948-1.141a.136.136,0,0,1-.062-.156.087.087,0,0,1,.133-.04L1375.49-592a.136.136,0,0,1,.063.155A.088.088,0,0,1,1375.419-591.8Z" fill="#fff"/>
            </g>
            <g id="Group_116598" data-name="Group 116598">
              <path id="Path_175769" data-name="Path 175769" d="M1379.112-589.637l-3.35-1.962a.139.139,0,0,1-.063-.156.089.089,0,0,1,.134-.041l3.35,1.963a.135.135,0,0,1,.062.155A.087.087,0,0,1,1379.112-589.637Z" fill="#fff"/>
            </g>
            <g id="Group_116599" data-name="Group 116599">
              <path id="Path_175770" data-name="Path 175770" d="M1380.951-588.56l-1.609-.942a.136.136,0,0,1-.062-.156.088.088,0,0,1,.133-.041l1.608.943a.136.136,0,0,1,.063.155A.087.087,0,0,1,1380.951-588.56Z" fill="#fff"/>
            </g>
            <g id="Group_116600" data-name="Group 116600">
              <path id="Path_175771" data-name="Path 175771" d="M1365.3-596.75l-2.484-1.455a.137.137,0,0,1-.063-.155.087.087,0,0,1,.133-.041l2.484,1.455a.135.135,0,0,1,.063.155A.087.087,0,0,1,1365.3-596.75Z" fill="#fff"/>
            </g>
            <g id="Group_116601" data-name="Group 116601">
              <path id="Path_175772" data-name="Path 175772" d="M1368.313-594.987l-2.682-1.571a.138.138,0,0,1-.063-.156.088.088,0,0,1,.134-.04l2.682,1.571a.135.135,0,0,1,.062.155A.087.087,0,0,1,1368.313-594.987Z" fill="#fff"/>
            </g>
            <g id="Group_116602" data-name="Group 116602">
              <path id="Path_175773" data-name="Path 175773" d="M1371.046-593.386,1368.8-594.7a.135.135,0,0,1-.062-.155.087.087,0,0,1,.133-.041l2.244,1.315a.134.134,0,0,1,.062.155A.087.087,0,0,1,1371.046-593.386Z" fill="#fff"/>
            </g>
            <g id="Group_116603" data-name="Group 116603">
              <path id="Path_175774" data-name="Path 175774" d="M1373.11-592.177l-1.657-.971a.137.137,0,0,1-.063-.155.088.088,0,0,1,.134-.041l1.657.97a.137.137,0,0,1,.062.156A.088.088,0,0,1,1373.11-592.177Z" fill="#fff"/>
            </g>
            <g id="Group_116604" data-name="Group 116604">
              <path id="Path_175775" data-name="Path 175775" d="M1374.733-591.226l-1.39-.814a.136.136,0,0,1-.062-.156.088.088,0,0,1,.133-.041l1.39.814a.138.138,0,0,1,.063.156A.089.089,0,0,1,1374.733-591.226Z" fill="#fff"/>
            </g>
            <g id="Group_116605" data-name="Group 116605">
              <path id="Path_175776" data-name="Path 175776" d="M1378.189-589.2l-2.985-1.749a.137.137,0,0,1-.063-.155.088.088,0,0,1,.134-.041l2.985,1.749a.137.137,0,0,1,.063.155A.088.088,0,0,1,1378.189-589.2Z" fill="#fff"/>
            </g>
            <g id="Group_116606" data-name="Group 116606">
              <path id="Path_175777" data-name="Path 175777" d="M1380.084-588.092l-1.664-.975a.137.137,0,0,1-.063-.155.088.088,0,0,1,.134-.041l1.664.975a.135.135,0,0,1,.062.155A.087.087,0,0,1,1380.084-588.092Z" fill="#fff"/>
            </g>
            <g id="Group_116607" data-name="Group 116607">
              <path id="Path_175778" data-name="Path 175778" d="M1362.853-597.21l-.324-.19a.137.137,0,0,1-.063-.155.088.088,0,0,1,.134-.041l.324.19a.135.135,0,0,1,.062.155A.087.087,0,0,1,1362.853-597.21Z" fill="#fff"/>
            </g>
            <g id="Group_116608" data-name="Group 116608">
              <path id="Path_175779" data-name="Path 175779" d="M1365.543-595.634l-2.3-1.346a.138.138,0,0,1-.063-.156.089.089,0,0,1,.134-.041l2.3,1.347a.135.135,0,0,1,.062.155A.088.088,0,0,1,1365.543-595.634Z" fill="#fff"/>
            </g>
            <g id="Group_116609" data-name="Group 116609">
              <path id="Path_175780" data-name="Path 175780" d="M1368.022-594.182l-2.129-1.247a.135.135,0,0,1-.062-.155.086.086,0,0,1,.133-.041l2.129,1.247a.135.135,0,0,1,.062.155A.087.087,0,0,1,1368.022-594.182Z" fill="#fff"/>
            </g>
            <g id="Group_116610" data-name="Group 116610">
              <path id="Path_175781" data-name="Path 175781" d="M1370.355-592.815l-1.844-1.08a.137.137,0,0,1-.062-.156.088.088,0,0,1,.133-.041l1.844,1.08a.137.137,0,0,1,.062.156A.088.088,0,0,1,1370.355-592.815Z" fill="#fff"/>
            </g>
            <g id="Group_116611" data-name="Group 116611">
              <path id="Path_175782" data-name="Path 175782" d="M1374.682-590.281l-3.984-2.334a.137.137,0,0,1-.063-.155.088.088,0,0,1,.134-.041l3.984,2.334a.135.135,0,0,1,.062.155A.086.086,0,0,1,1374.682-590.281Z" fill="#fff"/>
            </g>
            <g id="Group_116612" data-name="Group 116612">
              <path id="Path_175783" data-name="Path 175783" d="M1362.562-596.405l-.324-.19a.136.136,0,0,1-.063-.155.088.088,0,0,1,.134-.041l.324.19a.135.135,0,0,1,.062.155A.087.087,0,0,1,1362.562-596.405Z" fill="#fff"/>
            </g>
            <g id="Group_116613" data-name="Group 116613">
              <path id="Path_175784" data-name="Path 175784" d="M1365.252-594.829l-2.3-1.346a.138.138,0,0,1-.063-.156.088.088,0,0,1,.134-.04l2.3,1.346a.135.135,0,0,1,.062.155A.087.087,0,0,1,1365.252-594.829Z" fill="#fff"/>
            </g>
            <g id="Group_116614" data-name="Group 116614">
              <path id="Path_175785" data-name="Path 175785" d="M1367.731-593.377l-2.129-1.247a.135.135,0,0,1-.062-.155.087.087,0,0,1,.133-.041l2.129,1.247a.135.135,0,0,1,.062.155A.087.087,0,0,1,1367.731-593.377Z" fill="#fff"/>
            </g>
            <g id="Group_116615" data-name="Group 116615">
              <path id="Path_175786" data-name="Path 175786" d="M1370.064-592.01l-1.844-1.08a.136.136,0,0,1-.062-.156.088.088,0,0,1,.133-.041l1.844,1.08a.136.136,0,0,1,.062.156A.088.088,0,0,1,1370.064-592.01Z" fill="#fff"/>
            </g>
            <g id="Group_116616" data-name="Group 116616">
              <path id="Path_175787" data-name="Path 175787" d="M1374.391-589.476l-3.984-2.333a.138.138,0,0,1-.063-.156.089.089,0,0,1,.134-.041l3.984,2.334a.136.136,0,0,1,.062.156A.087.087,0,0,1,1374.391-589.476Z" fill="#fff"/>
            </g>
            <g id="Group_116617" data-name="Group 116617">
              <path id="Path_175788" data-name="Path 175788" d="M1378.239-587.222l-3.35-1.962a.137.137,0,0,1-.063-.155.088.088,0,0,1,.134-.041l3.35,1.962a.136.136,0,0,1,.062.156A.087.087,0,0,1,1378.239-587.222Z" fill="#fff"/>
            </g>
            <g id="Group_116618" data-name="Group 116618">
              <path id="Path_175789" data-name="Path 175789" d="M1380.078-586.145l-1.609-.942a.135.135,0,0,1-.062-.155.087.087,0,0,1,.133-.041l1.609.942a.136.136,0,0,1,.062.156A.087.087,0,0,1,1380.078-586.145Z" fill="#fff"/>
            </g>
            <g id="Group_116619" data-name="Group 116619">
              <path id="Path_175790" data-name="Path 175790" d="M1365.256-593.851l-1.782-1.044a.135.135,0,0,1-.062-.155.087.087,0,0,1,.133-.041l1.782,1.044a.138.138,0,0,1,.063.156A.088.088,0,0,1,1365.256-593.851Z" fill="#fff"/>
            </g>
            <g id="Group_116620" data-name="Group 116620">
              <path id="Path_175791" data-name="Path 175791" d="M1368.02-592.232l-.385-.225a.137.137,0,0,1-.062-.156.088.088,0,0,1,.133-.041l.385.226a.135.135,0,0,1,.062.155A.087.087,0,0,1,1368.02-592.232Z" fill="#fff"/>
            </g>
            <g id="Group_116621" data-name="Group 116621">
              <path id="Path_175792" data-name="Path 175792" d="M1367.729-591.427l-.385-.225a.137.137,0,0,1-.062-.156.088.088,0,0,1,.133-.041l.385.226a.135.135,0,0,1,.062.155A.087.087,0,0,1,1367.729-591.427Z" fill="#fff"/>
            </g>
            <g id="Group_116622" data-name="Group 116622">
              <path id="Path_175793" data-name="Path 175793" d="M1367.438-590.622l-.385-.225a.136.136,0,0,1-.062-.156.087.087,0,0,1,.133-.04l.385.225a.136.136,0,0,1,.062.156A.087.087,0,0,1,1367.438-590.622Z" fill="#fff"/>
            </g>
            <g id="Group_116623" data-name="Group 116623">
              <path id="Path_175794" data-name="Path 175794" d="M1367.147-589.816l-.385-.226a.135.135,0,0,1-.062-.155.087.087,0,0,1,.133-.041l.385.225a.136.136,0,0,1,.062.156A.088.088,0,0,1,1367.147-589.816Z" fill="#fff"/>
            </g>
            <g id="Group_116624" data-name="Group 116624">
              <path id="Path_175795" data-name="Path 175795" d="M1366.856-589.011l-.385-.226a.135.135,0,0,1-.062-.155.087.087,0,0,1,.133-.041l.385.225a.138.138,0,0,1,.063.156A.089.089,0,0,1,1366.856-589.011Z" fill="#fff"/>
            </g>
            <g id="Group_116625" data-name="Group 116625">
              <path id="Path_175796" data-name="Path 175796" d="M1366.565-588.206l-.385-.226a.135.135,0,0,1-.062-.155.087.087,0,0,1,.133-.041l.385.226a.136.136,0,0,1,.063.155A.088.088,0,0,1,1366.565-588.206Z" fill="#fff"/>
            </g>
            <g id="Group_116626" data-name="Group 116626">
              <path id="Path_175797" data-name="Path 175797" d="M1366.274-587.4l-.385-.225a.136.136,0,0,1-.062-.156.088.088,0,0,1,.133-.041l.385.226a.136.136,0,0,1,.063.155A.088.088,0,0,1,1366.274-587.4Z" fill="#fff"/>
            </g>
            <g id="Group_116627" data-name="Group 116627">
              <path id="Path_175798" data-name="Path 175798" d="M1371.533-590.174l-3.241-1.9a.138.138,0,0,1-.062-.156.088.088,0,0,1,.133-.041l3.241,1.9a.137.137,0,0,1,.063.155A.088.088,0,0,1,1371.533-590.174Z" fill="#fff"/>
            </g>
            <g id="Group_116628" data-name="Group 116628">
              <path id="Path_175799" data-name="Path 175799" d="M1374.657-588.344l-2.738-1.6a.135.135,0,0,1-.062-.155.086.086,0,0,1,.133-.041l2.737,1.6a.138.138,0,0,1,.063.156A.088.088,0,0,1,1374.657-588.344Z" fill="#fff"/>
            </g>
            <g id="Group_116629" data-name="Group 116629">
              <path id="Path_175800" data-name="Path 175800" d="M1378.643-586.01l-3.663-2.145a.135.135,0,0,1-.062-.155.087.087,0,0,1,.133-.041l3.662,2.145a.137.137,0,0,1,.063.156A.087.087,0,0,1,1378.643-586.01Z" fill="#fff"/>
            </g>
            <g id="Group_116630" data-name="Group 116630">
              <path id="Path_175801" data-name="Path 175801" d="M1384.591-582.525l-5.38-3.151a.136.136,0,0,1-.062-.156.088.088,0,0,1,.133-.041l5.38,3.151a.137.137,0,0,1,.062.156A.088.088,0,0,1,1384.591-582.525Z" fill="#fff"/>
            </g>
            <g id="Group_116631" data-name="Group 116631">
              <path id="Path_175802" data-name="Path 175802" d="M1368.74-590.835l-.738-.432a.138.138,0,0,1-.063-.156.088.088,0,0,1,.134-.04l.738.432a.135.135,0,0,1,.062.155A.087.087,0,0,1,1368.74-590.835Z" fill="#fff"/>
            </g>
            <g id="Group_116632" data-name="Group 116632">
              <path id="Path_175803" data-name="Path 175803" d="M1368.449-590.03l-.738-.432a.137.137,0,0,1-.063-.155.088.088,0,0,1,.134-.041l.738.432a.136.136,0,0,1,.062.156A.087.087,0,0,1,1368.449-590.03Z" fill="#fff"/>
            </g>
            <g id="Group_116633" data-name="Group 116633">
              <path id="Path_175804" data-name="Path 175804" d="M1368.158-589.224l-.738-.433a.136.136,0,0,1-.063-.155.088.088,0,0,1,.134-.041l.738.432a.137.137,0,0,1,.062.156A.088.088,0,0,1,1368.158-589.224Z" fill="#fff"/>
            </g>
            <g id="Group_116634" data-name="Group 116634">
              <path id="Path_175805" data-name="Path 175805" d="M1370.211-588.022l-1.821-1.066a.137.137,0,0,1-.062-.156.088.088,0,0,1,.133-.041l1.821,1.067a.135.135,0,0,1,.062.155A.087.087,0,0,1,1370.211-588.022Z" fill="#fff"/>
            </g>
            <g id="Group_116635" data-name="Group 116635">
              <path id="Path_175806" data-name="Path 175806" d="M1372.982-586.4l-1.821-1.066a.136.136,0,0,1-.062-.156.087.087,0,0,1,.133-.04l1.821,1.066a.135.135,0,0,1,.062.155A.087.087,0,0,1,1372.982-586.4Z" fill="#fff"/>
            </g>
            <g id="Group_116636" data-name="Group 116636">
              <path id="Path_175807" data-name="Path 175807" d="M1367.867-588.419l-.738-.433a.136.136,0,0,1-.063-.155.088.088,0,0,1,.134-.041l.738.432a.137.137,0,0,1,.062.156A.088.088,0,0,1,1367.867-588.419Z" fill="#fff"/>
            </g>
            <g id="Group_116637" data-name="Group 116637">
              <path id="Path_175808" data-name="Path 175808" d="M1369.972-587.186l-1.873-1.1a.136.136,0,0,1-.062-.156.087.087,0,0,1,.133-.04l1.873,1.1a.135.135,0,0,1,.062.155A.087.087,0,0,1,1369.972-587.186Z" fill="#fff"/>
            </g>
            <g id="Group_116638" data-name="Group 116638">
              <path id="Path_175809" data-name="Path 175809" d="M1372.936-585.45l-1.873-1.1a.135.135,0,0,1-.062-.155.087.087,0,0,1,.133-.041l1.873,1.1a.137.137,0,0,1,.063.155A.088.088,0,0,1,1372.936-585.45Z" fill="#fff"/>
            </g>
            <g id="Group_116639" data-name="Group 116639">
              <path id="Path_175810" data-name="Path 175810" d="M1370.987-589.519l-2.015-1.18a.135.135,0,0,1-.062-.155.087.087,0,0,1,.133-.041l2.015,1.18a.136.136,0,0,1,.062.156A.087.087,0,0,1,1370.987-589.519Z" fill="#fff"/>
            </g>
            <g id="Group_116640" data-name="Group 116640">
              <path id="Path_175811" data-name="Path 175811" d="M1370.5-588.827l-1.767-1.035a.138.138,0,0,1-.063-.156.088.088,0,0,1,.134-.04l1.767,1.035a.135.135,0,0,1,.062.155A.087.087,0,0,1,1370.5-588.827Z" fill="#fff"/>
            </g>
            <g id="Group_116641" data-name="Group 116641">
              <path id="Path_175812" data-name="Path 175812" d="M1371.2-588.42l-.431-.253a.135.135,0,0,1-.062-.155.087.087,0,0,1,.133-.041l.431.252a.136.136,0,0,1,.062.156A.088.088,0,0,1,1371.2-588.42Z" fill="#fff"/>
            </g>
            <g id="Group_116642" data-name="Group 116642">
              <path id="Path_175813" data-name="Path 175813" d="M1370.905-587.615l-.431-.252a.137.137,0,0,1-.062-.156.088.088,0,0,1,.133-.041l.431.252a.136.136,0,0,1,.062.156A.088.088,0,0,1,1370.905-587.615Z" fill="#fff"/>
            </g>
            <g id="Group_116643" data-name="Group 116643">
              <path id="Path_175814" data-name="Path 175814" d="M1370.614-586.81l-.431-.252a.137.137,0,0,1-.062-.156.088.088,0,0,1,.133-.041l.431.253a.135.135,0,0,1,.062.155A.087.087,0,0,1,1370.614-586.81Z" fill="#fff"/>
            </g>
            <g id="Group_116644" data-name="Group 116644">
              <path id="Path_175815" data-name="Path 175815" d="M1375.011-586.186l-3.559-2.084a.136.136,0,0,1-.062-.156.088.088,0,0,1,.133-.041l3.559,2.085a.135.135,0,0,1,.062.155A.087.087,0,0,1,1375.011-586.186Z" fill="#fff"/>
            </g>
            <g id="Group_116645" data-name="Group 116645">
              <path id="Path_175816" data-name="Path 175816" d="M1368.508-587.068l-1.67-.978a.138.138,0,0,1-.063-.156.089.089,0,0,1,.134-.041l1.67.978a.136.136,0,0,1,.062.156A.088.088,0,0,1,1368.508-587.068Z" fill="#fff"/>
            </g>
            <g id="Group_116646" data-name="Group 116646">
              <path id="Path_175817" data-name="Path 175817" d="M1372.743-584.587l-3.9-2.283a.136.136,0,0,1-.062-.156.087.087,0,0,1,.133-.04l3.9,2.282a.138.138,0,0,1,.063.156A.089.089,0,0,1,1372.743-584.587Z" fill="#fff"/>
            </g>
            <g id="Group_116647" data-name="Group 116647">
              <path id="Path_175818" data-name="Path 175818" d="M1379.218-580.795l-6.044-3.54a.135.135,0,0,1-.062-.155.087.087,0,0,1,.133-.041l6.044,3.54a.136.136,0,0,1,.062.156A.087.087,0,0,1,1379.218-580.795Z" fill="#fff"/>
            </g>
            <g id="Group_116648" data-name="Group 116648">
              <path id="Path_175819" data-name="Path 175819" d="M1367.285-586.809l-.738-.432a.138.138,0,0,1-.063-.156.089.089,0,0,1,.134-.041l.738.433a.135.135,0,0,1,.062.155A.087.087,0,0,1,1367.285-586.809Z" fill="#fff"/>
            </g>
            <g id="Group_116649" data-name="Group 116649">
              <path id="Path_175820" data-name="Path 175820" d="M1371.418-584.388l-3.992-2.338a.138.138,0,0,1-.063-.156.089.089,0,0,1,.134-.041l3.992,2.339a.135.135,0,0,1,.062.155A.087.087,0,0,1,1371.418-584.388Z" fill="#fff"/>
            </g>
            <g id="Group_116650" data-name="Group 116650">
              <path id="Path_175821" data-name="Path 175821" d="M1365.481-592.743l-2.3-1.346a.137.137,0,0,1-.062-.156.088.088,0,0,1,.133-.041l2.3,1.346a.138.138,0,0,1,.063.156A.089.089,0,0,1,1365.481-592.743Z" fill="#fff"/>
            </g>
            <g id="Group_116651" data-name="Group 116651">
              <path id="Path_175822" data-name="Path 175822" d="M1366.729-591.037l-3.837-2.247a.137.137,0,0,1-.062-.156.088.088,0,0,1,.133-.041l3.837,2.248a.137.137,0,0,1,.063.155A.088.088,0,0,1,1366.729-591.037Z" fill="#fff"/>
            </g>
            <g id="Group_116652" data-name="Group 116652">
              <path id="Path_175823" data-name="Path 175823" d="M1365.072-591.032l-2.47-1.447a.137.137,0,0,1-.063-.156.087.087,0,0,1,.133-.04l2.471,1.447a.135.135,0,0,1,.062.155A.087.087,0,0,1,1365.072-591.032Z" fill="#fff"/>
            </g>
            <g id="Group_116653" data-name="Group 116653">
              <path id="Path_175824" data-name="Path 175824" d="M1365.367-589.884l-3.056-1.79a.137.137,0,0,1-.063-.155.087.087,0,0,1,.134-.041l3.056,1.79a.136.136,0,0,1,.062.155A.087.087,0,0,1,1365.367-589.884Z" fill="#fff"/>
            </g>
            <g id="Group_116654" data-name="Group 116654">
              <path id="Path_175825" data-name="Path 175825" d="M1365.846-588.627l-3.826-2.242a.136.136,0,0,1-.063-.155.088.088,0,0,1,.134-.041l3.826,2.241a.136.136,0,0,1,.062.156A.088.088,0,0,1,1365.846-588.627Z" fill="#fff"/>
            </g>
            <g id="Group_116655" data-name="Group 116655">
              <path id="Path_175826" data-name="Path 175826" d="M1364.027-588.718l-2.3-1.346a.136.136,0,0,1-.063-.155.088.088,0,0,1,.134-.041l2.3,1.346a.136.136,0,0,1,.062.156A.087.087,0,0,1,1364.027-588.718Z" fill="#fff"/>
            </g>
            <g id="Group_116656" data-name="Group 116656">
              <path id="Path_175827" data-name="Path 175827" d="M1360.746-588.879l-1.07-.626a.136.136,0,0,1-.062-.156.088.088,0,0,1,.133-.041l1.07.627a.138.138,0,0,1,.063.156A.088.088,0,0,1,1360.746-588.879Z" fill="#fff"/>
            </g>
            <g id="Group_116657" data-name="Group 116657">
              <path id="Path_175828" data-name="Path 175828" d="M1363.247-587.414l-2.321-1.359a.135.135,0,0,1-.062-.155.087.087,0,0,1,.133-.041l2.321,1.359a.138.138,0,0,1,.063.156A.088.088,0,0,1,1363.247-587.414Z" fill="#fff"/>
            </g>
            <g id="Group_116658" data-name="Group 116658">
              <path id="Path_175829" data-name="Path 175829" d="M1364.448-586.71l-.946-.555a.137.137,0,0,1-.063-.155.089.089,0,0,1,.134-.041l.946.555a.137.137,0,0,1,.063.155A.088.088,0,0,1,1364.448-586.71Z" fill="#fff"/>
            </g>
            <g id="Group_116659" data-name="Group 116659">
              <path id="Path_175830" data-name="Path 175830" d="M1367.369-585l-2.673-1.566a.135.135,0,0,1-.062-.155.086.086,0,0,1,.133-.041l2.673,1.565a.136.136,0,0,1,.062.156A.088.088,0,0,1,1367.369-585Z" fill="#fff"/>
            </g>
            <g id="Group_116660" data-name="Group 116660">
              <path id="Path_175831" data-name="Path 175831" d="M1360.064-587.328l-.97-.568a.135.135,0,0,1-.062-.155.087.087,0,0,1,.133-.041l.97.568a.135.135,0,0,1,.062.155A.087.087,0,0,1,1360.064-587.328Z" fill="#fff"/>
            </g>
            <g id="Group_116661" data-name="Group 116661">
              <path id="Path_175832" data-name="Path 175832" d="M1362.98-585.62l-2.687-1.574a.137.137,0,0,1-.063-.155.087.087,0,0,1,.133-.041l2.688,1.574a.135.135,0,0,1,.062.155A.087.087,0,0,1,1362.98-585.62Z" fill="#fff"/>
            </g>
            <g id="Group_116662" data-name="Group 116662">
              <path id="Path_175833" data-name="Path 175833" d="M1365.28-584.272l-1.969-1.154a.138.138,0,0,1-.063-.156.087.087,0,0,1,.133-.04l1.97,1.153a.136.136,0,0,1,.062.156A.088.088,0,0,1,1365.28-584.272Z" fill="#fff"/>
            </g>
            <g id="Group_116663" data-name="Group 116663">
              <path id="Path_175834" data-name="Path 175834" d="M1366.891-583.329l-1.269-.743a.136.136,0,0,1-.062-.156.087.087,0,0,1,.133-.04l1.269.743a.135.135,0,0,1,.062.155A.087.087,0,0,1,1366.891-583.329Z" fill="#fff"/>
            </g>
            <g id="Group_116664" data-name="Group 116664">
              <path id="Path_175835" data-name="Path 175835" d="M1359.556-586.674l-.324-.19a.135.135,0,0,1-.062-.155.087.087,0,0,1,.133-.041l.324.19a.135.135,0,0,1,.062.155A.087.087,0,0,1,1359.556-586.674Z" fill="#fff"/>
            </g>
            <g id="Group_116665" data-name="Group 116665">
              <path id="Path_175836" data-name="Path 175836" d="M1363.592-584.31l-3.776-2.211a.136.136,0,0,1-.062-.156.088.088,0,0,1,.133-.041l3.776,2.212a.138.138,0,0,1,.063.156A.088.088,0,0,1,1363.592-584.31Z" fill="#fff"/>
            </g>
            <g id="Group_116666" data-name="Group 116666">
              <path id="Path_175837" data-name="Path 175837" d="M1364.524-583.764l-.67-.392a.138.138,0,0,1-.063-.156.089.089,0,0,1,.134-.041l.67.393a.135.135,0,0,1,.062.155A.087.087,0,0,1,1364.524-583.764Z" fill="#fff"/>
            </g>
            <g id="Group_116667" data-name="Group 116667">
              <path id="Path_175838" data-name="Path 175838" d="M1361.069-584.836l-2.121-1.242a.137.137,0,0,1-.062-.156.088.088,0,0,1,.133-.041l2.121,1.242a.136.136,0,0,1,.062.156A.088.088,0,0,1,1361.069-584.836Z" fill="#fff"/>
            </g>
            <g id="Group_116668" data-name="Group 116668">
              <path id="Path_175839" data-name="Path 175839" d="M1363.473-583.428l-2.121-1.242a.136.136,0,0,1-.062-.156.088.088,0,0,1,.133-.041l2.121,1.242a.136.136,0,0,1,.062.156A.088.088,0,0,1,1363.473-583.428Z" fill="#fff"/>
            </g>
            <g id="Group_116669" data-name="Group 116669">
              <path id="Path_175840" data-name="Path 175840" d="M1359.941-584.545l-1.276-.748a.138.138,0,0,1-.063-.156.089.089,0,0,1,.134-.041l1.276.748a.138.138,0,0,1,.063.156A.089.089,0,0,1,1359.941-584.545Z" fill="#fff"/>
            </g>
            <g id="Group_116670" data-name="Group 116670">
              <path id="Path_175841" data-name="Path 175841" d="M1361.48-583.644l-1.277-.748a.138.138,0,0,1-.063-.156.089.089,0,0,1,.134-.041l1.276.748a.139.139,0,0,1,.063.156A.088.088,0,0,1,1361.48-583.644Z" fill="#fff"/>
            </g>
            <g id="Group_116671" data-name="Group 116671">
              <path id="Path_175842" data-name="Path 175842" d="M1364.018-582.157l-.532-.312a.139.139,0,0,1-.063-.156.089.089,0,0,1,.134-.041l.532.312a.136.136,0,0,1,.062.156A.088.088,0,0,1,1364.018-582.157Z" fill="#fff"/>
            </g>
            <g id="Group_116672" data-name="Group 116672">
              <path id="Path_175843" data-name="Path 175843" d="M1363.734-581.372l-.532-.312a.138.138,0,0,1-.063-.156.088.088,0,0,1,.134-.04l.532.311a.139.139,0,0,1,.063.156A.089.089,0,0,1,1363.734-581.372Z" fill="#fff"/>
            </g>
            <g id="Group_116673" data-name="Group 116673">
              <path id="Path_175844" data-name="Path 175844" d="M1365.241-581.441l-.918-.538a.137.137,0,0,1-.063-.155.088.088,0,0,1,.134-.041l.918.538a.135.135,0,0,1,.062.155A.087.087,0,0,1,1365.241-581.441Z" fill="#fff"/>
            </g>
            <g id="Group_116674" data-name="Group 116674">
              <path id="Path_175845" data-name="Path 175845" d="M1368.017-579.815l-2.436-1.427a.138.138,0,0,1-.063-.156.088.088,0,0,1,.133-.041l2.437,1.428a.135.135,0,0,1,.062.155A.087.087,0,0,1,1368.017-579.815Z" fill="#fff"/>
            </g>
            <g id="Group_116675" data-name="Group 116675">
              <path id="Path_175846" data-name="Path 175846" d="M1371.027-578.052l-2.437-1.427a.137.137,0,0,1-.062-.156.088.088,0,0,1,.133-.041l2.437,1.428a.135.135,0,0,1,.062.155A.087.087,0,0,1,1371.027-578.052Z" fill="#fff"/>
            </g>
            <g id="Group_116676" data-name="Group 116676">
              <path id="Path_175847" data-name="Path 175847" d="M1374.05-576.281l-2.436-1.427a.137.137,0,0,1-.063-.156.088.088,0,0,1,.133-.041l2.437,1.428a.135.135,0,0,1,.062.155A.087.087,0,0,1,1374.05-576.281Z" fill="#fff"/>
            </g>
            <g id="Group_116677" data-name="Group 116677">
              <path id="Path_175848" data-name="Path 175848" d="M1365.3-580.457l-1.258-.737a.135.135,0,0,1-.062-.155.087.087,0,0,1,.133-.041l1.258.737a.135.135,0,0,1,.062.155A.087.087,0,0,1,1365.3-580.457Z" fill="#fff"/>
            </g>
            <g id="Group_116678" data-name="Group 116678">
              <path id="Path_175849" data-name="Path 175849" d="M1366.515-579.743l-.978-.573a.137.137,0,0,1-.062-.156.088.088,0,0,1,.133-.041l.978.573a.136.136,0,0,1,.062.156A.088.088,0,0,1,1366.515-579.743Z" fill="#fff"/>
            </g>
            <g id="Group_116679" data-name="Group 116679">
              <path id="Path_175850" data-name="Path 175850" d="M1368.984-578.3l-2.018-1.182a.136.136,0,0,1-.062-.156.087.087,0,0,1,.133-.04l2.018,1.181a.136.136,0,0,1,.062.156A.088.088,0,0,1,1368.984-578.3Z" fill="#fff"/>
            </g>
            <g id="Group_116680" data-name="Group 116680">
              <path id="Path_175851" data-name="Path 175851" d="M1371.412-576.875l-2.017-1.182a.136.136,0,0,1-.063-.155.088.088,0,0,1,.134-.041l2.017,1.182a.137.137,0,0,1,.063.155A.088.088,0,0,1,1371.412-576.875Z" fill="#fff"/>
            </g>
            <g id="Group_116681" data-name="Group 116681">
              <path id="Path_175852" data-name="Path 175852" d="M1373.859-575.442l-2.018-1.182a.137.137,0,0,1-.063-.155.088.088,0,0,1,.134-.041l2.018,1.182a.136.136,0,0,1,.062.155A.087.087,0,0,1,1373.859-575.442Z" fill="#fff"/>
            </g>
            <g id="Group_116682" data-name="Group 116682">
              <path id="Path_175853" data-name="Path 175853" d="M1376.662-573.8l-2.018-1.182a.135.135,0,0,1-.062-.155.087.087,0,0,1,.133-.041l2.018,1.182a.136.136,0,0,1,.062.156A.087.087,0,0,1,1376.662-573.8Z" fill="#fff"/>
            </g>
            <g id="Group_116683" data-name="Group 116683">
              <path id="Path_175854" data-name="Path 175854" d="M1362.963-581.824l-2.546-1.492a.137.137,0,0,1-.063-.155.088.088,0,0,1,.134-.041l2.546,1.492a.135.135,0,0,1,.062.155A.087.087,0,0,1,1362.963-581.824Z" fill="#fff"/>
            </g>
          </g>
        </g>
        <g id="Group_116691" data-name="Group 116691" opacity="0.1">
          <g id="Group_116686" data-name="Group 116686">
            <path id="Path_175855" data-name="Path 175855" d="M1357.06-576.693l-1.119.692a.135.135,0,0,1-.141,0l-1.5-.9a.07.07,0,0,1,0-.119l1.114-.688a.164.164,0,0,1,.171,0l1.474.881A.076.076,0,0,1,1357.06-576.693Z" fill="#08011c"/>
            <path id="Path_175856" data-name="Path 175856" d="M1359.08-575.434l-1.119.692a.135.135,0,0,1-.141,0l-1.5-.895a.07.07,0,0,1,0-.119l1.114-.688a.164.164,0,0,1,.171,0l1.474.88A.076.076,0,0,1,1359.08-575.434Z" fill="#08011c"/>
            <path id="Path_175857" data-name="Path 175857" d="M1361.1-574.174l-1.12.692a.137.137,0,0,1-.141,0l-1.5-.9a.069.069,0,0,1,0-.118l1.114-.689a.167.167,0,0,1,.171,0l1.475.881A.076.076,0,0,1,1361.1-574.174Z" fill="#08011c"/>
            <path id="Path_175858" data-name="Path 175858" d="M1363.121-572.915l-1.12.692a.135.135,0,0,1-.141,0l-1.5-.9a.069.069,0,0,1,0-.119l1.113-.688a.164.164,0,0,1,.172,0l1.474.88A.076.076,0,0,1,1363.121-572.915Z" fill="#08011c"/>
            <path id="Path_175859" data-name="Path 175859" d="M1365.141-571.655l-1.12.691a.135.135,0,0,1-.141,0l-1.5-.895a.069.069,0,0,1,0-.118l1.114-.689a.164.164,0,0,1,.171,0l1.474.881A.076.076,0,0,1,1365.141-571.655Z" fill="#08011c"/>
            <path id="Path_175860" data-name="Path 175860" d="M1367.161-570.4l-1.119.692a.137.137,0,0,1-.141,0l-1.5-.9a.07.07,0,0,1,0-.119l1.114-.688a.164.164,0,0,1,.171,0l1.474.881A.076.076,0,0,1,1367.161-570.4Z" fill="#08011c"/>
            <path id="Path_175861" data-name="Path 175861" d="M1369.181-569.137l-1.119.692a.135.135,0,0,1-.141,0l-1.5-.9a.07.07,0,0,1,0-.119l1.114-.688a.164.164,0,0,1,.171,0l1.474.88A.076.076,0,0,1,1369.181-569.137Z" fill="#08011c"/>
            <path id="Path_175862" data-name="Path 175862" d="M1371.2-567.877l-1.119.692a.137.137,0,0,1-.141,0l-1.5-.9a.069.069,0,0,1,0-.118l1.114-.689a.164.164,0,0,1,.171,0l1.474.881A.076.076,0,0,1,1371.2-567.877Z" fill="#08011c"/>
            <path id="Path_175863" data-name="Path 175863" d="M1373.222-566.618l-1.12.692a.135.135,0,0,1-.141,0l-1.5-.9a.07.07,0,0,1,0-.119l1.114-.688a.165.165,0,0,1,.171,0l1.475.881A.076.076,0,0,1,1373.222-566.618Z" fill="#08011c"/>
            <path id="Path_175864" data-name="Path 175864" d="M1375.242-565.359l-1.12.692a.135.135,0,0,1-.141,0l-1.5-.895a.069.069,0,0,1,0-.119l1.113-.688a.166.166,0,0,1,.172,0l1.474.88A.076.076,0,0,1,1375.242-565.359Z" fill="#08011c"/>
          </g>
          <g id="Group_116687" data-name="Group 116687">
            <path id="Path_175865" data-name="Path 175865" d="M1354.636-575.19l-1.12.692a.137.137,0,0,1-.141,0l-1.5-.9a.069.069,0,0,1,0-.118l1.113-.689a.167.167,0,0,1,.171,0l1.475.881A.076.076,0,0,1,1354.636-575.19Z" fill="#08011c"/>
            <path id="Path_175866" data-name="Path 175866" d="M1356.656-573.931l-1.12.692a.135.135,0,0,1-.141,0l-1.5-.9a.069.069,0,0,1,0-.119l1.113-.688a.166.166,0,0,1,.172,0l1.474.88A.076.076,0,0,1,1356.656-573.931Z" fill="#08011c"/>
            <path id="Path_175867" data-name="Path 175867" d="M1358.676-572.671l-1.12.691a.135.135,0,0,1-.141,0l-1.5-.9a.069.069,0,0,1,0-.118l1.114-.689a.164.164,0,0,1,.171,0l1.474.881A.076.076,0,0,1,1358.676-572.671Z" fill="#08011c"/>
            <path id="Path_175868" data-name="Path 175868" d="M1360.7-571.412l-1.119.692a.137.137,0,0,1-.141,0l-1.5-.9a.07.07,0,0,1,0-.119l1.114-.688a.164.164,0,0,1,.171,0l1.474.881A.076.076,0,0,1,1360.7-571.412Z" fill="#08011c"/>
            <path id="Path_175869" data-name="Path 175869" d="M1362.716-570.153l-1.119.692a.135.135,0,0,1-.141,0l-1.5-.895a.07.07,0,0,1,0-.119l1.114-.688a.164.164,0,0,1,.171,0l1.474.88A.076.076,0,0,1,1362.716-570.153Z" fill="#08011c"/>
            <path id="Path_175870" data-name="Path 175870" d="M1364.736-568.893l-1.119.692a.137.137,0,0,1-.141,0l-1.5-.9a.069.069,0,0,1,0-.118l1.114-.689a.164.164,0,0,1,.171,0l1.474.881A.076.076,0,0,1,1364.736-568.893Z" fill="#08011c"/>
            <path id="Path_175871" data-name="Path 175871" d="M1366.757-567.634l-1.12.692a.135.135,0,0,1-.141,0l-1.5-.9a.07.07,0,0,1,0-.119l1.113-.688a.164.164,0,0,1,.171,0l1.475.881A.076.076,0,0,1,1366.757-567.634Z" fill="#08011c"/>
            <path id="Path_175872" data-name="Path 175872" d="M1368.777-566.375l-1.12.692a.135.135,0,0,1-.141,0l-1.5-.9a.069.069,0,0,1,0-.119l1.113-.688a.166.166,0,0,1,.172,0l1.474.88A.076.076,0,0,1,1368.777-566.375Z" fill="#08011c"/>
            <path id="Path_175873" data-name="Path 175873" d="M1370.8-565.115l-1.12.692a.137.137,0,0,1-.141,0l-1.5-.9a.069.069,0,0,1,0-.118l1.114-.689a.167.167,0,0,1,.171,0l1.474.881A.076.076,0,0,1,1370.8-565.115Z" fill="#08011c"/>
            <path id="Path_175874" data-name="Path 175874" d="M1372.817-563.856l-1.119.692a.135.135,0,0,1-.141,0l-1.5-.895a.07.07,0,0,1,0-.119l1.114-.688a.162.162,0,0,1,.171,0l1.474.88A.076.076,0,0,1,1372.817-563.856Z" fill="#08011c"/>
          </g>
          <g id="Group_116688" data-name="Group 116688">
            <path id="Path_175875" data-name="Path 175875" d="M1352.211-573.687l-1.119.691a.137.137,0,0,1-.142,0l-1.5-.9a.069.069,0,0,1,0-.118l1.114-.689a.164.164,0,0,1,.171,0l1.474.881A.076.076,0,0,1,1352.211-573.687Z" fill="#08011c"/>
            <path id="Path_175876" data-name="Path 175876" d="M1354.231-572.428l-1.119.692a.137.137,0,0,1-.141,0l-1.5-.9a.07.07,0,0,1,0-.119l1.114-.688a.165.165,0,0,1,.171,0l1.474.881A.076.076,0,0,1,1354.231-572.428Z" fill="#08011c"/>
            <path id="Path_175877" data-name="Path 175877" d="M1356.251-571.169l-1.119.692a.135.135,0,0,1-.141,0l-1.5-.895a.07.07,0,0,1,0-.119l1.114-.688a.164.164,0,0,1,.171,0l1.474.88A.076.076,0,0,1,1356.251-571.169Z" fill="#08011c"/>
            <path id="Path_175878" data-name="Path 175878" d="M1358.271-569.909l-1.119.692a.137.137,0,0,1-.141,0l-1.5-.9a.069.069,0,0,1,0-.118l1.114-.689a.164.164,0,0,1,.171,0l1.475.881A.076.076,0,0,1,1358.271-569.909Z" fill="#08011c"/>
            <path id="Path_175879" data-name="Path 175879" d="M1360.292-568.65l-1.12.692a.135.135,0,0,1-.141,0l-1.5-.9a.069.069,0,0,1,0-.119l1.113-.688a.166.166,0,0,1,.172,0l1.474.881A.076.076,0,0,1,1360.292-568.65Z" fill="#08011c"/>
            <path id="Path_175880" data-name="Path 175880" d="M1362.312-567.391l-1.12.692a.135.135,0,0,1-.141,0l-1.5-.9a.069.069,0,0,1,0-.119l1.114-.688a.164.164,0,0,1,.171,0l1.474.88A.076.076,0,0,1,1362.312-567.391Z" fill="#08011c"/>
            <path id="Path_175881" data-name="Path 175881" d="M1364.332-566.131l-1.12.692a.137.137,0,0,1-.141,0l-1.5-.9a.069.069,0,0,1,0-.118l1.114-.689a.167.167,0,0,1,.171,0l1.474.881A.076.076,0,0,1,1364.332-566.131Z" fill="#08011c"/>
            <path id="Path_175882" data-name="Path 175882" d="M1366.352-564.872l-1.119.692a.135.135,0,0,1-.141,0l-1.5-.895a.07.07,0,0,1,0-.119l1.114-.688a.162.162,0,0,1,.171,0l1.474.88A.076.076,0,0,1,1366.352-564.872Z" fill="#08011c"/>
            <path id="Path_175883" data-name="Path 175883" d="M1368.372-563.612l-1.119.691a.135.135,0,0,1-.141,0l-1.5-.9a.07.07,0,0,1,0-.119l1.114-.688a.164.164,0,0,1,.171,0l1.474.881A.076.076,0,0,1,1368.372-563.612Z" fill="#08011c"/>
            <path id="Path_175884" data-name="Path 175884" d="M1370.392-562.353l-1.119.692a.137.137,0,0,1-.141,0l-1.5-.9a.07.07,0,0,1,0-.119l1.114-.688a.164.164,0,0,1,.171,0l1.475.881A.076.076,0,0,1,1370.392-562.353Z" fill="#08011c"/>
          </g>
          <g id="Group_116689" data-name="Group 116689">
            <path id="Path_175885" data-name="Path 175885" d="M1349.786-572.185l-1.119.692a.135.135,0,0,1-.141,0l-1.5-.9a.07.07,0,0,1,0-.119l1.114-.688a.164.164,0,0,1,.171,0l1.474.88A.076.076,0,0,1,1349.786-572.185Z" fill="#08011c"/>
            <path id="Path_175886" data-name="Path 175886" d="M1351.807-570.925l-1.12.692a.137.137,0,0,1-.141,0l-1.5-.9a.069.069,0,0,1,0-.118l1.114-.689a.167.167,0,0,1,.171,0l1.475.881A.076.076,0,0,1,1351.807-570.925Z" fill="#08011c"/>
            <path id="Path_175887" data-name="Path 175887" d="M1353.827-569.666l-1.12.692a.135.135,0,0,1-.141,0l-1.5-.895a.069.069,0,0,1,0-.119l1.113-.688a.166.166,0,0,1,.172,0l1.474.881A.076.076,0,0,1,1353.827-569.666Z" fill="#08011c"/>
            <path id="Path_175888" data-name="Path 175888" d="M1355.847-568.407l-1.12.692a.135.135,0,0,1-.141,0l-1.5-.9a.07.07,0,0,1,0-.119l1.114-.688a.164.164,0,0,1,.171,0l1.474.88A.076.076,0,0,1,1355.847-568.407Z" fill="#08011c"/>
            <path id="Path_175889" data-name="Path 175889" d="M1357.867-567.147l-1.119.692a.137.137,0,0,1-.141,0l-1.5-.9a.069.069,0,0,1,0-.118l1.114-.689a.166.166,0,0,1,.171,0l1.474.881A.076.076,0,0,1,1357.867-567.147Z" fill="#08011c"/>
            <path id="Path_175890" data-name="Path 175890" d="M1359.887-565.888l-1.119.692a.135.135,0,0,1-.141,0l-1.5-.9a.07.07,0,0,1,0-.119l1.114-.688a.162.162,0,0,1,.171,0l1.474.88A.076.076,0,0,1,1359.887-565.888Z" fill="#08011c"/>
            <path id="Path_175891" data-name="Path 175891" d="M1361.907-564.628l-1.119.691a.135.135,0,0,1-.141,0l-1.5-.9a.069.069,0,0,1,0-.118l1.114-.689a.164.164,0,0,1,.171,0l1.474.881A.076.076,0,0,1,1361.907-564.628Z" fill="#08011c"/>
            <path id="Path_175892" data-name="Path 175892" d="M1363.928-563.369l-1.12.692a.137.137,0,0,1-.141,0l-1.5-.895a.07.07,0,0,1,0-.119l1.114-.688a.164.164,0,0,1,.171,0l1.475.881A.076.076,0,0,1,1363.928-563.369Z" fill="#08011c"/>
            <path id="Path_175893" data-name="Path 175893" d="M1365.948-562.11l-1.12.692a.135.135,0,0,1-.141,0l-1.5-.9a.069.069,0,0,1,0-.119l1.113-.688a.166.166,0,0,1,.172,0l1.474.88A.076.076,0,0,1,1365.948-562.11Z" fill="#08011c"/>
            <path id="Path_175894" data-name="Path 175894" d="M1367.968-560.85l-1.12.691a.135.135,0,0,1-.141,0l-1.5-.9a.069.069,0,0,1,0-.118l1.114-.689a.164.164,0,0,1,.171,0l1.474.881A.076.076,0,0,1,1367.968-560.85Z" fill="#08011c"/>
          </g>
          <g id="Group_116690" data-name="Group 116690">
            <path id="Path_175895" data-name="Path 175895" d="M1347.362-570.682l-1.12.692a.135.135,0,0,1-.141,0l-1.5-.895a.069.069,0,0,1,0-.119l1.114-.688a.164.164,0,0,1,.171,0l1.474.881A.076.076,0,0,1,1347.362-570.682Z" fill="#08011c"/>
            <path id="Path_175896" data-name="Path 175896" d="M1349.382-569.423l-1.12.692a.135.135,0,0,1-.141,0l-1.5-.9a.07.07,0,0,1,0-.119l1.114-.688a.164.164,0,0,1,.171,0l1.474.88A.076.076,0,0,1,1349.382-569.423Z" fill="#08011c"/>
            <path id="Path_175897" data-name="Path 175897" d="M1351.4-568.163l-1.119.692a.137.137,0,0,1-.141,0l-1.5-.9a.069.069,0,0,1,0-.118l1.114-.689a.166.166,0,0,1,.171,0l1.474.881A.076.076,0,0,1,1351.4-568.163Z" fill="#08011c"/>
            <path id="Path_175898" data-name="Path 175898" d="M1353.422-566.9l-1.119.692a.135.135,0,0,1-.141,0l-1.5-.9a.07.07,0,0,1,0-.119l1.114-.688a.162.162,0,0,1,.171,0l1.474.88A.076.076,0,0,1,1353.422-566.9Z" fill="#08011c"/>
            <path id="Path_175899" data-name="Path 175899" d="M1355.442-565.644l-1.119.691a.135.135,0,0,1-.141,0l-1.5-.895a.069.069,0,0,1,0-.118l1.114-.689a.164.164,0,0,1,.171,0l1.474.881A.076.076,0,0,1,1355.442-565.644Z" fill="#08011c"/>
            <path id="Path_175900" data-name="Path 175900" d="M1357.463-564.385l-1.12.692a.137.137,0,0,1-.141,0l-1.5-.895a.07.07,0,0,1,0-.119l1.113-.688a.166.166,0,0,1,.172,0l1.474.881A.076.076,0,0,1,1357.463-564.385Z" fill="#08011c"/>
            <path id="Path_175901" data-name="Path 175901" d="M1359.483-563.126l-1.12.692a.135.135,0,0,1-.141,0l-1.5-.9a.069.069,0,0,1,0-.119l1.113-.688a.166.166,0,0,1,.172,0l1.474.88A.076.076,0,0,1,1359.483-563.126Z" fill="#08011c"/>
            <path id="Path_175902" data-name="Path 175902" d="M1361.5-561.866l-1.12.691a.135.135,0,0,1-.141,0l-1.5-.9a.069.069,0,0,1,0-.118l1.114-.689a.164.164,0,0,1,.171,0l1.474.881A.076.076,0,0,1,1361.5-561.866Z" fill="#08011c"/>
            <path id="Path_175903" data-name="Path 175903" d="M1363.523-560.607l-1.119.692a.135.135,0,0,1-.141,0l-1.5-.9a.07.07,0,0,1,0-.119l1.114-.688a.164.164,0,0,1,.171,0l1.474.881A.076.076,0,0,1,1363.523-560.607Z" fill="#08011c"/>
            <path id="Path_175904" data-name="Path 175904" d="M1365.543-559.348l-1.119.692a.135.135,0,0,1-.141,0l-1.5-.895a.07.07,0,0,1,0-.119l1.114-.688a.164.164,0,0,1,.171,0l1.474.88A.076.076,0,0,1,1365.543-559.348Z" fill="#08011c"/>
          </g>
        </g>
      </g>
      <g id="Group_116694" data-name="Group 116694">
        <path id="Path_175905" data-name="Path 175905" d="M1288.8-643.9s-9.446,23.639-14.465,25.82-15.059-8.439-15.059-8.439.245,17.885.606,18.014,3.807.852,3.807.852,1.252.4,1.458,3.058a18.95,18.95,0,0,1,0,4.052.107.107,0,0,0-.039.012.429.429,0,0,1-.1.039l-4.387,1.781v3.548s-.491,2.943-8.568,6.62-14.955,5.242-17.652,5.126-1.214-3.655-.595-5.668-4.271-12.013-4.271-12.013-1.032-2.555-2.4-6.194v-.013c-3.006-7.988-7.574-21.175-6.323-24.13,1.846-4.31,10.723-9.175,10.723-9.175,8.375,1.587,10.8-2.684,10.8-2.684s5.406-3.853,8.219-3.453,19.744,16.318,21.95,17.3,9.549-18.466,9.549-18.466a17.617,17.617,0,0,1,4.658.7A2.893,2.893,0,0,1,1288.8-643.9Z" fill="url(#linear-gradient-22)"/>
        <path id="Path_175906" data-name="Path 175906" d="M1235.245-586.2s-4.022,8.275,3.869,12.612,38.268,18.382,38.268,18.382,3.725-10.73,11.3-15.284,11.206-2.847,11.206-2.847,1.824-3.206-4.338-5.847-33.453-15.972-33.453-15.972S1253.013-584.925,1235.245-586.2Z" fill="url(#linear-gradient-14)"/>
        <path id="Path_175907" data-name="Path 175907" d="M1283.365-647.938s.083-6.344,1.081-8.338,7.312-10.388,7.312-10.388,1.829.914,0,3.075a6.141,6.141,0,0,0-1.579,4.321s3.127,4.247,2.769,5.572-5.225,8.568-5.225,8.568S1285.11-647.576,1283.365-647.938Z" fill="url(#linear-gradient-41)"/>
        <path id="Path_175908" data-name="Path 175908" d="M1264.1-606.465a11.192,11.192,0,0,1,4.507-2.048c2.592-.488,4.752-.133,5.156-.317s1.711.525-1.169,1.182-2.566.744-.713.793,4.34-.293,6.827.39,7.364,2.779,2.731,3.121-6.3-.293-7.708,1.121-8.843,1.686-8.842,1.672S1264.953-605.441,1264.1-606.465Z" fill="url(#linear-gradient-41)"/>
        <path id="Path_175909" data-name="Path 175909" d="M1225.755-628.285s2.266,2.568,4.985,6.344,9.366,13.9,9.366,16.692-1.934,5.666-1.949,6.12,2.4-6.046,6.33-6.12,19.2-2.4,19.2-2.4-19.951.813-21.009.058S1229.229-626.926,1225.755-628.285Z" fill="#08011c" opacity="0.25" style="mix-blend-mode: color-burn;isolation: isolate"/>
        <path id="Path_175910" data-name="Path 175910" d="M1251.738-639.788s6.949,3.411,7.7,6.626a15.567,15.567,0,0,1-.169,6.653s8.628,8.35,12.707,8.65a4.848,4.848,0,0,0,5.184-2.913s-4.126,1.432-8.658-2.361-6.647-6.663-7.7-9.382S1255.817-639.961,1251.738-639.788Z" fill="#08011c" opacity="0.25" style="mix-blend-mode: color-burn;isolation: isolate"/>
        <path id="Path_175911" data-name="Path 175911" d="M1265.1-600.531a.428.428,0,0,1-.1.039c-1.419.5-12.955,4.542-20.285,5.975-7.832,1.522-9.342.929-9.342.929s7.032,4.09.129,7.5c-2.684-.116-2.323-.981-1.7-2.994s-4.272-12.013-4.272-12.013-1.032-2.555-2.4-6.194c0,0,6.684,11.046,10.5,11.484C1241.353-595.369,1264-600.3,1265.1-600.531Z" fill="#08011c" opacity="0.25" style="mix-blend-mode: color-burn;isolation: isolate"/>
        <path id="Path_175912" data-name="Path 175912" d="M1299.363-573.587a136.554,136.554,0,0,1-6.71,20.156c-3.974,8.864-4.568,10.065-4.568,10.065s-10.981,21.717-10.516,23.846c.438,1.935-.026,4.942,1.987,8.452.18.322.387.645.619.981,2.71,3.909,3.988,5.084,1.161,5.729s-9.548-1.458-10.026-4.3,0-10.039,0-10.039-2.116,6.852-3.187,6.852.942-13.24,2.361-15.008c.891-1.109,1.549-.5,2.181-1.187.374-.4.736-1.251,1.136-3.187,1.058-5.187,6-16.749,8.258-25.782C1287.027-576.865,1299.363-573.587,1299.363-573.587Z" fill="url(#linear-gradient-41)"/>
        <path id="Path_175913" data-name="Path 175913" d="M1303.1-501.829c-1.974.013-9.7-.865-11.368-4.284a14.1,14.1,0,0,1-1.5-6.336l-2.3,7.7-2.787-1.368a71.1,71.1,0,0,0,1.174-10.039c.1-4.452,1.923-6.272,1.923-6.272s-4.09-15.149-5.91-24.852a91.254,91.254,0,0,1-1.845-14.379s4.348-8.371,9.742-9.713c0,0,2.258,4.245,2.4,17.42s.555,38.376,2.5,40.841c.748.942,2.387,2.839,4.013,4.8C1301.75-505.171,1304.305-501.842,1303.1-501.829Z" fill="url(#linear-gradient-41)"/>
        <path id="Path_175914" data-name="Path 175914" d="M1303.1-501.829c-1.974.013-9.7-.865-11.368-4.284a14.1,14.1,0,0,1-1.5-6.336l-2.3,7.7-2.787-1.368a71.1,71.1,0,0,0,1.174-10.039c.1-4.452,1.923-6.272,1.923-6.272s1.91,1.549,4.129,8.336a7.776,7.776,0,0,0,6.775,5.781C1301.75-505.171,1304.305-501.842,1303.1-501.829Z" fill="url(#linear-gradient-14)"/>
        <path id="Path_175915" data-name="Path 175915" d="M1281.336-504.358c-2.813.658-9.548-1.458-10.026-4.3s0-10.039,0-10.039-2.116,6.852-3.187,6.852.942-13.24,2.361-15.008c.891-1.109,1.549-.5,2.181-1.187,0,0-.658,12.672,1.561,15.588,1.342,1.781,3.691,1.716,5.33,1.381.18.322.387.645.619.981C1282.885-506.178,1284.163-505,1281.336-504.358Z" fill="url(#linear-gradient-14)"/>
        <g id="Group_116693" data-name="Group 116693">
          <path id="Path_175916" data-name="Path 175916" d="M1227.618-669.3a2.574,2.574,0,0,0-2.438.085,3.921,3.921,0,0,0-1.538,1.532s-3.587-2.787-5.637,1.67,2.92,19.6.855,24.492-7.336,4.143-7.336,4.143,16.593,2.579,17.114-4.951,1.193-11.4,1.483-11.642S1227.618-669.3,1227.618-669.3Z" fill="url(#linear-gradient-14)"/>
          <path id="Path_175917" data-name="Path 175917" d="M1249.718-661.977s.3,2.142-.318,2.81.917,1.835.7,3.223-1.781,9.765-3.4,10.752a5.108,5.108,0,0,1-3.815.232l-.111,3.958a11.57,11.57,0,0,1-4.846,1.508,15.789,15.789,0,0,1-5.481-.912s-.59-9.3-1.416-11.47-2.888-14.13,3.05-14.6S1249.718-661.977,1249.718-661.977Z" fill="url(#linear-gradient-66)"/>
          <path id="Path_175918" data-name="Path 175918" d="M1250.554-665.14c-.04,2.893.084,5.217-5.564,5.88s-6.8,4.379-6.8,4.379.938-4.482-1.873-5.115-2.608,3.562-1.519,5.284,1.99,4.708-.578,4.762-9.995-4.723-9.551-12.692,7.038-12.409,16.022-10.968S1250.554-665.14,1250.554-665.14Z" fill="url(#linear-gradient-14)"/>
        </g>
      </g>
      <g id="Group_116696" data-name="Group 116696">
        <g id="Group_116695" data-name="Group 116695">
          <path id="Path_175919" data-name="Path 175919" d="M1349.483-639.935a69.632,69.632,0,0,1,2.74,6.494c.25,1.2-.861,2.161-.6,2.789a16.039,16.039,0,0,1,.642,3.618c.042,1.025-2.265,10.423-3.888,10.423s-5.212-.358-5.212-.358l-1.3,5.912-11.673-5.468s2.383-5.126,2.383-8.544,3.845-8.474,7.6-10.26S1349.483-639.935,1349.483-639.935Z" fill="url(#linear-gradient-68)"/>
          <path id="Path_175920" data-name="Path 175920" d="M1351.533-645.523s2.136,5.72-1.111,7.064-6.151,2.611-6.151,2.611a4.42,4.42,0,0,1,1.282,3.688,9.811,9.811,0,0,1-1.624,4.807s-.512-4.123-2.648-3.7.854,7.6-2.563,8.287-4.938,2.136-8.535-2.136-4.708-7.52-4.708-9.912,2.307-4.185,2.307-4.185a5.39,5.39,0,0,1,5.037-4.31C1337.18-643.608,1351.533-645.523,1351.533-645.523Z" fill="url(#linear-gradient-14)"/>
        </g>
        <path id="Path_175921" data-name="Path 175921" d="M1309.459-476.644s3.516,1.055,5.274.774-2.6,4.219-5.274,4.923-6.611-.352-6.611-.915-.422-3.868-.422-3.868Z" fill="url(#linear-gradient-70)"/>
        <path id="Path_175922" data-name="Path 175922" d="M1311.709-475.589a4.091,4.091,0,0,1-4.852,3.306c-4.22-.563-4.853-1.116-4.853-1.116s-.352,3.858.7,4.491,2.532,3.587,8.229,1.618,18.918-7.1,17.934-8.651a7.526,7.526,0,0,0-7.244-2.883C1318.531-478.121,1310.021-477.91,1311.709-475.589Z" fill="url(#linear-gradient-71)"/>
        <path id="Path_175923" data-name="Path 175923" d="M1339.136-460.873s3.517,1.055,5.275.774-2.6,4.22-5.275,4.923-6.611-.352-6.611-.914-.422-3.868-.422-3.868Z" fill="url(#linear-gradient-72)"/>
        <path id="Path_175924" data-name="Path 175924" d="M1294.354-543.275c2.014,10.013,1.774,28.237,2.277,30.463v.026c.053.08.106.159.186.265l-.133-.053,4.849,36.5s4.636,3.285,7.364,3.285a2.886,2.886,0,0,0,.689-.08,5.059,5.059,0,0,0,3.311-2.755l-1.484-31.284a32.369,32.369,0,0,0,.291-6.41v-.239c-.238-7.338,2.994-17.43,2.889-18.437l9.349,28.265s2.911,3.92,2.726,15.5c-.159,11.576,3.792,26.013,3.792,26.013s.371,4.636,6.066,4.079a8.117,8.117,0,0,0,2.3-.477c3.073-1.085,2.332-3.417,2.332-3.417s-1.487-11.6-.772-20.873a215.157,215.157,0,0,0,.108-24.027c-.185-6.383-6.356-42.7-7.018-44.979a.271.271,0,0,0-.027-.106c-26.6,3.391-38.145-11.92-38.145-11.92C1292.527-559.275,1292.182-553.977,1294.354-543.275Z" fill="url(#linear-gradient-73)"/>
        <path id="Path_175925" data-name="Path 175925" d="M1365.4-547.612s2.981,4.441,6.284,4.16,11.516-3.584,12.258-6.746,1.155-5.692,0-4.919-6.355,3.865-6.707,3.162,1.406-1.475,1.546-2.74a3.45,3.45,0,0,0-.07-1.687s-5.514,2.564-6.411,4.269S1365.4-547.612,1365.4-547.612Z" fill="url(#linear-gradient-41)"/>
        <path id="Path_175926" data-name="Path 175926" d="M1306.417-554.9c8.011,4.526,14.352,5.191,19.058,4.742a29.983,29.983,0,0,0,5.442-1.042c4.67-1.293,2.425-7.167,4.742-13.166,2.227-5.82,8.927-19.83,9.34-20.71l.018-.036s3,13.974,3.808,17.3c.826,3.341,16.166,20.315,16.166,20.315a7.26,7.26,0,0,0,5.55-.467c2.676-1.491,1.527-3.574,1.527-3.574s-11.226-16.291-12.125-18.016c-.9-1.742-4.544-31.092-4.9-33.588s-8.712-8.514-9.646-9.933c-.916-1.4-13.579-5.64-13.579-5.64-3.125,1.239-8.406-2.138-12.806-.5-4.383,1.653-8.191,11.19-10.4,16.453-2.192,5.263-1.725,12.519-2.766,14.639s-8.209,15.213-10.4,18.788C1293.252-565.753,1294.76-561.478,1306.417-554.9Z" fill="url(#linear-gradient-75)"/>
        <path id="Path_175927" data-name="Path 175927" d="M1341.387-459.818a4.092,4.092,0,0,1-4.853,3.306c-4.22-.563-4.853-1.115-4.853-1.115s-.351,3.858.7,4.491,2.531,3.586,8.228,1.617,18.919-7.1,17.934-8.65a7.523,7.523,0,0,0-7.244-2.884C1348.209-462.35,1339.7-462.139,1341.387-459.818Z" fill="url(#linear-gradient-76)"/>
        <path id="Path_175928" data-name="Path 175928" d="M1334.063-501.324c-.216,3.3,1.686,19.075,2.189,29.026a50.306,50.306,0,0,0,2.586,13.687c3.072-1.078,2.318-3.431,2.318-3.431s-1.485-11.585-.767-20.853a215.629,215.629,0,0,0,.1-24.033c-.179-6.395-6.343-42.713-7.007-44.976a.575.575,0,0,0-.036-.108l-7.724,1.832s11.588,37.576,9.774,41.384c-1.832,3.808-8.281,3.646-8.281,3.646S1334.278-504.647,1334.063-501.324Z" fill="#08011c" opacity="0.4"/>
        <path id="Path_175929" data-name="Path 175929" d="M1325.475-550.162a29.983,29.983,0,0,0,5.442-1.042c4.67-1.293,2.425-7.167,4.742-13.166,2.227-5.82,8.927-19.83,9.34-20.71l.018-.036a34.608,34.608,0,0,1-.988-8.172c-.125-4.76.359-6.107.467-6.377-.3.485-2.873,4.581-4.706,12.268-1.975,8.209-8.082,26.152-10.669,31.02C1327.99-554.257,1326.642-552.03,1325.475-550.162Z" fill="#08011c" opacity="0.29"/>
        <path id="Path_175930" data-name="Path 175930" d="M1306.883-503.038c.185,4.318,3.18,23.947,2.7,30.172a5.059,5.059,0,0,0,3.311-2.755l-1.484-31.284a32.369,32.369,0,0,0,.291-6.41v-.239l2.889-18.437s-7.656-9.138-8.981-11.443l-1.324-2.3s2.992,29.907,3.363,32.927-5.854,3.973-5.854,3.973A5.928,5.928,0,0,1,1306.883-503.038Z" fill="#08011c" opacity="0.4"/>
      </g>
      <g id="Group_116698" data-name="Group 116698">
        <path id="Path_175931" data-name="Path 175931" d="M1446.48-494.082l46.585,22.739a1.619,1.619,0,0,1-.065,2.94l-58.515,25.388a4.319,4.319,0,0,1-3.559-.055L1384.577-464.9a1.951,1.951,0,0,1,.037-3.546l57.6-25.7A5.046,5.046,0,0,1,1446.48-494.082Z" fill="#12263f"/>
        <path id="Path_175932" data-name="Path 175932" d="M1446.48-496.556l46.585,22.739a1.619,1.619,0,0,1-.065,2.94l-58.515,25.388a4.316,4.316,0,0,1-3.559-.055l-46.349-21.835a1.95,1.95,0,0,1,.037-3.545l57.6-25.7A5.046,5.046,0,0,1,1446.48-496.556Z" fill="#fff"/>
        <path id="Path_175932_-_Outline" data-name="Path 175932 - Outline" d="M1444.267-497.192a5.2,5.2,0,0,1,2.268.524l46.585,22.739a1.726,1.726,0,0,1,.979,1.606,1.726,1.726,0,0,1-1.049,1.561l-58.515,25.388a4.409,4.409,0,0,1-1.767.367,4.479,4.479,0,0,1-1.895-.424l-46.349-21.835a2.054,2.054,0,0,1-1.191-1.9,2.053,2.053,0,0,1,1.23-1.873l57.6-25.7A5.136,5.136,0,0,1,1444.267-497.192Zm-11.5,51.935a4.16,4.16,0,0,0,1.668-.347l58.515-25.388a1.479,1.479,0,0,0,.9-1.337,1.479,1.479,0,0,0-.839-1.376l-46.585-22.739a4.949,4.949,0,0,0-2.159-.5,4.889,4.889,0,0,0-2.006.427l-57.6,25.7a1.806,1.806,0,0,0-1.082,1.647,1.807,1.807,0,0,0,1.047,1.671l46.349,21.835A4.227,4.227,0,0,0,1432.767-445.257Z" fill="#29abe2"/>
        <g id="Group_116697" data-name="Group 116697">
          <path id="Path_175933" data-name="Path 175933" d="M1428.727-480.558l6.729-3.121-2.873-1.538-6.729,3.121Z" fill="#ff805a"/>
          <path id="Path_175934" data-name="Path 175934" d="M1435-477.254l11.117-5.153-2.873-1.538-11.117,5.153Z" fill="#ff805a"/>
          <path id="Path_175935" data-name="Path 175935" d="M1441.28-473.95l12.553-5.839-2.873-1.538-12.553,5.839Z" fill="#ff805a"/>
          <path id="Path_175936" data-name="Path 175936" d="M1447.556-470.646l20.847-9.373-2.873-1.538-20.847,9.373Z" fill="#ff805a"/>
          <path id="Path_175937" data-name="Path 175937" d="M1453.833-467.342l16.317-7.221-2.873-1.538-16.317,7.221Z" fill="#ff805a"/>
        </g>
        <path id="Path_175938" data-name="Path 175938" d="M1422.415-479.213l28.574,13.947-2.436,1.088-28.63-13.834Z" fill="#efeeed"/>
        <path id="Path_175939" data-name="Path 175939" d="M1416.448-476.478l28.574,13.947-2.437,1.088-28.63-13.834Z" fill="#efeeed"/>
        <path id="Path_175940" data-name="Path 175940" d="M1410.482-473.743l28.574,13.947-2.436,1.088-28.63-13.834Z" fill="#efeeed"/>
        <path id="Path_175941" data-name="Path 175941" d="M1404.515-471.008l28.574,13.947-2.436,1.088-28.63-13.834Z" fill="#efeeed"/>
      </g>
    </g>
  </g>
</svg>
