<svg xmlns="http://www.w3.org/2000/svg" width="63.525" height="79.613" viewBox="0 0 63.525 79.613">
  <g id="t5-ic3" transform="translate(-51.733)">
    <g id="Group_117195" data-name="Group 117195" transform="translate(52.9 1.167)">
      <g id="Group_117194" data-name="Group 117194" transform="translate(0)">
        <g id="Group_117192" data-name="Group 117192">
          <g id="Group_117191" data-name="Group 117191" transform="translate(0 3.202)">
            <path id="Path_178397" data-name="Path 178397" d="M66.186,447.568A4.484,4.484,0,1,0,63.72,455.8h45.535a2.674,2.674,0,0,0,2.675-2.674v-5.553Z" transform="translate(-59.236 -381.717)" fill="#c9f6f9"/>
            <path id="Path_178398" data-name="Path 178398" d="M166.456,96.391h-49.55v-68.3h49.55a2.675,2.675,0,0,1,2.675,2.675v62.95A2.675,2.675,0,0,1,166.456,96.391Z" transform="translate(-107.939 -28.092)" fill="#f9f6f6"/>
            <path id="Path_178399" data-name="Path 178399" d="M401.227,28.092h-6.322a2.675,2.675,0,0,1,2.674,2.675v62.95a2.675,2.675,0,0,1-2.674,2.675h6.322a2.675,2.675,0,0,0,2.674-2.675V30.767a2.675,2.675,0,0,0-2.674-2.675Z" transform="translate(-342.71 -28.092)" fill="#e7ecf1"/>
          </g>
          <path id="Path_178400" data-name="Path 178400" d="M68.012,79H68.2V11.986a4.484,4.484,0,1,0-8.967,0V80.3h0A4.484,4.484,0,0,1,68.012,79Z" transform="translate(-59.236 -7.502)" fill="#e8e8e8"/>
        </g>
        <g id="Group_117193" data-name="Group 117193" transform="translate(16.208 10.357)">
          <path id="Path_178401" data-name="Path 178401" d="M199.524,89.507H164.446a.976.976,0,0,1-.976-.976V75.084a.976.976,0,0,1,.976-.976h35.078a.976.976,0,0,1,.976.976V88.531A.976.976,0,0,1,199.524,89.507Z" transform="translate(-163.47 -74.108)" fill="#f6bf28"/>
          <path id="Path_178402" data-name="Path 178402" d="M361,74.108h-5.347V88.531a.976.976,0,0,1-.976.976H361a.976.976,0,0,0,.976-.976V75.084A.976.976,0,0,0,361,74.108Z" transform="translate(-324.944 -74.108)" fill="#f6bf28" style="mix-blend-mode: multiply;isolation: isolate"/>
          <path id="Path_178403" data-name="Path 178403" d="M175.76,372.956H164.446a.976.976,0,0,1-.976-.976V366.2a.976.976,0,0,1,.976-.976H175.76a.976.976,0,0,1,.976.976v5.775A.976.976,0,0,1,175.76,372.956Z" transform="translate(-163.47 -319.961)" fill="#ffe9ac"/>
        </g>
      </g>
    </g>
    <g id="Group_117197" data-name="Group 117197" transform="translate(51.733)">
      <g id="Group_117196" data-name="Group 117196" transform="translate(0)">
        <path id="Path_178404" data-name="Path 178404" d="M194.164,208.651h-37.03a1.167,1.167,0,0,0,0,2.333h37.03a1.167,1.167,0,1,0,0-2.333Z" transform="translate(-139.76 -176.207)"/>
        <path id="Path_178405" data-name="Path 178405" d="M194.164,258.343h-37.03a1.167,1.167,0,1,0,0,2.333h37.03a1.167,1.167,0,1,0,0-2.333Z" transform="translate(-139.76 -218.172)"/>
        <path id="Path_178406" data-name="Path 178406" d="M194.164,308.035h-37.03a1.167,1.167,0,1,0,0,2.333h37.03a1.167,1.167,0,1,0,0-2.333Z" transform="translate(-139.76 -260.137)"/>
        <path id="Path_178407" data-name="Path 178407" d="M294.72,357.727H276.206a1.167,1.167,0,0,0,0,2.333H294.72a1.167,1.167,0,1,0,0-2.333Z" transform="translate(-240.316 -302.102)"/>
        <path id="Path_178408" data-name="Path 178408" d="M294.72,407.419H276.206a1.167,1.167,0,0,0,0,2.333H294.72a1.167,1.167,0,1,0,0-2.333Z" transform="translate(-240.316 -344.067)"/>
        <path id="Path_178409" data-name="Path 178409" d="M114.091,55.206a1.166,1.166,0,0,0,1.167-1.167v-47A3.846,3.846,0,0,0,111.417,3.2H62.475A5.65,5.65,0,0,0,51.733,5.65V73.923c0,.013,0,.027,0,.04h0a5.657,5.657,0,0,0,5.65,5.65h45.535a3.845,3.845,0,0,0,3.841-3.841V73.833h4.657a3.845,3.845,0,0,0,3.841-3.841V59.561a1.167,1.167,0,1,0-2.333,0V69.992a1.51,1.51,0,0,1-1.508,1.508H63.034V5.65c0-.039,0-.077,0-.116h48.386a1.51,1.51,0,0,1,1.508,1.508v47a1.167,1.167,0,0,0,1.167,1.167ZM54.066,5.65a3.317,3.317,0,0,1,6.634,0V69.4a5.622,5.622,0,0,0-6.634-.008Zm50.36,70.122a1.51,1.51,0,0,1-1.508,1.508H57.383A3.317,3.317,0,1,1,60.559,73a1.166,1.166,0,0,0,1.117.83h42.75Z" transform="translate(-51.733)"/>
        <path id="Path_178410" data-name="Path 178410" d="M195.331,68.748a2.145,2.145,0,0,0-2.142-2.143H167.877a1.167,1.167,0,1,0,0,2.333H193V82H158.3V68.938h4.122a1.167,1.167,0,0,0,0-2.333h-4.313a2.145,2.145,0,0,0-2.143,2.143V82.195a2.145,2.145,0,0,0,2.143,2.142h35.078a2.145,2.145,0,0,0,2.142-2.142Z" transform="translate(-139.76 -56.248)"/>
        <path id="Path_178411" data-name="Path 178411" d="M158.111,357.727a2.145,2.145,0,0,0-2.143,2.142v5.775a2.145,2.145,0,0,0,2.143,2.142h11.314a2.145,2.145,0,0,0,2.143-2.142v-5.775a2.145,2.145,0,0,0-2.143-2.142Zm11.123,7.727H158.3V360.06h10.933Z" transform="translate(-139.76 -302.102)"/>
      </g>
    </g>
  </g>
</svg>
