<svg xmlns="http://www.w3.org/2000/svg" xmlns:xlink="http://www.w3.org/1999/xlink" width="276" height="175.943" viewBox="0 0 276 175.943">
  <defs>
    <linearGradient id="linear-gradient" x1="1.703" y1="0.524" x2="0.272" y2="0.495" gradientUnits="objectBoundingBox">
      <stop offset="0" stop-color="#b37cff"/>
      <stop offset="1" stop-color="#f895e7"/>
    </linearGradient>
    <linearGradient id="linear-gradient-2" x1="0.668" y1="0.782" x2="0.193" y2="-0.104" gradientUnits="objectBoundingBox">
      <stop offset="0" stop-color="#a737d5"/>
      <stop offset="1" stop-color="#ef497a"/>
    </linearGradient>
    <linearGradient id="linear-gradient-3" x1="-15.146" y1="-11.669" x2="-15.622" y2="-12.554" xlink:href="#linear-gradient-2"/>
    <linearGradient id="linear-gradient-4" x1="0.359" y1="0.83" x2="0.714" y2="-0.01" gradientUnits="objectBoundingBox">
      <stop offset="0" stop-color="#2b3582"/>
      <stop offset="1" stop-color="#150e42"/>
    </linearGradient>
    <linearGradient id="linear-gradient-5" x1="0.832" y1="-0.177" x2="-0.34" y2="2.19" gradientUnits="objectBoundingBox">
      <stop offset="0" stop-color="#fdf53f"/>
      <stop offset="1" stop-color="#d93c65"/>
    </linearGradient>
    <linearGradient id="linear-gradient-6" x1="0.252" y1="1.29" x2="0.642" y2="0.047" xlink:href="#linear-gradient"/>
    <linearGradient id="linear-gradient-7" x1="0.358" y1="1.912" x2="0.747" y2="-1.952" xlink:href="#linear-gradient"/>
    <linearGradient id="linear-gradient-8" x1="0.266" y1="1.329" x2="0.656" y2="-0.051" xlink:href="#linear-gradient"/>
    <linearGradient id="linear-gradient-9" x1="0.388" y1="3.618" x2="0.778" y2="-7.237" xlink:href="#linear-gradient"/>
    <linearGradient id="linear-gradient-10" x1="0.22" y1="1.257" x2="0.61" y2="0.202" xlink:href="#linear-gradient"/>
    <linearGradient id="linear-gradient-11" x1="0.31" y1="1.51" x2="0.7" y2="-0.561" xlink:href="#linear-gradient"/>
    <linearGradient id="linear-gradient-12" x1="0.254" y1="1.325" x2="0.644" y2="0.017" xlink:href="#linear-gradient"/>
    <linearGradient id="linear-gradient-13" x1="0.205" y1="1.248" x2="0.595" y2="0.26" xlink:href="#linear-gradient"/>
    <linearGradient id="linear-gradient-14" x1="0.361" y1="2.226" x2="0.751" y2="-2.603" xlink:href="#linear-gradient"/>
    <linearGradient id="linear-gradient-15" x1="0.327" y1="1.686" x2="0.717" y2="-0.99" xlink:href="#linear-gradient"/>
    <linearGradient id="linear-gradient-16" x1="0.298" y1="1.5" x2="0.688" y2="-0.432" xlink:href="#linear-gradient"/>
    <linearGradient id="linear-gradient-17" x1="0.381" y1="4.028" x2="0.771" y2="-7.549" xlink:href="#linear-gradient"/>
    <linearGradient id="linear-gradient-18" x1="0" y1="0.5" x2="1" y2="0.5" xlink:href="#linear-gradient"/>
    <linearGradient id="linear-gradient-27" x1="-14.642" y1="-0.951" x2="-13.898" y2="-0.951" xlink:href="#linear-gradient-2"/>
    <linearGradient id="linear-gradient-28" x1="-11.265" y1="-6.643" x2="-11.099" y2="-8.04" gradientUnits="objectBoundingBox">
      <stop offset="0" stop-color="#233894"/>
      <stop offset="0.996" stop-color="#dd397a"/>
    </linearGradient>
    <linearGradient id="linear-gradient-29" x1="0" y1="0.5" x2="1" y2="0.5" xlink:href="#linear-gradient-4"/>
    <linearGradient id="linear-gradient-30" x1="0.788" y1="0.231" x2="-1.513" y2="2.313" gradientUnits="objectBoundingBox">
      <stop offset="0" stop-color="#53d8ff"/>
      <stop offset="1" stop-color="#3840f7"/>
    </linearGradient>
    <linearGradient id="linear-gradient-31" x1="0.589" y1="-0.525" x2="0.089" y2="4.9" xlink:href="#linear-gradient-5"/>
    <linearGradient id="linear-gradient-32" x1="4.409" y1="-2.127" x2="3.346" y2="-0.014" xlink:href="#linear-gradient-5"/>
    <linearGradient id="linear-gradient-33" x1="4.526" y1="-2.242" x2="3.463" y2="-0.129" xlink:href="#linear-gradient-5"/>
    <linearGradient id="linear-gradient-34" x1="1.042" y1="0.01" x2="-0.339" y2="1.292" xlink:href="#linear-gradient-30"/>
    <linearGradient id="linear-gradient-35" x1="0.118" y1="0.979" x2="0.654" y2="0.24" xlink:href="#linear-gradient"/>
    <linearGradient id="linear-gradient-36" x1="0.352" y1="0.77" x2="1.009" y2="-0.103" xlink:href="#linear-gradient-2"/>
    <linearGradient id="linear-gradient-37" x1="-80.165" y1="0.5" x2="-79.165" y2="0.5" xlink:href="#linear-gradient-30"/>
    <linearGradient id="linear-gradient-38" x1="-82.52" y1="0.5" x2="-81.52" y2="0.5" xlink:href="#linear-gradient-2"/>
    <linearGradient id="linear-gradient-39" x1="-286.511" y1="0.5" x2="-285.511" y2="0.5" gradientUnits="objectBoundingBox">
      <stop offset="0" stop-color="#f9b776"/>
      <stop offset="1" stop-color="#f47960"/>
    </linearGradient>
    <linearGradient id="linear-gradient-40" x1="-221.202" y1="0.5" x2="-220.202" y2="0.5" xlink:href="#linear-gradient-30"/>
    <linearGradient id="linear-gradient-41" x1="-150.374" y1="0.5" x2="-149.374" y2="0.5" xlink:href="#linear-gradient-2"/>
    <linearGradient id="linear-gradient-42" x1="-250.202" y1="0.5" x2="-249.202" y2="0.5" xlink:href="#linear-gradient-39"/>
    <linearGradient id="linear-gradient-43" x1="-29.839" y1="0.221" x2="-31.241" y2="1.513" xlink:href="#linear-gradient-30"/>
    <linearGradient id="linear-gradient-44" x1="-36.741" y1="1.767" x2="-36.685" y2="0.055" xlink:href="#linear-gradient-28"/>
    <linearGradient id="linear-gradient-45" x1="-180.112" y1="5.021" x2="-179.754" y2="4.213" xlink:href="#linear-gradient-30"/>
    <linearGradient id="linear-gradient-46" x1="-162.809" y1="0.1" x2="-165.198" y2="1.142" xlink:href="#linear-gradient-39"/>
    <linearGradient id="linear-gradient-47" x1="-84.119" y1="3.05" x2="-83.994" y2="0.072" xlink:href="#linear-gradient-28"/>
    <linearGradient id="linear-gradient-48" x1="-106.621" y1="3.199" x2="-106.454" y2="-0.298" xlink:href="#linear-gradient-28"/>
    <linearGradient id="linear-gradient-49" x1="-80.572" y1="0.5" x2="-79.572" y2="0.5" xlink:href="#linear-gradient-39"/>
    <linearGradient id="linear-gradient-50" x1="-112.161" y1="-0.004" x2="-112.176" y2="1.888" xlink:href="#linear-gradient-39"/>
    <linearGradient id="linear-gradient-51" x1="-154.016" y1="48.036" x2="-155.536" y2="49.374" xlink:href="#linear-gradient-39"/>
    <linearGradient id="linear-gradient-52" x1="-87.224" y1="30.822" x2="-86.201" y2="30.822" xlink:href="#linear-gradient-4"/>
    <linearGradient id="linear-gradient-53" x1="-424.672" y1="138.107" x2="-421.382" y2="135.751" xlink:href="#linear-gradient-39"/>
    <linearGradient id="linear-gradient-54" x1="-221.796" y1="0.5" x2="-220.796" y2="0.5" xlink:href="#linear-gradient-39"/>
    <linearGradient id="linear-gradient-55" x1="-6.36" y1="-0.218" x2="-7.704" y2="1.835" xlink:href="#linear-gradient-4"/>
    <linearGradient id="linear-gradient-56" x1="-44.886" y1="1.815" x2="-43.577" y2="-0.054" xlink:href="#linear-gradient-4"/>
    <linearGradient id="linear-gradient-57" x1="1.9" y1="1.156" x2="-0.16" y2="-0.024" xlink:href="#linear-gradient-5"/>
    <linearGradient id="linear-gradient-58" x1="-7.438" y1="-0.454" x2="-8.102" y2="1.454" xlink:href="#linear-gradient-30"/>
    <linearGradient id="linear-gradient-59" x1="-7.404" y1="-0.454" x2="-8.067" y2="1.454" xlink:href="#linear-gradient-30"/>
    <linearGradient id="linear-gradient-60" x1="-113.892" y1="-1.222" x2="-115.585" y2="3.818" xlink:href="#linear-gradient-39"/>
    <linearGradient id="linear-gradient-61" x1="0.514" y1="0.627" x2="0.039" y2="-0.26" xlink:href="#linear-gradient-2"/>
    <linearGradient id="linear-gradient-62" x1="0.567" y1="0.027" x2="0.391" y2="1.131" xlink:href="#linear-gradient-30"/>
    <linearGradient id="linear-gradient-63" x1="484.538" y1="-138.324" x2="479.398" y2="-141.321" xlink:href="#linear-gradient-30"/>
    <linearGradient id="linear-gradient-64" x1="-22.108" y1="-0.66" x2="-21.912" y2="-3.319" xlink:href="#linear-gradient-30"/>
    <linearGradient id="linear-gradient-65" x1="111.404" y1="-40.184" x2="110.307" y2="-41.013" xlink:href="#linear-gradient-30"/>
    <linearGradient id="linear-gradient-66" x1="-1374.969" y1="-172.047" x2="-1370.232" y2="-172.885" xlink:href="#linear-gradient-30"/>
  </defs>
  <g id="t5-lt5" transform="translate(-34.04 -34)">
    <path id="Path_174997" data-name="Path 174997" d="M111.1,199.517c35.45,3.6,38.179-9.228,76.026-4.539,23.594,2.923,29.488,8.769,54.467,8.7,16.684-.047,33.044-.316,47.658-11.347,3.326-2.51,25.021-19.511,20.047-39.715-2.5-10.136-14.434-10.1-17.777-20.8-2.739-8.768,2.788-15.145,6.43-25.342,7.036-19.7,6.068-49.111-5.3-56.736C275.511,38.227,244.5,82.92,207.934,72.428c-15.32-4.4-13.434-13.263-33.663-24.586C140.3,28.829,92.1,29.829,81.98,48.221,73.7,63.274,95.457,81.73,85.762,96.636c-8.8,13.532-30.258,3.736-43.5,18.534-11.337,12.671-9.963,35.9-1.891,51.062C55.067,193.833,93.575,197.739,111.1,199.517Z" transform="translate(0)" opacity="0.5" fill="url(#linear-gradient)"/>
    <g id="Group_116444" data-name="Group 116444" transform="translate(102.942 34.367)">
      <path id="Path_174998" data-name="Path 174998" d="M382.457,111.816c-.5-11.146-4.588-21.034-10.742-27.867a31.716,31.716,0,0,1-8.2-22.321q.047-1.3-.012-2.624c-.6-13.4-9.277-23.906-19.383-23.455S326.3,47.232,326.9,60.637a31.5,31.5,0,0,0,1.324,7.789A31.878,31.878,0,0,1,326.5,91.831a46.76,46.76,0,0,0-4.531,22.685c.556,12.463,5.605,23.354,13.007,30.16a31.177,31.177,0,0,1,6.817,9.049c2.813,5.659,7.926,9.351,13.6,9.1,6.121-.273,11.182-5.061,13.232-11.7a33.28,33.28,0,0,1,5.429-10.355C379.689,133.4,382.959,123.085,382.457,111.816Z" transform="translate(-321.919 -35.534)" fill="url(#linear-gradient-2)"/>
      <path id="Path_174999" data-name="Path 174999" d="M430.9,94.513c1.716,8.8,3.148,17.649,4.488,26.512.336,2.216.636,4.436.944,6.656l.461,3.33.433,3.334c.28,2.224.591,4.443.846,6.67l.765,6.68c.454,4.46.945,8.916,1.315,13.384.189,2.234.421,4.463.564,6.7l.461,6.71c.524,8.952.824,17.921.67,26.887l-.386,0-.14-6.713-.031-1.678-.073-1.677-.152-3.353-.146-3.353c-.047-1.118-.135-2.234-.2-3.351-.146-2.233-.274-4.467-.434-6.7-.7-8.924-1.515-17.839-2.515-26.736-.534-4.445-1.03-8.893-1.594-13.335l-.415-3.332-.442-3.328c-.293-2.219-.587-4.439-.9-6.655q-.891-6.657-1.882-13.3c-.639-4.432-1.319-8.859-2.013-13.282Z" transform="translate(-404.529 -80.397)" fill="#fff" opacity="0.57"/>
    </g>
    <g id="Group_116445" data-name="Group 116445" transform="translate(138.218 46.119)">
      <path id="Path_175000" data-name="Path 175000" d="M469.308,103.543a16.866,16.866,0,0,0,3.723,10.631,11.961,11.961,0,0,1,2.83,8.511q-.033.488-.026.989c.068,5.06,3.217,9.121,7.032,9.069s6.853-4.2,6.785-9.256a11.88,11.88,0,0,0-.408-2.952,12.023,12.023,0,0,1,.924-8.8,17.633,17.633,0,0,0,1.974-8.5,16.462,16.462,0,0,0-4.549-11.522,11.75,11.75,0,0,1-2.464-3.491,5.628,5.628,0,0,0-5.021-3.589c-2.311.031-4.275,1.777-5.125,4.254a12.556,12.556,0,0,1-2.168,3.84A16.828,16.828,0,0,0,469.308,103.543Z" transform="translate(-469.307 -84.632)" fill="url(#linear-gradient-3)"/>
      <path id="Path_175001" data-name="Path 175001" d="M510.538,134.793c-.544-3.338-.98-6.69-1.381-10.047-.1-.839-.188-1.68-.278-2.52l-.135-1.261-.124-1.262c-.079-.842-.17-1.682-.241-2.524l-.21-2.527c-.119-1.687-.252-3.372-.339-5.061-.045-.844-.106-1.688-.134-2.533l-.1-2.535c-.093-3.381-.1-6.766.063-10.144l.145.006-.026,2.533-.008.633.008.633.018,1.266.016,1.266c0,.422.025.844.036,1.265.029.844.051,1.687.085,2.531.159,3.372.362,6.743.635,10.108.149,1.682.284,3.365.444,5.046l.117,1.261.128,1.26c.085.84.169,1.68.262,2.519q.258,2.52.553,5.036c.189,1.678.393,3.355.6,5.031Z" transform="translate(-498.387 -92.046)" fill="#fff" opacity="0.57"/>
    </g>
    <g id="Group_116454" data-name="Group 116454" transform="translate(70.087 64.157)">
      <path id="Path_175002" data-name="Path 175002" d="M184.646,172.361V283.225c0,9.12,6.447,16.578,14.533,16.813,35.918,1.044,161.54,3.576,195.731,3.008,5.877-.1,10.637-5.4,10.807-12.022.659-25.755,1.73-87.688-2.232-116.44-.835-6.055-5.368-10.583-10.8-10.779-30.094-1.085-163.263-4.532-197.438-3.667C189.352,160.287,184.646,165.715,184.646,172.361Z" transform="translate(-184.646 -160)" fill="url(#linear-gradient-4)"/>
      <path id="Path_175003" data-name="Path 175003" d="M210.427,185.51V290.838c0,5.325,3.791,9.664,8.514,9.743L409.6,303.237c4.682.079,8.52-4.168,8.537-9.447l.319-104.387c.012-3.775-2.655-6.868-6-6.959L217.255,178C213.511,177.9,210.427,181.289,210.427,185.51Z" transform="translate(-204.256 -173.688)" fill="url(#linear-gradient-5)"/>
      <path id="Path_175004" data-name="Path 175004" d="M418.815,704.765h0l-209.148-4.017a.239.239,0,0,1,0-.479h0l209.148,4.017a.239.239,0,0,1,0,.479Z" transform="translate(-203.496 -570.959)" fill="#fff" opacity="0.65"/>
      <g id="Group_116446" data-name="Group 116446" transform="translate(143.992 20.987)" opacity="0.6">
        <rect id="Rectangle_37535" data-name="Rectangle 37535" width="3.213" height="34.811" transform="translate(0 28.201)" fill="#fff"/>
        <rect id="Rectangle_37536" data-name="Rectangle 37536" width="3.213" height="22.847" transform="translate(5.368 40.164)" fill="#fff"/>
        <rect id="Rectangle_37537" data-name="Rectangle 37537" width="3.213" height="52.415" transform="translate(10.737 10.597)" fill="#fff"/>
        <rect id="Rectangle_37538" data-name="Rectangle 37538" width="3.213" height="12.592" transform="translate(16.105 50.419)" fill="#fff"/>
        <rect id="Rectangle_37539" data-name="Rectangle 37539" width="3.213" height="45.407" transform="translate(21.474 17.604)" fill="#fff"/>
        <rect id="Rectangle_37540" data-name="Rectangle 37540" width="3.213" height="37.545" transform="translate(26.842 25.466)" fill="#fff"/>
        <rect id="Rectangle_37541" data-name="Rectangle 37541" width="3.213" height="29" transform="translate(32.21 34.012)" fill="#fff"/>
        <rect id="Rectangle_37542" data-name="Rectangle 37542" width="3.213" height="63.011" transform="translate(37.579)" fill="#fff"/>
        <rect id="Rectangle_37543" data-name="Rectangle 37543" width="3.213" height="56.346" transform="translate(42.947 6.666)" fill="#fff"/>
        <rect id="Rectangle_37544" data-name="Rectangle 37544" width="3.213" height="46.262" transform="translate(48.316 16.749)" fill="#fff"/>
        <rect id="Rectangle_37545" data-name="Rectangle 37545" width="3.213" height="11.423" transform="translate(53.684 51.588)" fill="#fff"/>
        <rect id="Rectangle_37546" data-name="Rectangle 37546" width="3.213" height="33.614" transform="translate(59.052 29.397)" fill="#fff"/>
      </g>
      <g id="Group_116447" data-name="Group 116447" transform="translate(146.772 28.835)">
        <rect id="Rectangle_37547" data-name="Rectangle 37547" width="3.213" height="43.879" transform="translate(0 11.283)" fill="url(#linear-gradient-6)"/>
        <rect id="Rectangle_37548" data-name="Rectangle 37548" width="3.213" height="14.104" transform="translate(5.368 41.059)" fill="url(#linear-gradient-7)"/>
        <rect id="Rectangle_37549" data-name="Rectangle 37549" width="3.213" height="39.491" transform="translate(10.737 15.671)" fill="url(#linear-gradient-8)"/>
        <rect id="Rectangle_37550" data-name="Rectangle 37550" width="3.213" height="5.015" transform="translate(16.105 50.148)" fill="url(#linear-gradient-9)"/>
        <rect id="Rectangle_37551" data-name="Rectangle 37551" width="3.213" height="51.715" transform="translate(21.474 3.448)" fill="url(#linear-gradient-10)"/>
        <rect id="Rectangle_37552" data-name="Rectangle 37552" width="3.213" height="26.328" transform="translate(26.842 28.835)" fill="url(#linear-gradient-11)"/>
        <rect id="Rectangle_37553" data-name="Rectangle 37553" width="3.213" height="41.685" transform="translate(32.21 13.477)" fill="url(#linear-gradient-12)"/>
        <rect id="Rectangle_37554" data-name="Rectangle 37554" width="3.213" height="55.163" transform="translate(37.579)" fill="url(#linear-gradient-13)"/>
        <rect id="Rectangle_37555" data-name="Rectangle 37555" width="3.213" height="11.283" transform="translate(42.947 43.879)" fill="url(#linear-gradient-14)"/>
        <rect id="Rectangle_37556" data-name="Rectangle 37556" width="3.213" height="20.373" transform="translate(48.316 34.79)" fill="url(#linear-gradient-15)"/>
        <rect id="Rectangle_37557" data-name="Rectangle 37557" width="3.213" height="28.208" transform="translate(53.684 26.955)" fill="url(#linear-gradient-16)"/>
        <rect id="Rectangle_37558" data-name="Rectangle 37558" width="3.213" height="4.701" transform="translate(59.052 50.461)" fill="url(#linear-gradient-17)"/>
      </g>
      <path id="Path_175005" data-name="Path 175005" d="M843.384,576.428l-52.544-3.438a5.249,5.249,0,0,1-4.583-5.476V553.1c0-3.029,2.178-5.485,4.865-5.485h52.544c2.687,0,4.865,2.456,4.865,5.485v17.851C848.531,574.106,846.177,576.61,843.384,576.428Z" transform="translate(-642.264 -454.842)" fill="#fff" opacity="0.49"/>
      <g id="Group_116448" data-name="Group 116448" transform="translate(22.344 22.253)">
        <ellipse id="Ellipse_5622" data-name="Ellipse 5622" cx="8.277" cy="8.566" rx="8.277" ry="8.566" fill="#fff" opacity="0.49"/>
        <ellipse id="Ellipse_5623" data-name="Ellipse 5623" cx="6.45" cy="6.675" rx="6.45" ry="6.675" transform="translate(1.935 2.67)" fill="#fff" opacity="0.49"/>
        <rect id="Rectangle_37559" data-name="Rectangle 37559" width="33.11" height="4.45" rx="2.225" transform="translate(20.21 2.225)" fill="#fff" opacity="0.49"/>
        <rect id="Rectangle_37560" data-name="Rectangle 37560" width="23.865" height="4.45" rx="2.225" transform="translate(20.21 9.345)" fill="#fff" opacity="0.49"/>
      </g>
      <g id="Group_116449" data-name="Group 116449" transform="translate(22.344 41.165)">
        <ellipse id="Ellipse_5624" data-name="Ellipse 5624" cx="8.277" cy="8.566" rx="8.277" ry="8.566" fill="#fff" opacity="0.49"/>
        <ellipse id="Ellipse_5625" data-name="Ellipse 5625" cx="6.45" cy="6.675" rx="6.45" ry="6.675" transform="translate(1.935 2.67)" fill="#fff" opacity="0.49"/>
        <rect id="Rectangle_37561" data-name="Rectangle 37561" width="33.11" height="4.45" rx="2.225" transform="translate(20.21 2.225)" fill="#fff" opacity="0.49"/>
        <rect id="Rectangle_37562" data-name="Rectangle 37562" width="23.865" height="4.45" rx="2.225" transform="translate(20.21 9.345)" fill="#fff" opacity="0.49"/>
      </g>
      <g id="Group_116450" data-name="Group 116450" transform="translate(81.411 22.253)">
        <ellipse id="Ellipse_5626" data-name="Ellipse 5626" cx="8.277" cy="8.566" rx="8.277" ry="8.566" fill="#fff" opacity="0.49"/>
        <ellipse id="Ellipse_5627" data-name="Ellipse 5627" cx="6.45" cy="6.675" rx="6.45" ry="6.675" transform="translate(1.935 2.67)" fill="#fff" opacity="0.49"/>
        <rect id="Rectangle_37563" data-name="Rectangle 37563" width="33.11" height="4.45" rx="2.225" transform="translate(20.21 2.225)" fill="#fff" opacity="0.49"/>
        <rect id="Rectangle_37564" data-name="Rectangle 37564" width="23.865" height="4.45" rx="2.225" transform="translate(20.21 9.345)" fill="#fff" opacity="0.49"/>
      </g>
      <g id="Group_116451" data-name="Group 116451" transform="translate(81.411 41.165)">
        <ellipse id="Ellipse_5628" data-name="Ellipse 5628" cx="8.277" cy="8.566" rx="8.277" ry="8.566" fill="#fff" opacity="0.49"/>
        <ellipse id="Ellipse_5629" data-name="Ellipse 5629" cx="6.45" cy="6.675" rx="6.45" ry="6.675" transform="translate(1.935 2.67)" fill="#fff" opacity="0.49"/>
        <rect id="Rectangle_37565" data-name="Rectangle 37565" width="33.11" height="4.45" rx="2.225" transform="translate(20.21 2.225)" fill="#fff" opacity="0.49"/>
        <rect id="Rectangle_37566" data-name="Rectangle 37566" width="23.865" height="4.45" rx="2.225" transform="translate(20.21 9.345)" fill="#fff" opacity="0.49"/>
      </g>
      <path id="Path_175006" data-name="Path 175006" d="M381.839,485.592l-106.384-1.751a4.219,4.219,0,0,1-3.905-4.2l-2.3-42.51a4.282,4.282,0,0,1,3.963-4.749H380.281a4.221,4.221,0,0,1,3.967,4.292l1.617,44.261A4.261,4.261,0,0,1,381.839,485.592Z" transform="translate(-248.996 -367.187)" fill="#fff" opacity="0.49"/>
      <g id="Group_116452" data-name="Group 116452" transform="translate(28.617 73.655)">
        <ellipse id="Ellipse_5630" data-name="Ellipse 5630" cx="2.085" cy="2.351" rx="2.085" ry="2.351" transform="translate(0 10.343)" fill="#fff"/>
        <ellipse id="Ellipse_5631" data-name="Ellipse 5631" cx="2.085" cy="2.351" rx="2.085" ry="2.351" transform="translate(10.564 21.626)" fill="#fff"/>
        <ellipse id="Ellipse_5632" data-name="Ellipse 5632" cx="2.085" cy="2.351" rx="2.085" ry="2.351" transform="translate(21.685 5.955)" fill="#fff"/>
        <ellipse id="Ellipse_5633" data-name="Ellipse 5633" cx="2.085" cy="2.351" rx="2.085" ry="2.351" transform="translate(40.59 19.432)" fill="#fff"/>
        <ellipse id="Ellipse_5634" data-name="Ellipse 5634" cx="2.085" cy="2.351" rx="2.085" ry="2.351" transform="translate(49.764 10.656)" fill="#fff"/>
        <ellipse id="Ellipse_5635" data-name="Ellipse 5635" cx="2.085" cy="2.351" rx="2.085" ry="2.351" transform="translate(64.777 28.835)" fill="#fff"/>
        <ellipse id="Ellipse_5636" data-name="Ellipse 5636" cx="2.085" cy="2.351" rx="2.085" ry="2.351" transform="translate(84.238 5.955)" fill="#fff"/>
        <ellipse id="Ellipse_5637" data-name="Ellipse 5637" cx="2.085" cy="2.351" rx="2.085" ry="2.351" transform="translate(97.582)" fill="#fff"/>
        <path id="Path_175007" data-name="Path 175007" d="M377.419,506.231,362.4,488.041l-9.153,8.755-18.888-13.465-11.136,15.693-10.665-11.39.175-.164L323.2,498.647,334.3,483l.1.07,18.824,13.42,9.2-8.8.082.1,14.922,18.069,19.386-22.792.025-.011,13.345-5.955.1.219-13.32,5.944Z" transform="translate(-310.559 -474.859)" fill="#fff"/>
      </g>
      <g id="Group_116453" data-name="Group 116453" transform="translate(28.617 90.58)">
        <ellipse id="Ellipse_5638" data-name="Ellipse 5638" cx="2.085" cy="2.351" rx="2.085" ry="2.351" fill="url(#linear-gradient-18)"/>
        <ellipse id="Ellipse_5639" data-name="Ellipse 5639" cx="2.085" cy="2.351" rx="2.085" ry="2.351" transform="translate(10.564 16.611)" fill="url(#linear-gradient-18)"/>
        <ellipse id="Ellipse_5640" data-name="Ellipse 5640" cx="2.085" cy="2.351" rx="2.085" ry="2.351" transform="translate(21.685 1.881)" fill="url(#linear-gradient-18)"/>
        <ellipse id="Ellipse_5641" data-name="Ellipse 5641" cx="2.085" cy="2.351" rx="2.085" ry="2.351" transform="translate(40.59 11.91)" fill="url(#linear-gradient-18)"/>
        <ellipse id="Ellipse_5642" data-name="Ellipse 5642" cx="2.085" cy="2.351" rx="2.085" ry="2.351" transform="translate(53.1 5.642)" fill="url(#linear-gradient-18)"/>
        <ellipse id="Ellipse_5643" data-name="Ellipse 5643" cx="2.085" cy="2.351" rx="2.085" ry="2.351" transform="translate(68.128 13.705)" fill="url(#linear-gradient-18)"/>
        <ellipse id="Ellipse_5644" data-name="Ellipse 5644" cx="2.085" cy="2.351" rx="2.085" ry="2.351" transform="translate(84.238 1.881)" fill="url(#linear-gradient-18)"/>
        <ellipse id="Ellipse_5645" data-name="Ellipse 5645" cx="2.085" cy="2.351" rx="2.085" ry="2.351" transform="translate(97.582 7.836)" fill="url(#linear-gradient-18)"/>
        <path id="Path_175008" data-name="Path 175008" d="M323.157,564.888,312.5,548.13l.2-.128,10.472,16.466,11.078-14.675,18.94,10.049,12.511-6.269,15.015,8.057,16.105-11.822.063.028,13.345,5.955-.1.219-13.281-5.927-16.115,11.829-.067-.036L365.7,553.843l-12.51,6.268-.055-.029L334.32,550.1Z" transform="translate(-310.516 -545.716)" fill="url(#linear-gradient-18)"/>
      </g>
    </g>
    <g id="Group_116455" data-name="Group 116455" transform="translate(100.442 142.217)">
      <path id="Path_175009" data-name="Path 175009" d="M320.5,551.174c7.84,2.631,16.608-4.144,16.719-9.012.1-4.515-7.255-6.693-6.5-10.386.81-3.948,9.686-3.744,10.336-7.538.621-3.621-7.025-6.361-6.313-9.82.593-2.885,6.14-2.1,9.325-5.768,4.935-5.687,2.512-20.136-4.194-22.236-6.22-1.948-15.93,6.793-15.719,13.9.174,5.885,7.1,9.041,5.759,12.4-1.5,3.744-10.85,1.733-12.067,5.169-1.335,3.769,8.871,9.168,7.549,12.736-1.212,3.269-10.38.344-13.088,4.539C309.78,539.071,313.161,548.712,320.5,551.174Z" transform="translate(-311.475 -486.137)" fill="url(#linear-gradient-27)"/>
      <path id="Path_175010" data-name="Path 175010" d="M397.938,617.047a51.979,51.979,0,0,1,4.875-1.961c.411-.167.82-.346,1.221-.555a4.893,4.893,0,0,0,1.143-.786,2.088,2.088,0,0,0,.441-.609,1.453,1.453,0,0,0,.122-.781l-.009-.1c0-.032-.014-.062-.021-.093l-.046-.185-.065-.174-.033-.086-.04-.081-.081-.162c-.029-.052-.06-.1-.091-.152-.059-.1-.127-.2-.194-.291a8.966,8.966,0,0,0-.891-1.028c-.314-.319-.639-.622-.965-.92-.656-.592-1.315-1.167-1.933-1.772-.309-.3-.6-.62-.878-.945a7.663,7.663,0,0,1-.726-1.044,4.735,4.735,0,0,1-.453-1.168,3.98,3.98,0,0,1-.033-1.256v-.006a.123.123,0,0,0-.243-.044,3.868,3.868,0,0,0-.077,1.366,4.583,4.583,0,0,0,.414,1.312,7.261,7.261,0,0,0,.727,1.151,12.319,12.319,0,0,0,.887,1.012c.619.643,1.289,1.223,1.932,1.814.324.294.643.59.947.9a8.428,8.428,0,0,1,.839.959,3.084,3.084,0,0,1,.173.256c.026.043.055.086.08.13l.068.133.034.066.026.067.053.134.034.134c.005.023.013.045.017.067l.006.066a.909.909,0,0,1-.07.505,1.568,1.568,0,0,1-.324.456,4.689,4.689,0,0,1-1.009.723c-.373.208-.765.393-1.164.567-.8.35-1.623.652-2.435,1a17.464,17.464,0,0,0-2.385,1.172.124.124,0,0,0,.123.214Z" transform="translate(-377.106 -574.842)" fill="#fff" opacity="0.47"/>
      <path id="Path_175011" data-name="Path 175011" d="M355.631,713.366a11.311,11.311,0,0,0,5.9-.21,13.894,13.894,0,0,0,2.76-1.159,14.592,14.592,0,0,0,2.468-1.7,14.441,14.441,0,0,0,1.086-1.048,10.68,10.68,0,0,0,.943-1.192,7.408,7.408,0,0,0,.735-1.356,4.675,4.675,0,0,0,.354-1.552,1.286,1.286,0,0,0,0-.206l-.012-.207c-.015-.137-.042-.272-.068-.407a3.876,3.876,0,0,0-.275-.759,5.53,5.53,0,0,0-.88-1.268,16.6,16.6,0,0,0-2.216-1.961.124.124,0,0,0-.167.182h0a28.506,28.506,0,0,1,1.93,2.152,5.537,5.537,0,0,1,.7,1.18,3.174,3.174,0,0,1,.187.624c.012.106.028.211.034.316,0,.053,0,.105,0,.158a.845.845,0,0,1-.005.159,3.892,3.892,0,0,1-.343,1.27,7.208,7.208,0,0,1-.675,1.2,12.01,12.01,0,0,1-.875,1.093,13.509,13.509,0,0,1-1.008.989,14.06,14.06,0,0,1-1.114.877l-.288.208-.3.195c-.1.064-.2.132-.3.193l-.306.181a14.77,14.77,0,0,1-2.579,1.195,12.3,12.3,0,0,1-5.642.619h0a.124.124,0,0,0-.046.243Z" transform="translate(-344.991 -649.049)" fill="#fff" opacity="0.47"/>
      <path id="Path_175012" data-name="Path 175012" d="M369.059,544.858a6.325,6.325,0,0,0,.354,2.359,9.04,9.04,0,0,0,.473,1.1l.139.265.149.258c.1.174.206.339.311.508.865,1.331,1.942,2.475,2.856,3.692a9.149,9.149,0,0,1,1.16,1.915,3.644,3.644,0,0,1,.273,2.108,3.243,3.243,0,0,1-.135.523,3.482,3.482,0,0,1-.213.5,3.883,3.883,0,0,1-.646.88,5.909,5.909,0,0,1-1.889,1.213h0a.124.124,0,0,0,.088.231,5.8,5.8,0,0,0,2.089-1.143,4.036,4.036,0,0,0,.783-.944,3.954,3.954,0,0,0,.27-.557,3.736,3.736,0,0,0,.185-.594,3.624,3.624,0,0,0,.072-1.246l-.042-.31c-.021-.1-.046-.2-.07-.3l-.037-.151-.049-.147c-.033-.1-.063-.2-.1-.292a9.7,9.7,0,0,0-1.2-2.083c-.466-.638-.967-1.237-1.45-1.839s-.961-1.2-1.39-1.827c-.106-.157-.217-.311-.316-.472l-.152-.24-.142-.244c-.1-.16-.183-.328-.274-.494s-.163-.338-.243-.508a7.878,7.878,0,0,1-.609-2.171v0a.124.124,0,0,0-.247.009Z" transform="translate(-355.27 -530.714)" fill="#fff" opacity="0.47"/>
      <path id="Path_175013" data-name="Path 175013" d="M420.057,511.051a8.39,8.39,0,0,0,1.738-2.907,14.045,14.045,0,0,0,.752-3.312,18.364,18.364,0,0,0,.058-3.393c-.041-.565-.1-1.128-.191-1.688s-.2-1.116-.341-1.667c-.07-.275-.142-.55-.227-.821l-.123-.408-.139-.4c-.09-.27-.2-.533-.308-.8-.051-.133-.115-.262-.172-.393s-.114-.262-.18-.389a12.213,12.213,0,0,0-.854-1.494,10.367,10.367,0,0,0-1.089-1.35,7.146,7.146,0,0,0-1.378-1.086,4.794,4.794,0,0,0-1.658-.617,6.61,6.61,0,0,0-3.383.417.124.124,0,0,0,.071.236c.268-.062.537-.111.807-.15a7.056,7.056,0,0,1,.809-.076,5.643,5.643,0,0,1,1.58.142,5.275,5.275,0,0,1,2.593,1.665,9.547,9.547,0,0,1,.962,1.27c.139.229.279.456.4.694s.249.476.369.717c.061.12.11.246.166.369s.112.245.159.372c.1.253.2.5.284.76l.135.383.12.388c.083.258.153.52.223.783.137.526.248,1.058.339,1.595s.169,1.075.22,1.617.08,1.086.089,1.631,0,1.089-.04,1.632-.1,1.085-.188,1.621a13.777,13.777,0,0,1-.364,1.588,8.9,8.9,0,0,1-1.429,2.91h0a.124.124,0,0,0,.188.161Z" transform="translate(-388.306 -489.267)" fill="#fff" opacity="0.47"/>
      <path id="Path_175014" data-name="Path 175014" d="M373.558,525.879l-1.787,6.358L370,538.6l-3.53,12.728-1.763,6.364-1.782,6.358-.892,3.179-.909,3.174-.917,3.172-.945,3.163h0a.064.064,0,0,0,.123.039c.35-1.044.705-2.087,1.041-3.136l1-3.149.96-3.161.943-3.166c.318-1.054.617-2.114.922-3.172l.907-3.176c.6-2.118,1.2-4.236,1.786-6.359l1.737-6.373c.576-2.125,1.152-4.25,1.709-6.38l1.671-6.39c.542-2.134,1.095-4.265,1.621-6.4a.064.064,0,0,0-.124-.033Z" transform="translate(-347.824 -516.331)" fill="#fff" opacity="0.47"/>
    </g>
    <g id="Group_116456" data-name="Group 116456" transform="translate(108.04 175.293)">
      <path id="Path_175015" data-name="Path 175015" d="M344.391,656.256c3.942,4.2,19.93-1.95,20.928-8.845.459-3.172-2.387-5.585-.96-8,1.547-2.618,5.576-.948,8.072-3.789,2.3-2.618,2.532-8.195-.492-10.344-2.348-1.669-6.3-1.014-8.246,1.1-2.841,3.073.141,7.519-2.529,10.218-2.272,2.3-5.434.09-9.294,1.579C345.142,640.764,341.086,652.736,344.391,656.256Z" transform="translate(-343.218 -624.333)" fill="url(#linear-gradient-28)"/>
      <path id="Path_175016" data-name="Path 175016" d="M383.346,710.94a22.35,22.35,0,0,0,2.558-.776c.21-.075.417-.159.625-.239.1-.041.207-.085.31-.127s.207-.085.309-.13c.411-.176.814-.369,1.215-.566a21.416,21.416,0,0,0,2.323-1.347c.373-.249.74-.509,1.092-.789l.133-.1.13-.108c.086-.072.174-.143.259-.216l.254-.223c.085-.074.166-.153.249-.23a11.584,11.584,0,0,0,.936-.984,8.462,8.462,0,0,0,.794-1.114,6.071,6.071,0,0,0,.573-1.26,4.722,4.722,0,0,0,.162-.682,4.29,4.29,0,0,0,.052-.7,5.449,5.449,0,0,0-.2-1.371q-.089-.331-.2-.65c-.074-.214-.156-.422-.24-.629a18.507,18.507,0,0,1-.912-2.483l-.1.015a6.493,6.493,0,0,0,.238,1.328c.06.217.126.431.193.644s.14.422.208.633c.136.42.271.837.369,1.256a6.242,6.242,0,0,1,.119.63,4.554,4.554,0,0,1,.047.631,4.637,4.637,0,0,1-.709,2.4,9.692,9.692,0,0,1-1.63,2.015c-.079.075-.156.153-.238.225l-.243.22c-.082.072-.166.142-.249.214l-.125.106-.128.1c-.169.139-.344.272-.518.406-.087.066-.177.13-.265.2s-.178.129-.268.191a23.348,23.348,0,0,1-2.25,1.382,26.937,26.937,0,0,1-4.891,2.032Z" transform="translate(-373.72 -679.007)" fill="#fff" opacity="0.47"/>
      <path id="Path_175017" data-name="Path 175017" d="M411.429,627.67a4.8,4.8,0,0,0-.714-.247,5.5,5.5,0,0,0-.745-.135,6.514,6.514,0,0,0-4.338,1.081,5.132,5.132,0,0,0-.6.486c-.091.091-.182.181-.264.282l-.126.147-.114.157a4.14,4.14,0,0,0-.391.67c-.026.059-.049.119-.074.179s-.051.119-.069.181c-.04.123-.084.245-.112.37a6.934,6.934,0,0,0-.2,1.512c-.018.5,0,1.006.012,1.5s.033.992.024,1.484a8.8,8.8,0,0,1-.136,1.457,5.011,5.011,0,0,1-.459,1.368,4.638,4.638,0,0,1-.852,1.161,4.186,4.186,0,0,1-1.176.829,4.889,4.889,0,0,1-1.4.4,9.361,9.361,0,0,1-1.475.074c-.248,0-.5-.012-.745-.021l-.747-.022,0,.106c.5.035.991.078,1.491.1a9.547,9.547,0,0,0,1.506-.027,5.012,5.012,0,0,0,1.473-.385,4.339,4.339,0,0,0,1.268-.857,4.82,4.82,0,0,0,.926-1.221,5.32,5.32,0,0,0,.5-1.447,8.577,8.577,0,0,0,.152-1.511c.011-.5,0-1-.019-1.5s-.029-.991-.013-1.482a6.6,6.6,0,0,1,.185-1.442c.026-.118.066-.231.1-.345.016-.058.041-.112.062-.168s.044-.112.067-.166a3.813,3.813,0,0,1,.354-.621l.1-.146.116-.137c.074-.094.159-.179.243-.265a5.245,5.245,0,0,1,.553-.466,5.8,5.8,0,0,1,1.277-.694,6.57,6.57,0,0,1,.694-.232,7.273,7.273,0,0,1,.717-.155,6.25,6.25,0,0,1,1.465-.068,5.37,5.37,0,0,1,.728.1,4.7,4.7,0,0,1,.707.206Z" transform="translate(-383.922 -626.553)" fill="#fff" opacity="0.47"/>
      <path id="Path_175018" data-name="Path 175018" d="M378.569,648.457q-2.7,3.252-5.436,6.466t-5.552,6.356c-.939,1.047-1.894,2.079-2.849,3.111-.482.512-.961,1.026-1.45,1.531s-.974,1.013-1.463,1.518l-.743.749c-.246.251-.5.5-.745.746s-.5.5-.751.741l-.757.734q-1.523,1.46-3.1,2.868h0a.053.053,0,0,0,.068.081c1.12-.858,2.2-1.763,3.268-2.69.529-.467,1.055-.938,1.572-1.418s1.03-.965,1.541-1.452c2.032-1.96,3.983-4,5.878-6.094.472-.524.946-1.047,1.41-1.579s.928-1.063,1.387-1.6l.685-.807.677-.813.674-.816q.337-.407.668-.82l.661-.826.657-.829c.435-.555.864-1.115,1.292-1.675.85-1.125,1.691-2.258,2.492-3.42a.053.053,0,0,0-.084-.064Z" transform="translate(-352.718 -642.668)" fill="#fff" opacity="0.57"/>
    </g>
    <g id="Group_116461" data-name="Group 116461" transform="translate(50.364 107.167)">
      <path id="Path_175019" data-name="Path 175019" d="M103.306,344.866c-.342,16.16-1.453,71.9-.923,91.656a3.714,3.714,0,0,0,3.279,3.841c8.847.339,41.281,1.2,55.752.487,3.014-.148,5.411-3,5.474-6.533.3-16.962.964-64.67-.613-86.525a5.122,5.122,0,0,0-4.181-4.965c-9.635-1.128-42.208-3.884-54.711-2.935C105.129,340.063,103.362,342.224,103.306,344.866Z" transform="translate(-102.242 -339.697)" fill="url(#linear-gradient-29)"/>
      <path id="Path_175020" data-name="Path 175020" d="M118.115,368.311c-.476,13.044-1.978,56.437-1.5,72.483a4.272,4.272,0,0,0,3.652,4.379c8.245.565,36.376,1.809,48.47.676a4.806,4.806,0,0,0,4-4.816c.613-13.307,2.372-53.712,1.915-69.578a4.749,4.749,0,0,0-3.9-4.825c-8.92-.937-38.812-3.166-49.089-2.51A4.117,4.117,0,0,0,118.115,368.311Z" transform="translate(-113.104 -358.183)" fill="url(#linear-gradient-30)"/>
      <path id="Path_175021" data-name="Path 175021" d="M198.042,349.267h0a.88.88,0,0,0,.753.931c2.09.128,7.976.49,10.607.669a.891.891,0,0,0,.827-1.107l-.017-.1a.856.856,0,0,0-.709-.752,87.068,87.068,0,0,0-10.7-.571A.877.877,0,0,0,198.042,349.267Z" transform="translate(-175.113 -346.248)" fill="#fff" opacity="0.5"/>
      <path id="Path_175022" data-name="Path 175022" d="M180.23,408.391l-45.856-1.3A2.442,2.442,0,0,1,132,404.652v-6.818a2.442,2.442,0,0,1,2.534-2.44l45.856,1.73a2.442,2.442,0,0,1,2.35,2.441v6.385A2.442,2.442,0,0,1,180.23,408.391Z" transform="translate(-124.878 -382.062)" fill="#fff" opacity="0.49"/>
      <path id="Path_175023" data-name="Path 175023" d="M182.143,458.2H132.6a.6.6,0,0,1-.6-.6h0a.6.6,0,0,1,.6-.6h49.544a.6.6,0,0,1,.6.6h0A.6.6,0,0,1,182.143,458.2Z" transform="translate(-124.878 -428.924)" fill="#fff"/>
      <g id="Group_116457" data-name="Group 116457" transform="translate(7.122 33.341)">
        <rect id="Rectangle_37567" data-name="Rectangle 37567" width="22.738" height="3.59" rx="1.795" fill="#fff"/>
        <rect id="Rectangle_37568" data-name="Rectangle 37568" width="3.59" height="3.59" rx="1.795" transform="translate(25.37)" fill="#fff" opacity="0.49"/>
        <rect id="Rectangle_37569" data-name="Rectangle 37569" width="3.59" height="3.59" rx="1.795" transform="translate(30.875)" fill="#fff" opacity="0.49"/>
        <rect id="Rectangle_37570" data-name="Rectangle 37570" width="3.59" height="3.59" rx="1.795" transform="translate(36.38)" fill="#fff" opacity="0.49"/>
        <rect id="Rectangle_37571" data-name="Rectangle 37571" width="3.59" height="3.59" rx="1.795" transform="translate(41.885)" fill="#fff" opacity="0.49"/>
        <rect id="Rectangle_37572" data-name="Rectangle 37572" width="3.59" height="3.59" rx="1.795" transform="translate(47.39)" fill="#fff" opacity="0.49"/>
      </g>
      <g id="Group_116458" data-name="Group 116458" transform="translate(7.122 43.713)">
        <rect id="Rectangle_37573" data-name="Rectangle 37573" width="22.738" height="3.59" rx="1.795" fill="#fff"/>
        <rect id="Rectangle_37574" data-name="Rectangle 37574" width="3.59" height="3.59" rx="1.795" transform="translate(25.37)" fill="#fff" opacity="0.49"/>
        <rect id="Rectangle_37575" data-name="Rectangle 37575" width="3.59" height="3.59" rx="1.795" transform="translate(30.875)" fill="#fff" opacity="0.49"/>
        <rect id="Rectangle_37576" data-name="Rectangle 37576" width="3.59" height="3.59" rx="1.795" transform="translate(36.38)" fill="#fff" opacity="0.49"/>
        <rect id="Rectangle_37577" data-name="Rectangle 37577" width="3.59" height="3.59" rx="1.795" transform="translate(41.885)" fill="#fff" opacity="0.49"/>
        <rect id="Rectangle_37578" data-name="Rectangle 37578" width="3.59" height="3.59" rx="1.795" transform="translate(47.39)" fill="#fff" opacity="0.49"/>
      </g>
      <g id="Group_116459" data-name="Group 116459" transform="translate(7.122 54.085)">
        <rect id="Rectangle_37579" data-name="Rectangle 37579" width="22.738" height="3.59" rx="1.795" fill="#fff"/>
        <rect id="Rectangle_37580" data-name="Rectangle 37580" width="3.59" height="3.59" rx="1.795" transform="translate(25.37)" fill="#fff" opacity="0.49"/>
        <rect id="Rectangle_37581" data-name="Rectangle 37581" width="3.59" height="3.59" rx="1.795" transform="translate(30.875)" fill="#fff" opacity="0.49"/>
        <rect id="Rectangle_37582" data-name="Rectangle 37582" width="3.59" height="3.59" rx="1.795" transform="translate(36.38)" fill="#fff" opacity="0.49"/>
        <rect id="Rectangle_37583" data-name="Rectangle 37583" width="3.59" height="3.59" rx="1.795" transform="translate(41.885)" fill="#fff" opacity="0.49"/>
        <rect id="Rectangle_37584" data-name="Rectangle 37584" width="3.59" height="3.59" rx="1.795" transform="translate(47.39)" fill="#fff" opacity="0.49"/>
      </g>
      <g id="Group_116460" data-name="Group 116460" transform="translate(7.122 64.456)">
        <rect id="Rectangle_37585" data-name="Rectangle 37585" width="22.738" height="3.59" rx="1.795" fill="#fff"/>
        <rect id="Rectangle_37586" data-name="Rectangle 37586" width="3.59" height="3.59" rx="1.795" transform="translate(25.37)" fill="#fff" opacity="0.49"/>
        <rect id="Rectangle_37587" data-name="Rectangle 37587" width="3.59" height="3.59" rx="1.795" transform="translate(30.875)" fill="#fff" opacity="0.49"/>
        <rect id="Rectangle_37588" data-name="Rectangle 37588" width="3.59" height="3.59" rx="1.795" transform="translate(36.38)" fill="#fff" opacity="0.49"/>
        <rect id="Rectangle_37589" data-name="Rectangle 37589" width="3.59" height="3.59" rx="1.795" transform="translate(41.885)" fill="#fff" opacity="0.49"/>
        <rect id="Rectangle_37590" data-name="Rectangle 37590" width="3.59" height="3.59" rx="1.795" transform="translate(47.39)" fill="#fff" opacity="0.49"/>
      </g>
      <path id="Path_175024" data-name="Path 175024" d="M202.412,655.75l-26.807.858A1.556,1.556,0,0,1,174,655.053v-4.5A1.556,1.556,0,0,1,175.556,649h26.807a1.556,1.556,0,0,1,1.556,1.556v3.639A1.556,1.556,0,0,1,202.412,655.75Z" transform="translate(-156.825 -574.97)" fill="url(#linear-gradient-31)"/>
      <path id="Path_175025" data-name="Path 175025" d="M258.793,468.491l1.887,3.34a.557.557,0,0,0,1-.069l1.948-4.932a.557.557,0,0,0-.371-.742l-.35-.1a.557.557,0,0,0-.678.372l-.843,2.713a.556.556,0,0,1-1.032.079l-.578-1.185a.557.557,0,0,0-.743-.257h0A.556.556,0,0,0,258.793,468.491Z" transform="translate(-221.269 -435.75)" fill="url(#linear-gradient-32)"/>
      <path id="Path_175026" data-name="Path 175026" d="M304.793,508.491l1.887,3.34a.557.557,0,0,0,1-.069l1.948-4.932a.557.557,0,0,0-.371-.742l-.35-.1a.557.557,0,0,0-.678.372l-.843,2.713a.556.556,0,0,1-1.032.079l-.578-1.185a.557.557,0,0,0-.743-.257h0A.556.556,0,0,0,304.793,508.491Z" transform="translate(-256.259 -466.176)" fill="url(#linear-gradient-33)"/>
    </g>
    <g id="Group_116462" data-name="Group 116462" transform="translate(69.183 184.152)">
      <path id="Path_175027" data-name="Path 175027" d="M188.78,667.848l.716-5.372a.244.244,0,0,0-.3-.24l-5.083,1.88c-.116.043-.112.2.008.3l.708.566a.191.191,0,0,1,.065.257l-3.117,3.9a.191.191,0,0,0,.065.257l2.292,1.833a.191.191,0,0,0,.265.007l3.117-3.9a.191.191,0,0,1,.265.007l.708.566C188.609,668,188.764,667.97,188.78,667.848Z" transform="translate(-181.54 -662.015)" fill="#fff"/>
      <path id="Path_175028" data-name="Path 175028" d="M183.618,670.822a.455.455,0,0,1-.282-.1l-2.292-1.833a.457.457,0,0,1-.16-.242.351.351,0,0,1,.062-.309l3.086-3.859h0l-.708-.566a.427.427,0,0,1-.167-.395.333.333,0,0,1,.217-.263l5.083-1.88a.452.452,0,0,1,.581.464l-.716,5.372a.334.334,0,0,1-.208.269.428.428,0,0,1-.422-.076l-.708-.566h0l-3.086,3.859A.35.35,0,0,1,183.618,670.822Zm-2.313-2.265h0l2.292,1.833h0l3.086-3.859a.394.394,0,0,1,.56-.026l.674.539.7-5.254a.077.077,0,0,0-.029-.023l-4.971,1.838.674.539a.394.394,0,0,1,.1.552Zm6.6-1.405h0Z" transform="translate(-180.873 -661.348)" fill="url(#linear-gradient-34)"/>
    </g>
    <g id="Group_116466" data-name="Group 116466" transform="translate(52.957 58.892)">
      <path id="Path_175029" data-name="Path 175029" d="M134.755,181.744c-11.971,0-21.676,7.4-21.676,16.522a13.3,13.3,0,0,0,2.081,7.071,4.61,4.61,0,0,1,.574,3.558c-.6,2.358-.284,5.4,2.406,9.019a.982.982,0,0,0,1.751-.413,15.666,15.666,0,0,1,1.114-3.622,2.391,2.391,0,0,1,3.105-1.218,26.976,26.976,0,0,0,10.644,2.127c11.971,0,21.676-7.4,21.676-16.523S146.726,181.744,134.755,181.744Z" transform="translate(-113.079 -171.274)" fill="url(#linear-gradient-35)"/>
      <g id="Group_116464" data-name="Group 116464" transform="translate(11.833 27.945)" opacity="0.68">
        <circle id="Ellipse_5646" data-name="Ellipse 5646" cx="2.045" cy="2.045" r="2.045" transform="translate(0 4.377) rotate(-75.912)" fill="#fff"/>
        <g id="Group_116463" data-name="Group 116463" transform="translate(6.951 0)">
          <circle id="Ellipse_5647" data-name="Ellipse 5647" cx="2.045" cy="2.045" r="2.045" transform="translate(0 2.892) rotate(-45)" fill="#fff"/>
        </g>
        <circle id="Ellipse_5648" data-name="Ellipse 5648" cx="2.045" cy="2.045" r="2.045" transform="translate(14.317 3.05) rotate(-48.133)" fill="#fff"/>
      </g>
      <path id="Path_175030" data-name="Path 175030" d="M204.471,138c11.971,0,21.676,7.4,21.676,16.523a13.3,13.3,0,0,1-2.081,7.071,4.61,4.61,0,0,0-.574,3.557c.6,2.358.284,5.4-2.406,9.019a.982.982,0,0,1-1.751-.412,15.663,15.663,0,0,0-1.114-3.622,2.391,2.391,0,0,0-3.105-1.217,26.976,26.976,0,0,1-10.644,2.127c-11.971,0-21.676-7.4-21.676-16.523S192.5,138,204.471,138Z" transform="translate(-166.109 -138)" fill="url(#linear-gradient-36)"/>
      <path id="Path_175031" data-name="Path 175031" d="M222.9,214.088a22.2,22.2,0,0,1-9.236,2.4,23.484,23.484,0,0,1-9.491-1.513,18.727,18.727,0,0,1-2.208-1.009,19.136,19.136,0,0,1-2.072-1.273,15.942,15.942,0,0,1-3.5-3.372,12.344,12.344,0,0,1-2.132-4.363,10.851,10.851,0,0,1-.119-4.806l.236.037a11.739,11.739,0,0,0-.015,2.337,11.392,11.392,0,0,0,.47,2.269,11.025,11.025,0,0,0,.91,2.119,12.187,12.187,0,0,0,1.282,1.915,15.9,15.9,0,0,0,3.393,3.116,19.748,19.748,0,0,0,4.1,2.158,25.041,25.041,0,0,0,18.288-.235Z" transform="translate(-174.576 -185.277)" fill="#fff" opacity="0.64"/>
      <g id="Group_116465" data-name="Group 116465" transform="translate(31.104 6.824)" opacity="0.49">
        <path id="Path_175032" data-name="Path 175032" d="M250.316,166.513a9.024,9.024,0,0,1,3.5.739,6.829,6.829,0,0,1,2.88,2.156,4.612,4.612,0,0,1,1.017,2.865,3.76,3.76,0,0,1-1.463,3,15.56,15.56,0,0,1-2.264,1.247,4.238,4.238,0,0,0-1.009.654,2.783,2.783,0,0,0-.578.839,4.02,4.02,0,0,1-.924,1.44,2.354,2.354,0,0,1-1.371.3,1.976,1.976,0,0,1-1.463-.539,2,2,0,0,1-.539-1.478,4.527,4.527,0,0,1,.416-1.8q.108-.231,1.186-1.848a5.2,5.2,0,0,0,1-2.834,1.836,1.836,0,0,0-.3-1.086.9.9,0,0,0-.762-.423.754.754,0,0,0-.678.3,2.784,2.784,0,0,0-.292,1.132,3.61,3.61,0,0,1-1.032,2.387,3.2,3.2,0,0,1-2.295.832,2.3,2.3,0,0,1-1.6-.555,2.068,2.068,0,0,1-.708-1.617,4.882,4.882,0,0,1,1.024-2.9,6.152,6.152,0,0,1,2.626-2.087A9.153,9.153,0,0,1,250.316,166.513Zm-.363,14.753a2.183,2.183,0,0,1,1.638.715,2.383,2.383,0,1,1-4.079,1.66,2.216,2.216,0,0,1,.649-1.616A2.38,2.38,0,0,1,249.953,181.266Z" transform="translate(-243.032 -166.513)" fill="#fff"/>
      </g>
    </g>
    <g id="Group_116477" data-name="Group 116477" transform="translate(102.224 140.508)">
      <g id="Group_116472" data-name="Group 116472" transform="translate(51.934 5.367)">
        <g id="Group_116467" data-name="Group 116467" transform="translate(16.121 58.557)">
          <path id="Path_175033" data-name="Path 175033" d="M603.484,765.694c1.358.117,3.714.308,5.572.39a5.368,5.368,0,0,0,2.13-.208c0,.042,0,.081,0,.118a.384.384,0,0,1-.365.363,65.313,65.313,0,0,1-7.3.007.274.274,0,0,1-.223-.411A2.257,2.257,0,0,1,603.484,765.694Z" transform="translate(-603.261 -760.999)" fill="url(#linear-gradient-37)"/>
          <path id="Path_175034" data-name="Path 175034" d="M609.768,757.371c-1.858-.082-4.214-.273-5.572-.39,1.335-1.638,5.572-2.742,5.572-2.742h1.2a5.021,5.021,0,0,1,.933,2.923A5.366,5.366,0,0,1,609.768,757.371Z" transform="translate(-603.972 -752.285)" fill="url(#linear-gradient-38)"/>
          <path id="Path_175035" data-name="Path 175035" d="M626.222,746.077l-.112,2.216a.506.506,0,0,1-.432.476,1.968,1.968,0,0,1-.9-.074.6.6,0,0,1-.4-.46l-.387-2.157Z" transform="translate(-619.029 -746.077)" fill="url(#linear-gradient-39)"/>
        </g>
        <g id="Group_116469" data-name="Group 116469" transform="translate(34.84 56.486)">
          <g id="Group_116468" data-name="Group 116468" transform="translate(0.527 2.056)">
            <path id="Path_175036" data-name="Path 175036" d="M691.748,764.981a1.075,1.075,0,0,0,.967-.715l0,.009a.765.765,0,0,1-.516.873,3.372,3.372,0,0,1-1.428.224,1.42,1.42,0,0,1-1.071-.494l0,0A3.6,3.6,0,0,0,691.748,764.981Z" transform="translate(-688.257 -759.898)" fill="url(#linear-gradient-40)"/>
            <path id="Path_175037" data-name="Path 175037" d="M684.386,746.016h.987c1.5-.031,2.447,3.14,2.756,4.368a1.075,1.075,0,0,1-.967.715,3.6,3.6,0,0,1-2.048-.108,9.43,9.43,0,0,1-1.408-3.547A1.246,1.246,0,0,1,684.386,746.016Z" transform="translate(-683.671 -746.016)" fill="url(#linear-gradient-41)"/>
          </g>
          <path id="Path_175038" data-name="Path 175038" d="M683.571,737.424l.548,2.18a.591.591,0,0,1-.308.67,2.1,2.1,0,0,1-1.135.275.5.5,0,0,1-.4-.329l-.8-2.293Z" transform="translate(-681.469 -737.424)" fill="url(#linear-gradient-42)"/>
        </g>
        <path id="Path_175039" data-name="Path 175039" d="M626.033,641.569c-.682.6-2.9.684-2.9.684-7.988-19.172-11.256-21.9-11.256-21.9,1.153,7.237.186,23.258.186,23.258a4.794,4.794,0,0,1-3.018,0,123.5,123.5,0,0,0-4.079-30.325c5.4-.122,8.27-1.969,9.208-2.711C618.675,617.836,626.033,641.569,626.033,641.569Z" transform="translate(-588.437 -584.454)" fill="url(#linear-gradient-43)"/>
        <path id="Path_175040" data-name="Path 175040" d="M589.78,518.042c1.022,5.1.656,14.221.415,18.382a8.234,8.234,0,0,0,1.409,3.9.347.347,0,0,1-.14.488,24.071,24.071,0,0,1-9.187,2.547.619.619,0,0,1-.623-.462A120.773,120.773,0,0,0,574.7,523.2C578.826,516.61,589.78,518.042,589.78,518.042Z" transform="translate(-565.414 -513.965)" fill="url(#linear-gradient-44)"/>
        <path id="Path_175041" data-name="Path 175041" d="M621.025,639.481a.256.256,0,0,0,.218-.389,8.025,8.025,0,0,0-3.167-2.75.256.256,0,1,0-.222.461,7.65,7.65,0,0,1,2.953,2.555A.256.256,0,0,0,621.025,639.481Z" transform="translate(-598.129 -604.031)" fill="url(#linear-gradient-45)"/>
        <g id="Group_116470" data-name="Group 116470" transform="translate(23.225 4.078)">
          <path id="Path_175042" data-name="Path 175042" d="M651.855,578.457a17.532,17.532,0,0,1-3.238,7.716l-.738-.6a22.777,22.777,0,0,0,.367-7.374A8.83,8.83,0,0,1,651.855,578.457Z" transform="translate(-644.303 -563.827)" fill="url(#linear-gradient-46)"/>
          <path id="Path_175043" data-name="Path 175043" d="M632.94,524.75l1.141-6.289s7.626,5.829,6.41,14.629a8.829,8.829,0,0,0-3.608-.26A12.342,12.342,0,0,0,632.94,524.75Z" transform="translate(-632.94 -518.46)" fill="url(#linear-gradient-47)"/>
        </g>
        <g id="Group_116471" data-name="Group 116471" transform="translate(0 9.236)">
          <path id="Path_175044" data-name="Path 175044" d="M565.819,540.011l2.944,6.34c-.476,3.828-2.532,5.483-4.749,6.117a13.456,13.456,0,0,0-.989-4.129C565.858,545.415,565.819,540.011,565.819,540.011Z" transform="translate(-556.534 -540.011)" fill="url(#linear-gradient-48)"/>
          <path id="Path_175045" data-name="Path 175045" d="M542.4,574.808a13.456,13.456,0,0,1,.989,4.129c-5.915,2.295-7.48-2.156-7.48-2.156l1.093-.193A6.2,6.2,0,0,0,542.4,574.808Z" transform="translate(-535.904 -566.48)" fill="url(#linear-gradient-49)"/>
        </g>
        <path id="Path_175046" data-name="Path 175046" d="M586.03,502.832l1.421,5.224a1.016,1.016,0,0,0,1.359.676,20.582,20.582,0,0,0,2.048-.936,1.37,1.37,0,0,0,.483-1.968l-2.955-4.405Z" transform="translate(-574.033 -501.423)" fill="url(#linear-gradient-50)"/>
      </g>
      <g id="Group_116473" data-name="Group 116473" transform="translate(59.346)">
        <path id="Path_175047" data-name="Path 175047" d="M573.04,488.06c-.013.09,1.185,5.962,1.185,5.962l3.338-.756-.309-5.734S573.256,486.558,573.04,488.06Z" transform="translate(-571.563 -485.254)" fill="url(#linear-gradient-51)"/>
        <path id="Path_175048" data-name="Path 175048" d="M571.811,482.556l.4,3.006a.423.423,0,0,1,0,.115c-.034.236-.209,1.038-1.019.808a3.814,3.814,0,0,0-1.874-.245.424.424,0,0,0-.291.49,18.312,18.312,0,0,0,.769,2.736.422.422,0,0,0,.513.25,13.649,13.649,0,0,0,2.943-1.2.424.424,0,0,0,.207-.381c-.032-.759-.121-3.066-.046-3.712.07-.607.815-.971,1.139-1.1a.416.416,0,0,0,.232-.233,1.1,1.1,0,0,0-.739-1.6.424.424,0,0,1-.269-.548,1.1,1.1,0,0,0-.617-1.521,1.552,1.552,0,0,0-1.852.446.424.424,0,0,1-.54.064.335.335,0,0,0-.381.013.417.417,0,0,1-.591-.179,1.265,1.265,0,0,0-1.47-.732c-1.5.256-1.665,1.914-1.271,2.886s2,.6,2.807.112a1.812,1.812,0,0,1,1.753.226A.421.421,0,0,1,571.811,482.556Z" transform="translate(-566.87 -479)" fill="url(#linear-gradient-52)"/>
        <path id="Path_175049" data-name="Path 175049" d="M593.9,498.782s-.615-1.722.017-2.144,1.568-.2,1.362,1.045C595.025,499.235,593.9,498.782,593.9,498.782Z" transform="translate(-587.228 -492.267)" fill="url(#linear-gradient-53)"/>
      </g>
      <path id="Path_175050" data-name="Path 175050" d="M530.355,578.171c-.3.233-1.318-.253-1.942-.589a.718.718,0,0,1-.347-.848c.15-.474.4-1.085.709-1.162C529.287,575.443,531.582,577.212,530.355,578.171Z" transform="translate(-477.982 -552.452)" fill="url(#linear-gradient-54)"/>
      <g id="Group_116476" data-name="Group 116476" transform="translate(0 9.439)">
        <g id="Group_116475" data-name="Group 116475">
          <path id="Path_175051" data-name="Path 175051" d="M486.934,558.518l-77.891-27.7-4.121,11.447,77.864,28.476a3.631,3.631,0,0,0,4.385-1.588A15.445,15.445,0,0,0,489,561.488,3.111,3.111,0,0,0,486.934,558.518Z" transform="translate(-384.337 -527.853)" fill="url(#linear-gradient-55)"/>
          <g id="Group_116474" data-name="Group 116474">
            <path id="Path_175052" data-name="Path 175052" d="M319.526,518.44l10.759,1.321a9.456,9.456,0,0,1-2.138,5.595l-8.985-5.928A.541.541,0,0,1,319.526,518.44Z" transform="translate(-318.918 -518.436)" fill="url(#linear-gradient-56)"/>
            <path id="Path_175053" data-name="Path 175053" d="M372.958,525.612a14.99,14.99,0,0,1-4.121,11.447l-11.354-7.49a9.456,9.456,0,0,0,2.138-5.595Z" transform="translate(-348.252 -522.648)" fill="url(#linear-gradient-57)"/>
          </g>
        </g>
        <path id="Path_175054" data-name="Path 175054" d="M505.977,576.071a.229.229,0,0,0,.076-.445L431.532,549.29a.229.229,0,1,0-.152.432L505.9,576.057A.225.225,0,0,0,505.977,576.071Z" transform="translate(-404.346 -541.895)" fill="url(#linear-gradient-58)"/>
        <path id="Path_175055" data-name="Path 175055" d="M500.606,594.833a.229.229,0,0,0,.076-.445l-74.521-26.336a.229.229,0,1,0-.152.432l74.521,26.336A.23.23,0,0,0,500.606,594.833Z" transform="translate(-400.261 -556.167)" fill="url(#linear-gradient-59)"/>
      </g>
      <path id="Path_175056" data-name="Path 175056" d="M633.471,607.98l-3.443-.281-1.491,1.375s.353.488,1.455.207a15.793,15.793,0,0,1,2.613-.349s1.522.686,1.541-.6Z" transform="translate(-554.431 -576.896)" fill="url(#linear-gradient-60)"/>
    </g>
    <g id="Group_116478" data-name="Group 116478" transform="translate(222.055 142.084)">
      <path id="Path_175057" data-name="Path 175057" d="M851.128,525.338a23.3,23.3,0,0,0-5.6-14.522,16.528,16.528,0,0,1-4.275-11.632q.024-.675-.006-1.367c-.312-6.985-4.834-12.458-10.1-12.223s-9.284,6.089-8.972,13.074a16.409,16.409,0,0,0,.69,4.059,16.614,16.614,0,0,1-.9,12.2,24.369,24.369,0,0,0-2.361,11.822c.29,6.495,2.921,12.171,6.778,15.717a16.25,16.25,0,0,1,3.552,4.716c1.466,2.949,4.131,4.873,7.088,4.741,3.19-.142,5.828-2.637,6.9-6.1a17.337,17.337,0,0,1,2.829-5.4A23.253,23.253,0,0,0,851.128,525.338Z" transform="translate(-819.581 -485.585)" fill="url(#linear-gradient-61)"/>
      <path id="Path_175058" data-name="Path 175058" d="M876.375,516.322c.894,4.586,1.641,9.2,2.339,13.816.175,1.155.332,2.312.492,3.469l.24,1.735.226,1.737c.146,1.159.308,2.315.441,3.476l.4,3.481c.236,2.324.492,4.646.685,6.975.1,1.164.219,2.326.294,3.492l.24,3.5c.273,4.665.429,9.339.349,14.012h-.2l-.073-3.5-.016-.874-.038-.874-.079-1.747-.076-1.747c-.024-.582-.07-1.164-.1-1.746-.076-1.164-.143-2.328-.226-3.491-.364-4.651-.79-9.3-1.311-13.933-.278-2.316-.537-4.635-.831-6.949l-.216-1.736-.23-1.734c-.153-1.157-.306-2.313-.47-3.468q-.464-3.469-.981-6.931c-.333-2.31-.687-4.617-1.049-6.922Z" transform="translate(-862.631 -508.965)" fill="#fff" opacity="0.57"/>
    </g>
    <g id="Group_116479" data-name="Group 116479" transform="translate(237.727 162.528)">
      <path id="Path_175059" data-name="Path 175059" d="M890.98,617.547c-7.28-3.626-7.882-19.133-1.589-25.642,2.465-2.55,4.676-2.361,7.945-6.222,3.967-4.684,2.685-7.291,6.158-10.558,3.054-2.874,9.088-5.6,13.507-3.205,4.128,2.239,5.273,8.1,3.973,12.067-1.366,4.172-4.745,4.153-6.555,8.673-1.79,4.469.586,6.8,0,10.747C913.127,612.092,898.56,621.322,890.98,617.547Z" transform="translate(-885.063 -571)" fill="url(#linear-gradient-62)"/>
      <path id="Path_175060" data-name="Path 175060" d="M900.415,622.121a7.317,7.317,0,0,1-3.283-.691c-2.306-1.148-4.012-4.038-4.68-7.928-.973-5.666.489-11.838,3.555-15.01a11.6,11.6,0,0,1,2.777-2.023,17.7,17.7,0,0,0,5.244-4.282,18.826,18.826,0,0,0,3.555-6.3,9.115,9.115,0,0,1,2.47-4.116,13.8,13.8,0,0,1,8.514-3.662,6.253,6.253,0,0,1,3.016.713,6.979,6.979,0,0,1,3.2,4.357,10.1,10.1,0,0,1-.03,5.686,7.311,7.311,0,0,1-2.624,3.463,12.393,12.393,0,0,0-3.894,5.107,11.628,11.628,0,0,0-.384,7.344,10.47,10.47,0,0,1,.281,3.785c-.439,2.956-2.878,6.374-6.522,9.143S903.783,622.121,900.415,622.121Z" transform="translate(-890.457 -576.406)" fill="#fff" opacity="0.3"/>
      <path id="Path_175061" data-name="Path 175061" d="M939.693,590.821q-2.628,4.73-5.307,9.418l-2.657,4.7-1.325,2.351c-.437.786-.871,1.574-1.314,2.357s-.871,1.574-1.3,2.362l-.647,1.184c-.22.392-.431.789-.644,1.184l-1.279,2.375c-.411.8-.836,1.591-1.254,2.388-1.653,3.193-3.262,6.407-4.749,9.69L919,628.75c.294-.854.6-1.7.905-2.556.146-.429.324-.844.492-1.263l.509-1.257.256-.628c.086-.209.172-.418.266-.624l.55-1.239c.366-.826.732-1.654,1.128-2.465s.775-1.633,1.173-2.444l1.228-2.416c.206-.4.406-.807.62-1.2l.64-1.194c.428-.8.849-1.594,1.29-2.382,1.729-3.171,3.574-6.275,5.468-9.348q1.421-2.3,2.912-4.565c1-1.5,2-3,3.063-4.467Z" transform="translate(-910.879 -585.984)" fill="#fff" opacity="0.3"/>
      <path id="Path_175062" data-name="Path 175062" d="M989.751,589.506a13.8,13.8,0,0,1,0-5.224l.111.023a13.685,13.685,0,0,0,0,5.174Z" transform="translate(-964.497 -581.103)" fill="#fff"/>
      <path id="Path_175063" data-name="Path 175063" d="M980.653,594.267a12.231,12.231,0,0,1-.463-6.417l.11.026a12.109,12.109,0,0,0,.459,6.351Z" transform="translate(-957.247 -583.817)" fill="#fff"/>
      <path id="Path_175064" data-name="Path 175064" d="M970.79,602.5a10.655,10.655,0,0,1-.674-7.381l.108.034a10.536,10.536,0,0,0,.666,7.294Z" transform="translate(-949.475 -589.348)" fill="#fff"/>
      <path id="Path_175065" data-name="Path 175065" d="M963.009,615.215c-2.227-3.045-1.455-7.156-1.447-7.2l.111.022c-.008.041-.77,4.1,1.427,7.109Z" transform="translate(-943.149 -599.158)" fill="#fff"/>
      <path id="Path_175066" data-name="Path 175066" d="M956.113,632.94a10.309,10.309,0,0,1-1.867-4.9l.113-.01a10.181,10.181,0,0,0,1.841,4.839Z" transform="translate(-937.687 -614.379)" fill="#fff"/>
      <path id="Path_175067" data-name="Path 175067" d="M947.389,644.966a8.367,8.367,0,0,1-2.174-4.819h.113a8.259,8.259,0,0,0,2.148,4.746Z" transform="translate(-930.818 -623.597)" fill="#fff"/>
      <path id="Path_175068" data-name="Path 175068" d="M939.436,655.014c-2.457-2.517-2.256-6.589-2.253-6.63l.113.006c0,.04-.2,4.064,2.222,6.544Z" transform="translate(-924.704 -629.863)" fill="#fff"/>
      <path id="Path_175069" data-name="Path 175069" d="M928.962,665.633c-3.05-2.979-2.583-7.648-2.578-7.694l.113.012c0,.046-.466,4.661,2.544,7.6Z" transform="translate(-916.472 -637.131)" fill="#fff"/>
      <path id="Path_175070" data-name="Path 175070" d="M918.747,674.543a13.756,13.756,0,0,1-3.237-10.237l.112.019a13.638,13.638,0,0,0,3.212,10.146Z" transform="translate(-908.165 -641.974)" fill="#fff"/>
      <path id="Path_175071" data-name="Path 175071" d="M908.044,687.948c-4.775-4.6-3.124-11.78-3.107-11.852l.11.027c-.017.071-1.652,7.194,3.075,11.744Z" transform="translate(-899.961 -650.942)" fill="#fff"/>
      <path id="Path_175072" data-name="Path 175072" d="M899.461,703.708a11.126,11.126,0,0,1-3.319-7.921,17.539,17.539,0,0,1,.406-4.555l.11.028c-.02.079-1.977,7.98,2.879,12.363Z" transform="translate(-893.48 -662.456)" fill="#fff"/>
    </g>
    <g id="Group_116480" data-name="Group 116480" transform="translate(209.743 51.454)">
      <path id="Path_175073" data-name="Path 175073" d="M882.587,199.7l-3.933,7.875-3.642-6.049Z" transform="translate(-849.434 -177.494)" fill="url(#linear-gradient-63)"/>
      <path id="Path_175074" data-name="Path 175074" d="M768.144,106.926l11.95,29.274a2.228,2.228,0,0,0,2.981,1.187l28.94-13.106a.893.893,0,0,0-.067-1.654Z" transform="translate(-768.144 -106.926)" fill="url(#linear-gradient-64)"/>
      <path id="Path_175075" data-name="Path 175075" d="M801.295,129.131l-33.15-22.2,28.486,24.334-1,2.23Z" transform="translate(-768.144 -106.926)" fill="url(#linear-gradient-65)"/>
      <path id="Path_175076" data-name="Path 175076" d="M875.57,209.836l3.509,4.5-.734-5.745Z" transform="translate(-849.858 -184.26)" fill="url(#linear-gradient-66)"/>
    </g>
    <g id="Group_116481" data-name="Group 116481" transform="translate(214.259 80.825)">
      <path id="Path_175077" data-name="Path 175077" d="M919.748,229.644l.7.171a.241.241,0,1,1-.115.469h0l-.7-.174a.239.239,0,0,1,.115-.465Z" transform="translate(-887.753 -229.637)" fill="#fff"/>
      <path id="Path_175078" data-name="Path 175078" d="M929.43,232.054l.7.178a.248.248,0,1,1-.122.48h0l-.694-.181a.246.246,0,0,1,.122-.476Z" transform="translate(-895.109 -231.47)" fill="#fff"/>
      <path id="Path_175079" data-name="Path 175079" d="M939.086,234.569l.694.187a.254.254,0,1,1-.132.49h0l-.691-.19a.252.252,0,0,1,.131-.487Z" transform="translate(-902.446 -233.382)" fill="#fff"/>
      <path id="Path_175080" data-name="Path 175080" d="M948.7,237.223l.692.2a.26.26,0,1,1-.144.5h0l-.688-.2h0a.258.258,0,0,1,.144-.5Z" transform="translate(-909.753 -235.399)" fill="#fff"/>
      <path id="Path_175081" data-name="Path 175081" d="M958.276,240.05l.688.213a.267.267,0,0,1-.158.51h0l-.683-.215h0a.265.265,0,0,1,.158-.505Z" transform="translate(-917.023 -237.549)" fill="#fff"/>
      <path id="Path_175082" data-name="Path 175082" d="M967.783,243.086l.683.23a.273.273,0,1,1-.174.517h0l-.677-.232h0a.271.271,0,0,1,.174-.513Z" transform="translate(-924.245 -239.856)" fill="#fff"/>
      <path id="Path_175083" data-name="Path 175083" d="M977.211,246.365l.676.249a.279.279,0,0,1-.193.524h0l-.67-.251h0a.277.277,0,0,1,.193-.52Z" transform="translate(-931.404 -242.348)" fill="#fff"/>
      <path id="Path_175084" data-name="Path 175084" d="M986.538,249.921l.668.271a.286.286,0,0,1-.214.529h0l-.661-.272h0a.284.284,0,0,1,.214-.525Z" transform="translate(-938.485 -245.05)" fill="#fff"/>
      <path id="Path_175085" data-name="Path 175085" d="M995.74,253.791l.658.295a.292.292,0,1,1-.239.533h0l-.651-.3h0a.29.29,0,0,1,.239-.529Z" transform="translate(-945.471 -247.991)" fill="#fff"/>
      <path id="Path_175086" data-name="Path 175086" d="M1004.794,258.011l.646.322a.3.3,0,1,1-.266.534h0l0,0-.638-.322,0,0a.3.3,0,0,1,.265-.53Z" transform="translate(-952.343 -251.196)" fill="#fff"/>
      <path id="Path_175087" data-name="Path 175087" d="M1013.658,262.61l.631.352a.3.3,0,1,1-.3.532h0l0,0-.622-.35,0,0a.3.3,0,0,1,.3-.528Z" transform="translate(-959.069 -254.689)" fill="#fff"/>
      <path id="Path_175088" data-name="Path 175088" d="M1022.292,267.63l.613.383a.311.311,0,1,1-.33.527h0l0,0-.6-.381,0,0a.309.309,0,0,1,.329-.523Z" transform="translate(-965.619 -258.501)" fill="#fff"/>
      <path id="Path_175089" data-name="Path 175089" d="M1030.654,273.091l.592.416a.317.317,0,1,1-.365.519h0l0,0-.581-.413,0,0a.315.315,0,0,1,.364-.515Z" transform="translate(-971.961 -262.647)" fill="#fff"/>
      <path id="Path_175090" data-name="Path 175090" d="M1038.7,279.01l.567.45a.324.324,0,1,1-.4.507h0l0,0-.556-.446,0,0a.322.322,0,0,1,.4-.5Z" transform="translate(-978.063 -267.14)" fill="#fff"/>
      <path id="Path_175091" data-name="Path 175091" d="M1046.379,285.4l.538.485a.33.33,0,0,1-.442.49h0l0,0-.526-.479,0,0a.328.328,0,0,1,.441-.486Z" transform="translate(-983.884 -271.99)" fill="#fff"/>
      <path id="Path_175092" data-name="Path 175092" d="M1053.627,292.282l.5.522a.334.334,0,1,1-.481.463h0l-.005-.005-.492-.513-.005-.005a.333.333,0,0,1,.481-.462Z" transform="translate(-989.378 -277.21)" fill="#fff"/>
      <path id="Path_175093" data-name="Path 175093" d="M1060.381,299.674l.463.559a.336.336,0,0,1-.518.429h0l-.005-.006-.452-.548,0-.006a.335.335,0,0,1,.517-.428Z" transform="translate(-994.5 -282.819)" fill="#fff"/>
      <path id="Path_175094" data-name="Path 175094" d="M1066.548,307.564l.417.6a.338.338,0,0,1-.554.388h0l-.005-.007-.406-.583-.005-.007a.338.338,0,0,1,.554-.387Z" transform="translate(-999.176 -288.803)" fill="#fff"/>
      <path id="Path_175095" data-name="Path 175095" d="M1072.044,315.941l.364.629a.341.341,0,0,1-.589.341h0l0-.008-.354-.614,0-.008a.34.34,0,0,1,.589-.34Z" transform="translate(-1003.341 -295.156)" fill="#fff"/>
      <path id="Path_175096" data-name="Path 175096" d="M1076.774,324.771l.3.662a.343.343,0,1,1-.623.286h0l0-.01-.294-.643,0-.01a.342.342,0,0,1,.622-.285Z" transform="translate(-1006.924 -301.849)" fill="#fff"/>
      <path id="Path_175097" data-name="Path 175097" d="M1080.619,334.025l.235.689a.345.345,0,0,1-.653.223h0l0-.01-.227-.67,0-.01a.344.344,0,0,1,.652-.222Z" transform="translate(-1009.836 -308.863)" fill="#fff"/>
      <path id="Path_175098" data-name="Path 175098" d="M1083.51,343.622l.164.71a.347.347,0,1,1-.676.157h0l0-.01-.159-.689,0-.01a.346.346,0,0,1,.675-.156Z" transform="translate(-1012.024 -316.136)" fill="#fff"/>
      <path id="Path_175099" data-name="Path 175099" d="M1085.417,353.462l.092.723a.349.349,0,0,1-.693.088h0v-.011l-.088-.7v-.01a.349.349,0,0,1,.692-.087Z" transform="translate(-1013.466 -323.594)" fill="#fff"/>
      <path id="Path_175100" data-name="Path 175100" d="M1086.305,363.447l.016.729a.351.351,0,1,1-.7.016h0v-.011l-.014-.707v-.011a.351.351,0,0,1,.7-.015Z" transform="translate(-1014.137 -331.159)" fill="#fff"/>
      <path id="Path_175101" data-name="Path 175101" d="M1085.942,373.471l-.062.727a.354.354,0,1,1-.7-.06h0v-.011l.061-.7v-.011a.353.353,0,0,1,.7.061Z" transform="translate(-1013.81 -338.753)" fill="#fff"/>
      <path id="Path_175102" data-name="Path 175102" d="M1084.439,383.419l-.142.716a.356.356,0,1,1-.7-.139h0l0-.012.139-.692,0-.012a.355.355,0,0,1,.7.139Z" transform="translate(-1012.607 -346.289)" fill="#fff"/>
      <path id="Path_175103" data-name="Path 175103" d="M1081.827,393.169l-.223.7a.358.358,0,0,1-.682-.219h0l0-.012.217-.671,0-.012a.357.357,0,0,1,.68.219Z" transform="translate(-1010.563 -353.674)" fill="#fff"/>
      <path id="Path_175104" data-name="Path 175104" d="M1078.107,402.584l-.3.665a.36.36,0,1,1-.655-.3h0l.005-.012.294-.641.005-.012a.36.36,0,0,1,.654.3Z" transform="translate(-1007.681 -360.803)" fill="#fff"/>
      <path id="Path_175105" data-name="Path 175105" d="M1073.312,411.542c-.123.21-.253.416-.38.624a.362.362,0,1,1-.617-.38h0l.005-.008c.124-.2.249-.4.368-.6a.362.362,0,0,1,.625.366Z" transform="translate(-1003.988 -367.589)" fill="#fff"/>
      <path id="Path_175106" data-name="Path 175106" d="M1067.511,419.868l-.449.575a.365.365,0,1,1-.575-.448h0l.007-.01.435-.555.007-.01a.364.364,0,0,1,.574.448Z" transform="translate(-999.538 -373.89)" fill="#fff"/>
      <path id="Path_175107" data-name="Path 175107" d="M1060.851,427.528l-.507.524a.367.367,0,1,1-.527-.51h0l.008-.008.492-.507.008-.008a.366.366,0,0,1,.526.51Z" transform="translate(-994.444 -379.692)" fill="#fff"/>
      <path id="Path_175108" data-name="Path 175108" d="M1053.46,434.475l-.556.471a.369.369,0,1,1-.477-.563h0l.008-.007.54-.456.008-.007a.368.368,0,0,1,.476.562Z" transform="translate(-988.802 -384.955)" fill="#fff"/>
      <path id="Path_175109" data-name="Path 175109" d="M1045.46,440.695l-.6.417a.371.371,0,1,1-.426-.608h0l.008-.005.581-.405.008-.005a.37.37,0,0,1,.425.607Z" transform="translate(-982.704 -389.667)" fill="#fff"/>
      <path id="Path_175110" data-name="Path 175110" d="M1036.955,446.183l-.63.364a.373.373,0,1,1-.374-.646h0l.008,0,.614-.354.008,0a.373.373,0,0,1,.373.646Z" transform="translate(-976.227 -393.825)" fill="#fff"/>
      <path id="Path_175111" data-name="Path 175111" d="M1028.036,450.939l-.657.311a.376.376,0,0,1-.321-.679h0l.008,0,.641-.3.008,0a.375.375,0,0,1,.32.678Z" transform="translate(-969.44 -397.429)" fill="#fff"/>
      <path id="Path_175112" data-name="Path 175112" d="M1018.774,454.963l-.68.258a.378.378,0,0,1-.268-.706h0l.008,0,.663-.25.008,0a.377.377,0,0,1,.267.705Z" transform="translate(-962.397 -400.477)" fill="#fff"/>
      <path id="Path_175113" data-name="Path 175113" d="M1009.237,458.248l-.7.2a.38.38,0,0,1-.213-.729h0l.009,0,.681-.2.009,0a.379.379,0,0,1,.212.728Z" transform="translate(-955.148 -402.965)" fill="#fff"/>
      <path id="Path_175114" data-name="Path 175114" d="M999.482,460.779l-.713.148a.382.382,0,0,1-.156-.748h0l.009,0,.7-.143.009,0a.381.381,0,0,1,.155.747Z" transform="translate(-947.736 -404.882)" fill="#fff"/>
      <path id="Path_175115" data-name="Path 175115" d="M989.575,462.537l-.721.093a.384.384,0,0,1-.1-.762h.009l.7-.089h.008a.384.384,0,0,1,.1.761Z" transform="translate(-940.214 -406.212)" fill="#fff"/>
      <path id="Path_175116" data-name="Path 175116" d="M979.579,463.554l-.725.041a.386.386,0,0,1-.044-.772h.009l.709-.039h.008a.386.386,0,0,1,.043.77Z" transform="translate(-932.627 -406.981)" fill="#fff"/>
      <path id="Path_175117" data-name="Path 175117" d="M969.549,463.832l-.726-.009a.389.389,0,0,1,.009-.777h.009l.71.01h.008a.388.388,0,0,1-.01.776Z" transform="translate(-925.015 -407.181)" fill="#fff"/>
      <path id="Path_175118" data-name="Path 175118" d="M959.531,463.312l-.723-.056a.391.391,0,0,1,.061-.779h.008l.708.057h.007a.39.39,0,0,1-.062.778Z" transform="translate(-917.415 -406.747)" fill="#fff"/>
      <path id="Path_175119" data-name="Path 175119" d="M949.567,462.152l-.718-.1a.393.393,0,0,1,.11-.778h.008l.7.1h.007a.392.392,0,0,1-.111.777Z" transform="translate(-909.857 -405.828)" fill="#fff"/>
      <path id="Path_175120" data-name="Path 175120" d="M939.694,460.384l-.71-.145a.4.4,0,0,1,.158-.775h.008l.7.143h.007a.394.394,0,0,1-.158.773Z" transform="translate(-902.369 -404.45)" fill="#fff"/>
      <path id="Path_175121" data-name="Path 175121" d="M929.941,458.041l-.7-.185a.4.4,0,1,1,.2-.768h0l.006,0,.687.183.006,0a.4.4,0,0,1-.2.767Z" transform="translate(-894.974 -402.639)" fill="#fff"/>
      <path id="Path_175122" data-name="Path 175122" d="M920.336,455.155l-.689-.224a.4.4,0,1,1,.247-.76h0l.006,0,.676.221.006,0a.4.4,0,0,1-.247.758Z" transform="translate(-887.691 -400.415)" fill="#fff"/>
      <path id="Path_175123" data-name="Path 175123" d="M910.9,451.752l-.676-.26a.4.4,0,1,1,.289-.75h0l.006,0,.664.257.006,0a.4.4,0,0,1-.289.748Z" transform="translate(-880.539 -397.802)" fill="#fff"/>
      <path id="Path_175124" data-name="Path 175124" d="M901.656,447.852l-.662-.3a.4.4,0,0,1,.33-.737h0l.007,0,.648.291.006,0a.4.4,0,0,1-.33.736Z" transform="translate(-873.531 -394.81)" fill="#fff"/>
      <path id="Path_175125" data-name="Path 175125" d="M892.673,443.372l-.641-.345a.406.406,0,1,1,.385-.715h0l.009,0,.623.337.009,0a.405.405,0,0,1-.385.714Z" transform="translate(-866.733 -391.372)" fill="#fff"/>
      <path id="Path_175126" data-name="Path 175126" d="M884.088,438.149l-.609-.4a.408.408,0,0,1,.452-.68h0l.011.007.587.391.011.007a.408.408,0,0,1-.452.679Z" transform="translate(-860.251 -387.366)" fill="#fff"/>
      <path id="Path_175127" data-name="Path 175127" d="M876.106,432.024l-.559-.477a.41.41,0,0,1,.533-.624h0l.013.011.532.456.013.011a.41.41,0,0,1-.533.623Z" transform="translate(-854.247 -382.671)" fill="#fff"/>
      <path id="Path_175128" data-name="Path 175128" d="M869.066,424.822l-.479-.565a.412.412,0,1,1,.628-.534h0l.015.017.45.531.014.017a.412.412,0,0,1-.628.533Z" transform="translate(-848.987 -377.159)" fill="#fff"/>
      <path id="Path_175129" data-name="Path 175129" d="M863.481,416.43l-.356-.656a.415.415,0,0,1,.729-.4h0l.014.025.328.606.014.025a.414.414,0,0,1-.728.394Z" transform="translate(-844.869 -370.757)" fill="#fff"/>
      <path id="Path_175130" data-name="Path 175130" d="M859.976,406.992c-.062-.242-.127-.483-.186-.727a.417.417,0,1,1,.81-.2l.005.021c.053.222.113.443.168.665l.008.032a.416.416,0,0,1-.807.2Z" transform="translate(-842.363 -363.599)" fill="#fff"/>
      <path id="Path_175131" data-name="Path 175131" d="M858.993,396.934l.014-.75a.419.419,0,0,1,.838.016h0v.032l-.015.685v.033a.418.418,0,0,1-.836-.017Z" transform="translate(-841.764 -356.009)" fill="#fff"/>
      <path id="Path_175132" data-name="Path 175132" d="M860.046,386.988l.191-.721a.421.421,0,0,1,.814.215h0l-.007.027-.178.667-.007.027a.421.421,0,0,1-.813-.216Z" transform="translate(-842.554 -348.54)" fill="#fff"/>
      <path id="Path_175133" data-name="Path 175133" d="M863.33,377.641l.332-.663a.423.423,0,1,1,.757.379h0l-.011.022L864.1,378l-.011.022a.423.423,0,0,1-.755-.379Z" transform="translate(-845.029 -341.534)" fill="#fff"/>
      <path id="Path_175134" data-name="Path 175134" d="M868.408,369.179l.446-.59a.426.426,0,0,1,.679.513h0l-.014.018-.42.554-.013.018a.425.425,0,0,1-.678-.513Z" transform="translate(-848.86 -335.203)" fill="#fff"/>
      <path id="Path_175135" data-name="Path 175135" d="M874.949,361.811l.541-.5a.425.425,0,1,1,.579.622l-.015.014-.509.475-.016.015a.425.425,0,1,1-.581-.622Z" transform="translate(-853.798 -329.706)" fill="#fff"/>
      <path id="Path_175136" data-name="Path 175136" d="M882.707,355.724l.62-.4a.423.423,0,1,1,.462.708l-.018.012-.582.381-.019.012a.423.423,0,0,1-.463-.708Z" transform="translate(-859.656 -325.186)" fill="#fff"/>
      <path id="Path_175137" data-name="Path 175137" d="M891.456,351.091l.676-.3a.42.42,0,1,1,.336.77l-.017.007-.64.281-.018.008a.421.421,0,1,1-.338-.771Z" transform="translate(-866.265 -321.771)" fill="#fff"/>
      <path id="Path_175138" data-name="Path 175138" d="M900.875,347.884l.711-.191a.418.418,0,0,1,.218.808l-.017,0-.676.183-.017,0a.419.419,0,0,1-.219-.808Z" transform="translate(-873.387 -319.426)" fill="#fff"/>
      <path id="Path_175139" data-name="Path 175139" d="M910.7,346.06l.729-.092a.416.416,0,1,1,.1.826l-.016,0-.7.089-.017,0a.417.417,0,1,1-.106-.827Z" transform="translate(-880.821 -318.123)" fill="#fff"/>
      <path id="Path_175140" data-name="Path 175140" d="M920.729,345.551l.734,0a.414.414,0,1,1,0,.828h-.015l-.7,0h-.016a.415.415,0,1,1,0-.829Z" transform="translate(-888.408 -317.808)" fill="#fff"/>
      <path id="Path_175141" data-name="Path 175141" d="M930.773,346.033l.727.095a.412.412,0,1,1-.106.816l-.015,0-.7-.089-.015,0a.412.412,0,1,1,.1-.818Z" transform="translate(-896.011 -318.172)" fill="#fff"/>
      <path id="Path_175142" data-name="Path 175142" d="M940.68,347.759l.71.185a.41.41,0,0,1-.206.793l-.014,0-.68-.175-.015,0a.41.41,0,1,1,.2-.794Z" transform="translate(-903.509 -319.477)" fill="#fff"/>
      <path id="Path_175143" data-name="Path 175143" d="M950.309,350.724c.229.086.453.182.68.274a.407.407,0,1,1-.305.755l-.012,0c-.217-.087-.433-.18-.652-.262a.408.408,0,1,1,.286-.764h0Z" transform="translate(-910.802 -321.722)" fill="#fff"/>
      <path id="Path_175144" data-name="Path 175144" d="M959.455,354.859l.642.353a.405.405,0,1,1-.39.71l-.012-.006-.618-.337-.012-.007a.406.406,0,0,1,.389-.712Z" transform="translate(-917.724 -324.85)" fill="#fff"/>
      <path id="Path_175145" data-name="Path 175145" d="M968.07,360.042l.6.422a.4.4,0,0,1-.465.658l-.01-.007-.576-.406-.011-.008a.4.4,0,1,1,.465-.66Z" transform="translate(-924.25 -328.774)" fill="#fff"/>
      <path id="Path_175146" data-name="Path 175146" d="M976.061,366.14l.548.482a.4.4,0,1,1-.529.6l-.009-.007-.531-.465-.009-.008a.4.4,0,0,1,.529-.6Z" transform="translate(-930.306 -333.393)" fill="#fff"/>
      <path id="Path_175147" data-name="Path 175147" d="M983.382,373.022l.5.532a.4.4,0,1,1-.582.545l-.007-.008-.484-.515-.008-.008a.4.4,0,0,1,.582-.547Z" transform="translate(-935.856 -338.607)" fill="#fff"/>
      <path id="Path_175148" data-name="Path 175148" d="M990.015,380.566l.448.574a.4.4,0,1,1-.625.487l-.006-.007-.436-.557-.007-.008a.4.4,0,0,1,.626-.489Z" transform="translate(-940.887 -344.325)" fill="#fff"/>
      <path id="Path_175149" data-name="Path 175149" d="M995.954,388.664l.4.609a.394.394,0,1,1-.661.43l-.005-.007-.387-.592-.005-.008a.395.395,0,1,1,.661-.432Z" transform="translate(-945.392 -350.465)" fill="#fff"/>
      <path id="Path_175150" data-name="Path 175150" d="M1001.2,397.222l.347.639a.392.392,0,1,1-.689.374l0-.007-.339-.622,0-.008a.393.393,0,1,1,.69-.376Z" transform="translate(-949.373 -356.955)" fill="#fff"/>
      <path id="Path_175151" data-name="Path 175151" d="M1005.749,406.168l.3.664a.39.39,0,0,1-.713.317l0-.007-.289-.647,0-.008a.391.391,0,0,1,.713-.319Z" transform="translate(-952.827 -363.74)" fill="#fff"/>
      <path id="Path_175152" data-name="Path 175152" d="M1009.593,415.437l.244.684a.388.388,0,0,1-.73.261l0-.008-.24-.667,0-.008a.388.388,0,1,1,.731-.263Z" transform="translate(-955.746 -370.771)" fill="#fff"/>
      <path id="Path_175153" data-name="Path 175153" d="M1012.729,424.968l.193.7a.386.386,0,1,1-.743.2l0-.007-.19-.684,0-.008a.386.386,0,1,1,.744-.207Z" transform="translate(-958.128 -378.001)" fill="#fff"/>
      <path id="Path_175154" data-name="Path 175154" d="M1015.164,434.7l.143.712a.383.383,0,0,1-.752.151v-.007l-.141-.7,0-.008a.384.384,0,0,1,.753-.152Z" transform="translate(-959.978 -385.384)" fill="#fff"/>
      <path id="Path_175155" data-name="Path 175155" d="M1016.908,444.577l.093.72a.381.381,0,0,1-.756.1v-.007l-.093-.7v-.008a.382.382,0,0,1,.757-.1Z" transform="translate(-961.305 -392.879)" fill="#fff"/>
      <path id="Path_175156" data-name="Path 175156" d="M1017.977,454.551l.045.724a.379.379,0,0,1-.757.047v-.007l-.045-.709V454.6a.38.38,0,0,1,.758-.049Z" transform="translate(-962.12 -400.448)" fill="#fff"/>
      <path id="Path_175157" data-name="Path 175157" d="M1018.391,464.571v.725a.377.377,0,1,1-.753,0v-.724a.377.377,0,0,1,.755,0Z" transform="translate(-962.437 -408.053)" fill="#fff"/>
      <path id="Path_175158" data-name="Path 175158" d="M1018.023,474.6l-.047.724a.374.374,0,1,1-.747-.048v-.006l.044-.71v-.007a.375.375,0,0,1,.749.047Z" transform="translate(-962.127 -415.664)" fill="#fff"/>
      <path id="Path_175159" data-name="Path 175159" d="M1017.039,484.589l-.09.719a.372.372,0,1,1-.739-.093v-.006l.088-.706V484.5a.373.373,0,1,1,.741.092Z" transform="translate(-961.35 -423.248)" fill="#fff"/>
      <path id="Path_175160" data-name="Path 175160" d="M1015.459,494.512l-.133.712a.37.37,0,0,1-.728-.136v-.006l.129-.7v-.006a.371.371,0,0,1,.73.135Z" transform="translate(-960.121 -430.782)" fill="#fff"/>
      <path id="Path_175161" data-name="Path 175161" d="M1013.3,504.33l-.174.7a.368.368,0,1,1-.714-.177v-.005l.17-.691,0-.006a.369.369,0,0,1,.716.176Z" transform="translate(-958.452 -438.236)" fill="#fff"/>
      <path id="Path_175162" data-name="Path 175162" d="M1010.571,514.013l-.215.691a.366.366,0,1,1-.7-.217l0-.005.21-.679,0-.006a.367.367,0,0,1,.7.216Z" transform="translate(-956.355 -445.588)" fill="#fff"/>
      <path id="Path_175163" data-name="Path 175163" d="M1007.3,523.526l-.254.677a.364.364,0,0,1-.681-.255l0,0,.248-.667,0-.005a.364.364,0,0,1,.683.254Z" transform="translate(-953.843 -452.811)" fill="#fff"/>
      <path id="Path_175164" data-name="Path 175164" d="M1003.512,532.85l-.289.663a.361.361,0,0,1-.663-.289l0,0,.283-.653,0-.005a.362.362,0,1,1,.665.288Z" transform="translate(-950.947 -459.892)" fill="#fff"/>
      <path id="Path_175165" data-name="Path 175165" d="M999.26,541.966l-.322.647a.359.359,0,0,1-.644-.32l0,0,.316-.638,0,0a.36.36,0,0,1,.646.319Z" transform="translate(-947.696 -466.816)" fill="#fff"/>
      <path id="Path_175166" data-name="Path 175166" d="M994.569,550.864l-.353.631a.357.357,0,1,1-.623-.348l0,0,.346-.623,0,0a.358.358,0,0,1,.625.348Z" transform="translate(-944.114 -473.575)" fill="#fff"/>
      <path id="Path_175167" data-name="Path 175167" d="M989.466,559.534l-.381.614a.355.355,0,1,1-.6-.375l0,0,.375-.606,0,0a.356.356,0,1,1,.605.374Z" transform="translate(-940.221 -480.162)" fill="#fff"/>
      <path id="Path_175168" data-name="Path 175168" d="M983.982,567.968l-.407.6a.353.353,0,0,1-.583-.4l0,0,.4-.59,0,0a.353.353,0,1,1,.584.4Z" transform="translate(-936.038 -486.569)" fill="#fff"/>
      <path id="Path_175169" data-name="Path 175169" d="M978.141,576.158l-.433.578a.351.351,0,1,1-.562-.42l0,0,.426-.572,0,0a.351.351,0,1,1,.563.42Z" transform="translate(-931.586 -492.793)" fill="#fff"/>
      <path id="Path_175170" data-name="Path 175170" d="M971.971,584.1l-.455.56a.348.348,0,1,1-.541-.44l0,0,.449-.555,0,0a.349.349,0,1,1,.542.439Z" transform="translate(-926.884 -498.829)" fill="#fff"/>
      <path id="Path_175171" data-name="Path 175171" d="M965.493,591.794l-.477.542a.346.346,0,1,1-.52-.457l0,0,.471-.537,0,0a.347.347,0,1,1,.521.457Z" transform="translate(-921.95 -504.676)" fill="#fff"/>
      <path id="Path_175172" data-name="Path 175172" d="M958.729,599.234l-.5.524a.344.344,0,0,1-.5-.474l0,0,.491-.519,0,0a.345.345,0,0,1,.5.474Z" transform="translate(-916.8 -510.331)" fill="#fff"/>
      <path id="Path_175173" data-name="Path 175173" d="M951.7,606.421l-.515.505a.342.342,0,0,1-.479-.488l0,0,.509-.5,0,0a.342.342,0,1,1,.48.488Z" transform="translate(-911.447 -515.793)" fill="#fff"/>
      <path id="Path_175174" data-name="Path 175174" d="M944.421,613.354l-.533.487a.34.34,0,0,1-.458-.5l0,0,.527-.483,0,0a.34.34,0,0,1,.46.5Z" transform="translate(-905.908 -521.063)" fill="#fff"/>
      <path id="Path_175175" data-name="Path 175175" d="M936.912,620.03l-.548.468a.337.337,0,1,1-.438-.513l0,0,.542-.464,0,0a.338.338,0,0,1,.44.514Z" transform="translate(-900.193 -526.139)" fill="#fff"/>
      <path id="Path_175176" data-name="Path 175176" d="M929.188,626.447l-.564.45a.335.335,0,0,1-.418-.524l0,0,.558-.447,0,0a.336.336,0,0,1,.42.525Z" transform="translate(-894.315 -531.018)" fill="#fff"/>
      <path id="Path_175177" data-name="Path 175177" d="M921.255,632.61l-.578.431a.333.333,0,0,1-.4-.534h0l.572-.428,0,0a.334.334,0,0,1,.4.534Z" transform="translate(-888.28 -535.703)" fill="#fff"/>
      <path id="Path_175178" data-name="Path 175178" d="M913.147,638.523l-.592.412a.327.327,0,0,1-.375-.536l0,0,.585-.412,0,0a.329.329,0,1,1,.379.538Z" transform="translate(-882.116 -540.202)" fill="#fff"/>
      <path id="Path_175179" data-name="Path 175179" d="M904.868,644.193l-.6.394a.321.321,0,0,1-.353-.536l0,0,.6-.394h0a.323.323,0,0,1,.356.539Z" transform="translate(-875.823 -544.52)" fill="#fff"/>
      <path id="Path_175180" data-name="Path 175180" d="M896.433,649.623l-.614.377a.315.315,0,0,1-.331-.535h0l.608-.378h0a.317.317,0,0,1,.334.538Z" transform="translate(-869.412 -548.656)" fill="#fff"/>
      <path id="Path_175181" data-name="Path 175181" d="M887.856,654.818l-.624.36a.308.308,0,0,1-.31-.533h0l.618-.361h0a.31.31,0,1,1,.313.536Z" transform="translate(-862.893 -552.613)" fill="#fff"/>
      <path id="Path_175182" data-name="Path 175182" d="M879.146,659.783l-.633.344a.3.3,0,0,1-.29-.53h0l.627-.345h0a.3.3,0,0,1,.293.532Z" transform="translate(-856.273 -556.396)" fill="#fff"/>
      <path id="Path_175183" data-name="Path 175183" d="M870.318,664.526l-.641.328a.3.3,0,0,1-.271-.525h0l.635-.33h0a.3.3,0,1,1,.274.528Z" transform="translate(-849.564 -560.01)" fill="#fff"/>
      <path id="Path_175184" data-name="Path 175184" d="M861.38,669.054l-.648.313a.289.289,0,0,1-.253-.52h0l.643-.315h0a.291.291,0,0,1,.256.523Z" transform="translate(-842.771 -563.461)" fill="#fff"/>
      <path id="Path_175185" data-name="Path 175185" d="M852.343,673.374l-.655.3a.283.283,0,0,1-.236-.514h0l.65-.3h0a.285.285,0,1,1,.239.517Z" transform="translate(-835.903 -566.754)" fill="#fff"/>
      <path id="Path_175186" data-name="Path 175186" d="M843.217,677.493l-.661.284a.277.277,0,0,1-.22-.508h0l.656-.286h0a.279.279,0,0,1,.223.51Z" transform="translate(-828.969 -569.895)" fill="#fff"/>
      <path id="Path_175187" data-name="Path 175187" d="M834.012,681.417l-.667.271a.27.27,0,0,1-.2-.5h0l.662-.273h0a.272.272,0,0,1,.208.5Z" transform="translate(-821.973 -572.887)" fill="#fff"/>
      <path id="Path_175188" data-name="Path 175188" d="M824.727,685.16l-.672.258a.264.264,0,0,1-.191-.492h0l.668-.26h0a.266.266,0,0,1,.193.5Z" transform="translate(-814.916 -575.742)" fill="#fff"/>
      <path id="Path_175189" data-name="Path 175189" d="M815.371,688.726l-.677.246a.258.258,0,0,1-.177-.484h0l.673-.248h0a.259.259,0,0,1,.18.487Z" transform="translate(-807.806 -578.463)" fill="#fff"/>
      <path id="Path_175190" data-name="Path 175190" d="M805.953,692.123l-.681.234a.251.251,0,0,1-.165-.475h0l.677-.237h0a.253.253,0,0,1,.167.478Z" transform="translate(-800.649 -581.055)" fill="#fff"/>
      <path id="Path_175191" data-name="Path 175191" d="M796.482,695.357l-.684.222a.245.245,0,1,1-.151-.466l.681-.225h0a.247.247,0,0,1,.155.469Z" transform="translate(-793.451 -583.523)" fill="#fff"/>
      <path id="Path_175192" data-name="Path 175192" d="M787.758,698.436l-.437.135a.239.239,0,0,1-.141-.457l.434-.136a.24.24,0,1,1,.146.458Z" transform="translate(-787.011 -585.874)" fill="#fff"/>
    </g>
  </g>
</svg>
