<svg xmlns="http://www.w3.org/2000/svg" width="88" height="110" viewBox="0 0 88 110">
  <g id="t0-i1" transform="translate(-8 -2)">
    <rect id="Rectangle_36640" data-name="Rectangle 36640" width="77" height="91.667" rx="2" transform="translate(9.833 18.5)" fill="#ffe9ac"/>
    <rect id="Rectangle_36641" data-name="Rectangle 36641" width="62.333" height="73.333" rx="1" transform="translate(17.167 27.667)" fill="#f6f6f6"/>
    <path id="Path_168209" data-name="Path 168209" d="M54.333,37V48H47V37Z" transform="translate(32.5 29.167)" fill="#ffe9ac"/>
    <rect id="Rectangle_36642" data-name="Rectangle 36642" width="7.333" height="7.333" transform="translate(86.833 58.833)" fill="#fff"/>
    <path id="Path_168210" data-name="Path 168210" d="M17.165,26.833A10.982,10.982,0,0,1,28,17.667h5.5V10.333a7.333,7.333,0,1,1,14.667,0v7.333h5.5A10.982,10.982,0,0,1,64.5,26.833a10.027,10.027,0,0,1,.165,1.833v3.667H17V28.667a10.028,10.028,0,0,1,.165-1.833Z" transform="translate(7.5 0.833)" fill="#f6bf28"/>
    <path id="Path_168211" data-name="Path 168211" d="M75.333,21V83.333A1.833,1.833,0,0,1,73.5,85.167H14.833A1.833,1.833,0,0,1,13,83.333Z" transform="translate(4.167 15.833)" fill="#e8e8e8"/>
    <path id="Path_168212" data-name="Path 168212" d="M30.167,43H83.333V57.667H21V43Z" transform="translate(10.833 34.167)" fill="#f6bf28"/>
    <path id="Path_168213" data-name="Path 168213" d="M65.333,33H30.5L25,34.833V38.5l5.5,1.833H72.667V33Z" transform="translate(14.167 25.833)" fill="#57f4ff"/>
    <path id="Path_168214" data-name="Path 168214" d="M85,106.5a1.833,1.833,0,0,1-1.833,1.833H13.5a1.833,1.833,0,0,1-1.833-1.833V22.167A1.833,1.833,0,0,1,13.5,20.333H26.537a12.833,12.833,0,0,0-3.32,5.5H19A3.667,3.667,0,0,0,15.333,29.5V99.167A3.667,3.667,0,0,0,19,102.833H77.667a3.667,3.667,0,0,0,3.667-3.667V97.333H77.667v1.833H19V29.5h3.667v3.667A1.833,1.833,0,0,0,24.5,35H72.167A1.833,1.833,0,0,0,74,33.167V29.5h3.667V47.833h3.667V29.5a3.667,3.667,0,0,0-3.667-3.667H73.45a12.833,12.833,0,0,0-3.329-5.5H83.167A1.833,1.833,0,0,1,85,22.167V53.333h3.667V22.167a5.5,5.5,0,0,0-5.5-5.5H57.5v-5.5a9.167,9.167,0,1,0-18.333,0v5.5H13.5a5.5,5.5,0,0,0-5.5,5.5V106.5a5.5,5.5,0,0,0,5.5,5.5H83.167a5.5,5.5,0,0,0,5.5-5.5V97.333H85ZM41,20.333A1.833,1.833,0,0,0,42.833,18.5V11.167a5.5,5.5,0,0,1,11,0V18.5a1.833,1.833,0,0,0,1.833,1.833h5.5A9.178,9.178,0,0,1,70.333,29.5v1.833h-44V29.5A9.178,9.178,0,0,1,35.5,20.333Z" transform="translate(0 0)"/>
    <circle id="Ellipse_5375" data-name="Ellipse 5375" cx="1.833" cy="1.833" r="1.833" transform="translate(46.5 9.333)"/>
    <path id="Path_168215" data-name="Path 168215" d="M84.167,42H21.833A1.833,1.833,0,0,0,20,43.833V58.5a1.833,1.833,0,0,0,1.833,1.833H84.167A1.833,1.833,0,0,0,86,58.5V43.833A1.833,1.833,0,0,0,84.167,42ZM82.333,56.667H23.667v-11h5.5v3.667h3.667V45.667h7.333v3.667h3.667V45.667h7.333v3.667h3.667V45.667h7.333v3.667h3.667V45.667h7.333v3.667h3.667V45.667h5.5Z" transform="translate(10 33.333)"/>
    <path id="Path_168216" data-name="Path 168216" d="M82.5,34.5H69.667V30.833A1.833,1.833,0,0,0,67.833,29H58.667v3.667H66V34.5H33a1.833,1.833,0,0,0-.579.1l-5.5,1.833a1.833,1.833,0,0,0-1.254,1.738H22v3.667h3.667a1.833,1.833,0,0,0,1.254,1.738l5.5,1.833a1.834,1.834,0,0,0,.579.1H82.5a1.833,1.833,0,0,0,1.833-1.833V36.333A1.833,1.833,0,0,0,82.5,34.5ZM29.333,40.512V39.488L33.3,38.167H73.333v3.667H33.3Zm51.333,1.322H77V38.167h3.667Z" transform="translate(11.667 22.5)"/>
    <rect id="Rectangle_36643" data-name="Rectangle 36643" width="7.333" height="3.667" transform="translate(26.333 42.333)"/>
    <rect id="Rectangle_36644" data-name="Rectangle 36644" width="3.667" height="3.667" transform="translate(37.333 42.333)"/>
    <rect id="Rectangle_36645" data-name="Rectangle 36645" width="14.667" height="3.667" transform="translate(44.667 42.333)"/>
    <rect id="Rectangle_36646" data-name="Rectangle 36646" width="14.667" height="3.667" transform="translate(26.333 49.667)"/>
    <rect id="Rectangle_36647" data-name="Rectangle 36647" width="14.667" height="3.667" transform="translate(44.667 49.667)"/>
  </g>
</svg>
