<svg xmlns="http://www.w3.org/2000/svg" width="100" height="100" viewBox="0 0 100 100">
  <g id="t1-ic4" transform="translate(6114 8963)">
    <rect id="Rectangle_36880" data-name="Rectangle 36880" width="100" height="100" rx="10" transform="translate(-6114 -8963)" fill="#f6bf28"/>
    <g id="logistica" transform="translate(-6101 -8944.502)">
      <path id="Path_172174" data-name="Path 172174" d="M173.907,32.682l.044-.011a1.423,1.423,0,0,0,.153-.052l.012,0a1.494,1.494,0,0,0,.161-.079l.011-.006,12.685-7.324a1.464,1.464,0,0,0,.732-1.269V9.29a.092.092,0,0,0,0-.013,1.583,1.583,0,0,0-.011-.18l0-.01a1.461,1.461,0,0,0-.032-.161l-.012-.042c-.013-.043-.027-.086-.043-.128l-.017-.042a1.332,1.332,0,0,0-.174-.3c-.009-.013-.019-.024-.029-.036-.028-.035-.057-.069-.088-.1l-.032-.033a1.393,1.393,0,0,0-.12-.106l-.011-.009a1.39,1.39,0,0,0-.148-.1l-.011-.008L174.289.7a1.465,1.465,0,0,0-1.464,0L160.139,8.021l-.01.007a1.5,1.5,0,0,0-.149.1l-.008.007a1.572,1.572,0,0,0-.123.108l-.031.032c-.031.032-.061.066-.089.1l-.028.035a1.486,1.486,0,0,0-.1.145,1.535,1.535,0,0,0-.078.157c-.006.014-.011.028-.016.042-.017.042-.031.085-.044.128l-.012.042a1.577,1.577,0,0,0-.032.161l0,.01a1.447,1.447,0,0,0-.012.179s0,.009,0,.013V23.937a1.464,1.464,0,0,0,.732,1.269l12.686,7.324.011.006a1.443,1.443,0,0,0,.161.079l.011,0a1.39,1.39,0,0,0,.154.052l.043.011c.043.01.087.019.132.026l.046.007a1.328,1.328,0,0,0,.348,0l.045-.007c.044-.007.088-.015.131-.026Zm9.4-23.392-9.756,5.632-3.413-1.97L179.9,7.319Zm-8.291,19.434V17.459l9.756-5.632V23.092ZM173.556,3.658l3.413,1.97-9.756,5.633L163.8,9.29Zm-11.22,8.169,9.756,5.632V28.724l-9.756-5.632Zm0,0" transform="translate(-136.055)"/>
      <path id="Path_172175" data-name="Path 172175" d="M294.8,112.7a4.145,4.145,0,0,0-4.967,3.23l-2.046,9.163a4.05,4.05,0,0,0-4.3,1.2l-2.671,3.085c-1.935,2.236-1.935,2.236-3.957,2.773-.472.126-1.059.282-1.772.491-8.244,2.416-11.48,9.994-11.829,16.216a3.32,3.32,0,0,0-1.884,2.99v2.542a3.32,3.32,0,0,0,3.316,3.316h13.433a3.32,3.32,0,0,0,3.316-3.316v-2.542a3.293,3.293,0,0,0-.478-1.713l6.022-3.235.019-.01c5.257-2.922,6.159-4.236,7.424-10.817a1.465,1.465,0,0,0-2.877-.553c-1.143,5.944-1.655,6.41-5.961,8.8l-7.833,4.207H266.215c.427-5.133,3.129-11.156,9.694-13.079.677-.2,1.222-.343,1.7-.471,2.566-.683,3.033-.932,5.418-3.687l2.671-3.085a1.123,1.123,0,0,1,1.574-.113c.575.5.272,1.316,0,1.721-1.39,2.088-2.76,4.079-4.086,6-.677.984-1.354,1.968-2.036,2.969a1.465,1.465,0,0,0,2.42,1.651c.68-1,1.355-1.978,2.03-2.959,1.331-1.934,2.707-3.934,4.11-6.041a4.442,4.442,0,0,0,.553-4.014l2.424-10.861a1.214,1.214,0,0,1,1.512-1,1.1,1.1,0,0,1,.917,1.421l-1.66,8.614a1.465,1.465,0,0,0,2.876.554l1.66-8.615A4.013,4.013,0,0,0,294.8,112.7Zm-16.291,41.693a.391.391,0,0,1-.386.386H264.687a.391.391,0,0,1-.386-.386v-2.542a.391.391,0,0,1,.386-.386h13.435a.392.392,0,0,1,.384.386Zm0,0" transform="translate(-223.084 -95.689)"/>
      <path id="Path_172176" data-name="Path 172176" d="M476.5,221.431a1.464,1.464,0,0,0-1.714,1.163l-.007.038a1.465,1.465,0,0,0,1.162,1.715,1.491,1.491,0,0,0,.278.026,1.465,1.465,0,0,0,1.437-1.188l.007-.039A1.465,1.465,0,0,0,476.5,221.431Zm0,0" transform="translate(-405.204 -188.544)"/>
      <path id="Path_172177" data-name="Path 172177" d="M34.83,148.857c-.349-6.222-3.584-13.8-11.829-16.216-.713-.209-1.3-.365-1.772-.491-2.021-.538-2.021-.538-3.957-2.773l-2.67-3.085a4.052,4.052,0,0,0-4.3-1.2l-2.045-9.163a4.144,4.144,0,0,0-4.967-3.23,4.013,4.013,0,0,0-3.2,4.844,1.465,1.465,0,1,0,2.876-.554,1.1,1.1,0,0,1,.917-1.422,1.214,1.214,0,0,1,1.512,1L7.82,127.426a4.442,4.442,0,0,0,.553,4.014c1.4,2.106,2.779,4.106,4.11,6.041.675.981,1.35,1.962,2.03,2.959a1.465,1.465,0,1,0,2.42-1.651c-.683-1-1.36-1.985-2.036-2.969-1.325-1.925-2.695-3.917-4.086-6-.27-.405-.573-1.223,0-1.721a1.123,1.123,0,0,1,1.574.113l2.67,3.085c2.386,2.755,2.853,3,5.419,3.687.48.128,1.023.272,1.7.471,6.564,1.924,9.267,7.946,9.694,13.079H20.333L12.5,144.325c-4.306-2.394-4.819-2.86-5.962-8.805l-1.66-8.614A1.465,1.465,0,1,0,2,127.46l1.66,8.613c1.265,6.581,2.167,7.895,7.424,10.817l.018.01,6.022,3.234a3.3,3.3,0,0,0-.477,1.713v2.542a3.32,3.32,0,0,0,3.316,3.316H33.4a3.32,3.32,0,0,0,3.316-3.316v-2.542a3.321,3.321,0,0,0-1.884-2.99Zm-1.046,5.533a.391.391,0,0,1-.386.386H19.964a.391.391,0,0,1-.386-.386v-2.542a.392.392,0,0,1,.384-.386H33.4a.391.391,0,0,1,.386.386Zm0,0" transform="translate(0 -95.684)"/>
      <path id="Path_172178" data-name="Path 172178" d="M9.739,176.574a1.465,1.465,0,0,0,1.163-1.714l-.007-.039a1.465,1.465,0,1,0-2.877.552l.007.038A1.465,1.465,0,0,0,9.461,176.6a1.483,1.483,0,0,0,.278-.026Zm0,0" transform="translate(-6.819 -147.769)"/>
    </g>
  </g>
</svg>
