<svg xmlns="http://www.w3.org/2000/svg" width="505" height="300" viewBox="0 0 505 300">
  <g id="t1-i3" transform="translate(771 236)">
    <rect id="Rectángulo_36507" data-name="Rectángulo 36507" width="505" height="300" transform="translate(-771 -236)" fill="none"/>
    <g id="Group_110006" data-name="Group 110006">
      <path id="Path_168144" data-name="Path 168144" d="M-312.555-26.657C-251.6-99.126-366.207-182.2-470.7-217.711c-90.177-30.646-215.625-21.628-228.986,18.447-13.179,39.528,60.651,39.022,52.716,94.868C-655.211-46.421-672.916-51.5-693.1-9.528-701.337,7.6-704.917,42.4-663.448,55.035-594.258,76.117-393.277,64.259-312.555-26.657Z" fill="#e9fbfc"/>
      <path id="Path_168145" data-name="Path 168145" d="M-706.888-58.719c14.651.965,39.816-11.58,23.871-60.4-9.22-28.233-30.859-42.109-51.512-37.289-18.116,4.227,4.912,32.025,6.049,48.585C-726.544-79.642-729.38-60.2-706.888-58.719Z" fill="#e9fbfc"/>
      <path id="Path_168146" data-name="Path 168146" d="M-314.763-169.249c19.206-.2,1.006-22.793-17.868-40.663-14.791-14-40.769-7.521-43.062,6.7-2.675,16.59,23.447,13.372,34.636,15.686C-319.217-183.005-328.318-169.106-314.763-169.249Z" fill="#e9fbfc"/>
    </g>
    <g id="Group_110073" data-name="Group 110073">
      <g id="Group_110023" data-name="Group 110023">
        <g id="Group_110013" data-name="Group 110013">
          <g id="Group_110007" data-name="Group 110007">
            <path id="Path_168147" data-name="Path 168147" d="M-303.091,29.3H-753.5V-224.279h450.4ZM-752.7,28.5h448.813V-223.483H-752.7Z" fill="#91e8ed"/>
          </g>
          <g id="Group_110008" data-name="Group 110008">
            <rect id="Rectangle_36513" data-name="Rectangle 36513" width="449.609" height="0.795" transform="translate(-753.098 -13.627)" fill="#91e8ed"/>
          </g>
          <g id="Group_110009" data-name="Group 110009">
            <rect id="Rectangle_36514" data-name="Rectangle 36514" width="449.609" height="0.795" transform="translate(-753.098 -55.757)" fill="#91e8ed"/>
          </g>
          <g id="Group_110010" data-name="Group 110010">
            <rect id="Rectangle_36515" data-name="Rectangle 36515" width="449.609" height="0.796" transform="translate(-753.098 -97.888)" fill="#91e8ed"/>
          </g>
          <g id="Group_110011" data-name="Group 110011">
            <rect id="Rectangle_36516" data-name="Rectangle 36516" width="449.609" height="0.796" transform="translate(-753.098 -140.018)" fill="#91e8ed"/>
          </g>
          <g id="Group_110012" data-name="Group 110012">
            <rect id="Rectangle_36517" data-name="Rectangle 36517" width="449.609" height="0.796" transform="translate(-753.098 -182.149)" fill="#91e8ed"/>
          </g>
        </g>
        <g id="Group_110014" data-name="Group 110014">
          <rect id="Rectangle_36518" data-name="Rectangle 36518" width="0.796" height="252.782" transform="translate(-528.691 -223.881)" fill="#91e8ed"/>
        </g>
        <g id="Group_110015" data-name="Group 110015">
          <rect id="Rectangle_36519" data-name="Rectangle 36519" width="0.796" height="252.782" transform="translate(-573.652 -223.881)" fill="#91e8ed"/>
        </g>
        <g id="Group_110016" data-name="Group 110016">
          <rect id="Rectangle_36520" data-name="Rectangle 36520" width="0.796" height="252.782" transform="translate(-618.613 -223.881)" fill="#91e8ed"/>
        </g>
        <g id="Group_110017" data-name="Group 110017">
          <rect id="Rectangle_36521" data-name="Rectangle 36521" width="0.796" height="252.782" transform="translate(-663.574 -223.881)" fill="#91e8ed"/>
        </g>
        <g id="Group_110018" data-name="Group 110018">
          <rect id="Rectangle_36522" data-name="Rectangle 36522" width="0.796" height="252.782" transform="translate(-708.535 -223.881)" fill="#91e8ed"/>
        </g>
        <g id="Group_110019" data-name="Group 110019">
          <rect id="Rectangle_36523" data-name="Rectangle 36523" width="0.796" height="252.782" transform="translate(-393.809 -223.881)" fill="#91e8ed"/>
        </g>
        <g id="Group_110020" data-name="Group 110020">
          <rect id="Rectangle_36524" data-name="Rectangle 36524" width="0.796" height="252.782" transform="translate(-438.77 -223.881)" fill="#91e8ed"/>
        </g>
        <g id="Group_110021" data-name="Group 110021">
          <rect id="Rectangle_36525" data-name="Rectangle 36525" width="0.796" height="252.782" transform="translate(-483.731 -223.881)" fill="#91e8ed"/>
        </g>
        <g id="Group_110022" data-name="Group 110022">
          <rect id="Rectangle_36526" data-name="Rectangle 36526" width="0.796" height="252.782" transform="translate(-348.848 -223.881)" fill="#91e8ed"/>
        </g>
      </g>
      <g id="Group_110026" data-name="Group 110026">
        <g id="Group_110024" data-name="Group 110024">
          <rect id="Rectangle_36527" data-name="Rectangle 36527" width="39.771" height="172.91" transform="translate(-717.653 -144.009)" fill="#e1eef6"/>
          <rect id="Rectangle_36528" data-name="Rectangle 36528" width="39.771" height="87.113" transform="translate(-668.902 -58.212)" fill="#e1eef6"/>
          <rect id="Rectangle_36529" data-name="Rectangle 36529" width="39.771" height="196.389" transform="translate(-620.15 -167.488)" fill="#e1eef6"/>
          <rect id="Rectangle_36530" data-name="Rectangle 36530" width="39.771" height="220.087" transform="translate(-571.399 -191.186)" fill="#e1eef6"/>
          <rect id="Rectangle_36531" data-name="Rectangle 36531" width="39.771" height="150.309" transform="translate(-522.647 -121.408)" fill="#e1eef6"/>
          <rect id="Rectangle_36532" data-name="Rectangle 36532" width="39.771" height="220.087" transform="translate(-473.896 -191.186)" fill="#e1eef6"/>
          <rect id="Rectangle_36533" data-name="Rectangle 36533" width="39.771" height="167.863" transform="translate(-425.144 -138.962)" fill="#e1eef6"/>
          <rect id="Rectangle_36534" data-name="Rectangle 36534" width="39.771" height="205.605" transform="translate(-376.393 -176.704)" fill="#e1eef6"/>
        </g>
        <g id="Group_110025" data-name="Group 110025">
          <rect id="Rectangle_36535" data-name="Rectangle 36535" width="39.771" height="61.001" transform="translate(-717.653 -144.009)" fill="#fff"/>
          <rect id="Rectangle_36536" data-name="Rectangle 36536" width="39.771" height="31.817" transform="translate(-668.902 -58.212)" fill="#fff"/>
          <rect id="Rectangle_36537" data-name="Rectangle 36537" width="39.771" height="58.149" transform="translate(-620.15 -167.488)" fill="#fff"/>
          <rect id="Rectangle_36538" data-name="Rectangle 36538" width="39.771" height="124.635" transform="translate(-571.399 -191.186)" fill="#fff"/>
          <rect id="Rectangle_36539" data-name="Rectangle 36539" width="39.771" height="42.35" transform="translate(-522.647 -121.408)" fill="#fff"/>
          <rect id="Rectangle_36540" data-name="Rectangle 36540" width="39.771" height="85.797" transform="translate(-473.896 -191.186)" fill="#fff"/>
          <rect id="Rectangle_36541" data-name="Rectangle 36541" width="39.771" height="98.085" transform="translate(-425.144 -138.962)" fill="#fff"/>
          <rect id="Rectangle_36542" data-name="Rectangle 36542" width="39.771" height="85.138" transform="translate(-376.393 -176.704)" fill="#fff"/>
        </g>
      </g>
      <g id="Group_110037" data-name="Group 110037">
        <g id="Group_110027" data-name="Group 110027">
          <rect id="Rectangle_36543" data-name="Rectangle 36543" width="1.591" height="51.173" transform="translate(-716.717 -186.026)" fill="#49e4ed"/>
          <rect id="Rectangle_36544" data-name="Rectangle 36544" width="7.954" height="25.015" transform="translate(-719.898 -173.193)" fill="#5085c7"/>
        </g>
        <g id="Group_110028" data-name="Group 110028">
          <rect id="Rectangle_36545" data-name="Rectangle 36545" width="1.591" height="36.854" transform="translate(-661.091 -129.413)" fill="#49e4ed"/>
          <rect id="Rectangle_36546" data-name="Rectangle 36546" width="7.954" height="12.727" transform="translate(-664.272 -116.58)" fill="#0475b7"/>
        </g>
        <g id="Group_110029" data-name="Group 110029">
          <rect id="Rectangle_36547" data-name="Rectangle 36547" width="1.591" height="51.173" transform="translate(-638.38 -181.678)" fill="#49e4ed"/>
          <rect id="Rectangle_36548" data-name="Rectangle 36548" width="7.954" height="32.174" transform="translate(-641.562 -172.823)" fill="#0475b7"/>
        </g>
        <g id="Group_110030" data-name="Group 110030">
          <rect id="Rectangle_36549" data-name="Rectangle 36549" width="1.591" height="51.173" transform="translate(-607.44 -218.94)" fill="#49e4ed"/>
          <rect id="Rectangle_36550" data-name="Rectangle 36550" width="7.954" height="17.856" transform="translate(-610.622 -210.88)" fill="#0475b7"/>
        </g>
        <g id="Group_110031" data-name="Group 110031">
          <rect id="Rectangle_36551" data-name="Rectangle 36551" width="1.591" height="51.173" transform="translate(-588.35 -144.554)" fill="#49e4ed"/>
          <rect id="Rectangle_36552" data-name="Rectangle 36552" width="7.954" height="34.561" transform="translate(-591.532 -136.494)" fill="#0475b7"/>
        </g>
        <g id="Group_110032" data-name="Group 110032">
          <rect id="Rectangle_36553" data-name="Rectangle 36553" width="1.591" height="39.241" transform="translate(-563.994 -196.777)" fill="#49e4ed"/>
          <rect id="Rectangle_36554" data-name="Rectangle 36554" width="7.954" height="18.651" transform="translate(-567.175 -187.126)" fill="#0475b7"/>
        </g>
        <g id="Group_110033" data-name="Group 110033">
          <rect id="Rectangle_36555" data-name="Rectangle 36555" width="1.914" height="51.173" transform="translate(-538.661 -161.778)" fill="#49e4ed"/>
          <rect id="Rectangle_36556" data-name="Rectangle 36556" width="9.573" height="28.197" transform="translate(-542.49 -152.128)" fill="#0475b7"/>
        </g>
        <g id="Group_110034" data-name="Group 110034">
          <rect id="Rectangle_36557" data-name="Rectangle 36557" width="1.914" height="25.718" transform="translate(-517.417 -203.744)" fill="#49e4ed"/>
          <rect id="Rectangle_36558" data-name="Rectangle 36558" width="9.573" height="9.216" transform="translate(-521.246 -198.866)" fill="#0475b7"/>
        </g>
        <rect id="Rectangle_36559" data-name="Rectangle 36559" width="1.915" height="25.718" transform="matrix(0.999, -0.032, 0.032, 0.999, -359.845, -191.199)" fill="#49e4ed"/>
        <rect id="Rectangle_36560" data-name="Rectangle 36560" width="9.573" height="9.216" transform="matrix(0.999, -0.032, 0.032, 0.999, -363.514, -186.199)" fill="#0475b7"/>
        <g id="Group_110035" data-name="Group 110035">
          <rect id="Rectangle_36561" data-name="Rectangle 36561" width="1.591" height="51.173" transform="translate(-683.802 -168.91)" fill="#49e4ed"/>
          <rect id="Rectangle_36562" data-name="Rectangle 36562" width="7.954" height="19.09" transform="translate(-686.983 -157.888)" fill="#0475b7"/>
        </g>
        <g id="Group_110036" data-name="Group 110036">
          <rect id="Rectangle_36563" data-name="Rectangle 36563" width="1.914" height="51.173" transform="translate(-498.985 -164.383)" fill="#49e4ed"/>
          <rect id="Rectangle_36564" data-name="Rectangle 36564" width="9.573" height="22.053" transform="translate(-502.814 -142.993)" fill="#0475b7"/>
        </g>
        <rect id="Rectangle_36565" data-name="Rectangle 36565" width="1.915" height="51.173" transform="translate(-471.666 -212.714)" fill="#49e4ed"/>
        <rect id="Rectangle_36566" data-name="Rectangle 36566" width="9.573" height="35.109" transform="translate(-475.495 -204.16)" fill="#0475b7"/>
        <rect id="Rectangle_36567" data-name="Rectangle 36567" width="1.915" height="43.218" transform="translate(-443.031 -156.018)" fill="#49e4ed"/>
        <rect id="Rectangle_36568" data-name="Rectangle 36568" width="9.573" height="18.761" transform="translate(-446.86 -144.887)" fill="#0475b7"/>
        <rect id="Rectangle_36569" data-name="Rectangle 36569" width="1.915" height="51.173" transform="translate(-417.029 -193.925)" fill="#49e4ed"/>
        <rect id="Rectangle_36570" data-name="Rectangle 36570" width="9.573" height="25.015" transform="translate(-420.858 -185.865)" fill="#0475b7"/>
        <rect id="Rectangle_36571" data-name="Rectangle 36571" width="1.915" height="40.832" transform="translate(-389.71 -219.598)" fill="#49e4ed"/>
        <rect id="Rectangle_36572" data-name="Rectangle 36572" width="9.573" height="14.674" transform="translate(-393.539 -206.766)" fill="#0475b7"/>
        <rect id="Rectangle_36573" data-name="Rectangle 36573" width="1.914" height="40.832" transform="translate(-375.227 -147.941)" fill="#49e4ed"/>
        <rect id="Rectangle_36574" data-name="Rectangle 36574" width="9.573" height="14.674" transform="translate(-379.056 -135.108)" fill="#0475b7"/>
      </g>
      <path id="Path_168148" data-name="Path 168148" d="M-320.078-209.5l-20.632,5.529,17.45,6.806-75.152,67.141a9.884,9.884,0,0,0-4.123-.9,9.907,9.907,0,0,0-4.012.849l-40.929-37.958a9.9,9.9,0,0,0,.575-3.308,9.943,9.943,0,0,0-9.943-9.942,9.943,9.943,0,0,0-9.943,9.942,9.935,9.935,0,0,0,.247,2.176l-105.678,80.5a9.88,9.88,0,0,0-6-2.028,9.911,9.911,0,0,0-6.971,2.857l-30.348-17.491a10.084,10.084,0,0,0,.081-1.211,9.943,9.943,0,0,0-9.943-9.943,9.943,9.943,0,0,0-9.943,9.943,9.907,9.907,0,0,0,.742,3.762L-740.978,7.922a9.919,9.919,0,0,0-3.359-.594,9.943,9.943,0,0,0-9.942,9.943,9.943,9.943,0,0,0,9.942,9.943,9.943,9.943,0,0,0,9.943-9.943,9.912,9.912,0,0,0-.793-3.895l106.3-110.611a9.915,9.915,0,0,0,3.491.642,9.883,9.883,0,0,0,5.811-1.886l31.447,18.125a9.934,9.934,0,0,0,9.923,9.548,9.942,9.942,0,0,0,9.942-9.942c0-.3-.018-.593-.044-.885l106.486-81.118a9.879,9.879,0,0,0,4.99,1.352,9.893,9.893,0,0,0,3.944-.817l40.971,38a9.9,9.9,0,0,0-.549,3.235,9.942,9.942,0,0,0,9.943,9.943,9.943,9.943,0,0,0,9.943-9.943,9.94,9.94,0,0,0-.507-3.12l75.616-67.555,6.98,17.9,5.528-20.631,5.528-20.632Z" fill="#ff805a"/>
      <g id="Group_110038" data-name="Group 110038">
        <circle id="Ellipse_5370" data-name="Ellipse 5370" cx="19.841" cy="19.841" r="19.841" transform="translate(-434.899 2.529) rotate(-64.476)" fill="none"/>
        <path id="Path_168149" data-name="Path 168149" d="M-417.417-31.85a26.584,26.584,0,0,0-16.051,34A26.584,26.584,0,0,0-399.473,18.2,26.583,26.583,0,0,0-383.422-15.8,26.583,26.583,0,0,0-417.417-31.85Zm16.1,44.9A21.112,21.112,0,0,1-428.318.3a21.112,21.112,0,0,1,12.747-27,21.112,21.112,0,0,1,27,12.748A21.112,21.112,0,0,1-401.319,13.047Z" fill="#5085c7"/>
        <path id="Path_168150" data-name="Path 168150" d="M-364.564,5.737a45.62,45.62,0,0,0,1.454-7.416L-371.167-4.9a37.131,37.131,0,0,0-.058-4.5l7.929-3.735a45.6,45.6,0,0,0-1.666-7.256l-8.657.336a37.392,37.392,0,0,0-1.974-4.3l5.721-6.634a45.168,45.168,0,0,0-4.392-5.86l-7.775,3.83a37.275,37.275,0,0,0-3.745-3.27l2.524-8.37a45.8,45.8,0,0,0-6.324-3.49l-5.545,6.662a37.52,37.52,0,0,0-4.929-1.5l-1.1-8.655a45.3,45.3,0,0,0-7.124-.583l-2.361,8.36a37.1,37.1,0,0,0-5.209.692l-4.512-7.441q-1.705.467-3.4,1.072t-3.307,1.332l1.245,8.613a36.987,36.987,0,0,0-4.462,2.775l-7.136-4.954a45.294,45.294,0,0,0-5.13,4.976l4.652,7.381a37.484,37.484,0,0,0-2.851,4.291l-8.516-1.621a45.954,45.954,0,0,0-2.665,6.713l7.267,4.86a37.326,37.326,0,0,0-.813,4.9l-8.438,1.983a45.064,45.064,0,0,0,.333,7.316l8.632,1.487a37.625,37.625,0,0,0,1.211,4.578l-6.9,5.241A45.631,45.631,0,0,0-447.312,17l8.5-2.154A37.04,37.04,0,0,0-436,18.35l-4.176,7.6a45.59,45.59,0,0,0,5.835,4.8l6.883-5.422a37.538,37.538,0,0,0,3.8,1.973l-.723,8.662a45.711,45.711,0,0,0,7.357,2.081l4.076-7.74a36.92,36.92,0,0,0,4.135.28l2.869,8.226a45.207,45.207,0,0,0,7.618-1.065l.575-8.716q.974-.291,1.942-.637t1.9-.743l5.982,6.365A45.22,45.22,0,0,0-381.368,30l-3.011-8.175a36.88,36.88,0,0,0,3.014-2.843l8.066,3.386a45.629,45.629,0,0,0,4.358-6.282L-375,9.862a37.378,37.378,0,0,0,1.678-3.937Zm-34.279,14.214a28.448,28.448,0,0,1-36.38-17.176A28.448,28.448,0,0,1-418.046-33.6a28.448,28.448,0,0,1,36.379,17.177A28.446,28.446,0,0,1-398.843,19.951Z" fill="#5085c7"/>
      </g>
      <path id="Path_168151" data-name="Path 168151" d="M-349.189-60.577a16.548,16.548,0,0,0-1.188-2.112l1.915-3.259a19.717,19.717,0,0,0-2.245-2.4l-3.376,1.7a16.445,16.445,0,0,0-4.233-2.328l-.367-3.761a20,20,0,0,0-3.226-.621l-1.73,3.359a16.272,16.272,0,0,0-4.795.6l-2.506-2.825q-.764.285-1.516.636t-1.458.76l.574,3.733a16.28,16.28,0,0,0-3.526,3.3l-3.69-.813a20.039,20.039,0,0,0-1.582,2.878l2.661,2.685a16.415,16.415,0,0,0-.912,4.744l-3.465,1.511a19.682,19.682,0,0,0,.41,3.258l3.731.608a16.551,16.551,0,0,0,.866,2.262,16.548,16.548,0,0,0,1.188,2.112l-1.915,3.259a19.719,19.719,0,0,0,2.245,2.4l3.377-1.7a16.423,16.423,0,0,0,4.232,2.328l.367,3.761a20,20,0,0,0,3.226.621l1.731-3.359a16.265,16.265,0,0,0,4.794-.6l2.506,2.825q.765-.285,1.516-.636t1.458-.76l-.574-3.733a16.257,16.257,0,0,0,3.526-3.305l3.69.813a19.938,19.938,0,0,0,1.582-2.878l-2.66-2.685a16.414,16.414,0,0,0,.911-4.744l3.466-1.511a19.787,19.787,0,0,0-.41-3.258l-3.732-.608A16.425,16.425,0,0,0-349.189-60.577Zm-10.673,15.812a9.776,9.776,0,0,1-13-4.692,9.776,9.776,0,0,1,4.693-13,9.775,9.775,0,0,1,13,4.692A9.776,9.776,0,0,1-359.862-44.765Z" fill="#5085c7"/>
      <path id="Path_168152" data-name="Path 168152" d="M-389.588-77.2a23.454,23.454,0,0,0-.1-3.424l4.542-2.819a27.807,27.807,0,0,0-1.232-4.476l-5.345-.094a23.217,23.217,0,0,0-3.766-5.7l2.017-4.949a28.165,28.165,0,0,0-3.628-2.9l-4.377,3.065a23.012,23.012,0,0,0-6.4-2.4l-1.276-5.185q-1.145-.147-2.317-.2c-.781-.035-1.556-.036-2.325-.008l-1.739,5.049a23,23,0,0,0-6.587,1.815l-4.083-3.447a28.2,28.2,0,0,0-3.875,2.561l1.562,5.111a23.241,23.241,0,0,0-4.264,5.337l-5.332-.389a27.813,27.813,0,0,0-1.631,4.346l4.269,3.218a23.424,23.424,0,0,0-.4,3.4,23.446,23.446,0,0,0,.1,3.424l-4.542,2.819a27.807,27.807,0,0,0,1.232,4.476l5.345.094a23.266,23.266,0,0,0,3.765,5.7l-2.017,4.948a28.071,28.071,0,0,0,3.629,2.9l4.377-3.064a23.01,23.01,0,0,0,6.4,2.4l1.276,5.186c.763.1,1.535.166,2.317.2s1.556.037,2.325.009l1.739-5.05a23,23,0,0,0,6.587-1.814l4.083,3.446a28.2,28.2,0,0,0,3.875-2.561l-1.562-5.111a23.236,23.236,0,0,0,4.264-5.336l5.332.389a27.964,27.964,0,0,0,1.631-4.347l-4.269-3.217A23.438,23.438,0,0,0-389.588-77.2Zm-23.767,12.763A13.822,13.822,0,0,1-426.54-78.868a13.823,13.823,0,0,1,14.433-13.185A13.823,13.823,0,0,1-398.922-77.62,13.823,13.823,0,0,1-413.355-64.435Z" fill="#5085c7"/>
      <g id="Group_110057" data-name="Group 110057">
        <g id="Group_110050" data-name="Group 110050">
          <g id="Group_110039" data-name="Group 110039">
            <rect id="Rectangle_36575" data-name="Rectangle 36575" width="70.322" height="12.114" transform="translate(-643.772 -28.422)" fill="#fcde16"/>
            <rect id="Rectangle_36576" data-name="Rectangle 36576" width="2.524" height="12.114" transform="translate(-639.331 -28.422)" fill="#d2b982" style="mix-blend-mode: multiply;isolation: isolate"/>
            <rect id="Rectangle_36577" data-name="Rectangle 36577" width="2.524" height="12.114" transform="translate(-631.898 -28.422)" fill="#d2b982" style="mix-blend-mode: multiply;isolation: isolate"/>
            <rect id="Rectangle_36578" data-name="Rectangle 36578" width="2.524" height="12.114" transform="translate(-624.464 -28.422)" fill="#d2b982" style="mix-blend-mode: multiply;isolation: isolate"/>
            <rect id="Rectangle_36579" data-name="Rectangle 36579" width="2.524" height="12.114" transform="translate(-617.031 -28.422)" fill="#d2b982" style="mix-blend-mode: multiply;isolation: isolate"/>
            <rect id="Rectangle_36580" data-name="Rectangle 36580" width="2.524" height="12.114" transform="translate(-609.598 -28.422)" fill="#d2b982" style="mix-blend-mode: multiply;isolation: isolate"/>
            <rect id="Rectangle_36581" data-name="Rectangle 36581" width="2.524" height="12.114" transform="translate(-602.164 -28.422)" fill="#d2b982" style="mix-blend-mode: multiply;isolation: isolate"/>
            <rect id="Rectangle_36582" data-name="Rectangle 36582" width="2.524" height="12.114" transform="translate(-594.731 -28.422)" fill="#d2b982" style="mix-blend-mode: multiply;isolation: isolate"/>
            <rect id="Rectangle_36583" data-name="Rectangle 36583" width="2.524" height="12.114" transform="translate(-587.298 -28.422)" fill="#d2b982" style="mix-blend-mode: multiply;isolation: isolate"/>
            <rect id="Rectangle_36584" data-name="Rectangle 36584" width="2.524" height="12.114" transform="translate(-579.865 -28.422)" fill="#d2b982" style="mix-blend-mode: multiply;isolation: isolate"/>
          </g>
          <g id="Group_110041" data-name="Group 110041">
            <g id="Group_110040" data-name="Group 110040">
              <rect id="Rectangle_36585" data-name="Rectangle 36585" width="70.322" height="12.114" transform="translate(-653.25 -16.309)" fill="#fcde16"/>
              <rect id="Rectangle_36586" data-name="Rectangle 36586" width="2.524" height="12.114" transform="translate(-648.81 -16.309)" fill="#d2b982" style="mix-blend-mode: multiply;isolation: isolate"/>
              <rect id="Rectangle_36587" data-name="Rectangle 36587" width="2.524" height="12.114" transform="translate(-641.376 -16.309)" fill="#d2b982" style="mix-blend-mode: multiply;isolation: isolate"/>
              <rect id="Rectangle_36588" data-name="Rectangle 36588" width="2.524" height="12.114" transform="translate(-633.943 -16.309)" fill="#d2b982" style="mix-blend-mode: multiply;isolation: isolate"/>
              <rect id="Rectangle_36589" data-name="Rectangle 36589" width="2.524" height="12.114" transform="translate(-626.51 -16.309)" fill="#d2b982" style="mix-blend-mode: multiply;isolation: isolate"/>
              <rect id="Rectangle_36590" data-name="Rectangle 36590" width="2.524" height="12.114" transform="translate(-619.076 -16.309)" fill="#d2b982" style="mix-blend-mode: multiply;isolation: isolate"/>
              <rect id="Rectangle_36591" data-name="Rectangle 36591" width="2.524" height="12.114" transform="translate(-611.643 -16.309)" fill="#d2b982" style="mix-blend-mode: multiply;isolation: isolate"/>
              <rect id="Rectangle_36592" data-name="Rectangle 36592" width="2.524" height="12.114" transform="translate(-604.209 -16.309)" fill="#d2b982" style="mix-blend-mode: multiply;isolation: isolate"/>
              <rect id="Rectangle_36593" data-name="Rectangle 36593" width="2.524" height="12.114" transform="translate(-596.776 -16.309)" fill="#d2b982" style="mix-blend-mode: multiply;isolation: isolate"/>
              <rect id="Rectangle_36594" data-name="Rectangle 36594" width="2.524" height="12.114" transform="translate(-589.343 -16.309)" fill="#d2b982" style="mix-blend-mode: multiply;isolation: isolate"/>
            </g>
            <rect id="Rectangle_36595" data-name="Rectangle 36595" width="70.322" height="1.702" transform="translate(-653.25 -16.309)" fill="#e8dbbf" style="mix-blend-mode: multiply;isolation: isolate"/>
          </g>
          <g id="Group_110043" data-name="Group 110043">
            <g id="Group_110042" data-name="Group 110042">
              <rect id="Rectangle_36596" data-name="Rectangle 36596" width="70.322" height="12.114" transform="translate(-644.322 -4.195)" fill="#fcde16"/>
              <rect id="Rectangle_36597" data-name="Rectangle 36597" width="2.524" height="12.114" transform="translate(-639.882 -4.195)" fill="#d2b982" style="mix-blend-mode: multiply;isolation: isolate"/>
              <rect id="Rectangle_36598" data-name="Rectangle 36598" width="2.524" height="12.114" transform="translate(-632.448 -4.195)" fill="#d2b982" style="mix-blend-mode: multiply;isolation: isolate"/>
              <rect id="Rectangle_36599" data-name="Rectangle 36599" width="2.524" height="12.114" transform="translate(-625.015 -4.195)" fill="#d2b982" style="mix-blend-mode: multiply;isolation: isolate"/>
              <rect id="Rectangle_36600" data-name="Rectangle 36600" width="2.524" height="12.114" transform="translate(-617.582 -4.195)" fill="#d2b982" style="mix-blend-mode: multiply;isolation: isolate"/>
              <rect id="Rectangle_36601" data-name="Rectangle 36601" width="2.524" height="12.114" transform="translate(-610.148 -4.195)" fill="#d2b982" style="mix-blend-mode: multiply;isolation: isolate"/>
              <rect id="Rectangle_36602" data-name="Rectangle 36602" width="2.524" height="12.114" transform="translate(-602.715 -4.195)" fill="#d2b982" style="mix-blend-mode: multiply;isolation: isolate"/>
              <rect id="Rectangle_36603" data-name="Rectangle 36603" width="2.524" height="12.114" transform="translate(-595.282 -4.195)" fill="#d2b982" style="mix-blend-mode: multiply;isolation: isolate"/>
              <rect id="Rectangle_36604" data-name="Rectangle 36604" width="2.524" height="12.114" transform="translate(-587.848 -4.195)" fill="#d2b982" style="mix-blend-mode: multiply;isolation: isolate"/>
              <rect id="Rectangle_36605" data-name="Rectangle 36605" width="2.524" height="12.114" transform="translate(-580.415 -4.195)" fill="#d2b982" style="mix-blend-mode: multiply;isolation: isolate"/>
            </g>
            <rect id="Rectangle_36606" data-name="Rectangle 36606" width="70.322" height="1.702" transform="translate(-644.322 -4.195)" fill="#e8dbbf" style="mix-blend-mode: multiply;isolation: isolate"/>
          </g>
          <g id="Group_110045" data-name="Group 110045">
            <g id="Group_110044" data-name="Group 110044">
              <rect id="Rectangle_36607" data-name="Rectangle 36607" width="70.322" height="12.114" transform="translate(-638.187 7.919)" fill="#fcde16"/>
              <rect id="Rectangle_36608" data-name="Rectangle 36608" width="2.524" height="12.114" transform="translate(-633.746 7.919)" fill="#d2b982" style="mix-blend-mode: multiply;isolation: isolate"/>
              <rect id="Rectangle_36609" data-name="Rectangle 36609" width="2.524" height="12.114" transform="translate(-626.313 7.919)" fill="#d2b982" style="mix-blend-mode: multiply;isolation: isolate"/>
              <rect id="Rectangle_36610" data-name="Rectangle 36610" width="2.524" height="12.114" transform="translate(-618.88 7.918)" fill="#d2b982" style="mix-blend-mode: multiply;isolation: isolate"/>
              <rect id="Rectangle_36611" data-name="Rectangle 36611" width="2.524" height="12.114" transform="translate(-611.446 7.918)" fill="#d2b982" style="mix-blend-mode: multiply;isolation: isolate"/>
              <rect id="Rectangle_36612" data-name="Rectangle 36612" width="2.524" height="12.114" transform="translate(-604.013 7.918)" fill="#d2b982" style="mix-blend-mode: multiply;isolation: isolate"/>
              <rect id="Rectangle_36613" data-name="Rectangle 36613" width="2.524" height="12.114" transform="translate(-596.58 7.918)" fill="#d2b982" style="mix-blend-mode: multiply;isolation: isolate"/>
              <rect id="Rectangle_36614" data-name="Rectangle 36614" width="2.524" height="12.114" transform="translate(-589.146 7.918)" fill="#d2b982" style="mix-blend-mode: multiply;isolation: isolate"/>
              <rect id="Rectangle_36615" data-name="Rectangle 36615" width="2.524" height="12.114" transform="translate(-581.713 7.918)" fill="#d2b982" style="mix-blend-mode: multiply;isolation: isolate"/>
              <rect id="Rectangle_36616" data-name="Rectangle 36616" width="2.524" height="12.114" transform="translate(-574.28 7.918)" fill="#d2b982" style="mix-blend-mode: multiply;isolation: isolate"/>
            </g>
            <rect id="Rectangle_36617" data-name="Rectangle 36617" width="70.322" height="1.702" transform="translate(-638.187 7.919)" fill="#e8dbbf" style="mix-blend-mode: multiply;isolation: isolate"/>
          </g>
          <g id="Group_110047" data-name="Group 110047">
            <g id="Group_110046" data-name="Group 110046">
              <rect id="Rectangle_36618" data-name="Rectangle 36618" width="70.322" height="12.114" transform="translate(-650.261 20.032)" fill="#fcde16"/>
              <rect id="Rectangle_36619" data-name="Rectangle 36619" width="2.524" height="12.114" transform="translate(-645.821 20.032)" fill="#d2b982" style="mix-blend-mode: multiply;isolation: isolate"/>
              <rect id="Rectangle_36620" data-name="Rectangle 36620" width="2.524" height="12.114" transform="translate(-638.387 20.032)" fill="#d2b982" style="mix-blend-mode: multiply;isolation: isolate"/>
              <rect id="Rectangle_36621" data-name="Rectangle 36621" width="2.524" height="12.114" transform="translate(-630.954 20.032)" fill="#d2b982" style="mix-blend-mode: multiply;isolation: isolate"/>
              <rect id="Rectangle_36622" data-name="Rectangle 36622" width="2.524" height="12.114" transform="translate(-623.521 20.032)" fill="#d2b982" style="mix-blend-mode: multiply;isolation: isolate"/>
              <rect id="Rectangle_36623" data-name="Rectangle 36623" width="2.524" height="12.114" transform="translate(-616.087 20.032)" fill="#d2b982" style="mix-blend-mode: multiply;isolation: isolate"/>
              <rect id="Rectangle_36624" data-name="Rectangle 36624" width="2.524" height="12.114" transform="translate(-608.654 20.032)" fill="#d2b982" style="mix-blend-mode: multiply;isolation: isolate"/>
              <rect id="Rectangle_36625" data-name="Rectangle 36625" width="2.524" height="12.114" transform="translate(-601.221 20.032)" fill="#d2b982" style="mix-blend-mode: multiply;isolation: isolate"/>
              <rect id="Rectangle_36626" data-name="Rectangle 36626" width="2.524" height="12.114" transform="translate(-593.787 20.032)" fill="#d2b982" style="mix-blend-mode: multiply;isolation: isolate"/>
              <rect id="Rectangle_36627" data-name="Rectangle 36627" width="2.524" height="12.114" transform="translate(-586.354 20.032)" fill="#d2b982" style="mix-blend-mode: multiply;isolation: isolate"/>
            </g>
            <rect id="Rectangle_36628" data-name="Rectangle 36628" width="70.322" height="1.702" transform="translate(-650.261 20.032)" fill="#e8dbbf" style="mix-blend-mode: multiply;isolation: isolate"/>
          </g>
          <g id="Group_110049" data-name="Group 110049">
            <g id="Group_110048" data-name="Group 110048">
              <rect id="Rectangle_36629" data-name="Rectangle 36629" width="70.322" height="12.114" transform="translate(-641.333 32.146)" fill="#fcde16"/>
              <rect id="Rectangle_36630" data-name="Rectangle 36630" width="2.524" height="12.114" transform="translate(-636.893 32.146)" fill="#d2b982" style="mix-blend-mode: multiply;isolation: isolate"/>
              <rect id="Rectangle_36631" data-name="Rectangle 36631" width="2.524" height="12.114" transform="translate(-629.459 32.146)" fill="#d2b982" style="mix-blend-mode: multiply;isolation: isolate"/>
              <rect id="Rectangle_36632" data-name="Rectangle 36632" width="2.524" height="12.114" transform="translate(-622.026 32.146)" fill="#d2b982" style="mix-blend-mode: multiply;isolation: isolate"/>
              <rect id="Rectangle_36633" data-name="Rectangle 36633" width="2.524" height="12.114" transform="translate(-614.593 32.146)" fill="#d2b982" style="mix-blend-mode: multiply;isolation: isolate"/>
              <rect id="Rectangle_36634" data-name="Rectangle 36634" width="2.524" height="12.114" transform="translate(-607.159 32.145)" fill="#d2b982" style="mix-blend-mode: multiply;isolation: isolate"/>
              <rect id="Rectangle_36635" data-name="Rectangle 36635" width="2.524" height="12.114" transform="translate(-599.726 32.145)" fill="#d2b982" style="mix-blend-mode: multiply;isolation: isolate"/>
              <rect id="Rectangle_36636" data-name="Rectangle 36636" width="2.524" height="12.114" transform="translate(-592.293 32.145)" fill="#d2b982" style="mix-blend-mode: multiply;isolation: isolate"/>
              <rect id="Rectangle_36637" data-name="Rectangle 36637" width="2.524" height="12.114" transform="translate(-584.859 32.145)" fill="#d2b982" style="mix-blend-mode: multiply;isolation: isolate"/>
              <rect id="Rectangle_36638" data-name="Rectangle 36638" width="2.524" height="12.114" transform="translate(-577.426 32.145)" fill="#d2b982" style="mix-blend-mode: multiply;isolation: isolate"/>
            </g>
            <rect id="Rectangle_36639" data-name="Rectangle 36639" width="70.322" height="1.702" transform="translate(-641.333 32.146)" fill="#e8dbbf" style="mix-blend-mode: multiply;isolation: isolate"/>
          </g>
        </g>
        <path id="Path_168153" data-name="Path 168153" d="M-571.756,7.918H-574V-3.843c-15.423,1.682-27.451,15.416-27.451,32.112a33.466,33.466,0,0,0,4.026,15.99h26.414V32.146h-8.928V20.032h12.075V7.919h-3.891Z" fill="#e3d3b1" style="mix-blend-mode: multiply;isolation: isolate"/>
        <g id="Group_110056" data-name="Group 110056">
          <g id="Group_110052" data-name="Group 110052">
            <g id="Group_110051" data-name="Group 110051">
              <circle id="Ellipse_5371" data-name="Ellipse 5371" cx="29.756" cy="29.756" r="29.756" transform="translate(-603.945 44.918) rotate(-77.154)" fill="#fcde16"/>
              <circle id="Ellipse_5372" data-name="Ellipse 5372" cx="22.283" cy="22.283" r="22.283" transform="translate(-590.601 0.239)" fill="#dcc99e" style="mix-blend-mode: multiply;isolation: isolate"/>
              <path id="Path_168154" data-name="Path 168154" d="M-588.7,24.289A22.284,22.284,0,0,1-566.416,2.005,22.19,22.19,0,0,1-552.238,7.1,22.215,22.215,0,0,0-568.318.239,22.282,22.282,0,0,0-590.6,22.522,22.239,22.239,0,0,0-582.5,39.714,22.21,22.21,0,0,1-588.7,24.289Z" fill="#dfcda7" style="mix-blend-mode: multiply;isolation: isolate"/>
              <path id="Path_168155" data-name="Path 168155" d="M-551.963,7.39a22.2,22.2,0,0,1,5.929,15.132,22.284,22.284,0,0,1-22.284,22.284,22.2,22.2,0,0,1-15.132-5.929,22.219,22.219,0,0,0,16.355,7.151,22.282,22.282,0,0,0,22.283-22.283A22.218,22.218,0,0,0-551.963,7.39Z" fill="#fde961" style="mix-blend-mode: overlay;isolation: isolate"/>
            </g>
          </g>
          <g id="Group_110055" data-name="Group 110055">
            <g id="Group_110053" data-name="Group 110053" style="mix-blend-mode: multiply;isolation: isolate">
              <path id="Path_168156" data-name="Path 168156" d="M-573.279,24.277a3.712,3.712,0,0,1-2.02-3.694V16.745a2.9,2.9,0,0,1,3.117-3.088h1.934V10.886h3.751v2.771h1.934a2.9,2.9,0,0,1,3.117,3.088v3l-5.916.52V18.91c0-.26-.145-.376-.462-.376h-1.1c-.317,0-.462.116-.462.376v.2c0,.836.433,1.154,1.126,1.529l4.242,2.251c2.165,1.154,2.569,2.222,2.569,4.04v3.839a2.9,2.9,0,0,1-3.117,3.088H-566.5v2.77h-3.751v-2.77h-1.934a2.9,2.9,0,0,1-3.117-3.088V27.6l5.916-.491v1.588c0,.259.145.375.462.375h1.1c.317,0,.462-.116.462-.375v-.375c0-.607-.174-.866-1.184-1.415Z" fill="#dac699"/>
            </g>
            <g id="Group_110054" data-name="Group 110054">
              <path id="Path_168157" data-name="Path 168157" d="M-574.336,23.219a3.713,3.713,0,0,1-2.02-3.694V15.686a2.9,2.9,0,0,1,3.117-3.087h1.934V9.828h3.751V12.6h1.934a2.9,2.9,0,0,1,3.117,3.087v3l-5.916.52V17.851c0-.259-.145-.375-.462-.375h-1.1c-.317,0-.462.116-.462.375v.2c0,.837.433,1.155,1.126,1.53l4.242,2.251c2.165,1.154,2.569,2.222,2.569,4.04v3.839A2.9,2.9,0,0,1-565.62,32.8h-1.934v2.771H-571.3V32.8h-1.934a2.9,2.9,0,0,1-3.117-3.087V26.538l5.916-.49v1.587c0,.26.145.374.462.374h1.1c.317,0,.462-.114.462-.374v-.376c0-.606-.174-.866-1.184-1.414Z" fill="#fce230"/>
            </g>
          </g>
        </g>
      </g>
      <g id="Group_110061" data-name="Group 110061">
        <path id="Path_168158" data-name="Path 168158" d="M-749.257,36.5c-.042.375-4.057,10.5-1.551,11.453s10.976.6,11.93-.358-5.011-9.544-5.011-11.333S-749.019,34.352-749.257,36.5Z" fill="#28b5bd"/>
        <path id="Path_168159" data-name="Path 168159" d="M-718.775,36.2s-1.124,8.033-.3,8.815,21.677,1.034,21.95.112c1.08-3.648-14.563-7.973-15.385-8.867S-718.775,36.2-718.775,36.2Z" fill="#28b5bd"/>
        <path id="Path_168160" data-name="Path 168160" d="M-750.271-36.635s.038,17.545-.537,32.75a347.551,347.551,0,0,0,.926,40.79h6.808L-734.7-23.75s1.333,10.308,6.263,30.244A293.086,293.086,0,0,0-719.073,36.9h8.828s-5.726-27.19-7.874-41.506S-721.7-35.919-721.7-35.919Z" fill="#12263f"/>
        <path id="Path_168161" data-name="Path 168161" d="M-679.106-114.3a6.145,6.145,0,0,1,1.074-4.772c1.67-2.028,6.681-7.994,6.681-6.323s-2.028,4.533-2.386,5.368.238,2.029.477,3.46.716,2.506-.239,3.579a11.916,11.916,0,0,1-2.744,2.029l-1.909,3.937a5.984,5.984,0,0,1-2.267-.716,12.9,12.9,0,0,1-1.908-1.551Z" fill="#ff9ba5"/>
        <path id="Path_168162" data-name="Path 168162" d="M-732.435-91.753s-6.92,3.459-8.71,6.323-5.965,14.555-7.874,28.036a218.711,218.711,0,0,0-2.147,22.43,152.161,152.161,0,0,0,17.776,1.431c8.59,0,12.169-1.193,12.169-1.193a173.125,173.125,0,0,1,1.671-21c1.55-10.141,4.294-21.356,4.294-21.356s11.714-1.929,19.089-6.442a40.209,40.209,0,0,0,15.391-16.7,63.122,63.122,0,0,0,3.579-7.755l-4.772-2.386s-7.994,10.141-16.822,13.6a77.559,77.559,0,0,1-21.953,4.653,27.7,27.7,0,0,1-5.607-.358Z" fill="#49e4ed"/>
        <path id="Path_168163" data-name="Path 168163" d="M-730.765-107.2s2.088,7.4,7.934,8.828,7.526-3.1,7.1-7.755c-.537-5.846-5.368-12.825-7.277-12.944s-7.4,5.846-7.874,7.755A9.47,9.47,0,0,0-730.765-107.2Z" fill="#ff9ba5"/>
        <path id="Path_168164" data-name="Path 168164" d="M-729.393-105.593-733.33-90.2s1.789,4.354,6.263,3.28a4.073,4.073,0,0,0,3.4-4.414s-1.492-.119-1.074-2.8,1.551-6.919,1.551-6.919Z" fill="#ff9ba5"/>
        <path id="Path_168165" data-name="Path 168165" d="M-729.006-104.335a24.616,24.616,0,0,0-1.043-4.837,4.048,4.048,0,0,0-.955-1.491s1.253-3.162,3.281-4.474,3.682-2.537,4.743-2.714a3.278,3.278,0,0,1,2.771,1.1c.186-1,.56-2.933-1.787-7.392-1.658-3.149-6.629-4.313-8.571-.888-1.058,1.866-1.007,3.453-2.435,5.183-1.2,1.452-2.416,2.336-3.311,4.027-1.253,2.368.123,4.6.091,6.947-.012.863-.287,1.965.446,2.627C-733.927-104.579-729.006-104.335-729.006-104.335Z" fill="#12263f"/>
        <path id="Path_168166" data-name="Path 168166" d="M-728.856-105.354s-2.744-1.313-3.341.358.477,2.982,2.148,2.624a4.993,4.993,0,0,0,2.744-2.147Z" fill="#ff9ba5"/>
        <path id="Path_168167" data-name="Path 168167" d="M-721.459-81.732l-6.323,31.138,21.833-.239,6.2-30.781Z" fill="#12263f"/>
        <g id="Group_110058" data-name="Group 110058">
          <path id="Path_168168" data-name="Path 168168" d="M-732.316-63.24l3.221-1.55a12.8,12.8,0,0,1,2.744-4.773,10.78,10.78,0,0,1,2.834-2.088L-723.965-69s5.011-2.356,6.085-1.521.089,4.355-2.55,6.01a28.329,28.329,0,0,1-7.114,2.639l-3.34,2.923Z" fill="#ff9ba5"/>
          <path id="Path_168169" data-name="Path 168169" d="M-733.151-91.395s-16.7-.836-23.5,16.106,2.505,23.741,11.095,23.383,16.345-7.516,16.345-7.516l-2.028-4.414s-8.5,3.449-13.362,0c-6.562-4.653,1.67-9.067,1.67-9.067s-.861-3.983,3.7-12.05C-737.685-87.7-733.151-91.395-733.151-91.395Z" fill="#49e4ed"/>
        </g>
        <path id="Path_168170" data-name="Path 168170" d="M-714.838-79.107l1.074-5.428,8.113.179-.656,5.488Z" fill="#12263f"/>
        <g id="Group_110059" data-name="Group 110059" style="mix-blend-mode: multiply;isolation: isolate">
          <path id="Path_168171" data-name="Path 168171" d="M-746.884-51.362a10.436,10.436,0,0,1-3-.354l.2-.617c.034.01,3.386,1.049,8.973-.717,5.116-1.618,11.331-6.56,11.394-6.61l.405.506c-.258.207-6.371,5.068-11.6,6.722A21.193,21.193,0,0,1-746.884-51.362Z" fill="#49e4ed"/>
        </g>
        <g id="Group_110060" data-name="Group 110060" style="mix-blend-mode: multiply;isolation: isolate">
          <path id="Path_168172" data-name="Path 168172" d="M-738.536-61.925a15.877,15.877,0,0,1-2.845-.25c-3.676-.663-4.833-2.314-5.43-3.679-1.694-3.875,2.311-9.394,2.482-9.627l.523.384c-.04.054-3.955,5.45-2.41,8.983.532,1.217,1.576,2.692,4.95,3.3a17.5,17.5,0,0,0,9.878-1.312l.291.58A17.985,17.985,0,0,1-738.536-61.925Z" fill="#49e4ed"/>
        </g>
      </g>
      <g id="Group_110065" data-name="Group 110065">
        <path id="Path_168173" data-name="Path 168173" d="M-513.551,43.154s-5.324,1.936-4.531,4.061c.691,1.853,11.828.235,16.594-1.707s-1.648-7.473-2.354-7.709S-513.551,43.154-513.551,43.154Z" fill="#212849"/>
        <path id="Path_168174" data-name="Path 168174" d="M-478.57,41.9s-3.916,4.783-2.348,6.421c1.368,1.429,10.749-5.361,14.359-9.03s-4.469-6.212-5.211-6.149S-478.57,41.9-478.57,41.9Z" fill="#212849"/>
        <path id="Path_168175" data-name="Path 168175" d="M-511.962-10.16s1.412,21.714,3.177,33.718.971,15.359.971,15.359-7.679,4.767-6.443,5.649,7.767-1.324,9.709-3.266,1.059-3.177,1.059-3.177,3-25.863,3.708-34.69a55.968,55.968,0,0,0-1.236-16.418s-5.3-4.413-7.415-3S-511.962-10.16-511.962-10.16Z" fill="#ff9ba5"/>
        <path id="Path_168176" data-name="Path 168176" d="M-495.013-8.422s8.569,20,14.234,30.732,5.889,13.783,5.889,13.783-5.506,7.427-4.047,7.848,7.454-4.929,8.637-7.407a2.467,2.467,0,0,0-1.073-3.506S-476.722,8.892-479,.334a55.966,55.966,0,0,0-6.637-15.067s-6.464-2.4-7.991-.358S-495.013-8.422-495.013-8.422Z" fill="#ff9ba5"/>
        <path id="Path_168177" data-name="Path 168177" d="M-510.638-52.353s-4.149,3.884-4.5,19.772A178.758,178.758,0,0,0-513.9-5.747h37.6s-1.765-18.007-4.06-28.6-9.886-18.89-9.886-18.89Z" fill="#28b5bd"/>
        <path id="Path_168178" data-name="Path 168178" d="M-503.253-95.369a17.963,17.963,0,0,0-12.358,8.944c-3.806,6.892-11.769,18.713-11.769,18.713l-7.3,4.237,3.06,4.237s10.357-3.3,15.535-6.826S-503.136-91.015-502.9-92.78A3.8,3.8,0,0,0-503.253-95.369Z" fill="#49e4ed"/>
        <path id="Path_168179" data-name="Path 168179" d="M-502.783-114.936s2.207-7.061,9.622-5.3,6.973,9.8,8.856,11.328,8.675,3.571,10.592,8.827c1.825,5,1.478,13.487-6.473,17.978-9.533,5.384-23.656,1.206-24.833-4.914s-2-14.947.236-19.537A18.425,18.425,0,0,0-502.783-114.936Z" fill="#212849"/>
        <path id="Path_168180" data-name="Path 168180" d="M-506.048-94.457c-.971,1.059-4.59,8.3-5.561,13.682s.971,28.422.971,28.422l21.625,1.236s2.913-26.922,3.884-29.129,4.237-10.474,4.237-10.474a25.124,25.124,0,0,0-11.3-4.178C-498.719-95.8-505.077-95.516-506.048-94.457Z" fill="#49e4ed"/>
        <path id="Path_168181" data-name="Path 168181" d="M-491.4-107.029s-3.1,6.92-9.011,7.478-6.9-4.1-5.814-8.588c1.363-5.629,7.081-11.746,8.961-11.589s6.38,6.768,6.572,8.7A9.358,9.358,0,0,1-491.4-107.029Z" fill="#ff9ba5"/>
        <path id="Path_168182" data-name="Path 168182" d="M-491.955-106.609s-2.942,8.356-3.413,10.239.118,2.236.118,2.236,5.708.324,5.355,1.266-7.356,7.326-12.064,5.561a5.131,5.131,0,0,1-3.527-6.43c.117-.706.232-.72.232-.72l3.178-.383s2.589-9.415,3.413-10.239S-491.955-106.609-491.955-106.609Z" fill="#ff9ba5"/>
        <path id="Path_168183" data-name="Path 168183" d="M-502.812-115.142a13.653,13.653,0,0,1,3.6-2.353,4.734,4.734,0,0,1,2.516-.442,37.563,37.563,0,0,1,2.942,6.091,30.179,30.179,0,0,1,.8,6.826s3.325-1.089,3.854-2.677-.971-9.533-3.354-10.858-3.972-2.118-6-1.324S-502.812-115.142-502.812-115.142Z" fill="#212849"/>
        <path id="Path_168184" data-name="Path 168184" d="M-492.421-103.6s2.707,1.295,3.3-.353-.471-2.942-2.119-2.589a4.931,4.931,0,0,0-2.707,2.118Z" fill="#ff9ba5"/>
        <g id="Group_110063" data-name="Group 110063">
          <path id="Path_168185" data-name="Path 168185" d="M-550.448-92.427l9.71,5.3-6.179,13.24-10.945-6.355Z" fill="#204470"/>
          <path id="Path_168186" data-name="Path 168186" d="M-541.856-90.779l-9.18,17.418,81.678,42.134s5.071.282,8.415-6.65c3.619-7.5-1.824-11-1.824-11Z" fill="#12263f"/>
          <g id="Group_110062" data-name="Group 110062">
            <path id="Path_168187" data-name="Path 168187" d="M-596.372-154.152a48.018,48.018,0,0,0-50.4,45.509,48.018,48.018,0,0,0,45.508,50.4,48.018,48.018,0,0,0,50.4-45.508A48.018,48.018,0,0,0-596.372-154.152Z" fill="#fff" opacity="0.3" style="mix-blend-mode: lighten;isolation: isolate"/>
            <path id="Path_168188" data-name="Path 168188" d="M-596.21-157.326a51.2,51.2,0,0,0-53.739,48.52,51.2,51.2,0,0,0,48.521,53.739,51.2,51.2,0,0,0,53.738-48.521A51.2,51.2,0,0,0-596.21-157.326Zm-4.642,90.975a39.9,39.9,0,0,1-37.813-41.879,39.9,39.9,0,0,1,41.879-37.813,39.9,39.9,0,0,1,37.813,41.879A39.9,39.9,0,0,1-600.852-66.351Z" fill="#12263f"/>
            <path id="Path_168189" data-name="Path 168189" d="M-607.757-134.606c-4.022-3.381-11.3-.86-16.263,5.632s-5.72,14.5-1.7,17.876,11.3.86,16.264-5.631S-603.734-131.225-607.757-134.606Z" fill="#fff"/>
          </g>
        </g>
        <path id="Path_168190" data-name="Path 168190" d="M-537.842-64.008c1.077-1.847,4.963-4.39,8.144-2.609s0,8.271-3.181,8.144S-538.732-62.481-537.842-64.008Z" fill="#ff9ba5"/>
        <g id="Group_110064" data-name="Group 110064">
          <path id="Path_168191" data-name="Path 168191" d="M-475.626-36.726c-.594,2.054-3.74,5.469-7.26,4.518s-2.02-8.02,1.1-8.674S-475.135-38.424-475.626-36.726Z" fill="#ff9ba5"/>
          <path id="Path_168192" data-name="Path 168192" d="M-481.6-39.554l3.354-5.208,4.943,2.3a53.952,53.952,0,0,1-3,5.826C-477.361-35.14-481.6-39.554-481.6-39.554Z" fill="#ff9ba5"/>
          <path id="Path_168193" data-name="Path 168193" d="M-487.836-93.839a21.051,21.051,0,0,1,10.122,5.767c4.825,4.825,13.438,21.743,13.417,26.539-.03,6.591-9.416,22.42-9.416,22.42l-6.237-4s5.414-11.769,5.06-18.242-16.123-19.772-16.123-19.772Z" fill="#49e4ed"/>
        </g>
      </g>
      <g id="Group_110072" data-name="Group 110072">
        <path id="Path_168194" data-name="Path 168194" d="M-322.495,39.4c-.463.694-13.428,6.019-13.2,7.871s21.3,1.389,22.457.231-2.315-8.334-2.315-8.334Z" fill="#12263f"/>
        <path id="Path_168195" data-name="Path 168195" d="M-286.148,32.22s-2.476,12.732-1.087,14.353,5.568-.074,8.346-3.778-1.845-13.441-1.845-13.441Z" fill="#12263f"/>
        <path id="Path_168196" data-name="Path 168196" d="M-330.6-40.706s-.3,19.525,1.389,41.209a286.209,286.209,0,0,0,5.788,40.283l8.754-.414s-.972-15.739-1.346-32.692-.7-36.348-.7-36.348S-312.54-5.285-303.28,13C-295.509,28.351-286.843,35-286.843,35l7.177-4.4s-12.27-21.3-17.6-39.82a354.106,354.106,0,0,1-8.1-35.189Z" fill="#28b5bd"/>
        <path id="Path_168197" data-name="Path 168197" d="M-337.044-124.5a82.9,82.9,0,0,0,2.874,21.475c3.082,10.883,10.18,21.217,10.18,21.217l14.31-1.743s-10.784-14.115-14.326-21.887a163.328,163.328,0,0,1-6.773-19.357Z" fill="#12263f"/>
        <path id="Path_168198" data-name="Path 168198" d="M-325.621-87.819a46.711,46.711,0,0,0-7.466,24.656c-.347,14.933.4,25,.4,25a81.461,81.461,0,0,0,15.743-.694c6.95-1.187,12.964-2.778,12.964-2.778a265.618,265.618,0,0,1-2.893-28.823c-.348-12.849-2.779-18.753-6.946-19.795S-325.621-87.819-325.621-87.819Z" fill="#12263f"/>
        <g id="Group_110071" data-name="Group 110071">
          <g id="Group_110067" data-name="Group 110067">
            <g id="Group_110066" data-name="Group 110066">
              <circle id="Ellipse_5373" data-name="Ellipse 5373" cx="29.698" cy="29.698" r="29.698" transform="translate(-364.497 -180.434)" fill="#fcde16"/>
              <circle id="Ellipse_5374" data-name="Ellipse 5374" cx="22.239" cy="22.239" r="22.239" transform="translate(-357.038 -172.976)" fill="#dcc99e" style="mix-blend-mode: multiply;isolation: isolate"/>
              <path id="Path_168199" data-name="Path 168199" d="M-355.14-148.973a22.24,22.24,0,0,1,22.239-22.24,22.142,22.142,0,0,1,14.15,5.082,22.174,22.174,0,0,0-16.048-6.845,22.239,22.239,0,0,0-22.239,22.24,22.193,22.193,0,0,0,8.089,17.158A22.165,22.165,0,0,1-355.14-148.973Z" fill="#dfcda7" style="mix-blend-mode: multiply;isolation: isolate"/>
              <path id="Path_168200" data-name="Path 168200" d="M-318.476-165.839a22.161,22.161,0,0,1,5.916,15.1A22.239,22.239,0,0,1-334.8-128.5a22.161,22.161,0,0,1-15.1-5.916,22.182,22.182,0,0,0,16.323,7.137,22.24,22.24,0,0,0,22.24-22.24A22.175,22.175,0,0,0-318.476-165.839Z" fill="#fde961" style="mix-blend-mode: overlay;isolation: isolate"/>
            </g>
          </g>
          <g id="Group_110070" data-name="Group 110070">
            <g id="Group_110068" data-name="Group 110068" style="mix-blend-mode: multiply;isolation: isolate">
              <path id="Path_168201" data-name="Path 168201" d="M-339.751-148.985a3.7,3.7,0,0,1-2.016-3.687V-156.5a2.894,2.894,0,0,1,3.111-3.082h1.93v-2.766h3.744v2.766h1.93a2.9,2.9,0,0,1,3.112,3.082v3l-5.906.518v-1.354c0-.259-.143-.374-.461-.374H-335.4c-.317,0-.461.115-.461.374v.2c0,.835.432,1.152,1.123,1.527l4.235,2.246c2.161,1.153,2.564,2.219,2.564,4.034v3.83a2.9,2.9,0,0,1-3.112,3.083h-1.93v2.765h-3.744v-2.765h-1.93a2.9,2.9,0,0,1-3.111-3.083v-3.168l5.9-.49v1.584c0,.26.144.375.461.375h1.094c.318,0,.461-.115.461-.375v-.374c0-.605-.172-.864-1.18-1.411Z" fill="#dac699"/>
            </g>
            <g id="Group_110069" data-name="Group 110069">
              <path id="Path_168202" data-name="Path 168202" d="M-340.806-150.042a3.7,3.7,0,0,1-2.016-3.687v-3.831a2.894,2.894,0,0,1,3.111-3.082h1.93v-2.766h3.745v2.766h1.93a2.894,2.894,0,0,1,3.111,3.082v3l-5.9.518V-155.4c0-.26-.144-.375-.462-.375h-1.094c-.316,0-.461.115-.461.375v.2c0,.835.432,1.152,1.123,1.527l4.235,2.247c2.161,1.152,2.564,2.218,2.564,4.033v3.831a2.894,2.894,0,0,1-3.111,3.082h-1.93v2.765h-3.745v-2.765h-1.93a2.894,2.894,0,0,1-3.111-3.082v-3.169l5.9-.49v1.584c0,.26.145.375.461.375h1.094c.318,0,.462-.115.462-.375v-.374c0-.6-.173-.864-1.181-1.411Z" fill="#fce230"/>
            </g>
          </g>
        </g>
        <path id="Path_168203" data-name="Path 168203" d="M-310.621-100.706s-4.919,5.6-10.636,4.415-5.717-6.067-3.4-9.967c2.913-4.894,10.478-6.647,12.2-5.954s4.037,6.08,3.657,7.951A9.193,9.193,0,0,1-310.621-100.706Z" fill="#ff9ba5"/>
        <path id="Path_168204" data-name="Path 168204" d="M-323.859-87.107a21.153,21.153,0,0,1,5.806-2.048c1.6-.342,3.227-.574,4.854-.77a49.934,49.934,0,0,1-1.143-8.781c.145-2.759.145-3.921.145-3.921l-7.7,4.212a33.2,33.2,0,0,1-.435,6.39A21.1,21.1,0,0,1-323.859-87.107Z" fill="#ff9ba5"/>
        <path id="Path_168205" data-name="Path 168205" d="M-352.708-121.5s1.042-8.913-.115-10.881-2.2,3.705-2.2,3.705-5.672-9.029-6.945-8.566-1.852,6.713.347,10.3a26.025,26.025,0,0,0,4.63,5.672,35.025,35.025,0,0,0,0,4.051,12.264,12.264,0,0,0,.463,3.589l6.251-1.737Z" fill="#ff9ba5"/>
        <path id="Path_168206" data-name="Path 168206" d="M-313.727-100.407a46.826,46.826,0,0,0,.955-5.817c0-1.476-4.688-5.209-3.994-8.508s4.689-4.341,6.512-2.778,2.257,6.338,2.778,7.379,2,.087,2.518,1.91-.608,3.126.173,4.341,1.389,2.952-.694,4.862-6.772,4.775-8.6,4.254-2.431-2.344-2-3.212A12.611,12.611,0,0,1-313.727-100.407Z" fill="#12263f"/>
        <path id="Path_168207" data-name="Path 168207" d="M-314.36-101.625s4.323,1.336,2.89,3.649c-1.137,1.835-3.246.923-3.589-1.087S-314.36-101.625-314.36-101.625Z" fill="#ff9ba5"/>
        <path id="Path_168208" data-name="Path 168208" d="M-351.145-118.378s3.3,12.675,10.244,22.051,21.878,10.418,21.878,10.418l-9.2,17.364s-17.827-12.386-23.9-23.325-4.862-25.351-4.862-25.351Z" fill="#12263f"/>
      </g>
    </g>
  </g>
</svg>
