<svg xmlns="http://www.w3.org/2000/svg" width="100" height="100" viewBox="0 0 100 100">
  <g id="t1-ic1" transform="translate(-543 -1837)">
    <rect id="Rectangle_36502" data-name="Rectangle 36502" width="100" height="100" rx="10" transform="translate(543 1837)" fill="#f6bf28"/>
    <g id="ventas" transform="translate(558.502 1850)">
      <path id="Path_168371" data-name="Path 168371" d="M69.3,86.888c-3.446-3.431-7.431-.22-7.431-.22V68.607a1.1,1.1,0,1,0-2.2,0V88.214s-5.239,4.13-7.49,5.139V60.832a2.744,2.744,0,0,1,2.741-2.741h2.007a2.744,2.744,0,0,1,2.741,2.741v3.277a1.1,1.1,0,1,0,2.2,0V60.832a4.943,4.943,0,0,0-4.938-4.938H54.924a4.944,4.944,0,0,0-4.939,4.938V94.224a11.544,11.544,0,0,1-2.011.374V71.437a4.969,4.969,0,0,0-4.963-4.963H41.053a4.969,4.969,0,0,0-4.963,4.963V82.631L34.079,83.7V79.973A4.473,4.473,0,0,0,29.611,75.5H26.663A4.473,4.473,0,0,0,22.2,79.973V90.006l-3.587,1.9L8.535,94.789a6.943,6.943,0,0,0-4.812,8.422l1.127,4.335a1.1,1.1,0,1,0,2.126-.553l-1.127-4.334A4.718,4.718,0,0,1,9.139,96.9l9.21-2.632,6.922,18.474A4.921,4.921,0,0,1,22,118.811l-6.96,1.581A4.555,4.555,0,0,1,9.6,117.08l-1.413-5.437a1.1,1.1,0,1,0-2.127.553l1.413,5.437A6.738,6.738,0,0,0,14,122.706c2.22,0,8.486-1.753,8.486-1.753a6.77,6.77,0,0,0,5.125-8l24.079-5.895a13.855,13.855,0,0,0,5.466-2.736l11.718-9.628a5.211,5.211,0,0,0,.426-7.8ZM41.053,68.671h1.959a2.769,2.769,0,0,1,2.765,2.766V94.653l-6.932,0c-.637-.006-.2-.426-.161-.455l2-1.617A10.442,10.442,0,0,0,44.3,86.342a4.356,4.356,0,0,0-6.008-4.863V71.437a2.769,2.769,0,0,1,2.765-2.766Zm-16.66,11.3A2.274,2.274,0,0,1,26.663,77.7h2.948a2.274,2.274,0,0,1,2.271,2.271v4.891l-7.49,3.976V79.973ZM67.479,93l-11.718,9.628a11.632,11.632,0,0,1-4.593,2.3l-24.256,5.939L20.389,93.453l18.625-9.887A2.159,2.159,0,0,1,42.142,85.9,8.306,8.306,0,0,1,39.3,90.871l-2,1.618a2.453,2.453,0,0,0,1.543,4.359l8,0h.006a13.7,13.7,0,0,0,7.919-2.506l8.946-6.291a3.094,3.094,0,0,1,4.009.37A3.048,3.048,0,0,1,67.479,93Zm0,0" transform="translate(-2.56 -47.707)" fill="#12263f"/>
      <path id="Path_168372" data-name="Path 168372" d="M72.977,423.567a4.328,4.328,0,1,0-4.328,4.328A4.333,4.333,0,0,0,72.977,423.567Zm-6.459,0a2.131,2.131,0,1,1,2.131,2.131A2.133,2.133,0,0,1,66.517,423.567Zm0,0" transform="translate(-54.473 -357.826)" fill="#12263f"/>
      <path id="Path_168373" data-name="Path 168373" d="M6.275,34.494,22.246,18.4l3.592,1.858a3.379,3.379,0,0,0,3.9-.567l8.693-8.368s-.239,4.3,3.38,4.3a3.384,3.384,0,0,0,3.379-3.38V3.379c0-.01,0-.021,0-.032A3.2,3.2,0,0,0,41.808,0H33.022a3.383,3.383,0,0,0-3.379,3.379c0,3.715,3.781,3.379,3.781,3.379l-6.632,6.384-3.644-1.885a3.367,3.367,0,0,0-3.952.621L1.478,29.733a3.384,3.384,0,0,0,.018,4.78,3.332,3.332,0,0,0,4.779-.018ZM3.037,31.281,20.755,13.426a1,1,0,0,1,1.383-.217l4.344,2.246a1.1,1.1,0,0,0,1.267-.184l9.162-8.819a1.1,1.1,0,0,0-.762-1.89H33.023a1.182,1.182,0,0,1,0-2.365h8.785a1.033,1.033,0,0,1,1.182,1.175c0,.01,0,.019,0,.03v8.839a1.182,1.182,0,0,1-2.365,0v-3.5a1.1,1.1,0,0,0-1.86-.791L28.211,18.109a1.182,1.182,0,0,1-1.363.2l-4.309-2.229a1.1,1.1,0,0,0-1.285.2L4.716,32.946a1.133,1.133,0,0,1-1.673.006,1.184,1.184,0,0,1-.006-1.672Zm0,0" transform="translate(0 0)" fill="#12263f"/>
    </g>
  </g>
</svg>
