<svg xmlns="http://www.w3.org/2000/svg" width="100" height="100" viewBox="0 0 100 100">
  <g id="t1-ic3" transform="translate(6114 9320)">
    <rect id="Rectangle_36878" data-name="Rectangle 36878" width="100" height="100" rx="10" transform="translate(-6114 -9320)" fill="#f6bf28"/>
    <g id="compras" transform="translate(-6101 -9305)">
      <path id="Path_172153" data-name="Path 172153" d="M215.793,301.8a1.466,1.466,0,1,0-2.073,0A1.467,1.467,0,0,0,215.793,301.8Zm0,0" transform="translate(-182.048 -255.453)"/>
      <path id="Path_172154" data-name="Path 172154" d="M225.473,63.934v2.93a8.789,8.789,0,0,0,17.579,0v-2.93a1.465,1.465,0,1,0,0-2.93h-2.93a1.465,1.465,0,1,0,0,2.93v2.93a5.86,5.86,0,0,1-11.719,0v-2.93a1.465,1.465,0,1,0,0-2.93h-2.93a1.465,1.465,0,0,0,0,2.93Zm0,0" transform="translate(-191.194 -52.068)"/>
      <path id="Path_172155" data-name="Path 172155" d="M17.024,69.278a1.466,1.466,0,0,0,2.071,0l4.5-4.5a6.781,6.781,0,0,0,1.967-5.5l1.613-1.558a6.8,6.8,0,0,1,4.738-1.913H51.2a13.109,13.109,0,0,0,9.195-3.736,1.373,1.373,0,0,0,.1-.112L73.619,36.2A5.86,5.86,0,0,0,64.7,28.6l-1.417,1.466V1.464A1.465,1.465,0,0,0,61.819,0H24.17a1.465,1.465,0,0,0-1.465,1.465v32.82a17.621,17.621,0,0,0-12.6,9.86,6.765,6.765,0,0,0-5.158,1.988l-4.521,4.5a1.465,1.465,0,0,0,0,2.075ZM60.354,2.929V33.1l-4.239,4.383a5.886,5.886,0,0,0-4.55-2.176H34.58a.809.809,0,0,1-.3-.063,18.93,18.93,0,0,0-7.181-1.4c-.49,0-.979.018-1.465.05V2.929ZM24.38,36.961a16.644,16.644,0,0,1,8.8.994,3.727,3.727,0,0,0,1.4.278H51.564a2.93,2.93,0,0,1,0,5.859H38.819a1.465,1.465,0,0,0,0,2.93H51.564a5.866,5.866,0,0,0,5.859-5.859,5.925,5.925,0,0,0-.052-.769c.306-.313,9.16-9.471,9.467-9.788.022-.023.045-.047.065-.072a2.93,2.93,0,1,1,4.471,3.788L58.3,50.028a10.193,10.193,0,0,1-7.1,2.854H31.911a9.71,9.71,0,0,0-6.772,2.735l-.646.624a6.819,6.819,0,0,0-.9-1.108l-9-9a6.84,6.84,0,0,0-1.616-1.2,14.666,14.666,0,0,1,11.4-7.978ZM7.022,48.206a3.884,3.884,0,0,1,5.5,0l9,9a3.886,3.886,0,0,1,0,5.5L18.058,66.17,3.54,51.671Zm0,0" transform="translate(0)"/>
    </g>
  </g>
</svg>
