<svg xmlns="http://www.w3.org/2000/svg" width="100" height="100" viewBox="0 0 100 100">
  <g id="t1-ic5" transform="translate(6114 8548)">
    <rect id="Rectangle_36882" data-name="Rectangle 36882" width="100" height="100" rx="10" transform="translate(-6114 -8548)" fill="#f6bf28"/>
    <g id="produccion" transform="translate(-6101 -8535)">
      <path id="Path_172156" data-name="Path 172156" d="M74.309,30.986l-6.249-2.5a31.746,31.746,0,0,0-2.582-6.215l2.655-6.2a1.1,1.1,0,0,0-.233-1.21L60.132,7.1a1.1,1.1,0,0,0-1.21-.233l-6.2,2.655a31.747,31.747,0,0,0-6.215-2.582L44.013.69A1.1,1.1,0,0,0,42.993,0H32.006a1.1,1.1,0,0,0-1.02.691l-2.5,6.249a31.726,31.726,0,0,0-6.215,2.582l-6.2-2.655a1.1,1.1,0,0,0-1.21.233L7.1,14.867a1.1,1.1,0,0,0-.233,1.21l2.655,6.195a31.761,31.761,0,0,0-2.582,6.215L.69,30.986A1.1,1.1,0,0,0,0,32.007V42.993a1.1,1.1,0,0,0,.691,1.02l6.249,2.5a31.691,31.691,0,0,0,2.582,6.215l-2.655,6.2a1.1,1.1,0,0,0,.233,1.21L14.867,67.9a1.1,1.1,0,0,0,1.21.233l6.2-2.655a31.71,31.71,0,0,0,6.215,2.582l2.5,6.249a1.1,1.1,0,0,0,1.02.691H42.993a1.1,1.1,0,0,0,1.02-.691l2.5-6.249a31.726,31.726,0,0,0,6.215-2.582l6.195,2.655a1.1,1.1,0,0,0,1.21-.233L67.9,60.132a1.1,1.1,0,0,0,.233-1.21l-2.655-6.2a31.747,31.747,0,0,0,2.582-6.215l6.249-2.5A1.1,1.1,0,0,0,75,42.993V32.007A1.1,1.1,0,0,0,74.309,30.986ZM72.8,42.249l-6.059,2.423a1.1,1.1,0,0,0-.651.727A29.507,29.507,0,0,1,63.3,52.121a1.1,1.1,0,0,0-.055.976L65.821,59.1,59.1,65.821,53.1,63.246a1.1,1.1,0,0,0-.976.055A29.518,29.518,0,0,1,45.4,66.093a1.1,1.1,0,0,0-.727.651L42.249,72.8h-9.5l-2.424-6.059a1.1,1.1,0,0,0-.727-.651A29.507,29.507,0,0,1,22.879,63.3a1.1,1.1,0,0,0-.976-.055l-6.008,2.575L9.178,59.1,11.753,53.1a1.1,1.1,0,0,0-.055-.976A29.544,29.544,0,0,1,8.906,45.4a1.1,1.1,0,0,0-.651-.727L2.2,42.249v-9.5l6.059-2.424a1.1,1.1,0,0,0,.651-.727A29.5,29.5,0,0,1,11.7,22.879a1.1,1.1,0,0,0,.055-.976L9.178,15.895l6.717-6.717L21.9,11.753a1.1,1.1,0,0,0,.976-.055A29.5,29.5,0,0,1,29.6,8.907a1.1,1.1,0,0,0,.727-.651L32.75,2.2h9.5l2.424,6.059a1.1,1.1,0,0,0,.727.651A29.5,29.5,0,0,1,52.12,11.7a1.1,1.1,0,0,0,.976.055L59.1,9.178l6.717,6.717L63.246,21.9a1.1,1.1,0,0,0,.055.976A29.492,29.492,0,0,1,66.093,29.6a1.1,1.1,0,0,0,.651.727L72.8,32.75Zm0,0"/>
      <path id="Path_172157" data-name="Path 172157" d="M115.17,91a24.17,24.17,0,1,0,24.17,24.17A24.2,24.2,0,0,0,115.17,91Zm0,46.143a21.973,21.973,0,1,1,21.973-21.973A22,22,0,0,1,115.17,137.143Zm0,0" transform="translate(-77.67 -77.67)"/>
      <path id="Path_172158" data-name="Path 172158" d="M140.775,121a19.57,19.57,0,0,0-12.242,4.245,1.1,1.1,0,1,0,1.361,1.725,17.392,17.392,0,0,1,10.88-3.772A17.578,17.578,0,1,1,123.2,140.775a17.392,17.392,0,0,1,3.772-10.88,1.1,1.1,0,1,0-1.725-1.361A19.573,19.573,0,0,0,121,140.775,19.775,19.775,0,1,0,140.775,121Zm0,0" transform="translate(-103.276 -103.276)"/>
      <path id="Path_172159" data-name="Path 172159" d="M164.612,174.473l12.369,7.141a1.1,1.1,0,0,0,1.1,0l12.369-7.141a1.1,1.1,0,0,0,.549-.952V159.239a1.1,1.1,0,0,0-.549-.952l-12.369-7.141a1.1,1.1,0,0,0-1.1,0l-12.369,7.141a1.1,1.1,0,0,0-.549.952v14.282A1.1,1.1,0,0,0,164.612,174.473Zm1.648-13.331,10.172,5.873V178.76l-10.172-5.873Zm12.369,17.618V167.014l10.171-5.873v11.746Zm-1.1-25.393,10.171,5.873-10.171,5.873-10.172-5.873Zm0,0" transform="translate(-140.031 -128.88)"/>
    </g>
  </g>
</svg>
