<svg xmlns="http://www.w3.org/2000/svg" width="100" height="100" viewBox="0 0 100 100">
  <g id="t1-ic2" transform="translate(6114 9702)">
    <rect id="Rectangle_36512" data-name="Rectangle 36512" width="100" height="100" rx="10" transform="translate(-6114 -9702)" fill="#f6bf28"/>
    <g id="smartphone" transform="translate(-6119.278 -9689)">
      <path id="Path_172127" data-name="Path 172127" d="M81.086,87.214a1.183,1.183,0,0,0,1.554-.07,1.1,1.1,0,1,0-1.554.07Z" transform="translate(-50.737 -72.801)"/>
      <path id="Path_172128" data-name="Path 172128" d="M55.91,120.757a1.134,1.134,0,0,0,1.514-.352,1.1,1.1,0,1,0-1.514.352Z" transform="translate(-29.114 -101.324)"/>
      <path id="Path_172129" data-name="Path 172129" d="M112.85,59.278a1.135,1.135,0,0,0,.876-1.762,1.1,1.1,0,1,0-.876,1.762Z" transform="translate(-77.212 -48.714)"/>
      <path id="Path_172130" data-name="Path 172130" d="M37.334,158.354a1.155,1.155,0,0,0,1.423-.627,1.1,1.1,0,1,0-1.423.627Z" transform="translate(-13.104 -133.331)"/>
      <path id="Path_172131" data-name="Path 172131" d="M26.035,198.748a1.174,1.174,0,0,0,1.282-.879,1.1,1.1,0,1,0-1.282.879Z" transform="translate(-3.294 -167.759)"/>
      <path id="Path_172132" data-name="Path 172132" d="M37.21,320.515a1.1,1.1,0,0,0,.4,2.125,1.158,1.158,0,0,0,1.026-1.5A1.1,1.1,0,0,0,37.21,320.515Z" transform="translate(-12.998 -273.475)"/>
      <path id="Path_172133" data-name="Path 172133" d="M26.372,282.275a1.1,1.1,0,1,0-1.281-.881A1.1,1.1,0,0,0,26.372,282.275Z" transform="translate(-3.238 -239.043)"/>
      <path id="Path_172134" data-name="Path 172134" d="M22.377,240.528a1.1,1.1,0,1,0-1.1-1.1,1.1,1.1,0,0,0,1.1,1.1Z" transform="translate(0 -203.4)"/>
      <path id="Path_172135" data-name="Path 172135" d="M441.885,360.263a1.1,1.1,0,1,0,.339,1.518A1.1,1.1,0,0,0,441.885,360.263Z" transform="translate(-357.521 -307.316)"/>
      <path id="Path_172136" data-name="Path 172136" d="M443.2,121.05a1.1,1.1,0,0,0-.369,1.51,1.137,1.137,0,0,0,1.511.369,1.1,1.1,0,1,0-1.142-1.879Z" transform="translate(-359.63 -103.172)"/>
      <path id="Path_172137" data-name="Path 172137" d="M418.083,87.472a1.1,1.1,0,1,0,1.552.086A1.1,1.1,0,0,0,418.083,87.472Z" transform="translate(-338.336 -74.414)"/>
      <path id="Path_172138" data-name="Path 172138" d="M460.887,322.85a1.1,1.1,0,0,0-1.429.611,1.156,1.156,0,0,0,1.02,1.508,1.1,1.1,0,0,0,.409-2.119Z" transform="translate(-373.902 -275.464)"/>
      <path id="Path_172139" data-name="Path 172139" d="M476.559,240.84a1.1,1.1,0,0,0-1.111,1.089,1.162,1.162,0,0,0,1.1,1.109,1.1,1.1,0,0,0,.012-2.2Z" transform="translate(-387.605 -205.542)"/>
      <path id="Path_172140" data-name="Path 172140" d="M462.1,160.813a1.087,1.087,0,0,0,.387-.07,1.1,1.1,0,1,0-.387.07Z" transform="translate(-375.279 -135.37)"/>
      <path id="Path_172141" data-name="Path 172141" d="M472.059,200.334a1.175,1.175,0,0,0,1.272.893,1.1,1.1,0,1,0-1.272-.893Z" transform="translate(-384.699 -169.872)"/>
      <path id="Path_172142" data-name="Path 172142" d="M416.4,393.569a1.1,1.1,0,1,0,.056,1.554A1.1,1.1,0,0,0,416.4,393.569Z" transform="translate(-335.632 -335.634)"/>
      <path id="Path_172143" data-name="Path 172143" d="M472.525,282.567a1.1,1.1,0,0,0-1.291.866,1.174,1.174,0,0,0,1.08,1.312,1.1,1.1,0,0,0,.211-2.178Z" transform="translate(-383.995 -241.136)"/>
      <path id="Path_172144" data-name="Path 172144" d="M267.856,464.858h0a1.1,1.1,0,0,0-1.008,1.184,1.187,1.187,0,0,0,1.184,1.008,1.1,1.1,0,1,0-.176-2.191Z" transform="translate(-209.575 -396.724)"/>
      <path id="Path_172145" data-name="Path 172145" d="M348.021,443.026a1.1,1.1,0,0,0-.509,1.469,1.143,1.143,0,0,0,1.469.509,1.1,1.1,0,1,0-.96-1.977Z" transform="translate(-278.326 -378)"/>
      <path id="Path_172146" data-name="Path 172146" d="M308.953,457.685a1.1,1.1,0,0,0-.772,1.35,1.168,1.168,0,0,0,1.35.773A1.1,1.1,0,0,0,308.953,457.685Z" transform="translate(-244.82 -390.574)"/>
      <path id="Path_172147" data-name="Path 172147" d="M388.778,58.857h0a1.1,1.1,0,1,0,.2,1.542A1.1,1.1,0,0,0,388.776,58.857Z" transform="translate(-312.126 -50.035)"/>
      <path id="Path_172148" data-name="Path 172148" d="M383.714,421.416a1.1,1.1,0,1,0,1.537.23A1.1,1.1,0,0,0,383.714,421.416Z" transform="translate(-308.936 -359.468)"/>
      <path id="Path_172149" data-name="Path 172149" d="M226.129,464.4h0a1.1,1.1,0,0,0-1.206.982,1.182,1.182,0,0,0,1.095,1.212,1.1,1.1,0,0,0,.111-2.193Z" transform="translate(-173.794 -396.327)"/>
      <path id="Path_172150" data-name="Path 172150" d="M84.383,36.265a4.293,4.293,0,0,0-1.435-3.2,4.355,4.355,0,0,0,0-6.423,4.355,4.355,0,0,0,0-6.422,4.349,4.349,0,0,0-2.325-7.488V4.406A4.411,4.411,0,0,0,76.218,0H62.29a1.1,1.1,0,0,0,0,2.2H76.218a2.21,2.21,0,0,1,2.208,2.208v.582H51.285V4.406A2.21,2.21,0,0,1,53.493,2.2h2.79a1.1,1.1,0,0,0,0-2.2h-2.79a4.411,4.411,0,0,0-4.406,4.406V20.5a4.632,4.632,0,0,0-7.037,3.887V50.161l-2.058,2.068a5.98,5.98,0,0,0-6.738,9.656l6.8,6.835a1.1,1.1,0,0,0,1.558-1.551l-6.8-6.835a3.776,3.776,0,0,1,5.327-5.353l11.348,11.4a3.8,3.8,0,0,1,0,5.353,3.885,3.885,0,0,1-5.757-.433,1.1,1.1,0,0,0-1.558,1.551c5.238,5.538,13.545-.637,9.6-7.139l1.98-1.989a14.961,14.961,0,0,0,14.393-8.17h6.074a4.411,4.411,0,0,0,4.406-4.406v-10.6a4.314,4.314,0,0,0,3.759-4.283Zm-2.2.015a2.107,2.107,0,0,1-2.1,2.1H78.161a2.112,2.112,0,0,1,0-4.224H80.08A2.11,2.11,0,0,1,82.185,36.279Zm0-6.423a2.107,2.107,0,0,1-2.1,2.1H78.161a2.112,2.112,0,0,1,0-4.224H80.08a2.11,2.11,0,0,1,2.1,2.119Zm0-6.423a2.107,2.107,0,0,1-2.1,2.1H78.161a2.112,2.112,0,0,1,0-4.224H80.08a2.11,2.11,0,0,1,2.1,2.119Zm0-6.437a2.167,2.167,0,0,1-2.1,2.12H78.161a2.112,2.112,0,0,1,0-4.224H80.08a2.107,2.107,0,0,1,2.1,2.1Zm-3.759-9.81v5.507a4.324,4.324,0,0,0-3.134,7.522,4.329,4.329,0,0,0,0,6.423,4.329,4.329,0,0,0,0,6.423,4.324,4.324,0,0,0,3.134,7.522v5.507H57.583a12.691,12.691,0,0,0-6.3-9.067V7.187ZM56.906,61.577,55.367,61.5a1.11,1.11,0,0,0-.83.323l-2.24,2.25L41.8,53.531l2.131-2.14a1.1,1.1,0,0,0,.32-.775V24.385c0-3.1,4.774-3.1,4.774,0v13.3a1.1,1.1,0,0,0,.663,1.009A9.9,9.9,0,0,1,55.141,45.3a12.33,12.33,0,0,1-1.412,10.165,1.1,1.1,0,0,0,1.811,1.246,11.871,11.871,0,0,0,.7-1.159H67.633a12.527,12.527,0,0,1-10.727,6.023Zm19.312-8.222H57.16a14.959,14.959,0,0,0,.667-5.067h20.6v2.859A2.21,2.21,0,0,1,76.218,53.355Z" transform="translate(-8.735)"/>
      <path id="Path_172151" data-name="Path 172151" d="M185.911,75.634a1.1,1.1,0,0,0,1.554-.02l3.217-3.3a1.1,1.1,0,0,0-1.575-1.534l-3.217,3.3A1.1,1.1,0,0,0,185.911,75.634Z" transform="translate(-140.22 -60.118)"/>
      <path id="Path_172152" data-name="Path 172152" d="M185.911,82.7a1.1,1.1,0,0,0,1.554-.02l10.1-10.37a1.1,1.1,0,0,0-1.575-1.534l-10.1,10.37A1.1,1.1,0,0,0,185.911,82.7Z" transform="translate(-140.22 -60.118)"/>
    </g>
  </g>
</svg>
