<svg xmlns="http://www.w3.org/2000/svg" width="542.948" height="325" viewBox="0 0 542.948 325">
  <g id="t1-s5" transform="translate(5495.948 5168)">
    <path id="Path_172227" data-name="Path 172227" d="M313-955a65,65,0,0,1,65,65v260H133.19L34.569-955Z" transform="translate(-5331 -4213)" fill="#ff805a"/>
    <path id="Rectángulo_36500" data-name="Rectángulo 36500" d="M-118.985,155.328V390.672H-584.6a65,65,0,0,1-65-65V90.328h465.62a65,65,0,0,1,65,65Z" transform="translate(-4846.343 -5245.5)" fill="#f6f6f6"/>
    <g id="Group_114057" data-name="Group 114057" transform="translate(-8582.031 -4997.49)">
      <g id="Group_113942" data-name="Group 113942" transform="translate(3211.672 -86.968)">
        <g id="Group_113926" data-name="Group 113926" transform="translate(0 5.51)" style="mix-blend-mode: multiply;isolation: isolate">
          <rect id="Rectangle_36993" data-name="Rectangle 36993" width="211.539" height="154.881" transform="matrix(0.965, -0.264, 0.264, 0.965, 0, 55.851)" fill="#a2b2d6"/>
        </g>
        <g id="Group_113927" data-name="Group 113927" transform="translate(1.336)">
          <rect id="Rectangle_36994" data-name="Rectangle 36994" width="211.539" height="154.881" transform="matrix(0.965, -0.264, 0.264, 0.965, 0, 55.851)" fill="#f5f5f5"/>
        </g>
        <g id="Group_113928" data-name="Group 113928" transform="translate(115.691 19.238)">
          <rect id="Rectangle_36995" data-name="Rectangle 36995" width="73.847" height="4.18" transform="translate(0 19.497) rotate(-15.309)" fill="#949aaa"/>
          <rect id="Rectangle_36996" data-name="Rectangle 36996" width="62.712" height="2.077" transform="matrix(0.965, -0.264, 0.264, 0.965, 13.293, 25.886)" fill="#949aaa"/>
          <rect id="Rectangle_36997" data-name="Rectangle 36997" width="73.847" height="2.078" transform="matrix(0.965, -0.264, 0.264, 0.965, 4.133, 34.597)" fill="#949aaa"/>
          <rect id="Rectangle_36998" data-name="Rectangle 36998" width="73.847" height="2.078" transform="translate(5.713 40.368) rotate(-15.309)" fill="#949aaa"/>
          <rect id="Rectangle_36999" data-name="Rectangle 36999" width="73.847" height="2.078" transform="translate(7.293 46.139) rotate(-15.309)" fill="#949aaa"/>
          <rect id="Rectangle_37000" data-name="Rectangle 37000" width="73.847" height="2.077" transform="translate(8.872 51.911) rotate(-15.309)" fill="#949aaa"/>
          <rect id="Rectangle_37001" data-name="Rectangle 37001" width="73.847" height="2.078" transform="translate(10.533 57.978) rotate(-15.309)" fill="#949aaa"/>
          <rect id="Rectangle_37002" data-name="Rectangle 37002" width="73.847" height="2.077" transform="translate(12.114 63.75) rotate(-15.309)" fill="#949aaa"/>
          <rect id="Rectangle_37003" data-name="Rectangle 37003" width="54.874" height="2.077" transform="translate(13.693 69.522) rotate(-15.309)" fill="#949aaa"/>
        </g>
        <g id="Group_113931" data-name="Group 113931" transform="translate(45.066 109.097)">
          <g id="Group_113929" data-name="Group 113929" transform="translate(19.108 56.516)">
            <rect id="Rectangle_37004" data-name="Rectangle 37004" width="5.43" height="5.431" transform="matrix(0.965, -0.264, 0.264, 0.965, 0, 4.338)" fill="#54bae2"/>
            <rect id="Rectangle_37005" data-name="Rectangle 37005" width="12.299" height="2.077" transform="translate(10.336 3.247) rotate(-15.309)" fill="#949aaa"/>
            <rect id="Rectangle_37006" data-name="Rectangle 37006" width="5.43" height="5.431" transform="translate(2.323 12.822) rotate(-15.306)" fill="#f44d3b"/>
            <rect id="Rectangle_37007" data-name="Rectangle 37007" width="28.04" height="2.077" transform="translate(12.659 11.732) rotate(-15.309)" fill="#949aaa"/>
          </g>
          <rect id="Rectangle_37008" data-name="Rectangle 37008" width="11.674" height="2.077" transform="translate(41.989 48.463) rotate(-15.31)" fill="#5a5a7a"/>
          <g id="Group_113930" data-name="Group 113930">
            <rect id="Rectangle_37009" data-name="Rectangle 37009" width="1.843" height="35.386" transform="translate(0 18.162) rotate(-15.313)" fill="#54bae2"/>
            <rect id="Rectangle_37010" data-name="Rectangle 37010" width="1.844" height="21.01" transform="translate(5.573 31.541) rotate(-15.314)" fill="#f44d3b"/>
            <rect id="Rectangle_37011" data-name="Rectangle 37011" width="1.844" height="29.857" transform="translate(7.86 21.742) rotate(-15.309)" fill="#54bae2"/>
            <rect id="Rectangle_37012" data-name="Rectangle 37012" width="1.842" height="25.433" transform="translate(10.809 25.521) rotate(-15.294)" fill="#f44d3b"/>
            <rect id="Rectangle_37013" data-name="Rectangle 37013" width="1.843" height="16.587" transform="translate(17.765 32.788) rotate(-15.29)" fill="#54bae2"/>
            <rect id="Rectangle_37014" data-name="Rectangle 37014" width="1.844" height="20.17" transform="translate(18.592 28.849) rotate(-15.325)" fill="#f44d3b"/>
            <rect id="Rectangle_37015" data-name="Rectangle 37015" width="1.843" height="23.579" transform="translate(22.316 24.294) rotate(-15.308)" fill="#54bae2"/>
            <rect id="Rectangle_37016" data-name="Rectangle 37016" width="1.843" height="6.393" transform="translate(28.631 40.384) rotate(-15.307)" fill="#f44d3b"/>
            <rect id="Rectangle_37017" data-name="Rectangle 37017" width="1.843" height="31.331" transform="translate(26.669 15.065) rotate(-15.31)" fill="#54bae2"/>
            <rect id="Rectangle_37018" data-name="Rectangle 37018" width="1.843" height="35.017" transform="matrix(0.964, -0.264, 0.264, 0.964, 27.472, 11.024)" fill="#f44d3b"/>
            <rect id="Rectangle_37019" data-name="Rectangle 37019" width="1.843" height="18.43" transform="translate(36.476 25.756) rotate(-15.304)" fill="#54bae2"/>
            <rect id="Rectangle_37020" data-name="Rectangle 37020" width="1.842" height="32.806" transform="matrix(0.965, -0.264, 0.264, 0.965, 34.461, 11.403)" fill="#f44d3b"/>
            <rect id="Rectangle_37021" data-name="Rectangle 37021" width="1.843" height="23.222" transform="translate(41.608 19.384) rotate(-15.317)" fill="#54bae2"/>
            <rect id="Rectangle_37022" data-name="Rectangle 37022" width="1.843" height="21.644" transform="translate(43.802 20.419) rotate(-15.321)" fill="#f44d3b"/>
            <rect id="Rectangle_37023" data-name="Rectangle 37023" width="1.844" height="13.995" transform="translate(50.443 26.531) rotate(-15.309)" fill="#54bae2"/>
            <rect id="Rectangle_37024" data-name="Rectangle 37024" width="1.843" height="10.447" transform="translate(53.16 29.465) rotate(-15.299)" fill="#f44d3b"/>
            <rect id="Rectangle_37025" data-name="Rectangle 37025" width="1.842" height="7.741" transform="translate(58.495 30.812) rotate(-15.315)" fill="#75cf33"/>
            <rect id="Rectangle_37026" data-name="Rectangle 37026" width="1.843" height="25.433" transform="translate(55.599 13.261) rotate(-15.317)" fill="#f2274d"/>
            <rect id="Rectangle_37027" data-name="Rectangle 37027" width="1.843" height="28.014" transform="translate(59.541 9.506) rotate(-15.315)" fill="#75cf33"/>
            <rect id="Rectangle_37028" data-name="Rectangle 37028" width="1.843" height="36.86" transform="matrix(0.965, -0.264, 0.264, 0.965, 58.988, 0.486)" fill="#f2274d"/>
            <rect id="Rectangle_37029" data-name="Rectangle 37029" width="1.843" height="17.324" transform="translate(68.762 18.065) rotate(-15.318)" fill="#75cf33"/>
            <rect id="Rectangle_37030" data-name="Rectangle 37030" width="1.843" height="14.64" transform="translate(71.25 20.166) rotate(-15.306)" fill="#f2274d"/>
            <rect id="Rectangle_37031" data-name="Rectangle 37031" width="1.842" height="10.321" transform="matrix(0.965, -0.264, 0.264, 0.965, 77.012, 23.068)" fill="#75cf33"/>
            <rect id="Rectangle_37032" data-name="Rectangle 37032" width="1.844" height="5.862" transform="matrix(0.965, -0.264, 0.264, 0.965, 79.967, 26.882)" fill="#f2274d"/>
          </g>
        </g>
        <g id="Group_113934" data-name="Group 113934" transform="translate(31.82 46.793)">
          <g id="Group_113932" data-name="Group 113932" transform="translate(10.437 39.739)">
            <rect id="Rectangle_37033" data-name="Rectangle 37033" width="5.43" height="5.431" transform="translate(0 10.331) rotate(-15.308)" fill="#317ab0"/>
            <rect id="Rectangle_37034" data-name="Rectangle 37034" width="34.997" height="2.077" transform="translate(10.335 9.24) rotate(-15.309)" fill="#949aaa"/>
            <rect id="Rectangle_37035" data-name="Rectangle 37035" width="5.43" height="5.43" transform="translate(2.322 18.816) rotate(-15.306)" fill="#f2274d"/>
            <rect id="Rectangle_37036" data-name="Rectangle 37036" width="12.3" height="2.077" transform="translate(12.658 17.725) rotate(-15.309)" fill="#949aaa"/>
            <rect id="Rectangle_37037" data-name="Rectangle 37037" width="5.43" height="5.43" transform="translate(4.645 27.3) rotate(-15.309)" fill="#ffd121"/>
            <rect id="Rectangle_37038" data-name="Rectangle 37038" width="28.04" height="2.077" transform="matrix(0.965, -0.264, 0.264, 0.965, 14.98, 26.21)" fill="#949aaa"/>
          </g>
          <rect id="Rectangle_37039" data-name="Rectangle 37039" width="11.674" height="2.077" transform="translate(34.842 36.267) rotate(-15.309)" fill="#949aaa"/>
          <g id="Group_113933" data-name="Group 113933" transform="translate(0 0)">
            <path id="Path_172964" data-name="Path 172964" d="M3290.218,42.043l7.955-9.875,11.325,4.6,14.4-25.259,15.995,15.162-48.825,16.326Z" transform="translate(-3269.463 -11.506)" fill="#f2274d"/>
            <path id="Path_172965" data-name="Path 172965" d="M3337.517,23.782l-7.22-6.906-17.471,11.888-13.064-2.8-8.131,16.366-16.513-2.059-4.347,10.073,67.6-19.1Z" transform="translate(-3263.033 -13.282)" fill="#ffd121"/>
            <path id="Path_172966" data-name="Path 172966" d="M3259.211,55.592l6.478-11.544,6.716,2.9,6.3-9.423,9.922,3.8L3303.5,24.742l13.484,3.188,16.851-9.642,4.3,15.7Z" transform="translate(-3259.211 -13.749)" fill="#317ab0"/>
          </g>
        </g>
        <g id="Group_113941" data-name="Group 113941" transform="translate(139.081 89.554)">
          <g id="Group_113935" data-name="Group 113935" transform="translate(12.789 46.061)">
            <rect id="Rectangle_37040" data-name="Rectangle 37040" width="5.43" height="5.431" transform="translate(0 10.331) rotate(-15.308)" fill="#6b2d6e"/>
            <rect id="Rectangle_37041" data-name="Rectangle 37041" width="34.996" height="2.077" transform="translate(10.336 9.24) rotate(-15.309)" fill="#949aaa"/>
            <rect id="Rectangle_37042" data-name="Rectangle 37042" width="5.431" height="5.431" transform="translate(2.323 18.816) rotate(-15.308)" fill="#f2274d"/>
            <rect id="Rectangle_37043" data-name="Rectangle 37043" width="12.3" height="2.077" transform="matrix(0.965, -0.264, 0.264, 0.965, 12.659, 17.725)" fill="#949aaa"/>
          </g>
          <rect id="Rectangle_37044" data-name="Rectangle 37044" width="11.674" height="2.077" transform="translate(33.406 43.626) rotate(-15.309)" fill="#949aaa"/>
          <g id="Group_113940" data-name="Group 113940">
            <path id="Path_172967" data-name="Path 172967" d="M3519.168,102.394a1.333,1.333,0,1,1-1.637-.934A1.334,1.334,0,0,1,3519.168,102.394Z" transform="translate(-3451.561 -83.995)" fill="#f2274d"/>
            <path id="Path_172968" data-name="Path 172968" d="M3498.862,94.952a1.333,1.333,0,1,1-1.636-.934A1.333,1.333,0,0,1,3498.862,94.952Z" transform="translate(-3444.846 -81.535)" fill="#f2274d"/>
            <path id="Path_172969" data-name="Path 172969" d="M3479.63,112.778a1.333,1.333,0,1,1-1.637-.934A1.332,1.332,0,0,1,3479.63,112.778Z" transform="translate(-3438.487 -87.429)" fill="#f2274d"/>
            <path id="Path_172970" data-name="Path 172970" d="M3463.281,110.973a1.333,1.333,0,1,1-1.638-.934A1.331,1.331,0,0,1,3463.281,110.973Z" transform="translate(-3433.081 -86.832)" fill="#f2274d"/>
            <path id="Path_172971" data-name="Path 172971" d="M3458.434,125.375a1.333,1.333,0,1,1-1.637-.932A1.333,1.333,0,0,1,3458.434,125.375Z" transform="translate(-3431.479 -91.594)" fill="#f2274d"/>
            <path id="Path_172972" data-name="Path 172972" d="M3435.268,126.212a1.333,1.333,0,1,1-1.638-.933A1.332,1.332,0,0,1,3435.268,126.212Z" transform="translate(-3423.819 -91.871)" fill="#f2274d"/>
            <g id="Group_113937" data-name="Group 113937">
              <path id="Path_172973" data-name="Path 172973" d="M3422.075,139.82a1.333,1.333,0,1,1-1.637-.934A1.331,1.331,0,0,1,3422.075,139.82Z" transform="translate(-3419.457 -96.37)" fill="#6b2d6e"/>
              <path id="Path_172974" data-name="Path 172974" d="M3430.187,100.62a1.333,1.333,0,1,1-1.638-.934A1.332,1.332,0,0,1,3430.187,100.62Z" transform="translate(-3422.139 -83.409)" fill="#6b2d6e"/>
              <path id="Path_172975" data-name="Path 172975" d="M3452,114.06a1.332,1.332,0,1,1-1.636-.934A1.332,1.332,0,0,1,3452,114.06Z" transform="translate(-3429.353 -87.852)" fill="#6b2d6e"/>
              <path id="Path_172976" data-name="Path 172976" d="M3464.677,91.046a1.333,1.333,0,1,1-1.636-.934A1.333,1.333,0,0,1,3464.677,91.046Z" transform="translate(-3433.543 -80.243)" fill="#6b2d6e"/>
              <path id="Path_172977" data-name="Path 172977" d="M3479.887,100.718a1.333,1.333,0,1,1-1.638-.933A1.334,1.334,0,0,1,3479.887,100.718Z" transform="translate(-3438.572 -83.441)" fill="#6b2d6e"/>
              <path id="Path_172978" data-name="Path 172978" d="M3489.109,76.5a1.333,1.333,0,1,1-1.637-.934A1.333,1.333,0,0,1,3489.109,76.5Z" transform="translate(-3441.622 -75.433)" fill="#6b2d6e"/>
              <path id="Path_172979" data-name="Path 172979" d="M3506.595,83.568a1.334,1.334,0,1,1-1.638-.933A1.335,1.335,0,0,1,3506.595,83.568Z" transform="translate(-3447.402 -77.771)" fill="#6b2d6e"/>
              <path id="Path_172980" data-name="Path 172980" d="M3518.764,76.373a1.333,1.333,0,1,1-1.637-.934A1.332,1.332,0,0,1,3518.764,76.373Z" transform="translate(-3451.427 -75.391)" fill="#6b2d6e"/>
              <g id="Group_113936" data-name="Group 113936" transform="translate(0.777 0.88)">
                <path id="Path_172981" data-name="Path 172981" d="M3421.486,119.971l-.868-.187,5.8-27.038,14.569,9.037L3449.7,86.5l9.979,6.407,5.641-16.2,12.616,4.986,7.677-4.8.472.753-8.057,5.036-12.173-4.81-5.706,16.386-10.139-6.509-8.709,15.275-14.28-8.859Z" transform="translate(-3420.618 -76.706)" fill="#6b2d6e"/>
              </g>
            </g>
            <g id="Group_113939" data-name="Group 113939" transform="translate(1.362 12.858)">
              <path id="Path_172982" data-name="Path 172982" d="M3424.11,145.781a1.332,1.332,0,1,1-1.636-.934A1.332,1.332,0,0,1,3424.11,145.781Z" transform="translate(-3421.491 -111.199)" fill="#f2274d"/>
              <g id="Group_113938" data-name="Group 113938" transform="translate(0.636)">
                <path id="Path_172983" data-name="Path 172983" d="M3423.213,130.3l-.771-.44,7.661-13.871,15.8-.529,3.261-9.748,10.742,1.727L3473.032,94.6l13.757,5.63-.337.823-13.217-5.409-13.03,12.744-10.456-1.681-3.215,9.62-15.905.532Z" transform="translate(-3422.441 -94.601)" fill="#f2274d"/>
              </g>
            </g>
          </g>
        </g>
      </g>
      <g id="Group_113950" data-name="Group 113950" transform="translate(3307.362 -123.23)">
        <path id="Path_172984" data-name="Path 172984" d="M3535.083-87.007l-146.777-22.949-7.03,40.786-.028.159h0L3354.631,85.765l152.305,26.641L3538.28-86.367Z" transform="translate(-3354.631 111.71)" fill="#a2b2d6" style="mix-blend-mode: multiply;isolation: isolate"/>
        <g id="Group_113949" data-name="Group 113949" transform="translate(6.032)">
          <rect id="Rectangle_37045" data-name="Rectangle 37045" width="198.268" height="145.165" transform="translate(0 195.388) rotate(-80.221)" fill="#f1f2f2"/>
          <rect id="Rectangle_37046" data-name="Rectangle 37046" width="20.871" height="145.165" transform="translate(26.618 40.945) rotate(-80.221)" fill="#5a5a7a"/>
          <rect id="Rectangle_37047" data-name="Rectangle 37047" width="6.44" height="89.587" transform="translate(64.572 18.885) rotate(-80.221)" fill="#5a5a7a"/>
          <g id="Group_113943" data-name="Group 113943" transform="translate(51.508 30.085)">
            <rect id="Rectangle_37048" data-name="Rectangle 37048" width="3.627" height="88.799" transform="translate(9.426 12.228) rotate(-80.221)" fill="#fff"/>
            <rect id="Rectangle_37049" data-name="Rectangle 37049" width="3.628" height="110.318" transform="matrix(0.17, -0.985, 0.985, 0.17, 0, 3.575)" fill="#fff"/>
          </g>
          <rect id="Rectangle_37050" data-name="Rectangle 37050" width="2.717" height="145.165" transform="translate(2.165 182.825) rotate(-80.221)" fill="#5a5a7a"/>
          <g id="Group_113944" data-name="Group 113944" transform="translate(38.937 59.764)">
            <path id="Path_172985" data-name="Path 172985" d="M3472.3,31.638l.588,28.223a32.406,32.406,0,0,0,14.453-4.345Z" transform="translate(-3438.509 5.128)" fill="#6b2d6e"/>
            <path id="Path_172986" data-name="Path 172986" d="M3474.018,27.714l15.9,25.241a32.415,32.415,0,0,0,13.5-20.174Z" transform="translate(-3439.075 6.425)" fill="#ffd121"/>
            <path id="Path_172987" data-name="Path 172987" d="M3503.3,13.926a32.515,32.515,0,0,0-25.535-36.169l-5.317,30.852Z" transform="translate(-3438.556 22.943)" fill="#75cf33"/>
            <path id="Path_172988" data-name="Path 172988" d="M3456.894,28.831,3432.989,47.2a32.39,32.39,0,0,0,19.519,11.3,32.811,32.811,0,0,0,5.015.472Z" transform="translate(-3425.509 6.056)" fill="#f2274d"/>
            <path id="Path_172989" data-name="Path 172989" d="M3422.292,3.707a32.361,32.361,0,0,0,2.036,18.055l.995,2.152a32.747,32.747,0,0,0,2.526,4.175L3453.173,9l.1-.584,2.178-12.635,3.234-18.771A32.515,32.515,0,0,0,3422.292,3.707Z" transform="translate(-3421.814 23.289)" fill="#317ab0"/>
          </g>
          <g id="Group_113945" data-name="Group 113945" transform="translate(32.072 129.881)">
            <rect id="Rectangle_37051" data-name="Rectangle 37051" width="40.973" height="7.189" transform="translate(0 40.378) rotate(-80.22)" fill="#2e97cc"/>
            <rect id="Rectangle_37052" data-name="Rectangle 37052" width="27.076" height="7.188" transform="matrix(0.17, -0.985, 0.985, 0.17, 10.877, 42.253)" fill="#bcd81a"/>
            <rect id="Rectangle_37053" data-name="Rectangle 37053" width="19.429" height="7.188" transform="translate(21.693 44.117) rotate(-80.221)" fill="#ffc022"/>
            <rect id="Rectangle_37054" data-name="Rectangle 37054" width="13.538" height="7.189" transform="matrix(0.17, -0.985, 0.985, 0.17, 32.474, 45.975)" fill="#8a379b"/>
            <rect id="Rectangle_37055" data-name="Rectangle 37055" width="22.943" height="7.189" transform="translate(43.29 47.839) rotate(-80.222)" fill="#f44d3b"/>
          </g>
          <g id="Group_113946" data-name="Group 113946" transform="translate(109.255 81.897)">
            <rect id="Rectangle_37056" data-name="Rectangle 37056" width="4.707" height="4.707" transform="translate(5.209 4.639) rotate(-80.22)" fill="#317ab0"/>
            <rect id="Rectangle_37057" data-name="Rectangle 37057" width="1.801" height="30.334" transform="translate(14.217 4.717) rotate(-80.222)" fill="#949aaa"/>
            <rect id="Rectangle_37058" data-name="Rectangle 37058" width="4.707" height="4.707" transform="translate(3.913 12.153) rotate(-80.223)" fill="#75cf33"/>
            <rect id="Rectangle_37059" data-name="Rectangle 37059" width="1.801" height="10.661" transform="translate(12.922 12.232) rotate(-80.222)" fill="#949aaa"/>
            <rect id="Rectangle_37060" data-name="Rectangle 37060" width="4.707" height="4.707" transform="translate(2.619 19.668) rotate(-80.22)" fill="#ffd121"/>
            <rect id="Rectangle_37061" data-name="Rectangle 37061" width="1.801" height="24.304" transform="translate(11.627 19.746) rotate(-80.221)" fill="#949aaa"/>
            <rect id="Rectangle_37062" data-name="Rectangle 37062" width="4.707" height="4.707" transform="translate(1.324 27.182) rotate(-80.222)" fill="#6b2d6e"/>
            <rect id="Rectangle_37063" data-name="Rectangle 37063" width="1.801" height="18.127" transform="matrix(0.17, -0.985, 0.985, 0.17, 10.332, 27.26)" fill="#949aaa"/>
            <rect id="Rectangle_37064" data-name="Rectangle 37064" width="4.707" height="4.707" transform="matrix(0.17, -0.985, 0.985, 0.17, 0, 34.86)" fill="#f2274d"/>
            <rect id="Rectangle_37065" data-name="Rectangle 37065" width="1.801" height="27.499" transform="matrix(0.17, -0.985, 0.985, 0.17, 9.008, 34.938)" fill="#949aaa"/>
          </g>
          <g id="Group_113947" data-name="Group 113947" transform="translate(16.655 67.338)">
            <path id="Path_172990" data-name="Path 172990" d="M3408.122-9.325a2.266,2.266,0,0,1-2.617,1.847,2.264,2.264,0,0,1-1.846-2.616,2.265,2.265,0,0,1,2.616-1.847A2.266,2.266,0,0,1,3408.122-9.325Z" transform="translate(-3393.519 11.974)" fill="#231f20"/>
            <path id="Path_172991" data-name="Path 172991" d="M3393.022,78.284a2.264,2.264,0,1,1-1.847-2.616A2.265,2.265,0,0,1,3393.022,78.284Z" transform="translate(-3388.526 -16.994)" fill="#231f20"/>
          </g>
          <g id="Group_113948" data-name="Group 113948" transform="translate(94.137 140.436)">
            <rect id="Rectangle_37066" data-name="Rectangle 37066" width="3.623" height="44.056" transform="translate(5.519 3.57) rotate(-80.221)" fill="#5a5a7a"/>
            <rect id="Rectangle_37067" data-name="Rectangle 37067" width="1.801" height="37.413" transform="translate(10.951 11.164) rotate(-80.221)" fill="#949aaa"/>
            <rect id="Rectangle_37068" data-name="Rectangle 37068" width="1.801" height="44.056" transform="translate(3.524 15.147) rotate(-80.221)" fill="#949aaa"/>
            <rect id="Rectangle_37069" data-name="Rectangle 37069" width="1.801" height="44.056" transform="translate(2.643 20.258) rotate(-80.221)" fill="#949aaa"/>
            <rect id="Rectangle_37070" data-name="Rectangle 37070" width="1.801" height="44.056" transform="translate(1.762 25.369) rotate(-80.221)" fill="#949aaa"/>
            <rect id="Rectangle_37071" data-name="Rectangle 37071" width="1.8" height="44.056" transform="translate(0.881 30.48) rotate(-80.221)" fill="#949aaa"/>
            <rect id="Rectangle_37072" data-name="Rectangle 37072" width="1.801" height="32.736" transform="matrix(0.17, -0.985, 0.985, 0.17, 0, 35.592)" fill="#949aaa"/>
          </g>
          <rect id="Rectangle_37073" data-name="Rectangle 37073" width="1.801" height="10.119" transform="translate(59.662 130.872) rotate(-80.223)" fill="#949aaa"/>
          <rect id="Rectangle_37074" data-name="Rectangle 37074" width="1.801" height="10.119" transform="translate(51.24 179.734) rotate(-80.223)" fill="#5a5a7a"/>
        </g>
      </g>
      <g id="Group_113984" data-name="Group 113984" transform="translate(3217.111 -144.798)">
        <path id="Path_172992" data-name="Path 172992" d="M3238.241-143.738,3219.8,16.9l224,20.489,9.806-161.45Z" transform="translate(-3219.797 144.447)" fill="#a2b2d6" style="mix-blend-mode: multiply;isolation: isolate"/>
        <g id="Group_113983" data-name="Group 113983" transform="translate(4.047)">
          <g id="Group_113951" data-name="Group 113951">
            <rect id="Rectangle_37075" data-name="Rectangle 37075" width="158.471" height="216.442" transform="translate(0 157.864) rotate(-84.981)" fill="#f7f7f7"/>
          </g>
          <g id="Group_113952" data-name="Group 113952" transform="translate(124.838 24.226)">
            <rect id="Rectangle_37076" data-name="Rectangle 37076" width="4.277" height="75.559" transform="matrix(0.087, -0.996, 0.996, 0.087, 4.455, 4.26)" fill="#5a5a7a"/>
            <rect id="Rectangle_37077" data-name="Rectangle 37077" width="2.125" height="64.166" transform="translate(15.126 12.971) rotate(-84.981)" fill="#949aaa"/>
            <rect id="Rectangle_37078" data-name="Rectangle 37078" width="2.126" height="75.559" transform="translate(3.241 18.074) rotate(-84.981)" fill="#949aaa"/>
            <rect id="Rectangle_37079" data-name="Rectangle 37079" width="2.126" height="75.559" transform="translate(2.706 24.173) rotate(-84.981)" fill="#949aaa"/>
            <rect id="Rectangle_37080" data-name="Rectangle 37080" width="2.126" height="75.559" transform="translate(2.17 30.272) rotate(-84.981)" fill="#949aaa"/>
            <rect id="Rectangle_37081" data-name="Rectangle 37081" width="2.125" height="75.558" transform="translate(1.635 36.371) rotate(-84.981)" fill="#949aaa"/>
            <rect id="Rectangle_37082" data-name="Rectangle 37082" width="2.126" height="75.558" transform="translate(1.072 42.783) rotate(-84.981)" fill="#949aaa"/>
            <rect id="Rectangle_37083" data-name="Rectangle 37083" width="2.125" height="75.558" transform="translate(0.536 48.882) rotate(-84.981)" fill="#949aaa"/>
            <rect id="Rectangle_37084" data-name="Rectangle 37084" width="2.125" height="56.146" transform="matrix(0.087, -0.996, 0.996, 0.087, 0, 54.981)" fill="#949aaa"/>
          </g>
          <g id="Group_113955" data-name="Group 113955" transform="translate(27.275 84.057)">
            <g id="Group_113953" data-name="Group 113953" transform="translate(5.051 47.754)">
              <rect id="Rectangle_37085" data-name="Rectangle 37085" width="5.556" height="5.556" transform="translate(0.788 5.535) rotate(-84.982)" fill="#75cf33"/>
              <rect id="Rectangle_37086" data-name="Rectangle 37086" width="2.126" height="12.584" transform="translate(11.392 4.744) rotate(-84.98)" fill="#949aaa"/>
              <rect id="Rectangle_37087" data-name="Rectangle 37087" width="5.557" height="5.556" transform="translate(0 14.502) rotate(-84.979)" fill="#f2274d"/>
              <rect id="Rectangle_37088" data-name="Rectangle 37088" width="2.125" height="28.69" transform="translate(10.604 13.711) rotate(-84.981)" fill="#949aaa"/>
            </g>
            <rect id="Rectangle_37089" data-name="Rectangle 37089" width="2.125" height="11.945" transform="translate(32.496 46.115) rotate(-84.981)" fill="#5a5a7a"/>
            <g id="Group_113954" data-name="Group 113954" transform="translate(0 0)">
              <rect id="Rectangle_37090" data-name="Rectangle 37090" width="36.206" height="1.885" transform="translate(0 36.067) rotate(-84.98)" fill="#bcd81a"/>
              <rect id="Rectangle_37091" data-name="Rectangle 37091" width="21.497" height="1.886" transform="matrix(0.087, -0.996, 0.996, 0.087, 1.878, 36.232)" fill="#f95130"/>
              <rect id="Rectangle_37092" data-name="Rectangle 37092" width="30.549" height="1.887" transform="matrix(0.088, -0.996, 0.996, 0.088, 6.759, 36.661)" fill="#bcd81a"/>
              <rect id="Rectangle_37093" data-name="Rectangle 37093" width="26.023" height="1.885" transform="translate(8.639 36.826) rotate(-84.973)" fill="#f95130"/>
              <rect id="Rectangle_37094" data-name="Rectangle 37094" width="16.972" height="1.885" transform="translate(13.524 37.255) rotate(-84.979)" fill="#bcd81a"/>
              <rect id="Rectangle_37095" data-name="Rectangle 37095" width="20.637" height="1.887" transform="matrix(0.087, -0.996, 0.996, 0.087, 15.403, 37.42)" fill="#f95130"/>
              <rect id="Rectangle_37096" data-name="Rectangle 37096" width="24.126" height="1.886" transform="translate(20.29 37.849) rotate(-84.994)" fill="#bcd81a"/>
              <rect id="Rectangle_37097" data-name="Rectangle 37097" width="6.541" height="1.885" transform="translate(22.166 38.014) rotate(-84.987)" fill="#f95130"/>
              <rect id="Rectangle_37098" data-name="Rectangle 37098" width="32.057" height="1.885" transform="matrix(0.087, -0.996, 0.996, 0.087, 27.052, 38.443)" fill="#bcd81a"/>
              <rect id="Rectangle_37099" data-name="Rectangle 37099" width="35.829" height="1.886" transform="translate(28.928 38.608) rotate(-84.98)" fill="#f95130"/>
              <rect id="Rectangle_37100" data-name="Rectangle 37100" width="18.857" height="1.885" transform="matrix(0.088, -0.996, 0.996, 0.088, 33.811, 39.036)" fill="#bcd81a"/>
              <rect id="Rectangle_37101" data-name="Rectangle 37101" width="33.566" height="1.885" transform="matrix(0.088, -0.996, 0.996, 0.088, 35.691, 39.202)" fill="#f95130"/>
              <rect id="Rectangle_37102" data-name="Rectangle 37102" width="23.76" height="1.886" transform="translate(40.576 39.631) rotate(-84.986)" fill="#bcd81a"/>
              <rect id="Rectangle_37103" data-name="Rectangle 37103" width="22.146" height="1.886" transform="translate(42.453 39.796) rotate(-84.976)" fill="#f95130"/>
              <rect id="Rectangle_37104" data-name="Rectangle 37104" width="14.32" height="1.887" transform="matrix(0.087, -0.996, 0.996, 0.087, 47.338, 40.225)" fill="#bcd81a"/>
              <rect id="Rectangle_37105" data-name="Rectangle 37105" width="10.69" height="1.886" transform="matrix(0.088, -0.996, 0.996, 0.088, 49.214, 40.389)" fill="#f95130"/>
              <rect id="Rectangle_37106" data-name="Rectangle 37106" width="7.92" height="1.885" transform="translate(54.101 40.819) rotate(-84.982)" fill="#bcd81a"/>
              <rect id="Rectangle_37107" data-name="Rectangle 37107" width="26.023" height="1.886" transform="translate(55.978 40.984) rotate(-84.979)" fill="#f95130"/>
              <rect id="Rectangle_37108" data-name="Rectangle 37108" width="28.663" height="1.886" transform="translate(60.859 41.412) rotate(-84.966)" fill="#bcd81a"/>
              <rect id="Rectangle_37109" data-name="Rectangle 37109" width="37.714" height="1.885" transform="matrix(0.087, -0.996, 0.996, 0.087, 62.742, 41.578)" fill="#f95130"/>
              <rect id="Rectangle_37110" data-name="Rectangle 37110" width="17.726" height="1.886" transform="matrix(0.087, -0.996, 0.996, 0.087, 67.627, 42.007)" fill="#bcd81a"/>
              <rect id="Rectangle_37111" data-name="Rectangle 37111" width="14.98" height="1.886" transform="matrix(0.087, -0.996, 0.996, 0.087, 69.504, 42.172)" fill="#f95130"/>
              <rect id="Rectangle_37112" data-name="Rectangle 37112" width="10.56" height="1.885" transform="translate(74.389 42.601) rotate(-84.987)" fill="#bcd81a"/>
              <rect id="Rectangle_37113" data-name="Rectangle 37113" width="5.997" height="1.886" transform="translate(76.266 42.765) rotate(-84.977)" fill="#f95130"/>
            </g>
          </g>
          <g id="Group_113957" data-name="Group 113957" transform="translate(36.489 49.327)">
            <g id="Group_113956" data-name="Group 113956" transform="translate(0 4.568)">
              <rect id="Rectangle_37114" data-name="Rectangle 37114" width="5.556" height="5.556" transform="matrix(0.087, -0.996, 0.996, 0.087, 1.575, 5.535)" fill="#22bad3"/>
              <rect id="Rectangle_37115" data-name="Rectangle 37115" width="2.125" height="35.808" transform="matrix(0.087, -0.996, 0.996, 0.087, 12.179, 4.744)" fill="#949aaa"/>
              <rect id="Rectangle_37116" data-name="Rectangle 37116" width="5.556" height="5.556" transform="matrix(0.087, -0.996, 0.996, 0.087, 0.788, 14.502)" fill="#f95130"/>
              <rect id="Rectangle_37117" data-name="Rectangle 37117" width="2.126" height="12.585" transform="translate(11.391 13.711) rotate(-84.981)" fill="#949aaa"/>
              <rect id="Rectangle_37118" data-name="Rectangle 37118" width="5.556" height="5.556" transform="matrix(0.087, -0.996, 0.996, 0.087, 0, 23.468)" fill="#ffd121"/>
              <rect id="Rectangle_37119" data-name="Rectangle 37119" width="2.126" height="28.69" transform="translate(10.604 22.678) rotate(-84.981)" fill="#949aaa"/>
            </g>
            <rect id="Rectangle_37120" data-name="Rectangle 37120" width="2.125" height="11.945" transform="translate(30.197 2.117) rotate(-84.981)" fill="#5a5a7a"/>
          </g>
          <g id="Group_113982" data-name="Group 113982" transform="translate(118.72 93.271)">
            <g id="Group_113958" data-name="Group 113958" transform="translate(6.279 46.679)">
              <rect id="Rectangle_37121" data-name="Rectangle 37121" width="5.556" height="5.556" transform="matrix(0.087, -0.996, 0.996, 0.087, 0.788, 5.535)" fill="#6b2d6e"/>
              <rect id="Rectangle_37122" data-name="Rectangle 37122" width="2.125" height="35.806" transform="matrix(0.087, -0.996, 0.996, 0.087, 11.393, 4.745)" fill="#949aaa"/>
              <rect id="Rectangle_37123" data-name="Rectangle 37123" width="5.557" height="5.556" transform="matrix(0.087, -0.996, 0.996, 0.087, 0, 14.502)" fill="#f2274d"/>
              <rect id="Rectangle_37124" data-name="Rectangle 37124" width="2.126" height="12.585" transform="translate(10.605 13.711) rotate(-84.982)" fill="#949aaa"/>
            </g>
            <rect id="Rectangle_37125" data-name="Rectangle 37125" width="2.126" height="11.945" transform="matrix(0.087, -0.996, 0.996, 0.087, 31.685, 43.877)" fill="#5a5a7a"/>
            <g id="Group_113981" data-name="Group 113981" transform="translate(0 0)">
              <g id="Group_113960" data-name="Group 113960" transform="translate(69.627 26.805)">
                <g id="Group_113959" data-name="Group 113959">
                  <path id="Path_172993" data-name="Path 172993" d="M3509.158,38.091c-.04,0-.081,0-.121,0a1.571,1.571,0,0,1,.118-3.137c.041,0,.081,0,.122,0a1.571,1.571,0,0,1-.119,3.137Z" transform="translate(-3507.347 -34.711)" fill="#ff365c"/>
                  <path id="Path_172994" data-name="Path 172994" d="M3509.037,35.071c.035,0,.069,0,.1,0a1.332,1.332,0,0,1-.1,2.659c-.034,0-.068,0-.1,0a1.332,1.332,0,0,1,.1-2.659m0-.478h0a1.81,1.81,0,0,0-.136,3.614c.047,0,.093.005.14.005a1.817,1.817,0,0,0,1.8-1.672,1.808,1.808,0,0,0-1.666-1.942c-.047,0-.093-.005-.141-.005Z" transform="translate(-3507.229 -34.593)" fill="#ff365c"/>
                </g>
              </g>
              <g id="Group_113962" data-name="Group 113962" transform="translate(58.517 17.544)">
                <g id="Group_113961" data-name="Group 113961">
                  <path id="Path_172995" data-name="Path 172995" d="M3492.562,24.256c-.04,0-.08,0-.121,0a1.571,1.571,0,0,1,.119-3.137c.04,0,.081,0,.121,0a1.571,1.571,0,0,1-.118,3.137Z" transform="translate(-3490.749 -20.875)" fill="#ff365c"/>
                  <path id="Path_172996" data-name="Path 172996" d="M3492.441,21.236c.034,0,.068,0,.1,0a1.332,1.332,0,0,1-.1,2.659c-.034,0-.068,0-.1,0a1.332,1.332,0,0,1,.1-2.659m0-.479h0a1.819,1.819,0,0,0-1.8,1.673,1.809,1.809,0,0,0,1.667,1.942c.047,0,.094.005.14.005a1.81,1.81,0,0,0,1.371-2.987,1.8,1.8,0,0,0-1.235-.627c-.047,0-.093-.005-.139-.005Z" transform="translate(-3490.631 -20.757)" fill="#ff365c"/>
                </g>
              </g>
              <g id="Group_113964" data-name="Group 113964" transform="translate(42.391 24.435)">
                <g id="Group_113963" data-name="Group 113963">
                  <path id="Path_172997" data-name="Path 172997" d="M3468.469,34.55c-.041,0-.081,0-.122,0a1.57,1.57,0,0,1-1.446-1.685,1.577,1.577,0,0,1,1.564-1.452c.04,0,.081,0,.121,0a1.571,1.571,0,0,1-.118,3.137Z" transform="translate(-3466.658 -31.17)" fill="#ff365c"/>
                  <path id="Path_172998" data-name="Path 172998" d="M3468.348,31.531c.034,0,.069,0,.1,0a1.331,1.331,0,0,1-.1,2.659c-.034,0-.068,0-.1,0a1.331,1.331,0,0,1,.1-2.659m0-.479h0a1.81,1.81,0,0,0-.137,3.614c.047,0,.093.005.139.005a1.818,1.818,0,0,0,1.8-1.671,1.811,1.811,0,0,0-1.667-1.943c-.047,0-.093-.005-.139-.005Z" transform="translate(-3466.54 -31.052)" fill="#ff365c"/>
                </g>
              </g>
              <g id="Group_113966" data-name="Group 113966" transform="translate(32.505 19.615)">
                <g id="Group_113965" data-name="Group 113965" transform="translate(0 0)">
                  <path id="Path_172999" data-name="Path 172999" d="M3453.7,27.349c-.041,0-.081,0-.122,0a1.567,1.567,0,0,1-1.445-1.685,1.576,1.576,0,0,1,1.564-1.451c.04,0,.081,0,.121,0a1.571,1.571,0,0,1,1.445,1.687A1.576,1.576,0,0,1,3453.7,27.349Z" transform="translate(-3451.888 -23.969)" fill="#ff365c"/>
                  <path id="Path_173000" data-name="Path 173000" d="M3453.577,24.33c.034,0,.069,0,.1,0a1.332,1.332,0,0,1-.1,2.659c-.034,0-.069,0-.1,0a1.331,1.331,0,0,1,.1-2.659m0-.479h0a1.81,1.81,0,0,0-.137,3.614c.047,0,.094.005.14.005a1.816,1.816,0,0,0,1.8-1.671,1.808,1.808,0,0,0-1.665-1.943c-.047,0-.093-.005-.139-.005Z" transform="translate(-3451.77 -23.851)" fill="#ff365c"/>
                </g>
              </g>
              <g id="Group_113968" data-name="Group 113968" transform="translate(26.207 27.592)">
                <g id="Group_113967" data-name="Group 113967">
                  <path id="Path_173001" data-name="Path 173001" d="M3444.29,39.267c-.04,0-.08,0-.12,0a1.57,1.57,0,0,1,.118-3.136c.041,0,.081,0,.122,0a1.57,1.57,0,0,1-.12,3.136Z" transform="translate(-3442.479 -35.887)" fill="#ff365c"/>
                  <path id="Path_173002" data-name="Path 173002" d="M3444.169,36.248c.034,0,.069,0,.1,0a1.331,1.331,0,0,1-.1,2.658c-.034,0-.069,0-.1,0a1.331,1.331,0,0,1,.1-2.658m0-.479h0a1.817,1.817,0,0,0-1.8,1.671,1.811,1.811,0,0,0,1.667,1.942c.047,0,.094.005.14.005a1.818,1.818,0,0,0,1.8-1.671,1.81,1.81,0,0,0-1.667-1.942c-.047,0-.093-.005-.14-.005Z" transform="translate(-3442.361 -35.769)" fill="#ff365c"/>
                </g>
              </g>
              <g id="Group_113970" data-name="Group 113970" transform="translate(11.432 22.899)">
                <g id="Group_113969" data-name="Group 113969">
                  <path id="Path_173003" data-name="Path 173003" d="M3422.217,32.256c-.04,0-.08,0-.121,0a1.571,1.571,0,0,1,.119-3.137c.04,0,.08,0,.121,0a1.571,1.571,0,0,1-.119,3.137Z" transform="translate(-3420.406 -28.876)" fill="#ff365c"/>
                  <path id="Path_173004" data-name="Path 173004" d="M3422.1,29.236c.034,0,.068,0,.1,0a1.331,1.331,0,0,1-.1,2.659c-.034,0-.068,0-.1,0a1.331,1.331,0,0,1,.1-2.659m0-.478h0a1.81,1.81,0,0,0-1.373,2.988,1.8,1.8,0,0,0,1.236.626c.047,0,.093.005.139.005a1.819,1.819,0,0,0,1.8-1.671,1.812,1.812,0,0,0-1.668-1.942c-.047,0-.093-.005-.139-.005Z" transform="translate(-3420.288 -28.758)" fill="#ff365c"/>
                </g>
              </g>
              <g id="Group_113974" data-name="Group 113974" transform="translate(0.665)">
                <g id="Group_113973" data-name="Group 113973">
                  <g id="Group_113972" data-name="Group 113972">
                    <g id="Group_113971" data-name="Group 113971">
                      <path id="Path_173005" data-name="Path 173005" d="M3404.694,20.96l14.86-23.975,10.72,13.476L3443.62-.988l7.2,9.344,10.723-13.295,10.286,9.021,8.952-1.955.291,1.334-9.625,2.1-9.736-8.537-10.917,13.535L3443.418.986l-13.332,11.435L3419.693-.647l-13.837,22.326Z" transform="translate(-3404.365 5.283)" fill="#7a3c7d"/>
                      <path id="Path_173006" data-name="Path 173006" d="M3461.41-4.765,3471.6,4.172l8.837-1.93.189.867-9.274,2.025-9.832-8.622L3450.636,10,3443.292.471l-13.335,11.437L3419.506-1.231,3405.615,21.18l-.754-.467,14.555-23.484,10.663,13.4L3443.421-.812l7.232,9.385L3461.41-4.765m-.059-.688-.313.388L3450.662,7.8,3443.8-1.1l-.307-.4-.383.328L3430.143,9.947,3419.79-3.069l-.423-.531-.357.578L3404.454,20.46l-.252.407.407.252.754.467.406.252.252-.407L3419.554-.4l10.028,12.608.309.388.377-.323L3443.22,1.162l7.038,9.135.371.481.38-.472L3461.579-2.8l9.458,8.293.181.159.236-.052,9.273-2.025.467-.1-.1-.467-.188-.867-.1-.467-.467.1-8.6,1.879-10.008-8.777-.375-.329Z" transform="translate(-3404.202 5.453)" fill="#7a3c7d"/>
                    </g>
                  </g>
                </g>
              </g>
              <g id="Group_113980" data-name="Group 113980" transform="translate(0 17.97)">
                <g id="Group_113976" data-name="Group 113976" transform="translate(0 14.736)">
                  <g id="Group_113975" data-name="Group 113975">
                    <path id="Path_173007" data-name="Path 173007" d="M3405.136,46.908c-.04,0-.081,0-.122,0a1.568,1.568,0,0,1-1.445-1.686,1.576,1.576,0,0,1,1.563-1.45c.04,0,.081,0,.121,0a1.57,1.57,0,0,1,1.445,1.685A1.576,1.576,0,0,1,3405.136,46.908Z" transform="translate(-3403.326 -43.528)" fill="#ff365c"/>
                    <path id="Path_173008" data-name="Path 173008" d="M3405.015,43.888c.034,0,.068,0,.1,0a1.332,1.332,0,0,1-.1,2.659c-.034,0-.069,0-.1,0a1.332,1.332,0,0,1,.1-2.659m0-.478h0a1.81,1.81,0,0,0-.137,3.614c.047,0,.094.005.14.005a1.818,1.818,0,0,0,1.8-1.673,1.81,1.81,0,0,0-1.666-1.942c-.047,0-.093-.005-.139-.005Z" transform="translate(-3403.208 -43.41)" fill="#ff365c"/>
                  </g>
                </g>
                <g id="Group_113979" data-name="Group 113979" transform="translate(0.565 0)">
                  <g id="Group_113978" data-name="Group 113978">
                    <g id="Group_113977" data-name="Group 113977">
                      <path id="Path_173009" data-name="Path 173009" d="M3405.209,39.042a.243.243,0,0,1-.165-.083l-.577-.674a.238.238,0,0,1,.023-.335l11.875-10.469a.242.242,0,0,1,.158-.06.223.223,0,0,1,.073.011l14.881,4.769,6.246-7.941a.238.238,0,0,1,.188-.092.248.248,0,0,1,.115.029l9.417,5.182,16.563-7.609a.244.244,0,0,1,.1-.021.241.241,0,0,1,.16.061l11.043,9.926a.239.239,0,0,1,.019.337l-.592.661a.241.241,0,0,1-.166.079h-.013a.239.239,0,0,1-.16-.061L3463.9,23.323l-16.4,7.537a.236.236,0,0,1-.215-.008l-9.094-5-6.136,7.807a.239.239,0,0,1-.187.092.251.251,0,0,1-.074-.011l-15.012-4.812-11.4,10.058a.24.24,0,0,1-.159.06Z" transform="translate(-3404.17 -21.512)" fill="#ff365c"/>
                      <path id="Path_173010" data-name="Path 173010" d="M3463.988,21.872l11.044,9.926-.593.661-10.612-9.537-16.547,7.6-9.271-5.1-6.262,7.967-15.141-4.853-11.5,10.147-.577-.674L3416.4,27.543l15.04,4.82,6.348-8.072,9.524,5.24,16.672-7.659m0-.478a.474.474,0,0,0-.2.044L3447.335,29l-9.312-5.124a.485.485,0,0,0-.23-.059.476.476,0,0,0-.376.183l-6.143,7.811-14.723-4.719a.477.477,0,0,0-.462.1l-11.875,10.468a.479.479,0,0,0-.047.67l.578.674a.478.478,0,0,0,.33.166h.033a.478.478,0,0,0,.317-.12l11.3-9.968,14.882,4.77a.479.479,0,0,0,.522-.16l6.011-7.648,8.916,4.9a.478.478,0,0,0,.43.016l16.261-7.471,10.378,9.327a.48.48,0,0,0,.32.122h.026a.475.475,0,0,0,.33-.158l.593-.661a.479.479,0,0,0-.037-.675l-11.044-9.926a.474.474,0,0,0-.319-.122Z" transform="translate(-3404.052 -21.394)" fill="#ff365c"/>
                    </g>
                  </g>
                </g>
              </g>
            </g>
          </g>
        </g>
      </g>
      <g id="Group_113985" data-name="Group 113985" transform="translate(3252.687 -126.737)">
        <path id="Path_173011" data-name="Path 173011" d="M3308.739-97.742l10.549-8.844,9.817,10.7,20.627-21.926,15.106,23.1L3309.2-96.318Z" transform="translate(-3284.782 117.815)" fill="#f95130"/>
        <path id="Path_173012" data-name="Path 173012" d="M3360.292-97.434l-10.5-12.518-15.208,11.3-11.284-9.877-13.794,14.267-14.9-9.921-8.026,10.834,71.641,5.748Z" transform="translate(-3277.456 115.215)" fill="#ffd121"/>
        <path id="Path_173013" data-name="Path 173013" d="M3286.58-91.463a1.878,1.878,0,0,1-1.121-.371,1.886,1.886,0,0,1-.393-2.639l8.026-10.834a1.886,1.886,0,0,1,2.561-.447l13.593,9.05,12.7-13.137a1.886,1.886,0,0,1,2.6-.108l10.138,8.874,13.986-10.393a1.886,1.886,0,0,1,2.57.3l10.5,12.518a1.886,1.886,0,0,1-.233,2.657,1.886,1.886,0,0,1-2.657-.233l-9.355-11.156-13.78,10.24a1.886,1.886,0,0,1-2.367-.095l-9.933-8.695-12.547,12.977a1.886,1.886,0,0,1-2.4.259l-13.408-8.927-6.958,9.392A1.884,1.884,0,0,1,3286.58-91.463Z" transform="translate(-3277.456 115.215)" fill="#fff"/>
        <path id="Path_173014" data-name="Path 173014" d="M3272.948-89.37l10.342-8.74,5.4,5.185L3298.1-99.7l8.146,7.194,18.151-10.89,13.477,12.044,19.95-7.019-1.51,16.584Z" transform="translate(-3272.948 113.046)" fill="#22bad3"/>
      </g>
      <path id="Path_173015" data-name="Path 173015" d="M3342.986-89.461a1.885,1.885,0,0,1-1.257-.48l-12.441-11.118-16.959,10.175a1.886,1.886,0,0,1-2.219-.2l-7.018-6.2-8.194,5.892a1.886,1.886,0,0,1-2.408-.171l-5.4-5.186a1.886,1.886,0,0,1-.053-2.667,1.886,1.886,0,0,1,2.667-.053l4.265,4.1,8.14-5.854a1.887,1.887,0,0,1,2.35.118l7.111,6.28,16.967-10.18a1.886,1.886,0,0,1,2.227.211l12.646,11.3,18.9-6.649a1.887,1.887,0,0,1,2.406,1.153,1.886,1.886,0,0,1-1.154,2.405l-19.95,7.019A1.884,1.884,0,0,1,3342.986-89.461Z" transform="translate(-25.37 -13.691)" fill="#fff"/>
      <path id="Path_173016" data-name="Path 173016" d="M3406.718,33.14a1.333,1.333,0,1,1-1.227-1.429A1.333,1.333,0,0,1,3406.718,33.14Z" transform="translate(-63.612 -58.361)" fill="#f7f7f7"/>
      <path id="Path_173016_-_Outline" data-name="Path 173016 - Outline" d="M3405.39,35.785c-.069,0-.14,0-.209-.008a2.746,2.746,0,0,1,.207-5.485c.07,0,.141,0,.211.008a2.746,2.746,0,0,1-.209,5.485Z" transform="translate(-63.612 -58.361)" fill="#7a3c7d"/>
      <path id="Path_173017" data-name="Path 173017" d="M3427.543-1a1.333,1.333,0,0,1-1.431,1.226,1.333,1.333,0,0,1-1.227-1.43,1.333,1.333,0,0,1,1.43-1.226A1.333,1.333,0,0,1,3427.543-1Z" transform="translate(-70.498 -47.072)" fill="#f7f7f7"/>
      <path id="Path_173017_-_Outline" data-name="Path 173017 - Outline" d="M3426.216,1.642c-.07,0-.141,0-.211-.008a2.75,2.75,0,0,1-2.529-2.948,2.759,2.759,0,0,1,2.738-2.537c.07,0,.141,0,.211.008a2.731,2.731,0,0,1,1.875.95,2.727,2.727,0,0,1,.655,2A2.759,2.759,0,0,1,3426.216,1.642Z" transform="translate(-70.498 -47.072)" fill="#7a3c7d"/>
      <path id="Path_173018" data-name="Path 173018" d="M3443.541,18.982a1.331,1.331,0,1,1-1.224-1.43A1.329,1.329,0,0,1,3443.541,18.982Z" transform="translate(-75.789 -53.68)" fill="#f7f7f7"/>
      <path id="Path_173018_-_Outline" data-name="Path 173018 - Outline" d="M3442.218,21.626c-.07,0-.141,0-.211-.008a2.746,2.746,0,0,1,.208-5.485c.07,0,.141,0,.211.008a2.746,2.746,0,0,1,2.527,2.949A2.756,2.756,0,0,1,3442.218,21.626Z" transform="translate(-75.789 -53.68)" fill="#7a3c7d"/>
      <path id="Path_173019" data-name="Path 173019" d="M3463.21,1.6a1.333,1.333,0,1,1-1.226-1.428A1.332,1.332,0,0,1,3463.21,1.6Z" transform="translate(-82.291 -47.933)" fill="#f7f7f7"/>
      <path id="Path_173019_-_Outline" data-name="Path 173019 - Outline" d="M3461.884,4.245c-.07,0-.141,0-.211-.008a2.751,2.751,0,0,1-2.53-2.949,2.759,2.759,0,0,1,2.738-2.536c.07,0,.141,0,.211.008a2.747,2.747,0,0,1,2.529,2.948A2.759,2.759,0,0,1,3461.884,4.245Z" transform="translate(-82.291 -47.933)" fill="#7a3c7d"/>
      <path id="Path_173020" data-name="Path 173020" d="M3474.262,15.817a1.332,1.332,0,1,1-1.228-1.43A1.333,1.333,0,0,1,3474.262,15.817Z" transform="translate(-85.946 -52.633)" fill="#f7f7f7"/>
      <path id="Path_173020_-_Outline" data-name="Path 173020 - Outline" d="M3472.934,18.461c-.07,0-.141,0-.212-.008a2.746,2.746,0,0,1,.208-5.485c.07,0,.141,0,.211.008a2.748,2.748,0,0,1,2.53,2.947A2.759,2.759,0,0,1,3472.934,18.461Z" transform="translate(-85.946 -52.633)" fill="#7a3c7d"/>
      <path id="Path_173021" data-name="Path 173021" d="M3491.089-3.863a1.332,1.332,0,0,1-1.429,1.226,1.331,1.331,0,0,1-1.226-1.43,1.332,1.332,0,0,1,1.43-1.226A1.332,1.332,0,0,1,3491.089-3.863Z" transform="translate(-91.51 -46.126)" fill="#f7f7f7"/>
      <path id="Path_173021_-_Outline" data-name="Path 173021 - Outline" d="M3489.762-1.218c-.069,0-.14,0-.209-.008a2.75,2.75,0,0,1-2.53-2.948,2.759,2.759,0,0,1,2.737-2.537c.07,0,.141,0,.211.008a2.749,2.749,0,0,1,2.528,2.948A2.758,2.758,0,0,1,3489.762-1.218Z" transform="translate(-91.51 -46.126)" fill="#7a3c7d"/>
      <path id="Path_173022" data-name="Path 173022" d="M3505.155,8.674a1.333,1.333,0,1,1-1.224-1.429A1.331,1.331,0,0,1,3505.155,8.674Z" transform="translate(-96.16 -50.272)" fill="#f7f7f7"/>
      <path id="Path_173022_-_Outline" data-name="Path 173022 - Outline" d="M3503.831,11.319c-.07,0-.141,0-.211-.008a2.746,2.746,0,0,1,.208-5.485c.07,0,.141,0,.211.008a2.745,2.745,0,0,1,2.527,2.948A2.756,2.756,0,0,1,3503.831,11.319Z" transform="translate(-96.16 -50.272)" fill="#7a3c7d"/>
      <path id="Path_173023" data-name="Path 173023" d="M3519.028,6a1.332,1.332,0,1,1-1.226-1.43A1.333,1.333,0,0,1,3519.028,6Z" transform="translate(-100.748 -49.388)" fill="#f7f7f7"/>
      <path id="Path_173023_-_Outline" data-name="Path 173023 - Outline" d="M3517.7,8.647c-.07,0-.141,0-.211-.008a2.748,2.748,0,0,1-2.528-2.949,2.756,2.756,0,0,1,2.737-2.536c.07,0,.141,0,.211.008a2.747,2.747,0,0,1-.209,5.485Z" transform="translate(-100.748 -49.388)" fill="#7a3c7d"/>
      <g id="Group_114056" data-name="Group 114056" transform="translate(3235.216 -91.389)">
        <g id="Group_114049" data-name="Group 114049" transform="translate(0 4.757)">
          <path id="Path_173024" data-name="Path 173024" d="M3461.616,76.188,3444.695-43.6a6.681,6.681,0,0,0-7.55-5.681l-184.55,26.069a6.681,6.681,0,0,0-5.682,7.55l16.921,119.791a6.681,6.681,0,0,0,7.55,5.68l184.55-26.069A6.681,6.681,0,0,0,3461.616,76.188Z" transform="translate(-3246.847 55.072)" fill="#a2b2d6" style="mix-blend-mode: multiply;isolation: isolate"/>
          <g id="Group_113993" data-name="Group 113993" transform="translate(3.789)">
            <g id="Group_113988" data-name="Group 113988">
              <g id="Group_113987" data-name="Group 113987">
                <path id="Path_173025" data-name="Path 173025" d="M3468.776,69.272a6.756,6.756,0,0,1-5.818,7.578L3276.09,101.417a6.757,6.757,0,0,1-7.579-5.818L3252.566-25.7a6.756,6.756,0,0,1,5.819-7.578l186.867-24.566a6.757,6.757,0,0,1,7.58,5.818Z" transform="translate(-3252.508 57.899)" fill="#3f4751"/>
                <g id="Group_113986" data-name="Group 113986" transform="translate(0.668 0.668)" opacity="0.3">
                  <path id="Path_173026" data-name="Path 173026" d="M3446.47-55.232a4.427,4.427,0,0,1,4.373,3.843l15.945,121.3a4.419,4.419,0,0,1-3.805,4.956L3276.116,99.429a4.5,4.5,0,0,1-.584.038,4.427,4.427,0,0,1-4.374-3.843L3255.213-25.671a4.425,4.425,0,0,1,3.806-4.957l186.866-24.565a4.535,4.535,0,0,1,.585-.039m0-1.669a6.194,6.194,0,0,0-.8.053L3258.8-32.283a6.1,6.1,0,0,0-5.244,6.829L3269.5,95.841a6.1,6.1,0,0,0,6.029,5.3,6.218,6.218,0,0,0,.8-.053L3463.2,76.518a6.089,6.089,0,0,0,5.244-6.829L3452.5-51.606a6.1,6.1,0,0,0-6.028-5.3Z" transform="translate(-3253.506 56.901)" fill="#231f20"/>
                </g>
                <path id="Path_173027" data-name="Path 173027" d="M3275.2,104.3a9.61,9.61,0,0,1-9.5-8.337l-15.945-121.3a9.523,9.523,0,0,1,1.9-7.086,9.523,9.523,0,0,1,6.355-3.667l187.05-24.59,1.074-.058a9.608,9.608,0,0,1,9.5,8.337l15.945,121.3a9.6,9.6,0,0,1-8.255,10.753l-187.052,24.59ZM3446.14-55.07l-187.386,24.6a3.9,3.9,0,0,0-2.6,1.5,3.9,3.9,0,0,0-.779,2.9L3271.317,95.23a3.934,3.934,0,0,0,3.886,3.415v2.83l.52-2.864,186.867-24.566a3.931,3.931,0,0,0,3.382-4.4L3450.026-51.654A3.933,3.933,0,0,0,3446.14-55.07Z" transform="translate(-3252.508 57.899)" fill="#bfc9d8"/>
              </g>
            </g>
            <g id="Group_113990" data-name="Group 113990" transform="translate(40.863 8.456)">
              <g id="Group_113989" data-name="Group 113989" opacity="0.3">
                <path id="Path_173028" data-name="Path 173028" d="M3366.36,98.051l-52.8,6.479,30.48-143.317,52.8-6.479Z" transform="translate(-3313.556 45.266)" fill="#fff"/>
              </g>
            </g>
            <path id="Path_173029" data-name="Path 173029" d="M3403.228-28.791a1.639,1.639,0,0,1-1.411,1.839,1.639,1.639,0,0,1-1.838-1.411,1.639,1.639,0,0,1,1.411-1.838A1.637,1.637,0,0,1,3403.228-28.791Z" transform="translate(-3301.264 48.746)" fill="#3f4751"/>
            <g id="Group_113992" data-name="Group 113992" transform="translate(18.142 16.475)">
              <g id="Group_113991" data-name="Group 113991">
                <rect id="Rectangle_37126" data-name="Rectangle 37126" width="167.727" height="105.165" transform="matrix(0.991, -0.13, 0.13, 0.991, 0, 21.862)" fill="#fff"/>
              </g>
            </g>
          </g>
          <g id="Group_114004" data-name="Group 114004" transform="translate(148.408 36.535)">
            <g id="Group_113995" data-name="Group 113995" transform="translate(18.062 18.7)">
              <g id="Group_113994" data-name="Group 113994">
                <path id="Path_173030" data-name="Path 173030" d="M3501.333,40.225a.5.5,0,0,1-.477-.345l-4.533-13.855a.5.5,0,0,1,.8-.535l11.021,9.535a.5.5,0,0,1,.039.72,17.33,17.33,0,0,1-6.683,4.45A.5.5,0,0,1,3501.333,40.225Z" transform="translate(-3495.797 -24.868)" fill="#72bdba"/>
                <path id="Path_173031" data-name="Path 173031" d="M3496.551,25.622l11.021,9.535a16.737,16.737,0,0,1-6.487,4.32l-4.534-13.855m0-1a1,1,0,0,0-.952,1.313l4.533,13.855a1,1,0,0,0,1.3.629,17.829,17.829,0,0,0,6.876-4.578,1,1,0,0,0-.078-1.44l-11.021-9.535a1,1,0,0,0-.656-.244Z" transform="translate(-3495.55 -24.62)" fill="#fff"/>
              </g>
            </g>
            <g id="Group_113997" data-name="Group 113997" transform="translate(18.234 15.312)">
              <g id="Group_113996" data-name="Group 113996">
                <path id="Path_173032" data-name="Path 173032" d="M3508.706,33.306a.5.5,0,0,1-.328-.122L3496.729,23.1a.5.5,0,0,1,.266-.876l15.285-1.918a.485.485,0,0,1,.062,0,.5.5,0,0,1,.5.456,17.2,17.2,0,0,1-3.744,12.355.5.5,0,0,1-.345.185Z" transform="translate(-3496.055 -19.807)" fill="#ffd121"/>
                <path id="Path_173033" data-name="Path 173033" d="M3512.094,20.561a16.744,16.744,0,0,1-3.635,12l-11.649-10.079,15.285-1.918m0-1a.972.972,0,0,0-.125.008l-15.285,1.918a1,1,0,0,0-.531,1.751l11.649,10.08a1,1,0,0,0,.655.244c.03,0,.06,0,.09,0a1,1,0,0,0,.691-.37,17.7,17.7,0,0,0,3.852-12.713,1,1,0,0,0-1-.913Z" transform="translate(-3495.807 -19.559)" fill="#fff"/>
              </g>
            </g>
            <g id="Group_113999" data-name="Group 113999" transform="translate(15.313 0)">
              <g id="Group_113998" data-name="Group 113998">
                <path id="Path_173034" data-name="Path 173034" d="M3494.7,14.542a.5.5,0,0,1-.5-.438L3492.2-1.938a.5.5,0,0,1,.107-.377.505.505,0,0,1,.345-.185c.514-.046,1.034-.069,1.547-.069a17.2,17.2,0,0,1,17.046,14.518.5.5,0,0,1-.432.577l-16.042,2.013A.5.5,0,0,1,3494.7,14.542Z" transform="translate(-3491.691 3.07)" fill="#ff6464"/>
                <path id="Path_173035" data-name="Path 173035" d="M3493.947-2.315a16.792,16.792,0,0,1,16.552,14.1l-16.042,2.012-2.011-16.042q.756-.067,1.5-.067m0-1c-.527,0-1.063.024-1.591.071a1,1,0,0,0-.691.369,1,1,0,0,0-.214.754l2.01,16.042a1,1,0,0,0,.994.878.983.983,0,0,0,.125-.008l16.042-2.012a1,1,0,0,0,.864-1.155,17.794,17.794,0,0,0-17.54-14.939Z" transform="translate(-3491.443 3.317)" fill="#fff"/>
              </g>
            </g>
            <g id="Group_114001" data-name="Group 114001" transform="translate(7.54 18.134)">
              <g id="Group_114000" data-name="Group 114000">
                <path id="Path_173036" data-name="Path 173036" d="M3490.312,40.978a17.189,17.189,0,0,1-9.508-2.865.5.5,0,0,1-.132-.709l9.048-12.671a.5.5,0,0,1,.408-.21.49.49,0,0,1,.076.006.5.5,0,0,1,.4.339l4.844,14.8a.5.5,0,0,1-.338.637,17.462,17.462,0,0,1-4.8.672Z" transform="translate(-3480.078 -24.022)" fill="#a2b2d6"/>
                <path id="Path_173037" data-name="Path 173037" d="M3489.88,24.776l4.844,14.8a16.994,16.994,0,0,1-4.659.653,16.72,16.72,0,0,1-9.232-2.782l9.048-12.671m0-1a1,1,0,0,0-.815.42l-9.048,12.671a1,1,0,0,0,.263,1.418,17.682,17.682,0,0,0,9.784,2.948A17.977,17.977,0,0,0,3495,40.54a1,1,0,0,0,.676-1.274l-4.843-14.8a1,1,0,0,0-.8-.679.973.973,0,0,0-.152-.011Z" transform="translate(-3479.831 -23.775)" fill="#fff"/>
              </g>
            </g>
            <g id="Group_114003" data-name="Group 114003" transform="translate(0 0.22)">
              <g id="Group_114002" data-name="Group 114002">
                <path id="Path_173038" data-name="Path 173038" d="M3476.357,28.635a.5.5,0,0,1-.305-.1,17.386,17.386,0,0,1-1.932-1.733l-.826-.928a17.294,17.294,0,0,1,10.54-28.1.448.448,0,0,1,.08-.007.5.5,0,0,1,.3.1.5.5,0,0,1,.2.339l2.085,16.635a.5.5,0,0,1-.092.357l-9.64,13.24a.5.5,0,0,1-.333.2A.524.524,0,0,1,3476.357,28.635Z" transform="translate(-3468.812 2.742)" fill="#b74fb0"/>
                <path id="Path_173039" data-name="Path 173039" d="M3483.666-1.988l1.224,9.761.824,6.57.038.3-9.642,13.24a16.8,16.8,0,0,1-1.875-1.683l-.813-.914a16.794,16.794,0,0,1,10.245-27.278m0-1a1,1,0,0,0-.16.013,17.8,17.8,0,0,0-10.857,28.906l.023.027.814.914.025.027a17.947,17.947,0,0,0,1.988,1.783,1,1,0,0,0,.611.208,1.028,1.028,0,0,0,.143-.01,1,1,0,0,0,.667-.4l9.642-13.24a1,1,0,0,0,.184-.714l-.039-.3-.824-6.57-1.224-9.76a1,1,0,0,0-.394-.677,1,1,0,0,0-.6-.2Z" transform="translate(-3468.565 2.989)" fill="#fff"/>
              </g>
            </g>
          </g>
          <g id="Group_114014" data-name="Group 114014" transform="translate(153.672 81.282)">
            <g id="Group_114013" data-name="Group 114013">
              <g id="Group_114006" data-name="Group 114006" transform="translate(0 0.916)">
                <g id="Group_114005" data-name="Group 114005">
                  <rect id="Rectangle_37127" data-name="Rectangle 37127" width="5.018" height="5.018" transform="translate(0.749 1.408) rotate(-7.539)" fill="#72bdba"/>
                  <path id="Path_173040" data-name="Path 173040" d="M3481.579,66.4l.482,3.651-3.65.483-.483-3.65,3.65-.483m1.149-1.5-1.324.175-3.65.483-1.324.175.175,1.324.483,3.651.176,1.325,1.324-.175,3.65-.483,1.324-.175-.175-1.324-.483-3.651-.175-1.324Z" transform="translate(-3476.43 -64.903)" fill="#fff"/>
                </g>
              </g>
              <rect id="Rectangle_37128" data-name="Rectangle 37128" width="23.731" height="1.408" transform="translate(8.543 3.113) rotate(-7.538)" fill="#5a5a7a"/>
              <g id="Group_114008" data-name="Group 114008" transform="translate(0.783 6.829)">
                <g id="Group_114007" data-name="Group 114007">
                  <rect id="Rectangle_37129" data-name="Rectangle 37129" width="5.018" height="5.018" transform="translate(0.749 1.408) rotate(-7.535)" fill="#ff6464"/>
                  <path id="Path_173041" data-name="Path 173041" d="M3482.749,75.238l.482,3.65-3.65.483-.482-3.651,3.65-.483m1.149-1.5-1.325.175-3.65.483-1.324.175.175,1.324.483,3.651.175,1.324,1.324-.175,3.65-.483,1.325-.175-.175-1.324-.483-3.651-.175-1.325Z" transform="translate(-3477.599 -73.738)" fill="#fff"/>
                </g>
              </g>
              <rect id="Rectangle_37130" data-name="Rectangle 37130" width="8.34" height="1.409" transform="translate(9.325 9.027) rotate(-7.538)" fill="#5a5a7a"/>
              <g id="Group_114010" data-name="Group 114010" transform="translate(1.565 12.743)">
                <g id="Group_114009" data-name="Group 114009">
                  <rect id="Rectangle_37131" data-name="Rectangle 37131" width="5.018" height="5.018" transform="translate(0.749 1.408) rotate(-7.539)" fill="#ffd121"/>
                  <path id="Path_173042" data-name="Path 173042" d="M3483.917,84.072l.483,3.651-3.65.483-.483-3.651,3.65-.483m1.149-1.5-1.324.175-3.65.483-1.324.175.175,1.324.483,3.651.175,1.324,1.324-.175,3.65-.483,1.325-.175-.175-1.324-.483-3.651-.175-1.325Z" transform="translate(-3478.768 -82.573)" fill="#fff"/>
                </g>
              </g>
              <rect id="Rectangle_37132" data-name="Rectangle 37132" width="19.014" height="1.409" transform="translate(10.108 14.94) rotate(-7.538)" fill="#5a5a7a"/>
              <g id="Group_114012" data-name="Group 114012" transform="translate(2.295 18.842)">
                <g id="Group_114011" data-name="Group 114011">
                  <rect id="Rectangle_37133" data-name="Rectangle 37133" width="5.018" height="5.018" transform="translate(0.75 1.408) rotate(-7.539)" fill="#b74fb0"/>
                  <path id="Path_173043" data-name="Path 173043" d="M3485.009,93.184l.483,3.651-3.65.483-.483-3.651,3.65-.483m1.149-1.5-1.324.175-3.65.483-1.325.175.176,1.325.483,3.651.175,1.324,1.324-.175,3.65-.483,1.324-.175-.175-1.325-.483-3.65-.176-1.325Z" transform="translate(-3479.859 -91.685)" fill="#fff"/>
                </g>
              </g>
              <rect id="Rectangle_37134" data-name="Rectangle 37134" width="19.014" height="1.409" transform="translate(10.838 21.039) rotate(-7.538)" fill="#5a5a7a"/>
            </g>
          </g>
          <g id="Group_114048" data-name="Group 114048" transform="translate(36.273 48.804)">
            <path id="Path_173044" data-name="Path 173044" d="M3312.5,74.745c15.921-2.076,6.851-39.379,29.765-41.233,24.95-2.019,20.068,47.983,61.308,42.6q3.911-.51,7.375-1.21l.655,5.895-96.252,12.858Z" transform="translate(-3304.826 -21.111)" fill="#bab7f7" opacity="0.6"/>
            <path id="Path_173045" data-name="Path 173045" d="M3309.592,69.761c10.665-1.391,17.752,5.176,22.083,9.373,6.686,6.48,19.131,8.023,26.026-3.044,11.039-17.719,24.1-17.847,35.992-7.671,4.7,4.025,9.931,5.905,14.872,5.321l1.68,15.87-96.3,12.682Z" transform="translate(-3303.866 -30.413)" fill="#ff7d55" opacity="0.5"/>
            <path id="Path_173046" data-name="Path 173046" d="M3410.433,85.745q-3.468.695-7.374,1.21c-19.822,2.585-28.988-7.624-35.934-18.7a39.147,39.147,0,0,0-8.528,10.04c-6.9,11.067-19.34,9.524-26.026,3.044-2.542-2.463-6.033-5.741-10.641-7.748-1.852,6.157-4.309,11.071-9.629,11.941l2.536,18.966,96.212-12.59Z" transform="translate(-3304.762 -32.618)" fill="#ce8fff" opacity="0.4"/>
            <path id="Path_173047" data-name="Path 173047" d="M3390.66,86.548l-3.9-28.633c-5.208-8.275-9.153-17.064-15.359-21.388l6.581,51.7Z" transform="translate(-3324.304 -22.127)" fill="#ffd121"/>
            <g id="Group_114017" data-name="Group 114017" transform="translate(62.465 35.79)">
              <g id="Group_114016" data-name="Group 114016">
                <g id="Group_114015" data-name="Group 114015">
                  <path id="Line_153" data-name="Line 153" d="M.106,1.989A1.169,1.169,0,0,1-1.052.972l-.107-.82A1.168,1.168,0,0,1-.151-1.159,1.168,1.168,0,0,1,1.159-.151l.107.82A1.168,1.168,0,0,1,.258,1.979,1.18,1.18,0,0,1,.106,1.989Z" fill="#fff"/>
                  <path id="Line_154" data-name="Line 154" d="M3.11,25.024a1.169,1.169,0,0,1-1.157-1.017l-.028-.215a1.168,1.168,0,1,1,2.317-.3l.028.215a1.169,1.169,0,0,1-1.16,1.32Zm-.953-7.307A1.169,1.169,0,0,1,1,16.7L.383,11.971a1.168,1.168,0,1,1,2.317-.3L3.317,16.4a1.169,1.169,0,0,1-1.16,1.32ZM.615,5.9A1.169,1.169,0,0,1-.542,4.879L-1.159.151A1.168,1.168,0,0,1-.151-1.159,1.168,1.168,0,0,1,1.159-.151l.617,4.728A1.169,1.169,0,0,1,.615,5.9Z" transform="translate(0.435 3.332)" fill="#fff"/>
                  <path id="Line_155" data-name="Line 155" d="M.106,1.989A1.169,1.169,0,0,1-1.052.972l-.107-.82A1.168,1.168,0,0,1-.151-1.159,1.168,1.168,0,0,1,1.159-.151l.107.82A1.168,1.168,0,0,1,.258,1.979,1.18,1.18,0,0,1,.106,1.989Z" transform="translate(3.71 28.442)" fill="#fff"/>
                </g>
              </g>
            </g>
            <g id="Group_114020" data-name="Group 114020" transform="translate(78.609 30.903)">
              <g id="Group_114019" data-name="Group 114019">
                <g id="Group_114018" data-name="Group 114018">
                  <path id="Line_156" data-name="Line 156" d="M.106,1.989A1.169,1.169,0,0,1-1.052.972l-.107-.82A1.168,1.168,0,0,1-.151-1.159,1.168,1.168,0,0,1,1.159-.151l.107.82A1.168,1.168,0,0,1,.258,1.979,1.18,1.18,0,0,1,.106,1.989Z" fill="#fff"/>
                  <path id="Line_157" data-name="Line 157" d="M3.489,27.931a1.169,1.169,0,0,1-1.157-1.017l-.548-4.2a1.168,1.168,0,0,1,2.317-.3l.548,4.2a1.169,1.169,0,0,1-1.16,1.32ZM2.059,16.962A1.169,1.169,0,0,1,.9,15.945L.313,11.432a1.168,1.168,0,1,1,2.317-.3l.589,4.513a1.169,1.169,0,0,1-1.16,1.32ZM.587,5.681A1.169,1.169,0,0,1-.57,4.664L-1.159.151A1.168,1.168,0,0,1-.151-1.159,1.168,1.168,0,0,1,1.159-.151l.589,4.513a1.169,1.169,0,0,1-1.16,1.32Z" transform="translate(0.42 3.217)" fill="#fff"/>
                  <path id="Line_158" data-name="Line 158" d="M.106,1.989A1.169,1.169,0,0,1-1.052.972l-.107-.82A1.168,1.168,0,0,1-.151-1.159,1.168,1.168,0,0,1,1.159-.151l.107.82A1.168,1.168,0,0,1,.258,1.979,1.18,1.18,0,0,1,.106,1.989Z" transform="translate(4.067 31.178)" fill="#fff"/>
                </g>
              </g>
            </g>
            <g id="Group_114023" data-name="Group 114023" transform="translate(47.132 15.26)">
              <g id="Group_114022" data-name="Group 114022">
                <g id="Group_114021" data-name="Group 114021">
                  <path id="Line_159" data-name="Line 159" d="M.106,1.989A1.169,1.169,0,0,1-1.052.972L-1.159.151A1.168,1.168,0,0,1-.151-1.159,1.168,1.168,0,0,1,1.159-.151l.107.821A1.168,1.168,0,0,1,.258,1.979,1.18,1.18,0,0,1,.106,1.989Z" fill="#fff"/>
                  <path id="Line_160" data-name="Line 160" d="M5.3,41.808A1.169,1.169,0,0,1,4.142,40.79l-.624-4.781a1.168,1.168,0,0,1,2.317-.3l.624,4.781a1.169,1.169,0,0,1-1.16,1.32ZM3.74,29.855a1.169,1.169,0,0,1-1.157-1.017L1.96,24.057a1.168,1.168,0,0,1,2.317-.3L4.9,28.535a1.169,1.169,0,0,1-1.16,1.32ZM2.181,17.9a1.169,1.169,0,0,1-1.157-1.017L.4,12.1a1.168,1.168,0,0,1,2.317-.3l.624,4.781a1.169,1.169,0,0,1-1.16,1.32ZM.622,5.95A1.169,1.169,0,0,1-.535,4.932L-1.159.151A1.168,1.168,0,0,1-.151-1.159,1.168,1.168,0,0,1,1.159-.151L1.782,4.63A1.169,1.169,0,0,1,.622,5.95Z" transform="translate(0.438 3.36)" fill="#fff"/>
                  <path id="Line_161" data-name="Line 161" d="M.106,1.989A1.169,1.169,0,0,1-1.052.972l-.107-.82A1.168,1.168,0,0,1-.151-1.159,1.168,1.168,0,0,1,1.159-.151l.107.82A1.168,1.168,0,0,1,.258,1.979,1.18,1.18,0,0,1,.106,1.989Z" transform="translate(6.51 49.912)" fill="#fff"/>
                </g>
              </g>
            </g>
            <g id="Group_114026" data-name="Group 114026" transform="translate(17.34 41.676)">
              <g id="Group_114025" data-name="Group 114025">
                <g id="Group_114024" data-name="Group 114024">
                  <path id="Line_162" data-name="Line 162" d="M.106,1.989A1.169,1.169,0,0,1-1.052.972l-.107-.82A1.168,1.168,0,0,1-.151-1.159,1.168,1.168,0,0,1,1.159-.151l.107.82A1.168,1.168,0,0,1,.258,1.979,1.18,1.18,0,0,1,.106,1.989Z" fill="#fff"/>
                  <path id="Line_163" data-name="Line 163" d="M3.11,25.024a1.169,1.169,0,0,1-1.157-1.017l-.028-.215a1.168,1.168,0,1,1,2.317-.3l.028.215a1.169,1.169,0,0,1-1.16,1.32Zm-.953-7.307A1.169,1.169,0,0,1,1,16.7L.383,11.971a1.168,1.168,0,1,1,2.317-.3L3.317,16.4a1.169,1.169,0,0,1-1.16,1.32ZM.615,5.9A1.169,1.169,0,0,1-.542,4.879L-1.159.151A1.168,1.168,0,0,1-.151-1.159,1.168,1.168,0,0,1,1.159-.151l.617,4.728A1.169,1.169,0,0,1,.615,5.9Z" transform="translate(0.435 3.332)" fill="#fff"/>
                  <path id="Line_164" data-name="Line 164" d="M.106,1.989A1.169,1.169,0,0,1-1.052.972l-.107-.82A1.168,1.168,0,0,1-.151-1.159,1.168,1.168,0,0,1,1.159-.151l.107.82A1.168,1.168,0,0,1,.258,1.979,1.18,1.18,0,0,1,.106,1.989Z" transform="translate(3.71 28.442)" fill="#fff"/>
                </g>
              </g>
            </g>
            <path id="Path_173048" data-name="Path 173048" d="M3433.614,97.507q-1.715,0-3.343-.139a32.9,32.9,0,0,1-7.982-1.662l1.021-2.944A34.635,34.635,0,0,0,3439.394,94c2.5-.326,4.947-.728,7.269-1.193l.612,3.055c-2.392.479-4.908.892-7.479,1.227A47.929,47.929,0,0,1,3433.614,97.507Z" transform="translate(-3341.298 -41.208)" fill="#8c83dd"/>
            <path id="Path_173049" data-name="Path 173049" d="M3312.031,75.292l-.4-3.09c2.742-.358,4.793-2.006,6.455-5.188,1.62-3.1,2.672-7.226,3.785-11.591,1.4-5.469,2.838-11.125,5.606-15.688a18.492,18.492,0,0,1,5.5-5.947,17.568,17.568,0,0,1,8.495-2.828,16.883,16.883,0,0,1,7.888,1.157,18.941,18.941,0,0,1,6.145,4.232c3.525,3.509,6.321,8.3,9.281,13.376,5.405,9.266,10.995,18.847,21.835,22.609l-1.021,2.944c-11.929-4.14-18.079-14.682-23.505-23.982-2.855-4.893-5.551-9.516-8.788-12.738-3.441-3.426-7.122-4.853-11.583-4.492a13.982,13.982,0,0,0-11.583,7.286c-2.527,4.166-3.912,9.593-5.25,14.842-1.159,4.546-2.255,8.839-4.042,12.263C3318.7,72.563,3315.819,74.8,3312.031,75.292Z" transform="translate(-3304.606 -20.781)" fill="#8c83dd"/>
            <path id="Path_173050" data-name="Path 173050" d="M3434.768,75.081a18.2,18.2,0,0,1-6.155-1.11,24.9,24.9,0,0,1-7.734-4.613c-6.34-5.423-15.975-10.235-25.865-2.363l-1.539-1.934c4.562-3.631,9.477-5.175,14.614-4.59,4.749.541,9.593,2.9,14.4,7.009,4.424,3.784,9.366,5.571,13.924,5.033l.29,2.455A16.469,16.469,0,0,1,3434.768,75.081Z" transform="translate(-3331.857 -30.413)" fill="#ff7261"/>
            <path id="Path_173051" data-name="Path 173051" d="M3378.755,82.288l-1.8-1.7a18.72,18.72,0,0,0,2.265-2.96,40.527,40.527,0,0,1,8.833-10.375l1.539,1.934a38.091,38.091,0,0,0-8.274,9.748A21.208,21.208,0,0,1,3378.755,82.288Z" transform="translate(-3326.438 -32.607)" fill="#fff"/>
            <path id="Path_173052" data-name="Path 173052" d="M3344,89.384a18.7,18.7,0,0,1-6.992-1.4,19.571,19.571,0,0,1-6.189-4.022c-3.744-3.629-10.715-10.385-21.062-9.035l-.32-2.451a22.647,22.647,0,0,1,7.764.305,24.055,24.055,0,0,1,6.406,2.427,41.515,41.515,0,0,1,8.933,6.979,16.788,16.788,0,0,0,11.78,4.718,14.053,14.053,0,0,0,10.073-4.568l1.8,1.7a16.473,16.473,0,0,1-11.815,5.342C3344.245,89.382,3344.12,89.384,3344,89.384Z" transform="translate(-3303.866 -34.357)" fill="#ff7261"/>
            <g id="Group_114031" data-name="Group 114031" transform="translate(0 6.247)">
              <g id="Group_114030" data-name="Group 114030">
                <g id="Group_114029" data-name="Group 114029">
                  <path id="Path_173053" data-name="Path 173053" d="M3310.43,94.07l-.252-1.931-8.057-61.771,3.862-.5,7.805,59.84L3408.906,77.3l.5,3.862Z" transform="translate(-3302.034 -26.254)" fill="#3f4751"/>
                  <g id="Group_114027" data-name="Group 114027">
                    <path id="Path_173054" data-name="Path 173054" d="M3302.551,24.346l-1.514,5.732,2.055-1.581,2.392,1Z" transform="translate(-3301.038 -24.346)" fill="#3f4751"/>
                  </g>
                  <g id="Group_114028" data-name="Group 114028" transform="translate(105.254 50.958)">
                    <path id="Path_173055" data-name="Path 173055" d="M3464.017,101.99l-5.152,2.933,1-2.392-1.581-2.055Z" transform="translate(-3458.285 -100.477)" fill="#3f4751"/>
                  </g>
                </g>
              </g>
            </g>
            <path id="Path_173056" data-name="Path 173056" d="M3324.65,75.66a1.448,1.448,0,1,1,1.623,1.248A1.448,1.448,0,0,1,3324.65,75.66Z" transform="translate(-3308.841 -34.526)" fill="#fff"/>
            <path id="Path_173056_-_Outline" data-name="Path 173056 - Outline" d="M3326.084,78.089a2.622,2.622,0,1,1,.34-.022A2.623,2.623,0,0,1,3326.084,78.089Zm0-2.9-.038,0a.279.279,0,1,0,.071.554.279.279,0,0,0,.242-.313A.28.28,0,0,0,3326.089,75.193Z" transform="translate(-3308.841 -34.526)" fill="#ff6464"/>
            <path id="Path_173057" data-name="Path 173057" d="M3307.738,73.433a1.448,1.448,0,1,1,1.624,1.249A1.448,1.448,0,0,1,3307.738,73.433Z" transform="translate(-3303.249 -33.789)" fill="#fff"/>
            <path id="Path_173057_-_Outline" data-name="Path 173057 - Outline" d="M3309.173,75.863a2.617,2.617,0,1,1,.34-.022A2.623,2.623,0,0,1,3309.173,75.863Zm0-2.9-.038,0a.28.28,0,1,0,.073.555.28.28,0,0,0,.24-.314A.279.279,0,0,0,3309.176,72.966Z" transform="translate(-3303.249 -33.789)" fill="#ff6464"/>
            <path id="Path_173058" data-name="Path 173058" d="M3392.209,67.956a1.448,1.448,0,1,1,1.623,1.249A1.447,1.447,0,0,1,3392.209,67.956Z" transform="translate(-3331.179 -31.978)" fill="#fff"/>
            <path id="Path_173058_-_Outline" data-name="Path 173058 - Outline" d="M3393.644,70.386a2.617,2.617,0,1,1,.34-.022A2.622,2.622,0,0,1,3393.644,70.386Zm0-2.9-.038,0a.279.279,0,0,0-.241.313.278.278,0,0,0,.314.242.28.28,0,0,0,.24-.313A.279.279,0,0,0,3393.646,67.489Z" transform="translate(-3331.179 -31.978)" fill="#ff6464"/>
            <path id="Path_173059" data-name="Path 173059" d="M3369.225,35.8a1.448,1.448,0,1,1,1.624,1.248A1.448,1.448,0,0,1,3369.225,35.8Z" transform="translate(-3323.58 -21.344)" fill="#8c83dd"/>
            <path id="Path_173060" data-name="Path 173060" d="M3416.691,61.854a1.448,1.448,0,1,1,1.623,1.249A1.448,1.448,0,0,1,3416.691,61.854Z" transform="translate(-3339.274 -29.961)" fill="#ff6464"/>
            <path id="Path_173061" data-name="Path 173061" d="M3330.667,53.821a1.448,1.448,0,1,1,1.623,1.249A1.447,1.447,0,0,1,3330.667,53.821Z" transform="translate(-3310.83 -27.305)" fill="#8c83dd"/>
            <path id="Path_173062" data-name="Path 173062" d="M3330.542,119.769a1.448,1.448,0,1,1,1.623,1.248A1.448,1.448,0,0,1,3330.542,119.769Z" transform="translate(-3310.789 -49.11)" fill="#3f4751"/>
            <path id="Path_173063" data-name="Path 173063" d="M3397.958,110.976a1.448,1.448,0,1,1,1.624,1.248A1.449,1.449,0,0,1,3397.958,110.976Z" transform="translate(-3333.08 -46.203)" fill="#3f4751"/>
            <path id="Path_173064" data-name="Path 173064" d="M3422.746,107.743a1.448,1.448,0,1,1,1.624,1.248A1.448,1.448,0,0,1,3422.746,107.743Z" transform="translate(-3341.276 -45.134)" fill="#3f4751"/>
            <path id="Path_173065" data-name="Path 173065" d="M3379.368,113.4a1.448,1.448,0,1,1,1.623,1.249A1.448,1.448,0,0,1,3379.368,113.4Z" transform="translate(-3326.933 -47.005)" fill="#3f4751"/>
            <path id="Path_173066" data-name="Path 173066" d="M3310.486,93.436a1.448,1.448,0,1,1,1.623,1.248A1.448,1.448,0,0,1,3310.486,93.436Z" transform="translate(-3304.158 -40.403)" fill="#fff"/>
            <path id="Path_173066_-_Outline" data-name="Path 173066 - Outline" d="M3311.919,95.865a2.618,2.618,0,1,1,.34-.022A2.622,2.622,0,0,1,3311.919,95.865Zm0-2.9-.038,0a.28.28,0,0,0,.033.557l.038,0a.28.28,0,0,0-.033-.557Z" transform="translate(-3304.158 -40.403)" fill="#8c83dd"/>
            <g id="Group_114035" data-name="Group 114035" transform="translate(48.328)">
              <path id="Path_173067" data-name="Path 173067" d="M3373.238,23.449l.5,5.724,5.623-.5-1.675-3.157Z" transform="translate(-3373.238 -17.803)" fill="#8c83dd"/>
              <g id="Group_114034" data-name="Group 114034" transform="translate(0.007)">
                <g id="Group_114033" data-name="Group 114033">
                  <path id="Path_173068" data-name="Path 173068" d="M3378.945,25.676a4.964,4.964,0,1,1,.646-.042A5.105,5.105,0,0,1,3378.945,25.676Z" transform="translate(-3373.494 -15.259)" fill="#fff"/>
                  <g id="Group_114032" data-name="Group 114032">
                    <path id="Path_173069" data-name="Path 173069" d="M3378.711,16.006a4.464,4.464,0,0,1,.572,8.891,4.537,4.537,0,0,1-.583.037,4.464,4.464,0,0,1-.572-8.89,4.4,4.4,0,0,1,.583-.038m0-.992h0a5.506,5.506,0,0,0-.711.046,5.456,5.456,0,0,0,.7,10.866,5.456,5.456,0,0,0,.011-10.912Z" transform="translate(-3373.249 -15.014)" fill="#8c83dd"/>
                  </g>
                </g>
              </g>
            </g>
            <g id="Group_114039" data-name="Group 114039" transform="translate(80.052 18.253)">
              <path id="Path_173070" data-name="Path 173070" d="M3420.634,50.718l.5,5.724,5.623-.5-1.675-3.157Z" transform="translate(-3420.634 -45.072)" fill="#ff6464"/>
              <g id="Group_114038" data-name="Group 114038" transform="translate(0.008)">
                <g id="Group_114037" data-name="Group 114037">
                  <path id="Path_173071" data-name="Path 173071" d="M3426.341,52.944a4.968,4.968,0,1,1,.646-.042A4.97,4.97,0,0,1,3426.341,52.944Z" transform="translate(-3420.89 -42.528)" fill="#fff"/>
                  <g id="Group_114036" data-name="Group 114036">
                    <path id="Path_173072" data-name="Path 173072" d="M3426.107,43.275a4.464,4.464,0,0,1,.572,8.89,4.406,4.406,0,0,1-.583.038,4.464,4.464,0,0,1-.572-8.891,4.53,4.53,0,0,1,.583-.037m0-.992h0a5.456,5.456,0,1,0,.7,10.866,5.456,5.456,0,0,0-.7-10.866Z" transform="translate(-3420.645 -42.283)" fill="#ff6464"/>
                  </g>
                </g>
              </g>
            </g>
            <g id="Group_114040" data-name="Group 114040" transform="translate(51.596 3.336)">
              <path id="Path_173073" data-name="Path 173073" d="M3378.494,22.1a.8.8,0,0,1-.366-.584.814.814,0,0,1,.03-.353.848.848,0,0,1,.172-.3.976.976,0,0,1,.293-.228,1.208,1.208,0,0,1,.8-.1,1,1,0,0,1,.342.145.858.858,0,0,1,.244.25.83.83,0,0,1-.083.993.881.881,0,0,1,.517.725.987.987,0,0,1-.029.406.969.969,0,0,1-.187.353,1.1,1.1,0,0,1-.328.264,1.416,1.416,0,0,1-.924.12,1.1,1.1,0,0,1-.384-.171.941.941,0,0,1-.272-.294,1.025,1.025,0,0,1-.089-.847A.851.851,0,0,1,3378.494,22.1Zm.321-.607a.311.311,0,0,0,.043.121.379.379,0,0,0,.084.1.332.332,0,0,0,.111.06.292.292,0,0,0,.126.01.312.312,0,0,0,.217-.127.339.339,0,0,0-.061-.468.313.313,0,0,0-.242-.067.308.308,0,0,0-.213.126A.332.332,0,0,0,3378.815,21.5Zm.065,1.282a.466.466,0,0,0,.056.171.411.411,0,0,0,.11.131.463.463,0,0,0,.146.077.381.381,0,0,0,.166.013.373.373,0,0,0,.155-.056.458.458,0,0,0,.123-.112.418.418,0,0,0,.074-.151.474.474,0,0,0,.009-.182.449.449,0,0,0-.164-.305.4.4,0,0,0-.315-.09.373.373,0,0,0-.157.056.464.464,0,0,0-.121.114.431.431,0,0,0-.073.154A.481.481,0,0,0,3378.88,22.778Z" transform="translate(-3378.121 -20.165)" fill="#8c83dd"/>
              <path id="Path_173074" data-name="Path 173074" d="M3382.583,23.3q-.425.055-.467-.274a.5.5,0,0,1,.111-.325q.129-.192.353-.516.322-.465.493-.766a.837.837,0,0,0,.146-.485.307.307,0,0,0-.1-.207.254.254,0,0,0-.2-.056.277.277,0,0,0-.177.1.611.611,0,0,0-.117.26.989.989,0,0,1-.1.288.255.255,0,0,1-.2.115.343.343,0,0,1-.264-.066.362.362,0,0,1-.133-.252.878.878,0,0,1,.02-.29,1,1,0,0,1,.125-.311,1.055,1.055,0,0,1,.784-.509,1.163,1.163,0,0,1,.42.016.946.946,0,0,1,.34.154.856.856,0,0,1,.24.267.944.944,0,0,1,.118.356.987.987,0,0,1-.024.379,1.769,1.769,0,0,1-.162.4,3.967,3.967,0,0,1-.286.451q-.174.241-.394.527l.652-.085q.5-.065.546.263t-.46.394Z" transform="translate(-3379.376 -19.999)" fill="#8c83dd"/>
            </g>
            <g id="Group_114041" data-name="Group 114041" transform="translate(82.904 21.691)">
              <path id="Path_173075" data-name="Path 173075" d="M3426.463,50.494l-1.1.143a.635.635,0,0,1-.33-.023.228.228,0,0,1-.134-.2.43.43,0,0,1,.024-.222c.027-.066.056-.135.088-.208l.737-1.586a.833.833,0,0,1,.2-.291.536.536,0,0,1,.283-.114.511.511,0,0,1,.423.125.807.807,0,0,1,.225.52l.149,1.142c.021-.005.039-.011.056-.014l.048-.008a.425.425,0,0,1,.3.05.281.281,0,0,1,.129.205q.042.328-.381.384l-.066.009.043.328a.4.4,0,0,1-.054.295.335.335,0,0,1-.242.131c-.2.026-.319-.094-.355-.363Zm-.082-.626-.155-1.19-.576,1.286Z" transform="translate(-3424.895 -47.609)" fill="#ff6464"/>
              <path id="Path_173076" data-name="Path 173076" d="M3429.734,49.02a.831.831,0,0,1-.336-.937.864.864,0,0,1,.171-.305,1,1,0,0,1,.293-.227,1.2,1.2,0,0,1,.8-.1,1.009,1.009,0,0,1,.341.145.855.855,0,0,1,.245.251.812.812,0,0,1,.119.334.8.8,0,0,1-.2.658.884.884,0,0,1,.517.725.978.978,0,0,1-.029.406.955.955,0,0,1-.187.354,1.1,1.1,0,0,1-.328.263,1.4,1.4,0,0,1-.924.12,1.09,1.09,0,0,1-.385-.17.978.978,0,0,1-.4-.679.961.961,0,0,1,.044-.462A.847.847,0,0,1,3429.734,49.02Zm.321-.607a.294.294,0,0,0,.043.121.372.372,0,0,0,.083.1.33.33,0,0,0,.11.059.284.284,0,0,0,.126.01.313.313,0,0,0,.218-.126.342.342,0,0,0-.062-.469.31.31,0,0,0-.243-.066.306.306,0,0,0-.212.126A.327.327,0,0,0,3430.055,48.413Zm.066,1.282a.472.472,0,0,0,.055.171.413.413,0,0,0,.11.13.48.48,0,0,0,.146.077.387.387,0,0,0,.321-.042.446.446,0,0,0,.124-.112.424.424,0,0,0,.074-.152.5.5,0,0,0,.009-.181.454.454,0,0,0-.165-.306.4.4,0,0,0-.315-.09.385.385,0,0,0-.157.056.47.47,0,0,0-.12.114.435.435,0,0,0-.073.155A.463.463,0,0,0,3430.121,49.7Z" transform="translate(-3426.372 -47.42)" fill="#ff6464"/>
            </g>
            <g id="Group_114044" data-name="Group 114044" transform="translate(49.323 46.521)">
              <g id="Group_114043" data-name="Group 114043">
                <path id="Path_173077" data-name="Path 173077" d="M3377.2,88.858a1.862,1.862,0,0,1-.239-3.708,1.973,1.973,0,0,1,.242-.015,1.862,1.862,0,1,1,0,3.724Z" transform="translate(-3374.93 -84.72)" fill="#fff"/>
                <g id="Group_114042" data-name="Group 114042">
                  <path id="Path_173078" data-name="Path 173078" d="M3377,85.343a1.448,1.448,0,0,1,.185,2.884,1.5,1.5,0,0,1-.188.012,1.448,1.448,0,0,1-.186-2.884,1.513,1.513,0,0,1,.189-.012m0-.827h0a2.276,2.276,0,1,0,2.254,1.981A2.3,2.3,0,0,0,3377,84.516Z" transform="translate(-3374.726 -84.516)" fill="#ff6464"/>
                </g>
              </g>
            </g>
            <g id="Group_114047" data-name="Group 114047" transform="translate(79.211 50.689)">
              <g id="Group_114046" data-name="Group 114046">
                <path id="Path_173079" data-name="Path 173079" d="M3421.856,95.084a1.862,1.862,0,1,1,1.847-2.1,1.864,1.864,0,0,1-1.847,2.1Z" transform="translate(-3419.582 -90.946)" fill="#fff"/>
                <g id="Group_114045" data-name="Group 114045">
                  <path id="Path_173080" data-name="Path 173080" d="M3421.655,91.569a1.448,1.448,0,0,1,.185,2.884,1.392,1.392,0,0,1-.189.013,1.448,1.448,0,0,1-.185-2.884,1.4,1.4,0,0,1,.189-.013m0-.827h0a2.3,2.3,0,0,0-.3.019,2.276,2.276,0,0,0,.292,4.532,2.312,2.312,0,0,0,.3-.019,2.276,2.276,0,0,0-.292-4.532Z" transform="translate(-3419.377 -90.742)" fill="#8c83dd"/>
                </g>
              </g>
            </g>
          </g>
        </g>
        <g id="Group_114055" data-name="Group 114055" transform="translate(86.351)">
          <path id="Path_173081" data-name="Path 173081" d="M3530.868,2.053,3398.813-49.882l-22.642-5.856-.318,1.31,18.353,8.5,2.361-.388L3500.574-6.039l.408,3.43,28.132,10.372Z" transform="translate(-3375.854 61.941)" fill="#a2b2d6" style="mix-blend-mode: multiply;isolation: isolate"/>
          <g id="Group_114054" data-name="Group 114054" transform="translate(1.491)">
            <g id="Group_114053" data-name="Group 114053">
              <path id="Path_173082" data-name="Path 173082" d="M3542.091,1.714,3409.8-49.235l2.888-7.527,132.36,50.977.22,2.754L3544.15-.123Z" transform="translate(-3388.569 62.28)" fill="#fabd15"/>
              <path id="Path_173083" data-name="Path 173083" d="M3546.13-3.031l-133.72-51.2,1.139-2.532L3545.91-5.785Z" transform="translate(-3389.432 62.28)" fill="#ffe800"/>
              <path id="Path_173084" data-name="Path 173084" d="M3542.091,4.1,3409.8-46.849l1.035-2.7,133.318,51.81Z" transform="translate(-3388.568 59.895)" fill="#ed9430"/>
              <path id="Path_173085" data-name="Path 173085" d="M3411.9-56.762s.66.393.456.9a1.2,1.2,0,0,1-1.087.74,2.435,2.435,0,0,1,.305,2.391c-.683,1.66-1.883,1.673-1.883,1.673s.711.579.427,1.225a1.116,1.116,0,0,1-1.106.594l-1.6-4.852Z" transform="translate(-3387.78 62.28)" fill="#fea261"/>
              <g id="Group_114051" data-name="Group 114051">
                <g id="Group_114050" data-name="Group 114050">
                  <path id="Path_173086" data-name="Path 173086" d="M3378.606-65.006l-.524,1.369,6.645,3.655,1.264-3.3Z" transform="translate(-3378.082 65.006)" fill="#414042"/>
                </g>
                <path id="Path_173087" data-name="Path 173087" d="M3405.051-58.028l-15.779-4.4-1.264,3.3,14.585,8.022Z" transform="translate(-3381.364 64.153)" fill="#fea261"/>
                <path id="Path_173088" data-name="Path 173088" d="M3405.757-58.634h0l-16.208-3.791-.7,1.835,15.526,5.57.756-1.971a1.2,1.2,0,0,0,1.086-.74C3406.417-58.241,3405.758-58.634,3405.757-58.634Z" transform="translate(-3381.64 64.152)" fill="#ffdb94"/>
              </g>
              <g id="Group_114052" data-name="Group 114052" transform="translate(0.212 0.537)" opacity="0.5">
                <path id="Path_173089" data-name="Path 173089" d="M3385.7-61.97l-7.19-2.234-.107.28,6.873,3.057Z" transform="translate(-3378.398 64.204)" fill="#8c8c99"/>
              </g>
              <path id="Path_173090" data-name="Path 173090" d="M3405.067-56.475l-15.977-4.392-.424,1.1,14.823,7.352a2.351,2.351,0,0,0,1.855-1.608A2.254,2.254,0,0,0,3405.067-56.475Z" transform="translate(-3381.582 63.637)" fill="#ffbe92"/>
            </g>
          </g>
        </g>
      </g>
    </g>
  </g>
</svg>
