<svg xmlns="http://www.w3.org/2000/svg" width="543" height="325" viewBox="0 0 543 325">
  <g id="t1-s10" transform="translate(5496 1993)">
    <g id="Group_117217" data-name="Group 117217">
      <path id="Path_172232" data-name="Path 172232" d="M313-955a65,65,0,0,1,65,65v260H133.19L34.569-955Z" transform="translate(-5331 -1038)" fill="#ff805a"/>
      <path id="Rectángulo_36500" data-name="Rectángulo 36500" d="M-118.985,155.328V390.672H-584.6a65,65,0,0,1-65-65V90.328h465.62a65,65,0,0,1,65,65Z" transform="translate(-4846.395 -2070.328)" fill="#f6f6f6"/>
    </g>
    <g id="Group_112223" data-name="Group 112223" transform="translate(-9188 -1753.306)">
      <rect id="Rectangle_36908" data-name="Rectangle 36908" width="78" height="26" rx="3.179" transform="translate(3734 -168)" fill="#ffe9ac"/>
      <path id="Rectangle_36908_-_Outline" data-name="Rectangle 36908 - Outline" d="M3.179-.5H74.821A3.683,3.683,0,0,1,78.5,3.179V22.821A3.683,3.683,0,0,1,74.821,26.5H3.179A3.683,3.683,0,0,1-.5,22.821V3.179A3.683,3.683,0,0,1,3.179-.5Zm71.643,26A2.682,2.682,0,0,0,77.5,22.821V3.179A2.682,2.682,0,0,0,74.821.5H3.179A2.682,2.682,0,0,0,.5,3.179V22.821A2.682,2.682,0,0,0,3.179,25.5Z" transform="translate(3734 -168)" fill="#e86038"/>
      <g id="Group_112214" data-name="Group 112214">
        <path id="Path_172233" data-name="Path 172233" d="M3884.724-191.006l.023.047a3.9,3.9,0,0,1-.891,2.828,3.517,3.517,0,0,1-2.671.953,3.761,3.761,0,0,1-2.821-1.082,4.21,4.21,0,0,1-1.054-3.067v-3.4a4.318,4.318,0,0,1,1.019-3.067,3.562,3.562,0,0,1,2.731-1.089,3.618,3.618,0,0,1,2.738.968,4.107,4.107,0,0,1,.957,2.868l-.024.046h-2.14a2.65,2.65,0,0,0-.305-1.615,1.4,1.4,0,0,0-1.226-.494,1.3,1.3,0,0,0-1.149.587,3.191,3.191,0,0,0-.4,1.775v3.417a3.057,3.057,0,0,0,.425,1.791,1.445,1.445,0,0,0,1.247.586,1.256,1.256,0,0,0,1.121-.465,2.772,2.772,0,0,0,.277-1.589Z" fill="#12263f"/>
        <path id="Path_172234" data-name="Path 172234" d="M3890.388-187.342a3.812,3.812,0,0,1-.168-.461,3.852,3.852,0,0,1-.114-.508,2.618,2.618,0,0,1-.761.824,1.8,1.8,0,0,1-1.043.309,2.159,2.159,0,0,1-1.676-.688A2.615,2.615,0,0,1,3886-189.7a2.4,2.4,0,0,1,.8-1.929,3.569,3.569,0,0,1,2.379-.688h.836v-.687a1.709,1.709,0,0,0-.223-.95.751.751,0,0,0-.668-.332.643.643,0,0,0-.562.266,1.334,1.334,0,0,0-.188.773l-2.148-.007-.024-.047a2.314,2.314,0,0,1,.817-1.875,3.228,3.228,0,0,1,2.254-.774,3.018,3.018,0,0,1,2.144.77,2.849,2.849,0,0,1,.824,2.191v3.422a7.447,7.447,0,0,0,.086,1.164,6.383,6.383,0,0,0,.266,1.063Zm-1.446-1.508a1.141,1.141,0,0,0,.621-.18,1.322,1.322,0,0,0,.45-.461v-1.554h-.836a.81.81,0,0,0-.735.351,1.617,1.617,0,0,0-.226.891,1.13,1.13,0,0,0,.195.687A.623.623,0,0,0,3888.942-188.85Z" fill="#12263f"/>
        <path id="Path_172235" data-name="Path 172235" d="M3898.254-188.319a2.513,2.513,0,0,1-.832.848,2.11,2.11,0,0,1-1.106.293,2.081,2.081,0,0,1-1.769-.856,4.45,4.45,0,0,1-.637-2.652v-5.109h2.219v5.13a2.905,2.905,0,0,0,.219,1.307.7.7,0,0,0,.648.406,1.445,1.445,0,0,0,.645-.136,1.308,1.308,0,0,0,.472-.4v-6.3h2.227v8.453h-1.953Z" fill="#12263f"/>
        <path id="Path_172236" data-name="Path 172236" d="M3905.738-189.553a.819.819,0,0,0-.281-.621,4.736,4.736,0,0,0-1.078-.645,5.678,5.678,0,0,1-1.91-1.078,2.05,2.05,0,0,1-.637-1.562,2.282,2.282,0,0,1,.816-1.762,3.12,3.12,0,0,1,2.161-.731,3.234,3.234,0,0,1,2.242.75,2.367,2.367,0,0,1,.8,1.914l-.023.047h-2.141a1.45,1.45,0,0,0-.218-.843.766.766,0,0,0-.672-.313.848.848,0,0,0-.61.242.786.786,0,0,0-.25.586.785.785,0,0,0,.25.606,5.1,5.1,0,0,0,1.086.629,5.261,5.261,0,0,1,1.969,1.074,2.167,2.167,0,0,1,.641,1.629,2.158,2.158,0,0,1-.86,1.765,3.5,3.5,0,0,1-2.257.688,3.124,3.124,0,0,1-2.313-.852,2.511,2.511,0,0,1-.812-1.922l.015-.047h2.031a1.38,1.38,0,0,0,.313.969,1.11,1.11,0,0,0,.82.3.96.96,0,0,0,.68-.219A.781.781,0,0,0,3905.738-189.553Z" fill="#12263f"/>
        <path id="Path_172237" data-name="Path 172237" d="M3913.434-187.342a3.615,3.615,0,0,1-.168-.461,3.813,3.813,0,0,1-.114-.508,2.633,2.633,0,0,1-.761.824,1.8,1.8,0,0,1-1.043.309,2.157,2.157,0,0,1-1.676-.688,2.614,2.614,0,0,1-.629-1.836,2.4,2.4,0,0,1,.8-1.929,3.569,3.569,0,0,1,2.379-.688h.836v-.687a1.709,1.709,0,0,0-.223-.95.751.751,0,0,0-.668-.332.644.644,0,0,0-.563.266,1.335,1.335,0,0,0-.187.773l-2.148-.007-.024-.047a2.313,2.313,0,0,1,.817-1.875,3.228,3.228,0,0,1,2.253-.774,3.019,3.019,0,0,1,2.145.77,2.849,2.849,0,0,1,.824,2.191v3.422a7.3,7.3,0,0,0,.086,1.164,6.382,6.382,0,0,0,.266,1.063Zm-1.446-1.508a1.14,1.14,0,0,0,.621-.18,1.323,1.323,0,0,0,.45-.461v-1.554h-.836a.81.81,0,0,0-.735.351,1.615,1.615,0,0,0-.226.891,1.129,1.129,0,0,0,.2.687A.623.623,0,0,0,3911.988-188.85Z" fill="#12263f"/>
      </g>
      <g id="Group_112215" data-name="Group 112215">
        <path id="Path_172238" data-name="Path 172238" d="M3750.637-154.115l.02.041a3.425,3.425,0,0,1-.779,2.475,3.076,3.076,0,0,1-2.338.834,3.291,3.291,0,0,1-2.468-.947,3.685,3.685,0,0,1-.923-2.683v-2.974a3.774,3.774,0,0,1,.893-2.683,3.116,3.116,0,0,1,2.389-.953,3.165,3.165,0,0,1,2.4.847,3.6,3.6,0,0,1,.837,2.509l-.02.041h-1.873a2.323,2.323,0,0,0-.267-1.413,1.226,1.226,0,0,0-1.073-.433,1.138,1.138,0,0,0-1,.514,2.781,2.781,0,0,0-.349,1.553v2.99a2.668,2.668,0,0,0,.373,1.567,1.262,1.262,0,0,0,1.09.513,1.1,1.1,0,0,0,.981-.407,2.43,2.43,0,0,0,.243-1.391Z" fill="#12263f"/>
        <path id="Path_172239" data-name="Path 172239" d="M3755.313-150.909a3.369,3.369,0,0,1-.148-.4,3.424,3.424,0,0,1-.1-.444,2.3,2.3,0,0,1-.667.721,1.566,1.566,0,0,1-.912.27,1.892,1.892,0,0,1-1.466-.6,2.286,2.286,0,0,1-.55-1.606,2.106,2.106,0,0,1,.7-1.689,3.129,3.129,0,0,1,2.082-.6h.731v-.6a1.494,1.494,0,0,0-.194-.83.658.658,0,0,0-.585-.291.562.562,0,0,0-.492.233,1.168,1.168,0,0,0-.164.676l-1.88-.006-.021-.042a2.032,2.032,0,0,1,.714-1.64,2.834,2.834,0,0,1,1.973-.677,2.646,2.646,0,0,1,1.877.673,2.5,2.5,0,0,1,.721,1.918v2.994a6.5,6.5,0,0,0,.075,1.019,5.615,5.615,0,0,0,.232.929Zm-1.265-1.319a1,1,0,0,0,.543-.157,1.158,1.158,0,0,0,.393-.4v-1.36h-.731a.708.708,0,0,0-.643.308,1.422,1.422,0,0,0-.2.779.991.991,0,0,0,.171.6A.549.549,0,0,0,3754.048-152.228Z" fill="#12263f"/>
        <path id="Path_172240" data-name="Path 172240" d="M3760.474-160.144v1.839h1.025v1.408h-1.025v3.712a1.2,1.2,0,0,0,.13.646.4.4,0,0,0,.355.2,2.317,2.317,0,0,0,.3-.017,2.362,2.362,0,0,0,.273-.058l.151,1.476a3.834,3.834,0,0,1-.588.137,4.481,4.481,0,0,1-.636.041,1.783,1.783,0,0,1-1.432-.578,2.784,2.784,0,0,1-.5-1.835V-156.9h-.875V-158.3h.875v-1.839Z" fill="#12263f"/>
        <path id="Path_172241" data-name="Path 172241" d="M3765.471-150.765a2.823,2.823,0,0,1-2.215-.916,3.334,3.334,0,0,1-.82-2.311v-1.039a3.812,3.812,0,0,1,.762-2.454,2.546,2.546,0,0,1,2.109-.957,2.45,2.45,0,0,1,2.009.868,3.625,3.625,0,0,1,.711,2.366v1.189h-3.657v.027a2.036,2.036,0,0,0,.332,1.2,1.142,1.142,0,0,0,1,.472,2.68,2.68,0,0,0,.889-.123,4.708,4.708,0,0,0,.813-.41l.492,1.237a2.926,2.926,0,0,1-1.021.609A4,4,0,0,1,3765.471-150.765Zm-.164-6.125a.722.722,0,0,0-.684.426,2.784,2.784,0,0,0-.246,1.146h1.743v-.274a1.968,1.968,0,0,0-.191-.958A.659.659,0,0,0,3765.307-156.89Z" fill="#12263f"/>
        <path id="Path_172242" data-name="Path 172242" d="M3768.745-154.949a4.457,4.457,0,0,1,.647-2.529,2.064,2.064,0,0,1,1.821-.964,1.53,1.53,0,0,1,.868.25,2.18,2.18,0,0,1,.656.714l.123-.827h1.689v7.253a3.08,3.08,0,0,1-.845,2.293,3.141,3.141,0,0,1-2.313.838,3.743,3.743,0,0,1-1.019-.154,4.665,4.665,0,0,1-1.005-.414l.342-1.5a3.429,3.429,0,0,0,.793.328,3.334,3.334,0,0,0,.875.11,1.108,1.108,0,0,0,.923-.387,1.772,1.772,0,0,0,.307-1.124v-.424a1.878,1.878,0,0,1-.622.537,1.687,1.687,0,0,1-.786.181,2.1,2.1,0,0,1-1.811-.9,4,4,0,0,1-.643-2.376Zm1.942.914a2.821,2.821,0,0,0,.232,1.263.808.808,0,0,0,.779.455,1.106,1.106,0,0,0,.53-.123,1,1,0,0,0,.379-.363v-3.505a1.194,1.194,0,0,0-.372-.425.914.914,0,0,0-.523-.15.81.81,0,0,0-.786.53,3.477,3.477,0,0,0-.239,1.407Z" fill="#12263f"/>
        <path id="Path_172243" data-name="Path 172243" d="M3775.567-155.058a3.683,3.683,0,0,1,.789-2.437,2.725,2.725,0,0,1,2.212-.947,2.729,2.729,0,0,1,2.215.947,3.663,3.663,0,0,1,.793,2.437v.916a3.644,3.644,0,0,1-.793,2.44,2.733,2.733,0,0,1-2.208.937,2.745,2.745,0,0,1-2.219-.937,3.664,3.664,0,0,1-.789-2.44Zm1.935.913a3.1,3.1,0,0,0,.239,1.342.852.852,0,0,0,.834.486.842.842,0,0,0,.817-.49,3.049,3.049,0,0,0,.243-1.338v-.917a3.062,3.062,0,0,0-.243-1.332.845.845,0,0,0-.824-.5.842.842,0,0,0-.823.5,3.06,3.06,0,0,0-.243,1.328Z" fill="#12263f"/>
        <path id="Path_172244" data-name="Path 172244" d="M3786.095-156.535l-.732-.02a.828.828,0,0,0-.509.15.96.96,0,0,0-.311.424v5.072H3782.6v-7.4h1.811l.075.991.034.014a2.033,2.033,0,0,1,.5-.838,1.044,1.044,0,0,1,.742-.3,1.732,1.732,0,0,1,.277.024,1.857,1.857,0,0,1,.256.058Z" fill="#12263f"/>
        <path id="Path_172245" data-name="Path 172245" d="M3789.109-160.089h-1.941v-1.484h1.941Zm0,9.18h-1.941v-7.4h1.941Z" fill="#12263f"/>
        <path id="Path_172246" data-name="Path 172246" d="M3794.065-150.909a3.549,3.549,0,0,1-.147-.4,3.383,3.383,0,0,1-.1-.444,2.309,2.309,0,0,1-.667.721,1.567,1.567,0,0,1-.912.27,1.9,1.9,0,0,1-1.467-.6,2.29,2.29,0,0,1-.549-1.606,2.106,2.106,0,0,1,.7-1.689,3.129,3.129,0,0,1,2.082-.6h.731v-.6a1.492,1.492,0,0,0-.194-.83.658.658,0,0,0-.585-.291.562.562,0,0,0-.492.233,1.158,1.158,0,0,0-.164.676l-1.88-.006-.021-.042a2.032,2.032,0,0,1,.714-1.64,2.832,2.832,0,0,1,1.973-.677,2.647,2.647,0,0,1,1.877.673,2.5,2.5,0,0,1,.721,1.918v2.994a6.5,6.5,0,0,0,.075,1.019,5.615,5.615,0,0,0,.232.929Zm-1.264-1.319a1,1,0,0,0,.543-.157,1.159,1.159,0,0,0,.393-.4v-1.36h-.731a.708.708,0,0,0-.643.308,1.413,1.413,0,0,0-.2.779.991.991,0,0,0,.171.6A.548.548,0,0,0,3792.8-152.228Z" fill="#12263f"/>
        <path id="Path_172247" data-name="Path 172247" d="M3800.136-152.843a.719.719,0,0,0-.246-.544,4.12,4.12,0,0,0-.944-.564,4.965,4.965,0,0,1-1.671-.943,1.794,1.794,0,0,1-.557-1.367,2,2,0,0,1,.714-1.542,2.728,2.728,0,0,1,1.89-.639,2.828,2.828,0,0,1,1.962.656,2.07,2.07,0,0,1,.7,1.675l-.02.041h-1.873a1.262,1.262,0,0,0-.192-.738.67.67,0,0,0-.588-.274.738.738,0,0,0-.533.212.69.69,0,0,0-.219.513.689.689,0,0,0,.219.53,4.432,4.432,0,0,0,.95.55,4.608,4.608,0,0,1,1.723.94,1.893,1.893,0,0,1,.561,1.425,1.892,1.892,0,0,1-.752,1.545,3.068,3.068,0,0,1-1.976.6,2.737,2.737,0,0,1-2.023-.745,2.2,2.2,0,0,1-.711-1.682l.013-.041h1.778a1.21,1.21,0,0,0,.273.848.97.97,0,0,0,.718.26.84.84,0,0,0,.595-.192A.686.686,0,0,0,3800.136-152.843Z" fill="#12263f"/>
      </g>
      <rect id="Rectangle_36909" data-name="Rectangle 36909" width="78" height="26" rx="3.179" transform="translate(3822.5 -167.5)" fill="#ffe9ac"/>
      <path id="Rectangle_36909_-_Outline" data-name="Rectangle 36909 - Outline" d="M3.179-.5H74.821A3.683,3.683,0,0,1,78.5,3.179V22.821A3.683,3.683,0,0,1,74.821,26.5H3.179A3.683,3.683,0,0,1-.5,22.821V3.179A3.683,3.683,0,0,1,3.179-.5Zm71.643,26A2.682,2.682,0,0,0,77.5,22.821V3.179A2.682,2.682,0,0,0,74.821.5H3.179A2.682,2.682,0,0,0,.5,3.179V22.821A2.682,2.682,0,0,0,3.179,25.5Z" transform="translate(3822.5 -167.5)" fill="#e86038"/>
      <g id="Group_112216" data-name="Group 112216">
        <path id="Path_172248" data-name="Path 172248" d="M3839.137-153.615l.02.041a3.425,3.425,0,0,1-.779,2.475,3.076,3.076,0,0,1-2.338.834,3.291,3.291,0,0,1-2.468-.947,3.685,3.685,0,0,1-.923-2.683v-2.974a3.774,3.774,0,0,1,.893-2.683,3.116,3.116,0,0,1,2.389-.953,3.165,3.165,0,0,1,2.4.847,3.6,3.6,0,0,1,.837,2.509l-.02.041h-1.873a2.323,2.323,0,0,0-.267-1.413,1.226,1.226,0,0,0-1.073-.433,1.138,1.138,0,0,0-1,.514,2.781,2.781,0,0,0-.349,1.553v2.99a2.668,2.668,0,0,0,.373,1.567,1.262,1.262,0,0,0,1.09.513,1.1,1.1,0,0,0,.981-.407,2.43,2.43,0,0,0,.243-1.391Z" fill="#12263f"/>
        <path id="Path_172249" data-name="Path 172249" d="M3843.813-150.409a3.369,3.369,0,0,1-.148-.4,3.424,3.424,0,0,1-.1-.444,2.3,2.3,0,0,1-.667.721,1.566,1.566,0,0,1-.912.27,1.892,1.892,0,0,1-1.466-.6,2.286,2.286,0,0,1-.55-1.606,2.106,2.106,0,0,1,.7-1.689,3.129,3.129,0,0,1,2.082-.6h.731v-.6a1.494,1.494,0,0,0-.194-.83.658.658,0,0,0-.585-.291.562.562,0,0,0-.492.233,1.168,1.168,0,0,0-.164.676l-1.88-.006-.021-.042a2.032,2.032,0,0,1,.714-1.64,2.834,2.834,0,0,1,1.973-.677,2.646,2.646,0,0,1,1.877.673,2.5,2.5,0,0,1,.721,1.918v2.994a6.5,6.5,0,0,0,.075,1.019,5.615,5.615,0,0,0,.232.929Zm-1.265-1.319a1,1,0,0,0,.543-.157,1.158,1.158,0,0,0,.393-.4v-1.36h-.731a.708.708,0,0,0-.643.308,1.422,1.422,0,0,0-.2.779.991.991,0,0,0,.171.6A.549.549,0,0,0,3842.548-151.728Z" fill="#12263f"/>
        <path id="Path_172250" data-name="Path 172250" d="M3848.974-159.644v1.839H3850v1.408h-1.025v3.712a1.2,1.2,0,0,0,.13.646.4.4,0,0,0,.355.2,2.317,2.317,0,0,0,.3-.017,2.362,2.362,0,0,0,.273-.058l.151,1.476a3.834,3.834,0,0,1-.588.137,4.481,4.481,0,0,1-.636.041,1.783,1.783,0,0,1-1.432-.578,2.784,2.784,0,0,1-.5-1.835V-156.4h-.875V-157.8h.875v-1.839Z" fill="#12263f"/>
        <path id="Path_172251" data-name="Path 172251" d="M3853.971-150.265a2.823,2.823,0,0,1-2.215-.916,3.334,3.334,0,0,1-.82-2.311v-1.039a3.812,3.812,0,0,1,.762-2.454,2.546,2.546,0,0,1,2.109-.957,2.45,2.45,0,0,1,2.009.868,3.625,3.625,0,0,1,.711,2.366v1.189h-3.657v.027a2.036,2.036,0,0,0,.332,1.2,1.142,1.142,0,0,0,1,.472,2.68,2.68,0,0,0,.889-.123,4.708,4.708,0,0,0,.813-.41l.492,1.237a2.926,2.926,0,0,1-1.021.609A4,4,0,0,1,3853.971-150.265Zm-.164-6.125a.722.722,0,0,0-.684.426,2.784,2.784,0,0,0-.246,1.146h1.743v-.274a1.968,1.968,0,0,0-.191-.958A.659.659,0,0,0,3853.807-156.39Z" fill="#12263f"/>
        <path id="Path_172252" data-name="Path 172252" d="M3857.245-154.449a4.457,4.457,0,0,1,.647-2.529,2.064,2.064,0,0,1,1.821-.964,1.53,1.53,0,0,1,.868.25,2.18,2.18,0,0,1,.656.714l.123-.827h1.689v7.253a3.08,3.08,0,0,1-.845,2.293,3.141,3.141,0,0,1-2.313.838,3.743,3.743,0,0,1-1.019-.154,4.665,4.665,0,0,1-1.005-.414l.342-1.5a3.429,3.429,0,0,0,.793.328,3.334,3.334,0,0,0,.875.11,1.108,1.108,0,0,0,.923-.387,1.772,1.772,0,0,0,.307-1.124v-.424a1.878,1.878,0,0,1-.622.537,1.687,1.687,0,0,1-.786.181,2.1,2.1,0,0,1-1.811-.9,4,4,0,0,1-.643-2.376Zm1.942.914a2.821,2.821,0,0,0,.232,1.263.808.808,0,0,0,.779.455,1.106,1.106,0,0,0,.53-.123,1,1,0,0,0,.379-.363v-3.505a1.194,1.194,0,0,0-.372-.425.914.914,0,0,0-.523-.15.81.81,0,0,0-.786.53,3.477,3.477,0,0,0-.239,1.407Z" fill="#12263f"/>
        <path id="Path_172253" data-name="Path 172253" d="M3864.067-154.558a3.683,3.683,0,0,1,.789-2.437,2.725,2.725,0,0,1,2.212-.947,2.729,2.729,0,0,1,2.215.947,3.663,3.663,0,0,1,.793,2.437v.916a3.644,3.644,0,0,1-.793,2.44,2.733,2.733,0,0,1-2.208.937,2.745,2.745,0,0,1-2.219-.937,3.664,3.664,0,0,1-.789-2.44Zm1.935.913a3.1,3.1,0,0,0,.239,1.342.852.852,0,0,0,.834.486.842.842,0,0,0,.817-.49,3.049,3.049,0,0,0,.243-1.338v-.917a3.062,3.062,0,0,0-.243-1.332.845.845,0,0,0-.824-.5.842.842,0,0,0-.823.5,3.06,3.06,0,0,0-.243,1.328Z" fill="#12263f"/>
        <path id="Path_172254" data-name="Path 172254" d="M3874.595-156.035l-.732-.02a.828.828,0,0,0-.509.15.96.96,0,0,0-.311.424v5.072H3871.1v-7.4h1.811l.075.991.034.014a2.033,2.033,0,0,1,.5-.838,1.044,1.044,0,0,1,.742-.3,1.732,1.732,0,0,1,.277.024,1.857,1.857,0,0,1,.256.058Z" fill="#12263f"/>
        <path id="Path_172255" data-name="Path 172255" d="M3877.609-159.589h-1.941v-1.484h1.941Zm0,9.18h-1.941v-7.4h1.941Z" fill="#12263f"/>
        <path id="Path_172256" data-name="Path 172256" d="M3882.565-150.409a3.549,3.549,0,0,1-.147-.4,3.383,3.383,0,0,1-.1-.444,2.309,2.309,0,0,1-.667.721,1.567,1.567,0,0,1-.912.27,1.9,1.9,0,0,1-1.467-.6,2.29,2.29,0,0,1-.549-1.606,2.106,2.106,0,0,1,.7-1.689,3.129,3.129,0,0,1,2.082-.6h.731v-.6a1.492,1.492,0,0,0-.194-.83.658.658,0,0,0-.585-.291.562.562,0,0,0-.492.233,1.158,1.158,0,0,0-.164.676l-1.88-.006-.021-.042a2.032,2.032,0,0,1,.714-1.64,2.832,2.832,0,0,1,1.973-.677,2.647,2.647,0,0,1,1.877.673,2.5,2.5,0,0,1,.721,1.918v2.994a6.5,6.5,0,0,0,.075,1.019,5.615,5.615,0,0,0,.232.929Zm-1.264-1.319a1,1,0,0,0,.543-.157,1.159,1.159,0,0,0,.393-.4v-1.36h-.731a.708.708,0,0,0-.643.308,1.413,1.413,0,0,0-.2.779.991.991,0,0,0,.171.6A.548.548,0,0,0,3881.3-151.728Z" fill="#12263f"/>
        <path id="Path_172257" data-name="Path 172257" d="M3888.636-152.343a.719.719,0,0,0-.246-.544,4.12,4.12,0,0,0-.944-.564,4.965,4.965,0,0,1-1.671-.943,1.794,1.794,0,0,1-.557-1.367,2,2,0,0,1,.714-1.542,2.728,2.728,0,0,1,1.89-.639,2.828,2.828,0,0,1,1.962.656,2.07,2.07,0,0,1,.7,1.675l-.02.041h-1.873a1.262,1.262,0,0,0-.192-.738.67.67,0,0,0-.588-.274.738.738,0,0,0-.533.212.69.69,0,0,0-.219.513.689.689,0,0,0,.219.53,4.432,4.432,0,0,0,.95.55,4.608,4.608,0,0,1,1.723.94,1.893,1.893,0,0,1,.561,1.425,1.892,1.892,0,0,1-.752,1.545,3.068,3.068,0,0,1-1.976.6,2.737,2.737,0,0,1-2.023-.745,2.2,2.2,0,0,1-.711-1.682l.013-.041h1.778a1.21,1.21,0,0,0,.273.848.97.97,0,0,0,.718.26.84.84,0,0,0,.595-.192A.686.686,0,0,0,3888.636-152.343Z" fill="#12263f"/>
      </g>
      <rect id="Rectangle_36910" data-name="Rectangle 36910" width="78" height="26" rx="3.179" transform="translate(3911 -167)" fill="#ffe9ac"/>
      <path id="Rectangle_36910_-_Outline" data-name="Rectangle 36910 - Outline" d="M3.179-.5H74.821A3.683,3.683,0,0,1,78.5,3.179V22.821A3.683,3.683,0,0,1,74.821,26.5H3.179A3.683,3.683,0,0,1-.5,22.821V3.179A3.683,3.683,0,0,1,3.179-.5Zm71.643,26A2.682,2.682,0,0,0,77.5,22.821V3.179A2.682,2.682,0,0,0,74.821.5H3.179A2.682,2.682,0,0,0,.5,3.179V22.821A2.682,2.682,0,0,0,3.179,25.5Z" transform="translate(3911 -167)" fill="#e86038"/>
      <g id="Group_112217" data-name="Group 112217">
        <path id="Path_172258" data-name="Path 172258" d="M3927.637-153.115l.02.041a3.425,3.425,0,0,1-.779,2.475,3.076,3.076,0,0,1-2.338.834,3.291,3.291,0,0,1-2.468-.947,3.685,3.685,0,0,1-.923-2.683v-2.974a3.774,3.774,0,0,1,.893-2.683,3.116,3.116,0,0,1,2.389-.953,3.165,3.165,0,0,1,2.4.847,3.6,3.6,0,0,1,.837,2.509l-.02.041h-1.873a2.323,2.323,0,0,0-.267-1.413,1.226,1.226,0,0,0-1.073-.433,1.138,1.138,0,0,0-1,.514,2.781,2.781,0,0,0-.349,1.553v2.99a2.668,2.668,0,0,0,.373,1.567,1.262,1.262,0,0,0,1.09.513,1.1,1.1,0,0,0,.981-.407,2.43,2.43,0,0,0,.243-1.391Z" fill="#12263f"/>
        <path id="Path_172259" data-name="Path 172259" d="M3932.313-149.909a3.369,3.369,0,0,1-.148-.4,3.424,3.424,0,0,1-.1-.444,2.3,2.3,0,0,1-.667.721,1.566,1.566,0,0,1-.912.27,1.892,1.892,0,0,1-1.466-.6,2.286,2.286,0,0,1-.55-1.606,2.106,2.106,0,0,1,.7-1.689,3.129,3.129,0,0,1,2.082-.6h.731v-.6a1.494,1.494,0,0,0-.194-.83.658.658,0,0,0-.585-.291.562.562,0,0,0-.492.233,1.168,1.168,0,0,0-.164.676l-1.88-.006-.021-.042a2.032,2.032,0,0,1,.714-1.64,2.834,2.834,0,0,1,1.973-.677,2.646,2.646,0,0,1,1.877.673,2.5,2.5,0,0,1,.721,1.918v2.994a6.5,6.5,0,0,0,.075,1.019,5.615,5.615,0,0,0,.232.929Zm-1.265-1.319a1,1,0,0,0,.543-.157,1.158,1.158,0,0,0,.393-.4v-1.36h-.731a.708.708,0,0,0-.643.308,1.422,1.422,0,0,0-.2.779.991.991,0,0,0,.171.6A.549.549,0,0,0,3931.048-151.228Z" fill="#12263f"/>
        <path id="Path_172260" data-name="Path 172260" d="M3937.474-159.144v1.839h1.025v1.408h-1.025v3.712a1.2,1.2,0,0,0,.13.646.4.4,0,0,0,.355.2,2.317,2.317,0,0,0,.3-.017,2.362,2.362,0,0,0,.273-.058l.151,1.476a3.834,3.834,0,0,1-.588.137,4.481,4.481,0,0,1-.636.041,1.783,1.783,0,0,1-1.432-.578,2.784,2.784,0,0,1-.5-1.835V-155.9h-.875V-157.3h.875v-1.839Z" fill="#12263f"/>
        <path id="Path_172261" data-name="Path 172261" d="M3942.471-149.765a2.823,2.823,0,0,1-2.215-.916,3.334,3.334,0,0,1-.82-2.311v-1.039a3.812,3.812,0,0,1,.762-2.454,2.546,2.546,0,0,1,2.109-.957,2.45,2.45,0,0,1,2.009.868,3.625,3.625,0,0,1,.711,2.366v1.189h-3.657v.027a2.036,2.036,0,0,0,.332,1.2,1.142,1.142,0,0,0,1,.472,2.68,2.68,0,0,0,.889-.123,4.708,4.708,0,0,0,.813-.41l.492,1.237a2.926,2.926,0,0,1-1.021.609A4,4,0,0,1,3942.471-149.765Zm-.164-6.125a.722.722,0,0,0-.684.426,2.784,2.784,0,0,0-.246,1.146h1.743v-.274a1.968,1.968,0,0,0-.191-.958A.659.659,0,0,0,3942.307-155.89Z" fill="#12263f"/>
        <path id="Path_172262" data-name="Path 172262" d="M3945.745-153.949a4.457,4.457,0,0,1,.647-2.529,2.064,2.064,0,0,1,1.821-.964,1.53,1.53,0,0,1,.868.25,2.18,2.18,0,0,1,.656.714l.123-.827h1.689v7.253a3.08,3.08,0,0,1-.845,2.293,3.141,3.141,0,0,1-2.313.838,3.743,3.743,0,0,1-1.019-.154,4.665,4.665,0,0,1-1.005-.414l.342-1.5a3.429,3.429,0,0,0,.793.328,3.334,3.334,0,0,0,.875.11,1.108,1.108,0,0,0,.923-.387,1.772,1.772,0,0,0,.307-1.124v-.424a1.878,1.878,0,0,1-.622.537,1.687,1.687,0,0,1-.786.181,2.1,2.1,0,0,1-1.811-.9,4,4,0,0,1-.643-2.376Zm1.942.914a2.821,2.821,0,0,0,.232,1.263.808.808,0,0,0,.779.455,1.106,1.106,0,0,0,.53-.123,1,1,0,0,0,.379-.363v-3.505a1.194,1.194,0,0,0-.372-.425.914.914,0,0,0-.523-.15.81.81,0,0,0-.786.53,3.477,3.477,0,0,0-.239,1.407Z" fill="#12263f"/>
        <path id="Path_172263" data-name="Path 172263" d="M3952.567-154.058a3.683,3.683,0,0,1,.789-2.437,2.725,2.725,0,0,1,2.212-.947,2.729,2.729,0,0,1,2.215.947,3.663,3.663,0,0,1,.793,2.437v.916a3.644,3.644,0,0,1-.793,2.44,2.733,2.733,0,0,1-2.208.937,2.745,2.745,0,0,1-2.219-.937,3.664,3.664,0,0,1-.789-2.44Zm1.935.913a3.1,3.1,0,0,0,.239,1.342.852.852,0,0,0,.834.486.842.842,0,0,0,.817-.49,3.049,3.049,0,0,0,.243-1.338v-.917a3.062,3.062,0,0,0-.243-1.332.845.845,0,0,0-.824-.5.842.842,0,0,0-.823.5,3.06,3.06,0,0,0-.243,1.328Z" fill="#12263f"/>
        <path id="Path_172264" data-name="Path 172264" d="M3963.095-155.535l-.732-.02a.828.828,0,0,0-.509.15.96.96,0,0,0-.311.424v5.072H3959.6v-7.4h1.811l.075.991.034.014a2.033,2.033,0,0,1,.5-.838,1.044,1.044,0,0,1,.742-.3,1.732,1.732,0,0,1,.277.024,1.857,1.857,0,0,1,.256.058Z" fill="#12263f"/>
        <path id="Path_172265" data-name="Path 172265" d="M3966.109-159.089h-1.941v-1.484h1.941Zm0,9.18h-1.941v-7.4h1.941Z" fill="#12263f"/>
        <path id="Path_172266" data-name="Path 172266" d="M3971.065-149.909a3.549,3.549,0,0,1-.147-.4,3.383,3.383,0,0,1-.1-.444,2.309,2.309,0,0,1-.667.721,1.567,1.567,0,0,1-.912.27,1.9,1.9,0,0,1-1.467-.6,2.29,2.29,0,0,1-.549-1.606,2.106,2.106,0,0,1,.7-1.689,3.129,3.129,0,0,1,2.082-.6h.731v-.6a1.492,1.492,0,0,0-.194-.83.658.658,0,0,0-.585-.291.562.562,0,0,0-.492.233,1.158,1.158,0,0,0-.164.676l-1.88-.006-.021-.042a2.032,2.032,0,0,1,.714-1.64,2.832,2.832,0,0,1,1.973-.677,2.647,2.647,0,0,1,1.877.673,2.5,2.5,0,0,1,.721,1.918v2.994a6.5,6.5,0,0,0,.075,1.019,5.615,5.615,0,0,0,.232.929Zm-1.264-1.319a1,1,0,0,0,.543-.157,1.159,1.159,0,0,0,.393-.4v-1.36h-.731a.708.708,0,0,0-.643.308,1.413,1.413,0,0,0-.2.779.991.991,0,0,0,.171.6A.548.548,0,0,0,3969.8-151.228Z" fill="#12263f"/>
        <path id="Path_172267" data-name="Path 172267" d="M3977.136-151.843a.719.719,0,0,0-.246-.544,4.12,4.12,0,0,0-.944-.564,4.965,4.965,0,0,1-1.671-.943,1.794,1.794,0,0,1-.557-1.367,2,2,0,0,1,.714-1.542,2.728,2.728,0,0,1,1.89-.639,2.828,2.828,0,0,1,1.962.656,2.07,2.07,0,0,1,.7,1.675l-.02.041h-1.873a1.262,1.262,0,0,0-.192-.738.67.67,0,0,0-.588-.274.738.738,0,0,0-.533.212.69.69,0,0,0-.219.513.689.689,0,0,0,.219.53,4.432,4.432,0,0,0,.95.55,4.608,4.608,0,0,1,1.723.94,1.893,1.893,0,0,1,.561,1.425,1.892,1.892,0,0,1-.752,1.545,3.068,3.068,0,0,1-1.976.6,2.737,2.737,0,0,1-2.023-.745,2.2,2.2,0,0,1-.711-1.682l.013-.041h1.778a1.21,1.21,0,0,0,.273.848.97.97,0,0,0,.718.26.84.84,0,0,0,.595-.192A.686.686,0,0,0,3977.136-151.843Z" fill="#12263f"/>
      </g>
      <g id="Group_112218" data-name="Group 112218">
        <path id="Path_172268" data-name="Path 172268" d="M4107.6-192.334h-3.821v3.218h4.493v1.774h-6.719v-11.375h6.7v1.773h-4.477v2.836h3.821Z" fill="#12263f"/>
        <path id="Path_172269" data-name="Path 172269" d="M4109.966-187.342v-6.844h-1.039v-1.609h1.039v-.938a3.05,3.05,0,0,1,.734-2.191,2.714,2.714,0,0,1,2.063-.77,3.083,3.083,0,0,1,.515.043q.259.042.594.12l-.187,1.689c-.1-.021-.205-.039-.3-.055a2.118,2.118,0,0,0-.34-.023.738.738,0,0,0-.641.307,1.493,1.493,0,0,0-.218.873v.945h1.359v1.609h-1.359v6.844Z" fill="#12263f"/>
        <path id="Path_172270" data-name="Path 172270" d="M4117.941-187.178a3.227,3.227,0,0,1-2.531-1.047,3.81,3.81,0,0,1-.937-2.641v-1.187a4.363,4.363,0,0,1,.871-2.805,2.91,2.91,0,0,1,2.41-1.094,2.8,2.8,0,0,1,2.3.993,4.139,4.139,0,0,1,.812,2.7v1.359h-4.179v.031a2.332,2.332,0,0,0,.379,1.375,1.3,1.3,0,0,0,1.144.539,3.081,3.081,0,0,0,1.016-.14,5.348,5.348,0,0,0,.929-.469l.563,1.414a3.35,3.35,0,0,1-1.168.7A4.556,4.556,0,0,1,4117.941-187.178Zm-.187-7a.823.823,0,0,0-.781.486,3.155,3.155,0,0,0-.282,1.311h1.993v-.314a2.264,2.264,0,0,0-.219-1.095A.753.753,0,0,0,4117.754-194.178Z" fill="#12263f"/>
        <path id="Path_172271" data-name="Path 172271" d="M4125.387-188.952a.772.772,0,0,0,.683-.336,1.7,1.7,0,0,0,.231-.968h2.015l.024.047a2.9,2.9,0,0,1-.817,2.179,2.871,2.871,0,0,1-2.136.852,3.073,3.073,0,0,1-2.52-1.071,4.211,4.211,0,0,1-.879-2.765V-192.1a4.269,4.269,0,0,1,.875-2.77,3.04,3.04,0,0,1,2.508-1.082,2.818,2.818,0,0,1,2.184.883,3.314,3.314,0,0,1,.785,2.383l-.016.039H4126.3a2.3,2.3,0,0,0-.231-1.111.747.747,0,0,0-.7-.42.915.915,0,0,0-.914.563,3.777,3.777,0,0,0-.25,1.51v1.088a3.725,3.725,0,0,0,.25,1.517A.929.929,0,0,0,4125.387-188.952Z" fill="#12263f"/>
        <path id="Path_172272" data-name="Path 172272" d="M4132.371-197.9v2.1h1.172v1.609h-1.172v4.242a1.376,1.376,0,0,0,.149.738.461.461,0,0,0,.406.223,2.573,2.573,0,0,0,.344-.019,2.586,2.586,0,0,0,.312-.067l.172,1.688a4.481,4.481,0,0,1-.672.156,5.1,5.1,0,0,1-.727.047,2.038,2.038,0,0,1-1.636-.66,3.183,3.183,0,0,1-.567-2.1v-4.25h-1v-1.609h1v-2.1Z" fill="#12263f"/>
        <path id="Path_172273" data-name="Path 172273" d="M4134.69-192.084a4.205,4.205,0,0,1,.9-2.786,3.11,3.11,0,0,1,2.527-1.082,3.121,3.121,0,0,1,2.531,1.082,4.189,4.189,0,0,1,.907,2.786v1.046a4.163,4.163,0,0,1-.907,2.789,3.125,3.125,0,0,1-2.523,1.071,3.132,3.132,0,0,1-2.535-1.071,4.179,4.179,0,0,1-.9-2.789Zm2.211,1.043a3.524,3.524,0,0,0,.274,1.534.974.974,0,0,0,.953.555.963.963,0,0,0,.934-.559,3.5,3.5,0,0,0,.277-1.53v-1.048a3.51,3.51,0,0,0-.277-1.522.967.967,0,0,0-.942-.567.964.964,0,0,0-.941.571,3.5,3.5,0,0,0-.278,1.518Z" fill="#12263f"/>
      </g>
      <path id="Path_172274" data-name="Path 172274" d="M3872-68l-5.575-8.5-1.815,1.505-77.185-62.53-.85,1.049,76.975,62.36L3861-72Z" fill="#204470"/>
      <path id="Path_172275" data-name="Path 172275" d="M3956-68l-5.575-8.5-1.815,1.505-77.185-62.53-.85,1.049,76.975,62.36L3945-72Z" fill="#204470"/>
      <path id="Path_172276" data-name="Path 172276" d="M4027-68l-5.575-8.5-1.815,1.505-77.185-62.53-.85,1.049,76.975,62.36L4016-72Z" fill="#204470"/>
      <rect id="Rectangle_36911" data-name="Rectangle 36911" width="78" height="26" rx="3.179" transform="translate(3738 10)" fill="#ffe9ac"/>
      <path id="Rectangle_36911_-_Outline" data-name="Rectangle 36911 - Outline" d="M3.179-.5H74.821A3.683,3.683,0,0,1,78.5,3.179V22.821A3.683,3.683,0,0,1,74.821,26.5H3.179A3.683,3.683,0,0,1-.5,22.821V3.179A3.683,3.683,0,0,1,3.179-.5Zm71.643,26A2.682,2.682,0,0,0,77.5,22.821V3.179A2.682,2.682,0,0,0,74.821.5H3.179A2.682,2.682,0,0,0,.5,3.179V22.821A2.682,2.682,0,0,0,3.179,25.5Z" transform="translate(3738 10)" fill="#e86038"/>
      <g id="Group_112219" data-name="Group 112219">
        <path id="Path_172277" data-name="Path 172277" d="M3754.637,23.885l.02.041a3.425,3.425,0,0,1-.779,2.475,3.076,3.076,0,0,1-2.338.834,3.291,3.291,0,0,1-2.468-.947,3.685,3.685,0,0,1-.923-2.683V20.631a3.774,3.774,0,0,1,.893-2.683,3.116,3.116,0,0,1,2.389-.953,3.165,3.165,0,0,1,2.4.847,3.6,3.6,0,0,1,.837,2.509l-.02.041h-1.873a2.323,2.323,0,0,0-.267-1.413,1.226,1.226,0,0,0-1.073-.433,1.138,1.138,0,0,0-1,.514,2.781,2.781,0,0,0-.349,1.553V23.6a2.668,2.668,0,0,0,.373,1.567,1.262,1.262,0,0,0,1.09.513,1.1,1.1,0,0,0,.981-.407,2.43,2.43,0,0,0,.243-1.391Z" fill="#12263f"/>
        <path id="Path_172278" data-name="Path 172278" d="M3759.313,27.091a3.368,3.368,0,0,1-.148-.4,3.424,3.424,0,0,1-.1-.444,2.3,2.3,0,0,1-.667.721,1.566,1.566,0,0,1-.912.27,1.892,1.892,0,0,1-1.466-.6,2.286,2.286,0,0,1-.55-1.606,2.106,2.106,0,0,1,.7-1.689,3.129,3.129,0,0,1,2.082-.6h.731v-.6a1.494,1.494,0,0,0-.194-.83.658.658,0,0,0-.585-.291.562.562,0,0,0-.492.233,1.168,1.168,0,0,0-.164.676l-1.88-.006-.021-.042a2.032,2.032,0,0,1,.714-1.64,2.834,2.834,0,0,1,1.973-.677,2.646,2.646,0,0,1,1.877.673,2.5,2.5,0,0,1,.721,1.918v2.994a6.5,6.5,0,0,0,.075,1.019,5.615,5.615,0,0,0,.232.929Zm-1.265-1.319a1,1,0,0,0,.543-.157,1.158,1.158,0,0,0,.393-.4v-1.36h-.731a.708.708,0,0,0-.643.308,1.422,1.422,0,0,0-.2.779.991.991,0,0,0,.171.6A.549.549,0,0,0,3758.048,25.772Z" fill="#12263f"/>
        <path id="Path_172279" data-name="Path 172279" d="M3764.474,17.856v1.839h1.025V21.1h-1.025v3.712a1.2,1.2,0,0,0,.13.646.4.4,0,0,0,.355.195,2.314,2.314,0,0,0,.3-.017,2.361,2.361,0,0,0,.273-.058l.151,1.476a3.834,3.834,0,0,1-.588.137,4.48,4.48,0,0,1-.636.041,1.783,1.783,0,0,1-1.432-.578,2.784,2.784,0,0,1-.5-1.835V21.1h-.875V19.695h.875V17.856Z" fill="#12263f"/>
        <path id="Path_172280" data-name="Path 172280" d="M3769.471,27.235a2.823,2.823,0,0,1-2.215-.916,3.334,3.334,0,0,1-.82-2.311V22.969a3.812,3.812,0,0,1,.762-2.454,2.546,2.546,0,0,1,2.109-.957,2.45,2.45,0,0,1,2.009.868,3.625,3.625,0,0,1,.711,2.366v1.189h-3.657v.027a2.036,2.036,0,0,0,.332,1.2,1.142,1.142,0,0,0,1,.472,2.68,2.68,0,0,0,.889-.123,4.709,4.709,0,0,0,.813-.41l.492,1.237a2.926,2.926,0,0,1-1.021.609A4,4,0,0,1,3769.471,27.235Zm-.164-6.125a.722.722,0,0,0-.684.426,2.784,2.784,0,0,0-.246,1.146h1.743v-.274a1.968,1.968,0,0,0-.191-.958A.659.659,0,0,0,3769.307,21.11Z" fill="#12263f"/>
        <path id="Path_172281" data-name="Path 172281" d="M3772.745,23.051a4.457,4.457,0,0,1,.647-2.529,2.064,2.064,0,0,1,1.821-.964,1.53,1.53,0,0,1,.868.25,2.18,2.18,0,0,1,.656.714l.123-.827h1.689v7.253a3.08,3.08,0,0,1-.845,2.293,3.14,3.14,0,0,1-2.313.838,3.742,3.742,0,0,1-1.019-.154,4.665,4.665,0,0,1-1.005-.414l.342-1.5a3.429,3.429,0,0,0,.793.328,3.334,3.334,0,0,0,.875.11,1.108,1.108,0,0,0,.923-.387,1.772,1.772,0,0,0,.307-1.124v-.424a1.878,1.878,0,0,1-.622.537,1.687,1.687,0,0,1-.786.181,2.1,2.1,0,0,1-1.811-.9,4,4,0,0,1-.643-2.376Zm1.942.914a2.821,2.821,0,0,0,.232,1.263.808.808,0,0,0,.779.455,1.106,1.106,0,0,0,.53-.123,1,1,0,0,0,.379-.363V21.692a1.194,1.194,0,0,0-.372-.425.914.914,0,0,0-.523-.15.81.81,0,0,0-.786.53,3.477,3.477,0,0,0-.239,1.407Z" fill="#12263f"/>
        <path id="Path_172282" data-name="Path 172282" d="M3779.567,22.942a3.683,3.683,0,0,1,.789-2.437,3.06,3.06,0,0,1,4.427,0,3.663,3.663,0,0,1,.793,2.437v.916a3.644,3.644,0,0,1-.793,2.44,3.083,3.083,0,0,1-4.427,0,3.664,3.664,0,0,1-.789-2.44Zm1.935.913a3.1,3.1,0,0,0,.239,1.342.852.852,0,0,0,.834.486.842.842,0,0,0,.817-.49,3.049,3.049,0,0,0,.243-1.338v-.917a3.062,3.062,0,0,0-.243-1.332.93.93,0,0,0-1.647,0,3.06,3.06,0,0,0-.243,1.328Z" fill="#12263f"/>
        <path id="Path_172283" data-name="Path 172283" d="M3790.095,21.465l-.732-.02a.829.829,0,0,0-.509.15.96.96,0,0,0-.311.424v5.072H3786.6v-7.4h1.811l.075.991.034.014a2.033,2.033,0,0,1,.5-.838,1.044,1.044,0,0,1,.742-.3,1.733,1.733,0,0,1,.277.024,1.855,1.855,0,0,1,.256.058Z" fill="#12263f"/>
        <path id="Path_172284" data-name="Path 172284" d="M3793.109,17.911h-1.941V16.427h1.941Zm0,9.18h-1.941v-7.4h1.941Z" fill="#12263f"/>
        <path id="Path_172285" data-name="Path 172285" d="M3798.065,27.091a3.548,3.548,0,0,1-.147-.4,3.383,3.383,0,0,1-.1-.444,2.309,2.309,0,0,1-.667.721,1.567,1.567,0,0,1-.912.27,1.9,1.9,0,0,1-1.467-.6,2.29,2.29,0,0,1-.549-1.606,2.106,2.106,0,0,1,.7-1.689,3.129,3.129,0,0,1,2.082-.6h.731v-.6a1.492,1.492,0,0,0-.194-.83.658.658,0,0,0-.585-.291.562.562,0,0,0-.492.233,1.158,1.158,0,0,0-.164.676l-1.88-.006-.021-.042a2.032,2.032,0,0,1,.714-1.64,2.832,2.832,0,0,1,1.973-.677,2.647,2.647,0,0,1,1.877.673,2.5,2.5,0,0,1,.721,1.918v2.994a6.5,6.5,0,0,0,.075,1.019,5.615,5.615,0,0,0,.232.929Zm-1.264-1.319a1,1,0,0,0,.543-.157,1.159,1.159,0,0,0,.393-.4v-1.36h-.731a.708.708,0,0,0-.643.308,1.413,1.413,0,0,0-.2.779.991.991,0,0,0,.171.6A.548.548,0,0,0,3796.8,25.772Z" fill="#12263f"/>
        <path id="Path_172286" data-name="Path 172286" d="M3804.136,25.157a.719.719,0,0,0-.246-.544,4.119,4.119,0,0,0-.944-.564,4.965,4.965,0,0,1-1.671-.943,1.794,1.794,0,0,1-.557-1.367,2,2,0,0,1,.714-1.542,2.728,2.728,0,0,1,1.89-.639,2.828,2.828,0,0,1,1.962.656,2.07,2.07,0,0,1,.7,1.675l-.02.041h-1.873a1.262,1.262,0,0,0-.192-.738.67.67,0,0,0-.588-.274.738.738,0,0,0-.533.212.73.73,0,0,0,0,1.043,4.432,4.432,0,0,0,.95.55,4.608,4.608,0,0,1,1.723.94,2.02,2.02,0,0,1-.191,2.97,3.068,3.068,0,0,1-1.976.6,2.737,2.737,0,0,1-2.023-.745,2.2,2.2,0,0,1-.711-1.682l.013-.041h1.778a1.21,1.21,0,0,0,.273.848.97.97,0,0,0,.718.26.84.84,0,0,0,.595-.192A.686.686,0,0,0,3804.136,25.157Z" fill="#12263f"/>
      </g>
      <rect id="Rectangle_36912" data-name="Rectangle 36912" width="78" height="26" rx="3.179" transform="translate(3826.5 10.5)" fill="#ffe9ac"/>
      <path id="Rectangle_36912_-_Outline" data-name="Rectangle 36912 - Outline" d="M3.179-.5H74.821A3.683,3.683,0,0,1,78.5,3.179V22.821A3.683,3.683,0,0,1,74.821,26.5H3.179A3.683,3.683,0,0,1-.5,22.821V3.179A3.683,3.683,0,0,1,3.179-.5Zm71.643,26A2.682,2.682,0,0,0,77.5,22.821V3.179A2.682,2.682,0,0,0,74.821.5H3.179A2.682,2.682,0,0,0,.5,3.179V22.821A2.682,2.682,0,0,0,3.179,25.5Z" transform="translate(3826.5 10.5)" fill="#e86038"/>
      <g id="Group_112220" data-name="Group 112220">
        <path id="Path_172287" data-name="Path 172287" d="M3843.137,24.385l.02.041a3.425,3.425,0,0,1-.779,2.475,3.076,3.076,0,0,1-2.338.834,3.291,3.291,0,0,1-2.468-.947,3.685,3.685,0,0,1-.923-2.683V21.131a3.774,3.774,0,0,1,.893-2.683,3.116,3.116,0,0,1,2.389-.953,3.165,3.165,0,0,1,2.4.847,3.6,3.6,0,0,1,.837,2.509l-.02.041h-1.873a2.323,2.323,0,0,0-.267-1.413,1.226,1.226,0,0,0-1.073-.433,1.138,1.138,0,0,0-1,.514,2.781,2.781,0,0,0-.349,1.553V24.1a2.668,2.668,0,0,0,.373,1.567,1.262,1.262,0,0,0,1.09.513,1.1,1.1,0,0,0,.981-.407,2.43,2.43,0,0,0,.243-1.391Z" fill="#12263f"/>
        <path id="Path_172288" data-name="Path 172288" d="M3847.813,27.591a3.368,3.368,0,0,1-.148-.4,3.424,3.424,0,0,1-.1-.444,2.3,2.3,0,0,1-.667.721,1.566,1.566,0,0,1-.912.27,1.892,1.892,0,0,1-1.466-.6,2.286,2.286,0,0,1-.55-1.606,2.106,2.106,0,0,1,.7-1.689,3.129,3.129,0,0,1,2.082-.6h.731v-.6a1.494,1.494,0,0,0-.194-.83.658.658,0,0,0-.585-.291.562.562,0,0,0-.492.233,1.168,1.168,0,0,0-.164.676l-1.88-.006-.021-.042a2.032,2.032,0,0,1,.714-1.64,2.834,2.834,0,0,1,1.973-.677,2.646,2.646,0,0,1,1.877.673,2.5,2.5,0,0,1,.721,1.918v2.994a6.5,6.5,0,0,0,.075,1.019,5.615,5.615,0,0,0,.232.929Zm-1.265-1.319a1,1,0,0,0,.543-.157,1.158,1.158,0,0,0,.393-.4v-1.36h-.731a.708.708,0,0,0-.643.308,1.422,1.422,0,0,0-.2.779.991.991,0,0,0,.171.6A.549.549,0,0,0,3846.548,26.272Z" fill="#12263f"/>
        <path id="Path_172289" data-name="Path 172289" d="M3852.974,18.356v1.839H3854V21.6h-1.025v3.712a1.2,1.2,0,0,0,.13.646.4.4,0,0,0,.355.195,2.314,2.314,0,0,0,.3-.017,2.361,2.361,0,0,0,.273-.058l.151,1.476a3.834,3.834,0,0,1-.588.137,4.48,4.48,0,0,1-.636.041,1.783,1.783,0,0,1-1.432-.578,2.784,2.784,0,0,1-.5-1.835V21.6h-.875V20.195h.875V18.356Z" fill="#12263f"/>
        <path id="Path_172290" data-name="Path 172290" d="M3857.971,27.735a2.823,2.823,0,0,1-2.215-.916,3.334,3.334,0,0,1-.82-2.311V23.469a3.812,3.812,0,0,1,.762-2.454,2.546,2.546,0,0,1,2.109-.957,2.45,2.45,0,0,1,2.009.868,3.625,3.625,0,0,1,.711,2.366v1.189h-3.657v.027a2.036,2.036,0,0,0,.332,1.2,1.142,1.142,0,0,0,1,.472,2.68,2.68,0,0,0,.889-.123,4.709,4.709,0,0,0,.813-.41l.492,1.237a2.926,2.926,0,0,1-1.021.609A4,4,0,0,1,3857.971,27.735Zm-.164-6.125a.722.722,0,0,0-.684.426,2.784,2.784,0,0,0-.246,1.146h1.743v-.274a1.968,1.968,0,0,0-.191-.958A.659.659,0,0,0,3857.807,21.61Z" fill="#12263f"/>
        <path id="Path_172291" data-name="Path 172291" d="M3861.245,23.551a4.457,4.457,0,0,1,.647-2.529,2.064,2.064,0,0,1,1.821-.964,1.53,1.53,0,0,1,.868.25,2.18,2.18,0,0,1,.656.714l.123-.827h1.689v7.253a3.08,3.08,0,0,1-.845,2.293,3.14,3.14,0,0,1-2.313.838,3.742,3.742,0,0,1-1.019-.154,4.665,4.665,0,0,1-1.005-.414l.342-1.5a3.429,3.429,0,0,0,.793.328,3.334,3.334,0,0,0,.875.11,1.108,1.108,0,0,0,.923-.387,1.772,1.772,0,0,0,.307-1.124v-.424a1.878,1.878,0,0,1-.622.537,1.687,1.687,0,0,1-.786.181,2.1,2.1,0,0,1-1.811-.9,4,4,0,0,1-.643-2.376Zm1.942.914a2.821,2.821,0,0,0,.232,1.263.808.808,0,0,0,.779.455,1.106,1.106,0,0,0,.53-.123,1,1,0,0,0,.379-.363V22.192a1.194,1.194,0,0,0-.372-.425.914.914,0,0,0-.523-.15.81.81,0,0,0-.786.53,3.477,3.477,0,0,0-.239,1.407Z" fill="#12263f"/>
        <path id="Path_172292" data-name="Path 172292" d="M3868.067,23.442a3.683,3.683,0,0,1,.789-2.437,3.06,3.06,0,0,1,4.427,0,3.663,3.663,0,0,1,.793,2.437v.916a3.644,3.644,0,0,1-.793,2.44,3.083,3.083,0,0,1-4.427,0,3.664,3.664,0,0,1-.789-2.44Zm1.935.913a3.1,3.1,0,0,0,.239,1.342.852.852,0,0,0,.834.486.842.842,0,0,0,.817-.49,3.049,3.049,0,0,0,.243-1.338v-.917a3.062,3.062,0,0,0-.243-1.332.93.93,0,0,0-1.647,0,3.06,3.06,0,0,0-.243,1.328Z" fill="#12263f"/>
        <path id="Path_172293" data-name="Path 172293" d="M3878.595,21.965l-.732-.02a.829.829,0,0,0-.509.15.96.96,0,0,0-.311.424v5.072H3875.1v-7.4h1.811l.075.991.034.014a2.033,2.033,0,0,1,.5-.838,1.044,1.044,0,0,1,.742-.3,1.733,1.733,0,0,1,.277.024,1.855,1.855,0,0,1,.256.058Z" fill="#12263f"/>
        <path id="Path_172294" data-name="Path 172294" d="M3881.609,18.411h-1.941V16.927h1.941Zm0,9.18h-1.941v-7.4h1.941Z" fill="#12263f"/>
        <path id="Path_172295" data-name="Path 172295" d="M3886.565,27.591a3.548,3.548,0,0,1-.147-.4,3.383,3.383,0,0,1-.1-.444,2.309,2.309,0,0,1-.667.721,1.567,1.567,0,0,1-.912.27,1.9,1.9,0,0,1-1.467-.6,2.29,2.29,0,0,1-.549-1.606,2.106,2.106,0,0,1,.7-1.689,3.129,3.129,0,0,1,2.082-.6h.731v-.6a1.492,1.492,0,0,0-.194-.83.658.658,0,0,0-.585-.291.562.562,0,0,0-.492.233,1.158,1.158,0,0,0-.164.676l-1.88-.006-.021-.042a2.032,2.032,0,0,1,.714-1.64,2.832,2.832,0,0,1,1.973-.677,2.647,2.647,0,0,1,1.877.673,2.5,2.5,0,0,1,.721,1.918v2.994a6.5,6.5,0,0,0,.075,1.019,5.615,5.615,0,0,0,.232.929Zm-1.264-1.319a1,1,0,0,0,.543-.157,1.159,1.159,0,0,0,.393-.4v-1.36h-.731a.708.708,0,0,0-.643.308,1.413,1.413,0,0,0-.2.779.991.991,0,0,0,.171.6A.548.548,0,0,0,3885.3,26.272Z" fill="#12263f"/>
        <path id="Path_172296" data-name="Path 172296" d="M3892.636,25.657a.719.719,0,0,0-.246-.544,4.119,4.119,0,0,0-.944-.564,4.965,4.965,0,0,1-1.671-.943,1.794,1.794,0,0,1-.557-1.367,2,2,0,0,1,.714-1.542,2.728,2.728,0,0,1,1.89-.639,2.828,2.828,0,0,1,1.962.656,2.07,2.07,0,0,1,.7,1.675l-.02.041h-1.873a1.262,1.262,0,0,0-.192-.738.67.67,0,0,0-.588-.274.738.738,0,0,0-.533.212.73.73,0,0,0,0,1.043,4.432,4.432,0,0,0,.95.55,4.608,4.608,0,0,1,1.723.94,2.02,2.02,0,0,1-.191,2.97,3.068,3.068,0,0,1-1.976.6,2.737,2.737,0,0,1-2.023-.745,2.2,2.2,0,0,1-.711-1.682l.013-.041h1.778a1.21,1.21,0,0,0,.273.848.97.97,0,0,0,.718.26.84.84,0,0,0,.595-.192A.686.686,0,0,0,3892.636,25.657Z" fill="#12263f"/>
      </g>
      <rect id="Rectangle_36913" data-name="Rectangle 36913" width="78" height="26" rx="3.179" transform="translate(3915 11)" fill="#ffe9ac"/>
      <path id="Rectangle_36913_-_Outline" data-name="Rectangle 36913 - Outline" d="M3.179-.5H74.821A3.683,3.683,0,0,1,78.5,3.179V22.821A3.683,3.683,0,0,1,74.821,26.5H3.179A3.683,3.683,0,0,1-.5,22.821V3.179A3.683,3.683,0,0,1,3.179-.5Zm71.643,26A2.682,2.682,0,0,0,77.5,22.821V3.179A2.682,2.682,0,0,0,74.821.5H3.179A2.682,2.682,0,0,0,.5,3.179V22.821A2.682,2.682,0,0,0,3.179,25.5Z" transform="translate(3915 11)" fill="#e86038"/>
      <g id="Group_112221" data-name="Group 112221">
        <path id="Path_172297" data-name="Path 172297" d="M3931.637,24.885l.02.041a3.425,3.425,0,0,1-.779,2.475,3.076,3.076,0,0,1-2.338.834,3.291,3.291,0,0,1-2.468-.947,3.685,3.685,0,0,1-.923-2.683V21.631a3.774,3.774,0,0,1,.893-2.683,3.116,3.116,0,0,1,2.389-.953,3.165,3.165,0,0,1,2.4.847,3.6,3.6,0,0,1,.837,2.509l-.02.041h-1.873a2.323,2.323,0,0,0-.267-1.413,1.226,1.226,0,0,0-1.073-.433,1.138,1.138,0,0,0-1,.514,2.781,2.781,0,0,0-.349,1.553V24.6a2.668,2.668,0,0,0,.373,1.567,1.262,1.262,0,0,0,1.09.513,1.1,1.1,0,0,0,.981-.407,2.43,2.43,0,0,0,.243-1.391Z" fill="#12263f"/>
        <path id="Path_172298" data-name="Path 172298" d="M3936.313,28.091a3.368,3.368,0,0,1-.148-.4,3.424,3.424,0,0,1-.1-.444,2.3,2.3,0,0,1-.667.721,1.566,1.566,0,0,1-.912.27,1.892,1.892,0,0,1-1.466-.6,2.286,2.286,0,0,1-.55-1.606,2.106,2.106,0,0,1,.7-1.689,3.129,3.129,0,0,1,2.082-.6h.731v-.6a1.494,1.494,0,0,0-.194-.83.658.658,0,0,0-.585-.291.562.562,0,0,0-.492.233,1.168,1.168,0,0,0-.164.676l-1.88-.006-.021-.042a2.032,2.032,0,0,1,.714-1.64,2.834,2.834,0,0,1,1.973-.677,2.646,2.646,0,0,1,1.877.673,2.5,2.5,0,0,1,.721,1.918v2.994a6.5,6.5,0,0,0,.075,1.019,5.615,5.615,0,0,0,.232.929Zm-1.265-1.319a1,1,0,0,0,.543-.157,1.158,1.158,0,0,0,.393-.4v-1.36h-.731a.708.708,0,0,0-.643.308,1.422,1.422,0,0,0-.2.779.991.991,0,0,0,.171.6A.549.549,0,0,0,3935.048,26.772Z" fill="#12263f"/>
        <path id="Path_172299" data-name="Path 172299" d="M3941.474,18.856v1.839h1.025V22.1h-1.025v3.712a1.2,1.2,0,0,0,.13.646.4.4,0,0,0,.355.195,2.314,2.314,0,0,0,.3-.017,2.361,2.361,0,0,0,.273-.058l.151,1.476a3.834,3.834,0,0,1-.588.137,4.48,4.48,0,0,1-.636.041,1.783,1.783,0,0,1-1.432-.578,2.784,2.784,0,0,1-.5-1.835V22.1h-.875V20.695h.875V18.856Z" fill="#12263f"/>
        <path id="Path_172300" data-name="Path 172300" d="M3946.471,28.235a2.823,2.823,0,0,1-2.215-.916,3.334,3.334,0,0,1-.82-2.311V23.969a3.812,3.812,0,0,1,.762-2.454,2.546,2.546,0,0,1,2.109-.957,2.45,2.45,0,0,1,2.009.868,3.625,3.625,0,0,1,.711,2.366v1.189h-3.657v.027a2.036,2.036,0,0,0,.332,1.2,1.142,1.142,0,0,0,1,.472,2.68,2.68,0,0,0,.889-.123,4.709,4.709,0,0,0,.813-.41l.492,1.237a2.926,2.926,0,0,1-1.021.609A4,4,0,0,1,3946.471,28.235Zm-.164-6.125a.722.722,0,0,0-.684.426,2.784,2.784,0,0,0-.246,1.146h1.743v-.274a1.968,1.968,0,0,0-.191-.958A.659.659,0,0,0,3946.307,22.11Z" fill="#12263f"/>
        <path id="Path_172301" data-name="Path 172301" d="M3949.745,24.051a4.457,4.457,0,0,1,.647-2.529,2.064,2.064,0,0,1,1.821-.964,1.53,1.53,0,0,1,.868.25,2.18,2.18,0,0,1,.656.714l.123-.827h1.689v7.253a3.08,3.08,0,0,1-.845,2.293,3.14,3.14,0,0,1-2.313.838,3.742,3.742,0,0,1-1.019-.154,4.665,4.665,0,0,1-1.005-.414l.342-1.5a3.429,3.429,0,0,0,.793.328,3.334,3.334,0,0,0,.875.11,1.108,1.108,0,0,0,.923-.387,1.772,1.772,0,0,0,.307-1.124v-.424a1.878,1.878,0,0,1-.622.537,1.687,1.687,0,0,1-.786.181,2.1,2.1,0,0,1-1.811-.9,4,4,0,0,1-.643-2.376Zm1.942.914a2.821,2.821,0,0,0,.232,1.263.808.808,0,0,0,.779.455,1.106,1.106,0,0,0,.53-.123,1,1,0,0,0,.379-.363V22.692a1.194,1.194,0,0,0-.372-.425.914.914,0,0,0-.523-.15.81.81,0,0,0-.786.53,3.477,3.477,0,0,0-.239,1.407Z" fill="#12263f"/>
        <path id="Path_172302" data-name="Path 172302" d="M3956.567,23.942a3.683,3.683,0,0,1,.789-2.437,3.06,3.06,0,0,1,4.427,0,3.663,3.663,0,0,1,.793,2.437v.916a3.644,3.644,0,0,1-.793,2.44,3.083,3.083,0,0,1-4.427,0,3.664,3.664,0,0,1-.789-2.44Zm1.935.913a3.1,3.1,0,0,0,.239,1.342.852.852,0,0,0,.834.486.842.842,0,0,0,.817-.49,3.049,3.049,0,0,0,.243-1.338v-.917a3.062,3.062,0,0,0-.243-1.332.93.93,0,0,0-1.647,0,3.06,3.06,0,0,0-.243,1.328Z" fill="#12263f"/>
        <path id="Path_172303" data-name="Path 172303" d="M3967.095,22.465l-.732-.02a.829.829,0,0,0-.509.15.96.96,0,0,0-.311.424v5.072H3963.6v-7.4h1.811l.075.991.034.014a2.033,2.033,0,0,1,.5-.838,1.044,1.044,0,0,1,.742-.3,1.733,1.733,0,0,1,.277.024,1.855,1.855,0,0,1,.256.058Z" fill="#12263f"/>
        <path id="Path_172304" data-name="Path 172304" d="M3970.109,18.911h-1.941V17.427h1.941Zm0,9.18h-1.941v-7.4h1.941Z" fill="#12263f"/>
        <path id="Path_172305" data-name="Path 172305" d="M3975.065,28.091a3.548,3.548,0,0,1-.147-.4,3.383,3.383,0,0,1-.1-.444,2.309,2.309,0,0,1-.667.721,1.567,1.567,0,0,1-.912.27,1.9,1.9,0,0,1-1.467-.6,2.29,2.29,0,0,1-.549-1.606,2.106,2.106,0,0,1,.7-1.689,3.129,3.129,0,0,1,2.082-.6h.731v-.6a1.492,1.492,0,0,0-.194-.83.658.658,0,0,0-.585-.291.562.562,0,0,0-.492.233,1.158,1.158,0,0,0-.164.676l-1.88-.006-.021-.042a2.032,2.032,0,0,1,.714-1.64,2.832,2.832,0,0,1,1.973-.677,2.647,2.647,0,0,1,1.877.673,2.5,2.5,0,0,1,.721,1.918v2.994a6.5,6.5,0,0,0,.075,1.019,5.615,5.615,0,0,0,.232.929Zm-1.264-1.319a1,1,0,0,0,.543-.157,1.159,1.159,0,0,0,.393-.4v-1.36h-.731a.708.708,0,0,0-.643.308,1.413,1.413,0,0,0-.2.779.991.991,0,0,0,.171.6A.548.548,0,0,0,3973.8,26.772Z" fill="#12263f"/>
        <path id="Path_172306" data-name="Path 172306" d="M3981.136,26.157a.719.719,0,0,0-.246-.544,4.119,4.119,0,0,0-.944-.564,4.965,4.965,0,0,1-1.671-.943,1.794,1.794,0,0,1-.557-1.367,2,2,0,0,1,.714-1.542,2.728,2.728,0,0,1,1.89-.639,2.828,2.828,0,0,1,1.962.656,2.07,2.07,0,0,1,.7,1.675l-.02.041h-1.873a1.262,1.262,0,0,0-.192-.738.67.67,0,0,0-.588-.274.738.738,0,0,0-.533.212.73.73,0,0,0,0,1.043,4.432,4.432,0,0,0,.95.55,4.608,4.608,0,0,1,1.723.94,2.02,2.02,0,0,1-.191,2.97,3.068,3.068,0,0,1-1.976.6,2.737,2.737,0,0,1-2.023-.745,2.2,2.2,0,0,1-.711-1.682l.013-.041h1.778a1.21,1.21,0,0,0,.273.848.97.97,0,0,0,.718.26.84.84,0,0,0,.595-.192A.686.686,0,0,0,3981.136,26.157Z" fill="#12263f"/>
      </g>
      <path id="Path_172307" data-name="Path 172307" d="M3872-63l-11,4,2.551,2.116-76.975,62.36.85,1.049,77.185-62.53,1.815,1.505Z" fill="#204470"/>
      <path id="Path_172308" data-name="Path 172308" d="M3956-63l-11,4,2.551,2.116-76.975,62.36.85,1.049,77.185-62.53,1.815,1.505Z" fill="#204470"/>
      <path id="Path_172309" data-name="Path 172309" d="M4027-63l-11,4,2.551,2.116-76.975,62.36.85,1.049,77.185-62.53,1.815,1.505Z" fill="#204470"/>
      <path id="Path_172310" data-name="Path 172310" d="M4046-69l-10-3v4H3738v4h298v4l10-3,10-3Z" fill="#12263f"/>
      <path id="Rectangle_36914" data-name="Rectangle 36914" d="M8.429-.875H452.571a9.314,9.314,0,0,1,9.3,9.3V222.571a9.314,9.314,0,0,1-9.3,9.3H8.429a9.314,9.314,0,0,1-9.3-9.3V8.429A9.314,9.314,0,0,1,8.429-.875Zm444.143,231a7.562,7.562,0,0,0,7.554-7.554V8.429A7.562,7.562,0,0,0,452.571.875H8.429A7.562,7.562,0,0,0,.875,8.429V222.571a7.562,7.562,0,0,0,7.554,7.554Z" transform="translate(3727 -184)" fill="#12263f"/>
      <circle id="Ellipse_5525" data-name="Ellipse 5525" cx="52" cy="52" r="52" transform="translate(4069.512 -118)" fill="#98f2f9"/>
      <path id="Ellipse_5525_-_Outline" data-name="Ellipse 5525 - Outline" d="M52-.875A52.889,52.889,0,0,1,72.582,100.719,52.888,52.888,0,0,1,31.418,3.281,52.545,52.545,0,0,1,52-.875Zm0,104A51.125,51.125,0,1,0,.875,52,51.183,51.183,0,0,0,52,103.125Z" transform="translate(4069.512 -118)" fill="#209299"/>
      <g id="Group_112222" data-name="Group 112222">
        <path id="Path_172311" data-name="Path 172311" d="M4098.007-65.484v3.575h-1.948v-9.953h3.459a3.138,3.138,0,0,1,2.351.881,3.161,3.161,0,0,1,.861,2.308,3.151,3.151,0,0,1-.865,2.312,3.144,3.144,0,0,1-2.347.877Zm0-1.552h1.511a1.092,1.092,0,0,0,.95-.459,1.947,1.947,0,0,0,.328-1.164,2.028,2.028,0,0,0-.325-1.182,1.084,1.084,0,0,0-.953-.469h-1.511Z" fill="#12263f"/>
        <path id="Path_172312" data-name="Path 172312" d="M4107.345-67.535l-.732-.02a.828.828,0,0,0-.509.15.964.964,0,0,0-.311.424v5.072h-1.941v-7.4h1.811l.075.991.034.014a2.035,2.035,0,0,1,.5-.838,1.044,1.044,0,0,1,.742-.3,1.731,1.731,0,0,1,.277.024,1.854,1.854,0,0,1,.256.058Z" fill="#12263f"/>
        <path id="Path_172313" data-name="Path 172313" d="M4107.96-66.058a3.683,3.683,0,0,1,.789-2.437,2.723,2.723,0,0,1,2.212-.947,2.731,2.731,0,0,1,2.215.947,3.668,3.668,0,0,1,.793,2.437v.916a3.648,3.648,0,0,1-.793,2.44,2.735,2.735,0,0,1-2.208.937,2.743,2.743,0,0,1-2.219-.937,3.664,3.664,0,0,1-.789-2.44Zm1.935.913a3.1,3.1,0,0,0,.239,1.342.851.851,0,0,0,.834.486.839.839,0,0,0,.816-.49,3.052,3.052,0,0,0,.243-1.338v-.917a3.066,3.066,0,0,0-.243-1.332.843.843,0,0,0-.823-.5.842.842,0,0,0-.823.5,3.06,3.06,0,0,0-.243,1.328Z" fill="#12263f"/>
        <path id="Path_172314" data-name="Path 172314" d="M4120.791-65.04a4.1,4.1,0,0,1-.619,2.386,2.071,2.071,0,0,1-1.815.889,1.691,1.691,0,0,1-.906-.239,2.018,2.018,0,0,1-.659-.7l-.116.793h-1.682V-72.573h1.942v3.9a1.878,1.878,0,0,1,.611-.568,1.6,1.6,0,0,1,.8-.2,2.06,2.06,0,0,1,1.825.926,4.368,4.368,0,0,1,.622,2.472Zm-1.935-1.008a3.427,3.427,0,0,0-.215-1.356.794.794,0,0,0-.8-.486.924.924,0,0,0-.54.157,1.148,1.148,0,0,0-.369.445v3.457a.914.914,0,0,0,.365.381,1.132,1.132,0,0,0,.551.126.8.8,0,0,0,.8-.434,3.078,3.078,0,0,0,.208-1.284Z" fill="#12263f"/>
        <path id="Path_172315" data-name="Path 172315" d="M4123.826-61.909h-1.941V-72.573h1.941Z" fill="#12263f"/>
        <path id="Path_172316" data-name="Path 172316" d="M4128.058-61.765a2.824,2.824,0,0,1-2.215-.916,3.335,3.335,0,0,1-.821-2.311v-1.039a3.811,3.811,0,0,1,.763-2.454,2.546,2.546,0,0,1,2.109-.957,2.45,2.45,0,0,1,2.009.868,3.625,3.625,0,0,1,.711,2.366v1.189h-3.657v.027a2.034,2.034,0,0,0,.332,1.2,1.141,1.141,0,0,0,1,.472,2.681,2.681,0,0,0,.889-.123,4.726,4.726,0,0,0,.813-.41l.492,1.237a2.933,2.933,0,0,1-1.021.609A4,4,0,0,1,4128.058-61.765Zm-.164-6.125a.721.721,0,0,0-.684.426,2.752,2.752,0,0,0-.246,1.146h1.743v-.274a1.968,1.968,0,0,0-.191-.958A.659.659,0,0,0,4127.894-67.89Z" fill="#12263f"/>
        <path id="Path_172317" data-name="Path 172317" d="M4133.41-69.305l.075.943a2.224,2.224,0,0,1,.739-.8,1.863,1.863,0,0,1,1.018-.28,1.645,1.645,0,0,1,.978.3,1.828,1.828,0,0,1,.635.906,2.31,2.31,0,0,1,.739-.888,1.79,1.79,0,0,1,1.052-.315,1.675,1.675,0,0,1,1.446.755,4.05,4.05,0,0,1,.53,2.308v4.47h-1.948v-4.475a2.621,2.621,0,0,0-.185-1.181.613.613,0,0,0-.574-.325.814.814,0,0,0-.5.164,1.249,1.249,0,0,0-.362.452c0,.086.009.172.013.256s.007.173.007.264v4.845h-1.934v-4.475a2.573,2.573,0,0,0-.189-1.178.625.625,0,0,0-.584-.328.854.854,0,0,0-.474.133,1.186,1.186,0,0,0-.36.373v5.475H4131.6v-7.4Z" fill="#12263f"/>
        <path id="Path_172318" data-name="Path 172318" d="M4145.5-61.909a3.328,3.328,0,0,1-.147-.4,3.233,3.233,0,0,1-.1-.444,2.317,2.317,0,0,1-.667.721,1.569,1.569,0,0,1-.912.27,1.894,1.894,0,0,1-1.467-.6,2.289,2.289,0,0,1-.55-1.606,2.11,2.11,0,0,1,.7-1.689,3.126,3.126,0,0,1,2.083-.6h.731v-.6a1.494,1.494,0,0,0-.194-.83.66.66,0,0,0-.585-.291.565.565,0,0,0-.493.233,1.168,1.168,0,0,0-.164.676l-1.879-.006-.021-.042a2.032,2.032,0,0,1,.714-1.64,2.833,2.833,0,0,1,1.973-.677,2.646,2.646,0,0,1,1.877.673,2.5,2.5,0,0,1,.72,1.918v2.994a6.649,6.649,0,0,0,.075,1.019,5.546,5.546,0,0,0,.233.929Zm-1.265-1.319a.993.993,0,0,0,.543-.157,1.173,1.173,0,0,0,.394-.4v-1.36h-.731a.708.708,0,0,0-.643.308,1.415,1.415,0,0,0-.2.779.983.983,0,0,0,.171.6A.547.547,0,0,0,4144.231-63.228Z" fill="#12263f"/>
      </g>
      <path id="Line_152" data-name="Line 152" d="M.875,231H-.875V0H.875Z" transform="translate(4050 -184)" fill="#12263f"/>
    </g>
  </g>
</svg>
