<svg xmlns="http://www.w3.org/2000/svg" xmlns:xlink="http://www.w3.org/1999/xlink" width="542.948" height="325" viewBox="0 0 542.948 325">
  <defs>
    <radialGradient id="radial-gradient" cx="0.5" cy="0.5" r="0.511" gradientTransform="matrix(0.924, -0.334, 0.319, 0.919, -19.28, 23.751)" gradientUnits="objectBoundingBox">
      <stop offset="0" stop-color="#fff"/>
      <stop offset="0.69" stop-color="#f4ad00"/>
    </radialGradient>
    <radialGradient id="radial-gradient-2" cx="0.5" cy="0.5" r="0.511" gradientTransform="matrix(0.924, -0.334, 0.319, 0.919, -24.222, 29.739)" xlink:href="#radial-gradient"/>
    <radialGradient id="radial-gradient-3" cx="0.5" cy="0.5" r="0.511" gradientTransform="matrix(0.924, -0.334, 0.319, 0.919, -24.819, 29.939)" xlink:href="#radial-gradient"/>
    <radialGradient id="radial-gradient-4" cx="0.5" cy="0.5" r="0.511" gradientTransform="matrix(0.924, -0.334, 0.319, 0.919, -18.623, 22.783)" xlink:href="#radial-gradient"/>
    <radialGradient id="radial-gradient-5" cx="0.5" cy="0.5" r="0.511" gradientTransform="matrix(0.924, -0.334, 0.319, 0.919, -20.089, 24.047)" xlink:href="#radial-gradient"/>
  </defs>
  <g id="t1-s9" transform="translate(5495.948 2628)">
    <path id="Path_172231" data-name="Path 172231" d="M313-955a65,65,0,0,1,65,65v260H133.19L34.569-955Z" transform="translate(-5331 -1673)" fill="#ff805a"/>
    <g id="Group_112224" data-name="Group 112224" transform="translate(-9186.924 -2516.964)">
      <path id="Rectángulo_36500" data-name="Rectángulo 36500" d="M4221.591-33.208V202.136H3755.976a65,65,0,0,1-65-65V-98.208H4156.6a65,65,0,0,1,65,65Z" fill="#ecdbc2"/>
      <g id="Group_112241" data-name="Group 112241">
        <path id="Path_172319" data-name="Path 172319" d="M4124.633,182.243c0,3.169-66.069,6.848-142.195,6.848s-137.839-2.569-137.839-5.737,61.713-5.738,137.839-5.738S4124.633,179.075,4124.633,182.243Z" fill="#323240" opacity="0.14"/>
        <g id="Group_112229" data-name="Group 112229">
          <path id="Path_172320" data-name="Path 172320" d="M4104.286,52.532c2.6-.3,13.937-2.629,14.178-1.654.265,1.078-4.268,1.3-4.209,1.831s.561,3.219-.975,3.278-2.319.8-4.918-.147a4.727,4.727,0,0,0-4.312.333Z" fill="#efaea6"/>
          <path id="Path_172321" data-name="Path 172321" d="M4083.361,177.544c.149-2.321-.226-8.175-.226-8.175l-6.281-.014.644,8.788,4.244,2.66Z" fill="#fff"/>
          <path id="Path_172322" data-name="Path 172322" d="M4083.819,176.555c.659-.149.38.463.616,1.436.54,2.229,8.812,2.351,10.058,2.561a1.91,1.91,0,0,1-1.549,3.349c-2.77-.032-11.646-.1-14.678-.156a1.387,1.387,0,0,1-1.333-1.04c-.529-2.152-.354-5.485.493-5.55C4078.708,176.764,4081.072,177.175,4083.819,176.555Z" fill="#1f1f39"/>
          <g id="Group_112224-2" data-name="Group 112224">
            <path id="Path_172323" data-name="Path 172323" d="M4024.211,169.234c1.9-1.393,6.218-5.467,6.218-5.467l-4.061-4.688-6.423,6.175.68,4.886Z" fill="#fff"/>
            <path id="Path_172324" data-name="Path 172324" d="M4025.278,168.934c.543.394-.114.583-.719,1.39-1.385,1.846,3.881,8.089,4.525,9.153.333.549-1.562,3.428-3.61,1.017-1.771-2.085-7.47-8.743-9.392-11.037a1.339,1.339,0,0,1-.055-1.667c1.333-1.789,4.041-3.819,4.64-3.23C4021.8,165.262,4023.015,167.289,4025.278,168.934Z" fill="#1f1f39"/>
          </g>
          <path id="Path_172325" data-name="Path 172325" d="M4083.855,172.8c-6.16,1.2-8.665.975-8.665.975-.657-4.25-2.448-26.613-5.372-33.86s-11.6-28.512-11.6-28.512c-2.094,9.311-3.225,20.351-7.1,30.124-6,12.686-22.251,25.335-22.251,25.335-4.457-2.809-7.262-5.387-6.551-5.592,3.6-4.625,19.124-18.025,19.9-23.531.574-4.078.053-20.063.641-33.526.163-3.727.41-7.262.789-10.295.007-.054.015-.109.021-.163q.143-1.126.312-2.154c.229-1.385,20.011-3.919,20.011-3.919l3.938-.939c3.426,9.8,10.991,45.054,11.638,50.153S4084.111,171.1,4083.855,172.8Z" fill="#3b3b4c"/>
          <path id="Path_172326" data-name="Path 172326" d="M4056.791,53.4l-4.915-2.4c.39-2.343,0-8.06.771-10.081.841-2.216,1.027-2.055,1.027-2.055l3.2,2.774,1.506,1.306a6.085,6.085,0,0,0-.273,2.525,12.7,12.7,0,0,0,1.209,4.464C4059.938,51.293,4056.791,53.4,4056.791,53.4Z" fill="#efaea6"/>
          <path id="Path_172327" data-name="Path 172327" d="M4058.379,42.944a8.41,8.41,0,0,0-.253,2.773c-3.492.849-5.366-2.753-4.386-3.5a10.652,10.652,0,0,1,2.786-.882Z" fill="#1f1f39" opacity="0.2"/>
          <g id="Group_112225" data-name="Group 112225">
            <path id="Path_172328" data-name="Path 172328" d="M4061.515,36.131c-.067,1.811,1.493,5.489.258,5.329s-.138,3.825-1.458,3.7c-3.2-.3-6.623-2.742-6.852-4.3a29.187,29.187,0,0,1,.509-5.737Z" fill="#efaea6"/>
            <path id="Path_172329" data-name="Path 172329" d="M4058.022,37.434c.99.243.993.48,1.738.236s-.356-1.349.983-1.395,2.79.059,3.106-1.4c.459-2.1-1.508-2.016-2.729-1.921-.785.061-.776-1.593-2.316-1.718-1.208-.1-1.151.607-2.232.566-.653-.024-1.788-1.227-2.889-.593-2.042,1.175-.694,3.109-2.433,4.419-2.029,1.528,1.716,5.815,2.258,5.423.633-.457.018-2.386.645-2.74.946-.535.966.2,1.611.966.69.815,2.118,1.041,1.367-.46S4057.125,37.214,4058.022,37.434Z" fill="#1f1f39"/>
          </g>
          <g id="Group_112227" data-name="Group 112227">
            <path id="Path_172330" data-name="Path 172330" d="M4020.842,106.6l5.456.382c.841.059,1.449,1.054,1.359,2.221l-.251,3.241a.028.028,0,0,1-.031.026l-1.016-.071a.027.027,0,0,1-.026-.03l.177-2.283c.067-.874-.387-1.618-1.017-1.662l-4.078-.286c-.629-.044-1.194.629-1.261,1.5l-.177,2.284a.03.03,0,0,1-.031.026l-1.016-.071a.028.028,0,0,1-.026-.031l.251-3.24C4019.245,107.443,4020,106.543,4020.842,106.6Z" fill="#201b2c"/>
            <path id="Path_172331" data-name="Path 172331" d="M4025.368,101.311a.029.029,0,0,1,.022.025c.121,1.2.464.9.846,2.475s1.667,3.824.826,4.042-1.447-.752-1.846-.956.492.751-.03,1.5a3.287,3.287,0,0,1-3.554.485,3.99,3.99,0,0,1-1.524-3.435,17.556,17.556,0,0,1,1.063-4.364C4021.349,100.423,4025.062,101.242,4025.368,101.311Z" fill="#eeada5"/>
            <path id="Path_172332" data-name="Path 172332" d="M4026.3,106.971c.842.059,1.45,1.055,1.36,2.222l-.252,3.24a.029.029,0,0,1-.031.027l-1.015-.071a.029.029,0,0,1-.027-.03l.178-2.284c.067-.873-.388-1.617-1.017-1.662h0l-.328-1.472a.029.029,0,0,1,.031-.035Z" fill="#201b2c"/>
            <g id="Group_112226" data-name="Group 112226">
              <path id="Path_172333" data-name="Path 172333" d="M4040.02,114.663l-1.08,15.043a1.682,1.682,0,0,1-1.8,1.538h-.021l-27.461-1.425c-3.1-.2-2.922-2.339-2.858-3.231l.586-14.245a3.678,3.678,0,0,1,3.809-2.981l24.415,1.559.916.058A3.532,3.532,0,0,1,4040.02,114.663Z" fill="#603a3e"/>
              <path id="Path_172334" data-name="Path 172334" d="M4040.02,114.663l-1.08,15.043a1.682,1.682,0,0,1-1.8,1.538h0a.029.029,0,0,1-.026-.021,11.6,11.6,0,0,1-.039-4.53c.748-5.34-.384-11.519-1.456-15.735a.029.029,0,0,1,.031-.035l.876.055A3.532,3.532,0,0,1,4040.02,114.663Z" fill="#775155"/>
            </g>
          </g>
          <path id="Path_172335" data-name="Path 172335" d="M4053.474,92.514c-1.715,5.573-7.034,9.339-10.623,11.7.163-3.727.41-7.262.789-10.295.007-.054.015-.109.021-.163Z" fill="#1f1f39" opacity="0.52"/>
          <path id="Path_172336" data-name="Path 172336" d="M4051.556,47.16c2.1-.793,3.339,1.712,5.1,1.608,1.068-.064.919-1,1.346-1.563.262-.349.865-.185,1.717-.218,2.235-.089,7.761,42.578,7.761,42.578a45.511,45.511,0,0,1-10.4,2.835c-4.487.421-11.84-.341-11.855-1.891s2.43-40.64,2.43-40.64A12.324,12.324,0,0,1,4051.556,47.16Z" fill="#fff"/>
          <path id="Path_172337" data-name="Path 172337" d="M4053.2,84.836c.308,3.3,1.5,8.11-1.333,10.29s-9.4,2.794-10.638,3.531c-1.507.9-4.972.306-4.183-2.94.523-2.152,3.845-9.014,5-14.094a13.566,13.566,0,0,0,.391-3.024v-.021c0-.285-.011-.556-.023-.814-.018-.45-.05-.856-.094-1.207a6.547,6.547,0,0,0-.117-.666c-.062-.262-.131-.526-.2-.792-.044-.161-.088-.324-.135-.487-.028-.1-.058-.209-.088-.313-.126-.435-.258-.869-.39-1.3a.3.3,0,0,0-.014-.041c-.022-.074-.045-.146-.068-.219-.038-.124-.077-.249-.117-.37-.021-.07-.044-.138-.066-.206-.369-1.152-.717-2.192-.924-2.953-.01-.04-.021-.079-.032-.117-.048-.187-.086-.355-.114-.5l0,0v-.008l-.016-.09v-.01a1.586,1.586,0,0,1-.028-.334h0l0-.032c-.914.653-8.517,10.408-10.34,16.646a123.242,123.242,0,0,0-2.327,16.524c0,.014-.739-.006-.753-.006-2.38,0-6.1-.115-6.889-.7a.05.05,0,0,1-.011-.016c-1.061-3.281,1.235-12.113,2.09-17.918.8-5.441,10.611-20.884,16.453-26.906,3.879-4,12.956-8.484,12.956-8.484.544,2.358-.912,13.234,2.333,21.183C4056.113,74.785,4052.888,81.5,4053.2,84.836Z" fill="#0267a4"/>
          <path id="Path_172338" data-name="Path 172338" d="M4042.769,81.061a2.566,2.566,0,0,1-.723.562,13.566,13.566,0,0,0,.391-3.024v-.021c0-.285-.011-.556-.023-.814-.018-.45-.05-.856-.094-1.207a6.547,6.547,0,0,0-.117-.666c-.062-.262-.131-.526-.2-.792-.044-.161-.088-.324-.135-.487-.028-.1-.058-.209-.087-.313-.125-.435-.258-.87-.391-1.3a.3.3,0,0,0-.014-.041c-.021-.074-.045-.147-.068-.219-.038-.124-.077-.249-.117-.37-.021-.07-.044-.138-.066-.206-.369-1.152-.717-2.192-.924-2.953-.01-.04-.021-.079-.032-.117-.048-.187-.086-.355-.114-.5l0,0v-.008l-.044-.434h0a16.647,16.647,0,0,1,3.692-2.572C4044.233,67.958,4043.329,79.762,4042.769,81.061Z" fill="#1f1f39" opacity="0.26"/>
          <g id="Group_112228" data-name="Group 112228">
            <path id="Path_172339" data-name="Path 172339" d="M4056.362,50.107c-.23-.1-1.678,4.24-4.3,6a6.821,6.821,0,0,1-2.391,1.053c-2.54.535-10.253.834-13.538.93a24.875,24.875,0,0,1,2.815-3.047,44.39,44.39,0,0,0,10.034-.37,9.931,9.931,0,0,0,2.68-1.178,16.2,16.2,0,0,0,3.659-3.246c.464-.539.431-1.248,1.072-1.372C4057.248,48.714,4056.658,50.24,4056.362,50.107Z" fill="#1f1f39" opacity="0.28"/>
            <path id="Path_172340" data-name="Path 172340" d="M4057.329,48.217a1.206,1.206,0,0,0-1.486-.923c-.717.139-.73.435-1.249,1.039a14.86,14.86,0,0,1-7.093,4.952c-3.143.834-11.1-2.148-15.671-.412s-5.339,6.109-12,8.228-14.458.43-16.418,1.08-3.111,1.27-2.935,2.043a3.984,3.984,0,0,0,2.893,2.244c1.5.335,14.108-.762,17.33-1.7,5.261-1.537,9.116-7,12.531-7.831s11.014-.02,15.038-.867c4.487-.946,7.339-6.673,7.669-6.524a1.271,1.271,0,0,0,1.2.064C4057.519,49.447,4057.429,48.656,4057.329,48.217Z" fill="#f4ad00"/>
          </g>
          <path id="Path_172341" data-name="Path 172341" d="M4109.583,57.492c-6.7,1.918-20.283,3.946-24.8,4.449-2.733.3-8.4-1.167-12.673-1.689a13.6,13.6,0,0,0-3.9-.065h-.006a1.776,1.776,0,0,0-1.508,1.007c-1.652,7.7,7,27.895,1.691,33.295-3.4-.47-7.84,3.046-8.862,1.557-.949-1.381,4.66-16.806,3.97-24.082a124.086,124.086,0,0,0-3.855-24.923c14.02,4.7,20.123,6.888,24.434,6.63,4.652-.277,22.731-2.086,23.231-1.963C4108.126,51.972,4109.913,56.527,4109.583,57.492Z" fill="#0267a4"/>
          <path id="Path_172342" data-name="Path 172342" d="M4072.114,60.252a13.6,13.6,0,0,0-3.9-.065h-.006c-.817.1-1.356.4-1.508,1.007C4067.041,58.925,4068.452,57.153,4072.114,60.252Z" fill="#1f1f39" opacity="0.26"/>
        </g>
        <g id="Group_112230" data-name="Group 112230">
          <path id="Path_172343" data-name="Path 172343" d="M3968.206-28.353c-2.193-6.2-.333-25.885-4.2-24.407s-22.2,11.076-20.433,20.008,15.345,14.395,15.345,14.395Z" fill="#050511"/>
          <path id="Path_172344" data-name="Path 172344" d="M4027.721,26.456v0l-.006.015a20.1,20.1,0,0,1-3.041,6.54c-6.682,10.615-.458,10.942-5.338,18.066-1.834,2.682-3.638,4.084-5.421,4.567-8.169,2.19-15.975-14.977-25.053-17.543-23.161-6.544-22.216-11.032-24.755-10.475-2.652.578-2.121,4.088.251,9.347l.006.013.006.016.009.011.012.018q1.692,2.65,3.3,5.183c.328.517.657,1.03.981,1.539l.963,1.516q1.438,2.259,2.807,4.423.454.72.905,1.431,1.8,2.844,3.473,5.525c.281.448.557.892.832,1.332q1.233,1.98,2.4,3.871.389.631.77,1.253c.256.415.507.824.757,1.231s.5.813.74,1.213q2.934,4.815,5.383,9.033.306.528.6,1.045v0c.4.69.786,1.37,1.165,2.039v0q2.547,4.509,4.468,8.332v0c.216.425.423.843.625,1.256v0q1.411,2.894,2.444,5.407c.1.24.194.478.286.713s.184.464.271.695v0c.088.229.173.455.255.68v0q.248.675.463,1.322a21.043,21.043,0,0,1,1.374,8.939c-.029.233-.065.459-.108.68a8.527,8.527,0,0,1-.342,1.27,7.709,7.709,0,0,1-.837,1.687l-.006.008c-1.5,2.265-4.225,3.746-8.223,4.678h0c-11.839,2.763-34.8.7-69.766-.19l-.772-.017q-2.712-.067-5.524-.123c-.9-.018-1.8-.037-2.707-.052h0c-.405-.008-.812-.016-1.222-.021s-.822-.014-1.235-.018c-.313.05-.622.1-.93.143l-.455.065q-.453.063-.894.121l-.438.054q-.432.051-.857.1c-.572.057-1.133.109-1.677.148-.271.019-.536.038-.8.052s-.515.026-.767.036c-.13.006-.261.01-.39.013-.887.025-1.729.022-2.526-.015q-.317-.015-.623-.033c-.092-.005-.184-.011-.276-.019a19.379,19.379,0,0,1-2.665-.378h0c-21.829-4.705-5.078-45.378-5.318-60.848-.155-9.906,9.927-37.414,18.65-58.932.526-1.3,1.051-2.584,1.565-3.839q.944-2.29,1.845-4.449a35.2,35.2,0,0,1,1.541-3.232,30.707,30.707,0,0,1,2.7-4.192c2.352-3.051,4.965-5.084,7.416-5.894a17.933,17.933,0,0,0,4.279-2.083c.159-.106.315-.209.468-.319a19.158,19.158,0,0,0,2.333-1.942,19.805,19.805,0,0,0,2.849-3.506c4.972-7.76,12.227-16.387,21.945-16.585q.959,1.643,1.661,3.14l0,0c6.594,13.815-1.2,18.365,9.86,17.133h0c1.007-.113,2.171-.273,3.518-.478.947-.144,1.983-.311,3.116-.5l0,0a.106.106,0,0,0,.025,0c.108.027.215.056.323.085q1.124.294,2.152.632c.2.065.39.13.582.2.367.127.724.257,1.072.394.032.011.065.025.1.036.075.029.148.06.223.088q.27.108.532.219l.261.112c.259.111.513.227.763.344s.494.236.734.357c.159.081.317.162.472.246.235.125.463.252.688.381q.45.255.876.526c.285.179.561.361.83.549l.2.141c.065.048.133.094.2.142l.194.142.194.146c.063.048.127.1.19.146.127.1.25.194.373.294q.369.3.718.607c.058.05.116.1.173.154.116.1.229.207.34.313l.168.157c.109.106.219.212.326.319.054.054.108.108.16.162.1.107.211.217.315.326.052.054.1.11.153.166.154.163.3.33.452.5l.146.169c.194.227.382.456.569.688.069.086.136.173.2.259.114.146.227.294.336.442.089.119.175.239.262.358.171.238.34.48.5.724.081.117.158.236.236.355l.008.014c.081.123.16.246.238.371.237.372.465.751.688,1.133.075.127.148.256.221.384.732,1.29,1.4,2.631,2.052,4q.176.378.355.757l.023.052.26.559c.426.924.853,1.864,1.291,2.809.094.2.19.407.286.613.05.1.1.209.148.315q.147.314.3.63c.05.106.1.212.152.317q.151.315.307.632c.471.957.964,1.916,1.5,2.876.1.173.194.346.292.519.138.246.282.494.428.74.125.211.254.424.382.636.325.528.663,1.056,1.019,1.583.071.105.142.211.215.315q.657.957,1.393,1.9c.077.1.153.2.23.292s.167.207.252.311c.167.208.338.413.515.619.088.1.177.2.265.309.154.177.309.354.469.528.067.073.134.148.2.221s.134.146.2.219c.206.219.415.44.628.658.029.028.058.057.085.086.186.188.377.377.571.563.017.017.036.034.053.052.071.069.143.136.214.2q1.071,1.018,2.292,2.008c.08.065.163.131.246.2.18.142.361.284.545.427.215.165.432.328.655.491.29.212.586.425.888.634.092.066.184.129.277.191.169.117.338.232.511.345q1.177.781,2.48,1.534l.288.165c.108.059.215.121.321.18s.215.121.325.181l.663.355c.111.06.222.12.336.177.34.177.684.352,1.035.525q.879.435,1.81.855c.248.113.5.224.753.334q.76.335,1.56.655.2.084.4.162c.136.051.271.1.407.159s.273.108.411.159.275.106.415.158l.419.156c.14.053.283.1.425.155s.286.1.43.156l.015,0a4.816,4.816,0,0,1,1.122.422l.01.006a5.3,5.3,0,0,1,1.059.738,7.2,7.2,0,0,1,1.6,2.109A14.513,14.513,0,0,1,4027.721,26.456Z" fill="#334"/>
          <path id="Path_172345" data-name="Path 172345" d="M3892.556,184.389c2.5-.276,103.084-1.532,109.586-2.013s9.516-6.24,8.511-21.393c-.329-4.993-1.662-13.327-8.509-17.206-7.516-4.259-15.452-8.548-16.127-14.4l-83.756-.093s6.07,13.1-11.085,21.71c-.921.461-1.905.909-2.964,1.342C3870.614,159.529,3879.014,185.9,3892.556,184.389Z" fill="#3b3b4c"/>
          <path id="Path_172346" data-name="Path 172346" d="M3969.69,8.178c13.933,12.085,31.241,9.023,40.031,14.8a155.539,155.539,0,0,0,15.988,8.267,24.335,24.335,0,0,0,2.012-4.792c1.228-4.227.71-7.664-.69-10.035a7.423,7.423,0,0,0-3.807-3.281c-36.852-13.1-21.427-39.407-49.15-46.45-.01,0-.017,0-.028,0C3968.757-20.019,3959.061-1.038,3969.69,8.178Z" fill="#fff" opacity="0.08"/>
          <path id="Path_172347" data-name="Path 172347" d="M3945.3,23.81c5.7,4.933,20.749,34.7,18.1,52.119s2.841,33.623,13.857,36.158c6.11,1.4,14.9,3.413,21.124-3.427,5.424-8.212-5.348-26.694-30.683-66.444a27.011,27.011,0,0,1-3.3-5.183.19.19,0,0,1-.018-.034l-.014-.024-1.725-2.62C3957.126,20.749,3928.12,8.94,3945.3,23.81Z" fill="#fff" opacity="0.09"/>
          <path id="Path_172348" data-name="Path 172348" d="M3892.556,184.389c8.339,1.165,91.983,4.9,109.586-2.013,6.073-2.384,9.516-6.24,8.511-21.393-.329-4.993-1.662-13.327-8.509-17.206-15.762,2.517-31.263,12.126-58.5,13.858-23.951,1.52-36.921-3.135-52.466-6.644-.921.461-1.905.909-2.964,1.342C3870.614,159.529,3879.061,182.5,3892.556,184.389Z" fill="#19192d"/>
          <path id="Path_172349" data-name="Path 172349" d="M3914.083,113.015q3.213.066,6.3.143c-4.52-30.524-1.129-82.576-2.223-82.556S3911.281,97.3,3914.083,113.015Z" fill="#050511"/>
          <path id="Path_172350" data-name="Path 172350" d="M3905.344,113.406q1.69-.18,3.572-.482,1.24.018,2.46.041c-3.052-30.83-.045-75.08-1.311-75.056C3908.85,37.931,3904.342,90.692,3905.344,113.406Z" fill="#050511"/>
          <path id="Path_172351" data-name="Path 172351" d="M3898.285,113.587a36.164,36.164,0,0,0,5.382-.033c-1.591-28.712.719-62.147-.513-64.548C3902,46.747,3898.52,87.521,3898.285,113.587Z" fill="#050511"/>
          <path id="Path_172352" data-name="Path 172352" d="M3887.723,123.7c.059,3.253,2.013,7.046,4.656,10.014s5.982,5.1,8.8,5.052l83.086-1.524c5.648-.1,11.137-7.246,11.018-13.751a13.679,13.679,0,0,0-2.942-7.745,16.588,16.588,0,0,0-1.176-1.4c-2.377-2.532-5.442-4.236-8.264-4.184l-81.54,1.495a15.451,15.451,0,0,0-8.188,3.015C3890.06,116.892,3887.657,120.131,3887.723,123.7Z" fill="#19192d"/>
          <path id="Path_172353" data-name="Path 172353" d="M3893.177,114.672c19.45,2.381,77.387,5.092,99.168,1.071a16.588,16.588,0,0,0-1.176-1.4c-2.377-2.532-5.442-4.236-8.264-4.184l-81.54,1.495A15.451,15.451,0,0,0,3893.177,114.672Z" fill="#050511"/>
        </g>
        <g id="Group_112231" data-name="Group 112231">
          <path id="Path_172354" data-name="Path 172354" d="M3860.489,126.355c-.03,7.412-6.219,11.408-13.856,8.285-7.248-2.964-9.427,1.97-15.7,2.017-6.69.049-7.675-7.459-12.652-4.78-9.6,5.169-17.839-.076-13.938-7.806,3.155-6.251,7.921-7.386,11.826-7.176,7.084.381,6.028-4.914,14.281-4.615,10.534.38,6.689,8.323,16.273,7.2C3852.665,118.784,3860.5,122.439,3860.489,126.355Z" fill="#fff" fill-rule="evenodd"/>
        </g>
        <path id="Path_172355" data-name="Path 172355" d="M4075.59-8.771c-5.191,0-15.858,9.1-.613,10.553s38.078.787,47.318.818c15.081.05,18.822-.56,18.7-6.647-.069-3.523-2-5.805-9.945-6.729-8.271-.961-4.046-10.048-14.142-9.772-8.6.234-9.476,12.128-17.344,9.213s-6.221,5.029-11.975,6.486C4081.266-3.246,4080.78-8.771,4075.59-8.771Z" fill="#fdfffd"/>
        <path id="Path_172356" data-name="Path 172356" d="M3808.294-44.485c-9.715-.168-19.844,1.709-29.359-.281-3.471-1.02-6.654-3.405-7.278-6.55a5.824,5.824,0,0,1,5.881-6.582c1.994.087,4.113,1.156,5.851.3,2.438-1.2,1.3-4.573,2.7-6.687,3.19-4.42,11.433-.037,15.234-3.552,1.133-1.058,1.486-2.576,2.394-3.787,4.429-7.415,16.809-5.785,20.6-2.02,2.76,2.587,2.485,7.31,6.083,8.937,3.8,1.73,9.261-1.569,12.649,1.383,2.414,2.1.993,4.264,2.432,6.006,1.564,1.894,4.724,1.919,7.4,1.8s5.871.023,7.276,2.01C3865.029-38.962,3814.674-45.262,3808.294-44.485Z" fill="#fff"/>
        <path id="Path_172357" data-name="Path 172357" d="M3970.931-32.814a23.3,23.3,0,0,1-2.842,4.1,47.917,47.917,0,0,1-11.352,9.343c-12.965,7.971-31.524,13.162-46.222,8.958q.944-2.29,1.845-4.449a35.2,35.2,0,0,1,1.541-3.232,30.707,30.707,0,0,1,2.7-4.192l29.172-5.654,21.664-4.2Z" fill="#050511" opacity="0.34"/>
        <g id="Group_112240" data-name="Group 112240">
          <g id="Group_112239" data-name="Group 112239">
            <g id="Group_112232" data-name="Group 112232">
              <path id="Path_172358" data-name="Path 172358" d="M3924.474-53.323c-6.434,5.052-18.363-10.265-18.363-10.265s-2.717-.259-2.219,1.568,9.14,25.2,2.067,23.674-1.14,4.239-1.14,4.239l23.4,5.258,1.21-20.983Z" fill="#f4ad00"/>
              <path id="Path_172359" data-name="Path 172359" d="M3924.474-53.323c-6.434,5.052-18.363-10.265-18.363-10.265s-2.717-.259-2.219,1.568,9.14,25.2,2.067,23.674-1.14,4.239-1.14,4.239l23.4,5.258,1.21-20.983Z" fill="#e56e1f" opacity="0.39"/>
            </g>
            <g id="Group_112233" data-name="Group 112233">
              <path id="Path_172360" data-name="Path 172360" d="M3939.351-57.209c8.179-.131,7.792-19.541,7.792-19.541s1.947-1.913,2.711-.181,8.782,25.331,13.311,19.687,3.556,2.573,3.556,2.573l-14.858,18.827L3937.7-51.377Z" fill="#f4ad00"/>
              <path id="Path_172361" data-name="Path 172361" d="M3939.351-57.209c8.179-.131,7.792-19.541,7.792-19.541s1.947-1.913,2.711-.181,8.782,25.331,13.311,19.687,3.556,2.573,3.556,2.573l-14.858,18.827L3937.7-51.377Z" fill="#e56e1f" opacity="0.39"/>
            </g>
            <path id="Path_172362" data-name="Path 172362" d="M3967.772-77.278c-.046,2.418.175,8.251.355,14.845.312,11.422.5,25.125-1.045,27.289-8.734,12.254-36.2,20.828-52.355,17.026-2.254-.53-10.448-10.734-17.066-19.309h0c-4.479-5.8-8.237-10.859-8.947-11.666-1.756-2-.133-7.971,3.787-3.239a93.338,93.338,0,0,0,7.273,8.1l.13.123c.52.494,1.054.984,1.6,1.458l.118.1c4.288,3.7,9.29,6.491,13.9,4.941,4.157-1.4,5.668-10.375,6.107-19.177a140.229,140.229,0,0,0-.306-18.013c-.325-2.606.862-6.428,4.384-1.554,2.219,3.066,8.583,13.638,15.312,20.335,3.963,3.945,8.052,6.546,11.5,5.477,4.785-1.485,7.079-6.588,8.191-12.094v0c1.487-7.366.854-15.454,1.233-16.559C3962.594-81.128,3967.9-83.884,3967.772-77.278Z" fill="#f4ad00"/>
            <g id="Group_112234" data-name="Group 112234">
              <path id="Path_172363" data-name="Path 172363" d="M3894.215-54.941a5.142,5.142,0,0,1-3.21,6.527.594.594,0,0,1-.065.021,5.224,5.224,0,0,1-1.671.285h-.1a5.2,5.2,0,0,1-1.845-.356,5.006,5.006,0,0,1-2.926-3,5.146,5.146,0,0,1,3.213-6.526,5.256,5.256,0,0,1,3.1-.14A5.036,5.036,0,0,1,3894.215-54.941Z" fill="url(#radial-gradient)"/>
              <path id="Path_172364" data-name="Path 172364" d="M3894.215-54.941a5.142,5.142,0,0,1-3.21,6.527.594.594,0,0,1-.065.021,15.656,15.656,0,0,1-1.671.285h-.1a5.2,5.2,0,0,1-1.845-.356c5.031-3.078,4.145-6.066,3.383-9.662A5.036,5.036,0,0,1,3894.215-54.941Z" fill="#e56e1f" opacity="0.34"/>
              <path id="Path_172365" data-name="Path 172365" d="M3887.137-48.493a1.735,1.735,0,0,1-1.176-.458,5.131,5.131,0,0,1-1.636-3.008A5.747,5.747,0,0,1,3884.71-55a1.741,1.741,0,0,1,2.269-.958,1.741,1.741,0,0,1,.958,2.269,1.835,1.835,0,0,0,.378,2.175,1.742,1.742,0,0,1,.107,2.46A1.737,1.737,0,0,1,3887.137-48.493Z" fill="#fff" opacity="0.57"/>
              <path id="Path_172366" data-name="Path 172366" d="M3887.368-54.179a1.735,1.735,0,0,1-1.236-.515,1.741,1.741,0,0,1,.01-2.463,5.379,5.379,0,0,1,1.966-1.264,1.742,1.742,0,0,1,2.222,1.061,1.741,1.741,0,0,1-1.061,2.222,1.919,1.919,0,0,0-.674.452A1.736,1.736,0,0,1,3887.368-54.179Z" fill="#fff" opacity="0.57"/>
            </g>
            <g id="Group_112235" data-name="Group 112235">
              <path id="Path_172367" data-name="Path 172367" d="M3907.837-65.78a4.121,4.121,0,0,1-2.573,5.231l-.052.017a4.235,4.235,0,0,1-1.338.228h-.081a4.148,4.148,0,0,1-1.479-.285,4.01,4.01,0,0,1-2.345-2.4,4.124,4.124,0,0,1,2.575-5.23,4.209,4.209,0,0,1,2.481-.112A4.034,4.034,0,0,1,3907.837-65.78Z" fill="url(#radial-gradient-2)"/>
              <path id="Path_172368" data-name="Path 172368" d="M3907.837-65.78a4.121,4.121,0,0,1-2.573,5.231l-.052.017a12.935,12.935,0,0,1-1.338.228h-.081a4.148,4.148,0,0,1-1.479-.285c4.031-2.466,3.321-4.86,2.711-7.742A4.034,4.034,0,0,1,3907.837-65.78Z" fill="#e56e1f" opacity="0.34"/>
              <path id="Path_172369" data-name="Path 172369" d="M3902.166-60.613a1.39,1.39,0,0,1-.942-.366,4.251,4.251,0,0,1-1-4.851,1.4,1.4,0,0,1,1.818-.767,1.4,1.4,0,0,1,.767,1.818,1.47,1.47,0,0,0,.3,1.743,1.4,1.4,0,0,1,.086,1.972A1.393,1.393,0,0,1,3902.166-60.613Z" fill="#fff" opacity="0.57"/>
              <path id="Path_172370" data-name="Path 172370" d="M3902.35-65.17a1.391,1.391,0,0,1-.993-.415,1.4,1.4,0,0,1,.012-1.973,4.336,4.336,0,0,1,1.57-1.009,1.4,1.4,0,0,1,1.782.848,1.4,1.4,0,0,1-.848,1.782,1.564,1.564,0,0,0-.544.365A1.391,1.391,0,0,1,3902.35-65.17Z" fill="#fff" opacity="0.57"/>
            </g>
            <g id="Group_112236" data-name="Group 112236">
              <path id="Path_172371" data-name="Path 172371" d="M3952.036-80.116a4.122,4.122,0,0,1-2.573,5.231c-.014.005-.032.011-.052.016a4.178,4.178,0,0,1-1.338.228h-.081a4.179,4.179,0,0,1-1.48-.285,4.015,4.015,0,0,1-2.344-2.4,4.123,4.123,0,0,1,2.575-5.229,4.217,4.217,0,0,1,2.481-.113A4.036,4.036,0,0,1,3952.036-80.116Z" fill="url(#radial-gradient-3)"/>
              <path id="Path_172372" data-name="Path 172372" d="M3952.036-80.116a4.122,4.122,0,0,1-2.573,5.231c-.014.005-.032.011-.052.016a12.4,12.4,0,0,1-1.338.228h-.081a4.179,4.179,0,0,1-1.48-.285c4.032-2.467,3.322-4.861,2.712-7.743A4.036,4.036,0,0,1,3952.036-80.116Z" fill="#e56e1f" opacity="0.34"/>
              <path id="Path_172373" data-name="Path 172373" d="M3946.365-74.949a1.391,1.391,0,0,1-.943-.367,4.25,4.25,0,0,1-1-4.852,1.4,1.4,0,0,1,1.819-.766,1.4,1.4,0,0,1,.766,1.819,1.469,1.469,0,0,0,.3,1.742,1.4,1.4,0,0,1,.085,1.972A1.392,1.392,0,0,1,3946.365-74.949Z" fill="#fff" opacity="0.57"/>
              <path id="Path_172374" data-name="Path 172374" d="M3946.549-79.506a1.391,1.391,0,0,1-.991-.413,1.4,1.4,0,0,1,.009-1.973,4.324,4.324,0,0,1,1.572-1.011,1.4,1.4,0,0,1,1.782.848,1.4,1.4,0,0,1-.848,1.782,1.548,1.548,0,0,0-.542.363A1.392,1.392,0,0,1,3946.549-79.506Z" fill="#fff" opacity="0.57"/>
            </g>
            <g id="Group_112237" data-name="Group 112237">
              <path id="Path_172375" data-name="Path 172375" d="M3928-79.566a5.425,5.425,0,0,1-3.386,6.885c-.019.007-.043.015-.069.022a5.514,5.514,0,0,1-1.762.3h-.106a5.49,5.49,0,0,1-1.947-.375,5.284,5.284,0,0,1-3.086-3.16,5.426,5.426,0,0,1,3.389-6.883,5.531,5.531,0,0,1,3.266-.148A5.31,5.31,0,0,1,3928-79.566Z" fill="url(#radial-gradient-4)"/>
              <path id="Path_172376" data-name="Path 172376" d="M3928-79.566a5.425,5.425,0,0,1-3.386,6.885c-.019.007-.043.015-.069.022a16.51,16.51,0,0,1-1.762.3h-.106a5.49,5.49,0,0,1-1.947-.375c5.307-3.247,4.372-6.4,3.569-10.191A5.31,5.31,0,0,1,3928-79.566Z" fill="#e56e1f" opacity="0.34"/>
              <path id="Path_172377" data-name="Path 172377" d="M3920.539-72.764a1.83,1.83,0,0,1-1.241-.483,5.415,5.415,0,0,1-1.725-3.173,6.055,6.055,0,0,1,.406-3.213,1.837,1.837,0,0,1,2.394-1.008,1.837,1.837,0,0,1,1.008,2.394,1.933,1.933,0,0,0,.4,2.292,1.837,1.837,0,0,1,.112,2.6A1.832,1.832,0,0,1,3920.539-72.764Z" fill="#fff" opacity="0.57"/>
              <path id="Path_172378" data-name="Path 172378" d="M3920.782-78.762a1.831,1.831,0,0,1-1.3-.543,1.837,1.837,0,0,1,.01-2.6,5.684,5.684,0,0,1,2.071-1.332,1.836,1.836,0,0,1,2.346,1.116,1.837,1.837,0,0,1-1.116,2.346,2.032,2.032,0,0,0-.713.478A1.831,1.831,0,0,1,3920.782-78.762Z" fill="#fff" opacity="0.57"/>
            </g>
            <g id="Group_112238" data-name="Group 112238">
              <path id="Path_172379" data-name="Path 172379" d="M3969.3-81.809a5.142,5.142,0,0,1-3.211,6.527.483.483,0,0,1-.065.021,5.219,5.219,0,0,1-1.67.285h-.1a5.206,5.206,0,0,1-1.846-.356,5.011,5.011,0,0,1-2.926-3,5.146,5.146,0,0,1,3.214-6.526,5.255,5.255,0,0,1,3.1-.14A5.038,5.038,0,0,1,3969.3-81.809Z" fill="url(#radial-gradient-5)"/>
              <path id="Path_172380" data-name="Path 172380" d="M3969.3-81.809a5.142,5.142,0,0,1-3.211,6.527.483.483,0,0,1-.065.021,15.579,15.579,0,0,1-1.67.285h-.1a5.206,5.206,0,0,1-1.846-.356c5.031-3.078,4.146-6.066,3.384-9.662A5.038,5.038,0,0,1,3969.3-81.809Z" fill="#e56e1f" opacity="0.34"/>
              <path id="Path_172381" data-name="Path 172381" d="M3962.221-75.361a1.735,1.735,0,0,1-1.176-.458,5.3,5.3,0,0,1-1.251-6.054,1.742,1.742,0,0,1,2.269-.956,1.741,1.741,0,0,1,.956,2.269,1.833,1.833,0,0,0,.379,2.174,1.742,1.742,0,0,1,.107,2.46A1.737,1.737,0,0,1,3962.221-75.361Z" fill="#fff" opacity="0.57"/>
              <path id="Path_172382" data-name="Path 172382" d="M3962.451-81.047a1.736,1.736,0,0,1-1.238-.516,1.742,1.742,0,0,1,.013-2.463,5.4,5.4,0,0,1,1.963-1.262,1.742,1.742,0,0,1,2.223,1.059,1.742,1.742,0,0,1-1.06,2.223,1.937,1.937,0,0,0-.677.454A1.737,1.737,0,0,1,3962.451-81.047Z" fill="#fff" opacity="0.57"/>
            </g>
            <path id="Path_172383" data-name="Path 172383" d="M3921.625-56.786c1.221,12.562,1.148,22.289-3.121,23.8-3.906,1.385-12.975-6.1-16.883-9.567,4.288,3.7,9.29,6.491,13.9,4.941C3919.675-39.009,3921.186-47.984,3921.625-56.786Z" fill="#fff" opacity="0.3"/>
            <path id="Path_172384" data-name="Path 172384" d="M3960.7-62.635c-.026,7.836-1.324,14.673-4.833,15.672-3.525,1-10.442-3.124-14.853-9.055,3.963,3.945,8.052,6.546,11.5,5.477C3957.295-52.026,3959.589-57.129,3960.7-62.635Z" fill="#fff" opacity="0.3"/>
            <path id="Path_172385" data-name="Path 172385" d="M3968.127-62.433c.312,11.422.5,25.125-1.045,27.289-8.734,12.254-36.2,20.828-52.355,17.026-2.254-.53-10.448-10.734-17.066-19.309,12.4,11.782,22.542,21.042,45.438,14.088C3964.017-29.692,3965.376-47.078,3968.127-62.433Z" fill="#e56e1f" opacity="0.34"/>
          </g>
          <path id="Path_172386" data-name="Path 172386" d="M3909.466-22.882c-1.261.951.01,5.118,3.212,7.39,4.56,3.237,15.215,4.2,30.577-1.557,26.149-9.8,27.286-16.25,26.952-20.006s-1.314-6.043-1.974-5.985c-1.863.163-3.409,13.294-26.483,20.538C3918.323-15.147,3910.264-23.485,3909.466-22.882Z" fill="#e56e1f"/>
        </g>
      </g>
    </g>
  </g>
</svg>
