<svg xmlns="http://www.w3.org/2000/svg" width="141.114" height="120" viewBox="0 0 141.114 120">
  <g id="t2-ic1" transform="translate(-180 -4283)">
    <path id="Path_168217" data-name="Path 168217" d="M-72-845a24,24,0,0,0-24,24v96h85L25.414-845Z" transform="translate(276 5128)" fill="#c9f6f9" opacity="0.8"/>
    <g id="unido" transform="translate(229 4298)">
      <path id="Path_170842" data-name="Path 170842" d="M205.195,201.976l-20.316-20.316a3.253,3.253,0,1,1,4.6-4.6l-5.231-5.231a3.245,3.245,0,0,1-.955-2.3,3.342,3.342,0,0,1,.041-.521,3.248,3.248,0,0,1,5.2-2.046l-1.991-1.991a3.254,3.254,0,0,1-.956-2.3,3.11,3.11,0,0,1,.044-.529,3.254,3.254,0,0,1,5.514-1.768l2.28,2.28a3.253,3.253,0,1,1,4.6-4.6l13.2,13.2.037-.053a5.949,5.949,0,0,1,8.421.006l6.156,6.156a6.318,6.318,0,0,1,1.85,4.458l0,3.851a6.8,6.8,0,0,0,1.992,4.8l1.373,1.373-15.7,15.7-1.754-1.754a6.8,6.8,0,0,0-4.364-1.977,6.31,6.31,0,0,1-4.051-1.837Zm0,0" transform="translate(-150.317 -128.829)" fill="#fecbaa"/>
      <path id="Path_170843" data-name="Path 170843" d="M353.87,359.945l17.822-17.822a1.5,1.5,0,0,1,2.127,0l6.347,6.347a1.5,1.5,0,0,1,0,2.127l-17.822,17.822a1.5,1.5,0,0,1-2.127,0l-6.347-6.347a1.5,1.5,0,0,1,0-2.127Zm0,0" transform="translate(-289.844 -280.211)" fill="#c9f6f9"/>
      <path id="Path_170844" data-name="Path 170844" d="M89.027,201.987l20.316-20.316a3.253,3.253,0,1,0-4.6-4.6l5.231-5.231a3.251,3.251,0,0,0-4.291-4.869l1.991-1.991a3.253,3.253,0,0,0,.956-2.3,3.1,3.1,0,0,0-.044-.529,3.241,3.241,0,0,0-2.692-2.682,3.253,3.253,0,0,0-2.822.913l-2.28,2.28a3.253,3.253,0,1,0-4.6-4.6l-13.2,13.2-.037-.052a5.949,5.949,0,0,0-8.421.006l-6.156,6.156a6.315,6.315,0,0,0-1.85,4.458l0,3.851a6.793,6.793,0,0,1-1.992,4.8l-1.373,1.373,15.7,15.7,1.755-1.754a6.8,6.8,0,0,1,4.364-1.977,6.316,6.316,0,0,0,4.051-1.837Zm0,0" transform="translate(-51.794 -128.837)" fill="#fecbaa"/>
      <path id="Path_170845" data-name="Path 170845" d="M34.231,359.954,16.409,342.132a1.5,1.5,0,0,0-2.127,0l-6.347,6.347a1.5,1.5,0,0,0,0,2.127l17.822,17.822a1.5,1.5,0,0,0,2.127,0l6.347-6.347A1.5,1.5,0,0,0,34.231,359.954Zm0,0" transform="translate(-6.147 -280.217)" fill="#f6bf28"/>
      <path id="Path_170846" data-name="Path 170846" d="M182.306,85.233v28.731a3.253,3.253,0,1,1-6.506,0v7.4a3.251,3.251,0,0,1-6.477.408v2.816a3.252,3.252,0,0,1-.954,2.3,3.049,3.049,0,0,1-.4.344,3.254,3.254,0,0,1-5.149-2.648v-3.224a3.253,3.253,0,1,1-6.506,0V102.69l-.063.011a5.95,5.95,0,0,1-5.95-5.959V88.036a6.319,6.319,0,0,1,1.844-4.461l2.72-2.725a6.8,6.8,0,0,0,1.986-4.8V74.105h22.206v2.481a6.8,6.8,0,0,0,1.687,4.484,6.311,6.311,0,0,1,1.566,4.163Zm0,0" transform="translate(-123.257 -60.773)" fill="#fedfc5"/>
      <path id="Path_170847" data-name="Path 170847" d="M175.021,177.067a3.256,3.256,0,0,0-4.6,0l5.231-5.231a3.251,3.251,0,0,0-4.291-4.869l1.991-1.991a3.252,3.252,0,0,0,.955-2.3,3.033,3.033,0,0,0-.044-.529,3.254,3.254,0,0,0-5.513-1.769l-2.28,2.28a3.253,3.253,0,1,0-4.6-4.6l-13.2,13.2-.037-.052a5.927,5.927,0,0,0-5.387-1.619,8.73,8.73,0,0,0,4.583,3.467v16.371a5.959,5.959,0,0,0,7.114,5.844,5.963,5.963,0,0,0,3.451,3.03l16.629-16.63a3.252,3.252,0,0,0,0-4.6Zm0,0" transform="translate(-117.469 -128.837)" fill="#ffae85"/>
      <path id="Path_170848" data-name="Path 170848" d="M212.053,182.022v-11.49a5.956,5.956,0,0,0-.795.668l-.037.052-13.2-13.2a3.256,3.256,0,0,0-4.6,0,3.256,3.256,0,0,0,0,4.6l-2.28-2.28a3.251,3.251,0,0,0-5.514,1.769,3.1,3.1,0,0,0-.043.529,3.25,3.25,0,0,0,.956,2.3l1.991,1.991a3.251,3.251,0,0,0-4.292,4.869l5.231,5.231a3.253,3.253,0,1,0-4.6,4.6l13.61,13.61a5.974,5.974,0,0,0,1.118.1,5.9,5.9,0,0,0,3.482-1.127,5.95,5.95,0,0,0,2.47-4.83v-1.467q.275.025.555.025a5.962,5.962,0,0,0,5.951-5.957Zm0,0" transform="translate(-150.307 -128.831)" fill="#ffae85"/>
      <path id="Path_170849" data-name="Path 170849" d="M182.306,85.233v28.731a3.254,3.254,0,0,1-3.253,3.258c-.048,0-.1,0-.153,0a3.218,3.218,0,0,1-1.746-.611s0,0,0,0a3.251,3.251,0,0,1-1.349-2.641v7.4a3.251,3.251,0,0,1-6.477.408v2.816a3.252,3.252,0,0,1-.954,2.3,3.05,3.05,0,0,1-.4.344,3.254,3.254,0,0,1-5.149-2.648v-3.224a3.253,3.253,0,1,1-6.506,0V102.69l-.063.011a5.95,5.95,0,0,1-5.95-5.959V88.036a6.319,6.319,0,0,1,1.844-4.461l2.72-2.725a6.811,6.811,0,0,0,1.986-4.8V74.105h22.206v2.481a6.129,6.129,0,0,0,.214,1.679,6.758,6.758,0,0,0,1.473,2.8,6.362,6.362,0,0,1,1.566,4.163Zm0,0" transform="translate(-123.257 -60.773)" fill="#fedfc5"/>
      <path id="Path_170850" data-name="Path 170850" d="M210.782,85.233v28.731a3.254,3.254,0,0,1-3.253,3.258c-.048,0-.1,0-.153,0a3.218,3.218,0,0,1-1.746-.611l.056-27.686a4.244,4.244,0,0,0-.108-.768,12.514,12.514,0,0,0-12.519-10.1H185.02a6.774,6.774,0,0,0,.3-2.008V74.1h22.206v2.481a6.129,6.129,0,0,0,.214,1.679,6.758,6.758,0,0,0,1.473,2.8,6.362,6.362,0,0,1,1.566,4.163Zm0,0" transform="translate(-151.733 -60.772)" fill="#fecbaa"/>
      <path id="Path_170851" data-name="Path 170851" d="M196.407,19.484H171.2a1.5,1.5,0,0,1-1.5-1.5V9a1.5,1.5,0,0,1,1.5-1.5h25.205a1.5,1.5,0,0,1,1.5,1.5V17.98A1.5,1.5,0,0,1,196.407,19.484Zm0,0" transform="translate(-139.168 -6.15)" fill="#ff805a"/>
      <path id="Path_170852" data-name="Path 170852" d="M202.973,447.763l-.271,1.322.261-1.323a1.349,1.349,0,1,0-.521,2.647l.025,0a1.375,1.375,0,0,0,.255.025,1.35,1.35,0,0,0,.252-2.675Zm0,0" transform="translate(-165.128 -367.184)"/>
      <path id="Path_170853" data-name="Path 170853" d="M262.163,450.263l.134,1.342-.138-1.342a1.349,1.349,0,0,0,.136,2.692c.046,0,.093,0,.14-.007l.037,0a1.349,1.349,0,0,0-.309-2.681Zm0,0" transform="translate(-214.001 -369.25)"/>
      <path id="Path_170854" data-name="Path 170854" d="M232.521,451.232h-.02a1.342,1.342,0,0,0-1.4,1.288,1.357,1.357,0,0,0,1.3,1.408h.063a1.349,1.349,0,0,0,.06-2.7Zm0,0" transform="translate(-189.525 -370.049)"/>
      <path id="Path_170855" data-name="Path 170855" d="M174.39,439.875l-.017-.006a1.342,1.342,0,0,0-1.718.817,1.354,1.354,0,1,0,1.734-.81Zm0,0" transform="translate(-141.528 -360.667)"/>
      <path id="Path_170856" data-name="Path 170856" d="M291.37,444.847l.332,1.308-.337-1.306a1.349,1.349,0,1,0,.673,2.613l.036-.009a1.349,1.349,0,0,0-.7-2.605Zm0,0" transform="translate(-238.115 -364.778)"/>
      <path id="Path_170857" data-name="Path 170857" d="M319.405,435.067l.535,1.238-.539-1.237a1.349,1.349,0,1,0,1.077,2.474l.033-.015a1.349,1.349,0,0,0-1.106-2.461Zm0,0" transform="translate(-261.273 -356.7)"/>
      <path id="Path_170858" data-name="Path 170858" d="M147.832,81.389a1.35,1.35,0,1,0-.63-2.541l-.016.008a1.347,1.347,0,0,0,.647,2.533Zm0,0" transform="translate(-120.125 -64.531)"/>
      <path id="Path_170859" data-name="Path 170859" d="M63.959,165.795a1.349,1.349,0,0,0,1.822-.569l.024-.047a1.35,1.35,0,1,0-1.846.616Zm0,0" transform="translate(-51.86 -133.866)"/>
      <path id="Path_170860" data-name="Path 170860" d="M52.514,193.627a1.348,1.348,0,0,0,1.711-.845l.018-.053a1.35,1.35,0,1,0-1.728.9Zm0,0" transform="translate(-42.314 -156.622)"/>
      <path id="Path_170861" data-name="Path 170861" d="M79.518,140.05a1.348,1.348,0,0,0,1.885-.3l.018-.024a1.349,1.349,0,0,0-2.2-1.569l1.087.8-1.091-.794a1.349,1.349,0,0,0,.3,1.885Zm0,0" transform="translate(-64.757 -112.841)"/>
      <path id="Path_170862" data-name="Path 170862" d="M122.394,97.533a1.355,1.355,0,1,0-.781-2.452l-.034.025a1.351,1.351,0,0,0,.815,2.427Zm0,0" transform="translate(-99.268 -77.761)"/>
      <path id="Path_170863" data-name="Path 170863" d="M49.7,311.385a1.35,1.35,0,1,0-.018-.059Zm0,0" transform="translate(-40.706 -253.916)"/>
      <path id="Path_170864" data-name="Path 170864" d="M99.74,117.316A1.354,1.354,0,1,0,98.8,115l-.022.022a1.348,1.348,0,0,0,.965,2.291Zm0,0" transform="translate(-80.689 -93.988)"/>
      <path id="Path_170865" data-name="Path 170865" d="M46.037,281.369a1.35,1.35,0,0,0-2.678.334l.008.054a1.349,1.349,0,0,0,2.671-.388Zm0,0" transform="translate(-35.551 -229.784)"/>
      <path id="Path_170866" data-name="Path 170866" d="M42.9,252.865h.041a1.349,1.349,0,0,0,1.348-1.31V251.5a1.35,1.35,0,1,0-1.39,1.367Zm0,0" transform="translate(-34.109 -205.144)"/>
      <path id="Path_170867" data-name="Path 170867" d="M45.444,222.88a1.393,1.393,0,0,0,.24.021,1.351,1.351,0,0,0,1.327-1.112c0-.02.006-.039.009-.059a1.35,1.35,0,1,0-1.576,1.15Zm0,0" transform="translate(-36.357 -180.57)"/>
      <path id="Path_170868" data-name="Path 170868" d="M403.164,143.885a1.349,1.349,0,0,0,2.221-1.532l-1.122.751,1.117-.757a1.35,1.35,0,1,0-2.234,1.514Zm0,0" transform="translate(-330.426 -116.251)"/>
      <path id="Path_170869" data-name="Path 170869" d="M437.139,229.031a1.349,1.349,0,0,0-1.19,1.492l.007.058a1.35,1.35,0,0,0,1.335,1.158,1.378,1.378,0,0,0,.193-.013,1.359,1.359,0,0,0-.344-2.7Zm0,0" transform="translate(-357.511 -187.819)"/>
      <path id="Path_170870" data-name="Path 170870" d="M429.694,200.016l.006.018a1.349,1.349,0,0,0,1.294.969,1.329,1.329,0,0,0,.381-.056,1.349,1.349,0,0,0,.914-1.675l-.006-.018a1.349,1.349,0,0,0-2.589.762Zm0,0" transform="translate(-352.343 -162.612)"/>
      <path id="Path_170871" data-name="Path 170871" d="M418.68,170.919a1.356,1.356,0,0,0,1.217.758,1.348,1.348,0,0,0,1.208-1.94l-1.223.57,1.221-.573a1.349,1.349,0,0,0-2.444,1.146Zm0,0" transform="translate(-343.234 -138.559)"/>
      <path id="Path_170872" data-name="Path 170872" d="M383.593,119.658a1.359,1.359,0,1,0-.041-.043Zm0,0" transform="translate(-314.254 -96.238)"/>
      <path id="Path_170873" data-name="Path 170873" d="M438.706,260.385a1.358,1.358,0,0,0-.115,2.713l.077,0a1.35,1.35,0,0,0,1.346-1.275l0-.056A1.347,1.347,0,0,0,438.706,260.385Zm0,0" transform="translate(-358.639 -213.538)"/>
      <path id="Path_170874" data-name="Path 170874" d="M334.254,81.8l.032.018a1.344,1.344,0,0,0,1.817-.554,1.354,1.354,0,0,0-.548-1.826L334.9,80.62l.649-1.183a1.349,1.349,0,1,0-1.3,2.366Zm0,0" transform="translate(-273.544 -65.008)"/>
      <path id="Path_170875" data-name="Path 170875" d="M360.41,98.766l.021.016a1.35,1.35,0,0,0,1.631-2.15l-.009-.006a1.349,1.349,0,1,0-1.643,2.141Zm0,0" transform="translate(-295.136 -79.012)"/>
      <path id="Path_170876" data-name="Path 170876" d="M91.281,67.274l-6.334-6.345a2.849,2.849,0,0,0-4.035,0l-.147.147-.416-.416a5.446,5.446,0,0,1-1.181-1.767,1.315,1.315,0,0,0-.1-.25,5.457,5.457,0,0,1-.314-1.833V55.014a1.359,1.359,0,1,0-.008-2.4,7.607,7.607,0,0,0-2.23-5.074l-6.145-6.156a7.291,7.291,0,0,0-9.323-.837l-.652-.656V24.46a7.662,7.662,0,0,0-1.9-5.053,5.445,5.445,0,0,1-1.352-3.594V14.683h.093a2.856,2.856,0,0,0,2.853-2.853V2.854A2.856,2.856,0,0,0,57.239,0H32.034a2.856,2.856,0,0,0-2.853,2.853v8.976a2.856,2.856,0,0,0,2.853,2.853h.208v.592a5.414,5.414,0,0,1-1.592,3.85l-2.72,2.725a7.613,7.613,0,0,0-2.238,5.413v8.705a7.276,7.276,0,0,0,.784,3.289,7.246,7.246,0,0,0-4.735,2.128l-6.145,6.156a7.614,7.614,0,0,0-2.238,5.413v3.854a5.413,5.413,0,0,1-1.592,3.85l-.411.412,0,0-.146-.147a2.85,2.85,0,0,0-4.035,0L.832,67.274a2.861,2.861,0,0,0,0,4.035L3,73.482a1.349,1.349,0,1,0,1.909-1.907L2.743,69.4a.157.157,0,0,1,0-.221l6.335-6.345a.151.151,0,0,1,.214,0l1.1,1.1h0L25.431,79l1.685,1.688a.157.157,0,0,1,0,.221l-6.334,6.345a.151.151,0,0,1-.215,0L8.732,75.4a1.349,1.349,0,0,0-1.91,1.907L18.657,89.163a2.85,2.85,0,0,0,4.035,0l6.334-6.345a2.86,2.86,0,0,0,0-4.035l-.069-.069.8-.8a5.422,5.422,0,0,1,3.491-1.583A7.635,7.635,0,0,0,38.16,74.1l5.819-5.832a4.62,4.62,0,0,0,3.34-3.519,4.6,4.6,0,0,0,6.574-4.163v-3.2A4.6,4.6,0,0,0,60.4,53.191V43.719l4.151,4.171a1.349,1.349,0,0,0,1.913-1.9L63,42.509a4.6,4.6,0,0,1,5.463.784l6.145,6.155a4.933,4.933,0,0,1,1.45,3.507v3.854a8.1,8.1,0,0,0,2.38,5.757l.419.42L76.9,64.946,65.063,76.8l-.66-.661-.02-.02-.116-.117a8.124,8.124,0,0,0-5.225-2.368,4.948,4.948,0,0,1-3.182-1.444l-4.434-4.41a1.349,1.349,0,1,0-1.9,1.913L53.954,74.1a7.635,7.635,0,0,0,4.914,2.228,5.424,5.424,0,0,1,3.49,1.582l.065.065a1.3,1.3,0,0,0,.112.112l.622.623-.069.07a2.86,2.86,0,0,0,0,4.035l6.334,6.345a2.85,2.85,0,0,0,4.035,0L91.281,71.309a2.86,2.86,0,0,0,0-4.035ZM79.662,53.857l-.025,0-.246-.05ZM36.249,72.2a4.939,4.939,0,0,1-3.177,1.441,8.124,8.124,0,0,0-5.226,2.368l-.8.8-.717-.718-.027-.027L13.255,62.986l.419-.42a8.1,8.1,0,0,0,2.38-5.757V52.955a4.93,4.93,0,0,1,1.45-3.507l6.145-6.155a4.595,4.595,0,0,1,5.47-.78l-3.466,3.472a1.349,1.349,0,0,0,1.91,1.907l4.14-4.148V60.589a4.6,4.6,0,0,0,6.6,4.151,4.624,4.624,0,0,0,2.287,3.107ZM57.7,53.192a1.9,1.9,0,1,1-3.808,0V38.14a1.349,1.349,0,0,0-2.7,0V60.59a1.9,1.9,0,0,1-3.78.316V38.125a1.364,1.364,0,0,0-2.727.015V60.589a4.627,4.627,0,0,0,.028.506v2.719a1.9,1.9,0,1,1-3.807,0V38.109a1.35,1.35,0,0,0-2.7,0v22.48a1.9,1.9,0,1,1-3.807,0v-25.1a1.349,1.349,0,1,0-2.7,0v4.643a1.325,1.325,0,0,0-.325.155,4.617,4.617,0,0,1-2.99-4.319V27.263a4.933,4.933,0,0,1,1.45-3.507l2.72-2.725a8.093,8.093,0,0,0,2.381-5.757v-.592h2.713a1.349,1.349,0,0,0,0-2.7H32.033a.154.154,0,0,1-.154-.155V2.853a.154.154,0,0,1,.154-.155h25.2a.155.155,0,0,1,.155.155v8.976a.154.154,0,0,1-.155.155H43.988a1.349,1.349,0,1,0,0,2.7H54.447v1.131a8.148,8.148,0,0,0,2.021,5.374A4.961,4.961,0,0,1,57.7,24.46ZM89.371,69.4,71.547,87.257a.144.144,0,0,1-.108.045.147.147,0,0,1-.108-.045L65,80.911a.157.157,0,0,1,0-.221l1.02-1.022h0L76.365,69.3l6.456-6.468a.151.151,0,0,1,.214,0l6.335,6.345A.157.157,0,0,1,89.371,69.4Zm0,0" transform="translate(0)"/>
      <path id="Path_170877" data-name="Path 170877" d="M195.253,32.8a1.439,1.439,0,1,0,1.437,1.439A1.44,1.44,0,0,0,195.253,32.8Zm0,0" transform="translate(-158.947 -26.902)"/>
      <path id="Path_170878" data-name="Path 170878" d="M456.851,374.688a1.439,1.439,0,1,0,1.436,1.439A1.44,1.44,0,0,0,456.851,374.688Zm0,0" transform="translate(-373.48 -307.278)"/>
      <path id="Path_170879" data-name="Path 170879" d="M111.885,444.642a1.437,1.437,0,1,0-1.436,1.439A1.44,1.44,0,0,0,111.885,444.642Zm0,0" transform="translate(-89.399 -363.466)"/>
    </g>
  </g>
</svg>
