<svg xmlns="http://www.w3.org/2000/svg" width="400" height="340" viewBox="0 0 400 340">
  <g id="t2-i4" transform="translate(-714 396)">
    <rect id="Rectángulo_36716" data-name="Rectángulo 36716" width="400" height="340" transform="translate(714 -396)" fill="none"/>
    <g id="Group_111041" data-name="Group 111041">
      <g id="Group_110895" data-name="Group 110895">
        <g id="Group_110891" data-name="Group 110891">
          <path id="Path_170314" data-name="Path 170314" d="M946.97-189.89l-53.992-22.72-42.12,28.421,22.364,9.41a9.633,9.633,0,0,1-1.507.983,12.329,12.329,0,0,1-2.759.8c-1.881.347-4.19.29-5.53,1.194-2.1,1.415-.446,3.981,3.677,5.82.119.054.242.106.365.158,4.389,1.846,9.7,2.166,11.851.71,1.751-1.182.405-3.058,1.45-4.431a10.619,10.619,0,0,1,1.746-1.327l22.336,9.4,17.427-11.758c-.071-.034-.146-.068-.224-.1a21.065,21.065,0,0,0-2.293-.84c-2.6-.571-6.114.122-8.359-.823-2.752-1.225-2.19-4,1.2-6.289,3.423-2.31,8.439-3.24,11.2-2.078,1.715.764,1.648,1.967,2.314,2.954a5.081,5.081,0,0,0,1.544,1.476c.082.05.393.206.788.383.33.147.718.308,1.08.429Z" fill="#ccc"/>
        </g>
        <path id="Path_170315" data-name="Path 170315" d="M889.662-110.122c-1.361-.92-3.71-.861-5.62-1.214a12.487,12.487,0,0,1-2.807-.818,9.765,9.765,0,0,1-1.531-1l22.73-9.565-17.71-11.95c.072-.036.149-.071.228-.106a20.969,20.969,0,0,1,2.33-.854c2.639-.58,6.212.124,8.587-.876,2.7-1.206,2.135-4.031-1.309-6.352-3.479-2.349-8.578-3.295-11.471-2.075-1.657.74-1.591,1.962-2.266,2.964a5.162,5.162,0,0,1-1.571,1.5c-.083.051-.4.211-.806.392-.335.15-.727.31-1.091.434L859.623-151.6l-54.878,23.093,42.811,28.887,22.7-9.553a11.048,11.048,0,0,1,1.773,1.347c1.062,1.4-.307,3.3,1.472,4.505,2.193,1.478,7.585,1.155,12.046-.721.126-.053.249-.107.37-.161C890.114-106.076,891.792-108.685,889.662-110.122Z" fill="#ccc"/>
        <g id="Group_110892" data-name="Group 110892">
          <path id="Path_170316" data-name="Path 170316" d="M932.11-163.987l22.7-9.553a10.928,10.928,0,0,1,1.776,1.347c1.062,1.4-.307,3.3,1.473,4.506,2.193,1.478,7.584,1.155,12.045-.722.125-.052.247-.105.368-.158,4.192-1.87,5.873-4.48,3.742-5.918-1.363-.919-3.71-.861-5.623-1.214a12.5,12.5,0,0,1-2.8-.817,9.86,9.86,0,0,1-1.531-1l22.73-9.564L1029.8-158.19,974.921-135.1,957.21-147.049c.069-.034.143-.068.219-.1a21.128,21.128,0,0,1,2.338-.858c2.641-.58,6.214.125,8.5-.836,2.8-1.246,2.226-4.069-1.215-6.392-3.48-2.348-8.578-3.294-11.387-2.112-1.744.776-1.676,2-2.351,3a5.188,5.188,0,0,1-1.571,1.5c-.083.049-.4.21-.807.39-.333.15-.725.311-1.089.434Z" fill="#ccc"/>
        </g>
        <g id="Group_110894" data-name="Group 110894">
          <g id="Group_110893" data-name="Group 110893">
            <path id="Path_170317" data-name="Path 170317" d="M1005.24-101.25l-22.338-9.4a10.707,10.707,0,0,0-1.745,1.325c-1.044,1.374.3,3.25-1.448,4.432-2.157,1.455-7.463,1.137-11.851-.71-.124-.052-.245-.1-.365-.158-4.123-1.838-5.774-4.406-3.68-5.82,1.34-.9,3.651-.846,5.53-1.193a12.309,12.309,0,0,0,2.76-.805,9.636,9.636,0,0,0,1.506-.981l-22.363-9.412L933.8-112.2c-.361-.121-.749-.282-1.079-.43-.394-.174-.7-.332-.786-.382a5.094,5.094,0,0,1-1.547-1.476c-.664-.987-.6-2.19-2.229-2.917-2.847-1.2-7.862-.269-11.287,2.041-3.386,2.285-3.946,5.064-1.286,6.25,2.337.985,5.851.29,8.448.862a20.626,20.626,0,0,1,2.293.84c.078.035.153.069.224.1L909.126-95.548l53.994,22.72Z" fill="#ccc"/>
          </g>
        </g>
      </g>
      <g id="Group_111007" data-name="Group 111007">
        <g id="Group_110925" data-name="Group 110925">
          <path id="Path_170318" data-name="Path 170318" d="M878.224-194.179c0,7.578-13.807,13.721-30.84,13.721s-30.84-6.143-30.84-13.721,13.808-13.722,30.84-13.722S878.224-201.758,878.224-194.179Z" fill="#ccc"/>
          <g id="Group_110924" data-name="Group 110924">
            <g id="Group_110898" data-name="Group 110898">
              <path id="Path_170319" data-name="Path 170319" d="M855.686-195.1l.506-.094.506-4.247-1.329-1.573Z" fill="#204470"/>
              <g id="Group_110897" data-name="Group 110897">
                <path id="Path_170320" data-name="Path 170320" d="M855.077-195.443l.609.345-.1-6.951-1.073-.244Z" fill="#12263f"/>
                <g id="Group_110896" data-name="Group 110896">
                  <path id="Path_170321" data-name="Path 170321" d="M859.751-204.193l1.128,3.727a25.078,25.078,0,0,0,2.8,5.007s2.286,3.134-1.991,2.925c0,0-4.561-.243-4.492-3.169.059-2.517-2.253-5.641-2.253-5.641a2.544,2.544,0,0,1,.3-3l.791-.9,3.836-.671Z" fill="#e79677"/>
                  <path id="Path_170322" data-name="Path 170322" d="M863.929-194.3a5.748,5.748,0,0,1-4.968-1.5c-1.186-1.168-2.539-5.443-2.09-4.023.186.587-1.209-4.609-.837-5.421l-.791.9a2.656,2.656,0,0,0-.377,3.084s2.391,3.044,2.332,5.561c-.069,2.926,4.492,3.169,4.492,3.169,2.567.125,2.769-.954,2.521-1.836A2.648,2.648,0,0,1,863.929-194.3Z" fill="#12263f"/>
                  <path id="Path_170323" data-name="Path 170323" d="M866.079-193.052s.644,1.216-1.4,1.216c0,0-7.653-.486-7.65-3.774l0-2.649s.6,3.781,5.328,3.79c0,0,2.1,0,1.015-1.338Z" fill="#12263f"/>
                </g>
              </g>
            </g>
            <g id="Group_110923" data-name="Group 110923">
              <path id="Path_170324" data-name="Path 170324" d="M853.758-370.253a5.093,5.093,0,0,1-5.093,5.093,5.093,5.093,0,0,1-5.093-5.093,5.093,5.093,0,0,1,5.093-5.094A5.093,5.093,0,0,1,853.758-370.253Z" fill="#204470"/>
              <path id="Path_170325" data-name="Path 170325" d="M852.317-346.777h10.031c-.455-1.461-1.4-5.241.062-7.815l-10.136-6.656S854.076-350.079,852.317-346.777Z" fill="#f4a886"/>
              <path id="Path_170326" data-name="Path 170326" d="M853.441-353.08A4.407,4.407,0,0,0,856.6-350.3a10.583,10.583,0,0,0,5.095.377,7.932,7.932,0,0,1,.716-4.674l-10.136-6.656s.549,3.407.745,7.013C853.157-353.85,853.29-353.464,853.441-353.08Z" fill="#e18a72"/>
              <path id="Path_170327" data-name="Path 170327" d="M864.339-352.268l.532-1.51,1.3-4.439a4.472,4.472,0,0,0,.022-2.355,7.14,7.14,0,0,1-.206-3.685c.826-4.04-.967-6.148-.967-6.148-2.357-3.714-7.921-3.7-7.921-3.7-6.88.357-7.441,7.018-7.441,7.018-1.105,4.432,2.429,8.111,2.435,8.118a4.914,4.914,0,0,1,.711,1.8,5.559,5.559,0,0,0,1.009,1.684,12.4,12.4,0,0,0,3.527,2.831,13.618,13.618,0,0,0,5.3,1.25C863.345-351.411,864.034-351.4,864.339-352.268Z" fill="#f4a886"/>
              <g id="Group_110901" data-name="Group 110901">
                <path id="Path_170328" data-name="Path 170328" d="M832.229-194.3l.51.073,1.841-3.86L833.827-200Z" fill="#204470"/>
                <g id="Group_110900" data-name="Group 110900">
                  <path id="Path_170329" data-name="Path 170329" d="M831.763-194.823l.466.523,2.14-6.616-.938-.575Z" fill="#12263f"/>
                  <g id="Group_110899" data-name="Group 110899">
                    <path id="Path_170330" data-name="Path 170330" d="M839-201.61c-.1,3.106-.332,6.593.921,9.533,0,0,1.159,3.7-2.825,2.132,0,0-4.242-1.694-3.238-4.443.864-2.365-.325-6.065-.325-6.065a2.547,2.547,0,0,1,1.246-2.75l1.04-.6H839.8Z" fill="#f4a886"/>
                    <path id="Path_170331" data-name="Path 170331" d="M839.782-190.9a5.745,5.745,0,0,1-4.223-3.017c-.749-1.488-.659-5.971-.69-4.482-.012.616.334-4.755.947-5.4l-1.04.6a2.656,2.656,0,0,0-1.345,2.8s1.288,3.65.424,6.015c-1,2.749,3.238,4.443,3.238,4.443,2.392.942,2.929-.015,2.977-.931A2.449,2.449,0,0,1,839.782-190.9Z" fill="#12263f"/>
                    <path id="Path_170332" data-name="Path 170332" d="M841.416-189.028s.22,1.358-1.716.7c0,0-7.093-2.916-6.035-6.029l.847-2.51s-.643,3.773,3.831,5.3c0,0,1.988.673,1.39-.942Z" fill="#12263f"/>
                  </g>
                </g>
              </g>
              <path id="Path_170333" data-name="Path 170333" d="M843.4-248.024c-5.087,9.393-5.987,13.217-6.892,20.359-.528,4.155-.353,21.654-.9,24.264-.228,1.082,3.885.489,3.885.489.752-1.831,12.728-42.037,12.728-42.037s1.34-4.165.228-4.889C846.87-253.476,845.619-252.118,843.4-248.024Z" fill="#f4a886"/>
              <path id="Path_170334" data-name="Path 170334" d="M839.622-202.073c.752-1.831,12.6-42.876,12.6-42.876s1.34-4.165.228-4.889c-5.584-3.638-6.835-2.28-9.052,1.814-5.087,9.393-5.987,13.217-6.892,20.359-.528,4.155-1.385,21.05-1.93,23.661C834.58-204,837.623-200.378,839.622-202.073Z" fill="#204470"/>
              <path id="Path_170335" data-name="Path 170335" d="M866.237-315.955s3.91,16.546,3.385,18.354c-1.512,5.206-15.538,12.512-28.327,1.858a94.708,94.708,0,0,1,8.995-22.59S852.521-316.029,866.237-315.955Z" fill="#272c34"/>
              <path id="Path_170336" data-name="Path 170336" d="M864.244-349.577s5.117,9.892,7.4,15.318c-.957,6.361-4.413,15.8-5.8,17.788-3.043,4.36-16.96.467-16.96.467L844.87-329.4c11.71-4.2,5.544-16.543,5.544-16.543l1.835-1.158s1.873,6.064,9.494,5.847c0,0,2.5-1.63.661-8.547A10.67,10.67,0,0,1,864.244-349.577Z" fill="#694896"/>
              <path id="Path_170337" data-name="Path 170337" d="M851.507-293.146s1.347,26.694,6.286,41.05c.735,2.141,9.175-.7,9.175-.7s4.258-22.967,4-32.483c-.145-5.378-2.069-16.975-2.069-16.975S853.075-304.327,851.507-293.146Z" fill="#e79677"/>
              <path id="Path_170338" data-name="Path 170338" d="M858.035-252.192l8.933-.608s-5.489,45.568-5.987,47.484c0,0-3.84,1.389-3.762.286.186-2.661-3.017-23.111-3.115-27.3C853.947-239.053,854.211-243.3,858.035-252.192Z" fill="#e79677"/>
              <path id="Path_170339" data-name="Path 170339" d="M851.507-293.146s1.347,26.694,6.286,41.05c.735,2.141,9.175-.7,9.175-.7s4.258-22.967,4-32.483c-.145-5.378-2.069-16.975-2.069-16.975S853.075-304.327,851.507-293.146Z" fill="#12263f"/>
              <path id="Path_170340" data-name="Path 170340" d="M862.088-205.03c.906-1.76,4.88-47.77,4.88-47.77l-8.933.608c-3.824,8.89-4.088,13.139-3.931,19.864.1,4.187,2.125,24.637,1.939,27.3C856.043-205.03,860.9-202.72,862.088-205.03Z" fill="#12263f"/>
              <g id="Group_110908" data-name="Group 110908">
                <g id="Group_110902" data-name="Group 110902">
                  <path id="Path_170341" data-name="Path 170341" d="M880.4-317.173l-6.772-24.55c-2.438-6.567-6.076-6.727-6.076-6.727-6.973,1.055-2.509,13.29-2.509,13.29l8.607,20.392" fill="#e79677"/>
                </g>
                <g id="Group_110907" data-name="Group 110907">
                  <g id="Group_110903" data-name="Group 110903">
                    <path id="Path_170342" data-name="Path 170342" d="M900.027-298.831c-2.927-2.172-3.13-2.762-3.573-3.646-1.908-3.79,2.961-2.959,4.149-2.5.682.265.477,1.95,2.364,4.321,0,0,3.145,2.507,4.013,2.49,0,0,.864.257.77.893C907.75-297.271,905.123-296.2,900.027-298.831Z" fill="#e79677"/>
                  </g>
                  <g id="Group_110906" data-name="Group 110906">
                    <g id="Group_110904" data-name="Group 110904">
                      <path id="Path_170343" data-name="Path 170343" d="M875.984-320.008" fill="#e79677"/>
                    </g>
                    <g id="Group_110905" data-name="Group 110905">
                      <path id="Path_170344" data-name="Path 170344" d="M879.878-318.6l19.831,15c.547,2.734-.706,2.93-.706,2.93l-15.995-7.278c-6.849-2.964-9.233-6.376-9.233-6.376s-2.8-2.621,1.657-5.251C875.432-319.572,877.457-320.736,879.878-318.6Z" fill="#e79677"/>
                    </g>
                  </g>
                  <path id="Path_170345" data-name="Path 170345" d="M900.04-305.146s-.868,1.679,1.4,1.571l2.4-1.323a.857.857,0,0,0,.58-.934s-.2-.4-.946-.143Z" fill="#e79677"/>
                </g>
              </g>
              <path id="Path_170346" data-name="Path 170346" d="M840.584-290.913s.1,26.7,3.626,41.471c.524,2.2,8.569,1.527,8.569,1.527s5.25-25.254,5.919-34.749c.379-5.367,1.452-14.759,1.452-14.759S841.315-299.29,840.584-290.913Z" fill="#f4a886"/>
              <path id="Path_170347" data-name="Path 170347" d="M844.48-342.729a6.175,6.175,0,0,0-2.006,7.514l7.752,18.828s12.573,4.276,15.616-.084c1.39-1.991,2.676-7.27,4.363-14.882,1.147-5.173,1.225-14.211-1.687-16.887-1.679-1.544-7.115-1.512-7.155-1.7l-8.807,2.838Z" fill="#f4a886"/>
              <path id="Path_170348" data-name="Path 170348" d="M861.078-317.924c.745-.135,4.764,1.453,4.764,1.453s2.9,12.338,3.06,14.213-12.738,11.586-27.15,6.058c0,0,7.278-17.167,8.341-20.756C851.315-321.077,861.078-317.924,861.078-317.924Z" fill="#f4a886"/>
              <path id="Path_170349" data-name="Path 170349" d="M868.077-341.946s4.255,5.009,4.612,8.731c.2,2.072-2.418,5.541-3.727,6.819C868.034-325.49,862.54-338.488,868.077-341.946Z" fill="#e86038"/>
              <path id="Path_170350" data-name="Path 170350" d="M845.283-300.29s-5.082,1.129-4.624,10.444c.447,9.1,17.01,10.989,19.137,1.823C862.084-297.888,854.327-303.671,845.283-300.29Z" fill="#204470"/>
              <path id="Path_170351" data-name="Path 170351" d="M852.863-356.4c-.036-3.142.044-2.948.044-2.948.073-.919,1.874,1.06,1.837-.136-.171-5.472,1.818-8.078,2.6-8.5a9.625,9.625,0,0,1,6.106-1.158c2.768.492,2.662,4.177,2.662,4.177,2.358-13.49-12.686-9.179-12.686-9.179a8.337,8.337,0,0,0-6.572,8.828c-.9,7.415,6.127,11.7,6.127,11.7Z" fill="#204470"/>
              <g id="Group_110917" data-name="Group 110917">
                <g id="Group_110913" data-name="Group 110913">
                  <g id="Group_110912" data-name="Group 110912">
                    <g id="Group_110911" data-name="Group 110911">
                      <g id="Group_110910" data-name="Group 110910">
                        <g id="Group_110909" data-name="Group 110909">
                          <path id="Path_170352" data-name="Path 170352" d="M853.344-357.466a1.473,1.473,0,0,1-.955.291,2.168,2.168,0,0,1-1.975-2.225,1.99,1.99,0,0,1,1.881-2.166,1.87,1.87,0,0,1,1.32.6,2.7,2.7,0,0,1,.407,2.2A2.039,2.039,0,0,1,853.344-357.466Z" fill="#f4a37f"/>
                        </g>
                      </g>
                    </g>
                  </g>
                </g>
                <g id="Group_110916" data-name="Group 110916">
                  <g id="Group_110914" data-name="Group 110914">
                    <path id="Path_170353" data-name="Path 170353" d="M852.725-360.438c-.062-.636-1.35-.029-1.155.331a1.971,1.971,0,0,0,.516.5.935.935,0,0,1,.4.7c0,.036.011.146-.026.172-.167.115-.713-.506-.832-.637a1.064,1.064,0,0,1-.155-1.018.636.636,0,0,1,.706-.476c.289.016.584.037.567.4,0,.007-.013.067-.017.034Z" fill="#e98e72"/>
                  </g>
                  <g id="Group_110915" data-name="Group 110915">
                    <path id="Path_170354" data-name="Path 170354" d="M852.313-359.777c.135-.134.263-.022.4.076a.612.612,0,0,1,.23.375,1.5,1.5,0,0,1-.16,1.063.8.8,0,0,1-.691.367c-.388-.011-.5-.354-.518-.682,0-.087-.011-.294.074-.349s.159.085.221.147a.548.548,0,0,0,.329.124.7.7,0,0,0,.576-.258.322.322,0,0,0,.059-.1c0,.214-.012.261-.034.144a.593.593,0,0,0-.073-.152c-.09-.148-.242-.25-.342-.391-.048-.066-.138-.3-.071-.365Z" fill="#e98e72"/>
                  </g>
                </g>
              </g>
              <g id="Group_110919" data-name="Group 110919">
                <path id="Path_170355" data-name="Path 170355" d="M859.446-362.152c.038.381-.143.711-.4.736s-.5-.263-.535-.645.143-.71.4-.735S859.409-362.533,859.446-362.152Z" fill="#422918"/>
                <path id="Path_170356" data-name="Path 170356" d="M864.739-362.865c.014.383-.185.7-.445.709s-.481-.292-.495-.674.184-.7.444-.71S864.725-363.248,864.739-362.865Z" fill="#422918"/>
                <path id="Path_170357" data-name="Path 170357" d="M857.166-362.665c.995-1.046,3.334-.962,3.334-.962s.156-.009.114-.485c0,0-.011-.422-.349-.381C860.265-364.493,857.289-364.69,857.166-362.665Z" fill="#30376c"/>
                <path id="Path_170358" data-name="Path 170358" d="M866.082-364.665c-1.038-.841-2.949-.185-2.949-.185-.336.049-.237.459-.237.459.084.471.238.437.238.437a6.456,6.456,0,0,1,2.815-.2C865.995-364.323,866.042-364.493,866.082-364.665Z" fill="#30376c"/>
                <g id="Group_110918" data-name="Group 110918">
                  <path id="Path_170359" data-name="Path 170359" d="M864.069-357.319l-3.768.7c-.2.037-.277.154-.17.26a2.965,2.965,0,0,0,2.3.855,2.942,2.942,0,0,0,1.833-1.63C864.322-357.259,864.23-357.33,864.069-357.319Z" fill="#fff"/>
                </g>
                <path id="Path_170360" data-name="Path 170360" d="M861.363-358.505c1.974-.143,2.083-.661,2.083-.661l-1.036-2.082S862.648-359.166,861.363-358.505Z" fill="#e98e72"/>
              </g>
              <path id="Path_170361" data-name="Path 170361" d="M840.584-290.913s.1,26.7,3.626,41.471c.524,2.2,8.569,1.527,8.569,1.527s5.25-25.254,5.919-34.749c.379-5.367,1.452-14.759,1.452-14.759S841.315-299.29,840.584-290.913Z" fill="#204470"/>
              <path id="Path_170362" data-name="Path 170362" d="M866.237-315.955s3.91,16.546,3.385,18.354c-1.512,5.206-15.538,12.512-28.327,1.858a94.708,94.708,0,0,1,8.995-22.59S852.521-316.029,866.237-315.955Z" fill="#204470"/>
              <path id="Path_170363" data-name="Path 170363" d="M848.882-316s14.311,4.41,17.355.049c1.39-1.99,4.451-11.943,5.408-18.3-2.284-5.426-7.4-15.318-7.4-15.318a10.67,10.67,0,0,0-1.84-.221c1.843,6.917-.661,8.547-.661,8.547-7.621.217-9.494-5.847-9.494-5.847l-1.835,1.158s5.677,11.792-5.281,17.185C845.133-328.755,844.87-316.1,848.882-316Z" fill="#e86038"/>
              <path id="Path_170364" data-name="Path 170364" d="M853.4-357.244a.653.653,0,0,1-.652.652.652.652,0,0,1-.652-.652.651.651,0,0,1,.652-.652A.652.652,0,0,1,853.4-357.244Z" fill="#fff"/>
              <g id="Group_110922" data-name="Group 110922">
                <path id="Path_170365" data-name="Path 170365" d="M850.627-341.01a5.883,5.883,0,0,1-.255,8.317c-2.367,2.227-9.806,6.473-9.875,3.223-.137-6.386.113-9.855,2.48-12.081S848.4-343.377,850.627-341.01Z" fill="#f4a886"/>
                <path id="Path_170366" data-name="Path 170366" d="M850.893-335.61l-5.142-2.965-5.167,3.234s-3.024,19.269-1.91,23.679c1.187,4.7,3.345,1.237,4.367-.048C843.041-311.71,851.474-331.866,850.893-335.61Z" fill="#f4a886"/>
                <path id="Path_170367" data-name="Path 170367" d="M839.455-309.781s9.246,6.6,17.452,10.194c0,0,2.711-1.139,1.355-2.392-2.3-2.128-12.367-11.766-14.69-13.9C839.455-317.284,839.455-309.781,839.455-309.781Z" fill="#f4a886"/>
                <g id="Group_110921" data-name="Group 110921">
                  <g id="Group_110920" data-name="Group 110920">
                    <path id="Path_170368" data-name="Path 170368" d="M861.585-295.9c-3.345-1.446-3.678-1.975-4.311-2.732-2.725-3.254,2.205-3.559,3.468-3.382.724.1.91,1.79,3.289,3.667,0,0,3.634,1.721,4.476,1.506,0,0,.9.051.953.693C869.46-296.149,867.148-294.506,861.585-295.9Z" fill="#f4a886"/>
                  </g>
                  <path id="Path_170369" data-name="Path 170369" d="M860.585-302.055s-1.433,1.232.709,1.982l2.719-.327s.767.03.887-.65c0,0-.037-.45-.823-.486Z" fill="#f4a886"/>
                </g>
              </g>
            </g>
          </g>
        </g>
        <g id="Group_110927" data-name="Group 110927" style="isolation: isolate">
          <path id="Path_170370" data-name="Path 170370" d="M918.518-278.082c-.039-.01-.08-.018-.12-.027-.062-.013-.123-.028-.186-.04-.045-.009-.09-.016-.135-.023l-.131-.023-.092,10.523-17.427,11.759.11-12.559,14.437-9.739c-.212.024-.425.054-.641.09-.046.006-.093.015-.14.023l-.246.045-.166.033c-.08.016-.159.033-.239.051l-.151.033c-.126.029-.252.059-.379.091l-.1.025c-.156.04-.311.084-.467.129l-.082.025c-.216.063-.43.132-.644.2l-.022.009q-.322.111-.641.234a.425.425,0,0,1-.045.018c-.241.1-.479.2-.714.3l-.033.015c-.237.107-.472.221-.7.34l-.023.011q-.35.182-.687.38l-.012.008c-.228.133-.45.274-.666.42-1.923,1.3-2.935,2.756-2.946,4q.055-6.279.11-12.557c.011-1.242,1.023-2.7,2.947-4,.215-.146.438-.286.666-.421l.012-.006c.224-.133.453-.259.686-.381l.024-.011c.23-.119.464-.232.7-.34l.036-.015c.234-.106.47-.2.71-.3l.014-.005c.013-.006.026-.01.04-.015q.312-.121.629-.231l.03-.011c.211-.072.423-.138.635-.2l.056-.018.036-.01c.155-.044.309-.087.463-.127l.1-.027c.125-.031.249-.061.373-.089.025,0,.05-.012.075-.018l.084-.017.228-.049.176-.034.232-.043c.041-.006.082-.014.123-.022l.031,0c.214-.036.426-.065.638-.091l.055-.007.041,0c.185-.021.368-.038.55-.05l.046,0c.021,0,.041,0,.061,0,.171-.011.342-.019.51-.022h.014c.158,0,.314,0,.469,0h.063l.053,0c.156.005.309.013.46.024h.013l.035,0c.157.013.309.031.46.051a.458.458,0,0,1,.052.007l.035.005c.06.009.119.02.178.03s.1.016.145.026.115.023.172.037c.039.009.079.015.118.025l.015,0c.135.033.266.07.393.11l.089.029c.129.043.255.088.375.139.1.043.187.088.273.133l.074.042c.03.018.063.034.092.051s.048.033.073.048.061.039.091.059c.047.033.092.065.136.1.026.02.052.039.076.059l.026.02c.052.043.1.088.147.132l.019.018q.055.054.1.108v0h0v0c.01.012.019.024.03.035s.032.037.047.056c.033.039.064.078.094.118l.042.056.021.028c.014.021.026.042.04.062.026.039.051.078.076.118s.034.058.05.087.045.08.066.121l.019.035.02.042c.035.07.068.14.1.212l.016.034c.042.1.084.193.125.289.027.063.054.125.082.188l.037.084c.038.083.076.166.117.247.021.041.043.081.066.121.012.023.023.045.036.067.036.063.074.125.116.186.026.039.055.078.083.117s.08.109.123.164c.018.023.037.048.056.071.058.073.12.144.185.215l.011.014c.068.073.14.146.214.218l.067.061c.055.051.111.1.17.151l.085.072c.059.048.12.1.183.142l.083.061c.092.065.185.128.284.189l.017.011.03.016.019.009.042.024.03.015.05.025.035.018.059.029.048.023.061.03.075.036.045.021c.028.014.058.027.088.04l.047.023.142.063c.33.147.718.308,1.08.43l17.443-11.772-.11,12.557L925.1-272.563c-.362-.122-.751-.282-1.081-.429l-.143-.064-.024-.011-.109-.052a.378.378,0,0,1-.041-.019l-.08-.038-.049-.023-.061-.03c-.013-.006-.025-.013-.038-.018l-.057-.029-.029-.015-.05-.025-.023-.013c-.014-.007-.028-.014-.039-.021l-.015-.009-.024-.013-.005,0c-.1-.061-.192-.124-.283-.189-.03-.021-.058-.042-.087-.064-.061-.045-.121-.091-.179-.139-.015-.012-.031-.023-.046-.036l-.042-.037c-.057-.049-.112-.1-.166-.147-.023-.022-.047-.043-.07-.066-.074-.071-.145-.144-.212-.216l0,0-.013-.016c-.065-.069-.125-.14-.182-.211-.019-.023-.037-.048-.056-.071-.043-.055-.085-.111-.125-.166-.009-.014-.021-.027-.03-.04l-.052-.076c-.041-.061-.079-.122-.115-.185-.017-.029-.032-.057-.047-.086s-.036-.064-.052-.1l0-.005c-.043-.083-.082-.167-.12-.251l-.03-.07c-.033-.075-.066-.149-.1-.224s-.074-.173-.113-.259l-.021-.048q-.047-.1-.1-.2c-.014-.027-.027-.055-.041-.081s-.042-.078-.065-.117-.033-.061-.051-.09-.05-.078-.076-.118-.039-.06-.06-.089l-.043-.057c-.029-.039-.06-.078-.092-.116l-.05-.058c-.042-.048-.087-.095-.134-.142a.172.172,0,0,1-.019-.019c-.054-.051-.112-.1-.173-.152l-.076-.057c-.043-.034-.089-.066-.137-.1l-.091-.06c-.052-.033-.107-.066-.163-.1l-.076-.042c-.086-.045-.175-.091-.272-.133-.12-.051-.246-.1-.375-.139l-.089-.029C918.785-278.013,918.654-278.05,918.518-278.082Z" fill="#209299"/>
          <path id="Path_170371" data-name="Path 170371" d="M846.434-278.632l.11-12.558,22.364,9.41-.091,10.451.021,0,.145.017c.179.02.356.038.532.052l.053,0c.129.01.256.019.384.026l.144.008.286.012.106,0c.224.006.447.008.663,0l.087,0c.181,0,.359-.011.534-.022l.041,0c.163-.011.322-.027.479-.043l.117-.014c.134-.015.265-.034.394-.054l.046-.007c.139-.024.274-.05.406-.079l.1-.023c.124-.029.244-.06.361-.094l.051-.013.073-.023.189-.062.1-.034.156-.06.086-.036c.051-.022.1-.045.148-.067l.081-.039.146-.077.067-.037c.067-.039.133-.079.2-.122a2.246,2.246,0,0,0,.987-2.047l.006-.611a2.791,2.791,0,0,1,.457-1.773,10.63,10.63,0,0,1,1.746-1.326l22.336,9.4-.11,12.559-22.337-9.4a10.556,10.556,0,0,0-1.745,1.325,2.584,2.584,0,0,0-.454,1.584c0,.2,0,.406-.006.61a2.36,2.36,0,0,1-.99,2.239c-.062.042-.128.082-.2.121l-.069.037c-.046.025-.094.051-.143.076l-.083.04c-.048.022-.1.045-.147.066l-.086.037-.048.02-.11.04-.093.034c-.061.021-.123.041-.187.061-.026.007-.051.016-.078.024l-.012,0-.033.007c-.119.035-.242.066-.368.1l-.052.014-.044.007c-.134.029-.27.056-.41.08l-.007,0-.031,0c-.131.022-.266.04-.4.056l-.058.008-.054.006c-.158.016-.317.031-.481.042h-.044c-.175.011-.353.019-.535.024l-.055,0h-.027c-.216,0-.438,0-.663,0-.018,0-.035,0-.053,0l-.055,0q-.142,0-.285-.012c-.048,0-.1,0-.144-.007-.136-.008-.273-.016-.411-.029h-.024c-.177-.014-.356-.033-.536-.052l-.141-.017c-.158-.019-.317-.039-.477-.063l-.059-.007-.02,0c-.148-.022-.3-.046-.446-.07l-.076-.015-.376-.066-.167-.035-.287-.058c-.063-.013-.125-.028-.188-.042-.089-.019-.179-.04-.269-.062l-.071-.015-.061-.016q-.363-.088-.726-.19l-.1-.026c-.247-.071-.492-.144-.736-.223l-.075-.025c-.25-.083-.5-.169-.748-.26l-.044-.017c-.257-.1-.514-.2-.765-.3-.124-.051-.245-.1-.365-.157q-.254-.114-.494-.231l-.164-.081c-.1-.052-.207-.1-.308-.157-.061-.031-.119-.063-.177-.1-.093-.051-.184-.1-.273-.152-.057-.032-.113-.064-.168-.1-.033-.02-.069-.039-.1-.059-.057-.033-.11-.068-.164-.1s-.1-.06-.144-.09c-.1-.063-.194-.127-.289-.191l-.092-.063q-.181-.128-.349-.255l-.084-.067c-.066-.052-.133-.1-.2-.156l-.034-.031c-.082-.069-.159-.138-.235-.207-.033-.031-.069-.061-.1-.093-.106-.1-.206-.2-.3-.3h0c-.081-.088-.156-.176-.226-.263-.022-.029-.042-.057-.064-.085-.037-.048-.076-.1-.11-.145l-.025-.039c-.017-.025-.032-.049-.048-.074-.041-.061-.078-.122-.112-.184-.015-.026-.03-.051-.043-.077l-.025-.043c-.033-.065-.062-.128-.09-.193,0-.01-.007-.021-.012-.032-.018-.045-.036-.09-.051-.135-.01-.029-.018-.056-.025-.084s-.01-.029-.014-.044a1.9,1.9,0,0,1-.043-.192c0-.013,0-.025-.006-.039l-.005-.04a1.575,1.575,0,0,1-.016-.215v-.022q.039-4.47.079-8.939Z" fill="#28b5bd"/>
          <g id="Group_110926" data-name="Group 110926">
            <path id="Path_170372" data-name="Path 170372" d="M942.656-296.892l-53.992-22.72-42.12,28.422,22.364,9.41a9.638,9.638,0,0,1-1.507.983,12.384,12.384,0,0,1-2.759.8c-1.881.347-4.19.29-5.53,1.194-2.095,1.414-.446,3.981,3.677,5.819.119.054.242.106.365.159,4.389,1.846,9.7,2.165,11.851.709,1.751-1.181.4-3.057,1.45-4.431a10.63,10.63,0,0,1,1.746-1.326l22.336,9.4,17.427-11.758c-.071-.033-.146-.068-.224-.1a20.626,20.626,0,0,0-2.293-.84c-2.6-.571-6.114.121-8.359-.824-2.752-1.224-2.19-4,1.2-6.288,3.423-2.31,8.439-3.241,11.2-2.078,1.715.764,1.648,1.966,2.314,2.954a5.078,5.078,0,0,0,1.544,1.475c.082.051.393.207.788.383.33.147.718.308,1.08.43Z" fill="#98f2f9"/>
          </g>
        </g>
        <g id="Group_110929" data-name="Group 110929" style="isolation: isolate">
          <g id="Group_110928" data-name="Group 110928">
            <path id="Path_170373" data-name="Path 170373" d="M893.259-245.768c0,.031,0,.061,0,.093s0,.066,0,.1-.006.053-.009.081-.007.064-.012.1-.011.062-.017.093l-.015.07c-.007.032-.016.064-.025.094s-.013.044-.02.066l-.015.038a1.973,1.973,0,0,1-.107.256l0,.006a2.053,2.053,0,0,1-.141.232c-.008.013-.016.026-.025.038a2.17,2.17,0,0,1-.173.215c-.017.02-.035.039-.053.058s-.04.042-.061.061-.048.046-.073.068l-.067.06-.065.053-.123.094-.067.046c-.045.032-.093.063-.142.092l-.063.04c-.042.026-.086.048-.13.071-.024.015-.047.028-.073.042-.07.034-.143.07-.218.1a5.832,5.832,0,0,1-.9.29q-.377.092-.777.148c-.253.037-.513.065-.776.087-.368.029-.744.047-1.124.057-.833.024-1.688.015-2.517.039-.375.011-.744.028-1.1.057l.111,12.764c.361-.029.73-.047,1.1-.057.83-.023,1.684-.015,2.517-.039.38-.01.756-.028,1.124-.058q.4-.031.777-.086.4-.059.776-.148a5.847,5.847,0,0,0,.9-.291c.075-.034.148-.068.218-.1.021-.01.04-.022.06-.032q.074-.039.144-.081l.015-.008.041-.026c.051-.031.1-.063.148-.1l.066-.047c.042-.031.083-.062.122-.094l.038-.029.028-.024c.023-.02.046-.039.067-.06s.05-.044.073-.067l.061-.062c.012-.014.026-.027.038-.039l.015-.019a2.347,2.347,0,0,0,.174-.215l.011-.013c.005-.008.008-.016.014-.024a2.171,2.171,0,0,0,.141-.234h0l0,0a2.076,2.076,0,0,0,.108-.258.194.194,0,0,0,.009-.021l0-.014c.008-.026.016-.051.022-.076l.024-.085.015-.076c.005-.02.01-.042.014-.063l0-.023c.005-.034.01-.069.013-.1s.006-.049.008-.073,0-.077.005-.114c0-.019,0-.037,0-.055v-.026Z" fill="#e86038"/>
            <path id="Path_170374" data-name="Path 170374" d="M882.968-242.628l-.014,0a21.053,21.053,0,0,0-2.316.851c-.079.034-.156.07-.228.106l.112,12.763c.072-.036.148-.07.228-.106a21.949,21.949,0,0,1,2.316-.851l.013,0c.2-.044.408-.081.618-.112q.376-.054.77-.085l-.111-12.764c-.263.021-.52.049-.771.086C883.374-242.709,883.168-242.671,882.968-242.628Z" fill="#e86038"/>
          </g>
          <path id="Path_170375" data-name="Path 170375" d="M898.232-216.953l-.112-12.764-22.73,9.565.093,10.621c-2.639.316-5.01.068-6.291-.795a2.283,2.283,0,0,1-1-2.076c0-.21,0-.421-.006-.632a2.839,2.839,0,0,0-.464-1.8,11.034,11.034,0,0,0-1.773-1.348l-22.705,9.553.112,12.765,22.705-9.554a10.924,10.924,0,0,1,1.773,1.348,2.617,2.617,0,0,1,.46,1.6q0,.316.006.633a2.393,2.393,0,0,0,1.007,2.271c2.192,1.48,7.584,1.156,12.045-.722.126-.052.249-.106.371-.16,2.967-1.322,4.675-3.018,4.663-4.4q-.04-4.542-.08-9.084Z" fill="#e86038"/>
          <path id="Path_170376" data-name="Path 170376" d="M891.555-243.5l.113,12.763c-2.375,1-5.948.3-8.589.876a21.2,21.2,0,0,0-2.329.854c-.08.036-.156.07-.228.106l-.112-12.763c.072-.036.149-.072.228-.106a21.044,21.044,0,0,1,2.33-.855C885.607-243.208,889.181-242.5,891.555-243.5Z" fill="#b34b2b"/>
          <path id="Path_170377" data-name="Path 170377" d="M843.242-206.626l-42.811-28.887.112,12.763,42.812,28.888Z" fill="#b34b2b"/>
          <path id="Path_170378" data-name="Path 170378" d="M885.348-217.124c-1.361-.92-3.71-.861-5.62-1.213a12.485,12.485,0,0,1-2.807-.818,9.759,9.759,0,0,1-1.531-1l22.73-9.565-17.71-11.95c.072-.036.149-.072.228-.106a21.044,21.044,0,0,1,2.33-.855c2.639-.58,6.213.124,8.587-.875,2.7-1.206,2.135-4.031-1.309-6.353-3.479-2.348-8.577-3.294-11.471-2.075-1.657.74-1.591,1.963-2.266,2.964a5.164,5.164,0,0,1-1.571,1.5c-.083.05-.4.211-.806.392-.334.149-.726.31-1.091.434l-17.732-11.966-54.878,23.092,42.811,28.887,22.705-9.553a11.034,11.034,0,0,1,1.773,1.348c1.062,1.4-.307,3.3,1.472,4.5,2.193,1.478,7.585,1.154,12.046-.722.126-.052.249-.107.37-.16C885.8-213.077,887.478-215.686,885.348-217.124Z" fill="#ff8d6b"/>
        </g>
        <g id="Group_110951" data-name="Group 110951">
          <path id="Path_170379" data-name="Path 170379" d="M999.039-168.2c0,7.579,13.808,13.721,30.841,13.721s30.839-6.142,30.839-13.721-13.808-13.722-30.839-13.722S999.039-175.776,999.039-168.2Z" fill="#ccc"/>
          <g id="Group_110950" data-name="Group 110950">
            <g id="Group_110931" data-name="Group 110931">
              <g id="Group_110930" data-name="Group 110930">
                <path id="Path_170380" data-name="Path 170380" d="M1019.49-171.274a16.773,16.773,0,0,1-5.769,3.365,4.926,4.926,0,0,1-4.809-1.245.921.921,0,0,1,.141-1.409c6.383-4.853,8.294-6.229,8.294-6.229h5.86a13.361,13.361,0,0,1,.128,3.307,5.081,5.081,0,0,1-3.216,1.949c-.12.02-.345-.158-.459-.111Z" fill="#12263f"/>
              </g>
              <path id="Path_170381" data-name="Path 170381" d="M1009.025-170.542a1.6,1.6,0,0,0,.123.4,3.209,3.209,0,0,0,2.966,1.485,8.584,8.584,0,0,0,3.649-1.238,16.228,16.228,0,0,0,3.022-2.051,9.12,9.12,0,0,1,2.285-1.142,11.706,11.706,0,0,0,2.3-1.553c0,.631-.04,1.156-.04,1.156a5.081,5.081,0,0,1-3.216,1.949c-.12.02-.345-.158-.459-.111l-.17.373a16.773,16.773,0,0,1-5.769,3.365,4.926,4.926,0,0,1-4.809-1.245A.917.917,0,0,1,1009.025-170.542Z" fill="#12263f"/>
            </g>
            <g id="Group_110932" data-name="Group 110932">
              <path id="Path_170382" data-name="Path 170382" d="M1023.853-224.318c-6.517,7.2-9.1-.415-9.1-.415l-.807-44.226c-.085.659-.3-4.46,7.926-3.352,8.2,1.105,10.281,4.3,10.281,4.3s-4.513,30.547-8.3,43.689" fill="#e79677"/>
              <path id="Path_170383" data-name="Path 170383" d="M1014.712-225.293s3.307,46.576,3.577,48.21c0,0,4.019.889,4.037-.037.046-2.231,4.635-29.487,4.694-32.992.15-8.876-2.138-10.553-4.421-16.532C1022.6-226.644,1014.7-232.488,1014.712-225.293Z" fill="#e79677"/>
            </g>
            <g id="Group_110934" data-name="Group 110934">
              <g id="Group_110933" data-name="Group 110933">
                <path id="Path_170384" data-name="Path 170384" d="M1025.816-222.643c3.786-13.143,6.337-45.364,6.337-45.364s-2.077-3.2-10.281-4.3c-8.227-1.108-8.011,4.011-7.926,3.352,0,0-2.492,23.982-.21,45.778C1013.736-223.181,1020.764-219.448,1025.816-222.643Z" fill="#204470"/>
              </g>
            </g>
            <path id="Path_170385" data-name="Path 170385" d="M1038.251-292.681c1.163,4.138,5.961,19.93,5.961,19.93-17.177,20.549-30.117,2.568-30.287.694-.206-2.243,2.3-10.81,2.753-20.049C1016.678-292.106,1021.361-299.316,1038.251-292.681Z" fill="#f4a886"/>
            <path id="Path_170386" data-name="Path 170386" d="M1014.024-266.913c-.814-5.535.873-11.117,1.742-16.71h25.161c1.61,5.363,3.285,10.872,3.285,10.872s1.075,12.688-9.7,14.207C1034.513-258.544,1015.735-255.288,1014.024-266.913Z" fill="#183f70"/>
            <g id="Group_110935" data-name="Group 110935">
              <path id="Path_170387" data-name="Path 170387" d="M1042.646-223.349c-5.379,8.081-9.061.937-9.061.937l-8.726-43.084c.014.664.262-5.612,8.563-5.734,8.277-.123,10.805,2.732,10.805,2.732s.216,31.59-1.581,45.149" fill="#f4a886"/>
              <path id="Path_170388" data-name="Path 170388" d="M1033.461-222.96s8.641,49.08,9.15,50.656c0,0,4.106.284,3.987-.634-.286-2.214.455-33.162-.006-36.638-1.167-8.8-2.387-10.313-5.53-15.889C1041.062-225.465,1032.38-230.073,1033.461-222.96Z" fill="#f4a886"/>
            </g>
            <g id="Group_110936" data-name="Group 110936">
              <path id="Path_170389" data-name="Path 170389" d="M1042.218-173.252l-2.431,7.412s.5,6.635,5.823,2.523l1.586-1.536a1.7,1.7,0,0,0,.572-1.629l-.473-2.84-.564-3.93S1043.4-175.515,1042.218-173.252Z" fill="#12263f"/>
              <path id="Path_170390" data-name="Path 170390" d="M1045.61-164.264l1.586-1.535a1.655,1.655,0,0,0,.544-.849l.028.166a1.7,1.7,0,0,1-.572,1.629l-1.586,1.536c-5.321,4.112-5.823-2.523-5.823-2.523l.095-.289C1040.181-164.563,1041.353-160.974,1045.61-164.264Z" fill="#12263f"/>
            </g>
            <g id="Group_110938" data-name="Group 110938">
              <g id="Group_110937" data-name="Group 110937">
                <path id="Path_170391" data-name="Path 170391" d="M1043.794-223.181" fill="#5085c7"/>
                <path id="Path_170392" data-name="Path 170392" d="M1032.52-221.223c-3.031-8.9-8.751-45.69-8.751-45.69.013.663,1.713-8.787,10.014-8.909,8.278-.123,10.429,3.071,10.429,3.071s2.592,36.011.794,49.57C1045.006-223.181,1039.176-216.447,1032.52-221.223Z" fill="#5085c7"/>
              </g>
            </g>
            <path id="Path_170393" data-name="Path 170393" d="M1017.953-320.984s-14.055,16.529-21.044,22.005c0,0-4.7-1.736-4.552-4.928,0,0,10.29-15.222,16.75-24.227C1009.107-328.134,1017.842-330.649,1017.953-320.984Z" fill="#e79677"/>
            <path id="Path_170394" data-name="Path 170394" d="M994.392-305.288s-15.348,8.934-21.7,11.921c0,0-1.141,1.785.7,1.955,3.077.281,24.462-6.961,24.984-8.642C1000.809-307.892,994.392-305.288,994.392-305.288Z" fill="#e79677"/>
            <path id="Path_170395" data-name="Path 170395" d="M1008.414-322.83a5.728,5.728,0,0,0,7.321,3.389,5.649,5.649,0,0,0,3.322-7.3,5.729,5.729,0,0,0-7.322-3.389A5.649,5.649,0,0,0,1008.414-322.83Z" fill="#e79677"/>
            <path id="Path_170396" data-name="Path 170396" d="M1015.431-330.446a7.506,7.506,0,0,0-8.454,3.16L994.718-309.5a20.245,20.245,0,0,0,8.493,8.752S1025.16-320.964,1015.431-330.446Z" fill="#83d1d6"/>
            <path id="Path_170397" data-name="Path 170397" d="M1042.873-219.245" fill="#f4a886"/>
            <path id="Path_170398" data-name="Path 170398" d="M1029.633-336.417s1.012-1.946,3.244-5.681c0,0,4.75-4.878,2.089-11.009,0,0-1.462-5.126-10.427-4.382C1024.539-357.489,1023.682-343.378,1029.633-336.417Z" fill="#f4a37f"/>
            <path id="Path_170399" data-name="Path 170399" d="M1029.988-344.407s-1.508,14.064,1.709,15.128l-11.47-.683s1.8-4.25-.294-7.384Z" fill="#f4a886"/>
            <path id="Path_170400" data-name="Path 170400" d="M1020.857-332.419c.191-3.213-.213-3.865-.924-4.927l10.055-7.061a68.33,68.33,0,0,0-.317,8.662A10.879,10.879,0,0,1,1020.857-332.419Z" fill="#e18a72"/>
            <path id="Path_170401" data-name="Path 170401" d="M1012.137-330.474c-2.554,1.865-2.848,6.327-1.935,9.115,1.046,3.2,1.461,7.287,2.51,11.917,1.42,6.274,2.383,11.106,3.966,17.336,1.311,5.153,22.017,1,22.017,1l7.421-25.359s1.278-6.621-4.719-8.823a89.836,89.836,0,0,0-10.944-4.978,19.968,19.968,0,0,0-9.757-1.255A48.505,48.505,0,0,0,1012.137-330.474Z" fill="#f4a886"/>
            <path id="Path_170402" data-name="Path 170402" d="M1015.827-356.423c-.592,2.7-1.263,4.108-.518,6.581.671,2.221.515,4.555,1.485,6.708,1.383,3.07,3.184,2.67,4.56-.155,1.409-2.891,2.878-6.8-.3-8.94-2.043-1.376-2.779-3.741-5.224-4.194Z" fill="#12263f"/>
            <path id="Path_170403" data-name="Path 170403" d="M1017.6-335.342l-.477-1.59-1.207-5.88a5.963,5.963,0,0,1,.093-2.444,6.007,6.007,0,0,0,.209-2.509,7.289,7.289,0,0,1,1.571-6.412c2.627-3.734,8.393-3.44,8.393-3.44,7.115.71,7.368,7.642,7.368,7.642.927,4.648-2.918,8.287-2.925,8.3-.307.29-.234,1.808-.343,2.234-.468,1.813-2.278,2.851-3.87,3.548a17.146,17.146,0,0,1-5.776,1.647C1019.906-334.22,1017.871-334.43,1017.6-335.342Z" fill="#f4a37f"/>
            <path id="Path_170404" data-name="Path 170404" d="M1016.059-342.921c.934.844,2.206.459,3.2,1.07a1.68,1.68,0,0,0,1.686.165,2.646,2.646,0,0,1,1.609.054c.593.172,1.671.688,2.247.92a2.125,2.125,0,0,0,2.551-.589,5.044,5.044,0,0,0,1.323-2.1c.618-1.923,2.563-2.039,3.9-.96a11.573,11.573,0,0,1-1.955,2.676c-.307.29-.234,3.063-.343,3.489-.468,1.813-2.278,2.851-3.87,3.548-1.749.766-4.417.872-6.335.952a3.043,3.043,0,0,1-2.477-1.651l-.477-1.59-1.207-5.88c-.021-.1-.029-.217-.043-.327A1.863,1.863,0,0,0,1016.059-342.921Z" fill="#12263f"/>
            <path id="Path_170405" data-name="Path 170405" d="M1015.929-353.915c1.611,0,1.592,1.349,2.826,2.1,2.645,1.609,6.749-.75,8.881,1.858a5.08,5.08,0,0,1,.54.827,12.185,12.185,0,0,1,1.017,3.9c.06.385-.226,1.368.124,1.662.2.17.548.119.916,0,.072.589-.4,1.042-.606,1.583s-.522,1.006-.234,1.554c.743,1.411.173,1.179.24,4.013a12.037,12.037,0,0,1,1.949-1.8,14.45,14.45,0,0,0,2.753-3.047,19.242,19.242,0,0,0,1.673-3.674,10.341,10.341,0,0,0,.595-6.457s-.486-5.027-4.692-5.565c0,0,.535-3.238-7.152-4.094,0,0-6.069.094-6.4-2a2.982,2.982,0,0,0-.923,2.667,2.982,2.982,0,0,1-3.617-2.1S1011.738-354.961,1015.929-353.915Z" fill="#12263f"/>
            <g id="Group_110947" data-name="Group 110947">
              <g id="Group_110943" data-name="Group 110943">
                <g id="Group_110942" data-name="Group 110942">
                  <g id="Group_110941" data-name="Group 110941">
                    <g id="Group_110940" data-name="Group 110940">
                      <g id="Group_110939" data-name="Group 110939">
                        <path id="Path_170406" data-name="Path 170406" d="M1029.525-340.494a1.262,1.262,0,0,0,.807.479c.957.177,1.915-.715,2.14-1.99a2.13,2.13,0,0,0-1.322-2.622,1.547,1.547,0,0,0-1.284.4,3.235,3.235,0,0,0-.733,2.248A2.415,2.415,0,0,0,1029.525-340.494Z" fill="#f4a37f"/>
                      </g>
                    </g>
                  </g>
                </g>
              </g>
              <g id="Group_110946" data-name="Group 110946">
                <g id="Group_110944" data-name="Group 110944">
                  <path id="Path_170407" data-name="Path 170407" d="M1030.556-343.495c.148-.668,1.437.142,1.184.5a2.079,2.079,0,0,1-.612.468,1.006,1.006,0,0,0-.509.688c-.01.039-.031.155.005.187.163.144.821-.446.966-.57a1.137,1.137,0,0,0,.294-1.06.686.686,0,0,0-.69-.6c-.308-.018-.624-.035-.652.35,0,.008.006.072.014.039Z" fill="#e98e72"/>
                </g>
                <g id="Group_110945" data-name="Group 110945">
                  <path id="Path_170408" data-name="Path 170408" d="M1030.908-342.741c-.125-.161-.274-.058-.433.03a.643.643,0,0,0-.293.368,1.592,1.592,0,0,0,.035,1.149.858.858,0,0,0,.687.48c.412.037.579-.312.637-.658.016-.093.05-.314-.035-.382s-.18.07-.253.128a.579.579,0,0,1-.365.09.748.748,0,0,1-.58-.347.4.4,0,0,1-.049-.113q-.04.342.018.157a.658.658,0,0,1,.1-.151c.114-.147.289-.236.413-.373.059-.062.184-.3.121-.378Z" fill="#e98e72"/>
                </g>
              </g>
            </g>
            <path id="Path_170409" data-name="Path 170409" d="M1019.644-343.271l1.939.748s-2.616.164-2.716-.6c0,0,.4-1.484.824-2.889C1019.691-346.008,1019.357-343.383,1019.644-343.271Z" fill="#e98e72"/>
            <g id="Group_110948" data-name="Group 110948">
              <path id="Path_170410" data-name="Path 170410" d="M1023.028-346.008c0,.411.226.741.5.741s.5-.33.5-.741-.225-.74-.5-.74S1023.028-346.417,1023.028-346.008Z" fill="#12263f"/>
              <path id="Path_170411" data-name="Path 170411" d="M1017.435-346.629c0,.411.227.741.5.741s.5-.33.5-.741-.226-.741-.5-.741S1017.435-347.038,1017.435-346.629Z" fill="#12263f"/>
              <path id="Path_170412" data-name="Path 170412" d="M1022.5-347.445c-.18.036-.225-.207-.225-.207a.846.846,0,0,1,.012-.434.425.425,0,0,1,.216-.22,6.155,6.155,0,0,1,2.142.281c.425.127,1.114.442,1.159.835.013.117.024.319-.109.355A17.425,17.425,0,0,0,1022.5-347.445Z" fill="#12263f"/>
              <path id="Path_170413" data-name="Path 170413" d="M1016.144-348.083a15.243,15.243,0,0,1,2.5.261c.164.086.272-.135.273-.135a.857.857,0,0,0,.106-.422.419.419,0,0,0-.147-.269,4.538,4.538,0,0,0-1.853-.29,3.638,3.638,0,0,0-.932.126A1.815,1.815,0,0,0,1016.144-348.083Z" fill="#12263f"/>
            </g>
            <g id="Group_110949" data-name="Group 110949">
              <path id="Path_170414" data-name="Path 170414" d="M1018.562-340.9c-.158,0-.244.073-.184.188a2.919,2.919,0,0,0,1.919,1.458,2.947,2.947,0,0,0,2.219-.958c.1-.108.012-.216-.186-.241C1022.33-340.457,1020.222-340.726,1018.562-340.9Z" fill="#fff"/>
            </g>
            <path id="Path_170415" data-name="Path 170415" d="M1042.474-277.773a15.622,15.622,0,0,1,0,15.083c-4.407,7.972-17.861,5.065-17.9-5.259C1024.534-278.149,1033.817-282.049,1042.474-277.773Z" fill="#5085c7"/>
            <path id="Path_170416" data-name="Path 170416" d="M1020.7-331.521a48.505,48.505,0,0,0-8.559,1.047c-2.554,1.865-2.848,6.327-1.935,9.115,1.046,3.2,1.461,7.287,2.51,11.917,1.42,6.274-.37,10.86,1.213,17.091,1.31,5.152,28.71,0,28.71,0l3.481-24.114s1.278-6.621-4.719-8.823a82.826,82.826,0,0,0-10.657-4.878s.721,4.878-7.23,3.531C1023.51-326.635,1018.651-327.807,1020.7-331.521Z" fill="#83d1d6"/>
            <path id="Path_170417" data-name="Path 170417" d="M1042.635-292.351c1.163,4.138,2.083,18.092,2.083,18.092-3.15,13.063-32.129,3.665-32.3,1.79-.205-2.243.683-12.918,1.137-22.157C1013.555-294.626,1025.744-298.986,1042.635-292.351Z" fill="#83d1d6"/>
            <path id="Path_170418" data-name="Path 170418" d="M1034.093-315.847c1.891,3.846,8.909,23.255,11.165,26.324.6.815,6.384,4.542,7.686-.538-3.188-20.148-8.011-31.64-8.011-31.64s-5.632-4.7-10.131-.356C1034.8-322.057,1032.759-318.511,1034.093-315.847Z" fill="#f4a886"/>
            <path id="Path_170419" data-name="Path 170419" d="M1033.3-319.285a6.778,6.778,0,0,0,5.556,7.811,6.776,6.776,0,0,0,7.811-5.555,6.78,6.78,0,0,0-5.556-7.813A6.779,6.779,0,0,0,1033.3-319.285Z" fill="#f4a886"/>
            <path id="Path_170420" data-name="Path 170420" d="M1039.98-326.03s5.826,2.186,7.205,6.912l3.595,12.866s-4.711,6.852-11.734,6.625l-6.937-15.411S1027.441-323.693,1039.98-326.03Z" fill="#83d1d6"/>
            <path id="Path_170421" data-name="Path 170421" d="M965.406-289.223l1.794-.049s-3.272.84-4.327-.224c0,0-.27-.167.149-.547a24.9,24.9,0,0,0,4.167-.464,18.2,18.2,0,0,1-4.9.486.534.534,0,0,1,.062-1c-.65-.252-.095-.68-.095-.68a11.341,11.341,0,0,1,1.949-.752,46.2,46.2,0,0,0,4.467-1.742s-1.888-1.236-1.181-2.232l2.913,1.537,2.636,1.694.351,1.784-2.743,1.906a17.1,17.1,0,0,1-4.174,1.123S962.143-288.537,965.406-289.223Z" fill="#e79677"/>
            <path id="Path_170422" data-name="Path 170422" d="M1032.52-221.223l7.537,46.965s2.5,2.406,8.29,0l.962-22.948s1.7-15.161-4.3-25.975C1045.006-223.181,1033.178-232.726,1032.52-221.223Z" fill="#5085c7"/>
            <path id="Path_170423" data-name="Path 170423" d="M1025.816-222.643s3.208,4.64.333,22.061l-2.942,23.79a7.843,7.843,0,0,1-7.192.093l-2.371-47.394S1015.771-232.138,1025.816-222.643Z" fill="#204470"/>
          </g>
        </g>
        <g id="Group_110954" data-name="Group 110954" style="isolation: isolate">
          <path id="Path_170424" data-name="Path 170424" d="M970.826-279.976a1.833,1.833,0,0,0-.924-1.511,3.419,3.419,0,0,0-.313-.183c-.034-.018-.069-.033-.1-.05-.078-.038-.158-.075-.24-.108-.021-.009-.039-.019-.06-.027s-.037-.011-.054-.018c-.131-.05-.266-.1-.4-.138l-.007,0h0c-.141-.041-.287-.076-.436-.11-.016,0-.032-.01-.049-.013l-.063-.013c-.174-.037-.353-.071-.535-.1l-.014,0-.045-.007c-.189-.03-.378-.058-.571-.083l-.061-.009c-.2-.027-.405-.049-.608-.072a.209.209,0,0,0-.036-.005l-.493-.057c-.2-.022-.387-.044-.58-.069l-.1-.013c-.188-.026-.373-.052-.556-.081l-.284-.049c-.192-.035-.385-.075-.578-.117l-.1-.023c-.141-.031-.28-.065-.419-.1l-.01,0c-.141-.035-.278-.073-.415-.112l-.132-.04c-.094-.028-.189-.058-.28-.089-.046-.015-.092-.03-.137-.047-.1-.032-.189-.067-.282-.1-.035-.015-.071-.027-.105-.04-.119-.047-.234-.1-.344-.145a9.891,9.891,0,0,1-1.531-1l.112,12.764a9.757,9.757,0,0,0,1.531,1c.11.05.226.1.343.146a.269.269,0,0,1,.026.01l.08.029c.093.036.187.071.284.1l.132.045c.095.031.192.061.29.091l.08.025c.014,0,.028.006.041.011.139.04.279.079.42.115h0c.141.035.285.068.428.1l.041.009.058.012c.193.042.387.082.58.118l.238.042.047.007c.182.029.367.055.554.08l.111.015.569.068h.006l.375.042c.05.006.1.013.151.017.207.025.412.049.617.075.016,0,.032.006.048.007.194.025.387.053.576.084l.061.009c.183.03.361.065.535.1l.113.025c.149.034.3.071.438.112s.278.09.412.141l.114.044c.082.034.162.07.241.108l.1.05a3.216,3.216,0,0,1,.313.185,1.828,1.828,0,0,1,.924,1.509Z" fill="#b34b2b"/>
          <path id="Path_170425" data-name="Path 170425" d="M952.332-251.868l.131-.029c.059-.013.118-.027.178-.039l.148-.026.125-.021.094,10.7,17.711,11.951-.112-12.763L955.936-252c.214.026.43.056.647.092.051.007.1.016.15.025.08.015.161.028.243.045.058.01.117.022.175.035.078.015.155.031.232.048l.164.036c.126.029.251.06.378.092q.053.012.105.027c.157.04.315.083.472.129l.09.027c.217.065.433.133.648.206l.032.011c.215.074.429.153.641.235l.051.021c.244.095.485.2.723.3l.035.016c.242.108.479.224.714.346l.022.011c.238.122.471.252.7.386l.012.007q.348.205.678.427c1.955,1.32,2.983,2.8,2.994,4.063q-.056-6.383-.112-12.765c-.011-1.26-1.04-2.742-2.994-4.061q-.33-.223-.677-.428l-.013-.007c-.227-.135-.46-.263-.7-.385l-.025-.013c-.233-.12-.471-.236-.712-.345l-.035-.015q-.357-.162-.723-.306l-.014-.005-.037-.014c-.214-.083-.429-.164-.646-.237L959.13-264c-.217-.075-.436-.143-.654-.208-.017,0-.033-.011-.05-.016l-.033-.009q-.238-.07-.477-.132l-.1-.023c-.13-.034-.26-.065-.389-.094l-.073-.018-.08-.017c-.081-.018-.162-.034-.244-.051l-.168-.034c-.082-.015-.163-.03-.245-.043-.04-.008-.08-.016-.119-.021l-.031-.005q-.328-.054-.653-.092l-.051-.007-.038,0c-.19-.02-.377-.038-.564-.052l-.046,0c-.02,0-.04,0-.061,0-.346-.021-.684-.029-1.014-.02-.019,0-.039,0-.06,0l-.05,0c-.161.005-.319.013-.474.026h-.011l-.027,0c-.162.013-.321.031-.477.053l-.05.006c-.012,0-.024.005-.036.006l-.19.032-.136.024c-.065.013-.129.028-.193.042-.034.007-.07.013-.1.022l-.015,0c-.138.034-.272.073-.4.113l-.089.03c-.132.044-.26.09-.383.141-.1.043-.189.09-.277.136l-.077.043c-.031.017-.064.034-.093.051s-.048.032-.073.047l-.093.062c-.048.032-.094.066-.139.1l-.077.059-.028.022c-.052.044-.1.088-.148.132l-.017.017c-.038.037-.075.075-.109.113-.011.011-.02.023-.03.035s-.033.037-.05.056c-.033.04-.065.079-.095.121-.014.017-.029.036-.042.055l-.022.03c-.015.022-.027.043-.041.064-.026.039-.052.078-.075.119s-.037.06-.054.091l-.064.116-.022.041-.021.045c-.034.068-.067.137-.1.205l-.021.046c-.041.091-.08.183-.12.274-.029.071-.059.142-.091.211l-.035.08c-.038.084-.077.168-.119.25-.022.045-.046.088-.07.131-.012.021-.022.041-.033.061-.037.063-.075.126-.117.188-.026.038-.054.077-.082.116-.04.055-.083.111-.127.169l-.057.072c-.059.072-.121.144-.185.216a.144.144,0,0,0-.016.018c-.068.073-.142.147-.218.221l-.067.064c-.056.051-.113.1-.172.152l-.089.074c-.059.048-.121.1-.184.142l-.086.066c-.093.064-.188.129-.288.191l-.032.017-.013.009a.4.4,0,0,0-.041.021l-.022.012-.048.024-.034.017-.051.026-.047.023c-.016.009-.034.016-.052.025l-.061.03c-.018.008-.038.019-.058.027l-.066.032-.092.042-.043.021-.147.065c-.333.149-.725.311-1.089.434L927.8-270.988l.112,12.766,17.733,11.964c.364-.124.755-.285,1.09-.434l.274-.125.005,0c.041-.018.078-.036.115-.054l.009,0c.029-.015.055-.026.081-.039l.033-.017.06-.029c.012-.005.026-.013.037-.019l.045-.023.038-.019.031-.016.032-.018.021-.011.02-.011.005,0c.1-.062.2-.128.289-.193.028-.02.056-.042.084-.063.063-.047.126-.1.186-.145.014-.011.031-.022.046-.035s.026-.024.041-.036c.059-.052.116-.1.171-.153l.071-.065c.075-.072.147-.146.216-.221l0,0,.016-.017c.064-.071.125-.141.183-.213.02-.024.039-.05.058-.074.044-.055.085-.111.125-.167.011-.014.023-.029.034-.045l.049-.071c.042-.062.081-.125.117-.188.013-.023.025-.046.037-.069.022-.039.043-.077.062-.116l0-.005c.041-.084.081-.167.119-.252.011-.027.023-.053.035-.078.03-.071.061-.14.091-.21.039-.094.08-.186.121-.28.006-.014.013-.026.019-.039.031-.071.065-.141.1-.211.013-.028.027-.055.041-.081s.043-.082.066-.121.034-.06.052-.09.05-.079.077-.118.04-.063.062-.094l.043-.057c.03-.039.061-.079.094-.118l.05-.058q.065-.073.138-.144a.17.17,0,0,1,.018-.019c.055-.053.115-.1.177-.154.024-.02.05-.04.076-.059.044-.035.091-.068.139-.1l.093-.06c.053-.033.109-.067.167-.1l.076-.042c.087-.047.178-.092.277-.137.122-.05.251-.1.383-.14l.089-.029C952.061-251.8,952.194-251.835,952.332-251.868Z" fill="#b34b2b"/>
          <g id="Group_110952" data-name="Group 110952">
            <path id="Path_170426" data-name="Path 170426" d="M1025.486-265.191l.112,12.763-54.879,23.093-.112-12.763Z" fill="#e86038"/>
          </g>
          <g id="Group_110953" data-name="Group 110953">
            <path id="Path_170427" data-name="Path 170427" d="M927.8-270.988l22.7-9.553a10.929,10.929,0,0,1,1.776,1.347c1.062,1.4-.307,3.3,1.473,4.506,2.193,1.478,7.584,1.154,12.045-.722.125-.053.247-.105.368-.159,4.192-1.869,5.873-4.48,3.742-5.918-1.363-.918-3.71-.86-5.622-1.213a12.552,12.552,0,0,1-2.805-.817,9.891,9.891,0,0,1-1.531-1l22.73-9.563,42.812,28.888L970.607-242.1,952.9-254.05c.069-.035.143-.068.219-.1a21.57,21.57,0,0,1,2.338-.858c2.641-.58,6.214.125,8.5-.835,2.8-1.246,2.226-4.07-1.215-6.392-3.48-2.349-8.578-3.3-11.387-2.112-1.744.776-1.676,2-2.351,3a5.184,5.184,0,0,1-1.571,1.5c-.083.049-.4.211-.807.391-.333.149-.725.311-1.089.434Z" fill="#ff8d6b"/>
          </g>
        </g>
        <g id="Group_110967" data-name="Group 110967">
          <path id="Path_170428" data-name="Path 170428" d="M850.841-210.845s1.878-1.218.075-3.466c-4.661-.3-10.14-2.814-10.14-2.814-6.851-2.155-16.473-12.759-20.852-17.584-4.92-5.419-12.368-.819-8.371,5.367,7.479,11.575,27.135,19.205,39.189,18.754" fill="#f4a37f"/>
          <path id="Path_170429" data-name="Path 170429" d="M799.394-157.867C802.169-171,803-201.421,803-201.421s-2.223-2.99-10.232-3.512c-8.03-.525-7.475,4.474-7.438,3.826a286.4,286.4,0,0,0,3.684,42.724S794.725-154.392,799.394-157.867Z" fill="#209299"/>
          <path id="Path_170430" data-name="Path 170430" d="M785.414-199.519c-.814-5.535.872-11.117,1.743-16.711h25.16c1.61,5.364,3.284,10.872,3.284,10.872s1.076,12.688-9.7,14.209C805.9-191.149,787.124-187.9,785.414-199.519Z" fill="#007fa6"/>
          <path id="Path_170431" data-name="Path 170431" d="M770.643-102.94c0,10.667,19.434,19.314,43.408,19.314s43.406-8.647,43.406-19.314-19.434-19.313-43.406-19.313S770.643-113.606,770.643-102.94Z" fill="#ccc"/>
          <g id="Group_110955" data-name="Group 110955">
            <path id="Path_170432" data-name="Path 170432" d="M839.3-103.639l-1.433-.082c-.489-.076-.486.692-.551.718a15.615,15.615,0,0,1-3.4,1.077s-2.652-.345-2.936-1.148L831.36-108c2.956-.249,6.04-.82,6.04-.82l6.5-.913c3.126-.325,3.694.805,3.694.805S849.5-106.065,839.3-103.639Z" fill="#12263f"/>
            <path id="Path_170433" data-name="Path 170433" d="M835.359-103.93a7.816,7.816,0,0,1,1.68-.547c3.2-.561,6.338-.879,9.006-2.938a2.64,2.64,0,0,0,1.158-1.875,1.168,1.168,0,0,1,.387.367s1.914,2.858-8.289,5.284l-1.433-.082c-.489-.076-.486.692-.551.718a15.615,15.615,0,0,1-3.4,1.077s-2.652-.345-2.936-1.148l.091-1.2A5.118,5.118,0,0,0,835.359-103.93Z" fill="#12263f"/>
          </g>
          <g id="Group_110956" data-name="Group 110956">
            <path id="Path_170434" data-name="Path 170434" d="M795.905-104.857l-1.434-.082c-.488-.076-.485.691-.552.718a15.612,15.612,0,0,1-3.393,1.076s-2.652-.344-2.935-1.149l.372-4.919c2.956-.249,6.041-.82,6.041-.82l6.5-.914c3.126-.326,3.694.806,3.694.806S806.108-107.283,795.905-104.857Z" fill="#12263f"/>
            <path id="Path_170435" data-name="Path 170435" d="M791.961-105.148a7.833,7.833,0,0,1,1.68-.547c3.206-.561,6.339-.879,9.008-2.939a2.64,2.64,0,0,0,1.158-1.875,1.174,1.174,0,0,1,.387.368s1.914,2.858-8.289,5.284l-1.434-.082c-.488-.076-.485.691-.552.718a15.612,15.612,0,0,1-3.393,1.076s-2.652-.344-2.935-1.149l.09-1.2A5.121,5.121,0,0,0,791.961-105.148Z" fill="#12263f"/>
          </g>
          <path id="Path_170436" data-name="Path 170436" d="M795.047-110.58c1.031-1.246,4.416-47.065,4.416-47.065.561-7.043-11-4.086-11-4.086-1.684,7.012-1.412,8.332-1.94,17.033-.21,3.436.331,31.9.2,34.089C786.73-110.609,792.1-107.008,795.047-110.58Z" fill="#209299"/>
          <path id="Path_170437" data-name="Path 170437" d="M804.5-209.745s7.161,12.192,2.754,20.163-22.973-.7-21.832-9.934C786.678-209.639,795.848-214.022,804.5-209.745Z" fill="#28b5bd"/>
          <path id="Path_170438" data-name="Path 170438" d="M809.64-225.288c1.164,4.138,5.961,19.93,5.961,19.93-13.147,12.4-30.115,2.569-30.287.7-.2-2.244,2.3-10.81,2.754-20.05C788.068-224.713,792.75-231.923,809.64-225.288Z" fill="#f4a886"/>
          <path id="Path_170439" data-name="Path 170439" d="M815.184-155.788" fill="#1f2535"/>
          <path id="Path_170440" data-name="Path 170440" d="M825.459-159.321c-1.4-13.606-11.088-48.316-11.088-48.316s-2.832-2.608-10.857-.569c-8.044,2.043-8.912,12.512-9.079,11.87A318.984,318.984,0,0,0,816.2-155.01S822.2-151.938,825.459-159.321Z" fill="#28b5bd"/>
          <path id="Path_170441" data-name="Path 170441" d="M837.565-109.374c-.235-1.64-12.335-50.391-12.335-50.391-2.848-6.012-11.028.32-11.028.32a51.832,51.832,0,0,0,2.962,18.044c1.113,3.324,11.4,33.432,12.115,35.545C829.279-105.856,835.359-103.93,837.565-109.374Z" fill="#28b5bd"/>
          <g id="Group_110957" data-name="Group 110957">
            <path id="Path_170442" data-name="Path 170442" d="M778.594-256.884s-1.3,21.9-.471,30.737c0,0,0,4.017,7.075,6.03,0,0,2.573-24.378,4.669-35.262C789.867-255.379,785.687-263.45,778.594-256.884Z" fill="#e79677"/>
            <path id="Path_170443" data-name="Path 170443" d="M786.494-251.228A5.725,5.725,0,0,1,779-254.212a5.648,5.648,0,0,1,3.016-7.433,5.729,5.729,0,0,1,7.5,2.985A5.648,5.648,0,0,1,786.494-251.228Z" fill="#e79677"/>
          </g>
          <path id="Path_170444" data-name="Path 170444" d="M783.527-263.081a7.505,7.505,0,0,0-5.449,7.194l-.836,21.583a20.24,20.24,0,0,0,11.858,2.846S796.821-260.28,783.527-263.081Z" fill="#f6bf28"/>
          <path id="Path_170445" data-name="Path 170445" d="M814.262-151.852" fill="#f4a886"/>
          <path id="Path_170446" data-name="Path 170446" d="M803.053-276.783s.045,7.708.719,15.387L793.6-263.081a7.526,7.526,0,0,0-.607-6.641Z" fill="#f4a886"/>
          <path id="Path_170447" data-name="Path 170447" d="M783.527-263.081c-2.554,1.867-2.847,6.329-1.936,9.116,1.048,3.2,1.463,7.286,2.511,11.916,1.42,6.274,2.383,11.106,3.966,17.336,1.311,5.153,22.016,1,22.016,1l7.422-25.359s1.277-6.62-4.72-8.823a89.553,89.553,0,0,0-10.943-4.978,19.944,19.944,0,0,0-9.756-1.255A48.478,48.478,0,0,0,783.527-263.081Z" fill="#f4a886"/>
          <path id="Path_170448" data-name="Path 170448" d="M813.863-210.378a15.618,15.618,0,0,1,0,15.081c-4.407,7.972-17.86,5.066-17.9-5.259C795.924-210.756,805.207-214.656,813.863-210.378Z" fill="#28b5bd"/>
          <path id="Path_170449" data-name="Path 170449" d="M792.087-264.127a48.478,48.478,0,0,0-8.56,1.046c-2.658,1.942-2.611,5.755-2.1,8.641.98,5.518,1.974,11.093,2.486,16.675.227,2.473.843,7.507,1.027,9.982.18,2.4.94,3.726,3.4,5,1.869.964,3.258.2,5.294.253a102.438,102.438,0,0,0,15.419-1.06c.217-.026,8.224,5.376,5.589,1.4l2.864-26.879s1.277-6.62-4.72-8.823a48.214,48.214,0,0,0-8.843-4.207S795.9-261.9,792.087-264.127Z" fill="#f6bf28"/>
          <path id="Path_170450" data-name="Path 170450" d="M806.474-267.88l.434-1.674,1.029-6.173a6.211,6.211,0,0,0-.193-2.541,6.26,6.26,0,0,1-.316-2.6c.59-4.421-1.886-6.618-1.886-6.618-2.882-3.786-8.876-3.257-8.879-3.256-3.109.47-5.824,1.756-7.37,4.592a11.56,11.56,0,0,0-1.334,8.578,17.375,17.375,0,0,0,5.01,7.838c1.493,1.428,3.02,1.6,4.974,2.319a20.277,20.277,0,0,0,5.412.8C804.113-266.621,806.224-266.918,806.474-267.88Z" fill="#f4a37f"/>
          <path id="Path_170451" data-name="Path 170451" d="M805.289-284.927l-.955,3.832a1.862,1.862,0,0,0-1.377,2.333l.345,3.164-.861.331c.072-1.268-1.686-1.285-1.686-1.285-1.285-.074-1.5,1.021-1.431,2.076.191,2.738-.806,7.088-3.1,7.853-.907.3-2.616.617-2.9-.611-.35-1.5-3.195-4.485-3.195-4.485-3.417-3.309-4.274-8.957-2.658-13.272a10.435,10.435,0,0,1,2.453-3.626,13.241,13.241,0,0,1,7.641-3.409s3.9-.475,6.086,1.063a12.672,12.672,0,0,1,2.828,2.586S807.3-286.617,805.289-284.927Z" fill="#12263f"/>
          <g id="Group_110962" data-name="Group 110962">
            <g id="Group_110961" data-name="Group 110961">
              <g id="Group_110960" data-name="Group 110960">
                <g id="Group_110959" data-name="Group 110959">
                  <g id="Group_110958" data-name="Group 110958">
                    <path id="Path_170452" data-name="Path 170452" d="M802.15-272.579a1.579,1.579,0,0,1-1,.376,2.319,2.319,0,0,1-2.26-2.241,2.126,2.126,0,0,1,1.861-2.44,2.007,2.007,0,0,1,1.451.553,2.887,2.887,0,0,1,.583,2.324A2.171,2.171,0,0,1,802.15-272.579Z" fill="#f4a37f"/>
                  </g>
                </g>
              </g>
            </g>
          </g>
          <g id="Group_110965" data-name="Group 110965">
            <g id="Group_110963" data-name="Group 110963">
              <path id="Path_170453" data-name="Path 170453" d="M801.289-275.709c-.112-.675-1.444.061-1.212.431a2.069,2.069,0,0,0,.585.5,1.008,1.008,0,0,1,.47.715c.007.041.022.158-.016.188-.17.135-.794-.492-.932-.623a1.144,1.144,0,0,1-.235-1.076.686.686,0,0,1,.723-.558c.309,0,.626,0,.631.385,0,.008-.01.072-.014.038Z" fill="#e98e72"/>
            </g>
            <g id="Group_110964" data-name="Group 110964">
              <path id="Path_170454" data-name="Path 170454" d="M800.894-274.975c.134-.154.278-.044.431.053a.653.653,0,0,1,.271.385,1.6,1.6,0,0,1-.1,1.145.857.857,0,0,1-.713.439c-.414.015-.561-.343-.6-.692-.01-.093-.033-.316.056-.379s.176.081.246.143a.58.58,0,0,0,.359.109.751.751,0,0,0,.6-.313.455.455,0,0,0,.055-.11q.021.342-.027.156a.568.568,0,0,0-.088-.156c-.106-.153-.275-.252-.392-.4-.054-.065-.167-.3-.1-.383Z" fill="#e98e72"/>
            </g>
          </g>
          <g id="Group_110966" data-name="Group 110966">
            <path id="Path_170455" data-name="Path 170455" d="M858.021-213.174c-.526-.78-.066-1.186-1.133-1.221-1.214-.04-2.3-.64-3.128-.617-1.436.04-6.861,1.306-3.221,4.411.848.724,3.272,3.966,4.951,3.006,2.48-1.421,1.637-.9,2.9-3.983Z" fill="#f4a886"/>
          </g>
          <path id="Path_170456" data-name="Path 170456" d="M807.429-253.007a6.366,6.366,0,0,0,1.916,8.8,6.365,6.365,0,0,0,8.8-1.915,6.365,6.365,0,0,0-1.917-8.8A6.367,6.367,0,0,0,807.429-253.007Z" fill="#f4a886"/>
          <path id="Path_170457" data-name="Path 170457" d="M815.411-229.414c.827,8.682,1.361,29.941,1.361,29.941-3.081,8.222-32.47,1.283-32.641-.591-.2-2.244.4-18.042.851-27.281A35.433,35.433,0,0,1,815.411-229.414Z" fill="#f6bf28"/>
          <path id="Path_170458" data-name="Path 170458" d="M811.412-258.615c7.741,2.179,8.7,11.546,8.7,11.546l3.495,15.385s-8.794,6.975-14.155,5.012a114.191,114.191,0,0,1-5.738-23.188S803.772-258.363,811.412-258.615Z" fill="#f6bf28"/>
          <path id="Path_170459" data-name="Path 170459" d="M806.938-285.016c-.874.706-1.988.243-2.987.01-1.364,1.6.268,3.2-1.8,3.973a22.827,22.827,0,0,1-3.922.723c-.968.156-1.946-.068-2.638.655-.749.782-.039,3.218-.924,3.685-1.547.816-2.761-3.419-4.733-3.083-1.683.286-1.981,2.956-1.391,4.269a2.043,2.043,0,0,0-.441-.3c-.8-2.091-1.826-2.128-2.711-3.615-1.371-2.3-1.139-1.755-1.412-3.968,0-.02.27-.969.273-.982C784.9-286,786-286.4,786.529-287.4a19.711,19.711,0,0,1,2.134-2.724,27.145,27.145,0,0,1,1.748-2.776,8.182,8.182,0,0,1,4.614-1.953c1.7-.224,3.323.833,5.01.537.693-.122,1.341-.75,2.035-.711.847.048,1.434.888,2.166,1.217,1.361.613,3.506.365,4.668,1.323,1.285,1.059,1.009,2.589.217,3.887-.444.727-1.343,1.146-1.743,1.9C807.267-286.5,806.966-285.038,806.938-285.016Z" fill="#12263f"/>
        </g>
        <g id="Group_110968" data-name="Group 110968">
          <path id="Path_170460" data-name="Path 170460" d="M1046.093-291.2a239.458,239.458,0,0,0-12.63,26.25s.1,2.647,2.052,1.829,17.678-23.1,17.694-25.124C1053.25-293.459,1046.093-291.2,1046.093-291.2Z" fill="#f4a886"/>
          <path id="Path_170461" data-name="Path 170461" d="M1029.7-259.654l1.7-.578s-2.877,1.771-4.2,1.069c0,0-.308-.081-.02-.568a24.893,24.893,0,0,0,3.843-1.676,18.215,18.215,0,0,1-4.539,1.915s-.918-.265-.237-.974c-.694-.048-.291-.621-.291-.621a11.281,11.281,0,0,1,1.64-1.3,46.211,46.211,0,0,0,3.752-2.985s-2.171-.622-1.79-1.783l3.237.605,3.019.839.863,1.6-2.055,2.631a17.133,17.133,0,0,1-3.655,2.309S1026.786-258.032,1029.7-259.654Z" fill="#f4a886"/>
        </g>
        <g id="Group_110974" data-name="Group 110974" style="isolation: isolate">
          <path id="Path_170462" data-name="Path 170462" d="M958.591-217.1a1.8,1.8,0,0,1,.908-1.485,3.21,3.21,0,0,1,.307-.181c.034-.018.069-.034.1-.05.077-.037.155-.073.235-.106l.059-.026c.018-.008.038-.012.056-.019.128-.049.259-.1.4-.135l.007,0h0c.138-.04.281-.076.427-.108a.467.467,0,0,1,.05-.014l.066-.012c.169-.037.342-.07.519-.1l.017,0,.056-.009c.176-.028.354-.053.535-.078.024,0,.047-.006.071-.009.194-.025.39-.048.585-.07l.034,0,.133-.016c.133-.014.264-.029.4-.045.184-.021.367-.043.549-.067l.11-.013c.182-.025.361-.05.537-.079.094-.015.188-.03.28-.047q.285-.054.57-.116l.107-.023c.137-.03.273-.063.407-.1l.013,0c.137-.034.273-.072.407-.112l.125-.036q.139-.042.276-.087l.136-.046c.091-.031.18-.065.268-.1l.111-.041c.117-.047.231-.1.34-.145a9.588,9.588,0,0,0,1.506-.981L969.185-209a9.586,9.586,0,0,1-1.506.982c-.11.05-.225.1-.342.145l-.025.011-.077.028c-.091.034-.183.068-.278.1l-.131.045c-.091.03-.183.059-.277.087l-.085.026c-.014,0-.029.008-.043.012-.133.039-.267.075-.4.111l-.017,0c-.133.034-.268.065-.4.1l-.045.01-.066.013c-.189.041-.378.08-.567.115l-.234.041c-.016,0-.033,0-.05.008-.174.028-.351.053-.53.077l-.12.015c-.176.023-.352.044-.531.065h-.016l-.377.044c-.062.007-.125.015-.188.021-.194.023-.387.045-.579.071l-.069.008c-.181.024-.36.05-.536.078l-.073.012c-.178.03-.351.063-.522.1l-.111.024c-.147.034-.292.07-.43.111h0c-.138.041-.272.087-.4.137l-.114.045c-.081.033-.159.068-.236.106l-.1.049c-.106.057-.21.116-.307.181a1.8,1.8,0,0,0-.909,1.486Z" fill="#f6bf28"/>
          <path id="Path_170463" data-name="Path 170463" d="M909.545-205.26l-.015-.072c0-.022-.01-.043-.014-.065a.16.16,0,0,0,0-.022c-.005-.033-.009-.067-.012-.1s-.006-.05-.008-.075,0-.07-.005-.106c0-.02,0-.039,0-.06v-.025l.111-12.558c0,.029,0,.057,0,.086s0,.071,0,.1.006.05.009.075.007.066.012.1.011.058.017.087.009.048.015.073.016.059.024.089.013.046.02.068l.013.036a2.124,2.124,0,0,0,.107.253l0,.006a2.241,2.241,0,0,0,.139.229c.008.012.016.025.025.037a2.364,2.364,0,0,0,.17.211l.053.057.06.06c.023.022.046.045.071.067l.067.059.064.053c.039.031.079.061.121.091l.064.046c.047.032.1.063.145.094l.056.034c.044.027.091.052.138.077l.063.035c.069.034.14.069.215.1.143.061.291.114.443.163.051.016.1.028.155.044.1.03.207.06.314.085.028.007.057.013.086.018.12.028.242.053.366.074l.149.025c.115.019.233.035.351.05.039.006.077.01.116.014.153.018.308.034.465.046.1.008.2.014.3.019l.251.016c.1.005.2.008.306.012.083,0,.164.007.247.009.2,0,.393.009.592.011h.016l.7.008.445,0,.22,0c.127,0,.253,0,.378.008l.1,0,.164.005.286.011.267.015.275.018.093.006v0h0v0c.1.008.2.018.3.029l.062.006c.132.015.263.03.392.049l.046.009c.192.028.381.061.565.1l.017,0,.018.005.026.006.039.012.033.01.053.016.04.013.066.021.042.013.078.026c.017,0,.032.01.048.015l.087.029.051.018q.048.015.1.033l.055.018.1.035.064.022.092.034.077.028.091.033.082.03.093.035.083.031.094.037.084.032c.031.012.062.025.094.036l.083.034.093.037.081.034c.034.013.066.028.1.041l.072.03c.055.024.11.047.163.072.078.034.154.069.225.1l-.111,12.556-.224-.1-.164-.071-.055-.022L921.57-202l-.067-.027-.108-.043-.075-.03-.1-.041-.079-.03-.1-.038-.081-.031c-.032-.011-.063-.024-.094-.036l-.08-.029-.095-.034-.075-.027-.091-.032-.081-.029-.077-.027-.079-.028-.072-.025c-.025-.008-.048-.015-.071-.024s-.046-.016-.069-.022-.041-.015-.062-.021l-.064-.021-.056-.018-.053-.017-.049-.015a.273.273,0,0,0-.044-.013l-.038-.012-.036-.011-.027-.006-.035-.009c-.185-.042-.374-.074-.568-.1-.142-.021-.286-.041-.433-.057l-.074-.006c-.128-.014-.258-.025-.39-.035-.09-.007-.181-.012-.272-.018l-.269-.014c-.093,0-.187-.008-.281-.011l-.268-.009-.368-.007-.23-.005-.441,0c-.191,0-.384,0-.576-.007H915.3c-.2,0-.39-.006-.583-.012h-.029c-.081,0-.16-.007-.241-.009l-.288-.011-.259-.017c-.1,0-.192-.011-.287-.018l-.031,0c-.148-.012-.293-.027-.438-.044l-.109-.013-.217-.028v0h0v0l-.139-.023-.147-.025c-.124-.021-.246-.047-.367-.074l-.087-.017-.024-.006c-.1-.024-.2-.053-.292-.081-.051-.015-.1-.027-.152-.043-.152-.049-.3-.1-.443-.163-.074-.033-.146-.068-.215-.1-.024-.014-.047-.027-.071-.039-.044-.024-.087-.047-.129-.072l-.016-.009-.045-.03c-.048-.029-.1-.059-.139-.089-.024-.015-.045-.032-.068-.048-.041-.03-.08-.059-.118-.09l-.039-.029v0h0v0l-.028-.025-.064-.057c-.025-.023-.05-.045-.073-.069s-.04-.039-.059-.059l-.038-.038a.239.239,0,0,0-.015-.019,2.557,2.557,0,0,1-.171-.212l-.01-.013c-.006-.008-.009-.016-.014-.023a2.367,2.367,0,0,1-.139-.229v0l0-.005a2.087,2.087,0,0,1-.1-.249c0-.008-.007-.014-.009-.022v0h0v0l0-.017c-.007-.021-.013-.043-.02-.067S909.553-205.229,909.545-205.26Z" fill="#f6bf28"/>
          <g id="Group_110970" data-name="Group 110970">
            <g id="Group_110969" data-name="Group 110969">
              <path id="Path_170464" data-name="Path 170464" d="M904.813-202.549l-.111,12.558,53.994,22.72.11-12.558Z" fill="#f6bf28"/>
            </g>
          </g>
          <g id="Group_110971" data-name="Group 110971">
            <path id="Path_170465" data-name="Path 170465" d="M958.806-179.829l-.11,12.558,42.12-28.422.11-12.558Z" fill="#bd8e12"/>
          </g>
          <g id="Group_110973" data-name="Group 110973">
            <g id="Group_110972" data-name="Group 110972">
              <path id="Path_170466" data-name="Path 170466" d="M1000.926-208.251l-22.338-9.4a10.763,10.763,0,0,0-1.745,1.325c-1.044,1.375.3,3.251-1.448,4.432-2.157,1.455-7.462,1.137-11.851-.709-.124-.052-.246-.1-.365-.159-4.123-1.838-5.774-4.406-3.68-5.819,1.34-.9,3.651-.847,5.53-1.194a12.2,12.2,0,0,0,2.76-.8,9.588,9.588,0,0,0,1.506-.981l-22.363-9.411L929.487-219.2c-.361-.122-.749-.283-1.079-.43-.394-.175-.705-.332-.786-.382a5.1,5.1,0,0,1-1.547-1.477c-.664-.987-.6-2.189-2.229-2.917-2.847-1.2-7.862-.268-11.287,2.042-3.386,2.285-3.946,5.064-1.286,6.249,2.337.985,5.851.29,8.448.863a20.626,20.626,0,0,1,2.293.84c.078.034.154.069.225.1l-17.426,11.757,53.993,22.72Z" fill="#f6d57b"/>
            </g>
          </g>
        </g>
        <g id="Group_111006" data-name="Group 111006">
          <path id="Path_170467" data-name="Path 170467" d="M1032.12-77.253c0,7.579-13.808,13.722-30.841,13.722S970.44-69.674,970.44-77.253s13.807-13.722,30.839-13.722S1032.12-84.831,1032.12-77.253Z" fill="#ccc"/>
          <g id="Group_111005" data-name="Group 111005">
            <g id="Group_110976" data-name="Group 110976">
              <g id="Group_110975" data-name="Group 110975">
                <path id="Path_170468" data-name="Path 170468" d="M985.648-77.671s-3.271-.6-2.35,2.071c0,0,7.637,3.28,12.972,2.54a3.34,3.34,0,0,0,3.16-4.193l.063-3.305-5.029.952.285,3.142Z" fill="#e79677"/>
              </g>
              <path id="Path_170469" data-name="Path 170469" d="M999.43-77.253a2.113,2.113,0,0,1-.5,1.418c-1.316,1.517-3.9,1.563-5.725,1.447a61.492,61.492,0,0,1-8.712-1.219c-.623-.131-.8-.335-.8-.518a2.54,2.54,0,0,1,1.959-1.546l-2.784-.356a7.007,7.007,0,0,0-4.336.886c-.712,2.033,2.751,3.39,2.751,3.39a56.339,56.339,0,0,0,8.11,2.263s9.775,2.306,10.957-.7Z" fill="#12263f"/>
            </g>
            <g id="Group_110978" data-name="Group 110978">
              <g id="Group_110977" data-name="Group 110977">
                <path id="Path_170470" data-name="Path 170470" d="M1005.069-82.215s-3.272-.6-2.351,2.07c0,0,7.637,3.28,12.971,2.542a3.341,3.341,0,0,0,3.161-4.194l.063-3.305-5.029.951.286,3.142Z" fill="#e79677"/>
              </g>
              <path id="Path_170471" data-name="Path 170471" d="M1018.85-81.8a2.109,2.109,0,0,1-.5,1.417c-1.317,1.518-3.9,1.564-5.725,1.448a61.78,61.78,0,0,1-8.712-1.218c-.623-.132-.8-.336-.8-.519a2.545,2.545,0,0,1,1.961-1.546l-2.785-.356a7.017,7.017,0,0,0-4.336.886c-.711,2.032,2.751,3.389,2.751,3.389a56.422,56.422,0,0,0,8.109,2.264s9.776,2.305,10.958-.7Z" fill="#12263f"/>
            </g>
            <g id="Group_110982" data-name="Group 110982">
              <g id="Group_110979" data-name="Group 110979">
                <path id="Path_170472" data-name="Path 170472" d="M1004.163-170.493a9.336,9.336,0,0,0,9.335,9.335,9.336,9.336,0,0,0,9.335-9.335,9.336,9.336,0,0,0-9.335-9.335A9.335,9.335,0,0,0,1004.163-170.493Z" fill="#209299"/>
                <path id="Path_170473" data-name="Path 170473" d="M1019.373-125.555s-.13,2.347-4.346,2.4c0,0-3.991,1.361-5.714-3.836-6.789-20.464-4.995-41.819-4.995-41.819s9.586-5.34,18.515-1.688C1022.833-170.493,1021.389-143.631,1019.373-125.555Z" fill="#209299"/>
              </g>
              <path id="Path_170474" data-name="Path 170474" d="M1009.313-126.986s3.289,44.23,3.6,45.811a5.487,5.487,0,0,0,6.044-.056c-.016-2.17,2.348-20.256,2.593-23.653.419-5.837,1.121-13.213-2.568-21.6Z" fill="#209299"/>
              <g id="Group_110980" data-name="Group 110980">
                <path id="Path_170475" data-name="Path 170475" d="M992.317-124.205s-.9,2.17-4.9.827c0,0-4.216-.037-4.12-5.51.373-21.558,9.82-43.9,9.82-43.9s10.64-1.016,17.855,5.387C1010.975-167.4,1000.208-140.593,992.317-124.205Z" fill="#28b5bd"/>
                <path id="Path_170476" data-name="Path 170476" d="M993.359-173.586a9.335,9.335,0,0,0,5.715,11.9,9.336,9.336,0,0,0,11.9-5.715,9.336,9.336,0,0,0-5.716-11.9A9.334,9.334,0,0,0,993.359-173.586Z" fill="#28b5bd"/>
              </g>
              <path id="Path_170477" data-name="Path 170477" d="M1022.833-171.852c-1.128-10.381-6.336-15.2-6.336-15.2l-18.045-2.279s-4.975,8.656-5.5,17.478c2.157,5.884,9.845,7.6,9.845,7.6l5.838,1.733S1021.87-164.532,1022.833-171.852Z" fill="#28b5bd"/>
              <g id="Group_110981" data-name="Group 110981">
                <path id="Path_170478" data-name="Path 170478" d="M984.133-124.594s8.95,46.463,9.488,47.98c-.235-.113,4.23,2.053,6.208-.744-.337-2.143-.526-25.743-.787-29.139-.448-5.837-.386-11.282-5.276-19.032C993.766-125.529,981.546-134.277,984.133-124.594Z" fill="#28b5bd"/>
              </g>
            </g>
            <path id="Path_170479" data-name="Path 170479" d="M999.959-91.435" fill="#3a190f"/>
            <g id="Group_110985" data-name="Group 110985">
              <g id="Group_110983" data-name="Group 110983">
                <path id="Path_170480" data-name="Path 170480" d="M1024.168-205.947s-3.287,3.871-9.825,13.216l1.13,1.915s11.2-5.64,14.77-11.972Z" fill="#e79677"/>
              </g>
              <g id="Group_110984" data-name="Group 110984">
                <path id="Path_170481" data-name="Path 170481" d="M1014.912-219.8s8.429,18.394,13.492,17.7c0,0,1.747.109,2.1-1.207,0,0,3.575-3.171-11.291-26.042a4.583,4.583,0,0,0-4.428-1.442S1010.267-227.81,1014.912-219.8Z" fill="#e79677"/>
              </g>
            </g>
            <g id="Group_110986" data-name="Group 110986">
              <rect id="Rectangle_36719" data-name="Rectangle 36719" width="9.112" height="9.685" transform="translate(1001.28 -234.195)" fill="#f5bc93"/>
            </g>
            <g id="Group_110987" data-name="Group 110987">
              <path id="Path_170482" data-name="Path 170482" d="M995.643-233.975l-.342-1.549-.682-5.671a5.168,5.168,0,0,1,.338-2.3,5.253,5.253,0,0,0,.464-2.356,6.644,6.644,0,0,1,2.27-5.928c3.11-3.3,9.1-2.51,9.1-2.51,3.1.588,5.75,1.9,7.145,4.56a9.664,9.664,0,0,1,.853,7.879,15.992,15.992,0,0,1-5.476,6.879c-1.583,1.224-3.126,1.305-5.13,1.856a22.387,22.387,0,0,1-5.482.448C997.943-232.707,995.84-233.086,995.643-233.975Z" fill="#f4a886"/>
            </g>
            <g id="Group_110988" data-name="Group 110988">
              <path id="Path_170483" data-name="Path 170483" d="M999.793-239.224" fill="#3a190f"/>
            </g>
            <g id="Group_110989" data-name="Group 110989">
              <path id="Path_170484" data-name="Path 170484" d="M999.793-239.224c.45-.638,2.087-1.032,2.088-1.032,1.978,0,1.719,2.64,1.906,3.784.061.373.132.755.217,1.136.942,3.356,3.763,3.327,6.175,3.733q.133-.078.282-.159a9.646,9.646,0,0,1,1.824-3.034c3.622-3.131,4.8-8.757,3.424-13.184a10.486,10.486,0,0,0-2.259-3.78,13.329,13.329,0,0,0-7.483-3.859c-2.8-.527-12.833.833-10.1,6.924,0,0,4.126,4.761,3.922,9.471" fill="#12263f"/>
            </g>
            <g id="Group_110997" data-name="Group 110997">
              <g id="Group_110993" data-name="Group 110993">
                <g id="Group_110990" data-name="Group 110990">
                  <path id="Path_170485" data-name="Path 170485" d="M999.793-239.224a1.9,1.9,0,0,1,2.233-1.307,1.494,1.494,0,0,1,1.091,1.61c-.015.163-.05.324-.067.486a3.429,3.429,0,0,1-2.119,2.4" fill="#f7bc93"/>
                </g>
                <g id="Group_110991" data-name="Group 110991">
                  <path id="Path_170486" data-name="Path 170486" d="M1001.841-239.71a1.012,1.012,0,0,0-.441-.119c-.664-.042-1.2.982-.535,1.165a.377.377,0,0,1-.009.525c-.228.249-.536.606-.467.956.043.208.273.319.482.371.167.041.2-.089.067-.152a.746.746,0,0,1-.253-.208c-.006-.012-.013-.023-.02-.035a.1.1,0,0,1-.016-.027.226.226,0,0,1-.007-.152.41.41,0,0,0,.515-.005c.126-.152.031-.389.073-.563a1.32,1.32,0,0,1,.154-.343.355.355,0,0,0-.244-.594,1.486,1.486,0,0,0-.2.015c-.278-.144.032-.562.2-.629a.537.537,0,0,1,.58.1.827.827,0,0,1,.184.587,1.929,1.929,0,0,1-.181.7c-.06.125-.136.272-.2.4-.069.142.1.205.166.061a4.2,4.2,0,0,0,.474-1.156A.88.88,0,0,0,1001.841-239.71Z" fill="#e1a685"/>
                </g>
                <g id="Group_110992" data-name="Group 110992">
                  <path id="Path_170487" data-name="Path 170487" d="M999.793-239.224s.079-.114.209-.319a2.614,2.614,0,0,1,.276-.318,2.152,2.152,0,0,1,.42-.327,1.74,1.74,0,0,1,.568-.205,1.466,1.466,0,0,1,.648.044,1.777,1.777,0,0,1,.329.14,1.5,1.5,0,0,1,.262.2,1.255,1.255,0,0,1,.347.59,1.775,1.775,0,0,1,.01.733l-.024.2,0,.026v0c0-.012-.005.029,0-.024v.005l0,.013-.009.049-.02.1a2.224,2.224,0,0,1-.1.351,2.788,2.788,0,0,1-.309.615,3.667,3.667,0,0,1-.4.494,4.506,4.506,0,0,1-.75.623c-.2.132-.323.2-.323.2a2.21,2.21,0,0,0,.363-.119,3.745,3.745,0,0,0,.885-.507,3.022,3.022,0,0,0,.5-.486,2.618,2.618,0,0,0,.411-.677,2.552,2.552,0,0,0,.134-.4l.025-.1.012-.049,0-.013.007-.039.005-.026.029-.2a2.186,2.186,0,0,0-.009-.892,1.718,1.718,0,0,0-.488-.8c-.06-.05-.116-.1-.18-.146l-.209-.117a1.932,1.932,0,0,0-.4-.142,1.673,1.673,0,0,0-.821.011,1.794,1.794,0,0,0-.645.323,1.827,1.827,0,0,0-.4.434,2.748,2.748,0,0,0-.225.387C999.837-239.357,999.793-239.224,999.793-239.224Z" fill="#e1a685"/>
                </g>
              </g>
              <g id="Group_110996" data-name="Group 110996">
                <g id="Group_110994" data-name="Group 110994">
                  <path id="Path_170488" data-name="Path 170488" d="M1000.932-236.46a.552.552,0,0,1-.552.551.552.552,0,0,1-.552-.551.552.552,0,0,1,.552-.552A.552.552,0,0,1,1000.932-236.46Z" fill="#fff"/>
                </g>
                <g id="Group_110995" data-name="Group 110995">
                  <path id="Path_170489" data-name="Path 170489" d="M1000.512-236.165a.437.437,0,0,1-.436-.438.43.43,0,0,1,.3-.409h0a.552.552,0,0,0-.552.552.552.552,0,0,0,.552.551.552.552,0,0,0,.552-.551c0-.013,0-.026,0-.039A.43.43,0,0,1,1000.512-236.165Z" fill="#ececec"/>
                </g>
              </g>
            </g>
            <g id="Group_110998" data-name="Group 110998">
              <path id="Path_170490" data-name="Path 170490" d="M1025.025-182.722c-.035-.052-10.059-14.434-10.059-14.434-.469-2.122.588-6.342.588-6.342l3.215-22.118c-.381-2.535-.556-5.753-3.987-5.178a21.235,21.235,0,0,0-4.39,1.224c.437,2.054-3.108,3.373-3.108,3.373-4.877,2.107-6,.719-6,.719a72.4,72.4,0,0,0-6.826,3.832c-1.184.974-1.9,2.49-1.527,5.042l3.51,20.965-.618,5.207-6.411,16.256a13.784,13.784,0,0,1,6.247-.746c1.993.239,3.711,1.414,5.691,1.634,2.992.329,5.213-.751,7.471-2.182a35.989,35.989,0,0,0,8.647-3.039h.188c2.238.012,4.773-.027,6.424-1.778C1024.424-180.657,1025.448-182.114,1025.025-182.722Z" fill="#e86038"/>
            </g>
            <g id="Group_110999" data-name="Group 110999">
              <path id="Path_170491" data-name="Path 170491" d="M990.309-188.087l.059-25.467c.62-6.978,4.086-8.092,4.086-8.092,7.005-.821,5.926,12.16,5.926,12.16l-2.925,21.939" fill="#f4a886"/>
            </g>
            <g id="Group_111000" data-name="Group 111000">
              <path id="Path_170492" data-name="Path 170492" d="M968.011-174.163c3.213-1.721,3.5-2.275,4.068-3.084,2.442-3.47-2.5-3.361-3.739-3.079-.713.163-.757,1.86-2.97,3.93,0,0-3.478,2.018-4.335,1.875,0,0-.892.128-.892.77C960.143-173.751,962.585-172.307,968.011-174.163Z" fill="#f4a886"/>
            </g>
            <g id="Group_111003" data-name="Group 111003">
              <g id="Group_111001" data-name="Group 111001">
                <path id="Path_170493" data-name="Path 170493" d="M994.894-191.593" fill="#f7bc93"/>
              </g>
              <g id="Group_111002" data-name="Group 111002">
                <path id="Path_170494" data-name="Path 170494" d="M990.836-190.771l-21.812,11.939c-.942,2.625.269,3,.269,3l16.888-4.858c7.209-1.931,10.066-4.957,10.066-4.957s3.152-2.184-.871-5.436C995.376-191.081,993.544-192.53,990.836-190.771Z" fill="#f4a886"/>
              </g>
            </g>
            <g id="Group_111004" data-name="Group 111004">
              <path id="Path_170495" data-name="Path 170495" d="M997.857-240.784c.566,4.224-.072,9.814,2.033,14.43.936,2.055,1.97,3.074,1.408,5.458-.459,1.951-1.382,3.791-1.883,5.812-1.1,4.459.4,8.815,5.594,7.2,2.491-.774,2.77-.762,5.039.118a6.594,6.594,0,0,0,5.592.023c2.937-1.432,2.053-3.594,3.7-5.76,1.254-1.651,3.027-1.61,3.973-3.828,1.14-2.677-.219-4.106-1.608-6.378a8.353,8.353,0,0,1-1.2-6.778c.4-2.4-.192-3.609-.985-5.813-.814-2.258-.459-4.226-.845-6.491-.762-4.478-3.209-10.555-7.9-11.869-2.3-.644-5.27-1.147-7.482-.335-3.013,1.1-6.368,2.282-6.238,5.987A61.39,61.39,0,0,0,997.857-240.784Z" fill="#12263f"/>
            </g>
            <path id="Path_170496" data-name="Path 170496" d="M968.923-180.413s.612,1.788-1.614,1.35l-2.179-1.66a.858.858,0,0,1-.437-1.009s.261-.369.956,0Z" fill="#f4a886"/>
          </g>
        </g>
      </g>
      <g id="Group_111008" data-name="Group 111008">
        <path id="Path_170497" data-name="Path 170497" d="M1018.435-380.036a7.531,7.531,0,0,1-7.532,7.531,7.532,7.532,0,0,1-7.531-7.531,7.531,7.531,0,0,1,7.531-7.531A7.53,7.53,0,0,1,1018.435-380.036Z" fill="#e86038"/>
        <path id="Path_170498" data-name="Path 170498" d="M783.564-63.531A7.531,7.531,0,0,1,776.033-56a7.531,7.531,0,0,1-7.531-7.531,7.532,7.532,0,0,1,7.531-7.532A7.531,7.531,0,0,1,783.564-63.531Z" fill="#e86038"/>
        <path id="Path_170499" data-name="Path 170499" d="M776.033-322.721a5.391,5.391,0,0,1-5.39,5.391,5.391,5.391,0,0,1-5.391-5.391,5.39,5.39,0,0,1,5.391-5.389A5.39,5.39,0,0,1,776.033-322.721Z" fill="#e86038"/>
        <path id="Path_170500" data-name="Path 170500" d="M1086.6-282.256a5.39,5.39,0,0,1-5.39,5.389,5.39,5.39,0,0,1-5.391-5.389,5.39,5.39,0,0,1,5.391-5.391A5.391,5.391,0,0,1,1086.6-282.256Z" fill="#e86038"/>
        <circle id="Ellipse_5505" data-name="Ellipse 5505" cx="5.391" cy="5.391" r="5.391" transform="translate(926.72 -339.638)" fill="#a7caec"/>
        <path id="Path_170501" data-name="Path 170501" d="M753.337-209.441a5.389,5.389,0,0,1-5.39,5.389,5.389,5.389,0,0,1-5.39-5.389,5.39,5.39,0,0,1,5.39-5.39A5.39,5.39,0,0,1,753.337-209.441Z" fill="#b5e0f7"/>
        <path id="Path_170502" data-name="Path 170502" d="M1090.916-173.991a5.39,5.39,0,0,1-5.39,5.389,5.39,5.39,0,0,1-5.39-5.389,5.391,5.391,0,0,1,5.39-5.391A5.39,5.39,0,0,1,1090.916-173.991Z" fill="#b5e0f7"/>
        <path id="Path_170503" data-name="Path 170503" d="M897.058-390.611a5.391,5.391,0,0,1-5.39,5.391,5.39,5.39,0,0,1-5.39-5.391,5.39,5.39,0,0,1,5.39-5.389A5.39,5.39,0,0,1,897.058-390.611Z" fill="#ffe9ac"/>
        <path id="Path_170504" data-name="Path 170504" d="M1066.006-90.377a5.391,5.391,0,0,1-5.391,5.391,5.39,5.39,0,0,1-5.389-5.391,5.389,5.389,0,0,1,5.389-5.389A5.39,5.39,0,0,1,1066.006-90.377Z" fill="#ffe9ac"/>
      </g>
      <g id="Group_111040" data-name="Group 111040">
        <g id="Group_111011" data-name="Group 111011">
          <g id="Group_111009" data-name="Group 111009">
            <rect id="Rectangle_36720" data-name="Rectangle 36720" width="16.9" height="12.473" transform="translate(716.012 -173.633)" fill="#98f2f9"/>
          </g>
          <g id="Group_111010" data-name="Group 111010">
            <rect id="Rectangle_36721" data-name="Rectangle 36721" width="8.451" height="12.473" transform="translate(735.432 -173.633)" fill="#98f2f9"/>
          </g>
        </g>
        <g id="Group_111014" data-name="Group 111014">
          <g id="Group_111012" data-name="Group 111012">
            <rect id="Rectangle_36722" data-name="Rectangle 36722" width="19.688" height="13.462" transform="translate(1080.521 -138.059)" fill="#98f2f9"/>
          </g>
          <g id="Group_111013" data-name="Group 111013">
            <rect id="Rectangle_36723" data-name="Rectangle 36723" width="9.844" height="13.462" transform="translate(1103.145 -138.059)" fill="#98f2f9"/>
          </g>
        </g>
        <g id="Group_111017" data-name="Group 111017">
          <g id="Group_111015" data-name="Group 111015">
            <rect id="Rectangle_36724" data-name="Rectangle 36724" width="16.902" height="12.473" transform="translate(885.896 -73.4)" fill="#98f2f9"/>
          </g>
          <g id="Group_111016" data-name="Group 111016">
            <rect id="Rectangle_36725" data-name="Rectangle 36725" width="8.45" height="12.473" transform="translate(874.929 -73.4)" fill="#98f2f9"/>
          </g>
        </g>
        <g id="Group_111021" data-name="Group 111021">
          <g id="Group_111018" data-name="Group 111018">
            <rect id="Rectangle_36726" data-name="Rectangle 36726" width="7.092" height="12.473" transform="translate(1067.565 -365.783)" fill="#98f2f9"/>
          </g>
          <g id="Group_111019" data-name="Group 111019">
            <rect id="Rectangle_36727" data-name="Rectangle 36727" width="6.13" height="12.473" transform="translate(1076.485 -365.783)" fill="#98f2f9"/>
          </g>
          <g id="Group_111020" data-name="Group 111020">
            <rect id="Rectangle_36728" data-name="Rectangle 36728" width="6.13" height="12.473" transform="translate(1059.333 -365.783)" fill="#98f2f9"/>
          </g>
        </g>
        <g id="Group_111022" data-name="Group 111022">
          <rect id="Rectangle_36729" data-name="Rectangle 36729" width="24.904" height="12.473" transform="translate(1070.757 -246.517)" fill="#98f2f9"/>
        </g>
        <g id="Group_111027" data-name="Group 111027">
          <g id="Group_111023" data-name="Group 111023">
            <rect id="Rectangle_36730" data-name="Rectangle 36730" width="12.473" height="3.333" transform="translate(946.059 -373.359) rotate(-45)" fill="#98f2f9"/>
          </g>
          <g id="Group_111024" data-name="Group 111024">
            <rect id="Rectangle_36731" data-name="Rectangle 36731" width="12.472" height="3.332" transform="translate(950.078 -369.34) rotate(-45.006)" fill="#98f2f9"/>
          </g>
          <g id="Group_111025" data-name="Group 111025">
            <rect id="Rectangle_36732" data-name="Rectangle 36732" width="3.333" height="12.473" transform="matrix(0.707, -0.707, 0.707, 0.707, 950.077, -379.822)" fill="#98f2f9"/>
          </g>
          <g id="Group_111026" data-name="Group 111026">
            <rect id="Rectangle_36733" data-name="Rectangle 36733" width="3.332" height="12.472" transform="translate(946.06 -375.805) rotate(-44.994)" fill="#98f2f9"/>
          </g>
        </g>
        <g id="Group_111032" data-name="Group 111032">
          <g id="Group_111028" data-name="Group 111028">
            <rect id="Rectangle_36734" data-name="Rectangle 36734" width="12.472" height="3.332" transform="translate(726.163 -283.043) rotate(-45.006)" fill="#98f2f9"/>
          </g>
          <g id="Group_111029" data-name="Group 111029">
            <rect id="Rectangle_36735" data-name="Rectangle 36735" width="12.472" height="3.332" transform="translate(730.182 -279.025) rotate(-45.006)" fill="#98f2f9"/>
          </g>
          <g id="Group_111030" data-name="Group 111030">
            <rect id="Rectangle_36736" data-name="Rectangle 36736" width="3.332" height="12.472" transform="translate(730.182 -289.508) rotate(-44.994)" fill="#98f2f9"/>
          </g>
          <g id="Group_111031" data-name="Group 111031">
            <rect id="Rectangle_36737" data-name="Rectangle 36737" width="3.332" height="12.472" transform="translate(726.163 -285.489) rotate(-44.994)" fill="#98f2f9"/>
          </g>
        </g>
        <g id="Group_111037" data-name="Group 111037">
          <g id="Group_111033" data-name="Group 111033">
            <rect id="Rectangle_36738" data-name="Rectangle 36738" width="12.473" height="3.333" transform="translate(914.641 -136.107) rotate(-45)" fill="#98f2f9"/>
          </g>
          <g id="Group_111034" data-name="Group 111034">
            <rect id="Rectangle_36739" data-name="Rectangle 36739" width="12.472" height="3.332" transform="translate(918.66 -132.088) rotate(-45.006)" fill="#98f2f9"/>
          </g>
          <g id="Group_111035" data-name="Group 111035">
            <rect id="Rectangle_36740" data-name="Rectangle 36740" width="3.333" height="12.473" transform="matrix(0.707, -0.707, 0.707, 0.707, 918.659, -142.57)" fill="#98f2f9"/>
          </g>
          <g id="Group_111036" data-name="Group 111036">
            <rect id="Rectangle_36741" data-name="Rectangle 36741" width="3.332" height="12.472" transform="translate(914.642 -138.552) rotate(-44.994)" fill="#98f2f9"/>
          </g>
        </g>
        <g id="Group_111038" data-name="Group 111038">
          <path id="Path_170505" data-name="Path 170505" d="M781.561-357.456a9.171,9.171,0,0,1-9.162-9.161,9.172,9.172,0,0,1,9.162-9.161,9.172,9.172,0,0,1,9.16,9.161A9.171,9.171,0,0,1,781.561-357.456Zm0-12.472a3.315,3.315,0,0,0-3.313,3.311,3.316,3.316,0,0,0,3.313,3.312,3.315,3.315,0,0,0,3.311-3.312A3.314,3.314,0,0,0,781.561-369.928Z" fill="#98f2f9"/>
        </g>
        <g id="Group_111039" data-name="Group 111039">
          <path id="Path_170506" data-name="Path 170506" d="M996.552-310.736a9.171,9.171,0,0,1-9.16-9.161,9.171,9.171,0,0,1,9.16-9.162,9.171,9.171,0,0,1,9.16,9.162A9.171,9.171,0,0,1,996.552-310.736Zm0-12.472a3.316,3.316,0,0,0-3.313,3.311,3.316,3.316,0,0,0,3.313,3.311,3.315,3.315,0,0,0,3.312-3.311A3.315,3.315,0,0,0,996.552-323.208Z" fill="#98f2f9"/>
        </g>
      </g>
    </g>
  </g>
</svg>
