<svg xmlns="http://www.w3.org/2000/svg" xmlns:xlink="http://www.w3.org/1999/xlink" width="289" height="220.7" viewBox="0 0 289 220.7">
  <defs>
    <linearGradient id="linear-gradient" x1="4.64" y1="0.266" x2="5.64" y2="0.266" gradientUnits="objectBoundingBox">
      <stop offset="0.145" stop-color="#f2f2f2"/>
      <stop offset="0.255" stop-color="#e9e9e9"/>
      <stop offset="0.402" stop-color="#e6e6e6"/>
      <stop offset="0.586" stop-color="#dfdfdf"/>
      <stop offset="0.832" stop-color="#cecece"/>
      <stop offset="0.866" stop-color="#ccc"/>
    </linearGradient>
    <linearGradient id="linear-gradient-2" x1="-9.422" y1="1.624" x2="-8.422" y2="1.624" xlink:href="#linear-gradient"/>
    <linearGradient id="linear-gradient-3" x1="-7.428" y1="0.042" x2="-6.428" y2="0.042" xlink:href="#linear-gradient"/>
    <linearGradient id="linear-gradient-4" x1="-0.175" y1="0.491" x2="0.825" y2="0.491" xlink:href="#linear-gradient"/>
  </defs>
  <g id="t2-i2" transform="translate(-612.16 696.539)">
    <circle id="Ellipse_5497" data-name="Ellipse 5497" cx="74.142" cy="74.142" r="74.142" transform="translate(612.234 -639.584)" fill="#e3f8f9"/>
    <path id="Path_169528" data-name="Path 169528" d="M669.245-625.138s16.923-13.661,33.14-20.991,31.378-9.662,44.775-5.331,34.9,27.987,47.948,30.32,39.134.666,54.647,1,48.653,6.664,54.646,47.313-19.038,61.64-46.89,61.306-43.717-4-86.376,20.325-90.608,39.649-121.28,8.663S619.182-580.158,669.245-625.138Z" transform="translate(-4.137 -10.647)" fill="#fff"/>
    <g id="Group_110581" data-name="Group 110581" transform="translate(805.573 -622.948)">
      <circle id="Ellipse_5498" data-name="Ellipse 5498" cx="20.808" cy="20.808" r="20.808" transform="matrix(0.997, -0.079, 0.079, 0.997, 7.556, 9.94)" opacity="0.6" fill="url(#linear-gradient)" style="mix-blend-mode: multiply;isolation: isolate"/>
      <path id="Path_169529" data-name="Path 169529" d="M907.324-597.4c-1.064,1.786-2.158,3.553-3.2,5.349-.325.559-.611.714-1.422.583a24.243,24.243,0,0,0-5.046-.313c-1.03.05-1.4-.011-1.719-.741-.811-1.874-1.71-3.71-2.537-5.577-.314-.708-.736-.767-1.759-.1a12.882,12.882,0,0,1-5.419,1.993c-1.352.175-1.709.408-1.494,1.233.531,2.043.962,4.113,1.5,6.155a1.074,1.074,0,0,1-.432,1.283c-1.412,1.221-2.747,2.529-4.151,3.759a1.135,1.135,0,0,1-.947.15c-2.185-.761-4.352-1.573-6.593-2.394a25.5,25.5,0,0,0-3.818,7.633c-.072.226.264.717.535.891q2.532,1.636,5.132,3.167c.674.395.85.791.707,1.715a27.134,27.134,0,0,0-.219,5.088c.022.647-.139.9-.638,1.129-2.1.965-4.189,1.964-6.4,3,.285,1.144.482,2.286.859,3.365.527,1.508,1.195,2.968,1.789,4.453a.894.894,0,0,0,1.264.593q3.053-.832,6.144-1.526a1.217,1.217,0,0,1,.972.329c1.219,1.323,2.353,2.724,3.585,4.033a1.079,1.079,0,0,1,.278,1.329c-.81,2.13-1.568,4.28-2.371,6.5a25.875,25.875,0,0,0,8.161,4.057c1.156-1.935,2.354-3.834,3.432-5.8a1.4,1.4,0,0,1,1.7-.789c1.749.2,3.516.268,5.277.305.577.012.892.074,1.152.67.921,2.115,2.059,4.494,3.1,6.72l1.035-.4c2.143-.815,4.322-1.656,6.511-2.468.695-.258.889-.593.671-1.371-.541-1.932-.933-3.9-1.427-5.85a1.106,1.106,0,0,1,.512-1.354A40.089,40.089,0,0,0,916-554.077a1.074,1.074,0,0,1,1.326-.373c1.94.735,3.9,1.422,5.837,2.159.626.238,1.032.237,1.322-.788a20.616,20.616,0,0,1,2.9-5.991c.531-.777.421-1.152-.187-1.508-1.79-1.05-3.546-2.161-5.342-3.2a.939.939,0,0,1-.538-1.113c.19-1.922.3-3.854.344-5.784.013-.62.091-.968.7-1.246,2.074-.942,4.115-1.957,6.169-2.943l-.084-1.02c-.284-.974-.516-1.967-.866-2.916-.5-1.368-1.108-2.7-1.643-4.059-.208-.527-.506-.6-1.032-.459-2.265.6-4.544,1.159-6.6,1.678-1.617-1.7-3.128-3.25-4.59-4.849a1.219,1.219,0,0,1-.236-1.014c.666-1.967,1.371-3.922,2.133-5.853.354-.9.1-1.323-1.7-1.586a8.985,8.985,0,0,1-4.76-2.336C907.945-598.405,907.658-597.956,907.324-597.4Zm8.891,28.886a17.4,17.4,0,0,1-18.25,16.465A17.4,17.4,0,0,1,881.5-570.294a17.4,17.4,0,0,1,18.25-16.466A17.4,17.4,0,0,1,916.216-568.51Z" transform="translate(-869.406 598.661)" fill="#f6bf28"/>
      <path id="Path_169530" data-name="Path 169530" d="M887.376-565.936a16.163,16.163,0,0,0,15.294,16.952,16.163,16.163,0,0,0,16.952-15.3,16.163,16.163,0,0,0-15.294-16.952A16.163,16.163,0,0,0,887.376-565.936Zm27.18.133a11.141,11.141,0,0,1-10.164,11.961,11.118,11.118,0,0,1-11.97-10.146,11.021,11.021,0,0,1,10.107-11.961A11.033,11.033,0,0,1,914.556-565.8Z" transform="translate(-873.86 594.341)" fill="#5085c7"/>
      <path id="Path_169531" data-name="Path 169531" d="M901.985-546.091a14.674,14.674,0,0,0,12.541-4.442l-.208-.2a14.385,14.385,0,0,1-12.3,4.356,14.35,14.35,0,0,1-12.324-16.1l-.283-.038A14.637,14.637,0,0,0,901.985-546.091Z" transform="translate(-874.339 589.689)" fill="#12263f"/>
      <path id="Path_169532" data-name="Path 169532" d="M896.514-575.814a14.384,14.384,0,0,1,8.708-3.289l-.008-.286a14.673,14.673,0,0,0-8.882,3.355Z" transform="translate(-876.087 593.879)" fill="#12263f"/>
      <path id="Path_169533" data-name="Path 169533" d="M925.7-561.987l.283.038a14.607,14.607,0,0,0-5.975-13.809l-.167.232A14.32,14.32,0,0,1,925.7-561.987Z" transform="translate(-881.921 592.978)" fill="#12263f"/>
      <path id="Path_169534" data-name="Path 169534" d="M884.675-576.138a20.178,20.178,0,0,0-.661,18.285l.356-.165a19.786,19.786,0,0,1,.647-17.929,19.736,19.736,0,0,1,26.816-7.624l.192-.343A20.129,20.129,0,0,0,884.675-576.138Z" transform="translate(-872.566 595.631)" fill="#e73233"/>
      <path id="Path_169535" data-name="Path 169535" d="M933.737-567.88a19.783,19.783,0,0,1-.2,12.8l.369.134a20.167,20.167,0,0,0,.2-13.055Z" transform="translate(-885.32 591.053)" fill="#e73233"/>
    </g>
    <g id="Group_110584" data-name="Group 110584" transform="translate(726.126 -654.351)">
      <path id="Path_169536" data-name="Path 169536" d="M769.26-602.3l.632-.719,0-.008-.567.62a.509.509,0,0,1-.13.1l-.062.034a.08.08,0,0,1-.117-.084.628.628,0,0,1,.123-.281l.56-.714a2.173,2.173,0,0,1,.446-.538l-.308.148c-.063.027-.212.065-.275-.018-.014-.017-.026-.036-.039-.054.085-.071.437-.294.557-.38a5.251,5.251,0,0,1,.952-.214l.233-.42.566.423-.265.351-.162.4-.5.789h0v0h0l-.48.6a.878.878,0,0,1-.133.123l-.064.048c-.062.047-.144.041-.138-.01a.52.52,0,0,1,.107-.247l.2-.271-.529.525a.971.971,0,0,1-.159.126l-.076.05c-.072.047-.162.039-.152-.014a.572.572,0,0,1,.142-.256l.41-.453-.472.477a1.143,1.143,0,0,1-.19.15l-.09.058c-.087.055-.2.038-.183-.028A.683.683,0,0,1,769.26-602.3Z" transform="translate(-765.048 631.594)" fill="#cc7f7f"/>
      <path id="Path_169537" data-name="Path 169537" d="M772.417-607.19l-.668-.181a22.769,22.769,0,0,1,1.138-4.218l.006-.019.47-1.292c.7-1.939,2.152-3.866,3-3.668l.286.067c.857.2.354,2.362-.758,4.215l-.741,1.233-.011.018A27.228,27.228,0,0,1,772.417-607.19Z" transform="translate(-765.727 634.51)" fill="#cc7f7f"/>
      <path id="Path_169538" data-name="Path 169538" d="M768.8-636.237c.52,1.355,1.586,2.206,2.381,1.9s1.016-1.65.5-3.005-1.586-2.206-2.381-1.9S768.28-637.591,768.8-636.237Z" transform="translate(-764.926 640.148)" fill="#f6a9a9"/>
      <path id="Path_169539" data-name="Path 169539" d="M769.295-634.438a4.019,4.019,0,0,1-.047.956c-.086.259.055.241.468.071a3.2,3.2,0,0,0,.591-.3Z" transform="translate(-765.1 638.941)" fill="#f6a9a9"/>
      <path id="Path_169540" data-name="Path 169540" d="M773.018-633.645l-1.124.712a.435.435,0,0,1-.565-.086l-1.414-1.138-.329-2.249,1.944-.629,1.9,2.225Z" transform="translate(-765.19 639.585)" fill="#f6a9a9"/>
      <path id="Path_169541" data-name="Path 169541" d="M775.071-630.859l1.162-1.275-1.789-1.63-1.162,1.275A4.764,4.764,0,0,1,775.071-630.859Z" transform="translate(-766.108 638.773)" fill="#f6a9a9"/>
      <g id="Group_110582" data-name="Group 110582" transform="translate(20.091 50.253)">
        <path id="Path_169542" data-name="Path 169542" d="M793.09-573.588l.431,1.561-2.393,1.936.885-3.179Z" transform="translate(-790.626 573.588)" fill="#cc7f7f"/>
        <path id="Path_169543" data-name="Path 169543" d="M790.555-569.14l2-.944a.741.741,0,0,0,.377-.414l.433-1.186.47.993.3-.141-.258-1.251a1.05,1.05,0,0,0-.462-.671l-.266-.17a.131.131,0,0,0-.189.053l-.713,1.467a1.677,1.677,0,0,1-.617.687l-.224.14a2.425,2.425,0,0,0-.442.356l-.251.257a.944.944,0,0,0-.1.162,1.2,1.2,0,0,0-.114.357l-.035.234A.066.066,0,0,0,790.555-569.14Z" transform="translate(-790.461 573.428)" fill="#12263f"/>
      </g>
      <g id="Group_110583" data-name="Group 110583" transform="translate(31.378 19.441)">
        <path id="Path_169544" data-name="Path 169544" d="M805.505-611.143l.354-1.212,2.564-.108-1.829,1.594Z" transform="translate(-805.481 614.047)" fill="#f6a9a9"/>
        <path id="Path_169545" data-name="Path 169545" d="M810.074-613.2l-2.07-.765a.736.736,0,0,0-.559.02l-1.15.52.381-1.031-.311-.115-.713,1.059a1.049,1.049,0,0,0-.156.8l.065.309a.131.131,0,0,0,.171.1l1.546-.516a1.67,1.67,0,0,1,.923-.039l.257.062a2.4,2.4,0,0,0,.563.067h.359a.968.968,0,0,0,.183-.044,1.2,1.2,0,0,0,.335-.169l.192-.138A.066.066,0,0,0,810.074-613.2Z" transform="translate(-805.473 614.569)" fill="#12263f"/>
      </g>
      <path id="Path_169546" data-name="Path 169546" d="M781.44-611.518c.817-2.165,2.18-3.688,4.483-3.081l.654.172c3.348.881,2.737,4.711,1.935,7.561a35.861,35.861,0,0,1-2.4,6.239,18.861,18.861,0,0,1-3.153,5.09,1.533,1.533,0,0,1-1.34.549c-.329-.086-.7-.452-.938-1.149-.75-2.177-.583-5.291-.48-7.614A27.327,27.327,0,0,1,781.44-611.518Z" transform="translate(-767.802 634.051)" fill="#209299"/>
      <path id="Path_169547" data-name="Path 169547" d="M789.227-577.5a69.4,69.4,0,0,1-6.478-9.588l-.016-.027-.906-1.668c-1.05-1.934-1.193-3.873-.32-4.332l.293-.154c.874-.458,2.434.738,3.484,2.671l.906,1.668.014.028a66.332,66.332,0,0,1,4.442,10.44S789.85-577.405,789.227-577.5Z" transform="translate(-768.007 628.749)" fill="#209299"/>
      <path id="Path_169548" data-name="Path 169548" d="M785.551-609.616c-.326-2.153-.718-5.188,1.247-5.732l.557-.154c2.856-.79,4.8,3.805,5.426,6.514a37.205,37.205,0,0,1,.9,6.222,19.4,19.4,0,0,1-.147,5.619c-.174.644-.475.981-.756,1.059s-.709-.056-1.186-.522c-1.49-1.452-2.7-4.092-3.625-6.05A27.918,27.918,0,0,1,785.551-609.616Z" transform="translate(-769.085 634.264)" fill="#28b5bd"/>
      <path id="Path_169549" data-name="Path 169549" d="M804.05-610.667a73.832,73.832,0,0,1-4.995,10.97l-.016.029-.992,1.728c-1.15,2-2.809,3.27-3.706,2.829l-.3-.148c-.9-.441-.693-2.422.457-4.425l.992-1.729.017-.028a73.889,73.889,0,0,1,6.889-9.814S803.786-611.23,804.05-610.667Z" transform="translate(-771.12 633.188)" fill="#28b5bd"/>
      <path id="Path_169550" data-name="Path 169550" d="M793.7-606.289a12.234,12.234,0,0,1-3.534-2.193c-1.833-1.674-5.668-7.642-1.641-9C793.443-619.141,795.852-612.554,793.7-606.289Z" transform="translate(-769.451 634.798)" fill="#28b5bd"/>
      <path id="Path_169551" data-name="Path 169551" d="M773.348-628.366a2.686,2.686,0,0,1,2-3.065l.419-.056a2.454,2.454,0,0,1,2.523,2.467l.124,1.318,0,.022a26.082,26.082,0,0,1-.917,9c-.206.444-.464.654-.674.682s-.5-.11-.784-.489a24.9,24.9,0,0,1-2.568-8.542l0-.021Z" transform="translate(-766.12 638.213)" fill="#c080b1"/>
      <path id="Path_169552" data-name="Path 169552" d="M775.77-631.487l-.419.056a2.686,2.686,0,0,0-2,3.065l.124,1.318,0,.021a26.745,26.745,0,0,0,2.012,7.458,9.309,9.309,0,0,0-1.731,2.967l-.113.309c.723.369,1.456.721,2.2,1.049l.447-.744a9.61,9.61,0,0,0,1.038-2.385,1.911,1.911,0,0,0,.174-.305,26.082,26.082,0,0,0,.917-9l0-.022-.124-1.318A2.454,2.454,0,0,0,775.77-631.487Z" transform="translate(-766.12 638.213)" fill="#e0aa16"/>
      <path id="Path_169553" data-name="Path 169553" d="M788.26-622.972a39.487,39.487,0,0,0-7.757-9.142c-2.1-1.436-3.638-1.8-5.407-.618h0a4.062,4.062,0,0,0-1.521,5.226s4.14,2.818,5.705,10.168c.171.805-.551,2.382,1.114,1.995,0,0,5.808-.98,9.144-5.431a.827.827,0,0,0-.174-1.168A4.012,4.012,0,0,1,788.26-622.972Z" transform="translate(-766.073 638.692)" fill="#f6bf28"/>
      <path id="Path_169554" data-name="Path 169554" d="M774.05-628.859l3.425-.551a15.83,15.83,0,0,1,.505,1.788,39.653,39.653,0,0,1,.877,6.3q.114,1.777.086,3.557c-1.755-6.293-5.355-8.746-5.355-8.746a3.486,3.486,0,0,1-.389-1.177Z" transform="translate(-766.087 637.693)" fill="#bd8e12"/>
      <path id="Path_169555" data-name="Path 169555" d="M764.017-603.79l.728-.789,0-.009-.653.682a.593.593,0,0,1-.149.11l-.07.036a.09.09,0,0,1-.129-.1.709.709,0,0,1,.146-.313l.647-.786a2.425,2.425,0,0,1,.515-.592l-.349.158c-.071.029-.241.068-.309-.027l-.042-.062c.1-.078.5-.319.635-.413a5.925,5.925,0,0,1,1.074-.217l.273-.465.625.489-.307.387-.191.447-.586.873h0l-.554.658a.954.954,0,0,1-.152.135l-.074.053c-.07.05-.162.042-.155-.014a.585.585,0,0,1,.126-.274l.234-.3-.607.575a1.074,1.074,0,0,1-.181.137l-.086.053c-.083.051-.184.04-.171-.02a.642.642,0,0,1,.165-.283l.472-.5-.542.523a1.294,1.294,0,0,1-.217.164l-.1.062c-.1.059-.221.038-.205-.036A.778.778,0,0,1,764.017-603.79Z" transform="translate(-763.74 632.027)" fill="#f6a9a9"/>
      <path id="Path_169556" data-name="Path 169556" d="M773.1-629.232c.167-1.572,1.2-2.75,2.316-2.632l.373.04c1.113.118,1.879,1.488,1.712,3.059l-.144,1.356,0,.022a29.9,29.9,0,0,1-2.509,8.861c-.262.4-.526.553-.714.534s-.413-.226-.585-.671a29.9,29.9,0,0,1-.592-9.19v-.023Z" transform="translate(-765.995 638.304)" fill="#dca1c8"/>
      <path id="Path_169557" data-name="Path 169557" d="M767.286-608.533l-.539-.52a31.38,31.38,0,0,1,2.272-4.677l.011-.02.8-1.379c1.205-2.068,3.069-3.794,3.768-3.17l.235.209c.7.627-.391,3.06-1.934,4.843l-1.026,1.186-.016.017A26.673,26.673,0,0,1,767.286-608.533Z" transform="translate(-764.486 634.968)" fill="#f6a9a9"/>
      <path id="Path_169558" data-name="Path 169558" d="M775.264-631.825l-.373-.04c-1.112-.118-2.149,1.06-2.316,2.632l-.144,1.356v.023a28.772,28.772,0,0,0,.02,5.593,3.488,3.488,0,0,1-.731,2.462,12.1,12.1,0,0,0-.9,1.334l-.111.189a13.69,13.69,0,0,0,1.871,2.049l.308-.356a11.943,11.943,0,0,0,1.181-1.631,1.8,1.8,0,0,0,.254-.313,29.9,29.9,0,0,0,2.509-8.861l0-.022.144-1.356C777.143-630.337,776.377-631.707,775.264-631.825Z" transform="translate(-765.468 638.304)" fill="#f6bf28"/>
      <path id="Path_169559" data-name="Path 169559" d="M770.764-638.052a2.109,2.109,0,0,0-1.347-.361,4.122,4.122,0,0,1,.919-1.367c1.668-1.673,4.107.545,6.67,2.107,2.453,1.495,4.972.792,6.273.6a3.561,3.561,0,0,1,4.268,4.292c-.418,1.746-3.413,2.091-5.195,1.88s-2.313-2.629-3.422-3.283c-1.258-.743-2.162-.5-3.589-.147-2.059.511-2.433-1.247-3.116-2.225a1.111,1.111,0,0,0-.647-.456A2.328,2.328,0,0,0,770.764-638.052Z" transform="translate(-765.148 640.414)" fill="#12263f"/>
      <path id="Path_169560" data-name="Path 169560" d="M768.641-639.572a1.448,1.448,0,0,0-.607,1.214.715.715,0,0,0,.535.714,1.069,1.069,0,0,0,1.108-.117.906.906,0,0,1,.985.065,2.825,2.825,0,0,0,1.5.381c.962.026,2.6-1.431,1.963-1.924a6.435,6.435,0,0,0-2.06-1.058A3.9,3.9,0,0,0,768.641-639.572Z" transform="translate(-764.805 640.427)" fill="#12263f"/>
      <path id="Path_169561" data-name="Path 169561" d="M772.346-636.627c.054-.319.575-.386,1.031.268.252.362.342,1.541-.392,1.2,0,0-2.057-1.481-1.369-1.592C771.709-636.763,772.278-636.228,772.346-636.627Z" transform="translate(-765.659 639.542)" fill="#f6a9a9"/>
    </g>
    <g id="Group_110587" data-name="Group 110587" transform="translate(636.424 -557.326)">
      <path id="Path_169562" data-name="Path 169562" d="M675.758-490.3c-.221.02-.437.221-.544.213a1.2,1.2,0,0,1-.243-.051c-.013,0-.025,0-.038,0a7.716,7.716,0,0,0-1.1.045l-.065.032a3.9,3.9,0,0,0-.526.729l-.4.066.449.744s.2-.09.518-.2a7.625,7.625,0,0,0,1.083-.557l.774-.4a.362.362,0,0,0,.144-.134l.244-.4a.232.232,0,0,0,.032-.089l.1-.665C675.811-491.029,675.758-490.3,675.758-490.3Z" transform="translate(-651.482 506.316)" fill="#cc7f7f"/>
      <path id="Path_169563" data-name="Path 169563" d="M670.193-488.92a19.735,19.735,0,0,0-4.059.229l-.019,0-1.243.187a7.963,7.963,0,0,0-1.268.3.752.752,0,0,1-.886-.35c-.156-.274-.332-.575-.526-.893a14.01,14.01,0,0,1-1.982,2.6c.457.318.863.583,1.192.782v0c.191.871,2.272.831,4.056.138l1.187-.461.017-.008a19.794,19.794,0,0,0,3.7-1.844Z" transform="translate(-648.347 505.937)" fill="#209299"/>
      <g id="Group_110585" data-name="Group 110585" transform="translate(8.487 61.795)">
        <path id="Path_169564" data-name="Path 169564" d="M656.609-429.183l-.889,3.3a1.906,1.906,0,0,0,1.909.126l.629-2.948A16.822,16.822,0,0,0,656.609-429.183Z" transform="translate(-655.72 429.19)" fill="#12263f"/>
        <path id="Path_169565" data-name="Path 169565" d="M657.956-426.812s-.314.918.167,1.247,1,.253,1.814.138c1.056-.15,2.689,1.318.627,1.2a5.875,5.875,0,0,1-2.786-.8,1.261,1.261,0,0,1-.217-1.283Z" transform="translate(-656.156 428.6)" fill="#12263f"/>
      </g>
      <path id="Path_169566" data-name="Path 169566" d="M658.471-474.04c-2.124-2.081-4.48-3.18-6.652-1.426l-.616.5c-3.156,2.548,5.529,15.576,7.253,17.842,2.193,2.883,6.155,6.706,7.4,4.764a8.042,8.042,0,0,0,1.253-4.764c0-3.2-1.428-6.077-2.862-8.667A38.088,38.088,0,0,0,658.471-474.04Z" transform="translate(-645.943 502.685)" fill="#cc5531"/>
      <path id="Path_169567" data-name="Path 169567" d="M658.224-432.4a54.264,54.264,0,0,0,6.852-9.557l.016-.028,2.539-4.515c.927-2.232.159-3.365-1-3.979,0,0-4.6,1.825-4.608,1.834-2,3.637-5.115,12.66-5.71,15.011C656.316-433.629,657.455-432.378,658.224-432.4Z" transform="translate(-647.381 496.267)" fill="#cc5531"/>
      <g id="Group_110586" data-name="Group 110586" transform="translate(0.504 62.264)">
        <path id="Path_169568" data-name="Path 169568" d="M646.4-428.561l-1.3,3.163a1.906,1.906,0,0,0,1.877.369l1-2.844A16.656,16.656,0,0,0,646.4-428.561Z" transform="translate(-645.102 428.567)" fill="#12263f"/>
        <path id="Path_169569" data-name="Path 169569" d="M647.328-426.224s-.26.934.239,1.235,1.012.2,1.82.032c1.044-.211,2.761,1.16.7,1.163a5.864,5.864,0,0,1-2.828-.633,1.262,1.262,0,0,1-.291-1.268Z" transform="translate(-645.549 427.986)" fill="#12263f"/>
      </g>
      <path id="Path_169570" data-name="Path 169570" d="M647.695-431.245a73.366,73.366,0,0,0,8.2-10.7c.006-.011.013-.02.02-.03l1.152-1.889c1.335-2.189,1.541-4.5.46-5.156l-.362-.22c-1.08-.659-4.018-.321-4.025-.311-5.077,8.226-6.277,14.359-7.2,16.97C645.942-432.575,646.919-431.211,647.695-431.245Z" transform="translate(-644.807 496.06)" fill="#e86038"/>
      <path id="Path_169571" data-name="Path 169571" d="M655.56-476.083c-1.363-2.643-4.619-2.02-7.231-1.037l-.741.279c-3.8,1.429-2.37,6.183-.9,9.687,1.115,2.654,5.634,13.379,7.428,14.827a4.943,4.943,0,0,0,3.071.438c.373-.14.784-1.546.941-2.444a40.613,40.613,0,0,0-.126-9.778C657.753-466.556,657.128-473.041,655.56-476.083Z" transform="translate(-644.612 503.089)" fill="#e86038"/>
      <path id="Path_169572" data-name="Path 169572" d="M652.214-508.253c1.144.986,1.885,3.313,1.488,3.7-.836.814-3.288.7-4.431-.285a2.529,2.529,0,0,1-.6-3.492A2.529,2.529,0,0,1,652.214-508.253Z" transform="translate(-645.367 510.793)" fill="#f6a9a9"/>
      <path id="Path_169573" data-name="Path 169573" d="M653.562-501.1l-1.922.671-1.02-2.919,2.262-.652A6.272,6.272,0,0,0,653.562-501.1Z" transform="translate(-645.968 509.548)" fill="#f6a9a9"/>
      <path id="Path_169574" data-name="Path 169574" d="M653.2-507.623a6.89,6.89,0,0,0,1.332.053c.3-.069.471-.007.326.4a1.636,1.636,0,0,1-.546.686Z" transform="translate(-646.608 510.448)" fill="#f6a9a9"/>
      <path id="Path_169575" data-name="Path 169575" d="M659.984-489.762c-.331.3-.674.576-1.026.846a34.945,34.945,0,0,1-5.542-4.618c.523-1.824,1.062-3.643,1.641-5.449.1.094.2.193.29.3l.961,1.1.015.019a43.531,43.531,0,0,1,4.727,6.673A10.929,10.929,0,0,1,659.984-489.762Z" transform="translate(-646.662 508.304)" fill="#209299"/>
      <path id="Path_169576" data-name="Path 169576" d="M649.124-500.992c.307-.191.032-.444.3-.444l2.2.251c.685-.017.344.347.455.444,2.992,2.6,3.339,10.385,4.43,16.978a3.051,3.051,0,0,1,.04.369,1.213,1.213,0,0,1,.105.661c-.174,1.384-2.763,2.649-5.989,2.833-2.88.165-5.336-.574-5.98-1.749l-.006-.011c-.014-.026-.028-.053-.04-.08a2.412,2.412,0,0,1-.2-1.072,54.188,54.188,0,0,1,.291-7.18C645.758-499.912,649.012-501.012,649.124-500.992Z" transform="translate(-644.432 508.913)" fill="#28b5bd"/>
      <path id="Path_169577" data-name="Path 169577" d="M657.855-481.421c-.517-3.127-.868-6.521-1.412-9.5q-.85-.127-1.7-.258c-1.6-.247-3.241-.655-4.867-.814,1.269,3.632,3.042,7.32,6,9.707a13.354,13.354,0,0,0,2.063,1.359c-.014-.041-.029-.081-.047-.122A3.063,3.063,0,0,0,657.855-481.421Z" transform="translate(-645.783 506.57)" fill="#209299"/>
      <path id="Path_169578" data-name="Path 169578" d="M648.961-505.288s.273-.145.083-.652a.916.916,0,0,1,.2-.935.975.975,0,0,0,.47-1.127c-.053-.269-.285-.621-.172-.9a.535.535,0,0,1,.175-.205c.5-.392,1.221-.473,1.617-1a.793.793,0,0,0-.592-1.27c-.61.014-.954,1.213-1.5,1.27-.277.029-.489-.145-.741-.215a1.556,1.556,0,0,0-.936.086,1.789,1.789,0,0,0-1.232,1.373,1.494,1.494,0,0,1-.439,1.09c-.186.139-.4.238-.586.371a1.631,1.631,0,0,0-.68.98c-.189.917.692,1.572,1.514,1.671.7.084.751.511.844.85a1.1,1.1,0,0,0,1.991.176.675.675,0,0,0,.62-.08l.007-.753A2.325,2.325,0,0,1,648.961-505.288Z" transform="translate(-644.476 511.38)" fill="#12263f"/>
      <path id="Path_169579" data-name="Path 169579" d="M649.751-505.069c.148.416.458.686.691.6s.3-.488.153-.9-.457-.686-.69-.6S649.6-505.485,649.751-505.069Z" transform="translate(-645.733 510.042)" fill="#f6a9a9"/>
      <path id="Path_169580" data-name="Path 169580" d="M667.667-489.593a29.322,29.322,0,0,1-4.762.39,12.545,12.545,0,0,0-2.443.364,2.088,2.088,0,0,1-2.426-1.156,36.5,36.5,0,0,0-3.665-6.47l-.016-.023-.988-1.35c-1.146-1.566-2.97-2.176-4.074-1.363l-.371.273c-1.1.813-1.071,2.741.074,4.307l.989,1.351.017.021a39.225,39.225,0,0,0,7.543,7.489c.674,1.238,4.182.805,6.5-.3l1.334-.637.018-.009a7.049,7.049,0,0,0,2.541-2.1Z" transform="translate(-645.346 508.447)" fill="#28b5bd"/>
      <path id="Path_169581" data-name="Path 169581" d="M654.4-488.4a34.678,34.678,0,0,1-4.4-4.845l-.017-.021L649-494.62c-1.145-1.565-1.178-3.494-.074-4.307l.371-.273c1.1-.813,2.929-.2,4.074,1.363l.988,1.35.016.023a32.121,32.121,0,0,1,2.743,4.545A17.214,17.214,0,0,0,654.4-488.4Z" transform="translate(-645.346 508.447)" fill="#28b5bd"/>
    </g>
    <g id="Group_110593" data-name="Group 110593" transform="translate(803.881 -566.893)">
      <path id="Path_169582" data-name="Path 169582" d="M869.828-516.6s-.141-.315-.064-.429.374-.619.374-.619l.054-.223s.34-.318.4-.38.132-.169-.037-.2a.809.809,0,0,0-.58.2.626.626,0,0,1-.3.179,5.629,5.629,0,0,0-.3-.562s-.144-.765-.234-1.076-.138-.477-.229-.472-.141.2-.1.547c.032.257.083.634.1.808a.021.021,0,0,1-.04.013c-.118-.217-.433-.8-.511-.935-.1-.174-.257-.446-.366-.393s.106.652.2.922c.064.178.148.38.2.5a.015.015,0,0,1-.026.016c-.153-.188-.523-.635-.645-.75-.156-.146-.252-.174-.295-.135s.018.276.129.469c.087.153.381.592.5.77a.016.016,0,0,1-.023.022c-.132-.1-.408-.3-.526-.394-.158-.126-.288-.194-.349-.12s.244.426.361.556.4.393.4.393a6.247,6.247,0,0,0,.357.9,1.657,1.657,0,0,0,.643.632c.041.135.093.464.093.464l.967-.292Z" transform="translate(-867.157 523.13)" fill="#f6a9a9"/>
      <path id="Path_169583" data-name="Path 169583" d="M869.188-515.07l1.032-.42a.673.673,0,0,1,.884.383,33.228,33.228,0,0,0,1.777,3.886,28.758,28.758,0,0,0,2.75,4.2,84.082,84.082,0,0,0,9.9,3.436c1.746.664,2.758,2.15,2.221,3.5l-.18.453c-.537,1.35-2.388,1.906-4.134,1.242l-1.507-.573-.024-.01a26.464,26.464,0,0,1-7.427-4.08h0a12.169,12.169,0,0,1-3.848-5.375l-.5-1.4-.007-.021a32.573,32.573,0,0,1-1.326-4.5A.65.65,0,0,1,869.188-515.07Z" transform="translate(-867.56 521.979)" fill="#cc5531"/>
      <g id="Group_110588" data-name="Group 110588" transform="translate(17.514 9.395)">
        <path id="Path_169584" data-name="Path 169584" d="M891.412-500.977s1.267,2.115,2.945,1.117l.054-1.757.341-1.146-3.206,0A2.061,2.061,0,0,1,891.412-500.977Z" transform="translate(-890.689 509.413)" fill="#f6a9a9"/>
        <path id="Path_169585" data-name="Path 169585" d="M893.458-501.792c-.341.3-.853.887-1.331.928a.85.85,0,0,1-.665-.2,8.671,8.671,0,0,0,.1-1.721l2.886-.074A5.793,5.793,0,0,1,893.458-501.792Z" transform="translate(-890.702 509.437)" fill="#cc7f7f"/>
        <path id="Path_169586" data-name="Path 169586" d="M891.249-507.066a2.24,2.24,0,0,1-.418-.917,1.113,1.113,0,0,1,.236-.778s-.464-.53,0-.863,2.414.331,2.414.331Z" transform="translate(-890.544 511.139)" fill="#12263f"/>
        <path id="Path_169587" data-name="Path 169587" d="M892.054-508.594c-1.883,2.711-1.28,4.467-.835,4.749.935.593,3.188.008,4.057-1.13a2.4,2.4,0,0,0-.126-3.359C894.211-509.05,892.872-509.769,892.054-508.594Z" transform="translate(-890.528 511.015)" fill="#f6a9a9"/>
        <path id="Path_169588" data-name="Path 169588" d="M891.213-511.325c.395-.273.933-.644,1.8.488.21.273.659-.1,1.5.1,1.295.311,1.1,1.041,1.823,1.453.491.281.331.707.668,1.608.217.582-.46.859-.318,1.4.166.637-.935.554-1.032.96-.233.971-1.159,1.165-1.5,1.478-.1.093-.045-.416-.037-.553a2.2,2.2,0,0,1,.54-1.139c.272.014.949-.08.95-1.1,0-1.1-.9-.068-.9-.068a1.969,1.969,0,0,1,.107-.849c.315-.635-.337-1.038-1.3-1.124-.418-.037-.435-.576-.78-.571-.568.009-1-.4-1.4-.238-.214.089-.4-.271-.58-.4C890.138-510.337,890.551-510.867,891.213-511.325Z" transform="translate(-890.451 511.608)" fill="#12263f"/>
        <path id="Path_169589" data-name="Path 169589" d="M890.785-504.98a1.421,1.421,0,0,1,.735-.159c.3.062,1.161.086,1.48.657s.536.461.75.242.926-1.646,1.174-1.746-.334,1.26-.334,1.26a2.645,2.645,0,0,0-.368.529,2.967,2.967,0,0,0-.323.724,1.333,1.333,0,0,1-.453.79,1.786,1.786,0,0,1-1.43.026c-.708-.264-.936-.338-1.108-.807A2.226,2.226,0,0,1,890.785-504.98Z" transform="translate(-890.512 510.214)" fill="#12263f"/>
      </g>
      <g id="Group_110590" data-name="Group 110590" transform="translate(27.142 69.611)">
        <g id="Group_110589" data-name="Group 110589">
          <path id="Path_169590" data-name="Path 169590" d="M906.363-431.514l1.15,2.489a1.8,1.8,0,0,1-1.393,1.153l-.975-2.485A14.545,14.545,0,0,1,906.363-431.514Z" transform="translate(-903.725 431.519)" fill="#12263f"/>
          <path id="Path_169591" data-name="Path 169591" d="M905.061-428.813s.509.817.323,1.335-.625.747-1.314,1.11c-.891.469-1.331,2.5.184,1.268a5.552,5.552,0,0,0,1.695-2.152,1.193,1.193,0,0,0-.544-1.1Z" transform="translate(-903.257 430.847)" fill="#12263f"/>
        </g>
      </g>
      <g id="Group_110592" data-name="Group 110592" transform="translate(6.868 72.193)">
        <g id="Group_110591" data-name="Group 110591">
          <path id="Path_169592" data-name="Path 169592" d="M882.728-428.076l-.327,2.722a1.8,1.8,0,0,1-1.791.251l.473-2.627A14.616,14.616,0,0,1,882.728-428.076Z" transform="translate(-877.363 428.085)" fill="#12263f"/>
          <path id="Path_169593" data-name="Path 169593" d="M879.882-426.356s0,.963-.426,1.307-.923.308-1.7.255c-1.005-.068-2.444,1.429-.508,1.176a5.542,5.542,0,0,0,2.571-.943,1.192,1.192,0,0,0,.115-1.224Z" transform="translate(-876.291 427.656)" fill="#12263f"/>
        </g>
      </g>
      <path id="Path_169594" data-name="Path 169594" d="M901.385-433.363c-1.9-1.554-9.322-10.851-9.322-10.851-1.416-1.759-1.512-3.181-.644-3.88l.291-.235c.868-.7,3.473-.74,3.48-.732a64.109,64.109,0,0,1,8.467,13.317.81.81,0,0,1-.039.795C903.237-434.345,902.418-433.292,901.385-433.363Z" transform="translate(-873.039 505.483)" fill="#5085c7"/>
      <path id="Path_169595" data-name="Path 169595" d="M879.64-469.647c.71-2.774,1.1-4.985,2.646-6.195l8.58,1.316c.825,3.546-2.514,6.385-4.9,12.709-.411,1.089-1.516,5.583-2.13,8.067-.6,2.425-2.727,3.134-3.743,2.743a3.054,3.054,0,0,1-1.774-2.807C877.962-457.429,879.02-467.226,879.64-469.647Z" transform="translate(-869.908 512.128)" fill="#204470"/>
      <path id="Path_169596" data-name="Path 169596" d="M880.012-432.09c-1.554-3.48-1.97-13.791-1.68-15.775,0,0,5.492-.365,5.492-.356a129.779,129.779,0,0,1-1.068,15.257.885.885,0,0,1-.636.691A3.932,3.932,0,0,1,880.012-432.09Z" transform="translate(-869.908 505.275)" fill="#204470"/>
      <path id="Path_169597" data-name="Path 169597" d="M888.011-474.314c.553-2.825,10.261-5.685,8.684,6.323-.362,2.757-1.771,13.145-2.962,15-.471.735-2.677,1.578-2.874,1.29a7.683,7.683,0,0,1-.911-1.516c-1.056-2.423-.857-6.637-1.274-9.421C888.327-464.945,887.375-471.064,888.011-474.314Z" transform="translate(-872.279 512.365)" fill="#5085c7"/>
      <path id="Path_169598" data-name="Path 169598" d="M878.786-520.2s-.048-.342.057-.43.529-.491.529-.491l.114-.2s.415-.212.488-.256.174-.126.019-.2a.813.813,0,0,0-.613.031.626.626,0,0,1-.339.089,5.622,5.622,0,0,0-.13-.622s.073-.775.073-1.1,0-.5-.09-.517-.191.157-.244.5c-.039.256-.095.632-.126.8a.021.021,0,0,1-.042,0c-.053-.241-.2-.883-.233-1.04-.047-.194-.124-.5-.244-.478s-.078.656-.059.942c.012.189.037.406.053.533a.015.015,0,0,1-.029.008c-.1-.223-.328-.754-.413-.9-.109-.183-.194-.237-.246-.211s-.059.27-.006.487c.042.171.2.674.268.878a.016.016,0,0,1-.029.015c-.1-.13-.31-.4-.4-.524-.117-.165-.223-.266-.3-.211s.117.477.193.633.28.49.28.49a6.26,6.26,0,0,0,.1.959,1.66,1.66,0,0,0,.444.785c0,.141-.04.471-.04.471l1.01-.014Z" transform="translate(-869.556 524.104)" fill="#f6a9a9"/>
      <path id="Path_169599" data-name="Path 169599" d="M888.292-498.787a3.215,3.215,0,0,0,1.5-.812l-.034.478-1.051,2.027-.917-1.658A2.3,2.3,0,0,0,888.292-498.787Z" transform="translate(-872.277 518.024)" fill="#c080b1"/>
      <path id="Path_169600" data-name="Path 169600" d="M883.919-495.4a6.386,6.386,0,0,1,5.23-4.414,16.987,16.987,0,0,1,2.479.274,8.593,8.593,0,0,1,1.776,1.014c1.631,2.038,0,5.525,0,8.025s-.176,3.738.687,5.61a14.2,14.2,0,0,1,.864,3.838c-1.428.873-5.918.772-7.117.583-1.568-.247-5.2-.829-5.166-1.879C882.813-486.993,883.175-492.825,883.919-495.4Z" transform="translate(-871.007 518.078)" fill="#e86038"/>
      <path id="Path_169601" data-name="Path 169601" d="M877.394-518.365a.65.65,0,0,1,.551-.611l1.1-.172a.674.674,0,0,1,.773.576,32.973,32.973,0,0,0,.835,4.192,28.685,28.685,0,0,0,1.707,4.723,83.99,83.99,0,0,0,8.84,5.625c1.547,1.048,2.189,2.727,1.356,3.917l-.28.4c-.834,1.189-2.762,1.3-4.309.256l-1.334-.9-.022-.016a26.486,26.486,0,0,1-6.288-5.68h0a12.165,12.165,0,0,1-2.506-6.116l-.168-1.478v-.022A32.441,32.441,0,0,1,877.394-518.365Z" transform="translate(-869.694 522.876)" fill="#e86038"/>
    </g>
    <g id="Group_110597" data-name="Group 110597" transform="translate(695.531 -628.136)">
      <path id="Path_169602" data-name="Path 169602" d="M764.5-598.775l1.063-.875a.214.214,0,0,1,.117-.047l.336-.027a.223.223,0,0,0,.093-.03l.173-.106a.211.211,0,0,1,.114-.031l.427.01a.217.217,0,0,1,.139.056l.091.085-2.315,1.311a.21.21,0,0,1-.289-.082h0A.21.21,0,0,1,764.5-598.775Z" transform="translate(-733.312 604.154)" fill="#cc7f7f"/>
      <g id="Group_110594" data-name="Group 110594" transform="translate(20.502 53.351)">
        <path id="Path_169603" data-name="Path 169603" d="M750.353-534.585l-.038,3.076a1.713,1.713,0,0,0,1.692-.316l-.11-2.708A15.043,15.043,0,0,0,750.353-534.585Z" transform="translate(-750.315 534.601)" fill="#12263f"/>
        <path id="Path_169604" data-name="Path 169604" d="M751.87-532.787s-.069.87.423,1.049.926,0,1.61-.284c.886-.365,2.637.55.814.908a5.284,5.284,0,0,1-2.6-.073,1.134,1.134,0,0,1-.474-1.069Z" transform="translate(-750.641 534.151)" fill="#12263f"/>
      </g>
      <g id="Group_110595" data-name="Group 110595" transform="translate(0 53.421)">
        <path id="Path_169605" data-name="Path 169605" d="M725.324-534.505l-2.278,2.232a1.712,1.712,0,0,0,1.3,1.125l1.9-2.118A15.055,15.055,0,0,0,725.324-534.505Z" transform="translate(-723.046 534.509)" fill="#12263f"/>
        <path id="Path_169606" data-name="Path 169606" d="M725.493-531.689s-.723.487-.556.984.579.723,1.227,1.083c.838.465,1.214,2.4-.2,1.2A5.274,5.274,0,0,1,724.4-530.5a1.133,1.133,0,0,1,.54-1.038Z" transform="translate(-723.377 533.809)" fill="#12263f"/>
      </g>
      <path id="Path_169607" data-name="Path 169607" d="M734.941-555.3a6.719,6.719,0,0,0,.408-1.489,37.919,37.919,0,0,0,.963-11.784c0-.011,0-.023,0-.034l-.215-2.062a4.21,4.21,0,0,0-4.483-3.906l-.747.078a4.209,4.209,0,0,0-3.58,4.747l.215,2.062c0,.011,0,.023.005.034a37.333,37.333,0,0,0,3.107,10.748c-.086.135-.171.272-.253.415l-1.029,1.8-.017.03a66.786,66.786,0,0,0-5.011,11.357s.941,1.247,1.664,1.193a69.2,69.2,0,0,0,7.388-10.24l.018-.029.962-1.681a2.966,2.966,0,0,0,.305-.467A5.015,5.015,0,0,0,734.941-555.3Z" transform="translate(-723.358 597.877)" fill="#204470"/>
      <path id="Path_169608" data-name="Path 169608" d="M749.328-557.78v-.036a3.126,3.126,0,0,0-.033-.367,7.249,7.249,0,0,0-.415-1.8,69.868,69.868,0,0,0-2.716-6.946c-1.659-3.265-5.3-9.85-9.778-6.493l-.644.483a4.393,4.393,0,0,0-1.547,4.774c.712,2.319,2.791,4.234,4.474,5.89a37.945,37.945,0,0,0,3.109,2.725q.769.606,1.564,1.177c.159.114,1.344.772,1.344.921,0,.041,0,.082,0,.123l.041,2.072,0,.034a66.724,66.724,0,0,0,1.528,12.319s1.448.587,2.041.171a69.241,69.241,0,0,0,1.086-12.58v-.035l-.041-2.072C749.34-557.545,749.334-557.663,749.328-557.78Z" transform="translate(-725.765 597.816)" fill="#5085c7"/>
      <path id="Path_169609" data-name="Path 169609" d="M759.236-601.975l.217-.211a.777.777,0,0,0,.091-.065l1.158-.971a.06.06,0,0,0-.032-.108l-.144-.01a.55.55,0,0,0-.275.05l-.409.188-.256-.1a.418.418,0,0,1-.229-.281l.049-.334.137-1.2a.951.951,0,0,0-.024-.348l-.039-.154a.052.052,0,0,0-.1-.006l-.556,1.446-.519,1.745-.753.334.744.338.491-.083A.849.849,0,0,0,759.236-601.975Z" transform="translate(-731.608 605.56)" fill="#cc7f7f"/>
      <path id="Path_169610" data-name="Path 169610" d="M731.2-594.72c-1.753.408-2.94,1.744-2.651,2.983l.1.416c.289,1.241,1.943,1.916,3.7,1.508l1.512-.351.025-.007a34.034,34.034,0,0,0,9.662-4.068c.415-.352.552-.671.5-.88s-.312-.435-.84-.568a34.058,34.058,0,0,0-10.466.61l-.025.005Z" transform="translate(-724.402 603.152)" fill="#209299"/>
      <path id="Path_169611" data-name="Path 169611" d="M755.951-600.7l-.345-.577a26.9,26.9,0,0,0-4.352,1.609l-.02.008-1.307.6c-1.96.9-3.746,2.474-3.342,3.214l.136.249c.406.745,2.656-.008,4.433-1.266l1.183-.838.016-.013A26.126,26.126,0,0,0,755.951-600.7Z" transform="translate(-728.873 604.497)" fill="#209299"/>
      <g id="Group_110596" data-name="Group 110596" transform="translate(4.254 0.419)">
        <path id="Path_169612" data-name="Path 169612" d="M734.813-601.938a2.274,2.274,0,0,1-.4,3.161,2.274,2.274,0,0,1-3.027-.994,2.274,2.274,0,0,1,.4-3.161A2.274,2.274,0,0,1,734.813-601.938Z" transform="translate(-729.259 604.555)" fill="#f6a9a9"/>
        <rect id="Rectangle_36714" data-name="Rectangle 36714" width="2.226" height="3.121" transform="matrix(0.999, -0.04, 0.04, 0.999, 2.78, 5.019)" fill="#f6a9a9"/>
        <path id="Path_169613" data-name="Path 169613" d="M735.163-602.208a3.4,3.4,0,0,0,.933.287c.273-.011.388.308.115.747a.841.841,0,0,1-.613.451Z" transform="translate(-730.307 604.309)" fill="#f6a9a9"/>
        <path id="Path_169614" data-name="Path 169614" d="M733.707-599.5a1.9,1.9,0,0,1-1.64,2.1,1.9,1.9,0,0,1-1.8-1.959,1.9,1.9,0,0,1,1.639-2.1A1.9,1.9,0,0,1,733.707-599.5Z" transform="translate(-729.091 604.125)" fill="#12263f"/>
        <path id="Path_169615" data-name="Path 169615" d="M729.88-603.536c-.074-.029-.1-.066-.09-.1s.029-.143.137-.139c2.257.079,3.68-2.586,4.512-.3.312,1.225-1.323,1.177-2.126,1.148A3.412,3.412,0,0,1,729.88-603.536Z" transform="translate(-728.974 605.003)" fill="#12263f"/>
        <ellipse id="Ellipse_5499" data-name="Ellipse 5499" cx="2.39" cy="1.404" rx="2.39" ry="1.404" transform="translate(0 3.318) rotate(-42.178)" fill="#12263f"/>
        <path id="Path_169616" data-name="Path 169616" d="M730.744-598.6c-.548.023-1.017-.547-1.046-1.27a1.186,1.186,0,0,1,.941-1.35c.549-.022,1.017.547,1.047,1.27A1.187,1.187,0,0,1,730.744-598.6Z" transform="translate(-728.951 604.065)" fill="#12263f"/>
        <path id="Path_169617" data-name="Path 169617" d="M733.978-598.94c.148.368.435.6.642.516s.253-.449.105-.817-.436-.6-.642-.517S733.83-599.309,733.978-598.94Z" transform="translate(-729.992 603.705)" fill="#f6a9a9"/>
      </g>
      <path id="Path_169618" data-name="Path 169618" d="M738.468-579.808a2.986,2.986,0,0,0-.1-.346,44.164,44.164,0,0,1-2.318-12.068,4.094,4.094,0,0,0-4.53-3.1h0c-2.132.217-3.1,1.482-3.815,3.944a49.84,49.84,0,0,0,.159,12.287,2.327,2.327,0,0,0,.3.879c.014.023.028.044.043.067l.006.008c.666.974,2.764,1.624,5.221,1.525,2.953-.12,5.3-1.274,5.251-2.581A1.189,1.189,0,0,0,738.468-579.808Z" transform="translate(-724.126 603.024)" fill="#28b5bd"/>
      <path id="Path_169619" data-name="Path 169619" d="M762.571-597.8l.208-.738a.722.722,0,0,1,.038-.105l.62-1.378a.061.061,0,0,1,.113,0l.049.135a.556.556,0,0,1,.027.278l-.071.445.165.22a.418.418,0,0,0,.333.144l.308-.138,1.12-.458a.966.966,0,0,1,.341-.071l.159,0a.052.052,0,0,1,.032.094l-1.241.927-1.416,1.041-.678.286-.361-.324Z" transform="translate(-732.791 604.196)" fill="#f6a9a9"/>
      <path id="Path_169620" data-name="Path 169620" d="M737.576-591.83a3.627,3.627,0,0,0-1.058-1.929c-.994.9-1.993,1.8-2.965,2.725q.7.976,1.431,1.935,1.772,2.348,3.587,4.664A44.074,44.074,0,0,1,737.576-591.83Z" transform="translate(-725.653 602.632)" fill="#209299"/>
      <path id="Path_169621" data-name="Path 169621" d="M735.891-594.69c-1.785.228-3.1,1.437-2.941,2.7l.054.423c.161,1.263,1.739,2.1,3.523,1.875l1.541-.2.025,0a34.037,34.037,0,0,0,10.025-3.068c.449-.308.617-.612.59-.825s-.266-.464-.778-.65a34.042,34.042,0,0,0-10.473-.453l-.026,0Z" transform="translate(-725.5 602.965)" fill="#28b5bd"/>
      <path id="Path_169622" data-name="Path 169622" d="M759.534-596.415l-.2-.641a26.987,26.987,0,0,0-4.608.542l-.021,0-1.411.278c-2.118.417-4.222,1.526-4,2.341l.074.274c.22.819,2.583.615,4.607-.191l1.347-.537.02-.008A26.165,26.165,0,0,0,759.534-596.415Z" transform="translate(-729.555 603.45)" fill="#28b5bd"/>
    </g>
    <g id="Group_110600" data-name="Group 110600" transform="translate(858.52 -565.569)">
      <path id="Path_169623" data-name="Path 169623" d="M953.841-486.7s5.682,5.774,8.23-.62c3.424-.892,2.483-3.994,2.064-5.253,1.36-2.3-.919-6.159-4-6.159a4.488,4.488,0,0,1-1.4-2.8c.07-1.4-.365-4.268-3.374-3.919s-2.908,1.337-2.853,2.1a3.164,3.164,0,0,1-.49,2.449,7.693,7.693,0,0,0-1.679,4.9C950.273-493.2,948.384-489.846,953.841-486.7Z" transform="translate(-942.346 518.159)" fill="#e86038"/>
      <path id="Path_169624" data-name="Path 169624" d="M958.148-475.482a29.948,29.948,0,0,1-.969,9.067,26.269,26.269,0,0,0,1.358,8.974s2.425,12.067,2.831,16.476a1.3,1.3,0,0,1-1.719.25c-1.829-2.892-5.753-15.445-5.753-15.445-.256-.964-3.577-19.018-3.564-19.823Z" transform="translate(-942.435 510.84)" fill="#f6a9a9"/>
      <path id="Path_169625" data-name="Path 169625" d="M945.5-475.774a14.369,14.369,0,0,0-.516,4.127c-.1,1.977.15,11.2.391,13.351-.044.4,1.4,15.246,1.97,18.04a1.253,1.253,0,0,0,1.594-.062c1.032-2.751,1.292-17.376,1.251-17.727.644-1.189,1.019-9.794,1.688-12.319.056-.209.072-4.536.125-4.753C949.253-475.715,948.184-474.966,945.5-475.774Z" transform="translate(-941.102 510.788)" fill="#f6a9a9"/>
      <g id="Group_110598" data-name="Group 110598" transform="translate(14.767 69.172)">
        <path id="Path_169626" data-name="Path 169626" d="M963.713-430.343l.265,2.064-1.8,2.087-2.086.031,1.3-1.052a.768.768,0,0,0,.276-.471l.35-2.05Z" transform="translate(-959.625 430.343)" fill="#f6a9a9"/>
        <path id="Path_169627" data-name="Path 169627" d="M962.654-425.45l.285-.123a.923.923,0,0,0,.49-.5l.593-1.463.544,1.262.38-.164-.268-1.575a1.31,1.31,0,0,0-.549-.859l-.325-.225a.165.165,0,0,0-.239.059l-.321,1.092c-.183.347-.5,1.086-.844,1.282l-.726.305c-.337.086-.688-.2-.907-.18l-.766.422a.983.983,0,0,0-.532.759Z" transform="translate(-959.47 430.041)" fill="#12263f"/>
      </g>
      <path id="Path_169628" data-name="Path 169628" d="M957.322-458.394c-2.207,1.185-8.058,1.314-12.191-.205.009-4.147-1.4-15.08.539-18.521.389-.692,7.781.147,10.077.144l.753.921c2.141,2.96.507,7.459-.015,11.991C956.292-462.392,957.364-459.7,957.322-458.394Z" transform="translate(-941.024 511.19)" fill="#204470"/>
      <path id="Path_169629" data-name="Path 169629" d="M952.7-504.98a1.727,1.727,0,0,1-.317-1.993c.634-1,1.9-1.9,4.348,0a6.118,6.118,0,0,0,2.31.635c.5.045,1.4.317,1.132,2.4s-.453,2.627.905,3.668,2.537,2.219-.045,5.3-4.891,2.446-6.748,1.857-3.986-2.672-3.487-3.986,1.313-1.721.905-2.9S954.149-500.394,952.7-504.98Z" transform="translate(-942.532 518.806)" fill="#e86038"/>
      <path id="Path_169630" data-name="Path 169630" d="M941.171-516.277l1.079.171c-.032.759.642,2.1,1.083,4.177l0,.021.309,1.421c.463,2.134.222,4.481-.695,4.542l-.308.02c-.921.061-1.7-2.233-1.734-4.405l-.02-1.445c0-.007,0-.014,0-.021A27.047,27.047,0,0,1,941.171-516.277Z" transform="translate(-940.091 520.838)" fill="#28b5bd"/>
      <path id="Path_169631" data-name="Path 169631" d="M942.8-507.116a50.713,50.713,0,0,1,6.284,6.122l.017.02,1.326,1.431c.634.609,3.049.328,2.392,1.641l-4.877,4.08c-1.014.389.726-1.641.093-2.719l-1.858-1.844-.017-.021a48.8,48.8,0,0,1-4.257-6.069Q942.31-505.818,942.8-507.116Z" transform="translate(-940.344 518.565)" fill="#28b5bd"/>
      <g id="Group_110599" data-name="Group 110599" transform="translate(3.111 69.928)">
        <path id="Path_169632" data-name="Path 169632" d="M949.348-429.337l.09,1.577-2.977,1.2,1.489-2.645Z" transform="translate(-944.586 429.337)" fill="#f6a9a9"/>
        <path id="Path_169633" data-name="Path 169633" d="M944.053-425.248l2.759-.107a.92.92,0,0,0,.637-.29l1.08-1.152.053,1.374.414-.016.317-1.566a1.306,1.306,0,0,0-.2-1l-.223-.326a.165.165,0,0,0-.244-.032l-1.539,1.338a2.094,2.094,0,0,1-1.047.487l-.327.052a2.985,2.985,0,0,0-.683.192l-.415.173a1.147,1.147,0,0,0-.191.139,1.51,1.51,0,0,0-.307.356l-.156.251A.082.082,0,0,0,944.053-425.248Z" transform="translate(-943.967 429.105)" fill="#12263f"/>
      </g>
      <path id="Path_169634" data-name="Path 169634" d="M957.149-480.676s-8.676,2.673-11.724-.469c0,0,2.617-6.9,2.438-7.973s-1.007-1.369-.7-2.157c.415-1.08,2.486-3.494,3.564-4.831a6.942,6.942,0,0,1,2.525-.985c-.129.562,2.48-.183,2.517-.329,2.626,1.149,3.574,3.151,3.4,4.08-.422,2.251-2.73,7.849-2.814,8.864A13.044,13.044,0,0,0,957.149-480.676Z" transform="translate(-941.218 516.159)" fill="#28b5bd"/>
      <path id="Path_169635" data-name="Path 169635" d="M978.123-512.493l-.65-.338a26.1,26.1,0,0,0-3.211,3.47l-.014.017-.9,1.145c-1.346,1.718-2.152,3.936-1.353,4.39l.268.153c.8.456,2.506-1.268,3.48-3.21l.648-1.292.009-.02A23.444,23.444,0,0,0,978.123-512.493Z" transform="translate(-947.732 519.983)" fill="#28b5bd"/>
      <path id="Path_169636" data-name="Path 169636" d="M968.978-503.759c-2.016,1.1-4.409,4.367-8.246,5.064a11.407,11.407,0,0,1-1.625-.062c-1.474,1.2-.926,3.689-.323,4.471l.2.262c.923.572,2.286.442,3.761-.758l1.272-1.036.02-.017a64.56,64.56,0,0,0,6.073-6.016C970.016-502.782,969.956-503.354,968.978-503.759Z" transform="translate(-944.378 517.732)" fill="#28b5bd"/>
      <path id="Path_169637" data-name="Path 169637" d="M954.824-503.473a5.072,5.072,0,0,0,2.741.045,1.039,1.039,0,0,0,.815.906s.045-.181.362-.023.317,1.132-.521,1.359a4.729,4.729,0,0,0-.249.792,9.109,9.109,0,0,0,.135,1.63,10.254,10.254,0,0,1-1.879,1.88c-.566.249-2.152.906-.68-1.721a2.047,2.047,0,0,0,.226-.929s-.974.068-.815-1.268A9.139,9.139,0,0,0,954.824-503.473Z" transform="translate(-943.55 517.661)" fill="#f6a9a9"/>
      <path id="Path_169638" data-name="Path 169638" d="M957.679-499.084a12.2,12.2,0,0,1-1.891,1.568,1.732,1.732,0,0,0,.226-.929A3.876,3.876,0,0,0,957.679-499.084Z" transform="translate(-943.789 516.572)" fill="#cc7f7f"/>
      <path id="Path_169639" data-name="Path 169639" d="M978.93-513.846s.27-.3.226-.456-.195-.823-.195-.823l.02-.268s-.265-.477-.307-.567-.087-.236.112-.208a.952.952,0,0,1,.576.431.731.731,0,0,0,.271.308,6.552,6.552,0,0,1,.532-.52s.435-.8.646-1.116.326-.483.426-.444.083.277-.088.643c-.129.275-.32.676-.4.865a.025.025,0,0,0,.041.028c.209-.2.768-.731.906-.859.171-.158.446-.4.548-.306s-.352.689-.557.955c-.135.175-.3.371-.4.484a.018.018,0,0,0,.023.026c.238-.154.811-.52.988-.6.226-.107.343-.1.377-.044s-.119.3-.311.477c-.153.138-.638.523-.835.679a.019.019,0,0,0,.018.032c.183-.06.562-.187.728-.25.221-.084.391-.114.432-.009s-.425.387-.6.49-.592.293-.592.293a7.283,7.283,0,0,1-.719.871,1.951,1.951,0,0,1-.944.474c-.094.136-.269.483-.269.483l-.974-.672Z" transform="translate(-949.451 521.145)" fill="#f6a9a9"/>
      <path id="Path_169640" data-name="Path 169640" d="M941.986-517.734s-.04-.4.087-.5.643-.55.643-.55l.143-.228s.495-.229.583-.276.21-.139.032-.234a.948.948,0,0,0-.719.008.733.733,0,0,1-.4.087,6.443,6.443,0,0,0-.123-.733s.122-.9.138-1.282.022-.582-.081-.609-.232.174-.309.571c-.058.3-.141.735-.186.935a.025.025,0,0,1-.05,0c-.051-.284-.187-1.044-.223-1.229-.044-.229-.121-.589-.262-.571s-.123.764-.115,1.1c.006.221.025.477.037.626a.018.018,0,0,1-.034.008c-.1-.265-.347-.9-.441-1.071-.119-.22-.216-.286-.278-.259s-.081.314-.029.568c.041.2.205.8.272,1.041a.019.019,0,0,1-.034.017c-.111-.157-.344-.484-.44-.632-.129-.2-.248-.322-.343-.262s.114.563.2.75.3.586.3.586a7.259,7.259,0,0,0,.067,1.127,1.947,1.947,0,0,0,.481.94c0,.165-.068.549-.068.549l1.183.032Z" transform="translate(-939.829 522.344)" fill="#f6a9a9"/>
    </g>
    <g id="Group_110608" data-name="Group 110608" transform="translate(612.16 -520.637)">
      <g id="Group_110607" data-name="Group 110607">
        <g id="Group_110601" data-name="Group 110601" transform="translate(5.293 0.051)">
          <path id="Path_169641" data-name="Path 169641" d="M621.945-460.646a15.623,15.623,0,0,0-2.745-1.869l1.517,6.181A29.715,29.715,0,0,0,621.945-460.646Z" transform="translate(-619.2 462.515)" fill="#28b5bd"/>
        </g>
        <g id="Group_110602" data-name="Group 110602" transform="translate(0.263 4.859)">
          <path id="Path_169642" data-name="Path 169642" d="M619.582-451.681a20.976,20.976,0,0,1-4.283-4.439c-.088,1.465.465,2.913,1.726,4.785,2.515,3.735-.211,3.548-.8,3.272s-2.371-2.2-3.55-.879a1.523,1.523,0,0,0-.16.223c2.239,3.786,8.81,8.878,10.244,9.964Z" transform="translate(-612.51 456.12)" fill="#28b5bd"/>
        </g>
        <g id="Group_110603" data-name="Group 110603" transform="translate(6.91 2.107)">
          <path id="Path_169643" data-name="Path 169643" d="M624.5-442.427c.584-.541,3.282-3.393,4.68-10.89-1.574-.5-2.271,1.916-2.668,2.419s-2.756,1.908-2.192-2.559c.383-3.038-.048-4.8-1.638-6.324a29.369,29.369,0,0,1-1.33,4.53Z" transform="translate(-621.35 459.781)" fill="#28b5bd"/>
        </g>
        <g id="Group_110604" data-name="Group 110604" transform="translate(3.085 0.121)">
          <path id="Path_169644" data-name="Path 169644" d="M620.428-453.591l-2.167-8.831a10.666,10.666,0,0,0-2,4.4A22.92,22.92,0,0,0,620.428-453.591Z" transform="translate(-616.263 462.422)" fill="#28b5bd"/>
        </g>
        <path id="Path_169645" data-name="Path 169645" d="M612.3-445.956c-.611,1.561.751,4.711,3.483,8.382a32.783,32.783,0,0,0,2.717,3.149c.938.974,1.909,1.9,2.9,2.8.738.671,1.484,1.335,2.247,1.964a.81.81,0,0,0,.656.1l-1.547-6.3C621.871-436.524,614.782-441.867,612.3-445.956Z" transform="translate(-612.16 458.457)" fill="#28b5bd"/>
        <g id="Group_110605" data-name="Group 110605" transform="translate(10.126 8.658)">
          <path id="Path_169646" data-name="Path 169646" d="M630.456-451.067c-1.48,7.926-4.417,10.723-4.828,11.082l2.226,9.068.018-.012a.787.787,0,0,0,.223-.379c.108-.324.243-.627.371-.939q.317-.771.618-1.553c.484-1.256.938-2.531,1.342-3.831a33.308,33.308,0,0,0,1.032-4.088l.01-.059C632.322-446.675,632.01-450.295,630.456-451.067Z" transform="translate(-625.628 451.067)" fill="#28b5bd"/>
        </g>
        <g id="Group_110606" data-name="Group 110606" transform="translate(0.144)">
          <path id="Path_169647" data-name="Path 169647" d="M627.162-453.925c-.037-.018-.073-.037-.111-.052s-.071-.025-.107-.036c-1.4,7.5-4.1,10.349-4.68,10.89l-3.147-12.824a29.36,29.36,0,0,0,1.33-4.53c-.065-.062-.132-.124-.2-.186a29.7,29.7,0,0,1-1.228,4.312l-1.517-6.181-.072-.041c-.035-.017-.053-.011-.077.019l-.061.092,2.167,8.831a22.924,22.924,0,0,1-4.165-4.432c-.014.113-.026.227-.033.34a20.977,20.977,0,0,0,4.283,4.439l3.172,12.926c-1.435-1.086-8.005-6.179-10.244-9.964a1.667,1.667,0,0,0-.119.241c2.477,4.089,9.567,9.432,10.453,10.091l1.547,6.3a.626.626,0,0,0,.207-.087l-2.225-9.068C622.745-443.2,625.682-446,627.162-453.925Z" transform="translate(-612.352 462.583)" fill="#f7f6f4"/>
        </g>
      </g>
    </g>
    <g id="Group_110617" data-name="Group 110617" transform="translate(621.652 -510.324)">
      <g id="Group_110616" data-name="Group 110616">
        <g id="Group_110609" data-name="Group 110609" transform="translate(4.735 0.043)">
          <path id="Path_169648" data-name="Path 169648" d="M632.5-447.377a9.5,9.5,0,0,0-1.421-1.432l.192,3.861A18.119,18.119,0,0,0,632.5-447.377Z" transform="translate(-631.082 448.809)" fill="#f6bf28"/>
        </g>
        <g id="Group_110610" data-name="Group 110610" transform="translate(0.327 2.651)">
          <path id="Path_169649" data-name="Path 169649" d="M629.778-442.2a12.754,12.754,0,0,1-2.041-3.141,4.7,4.7,0,0,0,.477,3.052c1.068,2.517-.535,2.092-.857,1.859s-1.159-1.587-2.016-.934a.967.967,0,0,0-.121.114c.9,2.516,4.228,6.31,4.958,7.123Z" transform="translate(-625.22 445.34)" fill="#f6bf28"/>
        </g>
        <g id="Group_110611" data-name="Group 110611" transform="translate(4.939 1.608)">
          <path id="Path_169650" data-name="Path 169650" d="M631.751-436.17c.411-.256,2.349-1.644,4.046-5.953-.88-.483-1.575.88-1.87,1.135s-1.863.82-1.011-1.779c.579-1.767.524-2.865-.247-3.959a17.9,17.9,0,0,1-1.315,2.548Z" transform="translate(-631.354 446.727)" fill="#f6bf28"/>
        </g>
        <g id="Group_110612" data-name="Group 110612" transform="translate(2.903 0.06)">
          <path id="Path_169651" data-name="Path 169651" d="M630.617-443.271l-.274-5.515a6.491,6.491,0,0,0-1.7,2.392A13.92,13.92,0,0,0,630.617-443.271Z" transform="translate(-628.645 448.786)" fill="#f6bf28"/>
        </g>
        <g id="Group_110613" data-name="Group 110613" transform="translate(0 6.872)">
          <path id="Path_169652" data-name="Path 169652" d="M625.013-439.726c-.544.861-.1,2.9,1.11,5.4a19.826,19.826,0,0,0,1.257,2.19c.447.689.918,1.356,1.4,2.006.362.485.731.967,1.113,1.43a.493.493,0,0,0,.38.133l-.2-3.936C629.63-433,626.019-437,625.013-439.726Z" transform="translate(-624.785 439.726)" fill="#f6bf28"/>
        </g>
        <g id="Group_110614" data-name="Group 110614" transform="translate(5.345 6.289)">
          <path id="Path_169653" data-name="Path 169653" d="M636.051-440.5c-1.8,4.555-3.87,5.884-4.157,6.05l.281,5.664.012-.005a.482.482,0,0,0,.177-.2c.1-.18.216-.346.329-.517q.277-.424.547-.855c.433-.693.85-1.4,1.242-2.129a20.349,20.349,0,0,0,1.087-2.319l.013-.034C636.657-437.667,636.888-439.862,636.051-440.5Z" transform="translate(-631.894 440.501)" fill="#f6bf28"/>
        </g>
        <g id="Group_110615" data-name="Group 110615" transform="translate(0.229)">
          <path id="Path_169654" data-name="Path 169654" d="M634.362-442.577a.7.7,0,0,0-.06-.044c-.02-.013-.04-.023-.059-.034-1.7,4.309-3.635,5.7-4.046,5.953l-.4-8.009a17.91,17.91,0,0,0,1.315-2.548c-.032-.044-.065-.089-.1-.134a18.123,18.123,0,0,1-1.229,2.429l-.192-3.861-.038-.033a.032.032,0,0,0-.048,0l-.047.048.274,5.515a13.92,13.92,0,0,1-1.972-3.122c-.021.065-.041.132-.059.2a12.753,12.753,0,0,0,2.041,3.141l.4,8.073c-.73-.813-4.06-4.607-4.958-7.123a1.08,1.08,0,0,0-.1.13c1.006,2.724,4.616,6.728,5.069,7.223l.2,3.936a.375.375,0,0,0,.133-.028l-.281-5.664C630.492-436.693,632.566-438.022,634.362-442.577Z" transform="translate(-625.089 448.866)" fill="#f7f6f4"/>
        </g>
      </g>
    </g>
    <g id="Group_110625" data-name="Group 110625" transform="translate(879.331 -518.96)">
      <g id="Group_110624" data-name="Group 110624">
        <g id="Group_110618" data-name="Group 110618" transform="translate(7.183 0.053)">
          <path id="Path_169655" data-name="Path 169655" d="M977.062-458.424a14.36,14.36,0,0,1,2.433-1.858l-1.086,5.765A27.387,27.387,0,0,1,977.062-458.424Z" transform="translate(-977.062 460.282)" fill="#f6bf28"/>
        </g>
        <g id="Group_110619" data-name="Group 110619" transform="translate(5.927 4.366)">
          <path id="Path_169656" data-name="Path 169656" d="M977.665-450.244a19.369,19.369,0,0,0,3.72-4.3,7.127,7.127,0,0,1-1.35,4.491c-2.128,3.565.372,3.256.9,2.971s2.072-2.147,3.224-.986a1.334,1.334,0,0,1,.159.2c-1.871,3.6-7.664,8.614-8.931,9.686Z" transform="translate(-975.392 454.545)" fill="#f6bf28"/>
        </g>
        <g id="Group_110620" data-name="Group 110620" transform="translate(1.35 2.093)">
          <path id="Path_169657" data-name="Path 169657" d="M974.157-441.5c-.565-.468-3.191-2.958-4.853-9.789,1.424-.544,2.187,1.65,2.577,2.093s2.632,1.62,1.889-2.465c-.5-2.777-.2-4.416,1.191-5.9a27.119,27.119,0,0,0,1.451,4.1Z" transform="translate(-969.304 457.569)" fill="#f6bf28"/>
        </g>
        <g id="Group_110621" data-name="Group 110621" transform="translate(8.261 0.106)">
          <path id="Path_169658" data-name="Path 169658" d="M978.5-451.974l1.553-8.237a9.843,9.843,0,0,1,2.059,3.949A21.13,21.13,0,0,1,978.5-451.974Z" transform="translate(-978.496 460.211)" fill="#f6bf28"/>
        </g>
        <path id="Path_169659" data-name="Path 169659" d="M984.056-445.382c.641,1.406-.455,4.374-2.786,7.889a30.178,30.178,0,0,1-2.344,3.035c-.815.944-1.662,1.848-2.527,2.725-.646.655-1.3,1.3-1.97,1.92a.747.747,0,0,1-.6.122l1.109-5.879C975.723-436.221,981.98-441.495,984.056-445.382Z" transform="translate(-969.077 456.638)" fill="#f6bf28"/>
        <g id="Group_110622" data-name="Group 110622" transform="translate(0 8.459)">
          <path id="Path_169660" data-name="Path 169660" d="M968.662-449.1c1.759,7.222,4.6,9.65,5,9.959l-1.595,8.458-.017-.01a.719.719,0,0,1-.226-.338c-.115-.292-.254-.565-.388-.845q-.33-.695-.647-1.4c-.508-1.132-.99-2.283-1.427-3.459a30.63,30.63,0,0,1-1.155-3.711l-.013-.053C967.165-444.964,967.271-448.312,968.662-449.1Z" transform="translate(-967.508 449.101)" fill="#f6bf28"/>
        </g>
        <g id="Group_110623" data-name="Group 110623" transform="translate(1.154)">
          <path id="Path_169661" data-name="Path 169661" d="M969.043-451.893c.033-.019.066-.038.1-.053s.065-.026.1-.038c1.662,6.831,4.288,9.321,4.853,9.789l2.255-11.961a27.119,27.119,0,0,1-1.451-4.1c.057-.061.116-.122.176-.182a27.4,27.4,0,0,0,1.347,3.907l1.086-5.765.065-.042c.032-.018.048-.013.072.014l.061.082-1.553,8.237a21.134,21.134,0,0,0,3.612-4.289c.019.1.035.208.047.311a19.367,19.367,0,0,1-3.72,4.3l-2.273,12.058c1.266-1.072,7.059-6.089,8.931-9.686a1.424,1.424,0,0,1,.121.217c-2.076,3.887-8.334,9.161-9.116,9.813l-1.109,5.879a.572.572,0,0,1-.195-.07l1.595-8.458C973.646-442.243,970.8-444.671,969.043-451.893Z" transform="translate(-969.043 460.352)" fill="#f7f6f4"/>
        </g>
      </g>
    </g>
    <g id="Group_110634" data-name="Group 110634" transform="translate(885.164 -509.059)">
      <g id="Group_110633" data-name="Group 110633">
        <g id="Group_110626" data-name="Group 110626" transform="translate(6.274 0.023)">
          <path id="Path_169662" data-name="Path 169662" d="M983.61-446.238a9.7,9.7,0,0,1,1.851-.917L984-443.476A18.466,18.466,0,0,1,983.61-446.238Z" transform="translate(-983.61 447.154)" fill="#28b5bd"/>
        </g>
        <g id="Group_110627" data-name="Group 110627" transform="translate(3.01 3.177)">
          <path id="Path_169663" data-name="Path 169663" d="M982.333-440.59a13.062,13.062,0,0,0,3.019-2.368,4.81,4.81,0,0,1-1.474,2.8c-1.871,2.086-.175,2.2.214,2.085s1.65-1.154,2.263-.237a.908.908,0,0,1,.08.151c-1.7,2.14-6.189,4.714-7.167,5.26Z" transform="translate(-979.269 442.958)" fill="#28b5bd"/>
        </g>
        <g id="Group_110628" data-name="Group 110628" transform="translate(1.576 1.037)">
          <path id="Path_169664" data-name="Path 169664" d="M979.31-435.27c-.313-.383-1.731-2.371-1.949-7.11,1.013-.176,1.235,1.375,1.436,1.72s1.534,1.412,1.57-1.389c.025-1.9.441-2.95,1.552-3.756a18.343,18.343,0,0,0,.431,2.905Z" transform="translate(-977.361 445.805)" fill="#28b5bd"/>
        </g>
        <g id="Group_110629" data-name="Group 110629" transform="translate(6.156 0.084)">
          <path id="Path_169665" data-name="Path 169665" d="M983.453-441.818l2.093-5.254a6.642,6.642,0,0,1,.853,2.881A14.257,14.257,0,0,1,983.453-441.818Z" transform="translate(-983.453 447.072)" fill="#28b5bd"/>
        </g>
        <g id="Group_110630" data-name="Group 110630" transform="translate(1.429 8.135)">
          <path id="Path_169666" data-name="Path 169666" d="M985.966-436.364c.243,1.014-.867,2.838-2.865,4.865a20.35,20.35,0,0,1-1.944,1.707c-.662.519-1.339,1.009-2.025,1.479-.513.35-1.029.695-1.553,1.017a.5.5,0,0,1-.412,0l1.494-3.75C979.263-431.373,984.089-434.057,985.966-436.364Z" transform="translate(-977.166 436.364)" fill="#28b5bd"/>
        </g>
        <g id="Group_110631" data-name="Group 110631" transform="translate(0 4.497)">
          <path id="Path_169667" data-name="Path 169667" d="M976.7-441.2c.232,5.01,1.8,6.986,2.024,7.242l-2.15,5.4-.01-.009a.488.488,0,0,1-.105-.253c-.038-.209-.1-.407-.148-.61q-.129-.5-.247-1.01c-.19-.816-.36-1.641-.5-2.476a20.729,20.729,0,0,1-.286-2.607v-.038C975.173-438.656,975.676-440.86,976.7-441.2Z" transform="translate(-975.266 441.203)" fill="#28b5bd"/>
        </g>
        <g id="Group_110632" data-name="Group 110632" transform="translate(1.309)">
          <path id="Path_169668" data-name="Path 169668" d="M977.132-442.687c.024-.008.048-.017.073-.023l.068-.013c.218,4.739,1.635,6.727,1.949,7.11l3.04-7.63a18.351,18.351,0,0,1-.431-2.905c.046-.033.092-.065.141-.1a18.466,18.466,0,0,0,.386,2.762l1.465-3.678.048-.019c.023-.008.034,0,.046.018l.03.062-2.093,5.254a14.252,14.252,0,0,0,2.947-2.373q0,.107-.009.212a13.063,13.063,0,0,1-3.019,2.368l-3.064,7.691c.977-.546,5.462-3.12,7.167-5.26a.984.984,0,0,1,.052.159c-1.877,2.307-6.7,4.991-7.306,5.321l-1.494,3.75a.4.4,0,0,1-.12-.071l2.15-5.4C978.933-435.7,977.363-437.677,977.132-442.687Z" transform="translate(-977.006 447.184)" fill="#f7f6f4"/>
        </g>
      </g>
    </g>
    <g id="Group_110643" data-name="Group 110643" transform="translate(736.993 -507.47)">
      <g id="Group_110642" data-name="Group 110642">
        <g id="Group_110635" data-name="Group 110635" transform="translate(2.023 10.291)">
          <path id="Path_169669" data-name="Path 169669" d="M780.883-424.285c1.453-2.275,3.29-4.745,5.159-7.1a7.26,7.26,0,0,0,5.628.124,27.507,27.507,0,0,1-1.932,3.851,18.117,18.117,0,0,1-1.883,2.556C785.507-423.392,781.7-424.108,780.883-424.285Z" transform="translate(-780.883 431.383)" fill="#e86038"/>
        </g>
        <g id="Group_110636" data-name="Group 110636" transform="translate(7.583 0.265)">
          <path id="Path_169670" data-name="Path 169670" d="M788.278-435.048c3.492-4.377,7.063-8.307,8.32-9.67a24.849,24.849,0,0,1-.829,3.374c-.317,1.216-.658,2.427-1.044,3.622-.293.908-.614,1.808-.969,2.689A7,7,0,0,1,788.278-435.048Z" transform="translate(-788.278 444.718)" fill="#e86038"/>
        </g>
        <g id="Group_110637" data-name="Group 110637" transform="translate(3.521 1.851)">
          <path id="Path_169671" data-name="Path 169671" d="M788.83-437.319c-1.985,2.375-4.112,5.049-5.936,7.625-.04-.974-.134-5.192,1.063-7.954a19.665,19.665,0,0,1,5.854-4.96,25.718,25.718,0,0,0-.993,5.289Z" transform="translate(-782.875 442.608)" fill="#e86038"/>
        </g>
        <g id="Group_110638" data-name="Group 110638" transform="translate(9.882 0.054)">
          <path id="Path_169672" data-name="Path 169672" d="M792.346-443.324c.31-.162.623-.314.938-.453A11.352,11.352,0,0,1,797.261-445c-.947,1.026-3.292,3.6-5.926,6.742A23.4,23.4,0,0,1,792.346-443.324Z" transform="translate(-791.335 444.998)" fill="#e86038"/>
        </g>
        <g id="Group_110639" data-name="Group 110639" transform="translate(0 7.367)">
          <path id="Path_169673" data-name="Path 169673" d="M781.542-427.633l.024,0a43.879,43.879,0,0,0-3.264,5.286,4.827,4.827,0,0,1-.085-1.68,20.807,20.807,0,0,1,4.146-11.242A23.812,23.812,0,0,0,781.542-427.633Z" transform="translate(-778.192 435.272)" fill="#e86038"/>
        </g>
        <g id="Group_110640" data-name="Group 110640" transform="translate(0.225 17.348)">
          <path id="Path_169674" data-name="Path 169674" d="M786.775-422a13.186,13.186,0,0,1-3.206,2.475,8.378,8.378,0,0,1-3.4,1.038c-.907.059-1.419.035-1.678-.341a33.094,33.094,0,0,1,1.656-2.907C780.7-421.6,784.236-420.838,786.775-422Z" transform="translate(-778.491 421.997)" fill="#e86038"/>
        </g>
        <g id="Group_110641" data-name="Group 110641" transform="translate(0.11)">
          <path id="Path_169675" data-name="Path 169675" d="M781.6-430.068l-.024,0a23.81,23.81,0,0,1,.822-7.639q.212-.282.432-.556c-1.2,2.762-1.1,6.979-1.063,7.954,1.824-2.576,3.951-5.249,5.936-7.625h-.012a25.72,25.72,0,0,1,.993-5.289l.262-.14a23.893,23.893,0,0,0-1.032,5.177c2.691-3.21,5.086-5.838,6.054-6.886.039,0,.078,0,.117,0-.005.071-.012.144-.02.217-1.284,1.392-4.932,5.406-8.5,9.877a7.146,7.146,0,0,0,5.6.016c-.041.1-.083.2-.125.305a7.26,7.26,0,0,1-5.628-.124c-1.869,2.353-3.707,4.822-5.159,7.1.818.177,4.624.894,6.973-.567-.159.18-.322.355-.487.526-2.539,1.159-6.077.395-6.628.265a33.062,33.062,0,0,0-1.656,2.907.962.962,0,0,1-.114-.232A43.883,43.883,0,0,1,781.6-430.068Z" transform="translate(-778.339 445.07)" fill="#f7f6f4"/>
        </g>
      </g>
    </g>
    <g id="Group_110652" data-name="Group 110652" transform="translate(730.679 -522.19)">
      <g id="Group_110651" data-name="Group 110651">
        <g id="Group_110644" data-name="Group 110644" transform="translate(3.925 14.845)">
          <path id="Path_169676" data-name="Path 169676" d="M775.015-429.146a117.387,117.387,0,0,1,4.31-12.167,16.3,16.3,0,0,0,9.215-3.59,32.809,32.809,0,0,1-.93,6.025,24.4,24.4,0,0,1-1.593,4.4C783.04-431.121,776.446-429.471,775.015-429.146Z" transform="translate(-775.015 444.903)" fill="#28b5bd"/>
        </g>
        <g id="Group_110645" data-name="Group 110645" transform="translate(8.377 0.28)">
          <path id="Path_169677" data-name="Path 169677" d="M780.937-446.466c3.229-7.876,6.853-15.242,8.141-17.809a27.085,27.085,0,0,1,.6,4.8c.186,1.744.332,3.5.391,5.262.045,1.342.04,2.692-.032,4.04A16.027,16.027,0,0,1,780.937-446.466Z" transform="translate(-780.937 464.275)" fill="#28b5bd"/>
        </g>
        <g id="Group_110646" data-name="Group 110646" transform="translate(2.014 5.871)">
          <path id="Path_169678" data-name="Path 169678" d="M780.614-449.678c-1.861,4.244-3.783,8.949-5.268,13.333-.624-1.173-3.2-6.3-2.838-10.5a31.73,31.73,0,0,1,6.666-10,27.057,27.057,0,0,0,1.42,7.17Z" transform="translate(-772.474 456.84)" fill="#28b5bd"/>
        </g>
        <g id="Group_110647" data-name="Group 110647" transform="translate(9.059 0.08)">
          <path id="Path_169679" data-name="Path 169679" d="M781.844-459.1q.632-.623,1.292-1.207a24.116,24.116,0,0,1,5.886-4.237c-.971,1.934-3.353,6.763-5.884,12.5A25.194,25.194,0,0,1,781.844-459.1Z" transform="translate(-781.844 464.541)" fill="#28b5bd"/>
        </g>
        <g id="Group_110648" data-name="Group 110648" transform="translate(0 16.839)">
          <path id="Path_169680" data-name="Path 169680" d="M774.509-432.3l.036-.021a55.507,55.507,0,0,0-2.269,8.676,5.15,5.15,0,0,1-1.1-2.01,23.5,23.5,0,0,1,.286-16.594C771.52-437.609,774.477-432.359,774.509-432.3Z" transform="translate(-769.795 442.251)" fill="#28b5bd"/>
        </g>
        <g id="Group_110649" data-name="Group 110649" transform="translate(2.8 26.239)">
          <path id="Path_169681" data-name="Path 169681" d="M785.157-429.749a22.006,22.006,0,0,1-3.788,5.179,17.468,17.468,0,0,1-4.928,3.538c-1.44.675-2.285.986-2.922.7a40.689,40.689,0,0,1,1.022-4.68C775.511-425.221,781.7-426.633,785.157-429.749Z" transform="translate(-773.519 429.749)" fill="#28b5bd"/>
        </g>
        <g id="Group_110650" data-name="Group 110650" transform="translate(1.666)">
          <path id="Path_169682" data-name="Path 169682" d="M775.1-437.881l-.036.021c-.032-.056-2.989-5.307-3.048-9.949q.183-.488.382-.971c-.359,4.2,2.214,9.324,2.838,10.5,1.485-4.383,3.407-9.088,5.268-13.333l-.02.008a27.063,27.063,0,0,1-1.42-7.17q.171-.175.345-.346a25.2,25.2,0,0,0,1.293,7.058c2.531-5.74,4.913-10.569,5.884-12.5.063-.026.126-.056.189-.08.033.092.065.185.093.28-1.288,2.568-4.912,9.934-8.141,17.809a16.027,16.027,0,0,0,9.1-3.7q-.012.23-.027.459a16.3,16.3,0,0,1-9.215,3.59,117.4,117.4,0,0,0-4.31,12.167c1.431-.326,8.025-1.976,11-5.335q-.233.491-.49.971c-3.459,3.116-9.646,4.528-10.616,4.734a40.7,40.7,0,0,0-1.022,4.68,1.274,1.274,0,0,1-.319-.21A55.521,55.521,0,0,1,775.1-437.881Z" transform="translate(-772.011 464.648)" fill="#f7f6f4"/>
        </g>
      </g>
    </g>
    <g id="Group_110653" data-name="Group 110653" transform="translate(693.43 -529.29)">
      <circle id="Ellipse_5500" data-name="Ellipse 5500" cx="15.376" cy="15.376" r="15.376" transform="translate(3.515 32.571) rotate(-74.069)" opacity="0.6" fill="url(#linear-gradient-2)" style="mix-blend-mode: multiply;isolation: isolate"/>
      <path id="Path_169683" data-name="Path 169683" d="M759.3-465.612c-1.4.638-2.8,1.252-4.194,1.905-.432.2-.671.177-1.109-.244a17.874,17.874,0,0,0-2.934-2.311c-.647-.4-.847-.6-.732-1.173.295-1.48.52-2.974.8-4.456.107-.561-.125-.775-1.029-.8a9.52,9.52,0,0,1-4.131-1.067c-.895-.462-1.21-.47-1.426.122-.535,1.465-1.144,2.9-1.677,4.369a.8.8,0,0,1-.8.6c-1.371.148-2.732.383-4.1.539a.838.838,0,0,1-.638-.307c-1.007-1.381-1.983-2.785-3-4.226a18.83,18.83,0,0,0-5.529,3.033c-.138.107-.141.546-.05.766q.85,2.058,1.787,4.082c.244.523.185.838-.292,1.34a20.026,20.026,0,0,0-2.271,3,.718.718,0,0,1-.862.418c-1.683-.3-3.371-.568-5.15-.863-.307.814-.668,1.592-.892,2.405-.314,1.138-.523,2.305-.786,3.458-.108.471.038.722.519.892q2.206.777,4.375,1.656a.9.9,0,0,1,.453.608c.185,1.316.284,2.644.483,3.958a.8.8,0,0,1-.389.925c-1.388.953-2.753,1.942-4.172,2.95a19.121,19.121,0,0,0,3.255,5.9c1.516-.69,3.041-1.341,4.522-2.08a1.036,1.036,0,0,1,1.363.234c.979.856,2.024,1.641,3.079,2.4.345.25.51.421.418.892-.329,1.673-.638,3.6-.944,5.386l.8.195c1.644.405,3.322.811,4.995,1.238.53.135.79.014.984-.551.483-1.4,1.074-2.765,1.592-4.155a.816.816,0,0,1,.88-.607,29.638,29.638,0,0,0,3.871-.456.794.794,0,0,1,.962.331c.87,1.262,1.771,2.5,2.639,3.766.28.408.528.578,1.135.077a15.229,15.229,0,0,1,4.28-2.422c.65-.25.74-.523.521-1-.647-1.391-1.247-2.8-1.9-4.192a.693.693,0,0,1,.141-.9c.923-1.088,1.8-2.215,2.641-3.371.268-.371.462-.55.951-.461,1.656.3,3.323.541,4.986.8l.378-.655c.237-.711.513-1.412.7-2.137.268-1.044.462-2.107.708-3.156.1-.408-.056-.577-.434-.713-1.63-.587-3.249-1.206-4.715-1.754-.269-1.71-.535-3.29-.75-4.877a.9.9,0,0,1,.283-.716c1.232-.915,2.482-1.807,3.758-2.66.592-.4.614-.763-.364-1.677a6.642,6.642,0,0,1-1.911-3.421C760.107-465.966,759.743-465.812,759.3-465.612Zm-6.74,21.291a12.858,12.858,0,0,1-18.012,2.334A12.858,12.858,0,0,1,732.219-460a12.857,12.857,0,0,1,18.012-2.334A12.857,12.857,0,0,1,752.564-444.321Z" transform="translate(-720.253 474.091)" fill="#f6bf28"/>
      <path id="Path_169684" data-name="Path 169684" d="M736.478-456.056a11.943,11.943,0,0,0,2.168,16.732,11.942,11.942,0,0,0,16.731-2.168,11.942,11.942,0,0,0-2.167-16.731A11.943,11.943,0,0,0,736.478-456.056Zm16.461,11.509a8.233,8.233,0,0,1-11.206,3,8.216,8.216,0,0,1-3.008-11.2A8.145,8.145,0,0,1,749.9-455.77,8.153,8.153,0,0,1,752.939-444.548Z" transform="translate(-723.664 470.768)" fill="#5085c7"/>
      <path id="Path_169685" data-name="Path 169685" d="M739.052-439.379a10.842,10.842,0,0,0,9.488,2.574l-.043-.207a10.631,10.631,0,0,1-9.3-2.522,10.6,10.6,0,0,1-.723-14.963l-.156-.141A10.815,10.815,0,0,0,739.052-439.379Z" transform="translate(-724.04 469.264)" fill="#12263f"/>
      <path id="Path_169686" data-name="Path 169686" d="M748.656-459.1a10.625,10.625,0,0,1,6.674,1.662l.115-.177a10.844,10.844,0,0,0-6.807-1.7Z" transform="translate(-727.296 470.433)" fill="#12263f"/>
      <path id="Path_169687" data-name="Path 169687" d="M760.308-439.064l.156.142a10.8,10.8,0,0,0,2.174-10.9l-.2.071A10.584,10.584,0,0,1,760.308-439.064Z" transform="translate(-730.192 468.07)" fill="#12263f"/>
      <path id="Path_169688" data-name="Path 169688" d="M738.47-463.015a14.91,14.91,0,0,0-8.088,10.833l.286.05a14.619,14.619,0,0,1,7.931-10.623,14.583,14.583,0,0,1,19.5,6.641l.261-.128A14.875,14.875,0,0,0,738.47-463.015Z" transform="translate(-722.766 471.721)" fill="#e86038"/>
      <path id="Path_169689" data-name="Path 169689" d="M766.613-439.237a14.615,14.615,0,0,1-5.5,7.7l.168.237a14.908,14.908,0,0,0,5.61-7.849Z" transform="translate(-730.391 465.442)" fill="#e86038"/>
    </g>
    <g id="Group_110654" data-name="Group 110654" transform="translate(861.342 -675.509)" opacity="0.75">
      <path id="Path_169690" data-name="Path 169690" d="M944.247-653.205a3.129,3.129,0,0,0,1.964-1.25c.536-.982.893-5.716,2.5-5.895s1.7,2.233,1.7,2.233.179-10.451,5.27-10.451,5.18,9.289,5.18,9.289-.357-2.858,1.786-3.037,1.965,4.645,1.965,4.645.179-2.323,1.876-2.323,1.818,2.766,1.875,3.662c.149,2.322,5.092,3.215,5.092,3.215Z" transform="translate(-943.746 668.568)" fill="#28b5bd"/>
      <path id="Path_169691" data-name="Path 169691" d="M957.434-655.251a1.358,1.358,0,0,0,.853-.544c.233-.426.388-2.482,1.086-2.559s.737.969.737.969.078-4.538,2.289-4.538,2.25,4.034,2.25,4.034-.155-1.241.776-1.319.853,2.016.853,2.016.078-1.008.814-1.008.789,1.2.814,1.59c.065,1.008,2.211,1.4,2.211,1.4Z" transform="translate(-947.018 666.919)" fill="#f6bf28"/>
      <path id="Path_169692" data-name="Path 169692" d="M943.581-654.289a2.209,2.209,0,0,0,1.386-.882c.377-.692.629-4.031,1.763-4.157s1.2,1.574,1.2,1.574.126-7.37,3.716-7.37,3.653,6.551,3.653,6.551-.252-2.016,1.26-2.141,1.386,3.275,1.386,3.275.126-1.638,1.323-1.638,1.347,1.95,1.323,2.583c-.071,1.821,3.591,2.268,3.591,2.268Z" transform="translate(-943.581 667.713)" fill="#e86038"/>
    </g>
    <g id="Group_110659" data-name="Group 110659" transform="translate(819.789 -696.539)">
      <g id="Group_110656" data-name="Group 110656" transform="translate(21.931 69.623)">
        <g id="Group_110655" data-name="Group 110655">
          <path id="Path_169693" data-name="Path 169693" d="M920.623-603.933l1.162,2.516a1.821,1.821,0,0,1-1.408,1.165l-.986-2.511A14.733,14.733,0,0,1,920.623-603.933Z" transform="translate(-917.957 603.938)" fill="#12263f"/>
          <path id="Path_169694" data-name="Path 169694" d="M919.307-601.2s.514.826.326,1.35-.632.755-1.329,1.121c-.9.474-1.345,2.525.187,1.282a5.6,5.6,0,0,0,1.713-2.175,1.206,1.206,0,0,0-.55-1.115Z" transform="translate(-917.483 603.259)" fill="#12263f"/>
        </g>
      </g>
      <path id="Path_169695" data-name="Path 169695" d="M904.174-674.85c.78-1.48,1.52-3.1.205-4.684-.812-.98-3.313-.91-4.466-.235-.062.037-.125.068-.188.1.254.683.717,1.056,1.873.824.941-.19,1.189.192,1.219.894a1.4,1.4,0,0,0,.293.945.468.468,0,0,1,.764.376.937.937,0,0,1-.526,1.046,5.438,5.438,0,0,1-.093.89c-.1.612-.037.685.47.531.075-.023.147-.047.219-.072A2.569,2.569,0,0,1,904.174-674.85Z" transform="translate(-891.146 692.503)" fill="#12263f"/>
      <path id="Path_169696" data-name="Path 169696" d="M897.366-671.161a12.6,12.6,0,0,0-2.895,4.269,25.967,25.967,0,0,0-1.078,5.449,29.883,29.883,0,0,1-2.056,6.414,13.745,13.745,0,0,0-1.291,4.748c-.02,1.37,7.032.066,7.032.066s3.416-.148,3.8-1.473-1.377-20.174-1.377-20.174A4.513,4.513,0,0,0,897.366-671.161Z" transform="translate(-888.744 690.416)" fill="#e86038"/>
      <g id="Group_110658" data-name="Group 110658" transform="translate(1.437 72.233)">
        <g id="Group_110657" data-name="Group 110657">
          <path id="Path_169697" data-name="Path 169697" d="M896.732-600.458l-.331,2.752a1.822,1.822,0,0,1-1.81.253l.478-2.656A14.781,14.781,0,0,1,896.732-600.458Z" transform="translate(-891.309 600.467)" fill="#12263f"/>
          <path id="Path_169698" data-name="Path 169698" d="M893.855-598.719s0,.974-.431,1.32-.933.311-1.719.259c-1.016-.069-2.47,1.444-.513,1.189a5.613,5.613,0,0,0,2.6-.953,1.206,1.206,0,0,0,.116-1.238Z" transform="translate(-890.226 600.033)" fill="#12263f"/>
        </g>
      </g>
      <path id="Path_169699" data-name="Path 169699" d="M915.591-605.8c-1.922-1.571-9.423-10.969-9.423-10.969-1.432-1.777-1.529-3.215-.651-3.921l.295-.237c.877-.706,3.51-.748,3.517-.74a64.874,64.874,0,0,1,8.559,13.461.82.82,0,0,1-.04.8C917.463-606.8,916.635-605.73,915.591-605.8Z" transform="translate(-892.443 677.961)" fill="#5085c7"/>
      <path id="Path_169700" data-name="Path 169700" d="M893.61-642.479c.717-2.805,1.109-5.04,2.674-6.262l8.673,1.329c.834,3.584-2.541,6.455-4.955,12.847-.416,1.1-1.533,5.643-2.153,8.154-.605,2.452-2.757,3.168-3.784,2.773a3.087,3.087,0,0,1-1.793-2.838C891.914-630.129,892.984-640.031,893.61-642.479Z" transform="translate(-889.279 684.679)" fill="#204470"/>
      <path id="Path_169701" data-name="Path 169701" d="M893.988-604.515c-1.572-3.519-1.992-13.94-1.7-15.946,0,0,5.552-.369,5.552-.36a131.2,131.2,0,0,1-1.08,15.422.9.9,0,0,1-.644.7A3.978,3.978,0,0,1,893.988-604.515Z" transform="translate(-889.279 677.75)" fill="#204470"/>
      <path id="Path_169702" data-name="Path 169702" d="M902.073-647.2c.559-2.855,10.372-5.746,8.778,6.392-.365,2.787-1.789,13.288-2.994,15.167-.477.744-2.706,1.6-2.906,1.3a7.814,7.814,0,0,1-.921-1.532c-1.067-2.45-.867-6.71-1.288-9.524C902.392-637.726,901.43-643.912,902.073-647.2Z" transform="translate(-891.675 684.917)" fill="#5085c7"/>
      <path id="Path_169703" data-name="Path 169703" d="M905.746-669.632c-1.316,1.266-1.656,2.989-.656,4l.335.338c1,1.008,2.877.8,4.193-.467l1.135-1.092.018-.019a31.672,31.672,0,0,0,6.184-8.479c.159-.538-.641-1.517-1.19-1.373-1.007.262-6.28,4.409-8.87,4.751C906.889-671.968,905.746-669.632,905.746-669.632Z" transform="translate(-892.333 691.626)" fill="#e86038"/>
      <path id="Path_169704" data-name="Path 169704" d="M898.679-671.7s-3.383,5.032-4.313,3.792l-2.386-3.508-.013-.018a22.9,22.9,0,0,1-3.634-8.5c-.021-.5,2.295-1.395,3.241.11C892.389-678.4,897.273-673.173,898.679-671.7Z" transform="translate(-888.319 692.598)" fill="#e86038"/>
      <path id="Path_169705" data-name="Path 169705" d="M903.124-669.522a3.013,3.013,0,0,0,1.4-.76l-.031.447-.984,1.9-.859-1.552A2.195,2.195,0,0,0,903.124-669.522Z" transform="translate(-891.873 690.024)" fill="#c080b1"/>
      <path id="Path_169706" data-name="Path 169706" d="M892.357-692.576l.5.166a1.02,1.02,0,0,1,.612,1.293c-2.074,6.6-1.908,8.9-1.908,8.9-.557,4.351-3.93.6-3.124-1.61,0,0,2.238-7.259,2.745-8.241A.983.983,0,0,1,892.357-692.576Z" transform="translate(-888.314 695.568)" fill="#e86038"/>
      <path id="Path_169707" data-name="Path 169707" d="M910.583-688.552l-.823.714a.659.659,0,0,0-.056.941,32.343,32.343,0,0,1,2.6,3.266,27.056,27.056,0,0,1,3.756,7.693l2.007-2.2a1.02,1.02,0,0,0,.253-.883,11.509,11.509,0,0,0-2.581-5.343l-1-1.057-.016-.016a31.776,31.776,0,0,0-3.337-3.141A.637.637,0,0,0,910.583-688.552Z" transform="translate(-893.579 694.596)" fill="#e86038"/>
      <path id="Path_169708" data-name="Path 169708" d="M900.874-671.353c-.445,0-2.218,1.459-3.161,4.332-.811,2.468-1.375,8.929-1.542,13.428-.044,1.191,2.7,1.256,5.778,1.242,2.889-.013,7.328-.142,7.373-1.22.091-2.2-1.975-10.811-2.313-12.656-2.066-4.491-3.854-4.88-4.044-4.952Z" transform="translate(-890.264 690.29)" fill="#e6e6e3"/>
      <path id="Path_169709" data-name="Path 169709" d="M904.544-671.561l-.21-.427a4.309,4.309,0,0,1,2.477.562,20.471,20.471,0,0,0,2.3.968,4.524,4.524,0,0,1,1.9.417c1.534,1.714-.347,4.889-.347,6.993s.09,2.026,1.353,4.053c2.888,4.909,4.6,9.351,3.7,10.052s-2.978.584-5.189.545-1.535-.935-1.535-1.52a16.293,16.293,0,0,0,.135-3.623,10.843,10.843,0,0,0-1.667-3.9,17.392,17.392,0,0,1-2.2-4.491c-.748-2.545.45-6.107.45-6.107a3.308,3.308,0,0,0,.05-2.29,1.384,1.384,0,0,0-.208-.471A1.7,1.7,0,0,0,904.544-671.561Z" transform="translate(-892.289 690.452)" fill="#e86038"/>
      <path id="Path_169710" data-name="Path 169710" d="M901.333-671.319a2.215,2.215,0,0,0,2.845-.323l-.331-1.123-.025-1.131-2.886.932S901.432-672.543,901.333-671.319Z" transform="translate(-891.447 690.921)" fill="#f6a9a9"/>
      <path id="Path_169711" data-name="Path 169711" d="M902.935-672.612c-.218.372-.511,1.046-.929,1.22a.8.8,0,0,1-.656.013,8.21,8.21,0,0,0-.412-1.577l2.577-.9A5.53,5.53,0,0,1,902.935-672.612Z" transform="translate(-891.447 690.912)" fill="#cc7f7f"/>
      <path id="Path_169712" data-name="Path 169712" d="M899.988-678.3c-.909,2.986.144,4.392.626,4.516,1.013.262,2.872-.917,3.324-2.194a2.268,2.268,0,0,0-1.088-2.986C901.8-679.336,900.383-679.595,899.988-678.3Z" transform="translate(-891.122 692.253)" fill="#f6a9a9"/>
      <path id="Path_169713" data-name="Path 169713" d="M908.491-688.712a6.139,6.139,0,0,0,.82.677c.042.009.319.186.711-.271a.613.613,0,0,0,.171-.6,4.322,4.322,0,0,0-.656-.581.487.487,0,0,0,.044-.323,1.5,1.5,0,0,0-.39-.77,3.087,3.087,0,0,0-.966-.943c-.382-.158-.424.088-.424.088a.287.287,0,0,0-.289-.047.4.4,0,0,0-.219.235.584.584,0,0,0-.338,0,.447.447,0,0,0-.2.243s-.2-.156-.364-.021-.017.54.049.645.194.3.194.3-.426.066-.37.223c.029.082.439.344.605.683a1.033,1.033,0,0,0,.817.5A3.675,3.675,0,0,0,908.491-688.712Z" transform="translate(-892.768 695.308)" fill="#f6a9a9"/>
      <path id="Path_169714" data-name="Path 169714" d="M894.608-693.545a6.17,6.17,0,0,1-.454.96c-.035.026-.211.3-.759.056a.612.612,0,0,1-.412-.474,4.373,4.373,0,0,1,.348-.805.479.479,0,0,1-.177-.273,1.5,1.5,0,0,1,.026-.863,3.091,3.091,0,0,1,.475-1.263c.279-.305.421-.1.421-.1a.287.287,0,0,1,.242-.165.4.4,0,0,1,.3.119.586.586,0,0,1,.308-.141.447.447,0,0,1,.28.138s.116-.226.32-.174.245.482.23.605-.047.357-.047.357.415-.12.43.046a3.873,3.873,0,0,0-.258.875,1.033,1.033,0,0,1-.529.8A3.733,3.733,0,0,1,894.608-693.545Z" transform="translate(-889.473 696.539)" fill="#f6a9a9"/>
      <path id="Path_169715" data-name="Path 169715" d="M904.679-678.234a3.425,3.425,0,0,0-1.008-1.512c.15-.029.227-.092.239-.182.034-.241-.564-.438-1.494-.963a6.941,6.941,0,0,0-3.286-.72c-.583.108-.518.875-.5,1.407s.721,1.083,1.178.92a3.886,3.886,0,0,1,2.343-.646,2.067,2.067,0,0,0,.433.23,1.022,1.022,0,0,1,.329.362,9.143,9.143,0,0,1-.1,1.466l.247.3s.2-.346.379-.247.247.444.2.708-.23,1.054-.544.725l.28,1.2S904.91-677.328,904.679-678.234Z" transform="translate(-890.872 692.84)" fill="#12263f"/>
    </g>
    <g id="Group_110660" data-name="Group 110660" transform="translate(649.965 -584.222)">
      <circle id="Ellipse_5501" data-name="Ellipse 5501" cx="21.673" cy="21.673" r="21.673" transform="matrix(0.417, -0.909, 0.909, 0.417, 2.624, 41.332)" opacity="0.6" fill="url(#linear-gradient-3)" style="mix-blend-mode: multiply;isolation: isolate"/>
      <path id="Path_169716" data-name="Path 169716" d="M718.5-533.692c-2.032.745-4.077,1.456-6.1,2.223-.629.239-.962.175-1.531-.462A25.308,25.308,0,0,0,707-535.5c-.866-.635-1.126-.93-.9-1.727.574-2.048,1.053-4.122,1.61-6.175.211-.778-.092-1.1-1.359-1.233a13.428,13.428,0,0,1-5.69-1.946c-1.208-.747-1.65-.792-2.017.016-.911,2-1.922,3.956-2.831,5.959a1.12,1.12,0,0,1-1.192.754c-1.943.06-3.881.241-5.824.314a1.181,1.181,0,0,1-.864-.5c-1.267-2.05-2.486-4.129-3.758-6.265a26.573,26.573,0,0,0-8.1,3.665c-.206.135-.257.752-.153,1.071.649,1.99,1.334,3.97,2.07,5.93.286.762.169,1.2-.555,1.851a28.259,28.259,0,0,0-3.516,3.97,1.012,1.012,0,0,1-1.257.493c-2.334-.6-4.677-1.162-7.144-1.77-.521,1.111-1.111,2.165-1.515,3.284-.564,1.565-.983,3.183-1.477,4.774a.931.931,0,0,0,.633,1.309q3.016,1.332,5.969,2.8a1.267,1.267,0,0,1,.57.9c.117,1.869.114,3.747.251,5.614a1.125,1.125,0,0,1-.647,1.257c-2.054,1.19-4.078,2.432-6.183,3.7a26.952,26.952,0,0,0,3.935,8.639c2.205-.805,4.42-1.554,6.582-2.434a1.46,1.46,0,0,1,1.89.476c1.283,1.309,2.668,2.525,4.067,3.712.458.388.672.646.491,1.3-.644,2.315-1.286,4.985-1.909,7.467l1.1.359c2.267.748,4.581,1.5,6.885,2.28.731.248,1.109.1,1.443-.668.831-1.917,1.81-3.769,2.687-5.667a1.153,1.153,0,0,1,1.3-.759,41.727,41.727,0,0,0,5.49-.223c.667-.07,1.009.041,1.317.569,1.086,1.868,2.218,3.71,3.3,5.579.35.6.679.869,1.586.231a21.466,21.466,0,0,1,6.277-2.941c.94-.28,1.1-.655.839-1.341-.758-2.026-1.448-4.076-2.216-6.1a.979.979,0,0,1,.3-1.253c1.415-1.429,2.774-2.917,4.076-4.45.418-.492.709-.723,1.386-.546,2.3.6,4.612,1.12,6.921,1.67l.6-.879c.409-.974.874-1.929,1.214-2.926.491-1.438.877-2.911,1.337-4.36.178-.563-.017-.817-.534-1.049-2.227-1-4.435-2.046-6.435-2.975-.194-2.431-.4-4.681-.527-6.934a1.271,1.271,0,0,1,.474-.975c1.83-1.153,3.683-2.271,5.568-3.332.875-.492.947-1.005-.329-2.4a9.356,9.356,0,0,1-2.315-5.014C719.667-534.1,719.14-533.926,718.5-533.692ZM706.725-504.5a18.124,18.124,0,0,1-25.566,1.33,18.124,18.124,0,0,1-1.33-25.567,18.123,18.123,0,0,1,25.566-1.329A18.122,18.122,0,0,1,706.725-504.5Z" transform="translate(-662.442 547.153)" fill="#f6bf28"/>
      <path id="Path_169717" data-name="Path 169717" d="M685.638-523.207a16.833,16.833,0,0,0,1.235,23.748,16.833,16.833,0,0,0,23.748-1.235,16.833,16.833,0,0,0-1.235-23.748A16.833,16.833,0,0,0,685.638-523.207Zm21.888,17.954a11.6,11.6,0,0,1-16.072,3,11.579,11.579,0,0,1-3.015-16.063,11.478,11.478,0,0,1,16.025-3.035A11.492,11.492,0,0,1,707.526-505.253Z" transform="translate(-667.127 542.589)" fill="#5085c7"/>
      <path id="Path_169718" data-name="Path 169718" d="M687.618-499.8a15.282,15.282,0,0,0,13.056,4.643l-.038-.295a14.985,14.985,0,0,1-12.8-4.552,14.946,14.946,0,0,1,.6-21.1l-.2-.217A15.244,15.244,0,0,0,687.618-499.8Z" transform="translate(-667.66 540.745)" fill="#12263f"/>
      <path id="Path_169719" data-name="Path 169719" d="M703.523-526.558a14.98,14.98,0,0,1,9.2,3.059l.181-.236a15.277,15.277,0,0,0-9.383-3.119Z" transform="translate(-672.635 542.117)" fill="#12263f"/>
      <path id="Path_169720" data-name="Path 169720" d="M717.346-497.075l.2.216a15.215,15.215,0,0,0,4.236-15.088l-.287.078A14.918,14.918,0,0,1,717.346-497.075Z" transform="translate(-676.066 538.417)" fill="#12263f"/>
      <path id="Path_169721" data-name="Path 169721" d="M689.192-532.68a21.017,21.017,0,0,0-12.54,14.351l.4.1a20.6,20.6,0,0,1,12.3-14.07,20.556,20.556,0,0,1,26.687,11.443l.38-.152A20.966,20.966,0,0,0,689.192-532.68Z" transform="translate(-665.968 543.933)" fill="#e86038"/>
      <path id="Path_169722" data-name="Path 169722" d="M726.335-496.523a20.6,20.6,0,0,1-8.563,10.22l.211.35a21.01,21.01,0,0,0,8.734-10.423Z" transform="translate(-676.172 534.59)" fill="#e86038"/>
    </g>
    <g id="Group_110661" data-name="Group 110661" transform="translate(713.098 -617.648)">
      <circle id="Ellipse_5502" data-name="Ellipse 5502" cx="35.858" cy="35.858" r="35.858" transform="matrix(0.173, -0.985, 0.985, 0.173, 11.243, 80.387)" opacity="0.6" fill="url(#linear-gradient-4)" style="mix-blend-mode: multiply;isolation: isolate"/>
      <path id="Path_169723" data-name="Path 169723" d="M826.168-582.2c-2.643,2.416-5.327,4.788-7.943,7.234-.813.76-1.362.872-2.635.253a41.794,41.794,0,0,0-8.169-3.027c-1.724-.429-2.308-.716-2.466-2.077-.407-3.5-.976-6.972-1.412-10.464-.165-1.323-.833-1.631-2.855-1.034a22.208,22.208,0,0,1-9.932.593c-2.317-.385-3.022-.177-3.078,1.291-.138,3.635-.46,7.264-.592,10.9a1.852,1.852,0,0,1-1.351,1.9c-2.936,1.312-5.789,2.807-8.718,4.136a1.951,1.951,0,0,1-1.638-.226c-3.226-2.341-6.4-4.758-9.686-7.229a43.964,43.964,0,0,0-10.1,10.694c-.23.336.08,1.313.439,1.736q3.364,3.96,6.892,7.778c.917.987,1.01,1.729.313,3.183a46.713,46.713,0,0,0-2.892,8.285c-.286,1.077-.677,1.415-1.614,1.544-3.949.546-7.889,1.156-12.048,1.775-.1,2.029-.341,4.01-.256,5.979.119,2.75.494,5.489.735,8.236.1,1.123.6,1.574,1.791,1.606q5.452.145,10.9.541a2.091,2.091,0,0,1,1.44,1.026c1.353,2.788,2.527,5.664,3.91,8.437a1.861,1.861,0,0,1-.2,2.33c-2.4,3.111-4.716,6.283-7.143,9.538A44.57,44.57,0,0,0,769.3-496.511c2.869-2.617,5.79-5.153,8.547-7.858,1.087-1.066,1.883-1.02,3.192-.458,2.786,1.2,5.667,2.19,8.555,3.129.944.307,1.435.567,1.566,1.678.468,3.948,1.162,8.438,1.765,12.628l1.905-.138c3.94-.277,7.953-.581,11.97-.832,1.274-.08,1.762-.536,1.789-1.928.068-3.456.4-6.906.556-10.362a1.906,1.906,0,0,1,1.518-1.98,69,69,0,0,0,8.265-3.786,1.85,1.85,0,0,1,2.373.044c2.835,2.177,5.724,4.286,8.556,6.467.915.7,1.585.905,2.572-.642a35.5,35.5,0,0,1,7.763-8.443c1.262-1.018,1.267-1.692.442-2.581-2.431-2.625-4.776-5.329-7.22-7.941a1.619,1.619,0,0,1-.335-2.1c1.269-3.075,2.416-6.207,3.445-9.371.331-1.015.632-1.551,1.78-1.705,3.891-.523,7.763-1.182,11.643-1.789l.369-1.723c.015-1.747.127-3.5.022-5.243-.151-2.509-.485-5.007-.692-7.513-.08-.973-.537-1.239-1.474-1.27-4.038-.135-8.073-.348-11.719-.514-1.823-3.6-3.544-6.918-5.161-10.285a2.1,2.1,0,0,1,.115-1.791c2.077-2.913,4.213-5.789,6.432-8.6,1.03-1.3.818-2.133-2.008-3.461a15.482,15.482,0,0,1-6.692-6.222C827.694-583.563,827-582.963,826.168-582.2Zm.3,52.08a29.985,29.985,0,0,1-38.3,18.087,29.985,29.985,0,0,1-18.086-38.3,29.985,29.985,0,0,1,38.3-18.087A29.985,29.985,0,0,1,826.467-530.124Z" transform="translate(-746.411 591.611)" fill="#f6bf28"/>
      <path id="Path_169724" data-name="Path 169724" d="M780.444-541.777a27.853,27.853,0,0,0,16.8,35.579A27.853,27.853,0,0,0,832.823-523a27.854,27.854,0,0,0-16.8-35.579A27.853,27.853,0,0,0,780.444-541.777Zm44.778,13.743a19.2,19.2,0,0,1-22.72,14.679,19.159,19.159,0,0,1-14.7-22.7,18.989,18.989,0,0,1,22.626-14.706A19.012,19.012,0,0,1,825.222-528.034Z" transform="translate(-754.451 583.82)" fill="#5085c7"/>
      <path id="Path_169725" data-name="Path 169725" d="M797.047-504a25.284,25.284,0,0,0,22.9-1.089l-.244-.427a24.789,24.789,0,0,1-22.454,1.068,24.729,24.729,0,0,1-12.326-32.686l-.449-.2A25.222,25.222,0,0,0,797.047-504Z" transform="translate(-755.301 578.145)" fill="#12263f"/>
      <path id="Path_169726" data-name="Path 169726" d="M802.928-554.613a24.782,24.782,0,0,1,16-1.094l.128-.475a25.276,25.276,0,0,0-16.322,1.115Z" transform="translate(-760.388 583.033)" fill="#12263f"/>
      <path id="Path_169727" data-name="Path 169727" d="M844.713-518.427l.448.2a25.172,25.172,0,0,0-2.988-25.755l-.39.3A24.682,24.682,0,0,1,844.713-518.427Z" transform="translate(-770.077 579.791)" fill="#12263f"/>
      <path id="Path_169728" data-name="Path 169728" d="M780.315-559.395a34.775,34.775,0,0,0-10.188,29.84l.671-.1a34.1,34.1,0,0,1,9.988-29.258,34.011,34.011,0,0,1,48.038.764l.486-.471A34.688,34.688,0,0,0,780.315-559.395Z" transform="translate(-752.209 586.035)" fill="#e86038"/>
      <path id="Path_169729" data-name="Path 169729" d="M858.823-524.084a34.09,34.09,0,0,1-6.694,21.02l.544.405A34.765,34.765,0,0,0,859.5-524.1Z" transform="translate(-772.644 574.858)" fill="#e86038"/>
    </g>
    <g id="Group_110662" data-name="Group 110662" transform="translate(811.167 -566.882)">
      <path id="Path_169730" data-name="Path 169730" d="M878.8-520.181s-.048-.342.057-.43.529-.491.529-.491l.114-.2s.414-.212.487-.256.174-.126.02-.2a.811.811,0,0,0-.613.032.626.626,0,0,1-.338.088,5.582,5.582,0,0,0-.13-.621s.073-.776.073-1.1,0-.5-.09-.517-.191.157-.244.5c-.04.256-.1.632-.127.8a.022.022,0,0,1-.042,0c-.053-.241-.2-.884-.233-1.041-.046-.194-.123-.5-.243-.478s-.078.656-.059.942c.012.189.037.407.053.533a.015.015,0,0,1-.029.008c-.1-.223-.328-.754-.414-.9-.109-.183-.194-.237-.246-.211s-.059.271-.006.486c.041.171.2.674.268.878a.016.016,0,0,1-.028.015c-.1-.13-.31-.4-.4-.524-.117-.165-.223-.266-.3-.211s.117.477.192.633.28.49.28.49a6.244,6.244,0,0,0,.1.959,1.662,1.662,0,0,0,.443.785c0,.141-.039.471-.039.471l1.01-.014Z" transform="translate(-876.846 524.09)" fill="#cc7f7f"/>
      <path id="Path_169731" data-name="Path 169731" d="M877.413-518.351a.65.65,0,0,1,.55-.611l1.1-.171a.673.673,0,0,1,.772.576,33.272,33.272,0,0,0,.835,4.192,28.667,28.667,0,0,0,1.707,4.723,84,84,0,0,0,8.84,5.624c1.546,1.048,2.189,2.727,1.355,3.917l-.279.4c-.834,1.189-2.763,1.3-4.309.256l-1.335-.9-.021-.016a26.457,26.457,0,0,1-6.288-5.68h0a12.172,12.172,0,0,1-2.507-6.116l-.168-1.478,0-.022A32.454,32.454,0,0,1,877.413-518.351Z" transform="translate(-876.984 522.862)" fill="#ee3f3a"/>
    </g>
    <g id="Group_110664" data-name="Group 110664" transform="translate(651.79 -541.112)">
      <path id="Path_169732" data-name="Path 169732" d="M674.143-487.386s.3-.178.3-.316.047-.72.047-.72l.083-.214s-.1-.456-.109-.54-.012-.214.144-.141a.809.809,0,0,1,.362.5.633.633,0,0,0,.145.319,5.727,5.727,0,0,1,.565-.292s.556-.545.806-.749.387-.313.459-.256,0,.248-.233.5c-.174.192-.431.472-.544.605a.021.021,0,0,0,.026.033c.221-.111.81-.405.955-.475.179-.086.465-.219.524-.113s-.459.474-.693.641c-.154.109-.339.227-.447.3a.015.015,0,0,0,.012.027c.233-.066.792-.222.958-.246.211-.031.306,0,.32.058s-.173.217-.374.311c-.159.075-.652.268-.851.346a.016.016,0,0,0,.006.031c.164,0,.507-.012.657-.022.2-.014.347.005.354.1s-.443.21-.613.25-.557.092-.557.092a6.249,6.249,0,0,1-.8.53,1.659,1.659,0,0,1-.889.151c-.111.088-.341.328-.341.328l-.626-.792Z" transform="translate(-667.081 489.815)" fill="#cc7f7f"/>
      <g id="Group_110663" data-name="Group 110663" transform="translate(0 2.456)">
        <path id="Path_169733" data-name="Path 169733" d="M667.075-485.982a12.457,12.457,0,0,0-2.2.311c.011.02.024.038.035.059a36.24,36.24,0,0,0,1.966,3.295,10.608,10.608,0,0,0,1.339-.523l1.334-.637.018-.009a10.411,10.411,0,0,0,2.875-2.128l-.492-.935C670.368-486.243,667.075-485.982,667.075-485.982Z" transform="translate(-664.87 486.548)" fill="#03add0"/>
      </g>
    </g>
    <g id="Group_110665" data-name="Group 110665" transform="translate(618.773 -649.625)" opacity="0.75">
      <path id="Path_169734" data-name="Path 169734" d="M620.956-607.639s2.465-.462,3.39-2.157,1.541-9.861,4.314-10.17,2.928,3.852,2.928,3.852.308-18.028,9.091-18.028,8.937,16.024,8.937,16.024-.617-4.931,3.082-5.239,3.389,8.013,3.389,8.013.308-4.006,3.236-4.006,3.082,4.777,3.236,6.317,8.782,5.547,8.782,5.547Z" transform="translate(-620.956 634.141)" fill="#28b5bd"/>
      <path id="Path_169735" data-name="Path 169735" d="M631.226-603.211s2.182-.327,3-1.524,1.363-6.967,3.818-7.185,2.591,2.722,2.591,2.722.273-12.736,8.045-12.736,7.909,11.321,7.909,11.321-.545-3.483,2.728-3.7,3,5.661,3,5.661.272-2.831,2.863-2.831,2.728,3.374,2.864,4.463,7.773,3.919,7.773,3.919Z" transform="translate(-623.505 631.112)" fill="#f6bf28"/>
      <path id="Path_169736" data-name="Path 169736" d="M686.212-598.882s-2.465-.462-3.389-2.157-1.541-9.861-4.315-10.17-2.927,3.852-2.927,3.852-.308-18.027-9.091-18.027-8.937,16.024-8.937,16.024.617-4.931-3.082-5.239-3.39,8.013-3.39,8.013-.307-4.006-3.235-4.006-3.056,4.779-3.236,6.317c-.614,5.234-8.782,5.547-8.782,5.547Z" transform="translate(-624.646 631.968)" fill="#98f2f9"/>
    </g>
  </g>
</svg>
