<svg xmlns="http://www.w3.org/2000/svg" width="820" height="241" viewBox="0 0 820 241">
  <g id="t3-t1" transform="translate(-390 -2061.5)">
    <path id="Path_172180" data-name="Path 172180" d="M0,0H820V80H0Z" transform="translate(390 2062)" fill="#ffe9ac"/>
    <path id="Path_178418" data-name="Path 178418" d="M-72-2.391h-4.228L-76.961,0h-3.3l4.693-12.8h2.9L-67.935,0h-3.313Zm-3.489-2.382h2.751l-1.38-4.438Zm12.366,2.663a1.317,1.317,0,0,0,.967-.338,1.241,1.241,0,0,0,.334-.945h2.777A3.288,3.288,0,0,1-60.161-.826a4.168,4.168,0,0,1-2.887,1,4.22,4.22,0,0,1-3.27-1.3,5.125,5.125,0,0,1-1.2-3.6v-.123A5.792,5.792,0,0,1-66.981-7.4a3.872,3.872,0,0,1,1.534-1.7,4.573,4.573,0,0,1,2.373-.593A4.116,4.116,0,0,1-60.13-8.657a3.647,3.647,0,0,1,1.09,2.786h-2.777A1.626,1.626,0,0,0-62.178-7a1.244,1.244,0,0,0-.967-.4q-1.151,0-1.345,1.468a10.357,10.357,0,0,0-.062,1.283,4.068,4.068,0,0,0,.343,1.986A1.187,1.187,0,0,0-63.119-2.109Zm9.352,0a1.317,1.317,0,0,0,.967-.338,1.241,1.241,0,0,0,.334-.945h2.777A3.288,3.288,0,0,1-50.81-.826a4.168,4.168,0,0,1-2.887,1,4.22,4.22,0,0,1-3.27-1.3,5.125,5.125,0,0,1-1.2-3.6v-.123A5.792,5.792,0,0,1-57.63-7.4a3.872,3.872,0,0,1,1.534-1.7,4.573,4.573,0,0,1,2.373-.593,4.116,4.116,0,0,1,2.944,1.028,3.647,3.647,0,0,1,1.09,2.786h-2.777A1.626,1.626,0,0,0-52.827-7a1.244,1.244,0,0,0-.967-.4q-1.151,0-1.345,1.468A10.357,10.357,0,0,0-55.2-4.649a4.068,4.068,0,0,0,.343,1.986A1.187,1.187,0,0,0-53.767-2.109ZM-45.312,0h-2.971V-9.51h2.971Zm-3.146-11.971A1.334,1.334,0,0,1-48-13.014a1.718,1.718,0,0,1,1.187-.407,1.718,1.718,0,0,1,1.187.407,1.334,1.334,0,0,1,.457,1.043,1.334,1.334,0,0,1-.457,1.043,1.718,1.718,0,0,1-1.187.407A1.718,1.718,0,0,1-48-10.927,1.334,1.334,0,0,1-48.458-11.971Zm4.6,7.128a5.613,5.613,0,0,1,.554-2.536,3.96,3.96,0,0,1,1.591-1.709,4.791,4.791,0,0,1,2.435-.6,4.373,4.373,0,0,1,3.366,1.323,5.076,5.076,0,0,1,1.23,3.6v.105a4.925,4.925,0,0,1-1.235,3.529A4.384,4.384,0,0,1-39.265.176a4.434,4.434,0,0,1-3.261-1.217,4.761,4.761,0,0,1-1.327-3.3Zm2.962.185a3.538,3.538,0,0,0,.413,1.934,1.376,1.376,0,0,0,1.222.615q1.582,0,1.617-2.435v-.3q0-2.558-1.635-2.558-1.485,0-1.608,2.206ZM-30.661-9.51l.1,1.116a3.225,3.225,0,0,1,2.716-1.292,2.713,2.713,0,0,1,2.219.888,4.226,4.226,0,0,1,.76,2.672V0h-2.971V-6a1.6,1.6,0,0,0-.29-1.059A1.342,1.342,0,0,0-29.184-7.4a1.413,1.413,0,0,0-1.292.686V0h-2.962V-9.51ZM-18.628.176A4.889,4.889,0,0,1-22.17-1.129a4.507,4.507,0,0,1-1.354-3.4v-.246a5.84,5.84,0,0,1,.541-2.575,3.955,3.955,0,0,1,1.578-1.727,4.763,4.763,0,0,1,2.461-.611,4.117,4.117,0,0,1,3.164,1.244,4.887,4.887,0,0,1,1.16,3.467v1.151h-5.889a2.135,2.135,0,0,0,.694,1.257,2.066,2.066,0,0,0,1.389.457,2.662,2.662,0,0,0,2.2-.984l1.354,1.6A3.784,3.784,0,0,1-16.444-.277,5.3,5.3,0,0,1-18.628.176ZM-18.962-7.4q-1.3,0-1.547,1.723h2.988v-.229a1.467,1.467,0,0,0-.36-1.1A1.434,1.434,0,0,0-18.962-7.4ZM-8.451-2.672a.684.684,0,0,0-.4-.606,6.016,6.016,0,0,0-1.5-.475A6.853,6.853,0,0,1-12.177-4.4a3.062,3.062,0,0,1-1.1-.971,2.319,2.319,0,0,1-.378-1.31,2.628,2.628,0,0,1,1.081-2.158,4.453,4.453,0,0,1,2.83-.848,4.934,4.934,0,0,1,3.023.853A2.666,2.666,0,0,1-5.577-6.592H-8.547q0-1.143-1.2-1.143a1.194,1.194,0,0,0-.782.259.8.8,0,0,0-.316.646.737.737,0,0,0,.387.642,3.654,3.654,0,0,0,1.235.4,10.671,10.671,0,0,1,1.49.378A2.706,2.706,0,0,1-5.594-2.76,2.491,2.491,0,0,1-6.75-.642,5.068,5.068,0,0,1-9.743.176a5.172,5.172,0,0,1-2.18-.439,3.645,3.645,0,0,1-1.494-1.2,2.707,2.707,0,0,1-.536-1.591h2.769a1.145,1.145,0,0,0,.439.962,1.808,1.808,0,0,0,1.081.3,1.422,1.422,0,0,0,.91-.246A.787.787,0,0,0-8.451-2.672ZM-.1-4.825a5.809,5.809,0,0,1,.976-3.56A3.211,3.211,0,0,1,3.6-9.686a2.731,2.731,0,0,1,2.145,1V-13.5H8.714V0H6.051L5.9-1.02a2.8,2.8,0,0,1-2.32,1.2,3.205,3.205,0,0,1-2.689-1.3A5.993,5.993,0,0,1-.1-4.825Zm2.962.185q0,2.531,1.477,2.531a1.458,1.458,0,0,0,1.406-.826V-6.557A1.419,1.419,0,0,0,4.355-7.4Q2.984-7.4,2.87-5.186ZM15,.176a4.889,4.889,0,0,1-3.542-1.305,4.507,4.507,0,0,1-1.354-3.4v-.246a5.84,5.84,0,0,1,.541-2.575,3.955,3.955,0,0,1,1.578-1.727,4.763,4.763,0,0,1,2.461-.611,4.117,4.117,0,0,1,3.164,1.244,4.887,4.887,0,0,1,1.16,3.467v1.151H13.118a2.135,2.135,0,0,0,.694,1.257,2.066,2.066,0,0,0,1.389.457,2.662,2.662,0,0,0,2.2-.984l1.354,1.6A3.784,3.784,0,0,1,17.183-.277,5.3,5.3,0,0,1,15,.176ZM14.665-7.4q-1.3,0-1.547,1.723h2.988v-.229a1.467,1.467,0,0,0-.36-1.1A1.434,1.434,0,0,0,14.665-7.4ZM27.479-9.51l.1,1.116a3.27,3.27,0,0,1,2.716-1.292,2.407,2.407,0,0,1,2.435,1.433,3.165,3.165,0,0,1,2.795-1.433q2.892,0,2.971,3.5V0H35.521V-6a1.813,1.813,0,0,0-.246-1.063,1.048,1.048,0,0,0-.9-.334,1.4,1.4,0,0,0-1.31.782l.009.123V0H30.107V-5.985a1.906,1.906,0,0,0-.237-1.081,1.045,1.045,0,0,0-.905-.334,1.42,1.42,0,0,0-1.3.782V0H24.7V-9.51ZM44.785.176a4.889,4.889,0,0,1-3.542-1.305,4.507,4.507,0,0,1-1.354-3.4v-.246a5.84,5.84,0,0,1,.541-2.575,3.955,3.955,0,0,1,1.578-1.727,4.763,4.763,0,0,1,2.461-.611,4.117,4.117,0,0,1,3.164,1.244,4.887,4.887,0,0,1,1.16,3.467v1.151H42.9A2.135,2.135,0,0,0,43.6-2.566a2.066,2.066,0,0,0,1.389.457,2.662,2.662,0,0,0,2.2-.984l1.354,1.6A3.784,3.784,0,0,1,46.969-.277,5.3,5.3,0,0,1,44.785.176ZM44.451-7.4q-1.3,0-1.547,1.723h2.988v-.229a1.467,1.467,0,0,0-.36-1.1A1.434,1.434,0,0,0,44.451-7.4ZM53.169-9.51V.325a3.452,3.452,0,0,1-.967,2.6,3.714,3.714,0,0,1-2.672.914,6.308,6.308,0,0,1-1.4-.149V1.45a5.667,5.667,0,0,0,.835.079A1.084,1.084,0,0,0,50.2.308V-9.51Zm-3.19-2.461a1.334,1.334,0,0,1,.457-1.043,1.718,1.718,0,0,1,1.187-.407,1.718,1.718,0,0,1,1.187.407,1.334,1.334,0,0,1,.457,1.043,1.334,1.334,0,0,1-.457,1.043,1.718,1.718,0,0,1-1.187.407,1.718,1.718,0,0,1-1.187-.407A1.334,1.334,0,0,1,49.979-11.971ZM54.47-4.843a5.613,5.613,0,0,1,.554-2.536,3.96,3.96,0,0,1,1.591-1.709,4.791,4.791,0,0,1,2.435-.6,4.373,4.373,0,0,1,3.366,1.323,5.076,5.076,0,0,1,1.23,3.6v.105a4.925,4.925,0,0,1-1.235,3.529A4.384,4.384,0,0,1,59.067.176a4.434,4.434,0,0,1-3.261-1.217,4.761,4.761,0,0,1-1.327-3.3Zm2.962.185a3.538,3.538,0,0,0,.413,1.934,1.376,1.376,0,0,0,1.222.615q1.582,0,1.617-2.435v-.3q0-2.558-1.635-2.558-1.485,0-1.608,2.206ZM70.7-6.829l-.976-.07a1.752,1.752,0,0,0-1.793.879V0H64.973V-9.51H67.75l.1,1.222a2.294,2.294,0,0,1,2.083-1.4,2.888,2.888,0,0,1,.826.105ZM76.865,0a3.344,3.344,0,0,1-.281-.853A2.754,2.754,0,0,1,74.3.176a3.374,3.374,0,0,1-2.285-.813,2.588,2.588,0,0,1-.94-2.043,2.66,2.66,0,0,1,1.143-2.338,5.821,5.821,0,0,1,3.322-.791h.914v-.5q0-1.316-1.134-1.316a.927.927,0,0,0-1.055,1.042H71.3a2.655,2.655,0,0,1,1.173-2.239,4.931,4.931,0,0,1,2.993-.86,4.323,4.323,0,0,1,2.874.888,3.086,3.086,0,0,1,1.081,2.435v4.21a4.311,4.311,0,0,0,.4,2V0ZM75.01-1.934a1.652,1.652,0,0,0,.918-.237,1.487,1.487,0,0,0,.523-.536V-4.228H75.59q-1.547,0-1.547,1.389a.848.848,0,0,0,.272.655A.986.986,0,0,0,75.01-1.934ZM-52.225,25a3.344,3.344,0,0,1-.281-.853,2.754,2.754,0,0,1-2.285,1.028,3.374,3.374,0,0,1-2.285-.813,2.588,2.588,0,0,1-.94-2.043,2.66,2.66,0,0,1,1.143-2.338,5.821,5.821,0,0,1,3.322-.791h.914v-.5q0-1.316-1.134-1.316a.927.927,0,0,0-1.055,1.042h-2.962a2.655,2.655,0,0,1,1.173-2.239,4.931,4.931,0,0,1,2.993-.86,4.323,4.323,0,0,1,2.874.888,3.086,3.086,0,0,1,1.081,2.435v4.21a4.311,4.311,0,0,0,.4,2V25Zm-1.854-1.934a1.652,1.652,0,0,0,.918-.237,1.487,1.487,0,0,0,.523-.536V20.772H-53.5q-1.547,0-1.547,1.389a.848.848,0,0,0,.272.655A.986.986,0,0,0-54.079,23.066ZM-40.421,25h-2.971V11.5h2.971Zm4.948,0h-2.971V11.5h2.971Zm6.425.176a4.889,4.889,0,0,1-3.542-1.305,4.507,4.507,0,0,1-1.354-3.4v-.246a5.84,5.84,0,0,1,.541-2.575,3.955,3.955,0,0,1,1.578-1.727,4.763,4.763,0,0,1,2.461-.611A4.117,4.117,0,0,1-26.2,16.558a4.887,4.887,0,0,1,1.16,3.467v1.151h-5.889a2.135,2.135,0,0,0,.694,1.257,2.066,2.066,0,0,0,1.389.457,2.662,2.662,0,0,0,2.2-.984l1.354,1.6a3.784,3.784,0,0,1-1.569,1.217A5.3,5.3,0,0,1-29.048,25.176Zm-.334-7.576q-1.3,0-1.547,1.723h2.988v-.229a1.467,1.467,0,0,0-.36-1.1A1.434,1.434,0,0,0-29.382,17.6Zm9.211,3.876,1.5-5.985h3.12L-18.65,25h-3.023l-3.1-9.51h3.129ZM-9.439,25a3.344,3.344,0,0,1-.281-.853,2.754,2.754,0,0,1-2.285,1.028,3.374,3.374,0,0,1-2.285-.813,2.588,2.588,0,0,1-.94-2.043,2.66,2.66,0,0,1,1.143-2.338,5.821,5.821,0,0,1,3.322-.791h.914v-.5q0-1.316-1.134-1.316a.927.927,0,0,0-1.055,1.042H-15a2.655,2.655,0,0,1,1.173-2.239,4.931,4.931,0,0,1,2.993-.86,4.323,4.323,0,0,1,2.874.888,3.086,3.086,0,0,1,1.081,2.435v4.21a4.311,4.311,0,0,0,.4,2V25Zm-1.854-1.934a1.652,1.652,0,0,0,.918-.237,1.487,1.487,0,0,0,.523-.536V20.772h-.861q-1.547,0-1.547,1.389a.848.848,0,0,0,.272.655A.986.986,0,0,0-11.294,23.066Zm11.8-4.9-.976-.07a1.752,1.752,0,0,0-1.793.879V25H-5.221V15.49h2.777l.1,1.222a2.294,2.294,0,0,1,2.083-1.4,2.888,2.888,0,0,1,.826.105ZM11.417,25a3.344,3.344,0,0,1-.281-.853,2.754,2.754,0,0,1-2.285,1.028,3.374,3.374,0,0,1-2.285-.813,2.588,2.588,0,0,1-.94-2.043,2.66,2.66,0,0,1,1.143-2.338,5.821,5.821,0,0,1,3.322-.791H11v-.5q0-1.316-1.134-1.316a.927.927,0,0,0-1.055,1.042H5.854a2.655,2.655,0,0,1,1.173-2.239,4.931,4.931,0,0,1,2.993-.86,4.323,4.323,0,0,1,2.874.888,3.086,3.086,0,0,1,1.081,2.435v4.21a4.311,4.311,0,0,0,.4,2V25ZM9.563,23.066a1.652,1.652,0,0,0,.918-.237A1.487,1.487,0,0,0,11,22.293V20.772h-.861q-1.547,0-1.547,1.389a.848.848,0,0,0,.272.655A.986.986,0,0,0,9.563,23.066Zm14.555-.176a1.317,1.317,0,0,0,.967-.338,1.241,1.241,0,0,0,.334-.945H28.2a3.288,3.288,0,0,1-1.121,2.566,4.168,4.168,0,0,1-2.887,1,4.22,4.22,0,0,1-3.27-1.3,5.125,5.125,0,0,1-1.2-3.6v-.123a5.792,5.792,0,0,1,.532-2.544,3.872,3.872,0,0,1,1.534-1.7,4.573,4.573,0,0,1,2.373-.593,4.116,4.116,0,0,1,2.944,1.028,3.647,3.647,0,0,1,1.09,2.786H25.418A1.626,1.626,0,0,0,25.058,18a1.244,1.244,0,0,0-.967-.4q-1.151,0-1.345,1.468a10.357,10.357,0,0,0-.062,1.283,4.068,4.068,0,0,0,.343,1.986A1.187,1.187,0,0,0,24.117,22.891ZM34.8,25a3.344,3.344,0,0,1-.281-.853,2.754,2.754,0,0,1-2.285,1.028,3.374,3.374,0,0,1-2.285-.813,2.588,2.588,0,0,1-.94-2.043,2.66,2.66,0,0,1,1.143-2.338,5.821,5.821,0,0,1,3.322-.791h.914v-.5q0-1.316-1.134-1.316A.927.927,0,0,0,32.2,18.413H29.241a2.655,2.655,0,0,1,1.173-2.239,4.931,4.931,0,0,1,2.993-.86,4.323,4.323,0,0,1,2.874.888,3.086,3.086,0,0,1,1.081,2.435v4.21a4.311,4.311,0,0,0,.4,2V25ZM32.95,23.066a1.652,1.652,0,0,0,.918-.237,1.487,1.487,0,0,0,.523-.536V20.772H33.53q-1.547,0-1.547,1.389a.848.848,0,0,0,.272.655A.986.986,0,0,0,32.95,23.066Zm14.88-2.742a5.8,5.8,0,0,1-.967,3.595,3.238,3.238,0,0,1-2.725,1.257A2.81,2.81,0,0,1,41.8,24.024L41.678,25H39.023V11.5h2.962v4.755a2.711,2.711,0,0,1,2.136-.94,3.239,3.239,0,0,1,2.742,1.274,5.826,5.826,0,0,1,.967,3.586Zm-2.971-.189a3.866,3.866,0,0,0-.365-1.952,1.229,1.229,0,0,0-1.121-.584,1.418,1.418,0,0,0-1.389.763v3.773a1.426,1.426,0,0,0,1.406.755,1.258,1.258,0,0,0,1.327-1.018A7.309,7.309,0,0,0,44.859,20.135Zm3.9.022a5.613,5.613,0,0,1,.554-2.536,3.96,3.96,0,0,1,1.591-1.709,4.791,4.791,0,0,1,2.435-.6,4.373,4.373,0,0,1,3.366,1.323,5.076,5.076,0,0,1,1.23,3.6v.105A4.925,4.925,0,0,1,56.7,23.871a4.384,4.384,0,0,1-3.344,1.305A4.434,4.434,0,0,1,50.1,23.958a4.761,4.761,0,0,1-1.327-3.3Zm2.962.185a3.538,3.538,0,0,0,.413,1.934,1.376,1.376,0,0,0,1.222.615q1.582,0,1.617-2.435v-.3q0-2.558-1.635-2.558-1.485,0-1.608,2.206Z" transform="translate(575 2096)" fill="#12263f"/>
    <path id="Path_178420" data-name="Path 178420" d="M-38.2,0V-12.8h4.122a6.064,6.064,0,0,1,3.05.769,5.406,5.406,0,0,1,2.114,2.171,6.554,6.554,0,0,1,.769,3.142v.589a6.592,6.592,0,0,1-.743,3.151A5.429,5.429,0,0,1-30.981-.8a5.93,5.93,0,0,1-3.01.8Zm3.085-10.415v8.042h1.072a2.4,2.4,0,0,0,2.039-.945,4.63,4.63,0,0,0,.712-2.808V-6.68a4.592,4.592,0,0,0-.712-2.795,2.442,2.442,0,0,0-2.074-.94ZM-23.577,0h-2.971V-9.51h2.971Zm-3.146-11.971a1.334,1.334,0,0,1,.457-1.043,1.718,1.718,0,0,1,1.187-.407,1.718,1.718,0,0,1,1.187.407,1.334,1.334,0,0,1,.457,1.043,1.334,1.334,0,0,1-.457,1.043,1.718,1.718,0,0,1-1.187.407,1.718,1.718,0,0,1-1.187-.407A1.334,1.334,0,0,1-26.723-11.971ZM-21.063,0V-7.453h-1.38V-9.51h1.38v-.316a3.631,3.631,0,0,1,1.248-2.909,4.987,4.987,0,0,1,3.243-.949,11.509,11.509,0,0,1,3.094.51l-.4,2.338-.492-.132a7.832,7.832,0,0,0-2.021-.255q-1.7,0-1.7,1.547v.167h1.863v2.057h-1.863V0Zm8.947,0H-15.1V-9.51h2.979Zm5.827-2.109a1.317,1.317,0,0,0,.967-.338,1.241,1.241,0,0,0,.334-.945H-2.21A3.288,3.288,0,0,1-3.331-.826a4.168,4.168,0,0,1-2.887,1,4.22,4.22,0,0,1-3.27-1.3,5.125,5.125,0,0,1-1.2-3.6v-.123A5.792,5.792,0,0,1-10.151-7.4a3.872,3.872,0,0,1,1.534-1.7,4.573,4.573,0,0,1,2.373-.593A4.116,4.116,0,0,1-3.3-8.657,3.647,3.647,0,0,1-2.21-5.871H-4.988A1.626,1.626,0,0,0-5.348-7a1.244,1.244,0,0,0-.967-.4q-1.151,0-1.345,1.468a10.357,10.357,0,0,0-.062,1.283,4.068,4.068,0,0,0,.343,1.986A1.187,1.187,0,0,0-6.289-2.109Zm11,1.081a3.054,3.054,0,0,1-2.54,1.2A3,3,0,0,1-.2-.734a3.826,3.826,0,0,1-.8-2.615V-9.51H1.956v6.179A1.065,1.065,0,0,0,3.142-2.109a1.548,1.548,0,0,0,1.45-.729V-9.51H7.572V0H4.794ZM12.318,0H9.347V-13.5h2.971Zm5.273-11.874V-9.51h1.564v2.057H17.591V-3.1a1.111,1.111,0,0,0,.193.747,1.037,1.037,0,0,0,.765.211,4.345,4.345,0,0,0,.738-.053V-.079a5.466,5.466,0,0,1-1.67.255,3.1,3.1,0,0,1-2.259-.721,2.954,2.954,0,0,1-.729-2.188v-4.72H13.417V-9.51h1.213v-2.364ZM25.677,0A3.344,3.344,0,0,1,25.4-.853,2.754,2.754,0,0,1,23.111.176a3.374,3.374,0,0,1-2.285-.813,2.588,2.588,0,0,1-.94-2.043,2.66,2.66,0,0,1,1.143-2.338A5.821,5.821,0,0,1,24.35-5.81h.914v-.5q0-1.316-1.134-1.316a.927.927,0,0,0-1.055,1.042H20.114a2.655,2.655,0,0,1,1.173-2.239,4.931,4.931,0,0,1,2.993-.86,4.323,4.323,0,0,1,2.874.888,3.086,3.086,0,0,1,1.081,2.435v4.21a4.311,4.311,0,0,0,.4,2V0ZM23.823-1.934a1.652,1.652,0,0,0,.918-.237,1.487,1.487,0,0,0,.523-.536V-4.228H24.4q-1.547,0-1.547,1.389a.848.848,0,0,0,.272.655A.986.986,0,0,0,23.823-1.934ZM29.5-4.825a5.809,5.809,0,0,1,.976-3.56,3.211,3.211,0,0,1,2.725-1.3,2.731,2.731,0,0,1,2.145,1V-13.5h2.971V0H35.653L35.5-1.02a2.8,2.8,0,0,1-2.32,1.2,3.205,3.205,0,0,1-2.689-1.3A5.993,5.993,0,0,1,29.5-4.825Zm2.962.185q0,2.531,1.477,2.531a1.458,1.458,0,0,0,1.406-.826V-6.557A1.419,1.419,0,0,0,33.957-7.4q-1.371,0-1.485,2.215Z" transform="translate(742 2109)" fill="#12263f"/>
    <path id="Path_178421" data-name="Path 178421" d="M-18.672-4.342V0h-3.085V-12.8h5.106a5.948,5.948,0,0,1,2.6.541A4.074,4.074,0,0,1-12.3-10.718a4.2,4.2,0,0,1,.62,2.263,3.7,3.7,0,0,1-1.34,2.993A5.561,5.561,0,0,1-16.7-4.342Zm0-2.382h2.021a1.906,1.906,0,0,0,1.367-.448,1.665,1.665,0,0,0,.47-1.266A2.059,2.059,0,0,0-15.3-9.87a1.712,1.712,0,0,0-1.318-.545h-2.057ZM-7.053,0h-2.971V-13.5h2.971ZM.127,0A3.344,3.344,0,0,1-.154-.853,2.754,2.754,0,0,1-2.439.176,3.374,3.374,0,0,1-4.724-.637a2.588,2.588,0,0,1-.94-2.043A2.66,2.66,0,0,1-4.522-5.019,5.821,5.821,0,0,1-1.2-5.81h.914v-.5q0-1.316-1.134-1.316A.927.927,0,0,0-2.474-6.587H-5.436A2.655,2.655,0,0,1-4.263-8.825a4.931,4.931,0,0,1,2.993-.86A4.323,4.323,0,0,1,1.6-8.8,3.086,3.086,0,0,1,2.685-6.363v4.21a4.311,4.311,0,0,0,.4,2V0ZM-1.727-1.934a1.652,1.652,0,0,0,.918-.237,1.487,1.487,0,0,0,.523-.536V-4.228h-.861q-1.547,0-1.547,1.389a.848.848,0,0,0,.272.655A.986.986,0,0,0-1.727-1.934Zm9.545-.352h4.333V0H4.074V-1.652L8.292-7.225H4.258V-9.51h7.8v1.6Zm5.256-2.558a5.613,5.613,0,0,1,.554-2.536,3.96,3.96,0,0,1,1.591-1.709,4.791,4.791,0,0,1,2.435-.6,4.373,4.373,0,0,1,3.366,1.323,5.076,5.076,0,0,1,1.23,3.6v.105a4.925,4.925,0,0,1-1.235,3.529A4.384,4.384,0,0,1,17.67.176,4.434,4.434,0,0,1,14.41-1.042a4.761,4.761,0,0,1-1.327-3.3Zm2.962.185a3.538,3.538,0,0,0,.413,1.934,1.376,1.376,0,0,0,1.222.615q1.582,0,1.617-2.435v-.3q0-2.558-1.635-2.558-1.485,0-1.608,2.206Z" transform="translate(873 2109)" fill="#12263f"/>
    <path id="Path_178422" data-name="Path 178422" d="M-28.745,0h-3.076V-12.8h3.076Zm4.808-9.51.1,1.116a3.27,3.27,0,0,1,2.716-1.292A2.407,2.407,0,0,1-18.69-8.253,3.165,3.165,0,0,1-15.9-9.686q2.892,0,2.971,3.5V0H-15.9V-6a1.813,1.813,0,0,0-.246-1.063,1.048,1.048,0,0,0-.9-.334,1.4,1.4,0,0,0-1.31.782l.009.123V0h-2.971V-5.985a1.906,1.906,0,0,0-.237-1.081,1.045,1.045,0,0,0-.905-.334,1.42,1.42,0,0,0-1.3.782V0h-2.962V-9.51ZM-2.4-4.685a5.735,5.735,0,0,1-1,3.538A3.2,3.2,0,0,1-6.1.176,2.742,2.742,0,0,1-8.249-.782V3.656H-11.21V-9.51h2.769l.088.879A2.742,2.742,0,0,1-6.113-9.686a3.224,3.224,0,0,1,2.733,1.3A5.805,5.805,0,0,1-2.4-4.825Zm-2.962-.185q0-2.531-1.477-2.531a1.394,1.394,0,0,0-1.406.756V-2.9a1.439,1.439,0,0,0,1.424.791q1.415,0,1.459-2.443ZM4.258,0a3.344,3.344,0,0,1-.281-.853A2.754,2.754,0,0,1,1.692.176,3.374,3.374,0,0,1-.593-.637a2.588,2.588,0,0,1-.94-2.043A2.66,2.66,0,0,1-.391-5.019,5.821,5.821,0,0,1,2.931-5.81h.914v-.5q0-1.316-1.134-1.316A.927.927,0,0,0,1.657-6.587H-1.305A2.655,2.655,0,0,1-.132-8.825a4.931,4.931,0,0,1,2.993-.86A4.323,4.323,0,0,1,5.735-8.8,3.086,3.086,0,0,1,6.816-6.363v4.21a4.311,4.311,0,0,0,.4,2V0ZM2.4-1.934a1.652,1.652,0,0,0,.918-.237,1.487,1.487,0,0,0,.523-.536V-4.228H2.984q-1.547,0-1.547,1.389a.848.848,0,0,0,.272.655A.986.986,0,0,0,2.4-1.934Zm10.072-.176a1.317,1.317,0,0,0,.967-.338,1.241,1.241,0,0,0,.334-.945h2.777A3.288,3.288,0,0,1,15.434-.826a4.168,4.168,0,0,1-2.887,1,4.22,4.22,0,0,1-3.27-1.3,5.125,5.125,0,0,1-1.2-3.6v-.123A5.792,5.792,0,0,1,8.613-7.4a3.872,3.872,0,0,1,1.534-1.7,4.573,4.573,0,0,1,2.373-.593,4.116,4.116,0,0,1,2.944,1.028,3.647,3.647,0,0,1,1.09,2.786H13.777A1.626,1.626,0,0,0,13.417-7a1.244,1.244,0,0,0-.967-.4Q11.3-7.4,11.1-5.933a10.357,10.357,0,0,0-.062,1.283,4.068,4.068,0,0,0,.343,1.986A1.187,1.187,0,0,0,12.476-2.109Zm8.78-9.765V-9.51h1.564v2.057H21.256V-3.1a1.111,1.111,0,0,0,.193.747,1.037,1.037,0,0,0,.765.211,4.345,4.345,0,0,0,.738-.053V-.079a5.466,5.466,0,0,1-1.67.255,3.1,3.1,0,0,1-2.259-.721,2.954,2.954,0,0,1-.729-2.188v-4.72H17.082V-9.51h1.213v-2.364Zm2.092,7.031A5.613,5.613,0,0,1,23.9-7.378a3.96,3.96,0,0,1,1.591-1.709,4.791,4.791,0,0,1,2.435-.6,4.373,4.373,0,0,1,3.366,1.323,5.076,5.076,0,0,1,1.23,3.6v.105a4.925,4.925,0,0,1-1.235,3.529A4.384,4.384,0,0,1,27.945.176a4.434,4.434,0,0,1-3.261-1.217,4.761,4.761,0,0,1-1.327-3.3Zm2.962.185a3.538,3.538,0,0,0,.413,1.934,1.376,1.376,0,0,0,1.222.615q1.582,0,1.617-2.435v-.3q0-2.558-1.635-2.558-1.485,0-1.608,2.206Z" transform="translate(999 2109)" fill="#12263f"/>
    <path id="Path_178419" data-name="Path 178419" d="M-2.439,0H-5.506l-4.535-7.963V0h-3.085V-12.8h3.085l4.526,7.963V-12.8h3.076ZM-1-4.843A5.613,5.613,0,0,1-.444-7.378,3.96,3.96,0,0,1,1.147-9.088a4.791,4.791,0,0,1,2.435-.6A4.373,4.373,0,0,1,6.948-8.363a5.076,5.076,0,0,1,1.23,3.6v.105A4.925,4.925,0,0,1,6.943-1.129,4.384,4.384,0,0,1,3.6.176,4.434,4.434,0,0,1,.338-1.042a4.761,4.761,0,0,1-1.327-3.3Zm2.962.185a3.538,3.538,0,0,0,.413,1.934A1.376,1.376,0,0,0,3.6-2.109q1.582,0,1.617-2.435v-.3Q5.216-7.4,3.582-7.4,2.1-7.4,1.973-5.194Zm9.352,1.784a1.686,1.686,0,0,1,1.169.417,1.37,1.37,0,0,1,.466,1.068,1.37,1.37,0,0,1-.466,1.068A1.686,1.686,0,0,1,11.316.1a1.672,1.672,0,0,1-1.173-.422,1.379,1.379,0,0,1-.461-1.063,1.379,1.379,0,0,1,.461-1.063A1.672,1.672,0,0,1,11.316-2.874Z" transform="translate(427 2109)" fill="#12263f"/>
    <path id="Path_178423" data-name="Path 178423" d="M-45.316-4.342V0H-48.4V-12.8h5.106a5.948,5.948,0,0,1,2.6.541,4.074,4.074,0,0,1,1.749,1.538,4.2,4.2,0,0,1,.62,2.263,3.7,3.7,0,0,1-1.34,2.993,5.561,5.561,0,0,1-3.678,1.121Zm0-2.382h2.021a1.906,1.906,0,0,0,1.367-.448,1.665,1.665,0,0,0,.47-1.266,2.059,2.059,0,0,0-.483-1.433,1.712,1.712,0,0,0-1.318-.545h-2.057Zm14.247-.105-.976-.07a1.752,1.752,0,0,0-1.793.879V0H-36.8V-9.51h2.777l.1,1.222a2.294,2.294,0,0,1,2.083-1.4,2.888,2.888,0,0,1,.826.105ZM-26.877,0h-2.971V-9.51h2.971Zm-3.146-11.971a1.334,1.334,0,0,1,.457-1.043,1.718,1.718,0,0,1,1.187-.407,1.718,1.718,0,0,1,1.187.407,1.334,1.334,0,0,1,.457,1.043,1.334,1.334,0,0,1-.457,1.043,1.718,1.718,0,0,1-1.187.407,1.718,1.718,0,0,1-1.187-.407A1.334,1.334,0,0,1-30.023-11.971Zm4.6,7.128a5.613,5.613,0,0,1,.554-2.536,3.96,3.96,0,0,1,1.591-1.709,4.791,4.791,0,0,1,2.435-.6,4.373,4.373,0,0,1,3.366,1.323,5.076,5.076,0,0,1,1.23,3.6v.105a4.925,4.925,0,0,1-1.235,3.529A4.384,4.384,0,0,1-20.83.176a4.434,4.434,0,0,1-3.261-1.217,4.761,4.761,0,0,1-1.327-3.3Zm2.962.185a3.538,3.538,0,0,0,.413,1.934,1.376,1.376,0,0,0,1.222.615q1.582,0,1.617-2.435v-.3q0-2.558-1.635-2.558-1.485,0-1.608,2.206ZM-9.193-6.829l-.976-.07a1.752,1.752,0,0,0-1.793.879V0h-2.962V-9.51h2.777l.1,1.222a2.294,2.294,0,0,1,2.083-1.4,2.888,2.888,0,0,1,.826.105ZM-5,0H-7.972V-9.51H-5ZM-8.147-11.971a1.334,1.334,0,0,1,.457-1.043A1.718,1.718,0,0,1-6.5-13.421a1.718,1.718,0,0,1,1.187.407,1.334,1.334,0,0,1,.457,1.043,1.334,1.334,0,0,1-.457,1.043,1.718,1.718,0,0,1-1.187.407,1.718,1.718,0,0,1-1.187-.407A1.334,1.334,0,0,1-8.147-11.971ZM.316-2.285H4.649V0H-3.428V-1.652L.791-7.225H-3.243V-9.51h7.8v1.6ZM11.443,0a3.344,3.344,0,0,1-.281-.853A2.754,2.754,0,0,1,8.877.176,3.374,3.374,0,0,1,6.592-.637a2.588,2.588,0,0,1-.94-2.043A2.66,2.66,0,0,1,6.794-5.019a5.821,5.821,0,0,1,3.322-.791h.914v-.5q0-1.316-1.134-1.316A.927.927,0,0,0,8.842-6.587H5.88A2.655,2.655,0,0,1,7.053-8.825a4.931,4.931,0,0,1,2.993-.86A4.323,4.323,0,0,1,12.92-8.8,3.086,3.086,0,0,1,14-6.363v4.21a4.311,4.311,0,0,0,.4,2V0ZM9.589-1.934a1.652,1.652,0,0,0,.918-.237,1.487,1.487,0,0,0,.523-.536V-4.228h-.861q-1.547,0-1.547,1.389a.848.848,0,0,0,.272.655A.986.986,0,0,0,9.589-1.934Zm10.072-.176a1.317,1.317,0,0,0,.967-.338,1.241,1.241,0,0,0,.334-.945h2.777A3.288,3.288,0,0,1,22.619-.826a4.168,4.168,0,0,1-2.887,1,4.22,4.22,0,0,1-3.27-1.3,5.125,5.125,0,0,1-1.2-3.6v-.123A5.792,5.792,0,0,1,15.8-7.4a3.872,3.872,0,0,1,1.534-1.7,4.573,4.573,0,0,1,2.373-.593,4.116,4.116,0,0,1,2.944,1.028,3.647,3.647,0,0,1,1.09,2.786H20.962A1.626,1.626,0,0,0,20.6-7a1.244,1.244,0,0,0-.967-.4q-1.151,0-1.345,1.468a10.357,10.357,0,0,0-.062,1.283,4.068,4.068,0,0,0,.343,1.986A1.187,1.187,0,0,0,19.661-2.109ZM28.116,0H25.146V-9.51h2.971ZM24.97-11.971a1.334,1.334,0,0,1,.457-1.043,1.718,1.718,0,0,1,1.187-.407,1.718,1.718,0,0,1,1.187.407,1.334,1.334,0,0,1,.457,1.043,1.334,1.334,0,0,1-.457,1.043,1.718,1.718,0,0,1-1.187.407,1.718,1.718,0,0,1-1.187-.407A1.334,1.334,0,0,1,24.97-11.971Zm4.6,7.128a5.613,5.613,0,0,1,.554-2.536,3.96,3.96,0,0,1,1.591-1.709,4.791,4.791,0,0,1,2.435-.6,4.373,4.373,0,0,1,3.366,1.323,5.076,5.076,0,0,1,1.23,3.6v.105a4.925,4.925,0,0,1-1.235,3.529A4.384,4.384,0,0,1,34.163.176,4.434,4.434,0,0,1,30.9-1.042a4.761,4.761,0,0,1-1.327-3.3Zm2.962.185a3.538,3.538,0,0,0,.413,1.934,1.376,1.376,0,0,0,1.222.615q1.582,0,1.617-2.435v-.3q0-2.558-1.635-2.558-1.485,0-1.608,2.206ZM34.55-13.5h3.129l-2.443,2.76-2.417,0Zm8.218,3.99.1,1.116A3.225,3.225,0,0,1,45.58-9.686,2.713,2.713,0,0,1,47.8-8.8a4.226,4.226,0,0,1,.76,2.672V0H45.589V-6a1.6,1.6,0,0,0-.29-1.059A1.342,1.342,0,0,0,44.244-7.4a1.413,1.413,0,0,0-1.292.686V0H39.99V-9.51Z" transform="translate(1136 2109)" fill="#12263f"/>
    <rect id="Rectangle_36895" data-name="Rectangle 36895" width="820" height="40" transform="translate(390 2262)" fill="#f6f6f6"/>
    <rect id="Rectangle_36897" data-name="Rectangle 36897" width="820" height="40" transform="translate(390 2182)" fill="#f6f6f6"/>
    <rect id="Rectangle_36896" data-name="Rectangle 36896" width="820" height="40" transform="translate(390 2222)" fill="#fff"/>
    <rect id="Rectangle_36898" data-name="Rectangle 36898" width="820" height="40" transform="translate(390 2142)" fill="#fff"/>
    <path id="Line_147" data-name="Line 147" d="M0,240.5a.5.5,0,0,1-.5-.5V0A.5.5,0,0,1,0-.5.5.5,0,0,1,.5,0V240A.5.5,0,0,1,0,240.5Z" transform="translate(463 2062)" fill="#afafaf"/>
    <path id="Line_148" data-name="Line 148" d="M0,240.5a.5.5,0,0,1-.5-.5V0A.5.5,0,0,1,0-.5.5.5,0,0,1,.5,0V240A.5.5,0,0,1,0,240.5Z" transform="translate(673 2062)" fill="#afafaf"/>
    <path id="Line_149" data-name="Line 149" d="M0,240.5a.5.5,0,0,1-.5-.5V0A.5.5,0,0,1,0-.5.5.5,0,0,1,.5,0V240A.5.5,0,0,1,0,240.5Z" transform="translate(810 2062)" fill="#afafaf"/>
    <path id="Line_150" data-name="Line 150" d="M0,240.5a.5.5,0,0,1-.5-.5V0A.5.5,0,0,1,0-.5.5.5,0,0,1,.5,0V240A.5.5,0,0,1,0,240.5Z" transform="translate(936 2062)" fill="#afafaf"/>
    <path id="Line_151" data-name="Line 151" d="M0,240.5a.5.5,0,0,1-.5-.5V0A.5.5,0,0,1,0-.5.5.5,0,0,1,.5,0V240A.5.5,0,0,1,0,240.5Z" transform="translate(1062 2062)" fill="#afafaf"/>
  </g>
</svg>
