<svg xmlns="http://www.w3.org/2000/svg" xmlns:xlink="http://www.w3.org/1999/xlink" width="295" height="200" viewBox="0 0 295 200">
  <defs>
    <linearGradient id="linear-gradient" x1="0.083" y1="1.091" x2="0.958" y2="-0.085" gradientUnits="objectBoundingBox">
      <stop offset="0" stop-color="#ff7a36"/>
      <stop offset="0.195" stop-color="#ff573f"/>
      <stop offset="1" stop-color="#e62234"/>
    </linearGradient>
    <linearGradient id="linear-gradient-2" x1="-11.43" y1="0.262" x2="-10.69" y2="0.262" gradientUnits="objectBoundingBox">
      <stop offset="0" stop-color="#abc460"/>
      <stop offset="1" stop-color="#d1e07b"/>
    </linearGradient>
    <linearGradient id="linear-gradient-3" x1="-11.905" y1="0.666" x2="-11.905" y2="-0.189" gradientUnits="objectBoundingBox">
      <stop offset="0" stop-color="#4b7f29"/>
      <stop offset="1" stop-color="#729937"/>
    </linearGradient>
    <linearGradient id="linear-gradient-4" x1="-14.62" y1="0.61" x2="-14.62" y2="-0.257" xlink:href="#linear-gradient-2"/>
    <linearGradient id="linear-gradient-5" x1="-34.965" y1="0.446" x2="-34.965" y2="-0.877" xlink:href="#linear-gradient-3"/>
    <linearGradient id="linear-gradient-6" x1="11.792" y1="1.728" x2="11.792" y2="0.687" xlink:href="#linear-gradient-3"/>
    <linearGradient id="linear-gradient-7" x1="-10.745" y1="1.582" x2="-10.005" y2="1.582" xlink:href="#linear-gradient-2"/>
    <linearGradient id="linear-gradient-8" x1="-11.166" y1="2.125" x2="-11.166" y2="1.216" xlink:href="#linear-gradient-3"/>
    <linearGradient id="linear-gradient-9" x1="-13.716" y1="2.321" x2="-13.716" y2="1.411" xlink:href="#linear-gradient-2"/>
    <linearGradient id="linear-gradient-10" x1="-33.063" y1="3.882" x2="-33.063" y2="2.637" xlink:href="#linear-gradient-3"/>
    <linearGradient id="linear-gradient-11" x1="12.238" y1="1.712" x2="12.238" y2="0.661" xlink:href="#linear-gradient-3"/>
    <linearGradient id="linear-gradient-12" x1="-9.18" y1="-3.997" x2="-8.396" y2="-3.997" xlink:href="#linear-gradient-2"/>
    <linearGradient id="linear-gradient-13" x1="-9.489" y1="-3.941" x2="-9.489" y2="-4.793" xlink:href="#linear-gradient-3"/>
    <linearGradient id="linear-gradient-14" x1="-11.839" y1="-4.856" x2="-11.839" y2="-5.719" xlink:href="#linear-gradient-2"/>
    <linearGradient id="linear-gradient-15" x1="-28.529" y1="-11.837" x2="-28.529" y2="-13.109" xlink:href="#linear-gradient-3"/>
    <linearGradient id="linear-gradient-16" x1="13.865" y1="1.772" x2="13.865" y2="0.735" xlink:href="#linear-gradient-3"/>
    <linearGradient id="linear-gradient-17" x1="-7.624" y1="1.225" x2="-6.678" y2="1.225" gradientUnits="objectBoundingBox">
      <stop offset="0" stop-color="#a2bf54"/>
      <stop offset="1" stop-color="#c7db6c"/>
    </linearGradient>
    <linearGradient id="linear-gradient-18" x1="-8.187" y1="1.269" x2="-7.245" y2="1.269" gradientUnits="objectBoundingBox">
      <stop offset="0" stop-color="#467a24"/>
      <stop offset="1" stop-color="#6b9430"/>
    </linearGradient>
    <linearGradient id="linear-gradient-19" x1="-9.506" y1="1.417" x2="-8.56" y2="1.417" xlink:href="#linear-gradient-17"/>
    <linearGradient id="linear-gradient-20" x1="-41.784" y1="-4.383" x2="-41.784" y2="-5.342" xlink:href="#linear-gradient-3"/>
    <linearGradient id="linear-gradient-21" x1="19.789" y1="1.868" x2="19.789" y2="0.869" xlink:href="#linear-gradient-3"/>
    <linearGradient id="linear-gradient-22" x1="12.221" y1="-2.187" x2="13.228" y2="-2.187" gradientUnits="objectBoundingBox">
      <stop offset="0" stop-color="#c27040"/>
      <stop offset="1" stop-color="#e3924d"/>
    </linearGradient>
    <linearGradient id="linear-gradient-23" x1="-15.823" y1="8.539" x2="-15.036" y2="8.539" xlink:href="#linear-gradient-2"/>
    <linearGradient id="linear-gradient-24" x1="-16.63" y1="9.601" x2="-16.63" y2="8.766" xlink:href="#linear-gradient-3"/>
    <linearGradient id="linear-gradient-25" x1="-20.663" y1="11.215" x2="-20.663" y2="10.37" xlink:href="#linear-gradient-2"/>
    <linearGradient id="linear-gradient-26" x1="-49.552" y1="25.1" x2="-49.552" y2="23.817" xlink:href="#linear-gradient-3"/>
    <linearGradient id="linear-gradient-27" x1="18.87" y1="2.03" x2="18.87" y2="1.051" xlink:href="#linear-gradient-3"/>
    <linearGradient id="linear-gradient-28" x1="-10.738" y1="-4.954" x2="-9.947" y2="-4.954" xlink:href="#linear-gradient-2"/>
    <linearGradient id="linear-gradient-29" x1="-11.166" y1="-4.971" x2="-11.166" y2="-5.759" xlink:href="#linear-gradient-3"/>
    <linearGradient id="linear-gradient-30" x1="-13.917" y1="-5.966" x2="-13.917" y2="-6.753" xlink:href="#linear-gradient-2"/>
    <linearGradient id="linear-gradient-31" x1="-33.11" y1="-16.5" x2="-33.11" y2="-17.824" xlink:href="#linear-gradient-3"/>
    <linearGradient id="linear-gradient-32" x1="17.904" y1="2.032" x2="17.904" y2="1.018" xlink:href="#linear-gradient-3"/>
    <linearGradient id="linear-gradient-33" x1="17.094" y1="-13.07" x2="18.022" y2="-13.07" xlink:href="#linear-gradient-17"/>
    <linearGradient id="linear-gradient-34" x1="18.339" y1="-14.099" x2="19.26" y2="-14.099" xlink:href="#linear-gradient-18"/>
    <linearGradient id="linear-gradient-35" x1="21.491" y1="-16.642" x2="22.42" y2="-16.642" xlink:href="#linear-gradient-17"/>
    <linearGradient id="linear-gradient-36" x1="-10.795" y1="-4.483" x2="-10.021" y2="-4.483" xlink:href="#linear-gradient-2"/>
    <linearGradient id="linear-gradient-37" x1="-11.206" y1="-4.488" x2="-11.206" y2="-5.292" xlink:href="#linear-gradient-3"/>
    <linearGradient id="linear-gradient-38" x1="-13.717" y1="-5.581" x2="-13.717" y2="-6.407" xlink:href="#linear-gradient-2"/>
    <linearGradient id="linear-gradient-39" x1="-32.582" y1="-14.358" x2="-32.582" y2="-15.69" xlink:href="#linear-gradient-3"/>
    <linearGradient id="linear-gradient-40" x1="15.633" y1="1.958" x2="15.633" y2="0.928" xlink:href="#linear-gradient-3"/>
    <linearGradient id="linear-gradient-41" x1="-15.3" y1="0.226" x2="-14.531" y2="0.226" xlink:href="#linear-gradient-2"/>
    <linearGradient id="linear-gradient-42" x1="-16.038" y1="0.642" x2="-16.038" y2="-0.248" xlink:href="#linear-gradient-3"/>
    <linearGradient id="linear-gradient-43" x1="-19.656" y1="0.575" x2="-19.656" y2="-0.319" xlink:href="#linear-gradient-2"/>
    <linearGradient id="linear-gradient-44" x1="-47.05" y1="0.352" x2="-47.05" y2="-0.903" xlink:href="#linear-gradient-3"/>
    <linearGradient id="linear-gradient-45" x1="-41.082" y1="-18.159" x2="-41.082" y2="-19.711" xlink:href="#linear-gradient-3"/>
    <linearGradient id="linear-gradient-46" x1="-21.431" y1="15.928" x2="-20.655" y2="15.928" xlink:href="#linear-gradient-2"/>
    <linearGradient id="linear-gradient-47" x1="-22.617" y1="17.563" x2="-22.617" y2="16.744" xlink:href="#linear-gradient-3"/>
    <linearGradient id="linear-gradient-48" x1="-27.687" y1="20.927" x2="-27.687" y2="20.093" xlink:href="#linear-gradient-2"/>
    <linearGradient id="linear-gradient-49" x1="-65.701" y1="49.464" x2="-65.701" y2="48.133" xlink:href="#linear-gradient-3"/>
    <linearGradient id="linear-gradient-50" x1="0.119" y1="2.77" x2="0.119" y2="1.788" xlink:href="#linear-gradient-3"/>
    <linearGradient id="linear-gradient-51" x1="0.786" y1="2.556" x2="1.786" y2="2.556" gradientUnits="objectBoundingBox">
      <stop offset="0" stop-color="#4e7f29"/>
      <stop offset="1" stop-color="#7ca043"/>
    </linearGradient>
    <linearGradient id="linear-gradient-52" x1="-1.125" y1="-4.337" x2="-2.353" y2="-4.34" xlink:href="#linear-gradient-17"/>
    <linearGradient id="linear-gradient-53" x1="-1.38" y1="-4.602" x2="-2.702" y2="-4.605" xlink:href="#linear-gradient-18"/>
    <linearGradient id="linear-gradient-54" x1="-1.695" y1="-4.837" x2="-3.154" y2="-4.84" xlink:href="#linear-gradient-17"/>
    <linearGradient id="linear-gradient-55" x1="-5.434" y1="-36.344" x2="-5.434" y2="-37.652" xlink:href="#linear-gradient-18"/>
    <linearGradient id="linear-gradient-56" x1="1.008" y1="2.756" x2="2.008" y2="2.756" gradientUnits="objectBoundingBox">
      <stop offset="0" stop-color="#e6dbab"/>
      <stop offset="1" stop-color="#f7f4c0"/>
    </linearGradient>
    <linearGradient id="linear-gradient-57" x1="13.849" y1="1.394" x2="14.85" y2="1.394" xlink:href="#linear-gradient-22"/>
  </defs>
  <g id="t4-i9" transform="translate(-1821 7721)">
    <rect id="Rectángulo_36457" data-name="Rectángulo 36457" width="295" height="200" rx="10" transform="translate(1821 -7721)" fill="#e5f8f9"/>
    <g id="Group_116106" data-name="Group 116106" transform="translate(1797.412 -7755.954)">
      <g id="Group_116081" data-name="Group 116081" transform="translate(38.928 60.072)">
        <g id="Group_116079" data-name="Group 116079" transform="translate(9.156 0)">
          <rect id="Rectangle_37240" data-name="Rectangle 37240" width="0.4" height="123.589" transform="translate(0 0)" fill="#9fbdd6"/>
          <rect id="Rectangle_37241" data-name="Rectangle 37241" width="0.4" height="123.589" transform="translate(27.414)" fill="#9fbdd6"/>
          <rect id="Rectangle_37242" data-name="Rectangle 37242" width="0.4" height="123.589" transform="translate(54.829 0)" fill="#9fbdd6"/>
          <rect id="Rectangle_37243" data-name="Rectangle 37243" width="0.4" height="123.589" transform="translate(82.243 0)" fill="#9fbdd6"/>
          <rect id="Rectangle_37244" data-name="Rectangle 37244" width="0.4" height="123.589" transform="translate(109.659 0)" fill="#9fbdd6"/>
          <rect id="Rectangle_37245" data-name="Rectangle 37245" width="0.4" height="123.589" transform="translate(137.073)" fill="#9fbdd6"/>
          <rect id="Rectangle_37246" data-name="Rectangle 37246" width="0.4" height="123.589" transform="translate(164.488 0)" fill="#9fbdd6"/>
          <rect id="Rectangle_37247" data-name="Rectangle 37247" width="0.4" height="123.589" transform="translate(191.902)" fill="#9fbdd6"/>
          <rect id="Rectangle_37248" data-name="Rectangle 37248" width="0.4" height="123.589" transform="translate(219.317 0)" fill="#9fbdd6"/>
          <rect id="Rectangle_37249" data-name="Rectangle 37249" width="0.4" height="123.589" transform="translate(246.732)" fill="#9fbdd6"/>
        </g>
        <g id="Group_116080" data-name="Group 116080" transform="translate(0 6.329)">
          <rect id="Rectangle_37250" data-name="Rectangle 37250" width="266.327" height="0.397" fill="#9fbdd6"/>
          <rect id="Rectangle_37251" data-name="Rectangle 37251" width="266.327" height="0.397" transform="translate(0 27.525)" fill="#9fbdd6"/>
          <rect id="Rectangle_37252" data-name="Rectangle 37252" width="266.327" height="0.397" transform="translate(0 55.05)" fill="#9fbdd6"/>
          <rect id="Rectangle_37253" data-name="Rectangle 37253" width="266.327" height="0.397" transform="translate(0 82.574)" fill="#9fbdd6"/>
          <rect id="Rectangle_37254" data-name="Rectangle 37254" width="266.327" height="0.397" transform="translate(0 110.099)" fill="#9fbdd6"/>
        </g>
      </g>
      <g id="Group_116105" data-name="Group 116105" transform="translate(36.587 60.45)">
        <path id="Path_174162" data-name="Path 174162" d="M297,60.947l-27.688,5.178,7.32,7.321-36.5,33.7L211.1,86.679,167.81,126.223l-39.247-27L36.587,181.647H81.575l50.41-53.989,38.276,23.566,42.454-44.173,29.232,20.6,42.167-46.73,7.709,7.709Z" transform="translate(-36.587 -60.947)" fill="url(#linear-gradient)"/>
        <g id="Group_116104" data-name="Group 116104" transform="translate(32.253 37.249)">
          <g id="Group_116083" data-name="Group 116083" transform="translate(99.337 51.868)">
            <path id="Path_174163" data-name="Path 174163" d="M497.8,320.13q2.691,8.008,5.682,15.987c.508-.5,32.962-10.421,33.48-12.108.04-.658.636-3.536,1.061-6.052-.125-.166-.247-.334-.371-.5,0,0,.333-2.39.473-3.259l.47-.025c.32-1.937.547-3.377.547-3.377C526.271,313.008,512.457,316.076,497.8,320.13Z" transform="translate(-429.983 -291.89)" fill="#4e7f29"/>
            <path id="Path_174164" data-name="Path 174164" d="M341.757,298.866q-.03,1.986-.054,3.967l-.476.46q.042,2.049.1,4.094c.1.08-.463,1.437-.363,1.518.011,1.031.686.786.7,1.814l-.361.239q.184,1.438.379,2.875c-.126-.035,16.808,5.778,27.82,7.967,10.565,1.688,44.784,7.224,44.942,7.545q-.365-1.214-.729-2.428c.233-.15.469-.3.7-.443q.071-1.591.142-3.183c-.4-.166-.8-.33-1.2-.5q-.016-2.318-.036-4.641c.338-.079.674-.158,1.011-.233q-.032-1.95-.064-3.906A638.182,638.182,0,0,0,341.757,298.866Z" transform="translate(-340.947 -285.118)" fill="#7ca043"/>
            <path id="Path_174165" data-name="Path 174165" d="M508.254,338.671l24.147-5.844-24.1,7.6Z" transform="translate(-435.919 -304.396)" fill="#406529"/>
            <path id="Path_174166" data-name="Path 174166" d="M529.986,344l25.7-8.867-.278,1.316Z" transform="translate(-448.256 -305.704)" fill="#406529"/>
            <path id="Path_174167" data-name="Path 174167" d="M341.3,324.809l29.591,4.694-29.944-6.237Z" transform="translate(-340.948 -298.969)" fill="#4e7f29"/>
            <path id="Path_174168" data-name="Path 174168" d="M368.935,320.434l3.4,1.516,16.636,2.261Z" transform="translate(-356.835 -297.361)" fill="#4e7f29"/>
            <path id="Path_174169" data-name="Path 174169" d="M342.1,302.123c-.012.853-.026,1.706-.035,2.559l-.476.46q.04,1.97.093,3.934l27.014-1.169Z" transform="translate(-341.314 -286.967)" fill="#4e7f29" opacity="0.3" style="mix-blend-mode: multiply;isolation: isolate"/>
            <path id="Path_174170" data-name="Path 174170" d="M383.773,267.068c-13.06,4.036-26.834,8.633-40.953,13.748,14.957,9.413,40.405,12.817,72.506,15.149,12.95-4,24.929-7.284,35.841-9.992C423.051,280.953,399.423,275.8,383.773,267.068Z" transform="translate(-342.01 -267.068)" fill="url(#linear-gradient-2)"/>
            <path id="Path_174171" data-name="Path 174171" d="M387.793,270.167c-11.544,3.632-23.644,7.714-36.057,12.218,14.54,8.538,38.1,12.034,67.584,14.472,11.94-3.568,23.1-6.541,33.385-9.02C425.8,283.183,403.141,278.323,387.793,270.167Z" transform="translate(-347.072 -268.827)" fill="url(#linear-gradient-3)"/>
            <path id="Path_174172" data-name="Path 174172" d="M454.627,290.574c-20.577-3.65-38.245-7.659-51.491-13.574-3.663.971-8.3,1.114-11.037.3q-8.383,2.979-17.143,6.285c.037.019.089.038.119.058,2.4,1.29,1.415,3.266-2.442,4.794,12.593,5.6,30.077,8.666,51.141,10.879a47.607,47.607,0,0,1,12.481-1.058q9.963-2.739,19.188-4.953C452.214,292.64,451.94,291.488,454.627,290.574Z" transform="translate(-358.934 -272.706)" fill="url(#linear-gradient-4)"/>
            <path id="Path_174173" data-name="Path 174173" d="M449.486,302.055c-6.943,2.2-19.013,3.411-25.717,2.1-6.647-1.361-5.115-4.89,2.242-7.263,7.394-2.346,17.674-2.657,23.954-1.152C456.2,297.229,456.449,299.851,449.486,302.055Z" transform="translate(-385.563 -282.823)" fill="url(#linear-gradient-5)"/>
            <path id="Path_174174" data-name="Path 174174" d="M413.624,303.717c-8.565-1.677-6.227-6.452,3.176-9.464,9.475-2.979,22.356-3.236,30.248-1.3,7.846,1.918,8.427,5.183-.331,7.916C438,303.637,422.2,305.395,413.624,303.717Zm32.381-10.45c-7.431-1.806-19.549-1.537-28.383,1.247-8.777,2.82-10.842,7.172-2.838,8.8,8.028,1.529,22.679-.011,30.879-2.608C453.885,298.135,453.379,295.059,446.006,293.267Z" transform="translate(-379.19 -281.058)" fill="url(#linear-gradient-6)"/>
            <path id="Path_174175" data-name="Path 174175" d="M504.649,315.308c-2.114-.274-2.207-1.022-.284-1.628a18.7,18.7,0,0,1,7.13-.525c2.049.3,2.253,1,.406,1.575A20.606,20.606,0,0,1,504.649,315.308Zm5.448-1.717a11.2,11.2,0,0,0-4.191.312c-1.112.352-1.044.777.178.941a11.748,11.748,0,0,0,4.227-.33C511.412,314.174,511.293,313.764,510.1,313.591Z" transform="translate(-432.931 -293.153)" fill="#5e8c32"/>
            <path id="Path_174176" data-name="Path 174176" d="M406.393,292.409c-1.4-.55-.76-1.578,1.354-2.239a11.583,11.583,0,0,1,6.328-.167c1.408.54.882,1.485-1.214,2.155C410.742,292.823,407.792,292.96,406.393,292.409Zm6.1-1.914a6.718,6.718,0,0,0-3.707.111c-1.245.381-1.6.972-.781,1.291a6.834,6.834,0,0,0,3.748-.139C413,291.372,413.3,290.809,412.491,290.5Z" transform="translate(-377.675 -279.88)" fill="#5e8c32"/>
            <g id="Group_116082" data-name="Group 116082" transform="translate(26.967 8.866)">
              <path id="Path_174177" data-name="Path 174177" d="M454.594,291.616l-33.509,12.493.724,14.319L404.583,314.6l-.1-11.811,38.194-14.069Z" transform="translate(-403.978 -288.226)" fill="#e7dcad"/>
              <path id="Path_174178" data-name="Path 174178" d="M421.1,321.7l.706,14-17.225-3.825-.105-11.811,2.472-.911C411.691,319.908,416.425,320.719,421.1,321.7Z" transform="translate(-403.977 -305.502)" fill="#cac195"/>
              <path id="Path_174179" data-name="Path 174179" d="M421.141,318.274a.484.484,0,0,0,.33-.117.5.5,0,0,0,.179-.408l-.705-13.952,33.163-12.366a.5.5,0,0,0-.056-.952l-11.92-2.891a.535.535,0,0,0-.291.016l-38.194,14.067a.5.5,0,0,0-.329.471l.105,11.813a.5.5,0,0,0,.391.484l17.225,3.824A.491.491,0,0,0,421.141,318.274Zm31.1-27.209-31.982,11.924a.5.5,0,0,0-.324.491l.688,13.668-16.2-3.6-.1-11.063,37.724-13.891Z" transform="translate(-403.32 -287.575)" fill="#ae6439"/>
            </g>
            <path id="Path_174180" data-name="Path 174180" d="M475.524,340.944l-26.77-1.519,25.725,2.992Z" transform="translate(-402.144 -308.141)" fill="#4e7f29"/>
            <path id="Path_174181" data-name="Path 174181" d="M479,348.871l-.05,1.072L456.5,346.69Z" transform="translate(-406.542 -312.266)" fill="#4e7f29"/>
            <path id="Path_174182" data-name="Path 174182" d="M489.378,360.235l-15.587-2.628,15.9,3.467Z" transform="translate(-416.356 -318.463)" fill="#4e7f29"/>
            <path id="Path_174183" data-name="Path 174183" d="M574.279,318.664l-.165.93-12.624,3.415Z" transform="translate(-466.139 -296.357)" fill="#406529"/>
          </g>
          <g id="Group_116085" data-name="Group 116085" transform="translate(91.625 37.262)">
            <path id="Path_174184" data-name="Path 174184" d="M479.629,280.614q3.087,7.862,6.468,15.684c.485-.52,32.913-9.938,33.349-11.648.006-.66-.049-5.664.252-8.2-.133-.16-.266-.321-.394-.482,0,0,.214-2.4.31-3.281l.466-.046c.227-1.951.382-3.4.382-3.4C507.717,272.09,494.069,275.838,479.629,280.614Z" transform="translate(-411.959 -253.696)" fill="#4e7f29"/>
            <path id="Path_174185" data-name="Path 174185" d="M323.145,269.736q.064,1.984.142,3.965c-.15.161.134,1.7-.018,1.858.1,1.363-.244,1.348-.137,2.707.1.077.206.15.312.227.061,1.029.126,2.06.19,3.087-.115.084-.232.169-.347.255.169.952.345,1.9.52,2.852-.125-.028,17.512,3.778,28.617,5.419,10.635,1.165,44.652,6.161,44.825,6.472-.283-.8-.568-1.591-.848-2.388.228-.162.453-.32.677-.477,0-1.061-.007-2.126-.016-3.187-.408-.147-.817-.292-1.225-.436q-.129-2.317-.267-4.633c.334-.1.665-.192,1-.285q-.131-1.945-.257-3.895A637.885,637.885,0,0,0,323.145,269.736Z" transform="translate(-323.111 -253.977)" fill="#7ca043"/>
            <path id="Path_174186" data-name="Path 174186" d="M323.881,289.99l.077,1.164,23.97,3.152Z" transform="translate(-323.548 -265.474)" fill="#4e7f29"/>
            <path id="Path_174187" data-name="Path 174187" d="M401.031,310.45l35.347,5.41S410.664,309.023,401.031,310.45Z" transform="translate(-367.342 -276.977)" fill="#4e7f29"/>
            <path id="Path_174188" data-name="Path 174188" d="M343.838,304.8l-16.861-2.559S340.283,302.814,343.838,304.8Z" transform="translate(-325.306 -272.431)" fill="#4e7f29"/>
            <path id="Path_174189" data-name="Path 174189" d="M363.409,233.286c-12.845,4.678-26.372,9.951-40.221,15.759,15.4,8.661,40.99,10.8,73.167,11.543,12.733-4.639,24.536-8.511,35.3-11.756C403.327,245.21,379.474,241.239,363.409,233.286Z" transform="translate(-323.155 -233.286)" fill="url(#linear-gradient-7)"/>
            <path id="Path_174190" data-name="Path 174190" d="M367.477,236.5c-11.351,4.2-23.234,8.874-35.409,13.986,14.947,7.81,38.656,10.133,68.218,11.11,11.749-4.155,22.749-7.676,32.9-10.661C406.086,247.621,383.209,243.888,367.477,236.5Z" transform="translate(-328.195 -235.112)" fill="url(#linear-gradient-8)"/>
            <path id="Path_174191" data-name="Path 174191" d="M435.187,253.939c-20.732-2.628-38.578-5.758-52.1-11.008-3.613,1.15-8.233,1.52-11.01.84q-8.225,3.39-16.811,7.126c.036.018.091.032.121.051,2.467,1.17,1.574,3.193-2.2,4.911,12.857,4.971,30.472,7.166,51.619,8.337a47.359,47.359,0,0,1,12.413-1.674q9.813-3.231,18.918-5.9C432.878,256.121,432.549,254.983,435.187,253.939Z" transform="translate(-340.183 -238.761)" fill="url(#linear-gradient-9)"/>
            <path id="Path_174192" data-name="Path 174192" d="M430.307,266.169c-6.825,2.538-18.82,4.349-25.581,3.375-6.706-1.029-5.35-4.631,1.881-7.365,7.27-2.71,17.519-3.531,23.868-2.335C436.777,261.019,437.152,263.623,430.307,266.169Z" transform="translate(-366.967 -248.058)" fill="url(#linear-gradient-10)"/>
            <path id="Path_174193" data-name="Path 174193" d="M394.7,269.229c-8.634-1.25-6.538-6.137,2.7-9.61,9.316-3.445,22.169-4.338,30.147-2.79,7.933,1.527,8.677,4.758.064,7.921C419.042,267.943,403.342,270.481,394.7,269.229Zm31.825-12.041c-7.512-1.436-19.6-.569-28.286,2.652-8.626,3.25-10.475,7.7-2.4,8.928,8.1,1.128,22.651-1.135,30.713-4.133C434.633,261.661,433.977,258.613,426.523,257.188Z" transform="translate(-360.642 -246.234)" fill="url(#linear-gradient-11)"/>
            <path id="Path_174194" data-name="Path 174194" d="M485.73,277.7c-2.124-.168-2.255-.911-.363-1.61a18.7,18.7,0,0,1,7.094-.878c2.063.2,2.3.882.487,1.553A20.569,20.569,0,0,1,485.73,277.7Zm5.358-1.984a11.166,11.166,0,0,0-4.17.518c-1.1.408-1,.83.223.933a11.72,11.72,0,0,0,4.2-.538C492.429,276.234,492.29,275.831,491.088,275.716Z" transform="translate(-414.461 -257.055)" fill="#5e8c32"/>
            <path id="Path_174195" data-name="Path 174195" d="M386.493,259.74c-1.423-.481-.839-1.54,1.241-2.3a11.57,11.57,0,0,1,6.311-.478c1.434.468.959,1.437-1.1,2.21C390.858,259.937,387.919,260.221,386.493,259.74Zm5.994-2.213a6.718,6.718,0,0,0-3.7.3c-1.222.441-1.548,1.048-.716,1.327a6.822,6.822,0,0,0,3.735-.325C393.034,258.378,393.316,257.8,392.487,257.526Z" transform="translate(-358.647 -246.581)" fill="#5e8c32"/>
            <g id="Group_116084" data-name="Group 116084" transform="translate(26.637 7.671)">
              <path id="Path_174196" data-name="Path 174196" d="M435.376,254.479l-32.848,14.138,1.428,14.266-17.391-2.967-.691-11.792,37.454-15.94Z" transform="translate(-385.376 -251.684)" fill="#e7dcad"/>
              <path id="Path_174197" data-name="Path 174197" d="M402.559,288.51l1.4,13.946-17.391-2.967-.691-11.792,2.427-1.032C393.073,287.183,397.842,287.756,402.559,288.51Z" transform="translate(-385.376 -271.258)" fill="#cac195"/>
              <path id="Path_174198" data-name="Path 174198" d="M403.32,282.726a.5.5,0,0,0,.481-.55l-1.393-13.9,32.51-13.993a.5.5,0,0,0,.3-.511.505.505,0,0,0-.4-.437l-12.048-2.3a.527.527,0,0,0-.291.031l-37.451,15.94a.5.5,0,0,0-.3.486l.69,11.794a.5.5,0,0,0,.414.465l17.393,2.966C403.253,282.723,403.286,282.725,403.32,282.726Zm29.709-28.715L401.679,267.5a.5.5,0,0,0-.3.507l1.364,13.615-16.357-2.79-.646-11.046,36.991-15.741Z" transform="translate(-384.721 -251.029)" fill="#ae6439"/>
            </g>
            <path id="Path_174199" data-name="Path 174199" d="M457.811,305.191,431,305l25.84,1.714Z" transform="translate(-384.354 -273.995)" fill="#4e7f29"/>
            <path id="Path_174200" data-name="Path 174200" d="M492.94,299.894l15.825-4.226-15.881,3.058Z" transform="translate(-419.483 -268.698)" fill="#406529"/>
            <path id="Path_174201" data-name="Path 174201" d="M494.111,307.885l26.813-8.735-26.776,10.012Z" transform="translate(-420.18 -270.674)" fill="#406529"/>
            <path id="Path_174202" data-name="Path 174202" d="M370.995,287.269c7.344-2.848,13.6-5.8,21.3-8.64-20.43-4.089-35.816-6.3-54.032-8.225-.059,1.732-.746,1.371-.8,3.089A166.75,166.75,0,0,0,370.995,287.269Z" transform="translate(-331.256 -254.356)" fill="#4e7f29" opacity="0.3" style="mix-blend-mode: multiply;isolation: isolate"/>
          </g>
          <g id="Group_116087" data-name="Group 116087" transform="translate(101.824 68.705)">
            <path id="Path_174203" data-name="Path 174203" d="M481.07,352.456l3.757,15.292s27.133-12.19,28.482-14.563c.154-.672,1.188-3.679,2.064-6.313l-.23-.458s.764-2.49,1.071-3.4l.424-.1c.688-2.035,1.207-3.552,1.207-3.552Z" transform="translate(-422.976 -324.944)" fill="#7ca043"/>
            <path id="Path_174204" data-name="Path 174204" d="M346.7,331.761l.665,3.615-.341.366.8,3.751.3.256.557,2.838-.27.175.8,2.681s15.087,7.287,23.928,9.967,35.408,8.023,35.408,8.023l-.435-2.329.573-.452.3-3.09-.929-.442.619-3.833.441-.929.181-3.787Z" transform="translate(-346.701 -320.628)" fill="#4e7f29"/>
            <path id="Path_174205" data-name="Path 174205" d="M419.277,373.189l16.958,3.447-16.642-2.4Z" transform="translate(-387.899 -344.145)" fill="#406529"/>
            <path id="Path_174206" data-name="Path 174206" d="M382.1,308.257c-11.778,3.7-23.6,7.112-35.4,10.162,15.284,10.27,36.356,15.912,62.6,16.81q16.386-6.672,32.27-13.523C416.988,321.075,397,316.525,382.1,308.257Z" transform="translate(-346.701 -307.286)" fill="url(#linear-gradient-12)"/>
            <path id="Path_174207" data-name="Path 174207" d="M385.716,311.143q-15.506,4.929-31.083,9.162c14.555,9.321,34.168,14.611,58.34,15.767q15.122-5.939,29.869-12.07C419.439,323.263,400.25,318.924,385.716,311.143Z" transform="translate(-351.204 -308.924)" fill="url(#linear-gradient-13)"/>
            <path id="Path_174208" data-name="Path 174208" d="M445.069,327.863c-17.764-1.192-32.865-4.635-45.085-10.246a19.058,19.058,0,0,1-9.939.074q-7.33,2.5-14.7,4.87c.034.022.082.041.112.061,2.321,1.367,1.665,3.133-1.511,4.213,11.861,6.229,26.569,10.177,43.921,11.785a40.5,40.5,0,0,1,10.458-1.542q8.572-3.245,17.042-6.573C442.633,330.215,442.539,329.1,445.069,327.863Z" transform="translate(-362.168 -312.599)" fill="url(#linear-gradient-14)"/>
            <path id="Path_174209" data-name="Path 174209" d="M440.782,341.025c-6.019,2.378-16.033,3.451-21.764,1.951-5.685-1.542-4.735-4.725,1.54-6.752,6.3-2,15.391-2.457,20.842-1.284C446.832,336.085,446.8,338.647,440.782,341.025Z" transform="translate(-385.615 -322.071)" fill="url(#linear-gradient-15)"/>
            <path id="Path_174210" data-name="Path 174210" d="M410.518,342.366c-7.324-2.016-5.906-6.242,2.127-8.741,8.075-2.47,19.565-2.966,26.437-1.525,6.865,1.4,6.97,4.609-.643,7.657C430.84,342.862,417.831,344.379,410.518,342.366Zm27.631-9.918c-6.467-1.348-17.246-.887-24.774,1.442-7.492,2.363-8.75,6.241-1.905,8.146,6.854,1.825,18.942.485,26.076-2.4C444.679,336.8,444.589,333.789,438.15,332.448Z" transform="translate(-380.218 -320.365)" fill="url(#linear-gradient-16)"/>
            <path id="Path_174211" data-name="Path 174211" d="M487.528,352.365c-1.774-.169-1.821-.887-.149-1.562a15.539,15.539,0,0,1,6.145-.928c1.74.155,1.848.818.217,1.512A15.346,15.346,0,0,1,487.528,352.365Zm4.76-1.971a9.089,9.089,0,0,0-3.606.547c-.972.4-.937.808.092.9a8.886,8.886,0,0,0,3.623-.562C493.366,350.88,493.3,350.485,492.288,350.394Z" transform="translate(-425.865 -330.892)" fill="#5e8c32"/>
            <path id="Path_174212" data-name="Path 174212" d="M402.647,331.333c-1.277-.582-.821-1.5.993-2.018a9.981,9.981,0,0,1,5.579.076c1.281.543.868,1.415-.921,1.973A9.506,9.506,0,0,1,402.647,331.333Zm5.208-1.533a5.7,5.7,0,0,0-3.262-.035c-1.067.3-1.323.833-.578,1.168a5.548,5.548,0,0,0,3.279.019C408.358,330.637,408.592,330.119,407.855,329.8Z" transform="translate(-378.047 -319.038)" fill="#5e8c32"/>
            <path id="Path_174213" data-name="Path 174213" d="M437.838,342.794c5.737-1.942-2.31-2.814.718-3.823a6.2,6.2,0,0,1,5.472.434q1.376-.241,2.753-.494c.013-.3-.572-.652-1.529-.92.464-.166.928-.335,1.393-.5-.545-.064-1.083-.13-1.622-.2-.372.136-.745.278-1.115.415a15.715,15.715,0,0,0-6.745.536c-5.049,1.556.779,3.153-1.4,3.889a7.7,7.7,0,0,1-6.2-.621q-1.373.194-2.739.386a7.578,7.578,0,0,0,2.526,1.122q-.793.252-1.584.507.589.131,1.183.257l1.446-.511A14.473,14.473,0,0,0,437.838,342.794Z" transform="translate(-392.181 -323.767)" fill="#cfdf7d"/>
            <g id="Group_116086" data-name="Group 116086" transform="translate(21.442 13.583)">
              <path id="Path_174214" data-name="Path 174214" d="M408.17,361.5,409,349.319l29.753-10.753L420.35,338.5l-22.788,7.747-.246,12.191Z" transform="translate(-396.875 -338.036)" fill="#cac195"/>
              <path id="Path_174215" data-name="Path 174215" d="M407.575,361.357a.362.362,0,0,1-.1-.015l-10.854-3.065a.459.459,0,0,1-.325-.456l.245-12.19a.468.468,0,0,1,.308-.432l22.787-7.747a.362.362,0,0,1,.138-.021l18.405.067a.48.48,0,0,1,.435.387.469.469,0,0,1-.294.514l-29.475,10.651-.814,11.877a.466.466,0,0,1-.185.346A.435.435,0,0,1,407.575,361.357Zm-10.39-3.88,10,2.824.8-11.62a.462.462,0,0,1,.3-.406l27.286-9.86-15.73-.06-22.419,7.622Z" transform="translate(-396.295 -337.43)" fill="#ae6439"/>
            </g>
            <path id="Path_174216" data-name="Path 174216" d="M347.449,340.08s12.016,6.484,18.261,7.486c-3.435-1.817-17.629-8.163-17.629-8.163Z" transform="translate(-347.126 -324.966)" fill="#406529"/>
            <path id="Path_174217" data-name="Path 174217" d="M349.3,349.644l18.364,7.374L349.792,350.7Z" transform="translate(-348.179 -330.779)" fill="#406529"/>
            <path id="Path_174218" data-name="Path 174218" d="M350.666,357.206l.224.958,15.6,5.822Z" transform="translate(-348.952 -335.072)" fill="#406529"/>
            <path id="Path_174219" data-name="Path 174219" d="M454.977,376.574l-26.159-3.715,26.914,2.828Z" transform="translate(-393.315 -343.957)" fill="#406529"/>
            <path id="Path_174220" data-name="Path 174220" d="M457.6,385.247l-23.624-3.935,24.521,5.083.079-.461Z" transform="translate(-396.243 -348.756)" fill="#406529"/>
            <path id="Path_174221" data-name="Path 174221" d="M490.326,362.818l23.872-8.97-24.219,10.007Z" transform="translate(-428.033 -333.166)" fill="#4e7f29"/>
            <path id="Path_174222" data-name="Path 174222" d="M488.552,385.2l15.119-6.993-15.243,7.917Z" transform="translate(-427.152 -346.995)" fill="#4e7f29"/>
            <path id="Path_174223" data-name="Path 174223" d="M528.978,363.894l-21.8,11.079,21.566-9.923Z" transform="translate(-437.795 -338.869)" fill="#4e7f29"/>
            <path id="Path_174224" data-name="Path 174224" d="M540.712,355.673l-14.6,5.705,14.827-5.247Z" transform="translate(-448.546 -334.202)" fill="#4e7f29"/>
            <path id="Path_174225" data-name="Path 174225" d="M406.94,329.72l-27.693-2.11-5.233-16.658,5.966-4.941Z" transform="translate(-362.205 -306.012)" fill="#4e7f29" opacity="0.3" style="mix-blend-mode: multiply;isolation: isolate"/>
          </g>
          <g id="Group_116090" data-name="Group 116090" transform="translate(113.463 50.341)">
            <path id="Path_174226" data-name="Path 174226" d="M409.5,324.212S379.155,304.73,374.175,293.5c-.06-4.578-.554-8.651-.554-8.651s28.829,20.786,37.682,25.277c4,1.006,2.684,7.337,2.684,7.337Z" transform="translate(-373.621 -275.633)" fill="#4e7f29"/>
            <g id="Group_116088" data-name="Group 116088" transform="translate(14.582 26.442)">
              <path id="Path_174227" data-name="Path 174227" d="M438.99,352.776c-5.851-3.009-11.417-5.947-16.671-10.028-.15-.116-.309.125-.168.245,5.108,4.3,10.438,8.012,16.692,10.194C439.1,353.278,439.227,352.9,438.99,352.776Z" transform="translate(-415.72 -334.926)" fill="#406529"/>
              <path id="Path_174228" data-name="Path 174228" d="M426.586,333.208a50.9,50.9,0,0,1-11.688-6.5c-.084-.057-.173.073-.09.136,6.7,4.974,14.069,9.059,22.384,9.565a5.2,5.2,0,0,0-.253-.625C433.482,334.937,429.983,334.4,426.586,333.208Z" transform="translate(-411.564 -325.829)" fill="#406529"/>
              <path id="Path_174229" data-name="Path 174229" d="M433.332,338.147a49.707,49.707,0,0,1-13.708-5.094,112,112,0,0,1-12.175-8.344c-.069-.05-.142.059-.077.113,7.469,6.064,16.035,13.154,25.951,13.549C433.326,338.3,433.331,338.224,433.332,338.147Z" transform="translate(-407.348 -324.697)" fill="#406529"/>
            </g>
            <path id="Path_174230" data-name="Path 174230" d="M458.412,328.942l-.55,4.585,1.292.586-.477,3-1.46,1.4-.606,4.519,29.072-10.449.684-4.159,1.512-1.008,1.141-4.56-.811-.336s2.186-4.16,1.97-4.521C485.559,319.469,458.412,328.942,458.412,328.942Z" transform="translate(-420.73 -294.452)" fill="#7ca043"/>
            <path id="Path_174231" data-name="Path 174231" d="M443.07,287.084c-9.7,4.932-20.9,8.266-31.767,10.943-13.974-4.343-30.9-15.678-37.682-25.277,8.5-2.558,17.31-5.6,26.4-9.212C407.529,273.118,424.855,282.99,443.07,287.084Z" transform="translate(-373.621 -263.537)" fill="url(#linear-gradient-17)"/>
            <path id="Path_174232" data-name="Path 174232" d="M442.525,289.169c-8.557,4.22-19.963,6.19-27.976,9.507-16.356-5.943-29.682-15.058-36.551-24.145q11.42-3.567,23.542-8.374C408.885,275.3,425.408,284.852,442.525,289.169Z" transform="translate(-376.106 -265.024)" fill="url(#linear-gradient-18)"/>
            <path id="Path_174233" data-name="Path 174233" d="M407.06,272.99c6.84,7.049,20.287,14.75,33.186,18.936-2.374,1.394-3.88,2.569-2.317,3.525a73.223,73.223,0,0,1-15.4,4.421l-.109-.048a14.9,14.9,0,0,0-9.2,0c-11.96-5.237-21.9-12.107-28.233-19.146,1.762-.8,2.486-2.031,1.893-3.128q6.451-2.2,13.117-4.785C401.339,273.752,404.319,273.857,407.06,272.99Z" transform="translate(-380.072 -268.778)" fill="url(#linear-gradient-19)"/>
            <path id="Path_174234" data-name="Path 174234" d="M437.394,306.265c-4.677,1.406-11.678,1.126-15.122-.947-3.4-2.107-1.917-4.873,2.835-5.929,4.758-1.032,10.979-.3,14.324,1.437C442.768,302.539,442.058,304.862,437.394,306.265Z" transform="translate(-400.187 -283.619)" fill="url(#linear-gradient-20)"/>
            <path id="Path_174235" data-name="Path 174235" d="M416.148,304.363c-4.38-2.744-2.3-6.393,3.758-7.66,6.077-1.23,13.915-.245,18.142,1.917,4.231,2.128,3.448,5.048-2.473,6.861C429.648,307.348,420.513,307.1,416.148,304.363Zm21.182-5.544c-3.981-2.029-11.335-2.954-17.005-1.783-5.656,1.209-7.534,4.567-3.451,7.149,4.111,2.508,12.577,2.8,18.134,1.074C440.55,303.577,441.293,300.839,437.33,298.819Z" transform="translate(-396.436 -282.059)" fill="url(#linear-gradient-21)"/>
            <path id="Path_174236" data-name="Path 174236" d="M462.972,321.5a6.222,6.222,0,0,0,4.645-.2c1.382-.667,1.532-1.618.37-2.142a6.453,6.453,0,0,0-4.618.2C461.985,319.981,461.792,320.948,462.972,321.5Zm3.964-1.842c.684.308.587.869-.22,1.253a3.648,3.648,0,0,1-2.709.117c-.688-.32-.581-.885.229-1.254A3.729,3.729,0,0,1,466.935,319.661Z" transform="translate(-423.901 -294.919)" fill="#487c27"/>
            <path id="Path_174237" data-name="Path 174237" d="M460.094,339.667l-.247.945,22.439-6.437Z" transform="translate(-422.568 -303.635)" fill="#4e7f29"/>
            <path id="Path_174238" data-name="Path 174238" d="M459.145,354.36s16.411-4.25,21.59-5.987c-2.387,1.46-23.3,7.682-23.3,7.682Z" transform="translate(-421.198 -311.694)" fill="#4e7f29"/>
            <path id="Path_174239" data-name="Path 174239" d="M457.114,366.712l10.924-2.19-11.094,3.23Z" transform="translate(-420.919 -320.862)" fill="#4e7f29"/>
            <path id="Path_174240" data-name="Path 174240" d="M516.152,329.233l-11.744,4.931,11.382-3.643Z" transform="translate(-447.862 -300.83)" fill="#4e7f29"/>
            <path id="Path_174241" data-name="Path 174241" d="M481.67,342.66s20.437-5.561,23.471-5.73c-.611-.713-2.689-.943-2.689-.943Z" transform="translate(-434.955 -304.663)" fill="#4e7f29"/>
            <g id="Group_116089" data-name="Group 116089" transform="translate(9.718 10.718)">
              <path id="Path_174242" data-name="Path 174242" d="M396.869,308.119l.937-9.767,29.656-9.214,9.062,4.017-30.967,10.52-1.6,10.261Z" transform="translate(-396.536 -288.787)" fill="#e7dcad"/>
              <path id="Path_174243" data-name="Path 174243" d="M397.806,310.237,396.869,320l7.086,5.817,1.6-10.261.445-.152a44.69,44.69,0,0,1-7.671-5.334Z" transform="translate(-396.536 -300.672)" fill="#cac195"/>
              <path id="Path_174244" data-name="Path 174244" d="M403.5,313.826a.326.326,0,0,1-.2-.074l-7.084-5.818a.358.358,0,0,1-.125-.308l.936-9.767a.345.345,0,0,1,.239-.3l29.654-9.216a.332.332,0,0,1,.226.014l9.063,4.018a.351.351,0,0,1,.2.338.346.346,0,0,1-.23.318l-30.773,10.452-1.57,10.049a.346.346,0,0,1-.209.271A.325.325,0,0,1,403.5,313.826Zm-6.722-6.325,6.5,5.333,1.511-9.675a.351.351,0,0,1,.227-.279l30.114-10.228-8.128-3.6-29.324,9.113Z" transform="translate(-396.098 -288.328)" fill="url(#linear-gradient-22)"/>
            </g>
          </g>
          <g id="Group_116091" data-name="Group 116091" transform="translate(0 63.336)">
            <path id="Path_174245" data-name="Path 174245" d="M148.1,339.668l-3.589,15.363S117.245,343.348,115.871,341c-.16-.668-1.229-3.655-2.13-6.271l.224-.464s-.789-2.477-1.109-3.383l-.425-.087c-.709-2.021-1.244-3.529-1.244-3.529Z" transform="translate(-111.187 -312.708)" fill="#7ca043"/>
            <path id="Path_174246" data-name="Path 174246" d="M248.565,315.567l-.625,3.628.346.358-.761,3.767-.3.262-.527,2.849.273.169-.773,2.7s-15,7.566-23.817,10.411-35.316,8.684-35.316,8.684l.409-2.339-.579-.441-.329-3.085.925-.458-.66-3.823-.453-.919-.224-3.782Z" transform="translate(-153.742 -306.067)" fill="#4e7f29"/>
            <path id="Path_174247" data-name="Path 174247" d="M236.175,358.346l-16.92,3.763L235.87,359.4Z" transform="translate(-172.532 -330.351)" fill="#406529"/>
            <path id="Path_174248" data-name="Path 174248" d="M170.509,293.6c11.817,3.482,23.679,6.673,35.5,9.5-15.17,10.556-36.179,16.588-62.411,17.978q-16.456-6.367-32.412-12.92C135.758,307.063,155.7,302.142,170.509,293.6Z" transform="translate(-111.187 -293.595)" fill="url(#linear-gradient-23)"/>
            <path id="Path_174249" data-name="Path 174249" d="M175.653,296.44q15.558,4.642,31.179,8.582c-14.452,9.592-34.006,15.247-58.161,16.853q-15.186-5.656-30-11.512C142.066,309.19,161.206,304.49,175.653,296.44Z" transform="translate(-115.436 -295.21)" fill="url(#linear-gradient-24)"/>
            <path id="Path_174250" data-name="Path 174250" d="M138.526,314c17.751-1.524,32.811-5.246,44.969-11.085a19.074,19.074,0,0,0,9.939-.111q7.356,2.365,14.748,4.595c-.035.022-.082.042-.112.065-2.305,1.409-1.631,3.163,1.556,4.185-11.792,6.448-26.454,10.669-43.787,12.6a40.389,40.389,0,0,0-10.475-1.348q-8.606-3.085-17.113-6.254C140.986,316.305,141.07,315.184,138.526,314Z" transform="translate(-126.55 -298.821)" fill="url(#linear-gradient-25)"/>
            <path id="Path_174251" data-name="Path 174251" d="M197.021,327.046c6.042,2.265,16.071,3.149,21.783,1.544,5.668-1.649,4.682-4.812-1.615-6.723-6.317-1.887-15.413-2.169-20.853-.895C190.92,322.216,190.978,324.782,197.021,327.046Z" transform="translate(-157.275 -308.693)" fill="url(#linear-gradient-26)"/>
            <path id="Path_174252" data-name="Path 174252" d="M216.4,327.94c7.3-2.152,5.838-6.35-2.222-8.7-8.1-2.318-19.594-2.6-26.449-1.031-6.851,1.532-6.919,4.739.725,7.644C196.082,328.814,209.106,330.088,216.4,327.94Zm-27.735-9.4c6.451-1.469,17.233-1.208,24.787.98,7.516,2.225,8.816,6.078,1.992,8.11-6.832,1.952-18.934.836-26.1-1.914C182.179,323.008,182.235,320,188.662,318.539Z" transform="translate(-151.753 -307.008)" fill="url(#linear-gradient-27)"/>
            <path id="Path_174253" data-name="Path 174253" d="M178.455,338.958c1.772-.2,1.811-.92.132-1.567a15.567,15.567,0,0,0-6.154-.812c-1.738.188-1.838.854-.2,1.515A15.225,15.225,0,0,0,178.455,338.958Zm-4.782-1.884a9.073,9.073,0,0,1,3.613.481c.975.379.944.79-.083.906a8.9,8.9,0,0,1-3.629-.5C172.6,337.579,172.663,337.182,173.673,337.073Z" transform="translate(-145.176 -317.967)" fill="#5e8c32"/>
            <path id="Path_174254" data-name="Path 174254" d="M264.023,316.295c1.271-.606.8-1.515-1.016-2a9.979,9.979,0,0,0-5.576.178c-1.275.567-.851,1.433.943,1.956A9.523,9.523,0,0,0,264.023,316.295Zm-5.224-1.437a5.716,5.716,0,0,1,3.26-.1c1.069.281,1.333.809.592,1.158a5.548,5.548,0,0,1-3.279.08C258.3,315.7,258.063,315.19,258.8,314.858Z" transform="translate(-193.785 -305.172)" fill="#5e8c32"/>
            <path id="Path_174255" data-name="Path 174255" d="M213.316,328.744c-5.757-1.835,2.282-2.855-.759-3.809a6.212,6.212,0,0,0-5.467.538c-.919-.145-1.835-.294-2.758-.444-.016-.3.565-.663,1.519-.949l-1.4-.476c.543-.075,1.082-.151,1.62-.23l1.12.4a15.644,15.644,0,0,1,6.749.41c5.067,1.46-.745,3.167,1.439,3.862a7.732,7.732,0,0,0,6.2-.739q1.374.172,2.744.336a7.608,7.608,0,0,1-2.514,1.167c.53.159,1.059.321,1.59.479l-1.179.281c-.484-.162-.968-.323-1.451-.486A14.462,14.462,0,0,1,213.316,328.744Z" transform="translate(-164.06 -310.5)" fill="#cfdf7d"/>
            <path id="Path_174256" data-name="Path 174256" d="M305.994,323.917s-11.945,6.71-18.179,7.828c3.415-1.881,17.538-8.49,17.538-8.49Z" transform="translate(-211.45 -310.431)" fill="#406529"/>
            <path id="Path_174257" data-name="Path 174257" d="M304.1,333.5l-18.283,7.715,17.806-6.649Z" transform="translate(-210.314 -316.247)" fill="#406529"/>
            <path id="Path_174258" data-name="Path 174258" d="M306.142,341.084l-.213.964-15.536,6.111Z" transform="translate(-212.914 -320.552)" fill="#406529"/>
            <path id="Path_174259" data-name="Path 174259" d="M187.437,362.4l26.115-4.2-26.881,3.33Z" transform="translate(-154.036 -330.264)" fill="#406529"/>
            <path id="Path_174260" data-name="Path 174260" d="M187.97,371.12l23.578-4.375-24.463,5.539-.085-.459Z" transform="translate(-154.222 -335.119)" fill="#406529"/>
            <path id="Path_174261" data-name="Path 174261" d="M155.438,349.9l-23.967-8.524,24.324,9.554Z" transform="translate(-122.701 -320.716)" fill="#4e7f29"/>
            <path id="Path_174262" data-name="Path 174262" d="M169.242,372.025l-15.193-6.708,15.326,7.631Z" transform="translate(-135.518 -334.308)" fill="#4e7f29"/>
            <path id="Path_174263" data-name="Path 174263" d="M119.973,351.637l21.922,10.672-21.672-9.522Z" transform="translate(-116.174 -326.542)" fill="#4e7f29"/>
            <path id="Path_174264" data-name="Path 174264" d="M117.319,343.454l14.658,5.432L117.1,343.918Z" transform="translate(-114.541 -321.898)" fill="#4e7f29"/>
          </g>
          <g id="Group_116093" data-name="Group 116093" transform="translate(23.705 54.693)">
            <path id="Path_174265" data-name="Path 174265" d="M297.34,325.438l2.676,15.545s27.909-10.073,29.419-12.337c.2-.658,1.442-3.578,2.5-6.137l-.2-.475s.936-2.427,1.306-3.313l.43-.064c.828-1.977,1.452-3.451,1.452-3.451Z" transform="translate(-240.562 -297.219)" fill="#7ca043"/>
            <path id="Path_174266" data-name="Path 174266" d="M166.015,290.748l.411,3.657-.366.34.537,3.8.283.278.356,2.873-.282.154.612,2.739s14.533,8.427,23.163,11.78S225.469,327.1,225.469,327.1l-.269-2.359.6-.406.511-3.058-.894-.512.883-3.777.506-.892.446-3.762Z" transform="translate(-166.015 -283.335)" fill="#4e7f29"/>
            <path id="Path_174267" data-name="Path 174267" d="M235.48,337.654l16.667,4.744-16.425-3.675Z" transform="translate(-205.447 -309.961)" fill="#406529"/>
            <path id="Path_174268" data-name="Path 174268" d="M202.018,273.6c-12,2.786-24.032,5.278-36,7.413,14.522,11.421,35.137,18.669,61.24,21.584q16.8-5.394,33.122-11.009C235.912,289.068,216.3,283,202.018,273.6Z" transform="translate(-166.015 -273.602)" fill="url(#linear-gradient-28)"/>
            <path id="Path_174269" data-name="Path 174269" d="M205.519,276.319c-10.537,2.484-21.1,4.749-31.633,6.749,13.861,10.419,33.046,17.2,57.065,20.213q15.494-4.76,30.628-9.743C238.294,291,219.466,285.2,205.519,276.319Z" transform="translate(-170.483 -275.144)" fill="url(#linear-gradient-29)"/>
            <path id="Path_174270" data-name="Path 174270" d="M263.524,296.147c-17.632-2.556-32.445-7.152-44.237-13.688a19.061,19.061,0,0,1-9.916-.69q-7.483,1.933-14.994,3.728c.034.022.079.048.109.071,2.217,1.541,1.44,3.251-1.8,4.085,11.39,7.126,25.779,12.194,42.967,15.134a40.43,40.43,0,0,1,10.536-.735q8.774-2.577,17.453-5.246C260.931,298.306,260.914,297.182,263.524,296.147Z" transform="translate(-181.154 -278.238)" fill="url(#linear-gradient-30)"/>
            <path id="Path_174271" data-name="Path 174271" d="M258.631,308.951c-6.167,1.908-16.229,2.207-21.838.273-5.56-1.978-4.388-5.078,2.01-6.618,6.418-1.517,15.516-1.266,20.869.321C265.007,304.487,264.8,307.043,258.631,308.951Z" transform="translate(-204.172 -289.491)" fill="url(#linear-gradient-31)"/>
            <path id="Path_174272" data-name="Path 174272" d="M228.216,308.414c-7.161-2.575-5.452-6.68,2.734-8.557,8.223-1.842,19.713-1.454,26.463.513,6.748,1.927,6.628,5.133-1.176,7.589C248.443,310.472,235.366,310.984,228.216,308.414Zm28.245-7.77c-6.356-1.842-17.135-2.208-24.8-.466-7.637,1.781-9.161,5.554-2.47,7.98,6.705,2.346,18.852,1.94,26.167-.391C262.667,305.485,262.789,302.478,256.462,300.643Z" transform="translate(-198.765 -287.829)" fill="url(#linear-gradient-32)"/>
            <path id="Path_174273" data-name="Path 174273" d="M304.814,322.744c-1.758-.3-1.754-1.025-.038-1.572a15.509,15.509,0,0,1,6.191-.451c1.724.288,1.783.96.11,1.525A15.268,15.268,0,0,1,304.814,322.744Zm4.886-1.6a9.057,9.057,0,0,0-3.637.268c-.994.321-.988.734.03.908a8.915,8.915,0,0,0,3.652-.282C310.739,321.709,310.7,321.313,309.7,321.145Z" transform="translate(-244.054 -300.273)" fill="#5e8c32"/>
            <path id="Path_174274" data-name="Path 174274" d="M221.682,295.037c-1.234-.68-.714-1.559,1.13-1.937a9.988,9.988,0,0,1,5.557.5c1.238.641.766,1.481-1.058,1.9A9.5,9.5,0,0,1,221.682,295.037Zm5.3-1.13a5.7,5.7,0,0,0-3.249-.285c-1.085.219-1.378.728-.658,1.12a5.532,5.532,0,0,0,3.269.27C227.425,294.78,227.7,294.283,226.981,293.908Z" transform="translate(-197.234 -284.571)" fill="#5e8c32"/>
            <path id="Path_174275" data-name="Path 174275" d="M255.692,310.557c5.857-1.5-2.109-2.984.983-3.756a6.22,6.22,0,0,1,5.425.853q1.39-.136,2.779-.281c.034-.3-.525-.695-1.46-1.036l1.422-.393q-.8-.16-1.6-.323l-1.142.329a15.647,15.647,0,0,0-6.762.016c-5.143,1.163.556,3.2-1.666,3.771a7.729,7.729,0,0,1-6.142-1.1q-1.384.091-2.76.175a7.651,7.651,0,0,0,2.441,1.313c-.539.126-1.077.258-1.613.383.384.118.772.234,1.16.349l1.476-.4A14.459,14.459,0,0,0,255.692,310.557Z" transform="translate(-210.719 -291.759)" fill="#cfdf7d"/>
            <g id="Group_116092" data-name="Group 116092" transform="translate(19.779 13.312)">
              <path id="Path_174276" data-name="Path 174276" d="M223.391,327.469l1.686-12.088,30.415-8.436-18.345-1.484-23.264,5.976-1.1,12.141Z" transform="translate(-212.344 -304.998)" fill="#cac195"/>
              <path id="Path_174277" data-name="Path 174277" d="M222.8,327.325a.432.432,0,0,1-.13-.025l-10.609-3.893a.461.461,0,0,1-.292-.479l1.1-12.141a.46.46,0,0,1,.335-.408l23.263-5.976a.564.564,0,0,1,.14-.012l18.346,1.483a.453.453,0,0,1,.406.421.465.465,0,0,1-.328.491l-30.134,8.357-1.643,11.786a.465.465,0,0,1-.208.329A.43.43,0,0,1,222.8,327.325Zm-10.118-4.672,9.775,3.587,1.608-11.532a.454.454,0,0,1,.326-.381l27.894-7.738L236.6,305.32,213.714,311.2Z" transform="translate(-211.764 -304.392)" fill="#ae6439"/>
            </g>
            <path id="Path_174278" data-name="Path 174278" d="M166.119,299.171s11.526,7.391,17.683,8.872c-3.3-2.076-17.006-9.5-17.006-9.5Z" transform="translate(-166.074 -287.761)" fill="#406529"/>
            <path id="Path_174279" data-name="Path 174279" d="M167.361,308.791l17.795,8.768-17.383-7.677Z" transform="translate(-166.779 -293.577)" fill="#406529"/>
            <path id="Path_174280" data-name="Path 174280" d="M168.187,316.435l.156.974,15.147,7.005Z" transform="translate(-167.248 -297.916)" fill="#406529"/>
            <path id="Path_174281" data-name="Path 174281" d="M270.838,343.78l-25.823-5.717,26.638,4.89Z" transform="translate(-210.86 -310.193)" fill="#406529"/>
            <path id="Path_174282" data-name="Path 174282" d="M272.849,352.632l-23.28-5.743,24.092,6.957.112-.455Z" transform="translate(-213.445 -315.203)" fill="#406529"/>
            <path id="Path_174283" data-name="Path 174283" d="M306.128,335.219l24.431-7.113-24.848,8.121Z" transform="translate(-245.314 -304.541)" fill="#4e7f29"/>
            <path id="Path_174284" data-name="Path 174284" d="M302.984,356.509l15.564-5.811L302.8,357.421Z" transform="translate(-243.659 -317.365)" fill="#4e7f29"/>
            <path id="Path_174285" data-name="Path 174285" d="M344.493,339.021,321.978,348.4l22.2-8.242Z" transform="translate(-254.548 -310.737)" fill="#4e7f29"/>
            <path id="Path_174286" data-name="Path 174286" d="M357.261,331l-14.955,4.568,15.15-4.093Z" transform="translate(-266.087 -306.182)" fill="#4e7f29"/>
          </g>
          <g id="Group_116095" data-name="Group 116095" transform="translate(43.846 34.251)">
            <path id="Path_174287" data-name="Path 174287" d="M280.116,290.557s33.155-13.8,39.943-23.987c.827-4.5,2-8.426,2-8.426s-31.881,15.362-41.352,18.213c-4.109.282-3.874,6.751-3.874,6.751Z" transform="translate(-249.058 -244.386)" fill="#4e7f29"/>
            <g id="Group_116094" data-name="Group 116094" transform="translate(27.869 28.131)">
              <path id="Path_174288" data-name="Path 174288" d="M281.4,313.427c6.266-1.926,12.243-3.832,18.1-6.92.168-.089.284.179.124.272-5.75,3.324-11.624,6.039-18.15,7.079C281.2,313.9,281.141,313.506,281.4,313.427Z" transform="translate(-279.428 -299.961)" fill="#406529"/>
              <path id="Path_174289" data-name="Path 174289" d="M290.037,296.367a50.283,50.283,0,0,0,12.6-4.332.083.083,0,0,1,.067.152c-7.429,3.711-15.378,6.427-23.65,5.451a5.024,5.024,0,0,1,.352-.573C282.954,296.847,286.491,296.94,290.037,296.367Z" transform="translate(-278.192 -291.752)" fill="#406529"/>
              <path id="Path_174290" data-name="Path 174290" d="M277.088,300.039a49.261,49.261,0,0,0,14.356-2.584,110.819,110.819,0,0,0,13.391-6.059c.077-.039.131.083.056.125-8.372,4.648-18,10.112-27.832,8.742C277.068,300.188,277.077,300.116,277.088,300.039Z" transform="translate(-277.059 -291.389)" fill="#406529"/>
            </g>
            <path id="Path_174291" data-name="Path 174291" d="M247.072,278.716l-.227,4.615-1.372.348-.033,3.045,1.205,1.631-.161,4.56L219.6,277.466l.019-4.219-1.32-1.262-.358-4.694.854-.187s-1.457-4.486-1.183-4.8C221.92,264.569,247.072,278.716,247.072,278.716Z" transform="translate(-215.427 -246.745)" fill="#7ca043"/>
            <path id="Path_174292" data-name="Path 174292" d="M217.66,241.877c8.722,6.579,19.2,11.852,29.457,16.416,14.493-1.8,33.065-9.959,41.352-18.213Q276.55,234.042,264,226.322C255.007,234.428,236.286,241.078,217.66,241.877Z" transform="translate(-215.472 -226.322)" fill="url(#linear-gradient-33)"/>
            <path id="Path_174293" data-name="Path 174293" d="M224.326,244.7c7.725,5.674,18.628,9.64,25.966,14.328,17.1-2.951,31.758-9.567,40.048-17.3q-10.653-5.538-21.787-12.422C259.785,237.005,241.911,243.486,224.326,244.7Z" transform="translate(-219.256 -228.016)" fill="url(#linear-gradient-34)"/>
            <path id="Path_174294" data-name="Path 174294" d="M274.806,235.68c-7.918,5.732-22.454,10.931-35.863,12.763,2.105,1.794,3.391,3.219,1.691,3.883a73.977,73.977,0,0,0,14.434,7.087c.041-.008.076-.018.116-.027a14.918,14.918,0,0,1,9.056,1.637c12.658-3.037,23.6-8.039,31.018-13.849-1.6-1.1-2.109-2.444-1.341-3.419q-5.986-3.307-12.119-7.039C280.313,237.446,277.36,237.021,274.806,235.68Z" transform="translate(-227.554 -231.634)" fill="url(#linear-gradient-35)"/>
            <path id="Path_174295" data-name="Path 174295" d="M278.5,277.37a6.245,6.245,0,0,1-4.541-1.022c-1.248-.9-1.238-1.866-.005-2.174a6.475,6.475,0,0,1,4.515,1.011C279.731,276.045,279.757,277.032,278.5,277.37Zm-3.6-2.518c-.724.182-.725.751.006,1.272a3.663,3.663,0,0,0,2.649.6c.732-.195.721-.768-.016-1.277A3.747,3.747,0,0,0,274.906,274.852Z" transform="translate(-246.902 -253.432)" fill="#487c27"/>
            <path id="Path_174296" data-name="Path 174296" d="M258.054,291.577l.086.975L237.115,282.23Z" transform="translate(-226.516 -258.059)" fill="#4e7f29"/>
            <path id="Path_174297" data-name="Path 174297" d="M255.414,306.022s-15.451-7.1-20.264-9.727c2.109,1.859,21.665,11.7,21.665,11.7Z" transform="translate(-225.401 -266.042)" fill="#4e7f29"/>
            <path id="Path_174298" data-name="Path 174298" d="M271.132,321.389l-10.393-4.1,10.387,5.151Z" transform="translate(-239.926 -277.962)" fill="#4e7f29"/>
            <path id="Path_174299" data-name="Path 174299" d="M218.42,273.845l10.74,6.941-10.6-5.609Z" transform="translate(-215.904 -253.298)" fill="#4e7f29"/>
            <path id="Path_174300" data-name="Path 174300" d="M234.758,291.063s-19.2-9.1-22.158-9.808c.722-.6,2.806-.453,2.806-.453Z" transform="translate(-212.6 -257.239)" fill="#4e7f29"/>
          </g>
          <g id="Group_116096" data-name="Group 116096" transform="translate(59.917 25.079)">
            <path id="Path_174301" data-name="Path 174301" d="M391.762,254.3q2.455,7.608,5.4,15.383c.772-.135,27.53-8.2,27.451-10.332-.025-.67.259-3.6.425-6.191q-.162-.257-.326-.513s.1-2.457.159-3.355c.121-.009.243-.02.364-.029.125-2,.208-3.5.208-3.5C415.611,248.378,404.382,251.153,391.762,254.3Z" transform="translate(-330.373 -228.187)" fill="#7ca043"/>
            <path id="Path_174302" data-name="Path 174302" d="M251.027,230.911q-.184,1.6-.343,3.2c-.161.119-.321.24-.482.362q-.106,1.656-.182,3.315c.089.068.179.135.269.2q-.083,1.256-.15,2.518c-.119.059-.239.121-.356.181q.091,1.18.2,2.359c-.117-.095,15.752,5.495,25.932,8.195,10,2.05,40.671,9.66,40.655,10.006q-.373-1.177-.733-2.351c.2-.124.4-.25.593-.374q0-1.5.008-3c-.353-.18-.706-.363-1.06-.543q.154-1.846.308-3.7c.131-.285.258-.573.386-.862q-.08-1.847-.154-3.7A355.162,355.162,0,0,0,251.027,230.911Z" transform="translate(-249.779 -219.755)" fill="#4e7f29"/>
            <path id="Path_174303" data-name="Path 174303" d="M290.685,205.107c-11.587,3.557-24.368,7.232-38.025,11.156,13.306,7.719,37.3,12.184,64.892,15.811,11.009-3.24,20.645-6.314,28.933-9.388C324.34,218.13,303.839,212.64,290.685,205.107Z" transform="translate(-251.412 -205.107)" fill="url(#linear-gradient-36)"/>
            <path id="Path_174304" data-name="Path 174304" d="M294.466,207.814c-10.281,3.163-21.491,6.429-33.421,9.887,12.949,7.113,34.974,11.485,60.333,15.046,10.169-2.878,19.216-5.614,27.129-8.341C327.142,220.075,307.442,214.882,294.466,207.814Z" transform="translate(-256.172 -206.644)" fill="url(#linear-gradient-37)"/>
            <path id="Path_174305" data-name="Path 174305" d="M351.407,226.777c-16.673-3.547-31.9-7.689-43.2-12.95a20.727,20.727,0,0,1-9.735.18Q290.853,216.5,282.6,219.1c.032.019.078.033.106.051,2.119,1.112,1.106,2.758-2.556,3.933,11.318,4.935,27.35,8.478,45.66,11.441a38.7,38.7,0,0,1,10.68-.529q8.371-2.289,15.693-4.493C349.546,228.833,349.285,227.7,351.407,226.777Z" transform="translate(-267.015 -210.057)" fill="url(#linear-gradient-38)"/>
            <path id="Path_174306" data-name="Path 174306" d="M349.157,236.841c-5.938,1.853-16.65,2.421-22.685,1.007-5.979-1.459-4.42-4.4,2.226-6.3,6.679-1.863,15.574-2.012,20.894-.534C354.864,232.46,355.121,234.98,349.157,236.841Z" transform="translate(-291.196 -219.246)" fill="url(#linear-gradient-39)"/>
            <path id="Path_174307" data-name="Path 174307" d="M317.224,237.268c-7.769-1.823-5.367-5.739,3.174-8.145,8.6-2.361,19.693-2.483,26.327-.6,6.578,1.841,7.158,5.04-.278,7.373C339.067,238.271,325,239.093,317.224,237.268Zm28.617-8.471c-6.262-1.753-16.712-1.634-24.722.573-7.958,2.255-10.075,5.842-2.833,7.591,7.267,1.672,20.294.971,27.258-1.249C352.542,233.526,352.039,230.532,345.841,228.8Z" transform="translate(-285.39 -217.66)" fill="url(#linear-gradient-40)"/>
            <path id="Path_174308" data-name="Path 174308" d="M397.445,249.94c-1.808-.321-1.89-1.021-.26-1.54a14.3,14.3,0,0,1,6.008-.336c1.72.329,1.908,1,.374,1.513A14.991,14.991,0,0,1,397.445,249.94Zm4.585-1.486a8.463,8.463,0,0,0-3.532.2c-.941.3-.877.707.162.894a8.642,8.642,0,0,0,3.566-.207C403.145,249.037,403.034,248.642,402.029,248.453Z" transform="translate(-332.792 -229.392)" fill="#5e8c32"/>
            <path id="Path_174309" data-name="Path 174309" d="M311.506,226.825c-1.237-.5-.6-1.361,1.331-1.886a10.768,10.768,0,0,1,5.673-.028c1.23.493.725,1.308-1.178,1.842A11.157,11.157,0,0,1,311.506,226.825Zm5.57-1.52a6.254,6.254,0,0,0-3.328.026c-1.135.3-1.486.8-.767,1.093a6.433,6.433,0,0,0,3.374-.042C317.488,226.075,317.785,225.592,317.076,225.3Z" transform="translate(-284.455 -216.142)" fill="#5e8c32"/>
            <path id="Path_174310" data-name="Path 174310" d="M346.386,238.309c5.9-1.6-2.3-2.771.819-3.6a6.476,6.476,0,0,1,5.487.664c.915-.11,1.823-.211,2.726-.319.006-.293-.578-.661-1.527-.971.454-.134.91-.272,1.364-.407q-.8-.137-1.6-.278l-1.1.342a15.684,15.684,0,0,0-6.738.227c-5.186,1.313.684,3.009-1.556,3.636a8.773,8.773,0,0,1-6.406-.745l-2.9.328a7.906,7.906,0,0,0,2.568,1.085q-.852.223-1.708.451c.409.086.819.174,1.231.259.52-.151,1.038-.3,1.558-.451A17.2,17.2,0,0,0,346.386,238.309Z" transform="translate(-298.131 -221.164)" fill="#cfdf7d"/>
            <path id="Path_174311" data-name="Path 174311" d="M250.751,238.269c-.1-.064,27.48,9.749,34.373,10.564-3.629-1.691-33.579-11.341-33.482-11.234C251.346,237.822,251.049,238.047,250.751,238.269Z" transform="translate(-250.328 -223.551)" fill="#406529"/>
            <path id="Path_174312" data-name="Path 174312" d="M250.331,246.816q9.284,2.494,19.067,5.633-9.588-2.665-18.81-4.722C250.5,247.425,250.415,247.12,250.331,246.816Z" transform="translate(-250.09 -228.783)" fill="#406529"/>
            <path id="Path_174313" data-name="Path 174313" d="M249.777,253.531c0,.283,0,.565,0,.849q8.165,1.964,16.641,4.4Q257.893,255.9,249.777,253.531Z" transform="translate(-249.773 -232.595)" fill="#406529"/>
            <path id="Path_174314" data-name="Path 174314" d="M363.857,270.869q-14.2-3.239-28.621-5.321,14.86,1.673,29.345,4.533Q364.223,270.476,363.857,270.869Z" transform="translate(-298.286 -239.416)" fill="#406529"/>
            <path id="Path_174315" data-name="Path 174315" d="M366.9,279.249q-13.124-3.285-26.355-5.582,13.7,2.856,27.451,6.815c.015-.147.029-.3.042-.443Z" transform="translate(-301.301 -244.025)" fill="#406529"/>
            <path id="Path_174316" data-name="Path 174316" d="M402.007,263.521c8.119-2.1,15.633-4.049,22.539-5.913-6.942,2.2-14.546,4.478-22.812,6.9C401.824,264.177,401.916,263.851,402.007,263.521Z" transform="translate(-336.034 -234.909)" fill="#4e7f29"/>
            <path id="Path_174317" data-name="Path 174317" d="M401.935,283.986q8.008-2.546,15.183-4.953-7.162,2.869-15.231,5.848Z" transform="translate(-336.121 -247.071)" fill="#4e7f29"/>
            <path id="Path_174318" data-name="Path 174318" d="M441.546,269.825c-6.062,2.578-12.737,5.183-20.023,7.871,7.257-2.314,13.948-4.537,20.079-6.717C441.584,270.594,441.566,270.208,441.546,269.825Z" transform="translate(-347.267 -241.844)" fill="#4e7f29"/>
            <path id="Path_174319" data-name="Path 174319" d="M450.948,261.683q-6.138,1.743-12.973,3.577,6.99-1.594,13.3-3.064Q451.112,261.939,450.948,261.683Z" transform="translate(-356.606 -237.222)" fill="#4e7f29"/>
          </g>
          <g id="Group_116098" data-name="Group 116098" transform="translate(67.605 11.906)">
            <path id="Path_174320" data-name="Path 174320" d="M394.877,216.432q2.4,6.731,5.05,13.427c.4-.435,26.446-9.81,26.82-11.26.012-.557.417-3.024.694-5.173-.106-.139-.211-.281-.315-.416,0,0,.2-2.041.294-2.784.126-.013.253-.022.379-.037.2-1.655.349-2.883.349-2.883A333.279,333.279,0,0,0,394.877,216.432Z" transform="translate(-339.829 -193.181)" fill="#7ca043"/>
            <path id="Path_174321" data-name="Path 174321" d="M267.864,204.4q.028,1.686.065,3.369c-.124.14-.248.275-.374.408q.088,1.739.189,3.476c.084.066.168.132.252.2.033.878.074,1.756.116,2.628-.1.071-.189.142-.285.214.123.812.254,1.62.384,2.431-.1-.026,13.793,4.428,22.783,5.97,8.615,1.132,36.52,4.848,36.658,5.116-.22-.68-.44-1.363-.657-2.044.185-.132.372-.264.555-.4.01-.9.018-1.806.026-2.711l-.988-.387c-.051-1.313-.1-2.63-.16-3.943q.409-.119.812-.231-.073-1.654-.157-3.317A495.741,495.741,0,0,0,267.864,204.4Z" transform="translate(-267.555 -191.535)" fill="#4e7f29"/>
            <g id="Group_116097" data-name="Group 116097" transform="translate(21.747 7.612)">
              <path id="Path_174322" data-name="Path 174322" d="M359.127,195.334,332.3,206.923l.978,12.15L319.2,216.317l-.409-10.04,30.587-13.057Z" transform="translate(-318.385 -192.798)" fill="#e7dcad"/>
              <path id="Path_174323" data-name="Path 174323" d="M332.316,223.23l.959,11.88L319.2,232.356l-.409-10.04,1.98-.842C324.637,221.978,328.5,222.529,332.316,223.23Z" transform="translate(-318.385 -208.836)" fill="#cac195"/>
              <path id="Path_174324" data-name="Path 174324" d="M332.75,218.942a.39.39,0,0,0,.265-.109.429.429,0,0,0,.133-.349l-.956-11.842,26.556-11.47a.431.431,0,0,0,.249-.43.413.413,0,0,0-.321-.377l-9.747-2.115a.431.431,0,0,0-.234.023l-30.589,13.06a.425.425,0,0,0-.251.41l.409,10.039a.415.415,0,0,0,.33.4l14.076,2.754A.369.369,0,0,0,332.75,218.942Zm24.47-24.027-25.611,11.062a.428.428,0,0,0-.25.425L332.3,218l-13.237-2.593-.383-9.4,30.212-12.9Z" transform="translate(-317.854 -192.244)" fill="#ae6439"/>
            </g>
            <path id="Path_174325" data-name="Path 174325" d="M267.864,204.4q.028,1.686.065,3.369c-.124.14-.248.275-.374.408q.088,1.739.189,3.476c.084.066.168.132.252.2.033.878.074,1.756.116,2.628-.1.071-.189.142-.285.214.123.812.254,1.62.384,2.431-.1-.022,12.2,3.916,21.144,5.666,9.721-.636,18.855-4.49,27.244-10.037A489.633,489.633,0,0,0,267.864,204.4Z" transform="translate(-267.555 -191.535)" fill="#4e7f29" opacity="0.3" style="mix-blend-mode: multiply;isolation: isolate"/>
            <path id="Path_174326" data-name="Path 174326" d="M301.1,174.638c-10.483,3.8-21.525,8.11-32.835,12.87,12.387,7.566,33.12,9.726,59.22,10.78,10.391-3.773,20.017-6.911,28.79-9.526C333.34,185.3,314.035,181.61,301.1,174.638Z" transform="translate(-267.96 -174.638)" fill="url(#linear-gradient-41)"/>
            <path id="Path_174327" data-name="Path 174327" d="M304.39,177.341c-9.264,3.42-18.963,7.24-28.906,11.424,12.028,6.842,31.235,9.131,55.211,10.354,9.585-3.381,18.556-6.23,26.828-8.634C335.578,187.3,317.064,183.825,304.39,177.341Z" transform="translate(-272.056 -176.172)" fill="url(#linear-gradient-42)"/>
            <path id="Path_174328" data-name="Path 174328" d="M359.127,192.966c-16.787-2.51-31.227-5.407-42.131-10.052a18.054,18.054,0,0,1-8.945.568q-6.717,2.776-13.731,5.837c.029.017.072.03.1.049,1.987,1.029,1.237,2.734-1.849,4.147,10.369,4.4,24.633,6.5,41.778,7.774a36.573,36.573,0,0,1,10.09-1.263q8.007-2.616,15.425-4.765C357.228,194.791,356.975,193.82,359.127,192.966Z" transform="translate(-281.755 -179.336)" fill="url(#linear-gradient-43)"/>
            <path id="Path_174329" data-name="Path 174329" d="M355.1,203.187c-5.569,2.071-15.325,3.448-20.8,2.531-5.428-.966-4.283-4.011,1.619-6.24,5.934-2.208,14.262-2.77,19.4-1.67C360.412,198.889,360.684,201.11,355.1,203.187Z" transform="translate(-303.454 -187.48)" fill="url(#linear-gradient-44)"/>
            <path id="Path_174330" data-name="Path 174330" d="M326.132,205.421c-6.995-1.177-5.229-5.307,2.316-8.138,7.6-2.805,18.04-3.4,24.5-1.973,6.414,1.4,6.977,4.163-.051,6.736C345.9,204.65,333.127,206.6,326.132,205.421Zm25.973-9.817c-6.079-1.32-15.9-.745-22.986,1.879-7.041,2.647-8.594,6.409-2.058,7.559,6.553,1.067,18.393-.662,24.972-3.109C358.627,199.512,358.136,196.914,352.105,195.6Z" transform="translate(-298.308 -185.949)" fill="url(#linear-gradient-45)"/>
            <path id="Path_174331" data-name="Path 174331" d="M400.021,213.444c-1.722-.171-1.822-.8-.275-1.375a14.59,14.59,0,0,1,5.768-.655c1.671.2,1.852.786.374,1.329A15.982,15.982,0,0,1,400.021,213.444Zm4.371-1.615a8.711,8.711,0,0,0-3.392.387c-.891.329-.825.691.172.793a9.1,9.1,0,0,0,3.415-.4C405.474,212.283,405.365,211.94,404.392,211.829Z" transform="translate(-341.973 -195.478)" fill="#5e8c32"/>
            <path id="Path_174332" data-name="Path 174332" d="M319.72,196.844c-1.149-.425-.662-1.322,1.035-1.94a8.961,8.961,0,0,1,5.128-.329c1.16.418.756,1.239-.925,1.869A9.275,9.275,0,0,1,319.72,196.844Zm4.891-1.8a5.216,5.216,0,0,0-3,.2c-1,.355-1.269.869-.6,1.12a5.356,5.356,0,0,0,3.036-.229C325.044,195.771,325.28,195.282,324.611,195.04Z" transform="translate(-296.812 -185.819)" fill="#5e8c32"/>
            <path id="Path_174333" data-name="Path 174333" d="M377.049,236.334l-21.75-.515,20.946,1.8Z" transform="translate(-317.363 -209.367)" fill="#406529"/>
            <path id="Path_174334" data-name="Path 174334" d="M380.087,242.976l-.013.912-18.3-2.116Z" transform="translate(-321.042 -212.746)" fill="#406529"/>
            <path id="Path_174335" data-name="Path 174335" d="M388.819,252.332l-12.712-1.783,12.992,2.492Z" transform="translate(-329.175 -217.729)" fill="#406529"/>
            <path id="Path_174336" data-name="Path 174336" d="M449.517,220.165l-15.749,4.977,15.437-5.966Z" transform="translate(-361.906 -199.92)" fill="#4e7f29"/>
            <path id="Path_174337" data-name="Path 174337" d="M456.685,214.06l-.11.792-10.144,3.27Z" transform="translate(-369.095 -197.016)" fill="#4e7f29"/>
            <path id="Path_174338" data-name="Path 174338" d="M405.569,232.569l12.9-3.383-12.924,2.393Z" transform="translate(-345.883 -205.603)" fill="#4e7f29"/>
            <path id="Path_174339" data-name="Path 174339" d="M406.326,239.574,428.19,232.5l-21.851,8.159Z" transform="translate(-346.329 -207.485)" fill="#4e7f29"/>
            <path id="Path_174340" data-name="Path 174340" d="M268.285,208.2l13.814,5.908-13.763-4.6Z" transform="translate(-267.969 -193.688)" fill="#406529"/>
          </g>
          <g id="Group_116100" data-name="Group 116100" transform="translate(63.45)">
            <path id="Path_174341" data-name="Path 174341" d="M291.7,195.59q-2,6.886-4.246,13.753c-.423-.406-26.978-7.881-27.439-9.3-.045-.558-.6-2.988-1-5.113.1-.143.193-.29.29-.436,0,0-.326-2.022-.461-2.757-.126-.005-.253-.007-.38-.007-.305-1.638-.521-2.852-.521-2.852A330.751,330.751,0,0,1,291.7,195.59Z" transform="translate(-257.943 -170.818)" fill="#4e7f29"/>
            <path id="Path_174342" data-name="Path 174342" d="M384.179,171.318q.071,1.681.134,3.369c.13.128.266.252.4.378q.015,1.739.016,3.483l-.238.213c.017.874.029,1.749.043,2.628.095.066.2.125.295.189q-.115,1.23-.243,2.455c.1-.032-13.505,5.409-22.39,7.6-8.532,1.746-36.171,7.467-36.294,7.743q.274-1.044.535-2.083l-.578-.358c-.064-.9-.125-1.8-.186-2.7l.963-.458c-.026-1.312-.052-2.633-.075-3.946-.276-.055-.552-.114-.824-.168-.013-1.106-.026-2.214-.039-3.318A500.191,500.191,0,0,1,384.179,171.318Z" transform="translate(-296.388 -160.848)" fill="#7ca043"/>
            <path id="Path_174343" data-name="Path 174343" d="M312.192,147.1c10.688,3.042,21.969,6.538,33.542,10.47-11.92,8.442-32.488,12.087-58.484,15.025-10.6-3.019-20.394-5.453-29.307-7.431C280.638,160.061,299.693,154.989,312.192,147.1Z" transform="translate(-257.943 -147.101)" fill="url(#linear-gradient-46)"/>
            <path id="Path_174344" data-name="Path 174344" d="M316.82,149.664c9.45,2.743,19.361,5.855,29.534,9.314-11.6,7.689-30.643,11.357-54.507,14.3-9.768-2.681-18.89-4.875-27.294-6.674C286.274,161.85,304.552,157.048,316.82,149.664Z" transform="translate(-261.695 -148.556)" fill="url(#linear-gradient-47)"/>
            <path id="Path_174345" data-name="Path 174345" d="M282.362,168.667c16.612-3.711,30.856-7.643,41.47-13.063a18.021,18.021,0,0,0,8.961-.075q6.869,2.285,14.052,4.834c-.03.019-.073.034-.1.053-1.921,1.168-1.071,2.82,2.091,4-10.09,5.138-24.206,8.26-41.246,10.765a36.8,36.8,0,0,0-10.15-.531q-8.144-2.036-15.683-3.641C284.367,170.352,284.564,169.363,282.362,168.667Z" transform="translate(-271.464 -151.885)" fill="url(#linear-gradient-48)"/>
            <path id="Path_174346" data-name="Path 174346" d="M337.212,177.975c5.684,1.663,15.5,2.34,20.912,1.03,5.365-1.356,4.042-4.312-1.984-6.108-6.05-1.776-14.4-1.735-19.461-.268C331.652,174.073,331.512,176.308,337.212,177.975Z" transform="translate(-300.505 -160.977)" fill="url(#linear-gradient-49)"/>
            <path id="Path_174347" data-name="Path 174347" d="M356.09,178.53c6.912-1.678,4.905-5.669-2.793-7.951-7.758-2.25-18.212-2.087-24.571-.2-6.322,1.862-6.721,4.652.448,6.719C336.31,179.182,349.175,180.21,356.09,178.53Zm-26.513-7.922c5.989-1.757,15.825-1.887,23.06.22,7.184,2.135,8.96,5.774,2.5,7.4-6.48,1.534-18.4.663-25.113-1.3C323.3,174.978,323.637,172.351,329.578,170.608Z" transform="translate(-295.378 -159.491)" fill="url(#linear-gradient-50)"/>
            <path id="Path_174348" data-name="Path 174348" d="M319.255,190.316c1.708-.294,1.768-.93.193-1.391a14.523,14.523,0,0,0-5.8-.236c-1.655.319-1.805.915-.295,1.35A15.913,15.913,0,0,0,319.255,190.316Zm-4.462-1.3a8.691,8.691,0,0,1,3.408.137c.912.268.866.632-.122.806a9.034,9.034,0,0,1-3.435-.154C313.742,189.554,313.83,189.2,314.794,189.021Z" transform="translate(-288.804 -170.603)" fill="#5e8c32"/>
            <path id="Path_174349" data-name="Path 174349" d="M399.486,167.933c1.122-.508.581-1.368-1.151-1.863a8.965,8.965,0,0,0-5.138.047c-1.13.5-.683,1.287,1.034,1.791A9.237,9.237,0,0,0,399.486,167.933Zm-4.992-1.448a5.22,5.22,0,0,1,3.012-.015c1.016.285,1.32.779.665,1.072a5.291,5.291,0,0,1-3.047-.006C394.108,167.246,393.842,166.775,394.493,166.486Z" transform="translate(-334.367 -157.671)" fill="#5e8c32"/>
            <g id="Group_116099" data-name="Group 116099" transform="translate(25.059 8.242)">
              <path id="Path_174350" data-name="Path 174350" d="M316.842,169.949l27.473,9.628-.258,12.19,13.888-3.761-.185-10.04-31.312-10.825Z" transform="translate(-316.436 -166.719)" fill="#e7dcad"/>
              <path id="Path_174351" data-name="Path 174351" d="M380.039,193.141l-.253,11.919,13.888-3.761-.185-10.04-2.027-.7C387.633,191.334,383.811,192.167,380.039,193.141Z" transform="translate(-352.167 -180.011)" fill="#cac195"/>
              <path id="Path_174352" data-name="Path 174352" d="M343.542,191.638a.422.422,0,0,1-.272-.092.438.438,0,0,1-.152-.343l.253-11.88-27.19-9.524a.424.424,0,0,1-.277-.413.431.431,0,0,1,.3-.4l9.6-2.808a.416.416,0,0,1,.236,0l31.312,10.824a.417.417,0,0,1,.277.39l.186,10.043a.434.434,0,0,1-.308.424l-13.888,3.758A.607.607,0,0,1,343.542,191.638Zm-25.851-22.206,26.221,9.189a.412.412,0,0,1,.274.407l-.244,11.635L357,187.124l-.172-9.405L325.9,167.028Z" transform="translate(-315.904 -166.164)" fill="#ae6439"/>
            </g>
            <path id="Path_174353" data-name="Path 174353" d="M325.818,211.007l21.685-2.085-20.8,3.3Z" transform="translate(-296.473 -182.194)" fill="#4e7f29"/>
            <path id="Path_174354" data-name="Path 174354" d="M327.754,217.853l.062.906,18.14-3.427Z" transform="translate(-297.571 -185.832)" fill="#4e7f29"/>
            <path id="Path_174355" data-name="Path 174355" d="M326.651,227.808l12.585-2.7-12.823,3.419Z" transform="translate(-296.811 -191.385)" fill="#4e7f29"/>
            <path id="Path_174356" data-name="Path 174356" d="M260.421,201.558l16.016,3.831-15.764-4.837Z" transform="translate(-259.35 -177.443)" fill="#406529"/>
            <path id="Path_174357" data-name="Path 174357" d="M260.025,195.494l.155.786,10.321,2.528Z" transform="translate(-259.125 -174.571)" fill="#406529"/>
            <path id="Path_174358" data-name="Path 174358" d="M308.655,210.532l-13.073-2.446,13.041,1.455Z" transform="translate(-279.309 -181.719)" fill="#406529"/>
            <path id="Path_174359" data-name="Path 174359" d="M296.593,218.409l-22.249-5.479,22.3,6.565Z" transform="translate(-267.253 -184.469)" fill="#406529"/>
            <path id="Path_174360" data-name="Path 174360" d="M443.553,175.109,430.113,182l13.466-5.581Z" transform="translate(-355.676 -163)" fill="#4e7f29"/>
          </g>
          <g id="Group_116103" data-name="Group 116103" transform="translate(75.848 44.248)">
            <path id="Path_174361" data-name="Path 174361" d="M286.619,373.212l1.11,3.475.559.273.407,1.585-.324.521.353,1.257,1,.413,1.115,3.833,46.914-.262,2.112-3.8-.521-.57.674-2.42.692-.055.337-1.24-.418-1.126.5-1.7Z" transform="translate(-286.619 -319.701)" fill="url(#linear-gradient-51)"/>
            <path id="Path_174362" data-name="Path 174362" d="M331.231,250.081q-14.237-.316-28.462-.636c-1.617,18.065-9.6,35.837-16.15,53.51a253.824,253.824,0,0,0,54.506.173C337.592,285.331,331.459,267.84,331.231,250.081Z" transform="translate(-286.619 -249.445)" fill="url(#linear-gradient-52)"/>
            <path id="Path_174363" data-name="Path 174363" d="M333.956,253.271q-12.641-.189-25.276-.374c-1.755,17.074-8.181,33.951-14.3,50.912a262.628,262.628,0,0,0,48.07.444C339.16,287.036,334.336,270.251,333.956,253.271Z" transform="translate(-291.026 -251.405)" fill="url(#linear-gradient-53)"/>
            <path id="Path_174364" data-name="Path 174364" d="M343.409,300.423c-2.513-13.621-5.445-26.954-6.263-40.347-2.781-.331-5.086-2.149-5.658-4.362q-6.652.073-13.32.144c0,.043,0,.083,0,.125-.168,2.688-2.681,4.709-5.742,4.768-2.007,13.162-6.313,26.241-10.824,39.416,3.806.738,6.376,2.543,6.48,4.726,8.9.667,17.716.891,26.617.677C335.212,303.142,338.747,301.064,343.409,300.423Z" transform="translate(-295.123 -253.004)" fill="url(#linear-gradient-54)"/>
            <path id="Path_174365" data-name="Path 174365" d="M335.845,309.608c-8.054.058-13.694-4.341-12.423-9.41,1.278-5.09,7.02-8.962,13.059-8.708s11.6,4.3,12.457,9.078C349.783,305.327,343.885,309.55,335.845,309.608Z" transform="translate(-307.409 -273.305)" fill="#4e7f29"/>
            <path id="Path_174366" data-name="Path 174366" d="M329.816,308.846c-6.11-.206-11.347-2.49-13.665-5.955a7.094,7.094,0,0,1-.943-6.225c1.991-6.41,9.178-11.24,16.363-11l.244.01c7.44.394,14.4,5.432,15.844,11.473a6.7,6.7,0,0,1-1.293,5.622c-2.7,3.652-8.579,5.982-15.354,6.084C330.607,308.864,330.21,308.86,329.816,308.846Zm1.727-22.386c-6.866-.233-13.729,4.355-15.621,10.448a6.3,6.3,0,0,0,.844,5.527c2.187,3.268,7.2,5.423,13.077,5.623.382.013.771.017,1.163.014,6.546-.1,12.206-2.312,14.764-5.777a5.9,5.9,0,0,0,1.157-4.948c-1.349-5.628-8.145-10.508-15.153-10.878Z" transform="translate(-302.656 -270.004)" fill="url(#linear-gradient-55)"/>
            <path id="Path_174367" data-name="Path 174367" d="M344.928,350.94a4.406,4.406,0,0,1-3.21-1.243,1.753,1.753,0,0,1-.421-1.314c.149-1.409,1.962-2.5,4.219-2.547,2.3-.04,4.021,1.03,4.037,2.445.016,1.436-1.832,2.6-4.208,2.661C345.206,350.945,345.065,350.945,344.928,350.94Zm.9-4c-.1,0-.2,0-.3,0-1.784.033-3.111.849-3.186,1.562a.627.627,0,0,0,.17.47,3.771,3.771,0,0,0,2.811.868c1.8-.044,3.181-.863,3.174-1.541C348.494,347.687,347.42,347,345.831,346.943Z" transform="translate(-317.652 -304.161)" fill="#57872c"/>
            <path id="Path_174368" data-name="Path 174368" d="M350.907,273.991l-.1-.006a2.746,2.746,0,0,1-2.757-2.672,2.581,2.581,0,0,1,2.805-2.292l.141.007a2.824,2.824,0,0,1,2.755,2.637,2.15,2.15,0,0,1-.639,1.514A2.962,2.962,0,0,1,350.907,273.991Zm-.087-3.866a1.53,1.53,0,0,0-1.716,1.249c-.041.755.77,1.447,1.771,1.51l.069,0a1.955,1.955,0,0,0,1.441-.5,1.032,1.032,0,0,0,.316-.72,1.807,1.807,0,0,0-1.783-1.537Z" transform="translate(-321.49 -260.557)" fill="#57872c"/>
            <g id="Group_116101" data-name="Group 116101" transform="translate(7.755 22.228)">
              <path id="Path_174369" data-name="Path 174369" d="M308.344,301.773l-2.616,8.727,42.113,1.458-2.343-10Z" transform="translate(-305.221 -301.378)" fill="url(#linear-gradient-56)"/>
              <path id="Path_174370" data-name="Path 174370" d="M347.657,311.852l-43.1-1.494,2.849-9.5,37.722.188ZM305.57,309.6l41.121,1.425-2.154-9.2-36.581-.182Z" transform="translate(-304.555 -300.858)" fill="url(#linear-gradient-57)"/>
            </g>
            <g id="Group_116102" data-name="Group 116102" transform="translate(1.188 57.023)">
              <path id="Path_174371" data-name="Path 174371" d="M293.666,390.554l.053.025.513,1.762,39.738-1.291Z" transform="translate(-291.807 -386.568)" fill="#406529"/>
              <path id="Path_174372" data-name="Path 174372" d="M289.367,381.336l.481.236.362,1.409,40.263-.865S299.32,381.759,289.367,381.336Z" transform="translate(-289.367 -381.336)" fill="#406529"/>
            </g>
            <path id="Path_174373" data-name="Path 174373" d="M349.127,385.8s12.153.683,24.626,1.043a10.456,10.456,0,0,0-.281-1.65Z" transform="translate(-322.102 -326.504)" fill="#a8c35b"/>
            <path id="Path_174374" data-name="Path 174374" d="M365.5,394.42s16.351.825,18.6,1.128a5.664,5.664,0,0,0-.533-1.653Z" transform="translate(-331.395 -331.442)" fill="#a8c35b"/>
          </g>
        </g>
      </g>
    </g>
  </g>
</svg>
