<svg xmlns="http://www.w3.org/2000/svg" width="295" height="200" viewBox="0 0 295 200">
  <g id="t4-i13" transform="translate(-1821 6293)">
    <rect id="Rectángulo_36457" data-name="Rectángulo 36457" width="295" height="200" rx="10" transform="translate(1821 -6293)" fill="#e5f8f9"/>
    <g id="Group_116078" data-name="Group 116078" transform="translate(-2465 -5881.276)">
      <g id="Group_116072" data-name="Group 116072" transform="translate(4377.902 -362.724)">
        <path id="Path_174115" data-name="Path 174115" d="M4409.28-352.633h4.817v2.129h-7.583v-11.479h2.767Z" transform="translate(-4406.514 362.527)" fill="#12263f"/>
        <path id="Path_174116" data-name="Path 174116" d="M4422.742-349.335a4.384,4.384,0,0,1-3.177-1.171,4.042,4.042,0,0,1-1.213-3.047v-.22a5.227,5.227,0,0,1,.485-2.31,3.549,3.549,0,0,1,1.414-1.549,4.28,4.28,0,0,1,2.208-.547,3.692,3.692,0,0,1,2.838,1.115,4.382,4.382,0,0,1,1.041,3.11v1.033h-5.282a1.912,1.912,0,0,0,.623,1.127,1.852,1.852,0,0,0,1.246.41,2.387,2.387,0,0,0,1.971-.884l1.214,1.435a3.39,3.39,0,0,1-1.407,1.091A4.76,4.76,0,0,1,4422.742-349.335Zm-.3-6.8q-1.166,0-1.387,1.545h2.681v-.2a1.319,1.319,0,0,0-.323-.989A1.286,1.286,0,0,0,4422.442-356.13Z" transform="translate(-4409.664 361.515)" fill="#12263f"/>
        <path id="Path_174117" data-name="Path 174117" d="M4435.791-349.492a3.028,3.028,0,0,1-.253-.765,2.468,2.468,0,0,1-2.049.922,3.024,3.024,0,0,1-2.049-.729,2.32,2.32,0,0,1-.843-1.833,2.385,2.385,0,0,1,1.024-2.1,5.215,5.215,0,0,1,2.98-.71h.82v-.451q0-1.18-1.017-1.181a.832.832,0,0,0-.946.935H4430.8a2.378,2.378,0,0,1,1.053-2.007,4.412,4.412,0,0,1,2.683-.772,3.88,3.88,0,0,1,2.578.8,2.768,2.768,0,0,1,.97,2.183v3.777a3.86,3.86,0,0,0,.362,1.8v.134Zm-1.664-1.735a1.475,1.475,0,0,0,.823-.213,1.321,1.321,0,0,0,.47-.481v-1.364h-.773q-1.388,0-1.387,1.245a.759.759,0,0,0,.244.587A.882.882,0,0,0,4434.127-351.227Z" transform="translate(-4412.922 361.515)" fill="#12263f"/>
        <path id="Path_174118" data-name="Path 174118" d="M4445.666-358.022l.087,1a2.889,2.889,0,0,1,2.436-1.159,2.437,2.437,0,0,1,1.991.8,3.794,3.794,0,0,1,.681,2.4v5.5H4448.2v-5.384a1.442,1.442,0,0,0-.261-.95,1.2,1.2,0,0,0-.946-.3,1.268,1.268,0,0,0-1.159.615v6.023h-2.656v-8.53Z" transform="translate(-4416.27 361.515)" fill="#12263f"/>
        <path id="Path_174119" data-name="Path 174119" d="M4466.306-351.889a.613.613,0,0,0-.355-.544,5.373,5.373,0,0,0-1.348-.426,6.13,6.13,0,0,1-1.639-.58,2.737,2.737,0,0,1-.985-.871,2.082,2.082,0,0,1-.339-1.174,2.359,2.359,0,0,1,.97-1.936,4,4,0,0,1,2.539-.76,4.422,4.422,0,0,1,2.711.765,2.392,2.392,0,0,1,1.024,2.01h-2.664q0-1.025-1.081-1.025a1.075,1.075,0,0,0-.7.232.722.722,0,0,0-.284.58.659.659,0,0,0,.347.575,3.266,3.266,0,0,0,1.108.363,9.739,9.739,0,0,1,1.336.339,2.429,2.429,0,0,1,1.923,2.373,2.233,2.233,0,0,1-1.037,1.9,4.547,4.547,0,0,1-2.684.733,4.637,4.637,0,0,1-1.955-.395,3.259,3.259,0,0,1-1.341-1.071,2.43,2.43,0,0,1-.48-1.427h2.483a1.026,1.026,0,0,0,.394.863,1.616,1.616,0,0,0,.969.272,1.278,1.278,0,0,0,.817-.221A.707.707,0,0,0,4466.306-351.889Z" transform="translate(-4421.112 361.515)" fill="#12263f"/>
        <path id="Path_174120" data-name="Path 174120" d="M4473.691-361.431a1.187,1.187,0,0,1,.411-.931,1.546,1.546,0,0,1,1.064-.363,1.546,1.546,0,0,1,1.064.363,1.188,1.188,0,0,1,.411.931,1.187,1.187,0,0,1-.411.93,1.543,1.543,0,0,1-1.064.363,1.542,1.542,0,0,1-1.064-.363A1.185,1.185,0,0,1,4473.691-361.431Zm2.823,10.729h-2.665v-8.53h2.665Z" transform="translate(-4424.391 362.724)" fill="#12263f"/>
        <path id="Path_174121" data-name="Path 174121" d="M4483.425-355.616l1.238-2.349h2.759l-2.247,4.154,2.357,4.375h-2.775l-1.34-2.523-1.317,2.523h-2.79l2.364-4.375-2.239-4.154h2.791Z" transform="translate(-4425.886 361.457)" fill="#12263f"/>
        <path id="Path_174122" data-name="Path 174122" d="M4502.184-351.889a.613.613,0,0,0-.355-.544,5.38,5.38,0,0,0-1.348-.426,6.133,6.133,0,0,1-1.64-.58,2.737,2.737,0,0,1-.985-.871,2.082,2.082,0,0,1-.339-1.174,2.361,2.361,0,0,1,.97-1.936,4,4,0,0,1,2.539-.76,4.421,4.421,0,0,1,2.711.765,2.39,2.39,0,0,1,1.024,2.01H4502.1q0-1.025-1.08-1.025a1.076,1.076,0,0,0-.7.232.722.722,0,0,0-.284.58.66.66,0,0,0,.347.575,3.271,3.271,0,0,0,1.107.363,9.692,9.692,0,0,1,1.336.339,2.428,2.428,0,0,1,1.923,2.373,2.234,2.234,0,0,1-1.036,1.9,4.548,4.548,0,0,1-2.685.733,4.641,4.641,0,0,1-1.956-.395,3.264,3.264,0,0,1-1.34-1.071,2.433,2.433,0,0,1-.48-1.427h2.483a1.026,1.026,0,0,0,.394.863,1.617,1.617,0,0,0,.97.272,1.278,1.278,0,0,0,.816-.221A.707.707,0,0,0,4502.184-351.889Z" transform="translate(-4430.66 361.515)" fill="#12263f"/>
        <path id="Path_174123" data-name="Path 174123" d="M4509.569-361.431a1.188,1.188,0,0,1,.41-.931,1.549,1.549,0,0,1,1.064-.363,1.547,1.547,0,0,1,1.064.363,1.188,1.188,0,0,1,.41.931,1.186,1.186,0,0,1-.41.93,1.543,1.543,0,0,1-1.064.363,1.545,1.545,0,0,1-1.064-.363A1.186,1.186,0,0,1,4509.569-361.431Zm2.822,10.729h-2.665v-8.53h2.665Z" transform="translate(-4433.938 362.724)" fill="#12263f"/>
        <path id="Path_174124" data-name="Path 174124" d="M4515.659-353.821a5.778,5.778,0,0,1,.425-2.286,3.432,3.432,0,0,1,1.222-1.533,3.22,3.22,0,0,1,1.853-.54,2.563,2.563,0,0,1,2.082.9l.095-.741h2.412v8.206a3.606,3.606,0,0,1-.524,1.959,3.367,3.367,0,0,1-1.519,1.277,5.579,5.579,0,0,1-2.3.445,4.805,4.805,0,0,1-1.818-.355,3.282,3.282,0,0,1-1.344-.922l1.112-1.561a2.434,2.434,0,0,0,1.955.875,1.582,1.582,0,0,0,1.766-1.813v-.268a2.494,2.494,0,0,1-1.932.844,3.083,3.083,0,0,1-2.522-1.195,4.946,4.946,0,0,1-.962-3.2Zm2.665.166a3.035,3.035,0,0,0,.394,1.659,1.245,1.245,0,0,0,1.1.611,1.412,1.412,0,0,0,1.254-.576v-3.586a1.376,1.376,0,0,0-1.237-.583,1.252,1.252,0,0,0-1.112.635A3.463,3.463,0,0,0,4518.324-353.655Z" transform="translate(-4435.559 361.515)" fill="#12263f"/>
        <path id="Path_174125" data-name="Path 174125" d="M4531.7-358.022l.086,1a2.93,2.93,0,0,1,2.436-1.159,2.16,2.16,0,0,1,2.184,1.285,2.839,2.839,0,0,1,2.507-1.285q2.594,0,2.665,3.137v5.55h-2.665v-5.384a1.629,1.629,0,0,0-.221-.954.938.938,0,0,0-.8-.3,1.258,1.258,0,0,0-1.174.7l.007.11v5.826h-2.664v-5.369a1.707,1.707,0,0,0-.213-.969.937.937,0,0,0-.812-.3,1.274,1.274,0,0,0-1.167.7v5.936h-2.657v-8.53Z" transform="translate(-4439.164 361.515)" fill="#12263f"/>
        <path id="Path_174126" data-name="Path 174126" d="M4553.23-349.492a2.994,2.994,0,0,1-.252-.765,2.471,2.471,0,0,1-2.05.922,3.022,3.022,0,0,1-2.049-.729,2.318,2.318,0,0,1-.844-1.833,2.384,2.384,0,0,1,1.025-2.1,5.215,5.215,0,0,1,2.979-.71h.82v-.451q0-1.18-1.017-1.181a.831.831,0,0,0-.946.935h-2.658a2.379,2.379,0,0,1,1.053-2.007,4.416,4.416,0,0,1,2.684-.772,3.88,3.88,0,0,1,2.579.8,2.768,2.768,0,0,1,.97,2.183v3.777a3.866,3.866,0,0,0,.362,1.8v.134Zm-1.663-1.735a1.479,1.479,0,0,0,.824-.213,1.331,1.331,0,0,0,.469-.481v-1.364h-.772q-1.388,0-1.388,1.245a.759.759,0,0,0,.244.587A.885.885,0,0,0,4551.567-351.227Z" transform="translate(-4444.175 361.515)" fill="#12263f"/>
      </g>
      <g id="Group_116073" data-name="Group 116073" transform="translate(4319.913 -270.983)">
        <path id="Path_174127" data-name="Path 174127" d="M4327.5-229.558v-7.3h2.207a2.342,2.342,0,0,1,1.856.851,3.235,3.235,0,0,1,.732,2.19v1.229a3.226,3.226,0,0,1-.732,2.187,2.347,2.347,0,0,1-1.856.848Zm1.429-6.165v5.027h.7a1.024,1.024,0,0,0,.92-.52,2.581,2.581,0,0,0,.324-1.379v-1.24a2.552,2.552,0,0,0-.324-1.371,1.025,1.025,0,0,0-.92-.517Z" transform="translate(-4327.496 237.489)" fill="#12263f"/>
        <path id="Path_174128" data-name="Path 174128" d="M4337.311-228.808a2.073,2.073,0,0,1-1.625-.672,2.447,2.447,0,0,1-.6-1.7v-.762a2.8,2.8,0,0,1,.56-1.8,1.866,1.866,0,0,1,1.547-.7,1.8,1.8,0,0,1,1.475.637,2.665,2.665,0,0,1,.521,1.736v.873H4336.5v.02a1.492,1.492,0,0,0,.244.883.835.835,0,0,0,.735.346,1.963,1.963,0,0,0,.652-.09,3.5,3.5,0,0,0,.6-.3l.361.908a2.158,2.158,0,0,1-.75.447A2.927,2.927,0,0,1,4337.311-228.808Zm-.12-4.5a.53.53,0,0,0-.5.313,2.038,2.038,0,0,0-.181.841h1.28v-.2a1.445,1.445,0,0,0-.141-.7A.484.484,0,0,0,4337.191-233.3Z" transform="translate(-4329.515 236.845)" fill="#12263f"/>
        <path id="Path_174129" data-name="Path 174129" d="M4341.815-229.785v-4.394h-.668v-1.033h.668v-.352a2.15,2.15,0,0,1,.561-1.6,2.16,2.16,0,0,1,1.585-.556,3.254,3.254,0,0,1,.7.075,7.364,7.364,0,0,1,.77.221l-.2,1.164c-.217-.073-.41-.131-.58-.17a2.57,2.57,0,0,0-.595-.061.763.763,0,0,0-.607.236,1.02,1.02,0,0,0-.205.687v.352h.868v1.033h-.868v4.394Zm4.264,0h-1.43v-5.428h1.43Z" transform="translate(-4331.129 237.716)" fill="#12263f"/>
        <path id="Path_174130" data-name="Path 174130" d="M4350.516-234.341l.061.747a1.806,1.806,0,0,1,.554-.625,1.264,1.264,0,0,1,.725-.223,1.255,1.255,0,0,1,1.065.522,2.758,2.758,0,0,1,.39,1.64v3.366h-1.43v-3.37a1.471,1.471,0,0,0-.157-.791.558.558,0,0,0-.49-.228.653.653,0,0,0-.352.1.863.863,0,0,0-.271.276v4.013h-1.424v-5.428Z" transform="translate(-4333.269 236.845)" fill="#12263f"/>
        <path id="Path_174131" data-name="Path 174131" d="M4357.537-236.484h-1.425v-1.089h1.425Zm0,6.737h-1.425v-5.428h1.425Z" transform="translate(-4335.112 237.678)" fill="#12263f"/>
        <path id="Path_174132" data-name="Path 174132" d="M4361.969-233.042l-.537-.015a.609.609,0,0,0-.374.11.7.7,0,0,0-.228.311v3.722h-1.425v-5.428h1.33l.055.727.025.01a1.487,1.487,0,0,1,.363-.615.769.769,0,0,1,.544-.223,1.281,1.281,0,0,1,.2.018,1.444,1.444,0,0,1,.188.043Z" transform="translate(-4335.988 236.845)" fill="#12263f"/>
      </g>
      <g id="Group_116074" data-name="Group 116074" transform="translate(4369.915 -270.878)">
        <path id="Path_174133" data-name="Path 174133" d="M4397.48-236.862l1.311,5.363h.03l1.324-5.363h1.86v7.3h-1.419v-2.122l.121-2.839-.03-.005-1.4,4.966h-.948l-1.379-4.927-.03.005.125,2.8v2.122h-1.42v-7.3Z" transform="translate(-4395.63 237.384)" fill="#12263f"/>
        <path id="Path_174134" data-name="Path 174134" d="M4407.735-228.808a2.072,2.072,0,0,1-1.625-.672,2.445,2.445,0,0,1-.6-1.7v-.762a2.8,2.8,0,0,1,.56-1.8,1.867,1.867,0,0,1,1.547-.7,1.8,1.8,0,0,1,1.476.637,2.667,2.667,0,0,1,.521,1.736v.873h-2.685v.02a1.5,1.5,0,0,0,.244.883.837.837,0,0,0,.734.346,1.963,1.963,0,0,0,.653-.09,3.48,3.48,0,0,0,.6-.3l.361.908a2.163,2.163,0,0,1-.75.447A2.931,2.931,0,0,1,4407.735-228.808Zm-.121-4.5a.529.529,0,0,0-.5.313,2.038,2.038,0,0,0-.18.841h1.279v-.2a1.446,1.446,0,0,0-.14-.7A.484.484,0,0,0,4407.615-233.3Z" transform="translate(-4398.258 236.74)" fill="#12263f"/>
        <path id="Path_174135" data-name="Path 174135" d="M4411.817-232.431a3.949,3.949,0,0,1,.472-2.061,1.476,1.476,0,0,1,1.329-.783,1.1,1.1,0,0,1,.572.15,1.5,1.5,0,0,1,.457.432v-2.88h1.424v7.826h-1.238l-.1-.592a1.594,1.594,0,0,1-.489.519,1.155,1.155,0,0,1-.635.178,1.488,1.488,0,0,1-1.327-.735,3.575,3.575,0,0,1-.469-1.948Zm1.425.106a3.093,3.093,0,0,0,.167,1.138.585.585,0,0,0,.571.407.712.712,0,0,0,.386-.1.848.848,0,0,0,.281-.3v-2.476a1.017,1.017,0,0,0-.281-.352.605.605,0,0,0-.377-.126.6.6,0,0,0-.571.468,3.605,3.605,0,0,0-.175,1.237Z" transform="translate(-4399.938 237.573)" fill="#12263f"/>
        <path id="Path_174136" data-name="Path 174136" d="M4420.392-236.484h-1.424v-1.089h1.424Zm0,6.737h-1.424v-5.428h1.424Z" transform="translate(-4401.841 237.573)" fill="#12263f"/>
        <path id="Path_174137" data-name="Path 174137" d="M4424.827-233.042l-.538-.015a.606.606,0,0,0-.373.11.7.7,0,0,0-.228.311v3.722h-1.425v-5.428h1.329l.055.727.026.01a1.482,1.482,0,0,1,.363-.615.768.768,0,0,1,.544-.223,1.264,1.264,0,0,1,.2.018,1.365,1.365,0,0,1,.188.043Z" transform="translate(-4402.717 236.74)" fill="#12263f"/>
      </g>
      <g id="Group_116075" data-name="Group 116075" transform="translate(4417.338 -270.878)">
        <path id="Path_174138" data-name="Path 174138" d="M4464.007-231.118h-1.926l-.392,1.56h-1.439l2.058-7.3h1.484l2.052,7.3h-1.44Zm-1.635-1.138h1.344l-.657-2.584h-.03Z" transform="translate(-4460.25 237.384)" fill="#12263f"/>
        <path id="Path_174139" data-name="Path 174139" d="M4469.816-234.341l.061.747a1.807,1.807,0,0,1,.555-.625,1.264,1.264,0,0,1,.724-.223,1.255,1.255,0,0,1,1.065.522,2.758,2.758,0,0,1,.389,1.64v3.366h-1.429v-3.37a1.46,1.46,0,0,0-.158-.791.556.556,0,0,0-.49-.228.651.651,0,0,0-.351.1.847.847,0,0,0-.271.276v4.013h-1.425v-5.428Z" transform="translate(-4462.442 236.74)" fill="#12263f"/>
        <path id="Path_174140" data-name="Path 174140" d="M4477.9-228.914a2.517,2.517,0,0,1-.108-.3,2.489,2.489,0,0,1-.072-.326,1.7,1.7,0,0,1-.489.529,1.153,1.153,0,0,1-.669.2,1.391,1.391,0,0,1-1.077-.442,1.681,1.681,0,0,1-.4-1.179,1.545,1.545,0,0,1,.514-1.24,2.3,2.3,0,0,1,1.528-.441h.537v-.442a1.1,1.1,0,0,0-.144-.609.483.483,0,0,0-.43-.214.414.414,0,0,0-.36.171.856.856,0,0,0-.12.5l-1.38,0-.015-.031a1.487,1.487,0,0,1,.523-1.2,2.079,2.079,0,0,1,1.448-.5,1.94,1.94,0,0,1,1.377.494,1.831,1.831,0,0,1,.529,1.408v2.2a4.724,4.724,0,0,0,.055.748,3.987,3.987,0,0,0,.171.682Zm-.928-.968a.732.732,0,0,0,.4-.115.866.866,0,0,0,.289-.3v-1h-.537a.518.518,0,0,0-.472.226,1.04,1.04,0,0,0-.146.572.726.726,0,0,0,.126.442A.4.4,0,0,0,4476.975-229.882Z" transform="translate(-4464.198 236.74)" fill="#12263f"/>
        <path id="Path_174141" data-name="Path 174141" d="M4483.29-229.747h-1.425v-7.826h1.425Z" transform="translate(-4466.002 237.573)" fill="#12263f"/>
        <path id="Path_174142" data-name="Path 174142" d="M4486.673-236.484h-1.424v-1.089h1.424Zm0,6.737h-1.424v-5.428h1.424Z" transform="translate(-4466.903 237.573)" fill="#12263f"/>
        <path id="Path_174143" data-name="Path 174143" d="M4489.995-230.015h2.122v1.138h-3.757v-.848l2.067-3.441h-2.007V-234.3h3.663v.828Z" transform="translate(-4467.73 236.703)" fill="#12263f"/>
        <path id="Path_174144" data-name="Path 174144" d="M4497.16-228.914a2.354,2.354,0,0,1-.108-.3,2.273,2.273,0,0,1-.073-.326,1.7,1.7,0,0,1-.489.529,1.154,1.154,0,0,1-.67.2,1.39,1.39,0,0,1-1.076-.442,1.681,1.681,0,0,1-.4-1.179,1.545,1.545,0,0,1,.514-1.24,2.294,2.294,0,0,1,1.528-.441h.536v-.442a1.091,1.091,0,0,0-.143-.609.483.483,0,0,0-.429-.214.412.412,0,0,0-.361.171.859.859,0,0,0-.121.5l-1.379,0-.015-.031a1.488,1.488,0,0,1,.523-1.2,2.078,2.078,0,0,1,1.448-.5,1.938,1.938,0,0,1,1.377.494,1.829,1.829,0,0,1,.529,1.408v2.2a4.843,4.843,0,0,0,.055.748,4.228,4.228,0,0,0,.171.682Zm-.928-.968a.731.731,0,0,0,.4-.115.856.856,0,0,0,.289-.3v-1h-.536a.521.521,0,0,0-.473.226,1.048,1.048,0,0,0-.145.572.725.725,0,0,0,.125.442A.4.4,0,0,0,4496.232-229.882Z" transform="translate(-4469.322 236.74)" fill="#12263f"/>
        <path id="Path_174145" data-name="Path 174145" d="M4503.6-233.042l-.536-.015a.611.611,0,0,0-.375.11.7.7,0,0,0-.228.311v3.722h-1.425v-5.428h1.33l.055.727.025.01a1.472,1.472,0,0,1,.363-.615.767.767,0,0,1,.544-.223,1.275,1.275,0,0,1,.2.018,1.408,1.408,0,0,1,.188.043Z" transform="translate(-4471.104 236.74)" fill="#12263f"/>
      </g>
      <g id="Group_116076" data-name="Group 116076" transform="translate(4470.869 -270.878)">
        <path id="Path_174146" data-name="Path 174146" d="M4535.043-236.862l1.31,5.363h.03l1.325-5.363h1.861v7.3h-1.42v-2.122l.121-2.839-.03-.005-1.394,4.966h-.948l-1.38-4.927-.03.005.125,2.8v2.122h-1.42v-7.3Z" transform="translate(-4533.192 237.384)" fill="#12263f"/>
        <path id="Path_174147" data-name="Path 174147" d="M4545.3-228.808a2.07,2.07,0,0,1-1.624-.672,2.448,2.448,0,0,1-.6-1.7v-.762a2.8,2.8,0,0,1,.56-1.8,1.868,1.868,0,0,1,1.547-.7,1.8,1.8,0,0,1,1.476.637,2.662,2.662,0,0,1,.521,1.736v.873h-2.684v.02a1.5,1.5,0,0,0,.244.883.838.838,0,0,0,.735.346,1.966,1.966,0,0,0,.652-.09,3.46,3.46,0,0,0,.6-.3l.361.908a2.165,2.165,0,0,1-.75.447A2.935,2.935,0,0,1,4545.3-228.808Zm-.12-4.5a.53.53,0,0,0-.5.313,2.015,2.015,0,0,0-.18.841h1.279v-.2a1.445,1.445,0,0,0-.141-.7A.482.482,0,0,0,4545.177-233.3Z" transform="translate(-4535.82 236.74)" fill="#12263f"/>
        <path id="Path_174148" data-name="Path 174148" d="M4550.859-235.175v5.594a2.243,2.243,0,0,1-.451,1.5,1.566,1.566,0,0,1-1.254.527,2.157,2.157,0,0,1-.322-.023c-.1-.015-.2-.037-.32-.067l.06-1.11a1.95,1.95,0,0,0,.2.045,1.2,1.2,0,0,0,.2.015.371.371,0,0,0,.339-.221,1.455,1.455,0,0,0,.118-.658v-5.6Zm-.03-1.309H4549.4v-1.089h1.424Z" transform="translate(-4537.269 237.573)" fill="#12263f"/>
        <path id="Path_174149" data-name="Path 174149" d="M4552.736-231.959a2.7,2.7,0,0,1,.579-1.788,2,2,0,0,1,1.624-.695,2,2,0,0,1,1.625.695,2.691,2.691,0,0,1,.582,1.788v.672a2.678,2.678,0,0,1-.582,1.791,2.006,2.006,0,0,1-1.62.688,2.015,2.015,0,0,1-1.629-.688,2.689,2.689,0,0,1-.579-1.791Zm1.42.67a2.27,2.27,0,0,0,.176.985.625.625,0,0,0,.612.357.617.617,0,0,0,.6-.36,2.232,2.232,0,0,0,.178-.982v-.673a2.242,2.242,0,0,0-.178-.978.62.62,0,0,0-.6-.364.618.618,0,0,0-.6.367,2.25,2.25,0,0,0-.179.975Z" transform="translate(-4538.393 236.74)" fill="#12263f"/>
        <path id="Path_174150" data-name="Path 174150" d="M4562.334-233.042l-.537-.015a.611.611,0,0,0-.374.11.71.71,0,0,0-.228.311v3.722h-1.424v-5.428h1.329l.056.727.024.01a1.489,1.489,0,0,1,.364-.615.765.765,0,0,1,.545-.223,1.267,1.267,0,0,1,.2.018,1.341,1.341,0,0,1,.188.043Z" transform="translate(-4540.265 236.74)" fill="#12263f"/>
        <path id="Path_174151" data-name="Path 174151" d="M4566.829-228.914a2.353,2.353,0,0,1-.108-.3,2.414,2.414,0,0,1-.073-.326,1.7,1.7,0,0,1-.489.529,1.153,1.153,0,0,1-.67.2,1.388,1.388,0,0,1-1.076-.442,1.677,1.677,0,0,1-.4-1.179,1.545,1.545,0,0,1,.514-1.24,2.3,2.3,0,0,1,1.528-.441h.536v-.442a1.1,1.1,0,0,0-.142-.609.483.483,0,0,0-.429-.214.412.412,0,0,0-.361.171.856.856,0,0,0-.12.5l-1.38,0-.015-.031a1.488,1.488,0,0,1,.523-1.2,2.078,2.078,0,0,1,1.448-.5,1.94,1.94,0,0,1,1.377.494,1.832,1.832,0,0,1,.529,1.408v2.2a4.843,4.843,0,0,0,.055.748,4.127,4.127,0,0,0,.17.682Zm-.928-.968a.732.732,0,0,0,.4-.115.855.855,0,0,0,.288-.3v-1h-.536a.519.519,0,0,0-.472.226,1.044,1.044,0,0,0-.146.572.725.725,0,0,0,.125.442A.4.4,0,0,0,4565.9-229.882Z" transform="translate(-4541.393 236.74)" fill="#12263f"/>
        <path id="Path_174152" data-name="Path 174152" d="M4573.264-233.042l-.537-.015a.611.611,0,0,0-.374.11.7.7,0,0,0-.228.311v3.722H4570.7v-5.428h1.33l.055.727.025.01a1.482,1.482,0,0,1,.363-.615.767.767,0,0,1,.544-.223,1.286,1.286,0,0,1,.2.018,1.444,1.444,0,0,1,.188.043Z" transform="translate(-4543.174 236.74)" fill="#12263f"/>
      </g>
      <g id="Group_116077" data-name="Group 116077" transform="translate(4516.635 -270.878)">
        <path id="Path_174153" data-name="Path 174153" d="M4600.315-231.949l.016.03a2.516,2.516,0,0,1-.573,1.816,2.257,2.257,0,0,1-1.716.612,2.412,2.412,0,0,1-1.811-.695,2.7,2.7,0,0,1-.677-1.969v-2.183a2.771,2.771,0,0,1,.655-1.969,2.286,2.286,0,0,1,1.753-.7,2.321,2.321,0,0,1,1.758.622,2.634,2.634,0,0,1,.614,1.841l-.015.03h-1.375a1.708,1.708,0,0,0-.2-1.037.9.9,0,0,0-.788-.318.836.836,0,0,0-.737.377,2.045,2.045,0,0,0-.256,1.14v2.194a1.959,1.959,0,0,0,.273,1.15.928.928,0,0,0,.8.376.807.807,0,0,0,.72-.3,1.779,1.779,0,0,0,.179-1.021Z" transform="translate(-4595.554 237.422)" fill="#12263f"/>
        <path id="Path_174154" data-name="Path 174154" d="M4602.882-231.959a2.7,2.7,0,0,1,.579-1.788,2,2,0,0,1,1.624-.695,2,2,0,0,1,1.625.695,2.694,2.694,0,0,1,.582,1.788v.672a2.68,2.68,0,0,1-.582,1.791,2.007,2.007,0,0,1-1.62.688,2.013,2.013,0,0,1-1.629-.688,2.689,2.689,0,0,1-.579-1.791Zm1.419.67a2.255,2.255,0,0,0,.176.985.624.624,0,0,0,.612.357.617.617,0,0,0,.6-.36,2.239,2.239,0,0,0,.178-.982v-.673a2.249,2.249,0,0,0-.178-.978.619.619,0,0,0-.6-.364.618.618,0,0,0-.6.367,2.235,2.235,0,0,0-.179.975Z" transform="translate(-4597.504 236.74)" fill="#12263f"/>
        <path id="Path_174155" data-name="Path 174155" d="M4611.211-234.341l.06.747a1.812,1.812,0,0,1,.555-.625,1.267,1.267,0,0,1,.725-.223,1.257,1.257,0,0,1,1.066.522,2.766,2.766,0,0,1,.389,1.64v3.366h-1.429v-3.37a1.465,1.465,0,0,0-.158-.791.556.556,0,0,0-.489-.228.653.653,0,0,0-.352.1.858.858,0,0,0-.271.276v4.013h-1.424v-5.428Z" transform="translate(-4599.367 236.74)" fill="#12263f"/>
        <path id="Path_174156" data-name="Path 174156" d="M4618.278-236.144v1.35h.753v1.033h-.753v2.724a.878.878,0,0,0,.1.474.3.3,0,0,0,.261.143,1.685,1.685,0,0,0,.22-.012,1.792,1.792,0,0,0,.2-.043l.11,1.083a2.777,2.777,0,0,1-.431.1,3.271,3.271,0,0,1-.466.03,1.309,1.309,0,0,1-1.051-.424,2.044,2.044,0,0,1-.364-1.347v-2.729h-.642v-1.033h.642v-1.35Z" transform="translate(-4601.052 237.193)" fill="#12263f"/>
        <path id="Path_174157" data-name="Path 174157" d="M4623.711-233.042l-.538-.015a.61.61,0,0,0-.374.11.711.711,0,0,0-.228.311v3.722h-1.425v-5.428h1.33l.055.727.025.01a1.5,1.5,0,0,1,.363-.615.768.768,0,0,1,.545-.223,1.268,1.268,0,0,1,.2.018,1.357,1.357,0,0,1,.188.043Z" transform="translate(-4602.365 236.74)" fill="#12263f"/>
        <path id="Path_174158" data-name="Path 174158" d="M4625.256-231.959a2.7,2.7,0,0,1,.579-1.788,2,2,0,0,1,1.623-.695,2.005,2.005,0,0,1,1.626.695,2.691,2.691,0,0,1,.582,1.788v.672a2.678,2.678,0,0,1-.582,1.791,2.007,2.007,0,0,1-1.62.688,2.014,2.014,0,0,1-1.629-.688,2.689,2.689,0,0,1-.579-1.791Zm1.419.67a2.269,2.269,0,0,0,.176.985.624.624,0,0,0,.612.357.617.617,0,0,0,.6-.36,2.239,2.239,0,0,0,.178-.982v-.673a2.249,2.249,0,0,0-.178-.978.62.62,0,0,0-.6-.364.617.617,0,0,0-.6.367,2.235,2.235,0,0,0-.179.975Z" transform="translate(-4603.458 236.74)" fill="#12263f"/>
        <path id="Path_174159" data-name="Path 174159" d="M4633.8-229.747h-1.424v-7.826h1.424Z" transform="translate(-4605.354 237.573)" fill="#12263f"/>
        <path id="Path_174160" data-name="Path 174160" d="M4638.254-228.914a2.608,2.608,0,0,1-.108-.3,2.491,2.491,0,0,1-.073-.326,1.691,1.691,0,0,1-.489.529,1.149,1.149,0,0,1-.669.2,1.392,1.392,0,0,1-1.077-.442,1.681,1.681,0,0,1-.4-1.179,1.545,1.545,0,0,1,.514-1.24,2.3,2.3,0,0,1,1.528-.441h.537v-.442a1.1,1.1,0,0,0-.143-.609.482.482,0,0,0-.429-.214.414.414,0,0,0-.361.171.856.856,0,0,0-.12.5l-1.379,0-.016-.031a1.491,1.491,0,0,1,.524-1.2,2.077,2.077,0,0,1,1.447-.5,1.941,1.941,0,0,1,1.377.494,1.832,1.832,0,0,1,.529,1.408v2.2a4.778,4.778,0,0,0,.056.748,4.078,4.078,0,0,0,.17.682Zm-.927-.968a.729.729,0,0,0,.4-.115.853.853,0,0,0,.289-.3v-1h-.537a.52.52,0,0,0-.472.226,1.039,1.039,0,0,0-.145.572.729.729,0,0,0,.125.442A.4.4,0,0,0,4637.327-229.882Z" transform="translate(-4606.167 236.74)" fill="#12263f"/>
        <path id="Path_174161" data-name="Path 174161" d="M4644.69-233.042l-.537-.015a.611.611,0,0,0-.374.11.711.711,0,0,0-.229.311v3.722h-1.424v-5.428h1.329l.056.727.025.01a1.487,1.487,0,0,1,.363-.615.769.769,0,0,1,.545-.223,1.279,1.279,0,0,1,.2.018,1.357,1.357,0,0,1,.187.043Z" transform="translate(-4607.948 236.74)" fill="#12263f"/>
      </g>
      <g id="clipboard" transform="translate(4299 -355.132)">
        <g id="_ffffffff" data-name=" ffffffff">
          <path id="Trazado_174116" data-name="Trazado 174116" d="M4301.034-351.988a5.676,5.676,0,0,1,1.621-.373c25-.015,42.66.023,67.661-.018,0,.271,0,.545,0,.819-25.055-.045-42.774.006-67.832-.026a2.816,2.816,0,0,0-2.875,2.9c-.005,15.034-.006,33,0,48.04a3.193,3.193,0,0,0,3.25,2.878c2.043-.021,4.087.015,6.131-.021-.012.227-.02.455-.032.683-2.1,0-4.193.028-6.289-.013A3.622,3.622,0,0,1,4299-300.47c0-15.162,0-33.259,0-48.421a6.025,6.025,0,0,1,.234-1.391A3.937,3.937,0,0,1,4301.034-351.988Z" transform="translate(-4299 352.379)" fill="#12263f"/>
          <path id="Trazado_174117" data-name="Trazado 174117" d="M4564.75-352.379c25.554.039,43.769.045,69.324.017a6.449,6.449,0,0,1,3.222.492,3.235,3.235,0,0,1,1.757,2.8v48.606a3.346,3.346,0,0,1-2.131,3.005,7.3,7.3,0,0,1-3.038.361c-2.468-.007-4.935,0-7.4-.007-.012-.228-.021-.456-.026-.683,2.916.037,5.833,0,8.75.021a3.171,3.171,0,0,0,3.252-2.9c0-15.091-.006-33.118,0-48.211a2.915,2.915,0,0,0-1.585-2.44,2.845,2.845,0,0,0-1.682-.26c-25.927.024-44.515-.021-70.439.022Q4564.748-351.97,4564.75-352.379Z" transform="translate(-4369.722 352.379)" fill="#12263f"/>
          <path id="Trazado_174118" data-name="Trazado 174118" d="M4538.614-310.15c.634.887,1.274,1.77,1.976,2.6a2.47,2.47,0,0,1,.4.834h-.687c-.365-.524-.7-1.157-1.356-1.346.009,1.247-.058,2.5.047,3.741.09,6.711.011,13.425.037,20.138-.028,1.537.055,3.079-.031,4.611-.088.448-.558.227-.835.137.036-6.761.006-13.522.015-20.284.021-1.378-.048-2.756.042-4.13a26.589,26.589,0,0,0-.034-4.248l-.337.309-.067.062a6.555,6.555,0,0,0-.89.994l-.585.045c.024-.666.562-1.1.926-1.6C4537.708-308.894,4538.206-309.492,4538.614-310.15Z" transform="translate(-4362.153 341.141)" fill="#12263f"/>
          <path id="Trazado_174119" data-name="Trazado 174119" d="M4619.63-309.985a49.274,49.274,0,0,1,5.907,1.016,22.962,22.962,0,0,1,7.288,3.335c.961.514,1.618,1.466,2.616,1.916a10.575,10.575,0,0,1-.071-2.056c.086-.3.352-.148.563-.088a34.719,34.719,0,0,1,.374,3.92,19.889,19.889,0,0,0-3.284-.6,1.317,1.317,0,0,1-.688-.271c.112-.176.226-.352.346-.528a2.949,2.949,0,0,0,1.418.178l.339-.026c-.064-.1-.19-.31-.253-.413-.045-.062-.137-.184-.182-.245a22.988,22.988,0,0,0-9.954-4.821c-.917-.285-1.89-.161-2.813-.4-.69-.127-1.458.2-2.056-.29C4619.328-309.571,4619.478-309.777,4619.63-309.985Z" transform="translate(-4384.207 341.097)" fill="#12263f"/>
          <path id="Trazado_174120" data-name="Trazado 174120" d="M4353.622-307.849c.2-.22.664-.406.822-.046.017,1.311.264,2.607.219,3.922.045.049.135.142.177.189,1.374-.028,2.725.294,4.1.221.013.2.03.4.044.608a25.271,25.271,0,0,1-3.682-.2c-.879-.182-1.406.724-1.89,1.3-.03.065-.086.2-.116.262.072,0,.22-.006.293-.006a3.9,3.9,0,0,1,.576.251c.611.03,1.222,0,1.833-.015.242.1.487.179.737.256-.013.189-.024.38-.034.571-1.459-.037-2.906-.33-4.373-.262a16.73,16.73,0,0,0-1.783,1.727c-1.005,1.146-2.09,2.216-3.158,3.3a14.747,14.747,0,0,1,3.908,8.264,14.583,14.583,0,0,1-2.858,10.676,14.953,14.953,0,0,1-5.39,4.354,14.442,14.442,0,0,1-8.72,1.159,14.507,14.507,0,0,1-9.127-5.59,14.95,14.95,0,0,1-2.873-7.233c0-.977,0-1.954-.015-2.93a14.824,14.824,0,0,1,3.472-8.092,14.554,14.554,0,0,1,18.573-3,21.7,21.7,0,0,1,2.433,1.784,40.269,40.269,0,0,1,3.365-3.356c.613-.481,1.124-1.074,1.688-1.611a22.569,22.569,0,0,1-.238-2.313,4.832,4.832,0,0,1-.142-2.009l.477-.233a10.6,10.6,0,0,1,.3,2.629,1.594,1.594,0,0,1,.268.572c0,.073-.011.217-.014.288l.269-.082c.649-.335,1.4-.908,1.311-1.724.023-.815-.215-1.609-.205-2.425a2.679,2.679,0,0,0-.247-1.2m-26.5,12.521a13.506,13.506,0,0,0-3.817,7.577,13.72,13.72,0,0,0,2.114,9.649,13.781,13.781,0,0,0,6.946,5.382,13.706,13.706,0,0,0,17.436-8.467,13.711,13.711,0,0,0,.623-6.374,13.972,13.972,0,0,0-3.609-7.56c-1.059.855-1.917,1.923-2.906,2.858a9.661,9.661,0,0,1,2.44,8.25,9.678,9.678,0,0,1-6.313,7.448,9.521,9.521,0,0,1-6.5-.043,9.631,9.631,0,0,1-6.119-7.04,9.536,9.536,0,0,1,1.1-6.917,9.916,9.916,0,0,1,6.1-4.527,23.693,23.693,0,0,1,3.7-.161,11.151,11.151,0,0,1,4.987,2.341c.924-.98,1.913-1.9,2.821-2.891a13.7,13.7,0,0,0-9.177-3.556,13.437,13.437,0,0,0-9.829,4.03m5.993,1.707a8.737,8.737,0,0,0-4.857,6.142,8.811,8.811,0,0,0,.706,5.666,8.731,8.731,0,0,0,6.834,4.849,8.729,8.729,0,0,0,5.657-1.233,8.774,8.774,0,0,0,2.868-12.072,8.755,8.755,0,0,0-1.013-1.339c-1.014.883-1.907,1.893-2.872,2.829-.138.163-.429.356-.242.6a5.469,5.469,0,0,1,.74,2.12,4.173,4.173,0,0,1-2.646,4.135,4.084,4.084,0,0,1-4.575-1.1,4.033,4.033,0,0,1-1.031-3.057,4.128,4.128,0,0,1,4.456-3.809c.881-.043,1.59.638,2.382.794.973-.962,1.929-1.95,2.906-2.912.341-.406-.284-.655-.544-.867a8.8,8.8,0,0,0-8.767-.746m.449,7.734a3.145,3.145,0,0,0,1.246,2.7,3.283,3.283,0,0,0,4.658-.715,3.038,3.038,0,0,0-.077-3.722c-.978.717-1.7,1.724-2.625,2.5-.169-.2-.56-.346-.462-.668.716-.973,1.835-1.613,2.421-2.685a3.947,3.947,0,0,0-2.167-.545,3.187,3.187,0,0,0-2.994,3.131Z" transform="translate(-4305.205 340.595)" fill="#12263f"/>
          <path id="Trazado_174121" data-name="Trazado 174121" d="M4466.278-306.728c-.036-.35.355-.393.61-.324.245.135.142.443.176.671.012,1.41-.056,2.819.043,4.224.093,7.336-.034,14.675.063,22.009a1.266,1.266,0,0,0,.585-.713c.7-1.832,1.293-3.7,1.988-5.535.884,1.91,1.56,3.934,2.63,5.752a34.2,34.2,0,0,0,1.6-3.569c1.289-3.172,2.663-6.308,3.921-9.491,1.338,2.625,2.756,5.21,4.125,7.819.071.167.434.576.532.213,2.137-3.956,4.163-7.972,6.288-11.934a1.447,1.447,0,0,1,.691.344,6.11,6.11,0,0,1-.738,1.632c-2.154,4.091-4.287,8.2-6.432,12.293-.91-1.728-1.833-3.449-2.74-5.178a31.555,31.555,0,0,0-1.626-2.912c-1.982,4.4-3.743,8.906-5.614,13.356-.816-1.868-1.543-3.78-2.484-5.591a4,4,0,0,0-.614,1.141q-.886,2.564-1.83,5.1c-.555,1.357-.23,2.848-.308,4.269,6.706-.008,13.413.022,20.117-.015a1.053,1.053,0,0,1,0,.891c-7-.1-14.012-.021-21.016-.041.005-9.746-.017-19.492.011-29.236C4466.3-303.276,4466.247-305,4466.278-306.728Z" transform="translate(-4343.505 340.324)" fill="#12263f"/>
          <path id="Trazado_174122" data-name="Trazado 174122" d="M4422.5-306.341c1.8,1.746,3.517,3.571,5.328,5.305-1.426,1.342-2.77,2.77-4.177,4.129a4.75,4.75,0,0,0-.694.9q-12.152,12.166-24.319,24.319c-1.8-1.834-3.673-3.6-5.421-5.475q12.108-12.175,24.275-24.3a4.322,4.322,0,0,0,1-.795c1.317-1.378,2.732-2.661,4-4.082m.008,1.108q-.894.862-1.752,1.761c.494.561,1.1,1.027,1.542,1.632-.008.129-.029.389-.039.518-1.007.1-1.452-1-2.147-1.531-.576.584-1.164,1.159-1.732,1.75.52.535,1.042,1.066,1.559,1.607l-.165.426c-.606.346-.955-.529-1.385-.827a1.207,1.207,0,0,0-.792-.537c-.421.474-.9.9-1.329,1.355a.443.443,0,0,0-.094.668c.722.788,1.545,1.48,2.243,2.293-.014.109-.042.325-.055.434-.687.291-1.082-.6-1.492-1.011a1.79,1.79,0,0,1-.566-.55,6.3,6.3,0,0,1-.838-.781c-.8.291-1.229,1.091-1.875,1.6.21.79,1.024,1.166,1.486,1.791l-.091.427c-.911.071-1.175-1.241-2.058-1.366a6.838,6.838,0,0,0-1.785,1.712q.8.775,1.573,1.574c-.031.1-.1.3-.13.393-.107.036-.322.1-.429.139-.515-.528-1.043-1.038-1.548-1.573a11.765,11.765,0,0,0-1.45,1.364c-.19.183-.356.458-.172.713.632.8,1.449,1.43,2.121,2.194.312.233-.028.509-.141.749-.863-.773-1.653-1.621-2.47-2.441l-.455-.1c-.528.621-1.3,1.069-1.6,1.858a12.562,12.562,0,0,1,1.449,1.514c.058.366-.105.531-.487.49-.526-.429-.93-.986-1.465-1.4-.5-.1-.749.476-1.091.729-.262.346-.84.594-.737,1.1.423.545.991.956,1.419,1.5-.024.1-.075.3-.1.4-.547.238-.89-.355-1.235-.666-.308-.25-.55-.786-1.022-.627-.544.462-1.012,1-1.525,1.5l.1.441c.758.719,1.454,1.5,2.242,2.184,0,.15-.006.448-.009.6l-.447-.09c-.835-.717-1.537-1.578-2.361-2.3-.065-.021-.193-.06-.258-.079a8.812,8.812,0,0,0-1.657,1.805,9.975,9.975,0,0,0,1.384,1.443c-.015.24-.027.479-.043.723-.92-.124-1.218-1.223-2.067-1.475a7.773,7.773,0,0,0-1.784,1.739c.5.523,1.063,1,1.529,1.555.221.423-.207.462-.515.485-.491-.556-.941-1.256-1.683-1.482-.487.545-1.059,1.008-1.518,1.578-.006.082-.019.249-.027.331,1.208,1.291,2.5,2.505,3.736,3.771a.475.475,0,0,0,.769-.015q11.034-11.046,22.079-22.084a12.191,12.191,0,0,0,1.427-1.538l.013.013c1.391-1.383,2.781-2.765,4.158-4.163q-2.066-2.148-4.216-4.212Z" transform="translate(-4324.073 340.127)" fill="#12263f"/>
          <path id="Trazado_174123" data-name="Trazado 174123" d="M4552.722-300.606c.784.889,1.473,1.86,2.21,2.789a.818.818,0,0,1,.112.887c-.887.084-1.09-.969-1.726-1.372-.038,5.678-.008,11.355-.015,17.033a4.75,4.75,0,0,1-.166,1.862c-.218.46-.869.081-.75-.348-.02-6.234.021-12.469-.02-18.7a7,7,0,0,0-1.326,1.488l-.544.013c-.059-.217-.219-.456-.043-.66C4551.163-298.647,4552.01-299.575,4552.722-300.606Z" transform="translate(-4365.896 338.601)" fill="#12263f"/>
          <path id="Trazado_174124" data-name="Trazado 174124" d="M4566.944-300.42l.175-.007c.792.926,1.45,1.963,2.28,2.859-.045.127-.086.252-.128.38l-.688-.021c-.369-.431-.713-.881-1.042-1.34-.15,1.59-.086,3.189-.1,4.785-.006,5.244.007,10.489-.006,15.734a.482.482,0,0,1-.566.554,1.32,1.32,0,0,1-.373-.93c-.013-6.678.021-13.354-.014-20.03-.438.41-.771.91-1.191,1.334-.307.219-.834-.1-.654-.471a16.286,16.286,0,0,1,1.172-1.582A11.61,11.61,0,0,0,4566.944-300.42Z" transform="translate(-4369.683 338.553)" fill="#12263f"/>
          <path id="Trazado_174125" data-name="Trazado 174125" d="M4611.752-297.991a15.123,15.123,0,0,1,17.175,12.746,15.116,15.116,0,0,1-.928,7.854,15.211,15.211,0,0,1-5.695,6.989,15.127,15.127,0,0,1-20.958-4.3,15.127,15.127,0,0,1,4.3-20.957,15.134,15.134,0,0,1,6.11-2.337m.921.76a14.083,14.083,0,0,0-7.491,2.969,14.227,14.227,0,0,0-5.326,9.173,14.477,14.477,0,0,0,1.162,8.053,14.275,14.275,0,0,0,18.942,6.984,14.274,14.274,0,0,0,6.983-18.941,14.273,14.273,0,0,0-14.27-8.236Z" transform="translate(-4378.795 337.949)" fill="#12263f"/>
          <path id="Trazado_174126" data-name="Trazado 174126" d="M4612.907-293.8a12.157,12.157,0,0,1,14.113,9.417,12.115,12.115,0,0,1-2.58,10.337,12.117,12.117,0,0,1-16.889,1.667,12.217,12.217,0,0,1-4.548-8.839,12.185,12.185,0,0,1,9.9-12.583m-5.652,3.863a5.21,5.21,0,0,0-1.372,1.8c2.4,1.065,4.729,2.3,7.1,3.43.534.226,1.047.707,1.662.477.618-.183,1.3.187,1.879-.163,2.625-1.314,5.273-2.584,7.9-3.887a11.239,11.239,0,0,0-7.035-4.651,11.269,11.269,0,0,0-10.139,2.989m-1.941,2.434a6.177,6.177,0,0,0-.572,1.426c1.98.881,3.907,1.881,5.859,2.824a11.707,11.707,0,0,0,2.136.943,10.466,10.466,0,0,1,.606-1.328c-2.712-1.213-5.326-2.635-8.029-3.865m16.884,1.252c-1.759.9-3.567,1.7-5.315,2.622a4.022,4.022,0,0,1,.618,1.3c1.315-.483,2.526-1.213,3.8-1.793,1.4-.728,2.884-1.308,4.237-2.132-.186-.428-.376-.855-.56-1.284a25.22,25.22,0,0,0-2.781,1.286m1.389,1.959c-1.992.954-3.955,1.97-5.96,2.9-.25.716-.99,1.257-.867,2.077.021,2.872-.007,5.745.014,8.616a11.291,11.291,0,0,0,9.391-8.741,12.209,12.209,0,0,0-.243-5.906,18.151,18.151,0,0,0-2.335,1.059m-19.225-1.022a11.615,11.615,0,0,0,.805,8.746,11.258,11.258,0,0,0,8.344,5.863c.011-3.1.022-6.207,0-9.312-.479-.428-.533-1.226-1.177-1.457-2.671-1.245-5.271-2.65-7.968-3.84m10.377,1.937a1.57,1.57,0,0,0-1.12,1.918,1.57,1.57,0,0,0,1.917,1.12,1.571,1.571,0,0,0,1.169-1.6,1.57,1.57,0,0,0-1.967-1.435m-.279,3.894c-.15,1.172-.032,2.357-.068,3.534.049,1.794-.1,3.6.079,5.387.453-.007.91-.01,1.367,0a25.463,25.463,0,0,0,.056-2.59c-.034-2.109.069-4.222-.052-6.328a6.292,6.292,0,0,1-1.381,0Z" transform="translate(-4379.897 336.845)" fill="#12263f"/>
          <path id="Trazado_174127" data-name="Trazado 174127" d="M4543.539-288.668c.739-.964,1.473-1.937,2.243-2.878.732.96,1.483,1.905,2.211,2.865a.55.55,0,0,1-.011.777.548.548,0,0,1-.084.067c-.377.1-.569-.277-.771-.514a6.515,6.515,0,0,0-.934-1.093c-.048,6.2.015,12.414-.032,18.62,0,.5-.836.542-.838.022-.037-6.1,0-12.2-.021-18.3-.8.077-.858,1.3-1.669,1.267a.547.547,0,0,1-.158-.756A.58.58,0,0,1,4543.539-288.668Z" transform="translate(-4364.036 336.19)" fill="#12263f"/>
          <path id="Trazado_174128" data-name="Trazado 174128" d="M4557.627-282.5c.723-1.027,1.523-2,2.3-2.987.728.9,1.407,1.832,2.128,2.734.215.234.387.617.106.879l-.512.06a4.145,4.145,0,0,0-1.215-1.287,8.777,8.777,0,0,0-.1,1.935c0,4.613-.008,9.226,0,13.839a2.858,2.858,0,0,1-.093.9,1.128,1.128,0,0,1-.717.051c-.022-5.306,0-10.613-.01-15.918a9.125,9.125,0,0,0-.106-.978,15.922,15.922,0,0,0-1.2,1.378C4557.83-281.584,4557.276-282.149,4557.627-282.5Z" transform="translate(-4367.796 334.578)" fill="#12263f"/>
          <path id="Trazado_174129" data-name="Trazado 174129" d="M4529.335-281.982c.725-1,1.5-1.972,2.267-2.947.763.983,1.555,1.946,2.279,2.959.209.217.034.49-.036.728l-.471.03c-.423-.461-.69-1.2-1.388-1.286.005,3.548-.006,7.1.007,10.646-.026.258.069.614-.234.745-.227.272-.49-.121-.719-.185.015-3.752.023-7.5,0-11.255a4.931,4.931,0,0,0-1.177,1.318l-.462.007C4529.251-281.456,4529.109-281.745,4529.335-281.982Z" transform="translate(-4360.265 334.429)" fill="#12263f"/>
          <path id="Trazado_174130" data-name="Trazado 174130" d="M4376.445-280.892a1.748,1.748,0,0,1,.872.372,20.564,20.564,0,0,0,2.6,1.967,30.4,30.4,0,0,0-2.7,2.053,1.83,1.83,0,0,1-.759.286c0-.208,0-.418,0-.623a5.6,5.6,0,0,0,1.358-1.241c-2.147-.024-4.293.034-6.436-.03-.014-.217-.024-.432-.036-.647,2.2,0,4.4.011,6.6-.006-.106-.773-.974-1.025-1.49-1.488C4376.449-280.463,4376.447-280.678,4376.445-280.892Z" transform="translate(-4318.252 333.355)" fill="#12263f"/>
          <path id="Trazado_174131" data-name="Trazado 174131" d="M4445.816-280.907a2.356,2.356,0,0,1,.953.488c.764.655,1.609,1.209,2.349,1.894-1.125.735-2.01,1.869-3.3,2.324,0-.23,0-.459.013-.687a4.608,4.608,0,0,0,1.321-1.194c-2.124-.011-4.25.01-6.374-.01-.012-.228-.021-.454-.03-.679q3.283.033,6.572,0c-.222-.707-.933-1.041-1.492-1.445Q4445.822-280.563,4445.816-280.907Z" transform="translate(-4336.723 333.359)" fill="#12263f"/>
          <path id="Trazado_174132" data-name="Trazado 174132" d="M4515.182-280.92a3.32,3.32,0,0,1,1.039.6c.73.618,1.537,1.136,2.248,1.776-1.12.747-2.018,1.857-3.289,2.347,0-.238,0-.473,0-.71a4.268,4.268,0,0,0,1.314-1.176c-2.118-.015-4.238.007-6.357-.009q-.02-.342-.033-.681c2.193.012,4.389.041,6.582-.015a4.017,4.017,0,0,0-1.505-1.42C4515.18-280.447,4515.18-280.684,4515.182-280.92Z" transform="translate(-4355.18 333.362)" fill="#12263f"/>
          <path id="Trazado_174133" data-name="Trazado 174133" d="M4584.307-280.434a.676.676,0,0,1,.589-.41c.922.837,1.99,1.5,2.929,2.321-.973.741-1.949,1.48-2.9,2.248l-.445.043c-.022-.167-.157-.357-.019-.509.4-.5,1.05-.73,1.349-1.32-2.1-.018-4.207.006-6.309-.011-.013-.228-.024-.456-.032-.683,2.186.023,4.373.03,6.561,0C4585.685-279.519,4584.842-279.833,4584.307-280.434Z" transform="translate(-4373.638 333.342)" fill="#12263f"/>
        </g>
        <g id="_2b3b3aff" data-name=" 2b3b3aff" transform="translate(175.633 33.356)">
          <path id="Trazado_174134" data-name="Trazado 174134" d="M4538.322-306.865l.067-.062C4538.373-306.912,4538.339-306.88,4538.322-306.865Z" transform="translate(-4538.322 306.927)" fill="#2b3b3a"/>
        </g>
        <g id="_659ca3ff" data-name=" 659ca3ff" transform="translate(12.242 35.42)">
          <path id="Trazado_174135" data-name="Trazado 174135" d="M4325.244-301.269a20.327,20.327,0,0,1,8.431-2.732,17.19,17.19,0,0,1,4.24.206,24.827,24.827,0,0,1,5.608,1.689,19.991,19.991,0,0,1,4.868,3.447,40.333,40.333,0,0,0-3.365,3.356,21.7,21.7,0,0,0-2.433-1.784,14.554,14.554,0,0,0-18.574,3,14.833,14.833,0,0,0-3.471,8.092,7.173,7.173,0,0,0,.016,2.93,14.945,14.945,0,0,0,2.872,7.233,14.508,14.508,0,0,0,9.127,5.59,14.443,14.443,0,0,0,8.721-1.159,14.956,14.956,0,0,0,5.39-4.354,14.585,14.585,0,0,0,2.857-10.677,14.746,14.746,0,0,0-3.908-8.264c1.067-1.085,2.152-2.155,3.157-3.3a2.049,2.049,0,0,1,.692.39,17.566,17.566,0,0,1,2.934,4.354,16.385,16.385,0,0,1,1.988,7.016,8.082,8.082,0,0,1,.183,1.78,21.676,21.676,0,0,1-1.226,6.415,17.382,17.382,0,0,1-2.633,4.845,14.174,14.174,0,0,1-3.127,3.413,19.049,19.049,0,0,1-8.073,4.063,17,17,0,0,1-7.538.238,19.077,19.077,0,0,1-13.049-8.483,19.479,19.479,0,0,1-3.111-8.051,19.832,19.832,0,0,1,.452-7.282,17.56,17.56,0,0,1,2.569-5.844,27.114,27.114,0,0,1,2.231-2.842,21.479,21.479,0,0,1,1.679-1.5A12.569,12.569,0,0,1,4325.244-301.269Z" transform="translate(-4315.681 304.093)" fill="#98f2f9"/>
          <path id="Trazado_174136" data-name="Trazado 174136" d="M4467.875-303.095c2.661-.732,5.455-1.362,8.217-.81a20.715,20.715,0,0,1,3.482.82,18.185,18.185,0,0,1,7.032,4.03,16.817,16.817,0,0,1,4.155,5.222,24.088,24.088,0,0,1,1.372,3.063,18.821,18.821,0,0,1,1.045,5.23,20.855,20.855,0,0,1-.325,4.432,20.526,20.526,0,0,1-1.667,4.97,20.549,20.549,0,0,1-4.039,5.547,19,19,0,0,1-9.646,4.971,19.87,19.87,0,0,1-3.833.466,23.474,23.474,0,0,1-7.345-1.484,21.919,21.919,0,0,1-5.589-3.57c-.554-.625-1.187-1.173-1.747-1.791a21.977,21.977,0,0,1-2.953-4.747,24.931,24.931,0,0,1-1.357-4.259,17.206,17.206,0,0,1-.265-1.963,8.147,8.147,0,0,1,.009-3.316A16.383,16.383,0,0,1,4456.3-293a18.765,18.765,0,0,1,4.458-6.037,12.965,12.965,0,0,1,2.3-1.722c-.028,9.744,0,19.49-.011,29.236v.164c5.915-.013,11.828,0,17.742-.005a18.283,18.283,0,0,0,3.275-.118,1.06,1.06,0,0,0,0-.891c-6.705.037-13.412.007-20.118.015.077-1.421-.247-2.912.308-4.269q.949-2.54,1.83-5.1a4.012,4.012,0,0,1,.614-1.141c.942,1.811,1.667,3.724,2.484,5.591,1.871-4.45,3.632-8.953,5.614-13.356a31.555,31.555,0,0,1,1.626,2.912c.908,1.729,1.83,3.451,2.74,5.178,2.145-4.1,4.277-8.2,6.432-12.293a6.11,6.11,0,0,0,.738-1.632,1.443,1.443,0,0,0-.691-.344c-2.125,3.962-4.15,7.978-6.288,11.934-.1.363-.461-.046-.532-.213-1.367-2.609-2.786-5.194-4.125-7.819-1.257,3.183-2.631,6.319-3.92,9.491a34.307,34.307,0,0,1-1.6,3.569c-1.07-1.819-1.746-3.842-2.629-5.753-.7,1.834-1.293,3.7-1.989,5.536a1.267,1.267,0,0,1-.584.713c-.1-7.334.03-14.673-.063-22.009A20.217,20.217,0,0,1,4467.875-303.095Z" transform="translate(-4352.557 304.115)" fill="#98f2f9"/>
          <path id="Trazado_174137" data-name="Trazado 174137" d="M4611.73-304.027a10.073,10.073,0,0,1,2.566.09,18.371,18.371,0,0,1,3.334.634,19.678,19.678,0,0,1,13.921,15.291,18.219,18.219,0,0,1-1.194,10.818,19.45,19.45,0,0,1-7.23,8.715,17.963,17.963,0,0,1-7.347,2.957,18,18,0,0,1-11.052-1.321,19.691,19.691,0,0,1-11.277-13.991,20.727,20.727,0,0,1-.291-6.239,29.083,29.083,0,0,1,1.123-4.263,19.748,19.748,0,0,1,14.315-12.286,14.9,14.9,0,0,1,3.131-.406m-1.516,4.454a15.126,15.126,0,0,0-12.736,17.187,15.126,15.126,0,0,0,17.187,12.736,15.128,15.128,0,0,0,6.1-2.334,15.21,15.21,0,0,0,5.694-6.989,15.12,15.12,0,0,0-8.385-19.671,15.121,15.121,0,0,0-7.862-.929Z" transform="translate(-4389.5 304.112)" fill="#98f2f9"/>
          <path id="Trazado_174138" data-name="Trazado 174138" d="M4327.421-292.16a13.435,13.435,0,0,1,9.828-4.03,13.7,13.7,0,0,1,9.177,3.556c-.909.991-1.9,1.91-2.822,2.891a11.148,11.148,0,0,0-4.987-2.341,6.763,6.763,0,0,0-3.7.161,9.915,9.915,0,0,0-6.095,4.527,9.532,9.532,0,0,0-1.1,6.917,9.629,9.629,0,0,0,6.119,7.04,9.523,9.523,0,0,0,6.5.043,9.677,9.677,0,0,0,6.313-7.448,9.661,9.661,0,0,0-2.44-8.25c.989-.934,1.848-2,2.907-2.858a13.975,13.975,0,0,1,3.608,7.56,13.7,13.7,0,0,1-11.679,15.465,13.7,13.7,0,0,1-6.38-.624,13.78,13.78,0,0,1-6.947-5.382,13.72,13.72,0,0,1-2.114-9.649A13.507,13.507,0,0,1,4327.421-292.16Z" transform="translate(-4317.747 302.008)" fill="#98f2f9"/>
          <path id="Trazado_174139" data-name="Trazado 174139" d="M4608.306-289.627a11.268,11.268,0,0,1,10.139-2.989,11.237,11.237,0,0,1,7.035,4.651c-2.631,1.3-5.279,2.573-7.9,3.887-.582.35-1.262-.021-1.879.163-.615.23-1.128-.251-1.662-.477-2.372-1.134-4.7-2.365-7.1-3.43A5.2,5.2,0,0,1,4608.306-289.627Z" transform="translate(-4393.189 301.115)" fill="#98f2f9"/>
          <path id="Trazado_174140" data-name="Trazado 174140" d="M4335.2-288.673a8.8,8.8,0,0,1,8.767.746c.261.211.885.461.544.867-.977.962-1.933,1.95-2.906,2.912-.791-.156-1.5-.837-2.382-.794a4.128,4.128,0,0,0-4.455,3.809,4.03,4.03,0,0,0,1.031,3.057,4.083,4.083,0,0,0,4.575,1.1,4.173,4.173,0,0,0,2.646-4.135,5.477,5.477,0,0,0-.739-2.12c-.187-.241.1-.434.242-.6.965-.936,1.858-1.946,2.872-2.829a8.772,8.772,0,0,1-.516,12.4,8.824,8.824,0,0,1-1.339,1.013,8.729,8.729,0,0,1-5.657,1.233,8.732,8.732,0,0,1-6.834-4.849,8.811,8.811,0,0,1-.706-5.666A8.734,8.734,0,0,1,4335.2-288.673Z" transform="translate(-4319.535 300.227)" fill="#98f2f9"/>
          <path id="Trazado_174141" data-name="Trazado 174141" d="M4337.638-278.973a3.188,3.188,0,0,1,2.995-3.131,3.944,3.944,0,0,1,2.166.545c-.585,1.072-1.7,1.712-2.42,2.685-.1.322.293.47.462.668.926-.78,1.646-1.787,2.625-2.5a3.038,3.038,0,0,1,.077,3.722,3.283,3.283,0,0,1-4.658.715A3.147,3.147,0,0,1,4337.638-278.973Z" transform="translate(-4321.522 298.261)" fill="#98f2f9"/>
          <path id="Trazado_174142" data-name="Trazado 174142" d="M4628.576-281.151a18.117,18.117,0,0,1,2.335-1.059,12.221,12.221,0,0,1,.243,5.906,11.291,11.291,0,0,1-9.391,8.741c-.022-2.871.006-5.743-.015-8.616-.124-.82.617-1.361.867-2.077C4624.621-279.181,4626.584-280.2,4628.576-281.151Z" transform="translate(-4397.128 298.285)" fill="#98f2f9"/>
          <path id="Trazado_174143" data-name="Trazado 174143" d="M4604.679-282.159c2.7,1.19,5.3,2.6,7.968,3.84.644.232.7,1.03,1.178,1.457.026,3.105.014,6.208,0,9.312a11.257,11.257,0,0,1-8.344-5.863A11.618,11.618,0,0,1,4604.679-282.159Z" transform="translate(-4392.457 298.272)" fill="#98f2f9"/>
          <path id="Trazado_174144" data-name="Trazado 174144" d="M4618.591-274.214a6.292,6.292,0,0,0,1.381,0c.122,2.106.018,4.218.052,6.327a25.464,25.464,0,0,1-.056,2.59c-.457-.006-.914,0-1.367,0-.181-1.787-.029-3.593-.079-5.387C4618.559-271.858,4618.441-273.042,4618.591-274.214Z" transform="translate(-4396.27 296.158)" fill="#98f2f9"/>
        </g>
        <g id="_037077ff" data-name=" 037077ff" transform="translate(62.948 35.399)">
          <path id="Trazado_174145" data-name="Trazado 174145" d="M4390.936-298.884a18.908,18.908,0,0,1,13.53-5.238,18.165,18.165,0,0,1,8.951,2.108,8.857,8.857,0,0,0,1.976,1l-.148.138q-12.146,12.141-24.275,24.3c1.749,1.879,3.625,3.641,5.421,5.475q12.183-12.135,24.319-24.319l.153-.161c.057.243.112.488.173.733a19.718,19.718,0,0,1,2.951,10.218,30.336,30.336,0,0,1-.47,4.244,20.091,20.091,0,0,1-3.917,8.066,19.438,19.438,0,0,1-9.625,6.484,23.859,23.859,0,0,1-5.514.873,20.5,20.5,0,0,1-8.747-2.1,19.579,19.579,0,0,1-9.342-9.784A19.673,19.673,0,0,1,4385-287.441,19.5,19.5,0,0,1,4390.936-298.884Z" transform="translate(-4384.774 304.143)" fill="#ffe9ac"/>
          <path id="Trazado_174146" data-name="Trazado 174146" d="M4535.6-302.716a19.464,19.464,0,0,1,7.038-1.408,19.011,19.011,0,0,1,9.8,2.358c.9.412,1.626,1.118,2.535,1.51l-.092.116a16.461,16.461,0,0,0-1.172,1.582c-.18.368.348.691.655.471.419-.424.752-.924,1.19-1.334.035,6.675,0,13.352.014,20.03a1.322,1.322,0,0,0,.373.93.482.482,0,0,0,.566-.554c.013-5.245,0-10.491.006-15.734.01-1.6-.054-3.195.1-4.785.329.459.674.909,1.042,1.34a4.027,4.027,0,0,0,.369,1.016,18.929,18.929,0,0,1,4.533,12.533,13.826,13.826,0,0,1-.281,3.558,19.6,19.6,0,0,1-9.087,13.2,20.46,20.46,0,0,1-5.136,2.182,17.949,17.949,0,0,1-3.926.6c-.936-.017-1.87.023-2.8-.021a19.543,19.543,0,0,1-9.786-3.731,19.482,19.482,0,0,1-7.828-13.147,19.3,19.3,0,0,1,2.049-11.62,19.46,19.46,0,0,1,8.088-8.219,2.2,2.2,0,0,1,.978-.393c-.089,1.374-.021,2.753-.041,4.13-.009,6.761.021,13.522-.015,20.284.277.09.746.311.834-.137.086-1.532,0-3.074.032-4.611-.026-6.713.053-13.427-.037-20.138m9.981,1.171c-.711,1.031-1.559,1.959-2.269,2.991-.175.2-.015.443.043.66l.544-.013a7.014,7.014,0,0,1,1.327-1.488c.04,6.231,0,12.467.02,18.7-.118.429.533.808.75.348a4.75,4.75,0,0,0,.167-1.862c.007-5.678-.023-11.355.015-17.033.636.4.839,1.456,1.726,1.372a.818.818,0,0,0-.112-.887c-.738-.928-1.427-1.9-2.21-2.789m-7.323,9.527a.546.546,0,0,0,.013.772.557.557,0,0,0,.081.065c.811.037.865-1.19,1.669-1.267.019,6.1-.017,12.2.021,18.3,0,.52.837.476.838-.022.047-6.206-.017-12.415.032-18.62a6.515,6.515,0,0,1,.934,1.093c.2.238.393.612.771.514a.548.548,0,0,0,.162-.76.528.528,0,0,0-.066-.084c-.728-.96-1.479-1.905-2.211-2.865-.77.942-1.5,1.915-2.243,2.878m10.328,4.553c-.351.354.2.919.59.606a15.76,15.76,0,0,1,1.2-1.378,9.252,9.252,0,0,1,.106.978c.008,5.305-.013,10.612.009,15.918a1.129,1.129,0,0,0,.717-.051,2.873,2.873,0,0,0,.093-.9c-.013-4.613,0-9.226-.005-13.839a8.747,8.747,0,0,1,.1-1.935,4.157,4.157,0,0,1,1.214,1.287l.512-.06c.281-.262.108-.645-.106-.879-.721-.9-1.4-1.838-2.128-2.734-.774.988-1.575,1.959-2.3,2.987m-20.761.372c-.227.236-.084.526.062.76l.462-.007a4.931,4.931,0,0,1,1.177-1.318c.027,3.751.019,7.5,0,11.255.229.064.492.456.719.185.3-.131.208-.487.234-.745-.013-3.548,0-7.1-.007-10.646.7.084.965.825,1.388,1.286l.471-.03c.07-.238.245-.511.036-.728-.724-1.013-1.517-1.976-2.28-2.959-.763.975-1.542,1.943-2.266,2.947Z" transform="translate(-4421.703 304.141)" fill="#ffe9ac"/>
          <path id="Trazado_174147" data-name="Trazado 174147" d="M4416.748-296.936c.434-.459.908-.881,1.329-1.355a1.208,1.208,0,0,1,.792.537c.43.3.778,1.173,1.385.827l.165-.426c1.121.6,1.714,1.776,2.614,2.626a12.159,12.159,0,0,1-1.428,1.538q-11.038,11.042-22.078,22.084a.475.475,0,0,1-.77.015c-1.237-1.265-2.528-2.48-3.735-3.771.008-.082.021-.249.027-.331.458-.57,1.031-1.033,1.518-1.578.741.227,1.191.926,1.682,1.482.309-.023.735-.062.515-.485-.467-.559-1.024-1.033-1.53-1.555a7.775,7.775,0,0,1,1.784-1.739c.849.253,1.147,1.351,2.067,1.475.016-.244.028-.483.043-.723a10,10,0,0,1-1.385-1.443,8.829,8.829,0,0,1,1.658-1.805c.065.018.193.058.258.079.824.726,1.525,1.587,2.361,2.3l.447.09c0-.148.007-.445.009-.6-.788-.687-1.483-1.465-2.241-2.184l-.105-.441c.513-.5.981-1.041,1.525-1.5.472-.159.714.376,1.022.627.346.311.688.9,1.235.666.024-.1.075-.3.1-.4-.427-.545-1-.956-1.419-1.5-.1-.5.476-.752.738-1.1.342-.254.593-.832,1.091-.729.536.415.939.973,1.465,1.4.381.041.544-.124.486-.49a12.516,12.516,0,0,0-1.449-1.514c.3-.79,1.073-1.237,1.6-1.858l.455.1c.817.82,1.607,1.667,2.47,2.441.112-.24.453-.515.14-.749-.671-.764-1.488-1.4-2.12-2.194-.184-.255-.019-.53.172-.713a11.8,11.8,0,0,1,1.451-1.364c.5.535,1.033,1.046,1.548,1.573.106-.035.321-.1.428-.139.032-.1.1-.294.131-.393q-.775-.8-1.573-1.574a6.83,6.83,0,0,1,1.785-1.712c.883.125,1.147,1.438,2.058,1.366l.091-.427c-.462-.625-1.276-1-1.486-1.791.646-.507,1.078-1.308,1.875-1.6a6.27,6.27,0,0,0,.838.781,1.789,1.789,0,0,0,.566.55c.41.41.8,1.3,1.492,1.011.013-.109.041-.325.056-.434-.7-.812-1.521-1.5-2.244-2.293A.443.443,0,0,1,4416.748-296.936Z" transform="translate(-4387.501 302.586)" fill="#ffe9ac"/>
        </g>
        <g id="_4c5258ff" data-name=" 4c5258ff" transform="translate(249.821 37.49)">
          <path id="Trazado_174148" data-name="Trazado 174148" d="M4639.412-301.225l.158-.069c.063.1.189.31.253.413l-.34.026C4639.464-300.946,4639.429-301.132,4639.412-301.225Z" transform="translate(-4639.412 301.294)" fill="#4c5258"/>
        </g>
        <g id="_3c3d3fff" data-name=" 3c3d3fff" transform="translate(47.29 37.89)">
          <path id="Trazado_174149" data-name="Trazado 174149" d="M4363.453-300.749c.064.051.19.153.254.206l-.269.082C4363.441-300.532,4363.449-300.676,4363.453-300.749Z" transform="translate(-4363.438 300.749)" fill="#3c3d3f"/>
        </g>
        <g id="_505f67ff" data-name=" 505f67ff" transform="translate(48.092 38.736)">
          <path id="Trazado_174150" data-name="Trazado 174150" d="M4364.531-299.334c.03-.065.087-.2.117-.262l.159.082.02.174C4364.752-299.34,4364.6-299.336,4364.531-299.334Z" transform="translate(-4364.531 299.596)" fill="#505f67"/>
        </g>
        <g id="_659ba2ff" data-name=" 659ba2ff" transform="translate(220.927 40.658)">
          <path id="Trazado_174151" data-name="Trazado 174151" d="M4612.991-296.918a14.267,14.267,0,0,1,15.5,12.913,14.267,14.267,0,0,1-12.913,15.5,14.267,14.267,0,0,1-14.245-8.222,14.469,14.469,0,0,1-1.162-8.053,14.225,14.225,0,0,1,5.326-9.173,14.086,14.086,0,0,1,7.491-2.969m-.868,2.328a12.185,12.185,0,0,0-9.9,12.583,12.216,12.216,0,0,0,4.548,8.839,12.116,12.116,0,0,0,16.889-1.667,12.117,12.117,0,0,0,2.58-10.337A12.158,12.158,0,0,0,4612.123-294.59Z" transform="translate(-4600.041 296.977)" fill="#98f2f9"/>
          <path id="Trazado_174152" data-name="Trazado 174152" d="M4605.951-285.143c2.7,1.229,5.317,2.651,8.029,3.865a10.465,10.465,0,0,0-.606,1.328,11.7,11.7,0,0,1-2.136-.943c-1.952-.943-3.879-1.943-5.859-2.824A6.156,6.156,0,0,1,4605.951-285.143Z" transform="translate(-4601.461 293.828)" fill="#98f2f9"/>
          <path id="Trazado_174153" data-name="Trazado 174153" d="M4627.237-283.9a25.184,25.184,0,0,1,2.781-1.286c.183.429.374.856.56,1.284-1.354.823-2.833,1.4-4.237,2.132-1.274.58-2.485,1.31-3.8,1.793a4.032,4.032,0,0,0-.618-1.3C4623.67-282.2,4625.478-283,4627.237-283.9Z" transform="translate(-4605.864 293.84)" fill="#98f2f9"/>
          <path id="Trazado_174154" data-name="Trazado 174154" d="M4618.579-279.541a1.57,1.57,0,0,1,1.967,1.435,1.564,1.564,0,0,1-1.487,1.638,1.563,1.563,0,0,1-1.639-1.486A1.564,1.564,0,0,1,4618.579-279.541Z" transform="translate(-4604.665 292.352)" fill="#98f2f9"/>
        </g>
        <g id="_aab7afff" data-name=" aab7afff" transform="translate(29.412 45.158)">
          <path id="Trazado_174155" data-name="Trazado 174155" d="M4339.078-290.5a6.763,6.763,0,0,1,3.7-.161A23.693,23.693,0,0,0,4339.078-290.5Z" transform="translate(-4339.078 290.846)" fill="#aab7af"/>
        </g>
        <g id="_abb5aeff" data-name=" abb5aeff" transform="translate(16.966 53.522)">
          <path id="Trazado_174156" data-name="Trazado 174156" d="M4322.277-276.519a7.164,7.164,0,0,1-.016-2.93C4322.279-278.472,4322.281-277.5,4322.277-276.519Z" transform="translate(-4322.118 279.449)" fill="#abb5ae"/>
        </g>
        <g id="_000207ff" data-name=" 000207ff" transform="translate(211.625 55.5)">
          <path id="Trazado_174157" data-name="Trazado 174157" d="M4587.365-276.754" transform="translate(-4587.365 276.754)" fill="#000207"/>
        </g>
        <g id="_97b4a2ff" data-name=" 97b4a2ff" transform="translate(122.736 67.999)">
          <path id="Trazado_174158" data-name="Trazado 174158" d="M4466.242-259.711c7,.021,14.012-.06,21.017.041a18.28,18.28,0,0,1-3.275.118c-5.914,0-11.828-.007-17.742.005Z" transform="translate(-4466.242 259.722)" fill="#97b4a2"/>
        </g>
      </g>
    </g>
  </g>
</svg>
