<svg xmlns="http://www.w3.org/2000/svg" width="400" height="360" viewBox="0 0 400 360">
  <g id="t4-i7" transform="translate(-600 -2078)">
    <rect id="Rectangle_36899" data-name="Rectangle 36899" width="400" height="360" transform="translate(600 2078)" fill="#fff"/>
    <g id="Group_112179" data-name="Group 112179" transform="translate(-2319.812 2600.33)">
      <g id="Group_112177" data-name="Group 112177" transform="translate(2959.812 -502.33)">
        <path id="Path_172199" data-name="Path 172199" d="M3125.179-276.094c-2.02.144-4.04.179-6.059.179a102.262,102.262,0,0,1-100.693-84.5l-33.937-10.532-22.072,25.354a160.025,160.025,0,0,0,156.7,127.488,156.994,156.994,0,0,0,18.537-1.083l-23.839-20.989Z" transform="translate(-2959.102 538.103)" fill="#1899cc"/>
        <path id="Path_172200" data-name="Path 172200" d="M3186.239-378.384c.108,1.875.144,3.751.144,5.663a102.232,102.232,0,0,1-85.076,100.764l-10.675,33.9,25.173,22.18a160,160,0,0,0,128.389-156.843,155.053,155.053,0,0,0-1.009-17.924l-21.062,23.766Z" transform="translate(-2924.194 532.739)" fill="#319c40"/>
        <path id="Path_172201" data-name="Path 172201" d="M3089.384-444.519a102.231,102.231,0,0,1,100.835,85.508l33.865,10.856,22.288-25.1A160.062,160.062,0,0,0,3089.384-502.33a159.678,159.678,0,0,0-17.745.973l23.7,21.134-11.505,35.848c1.839-.108,3.679-.144,5.555-.144Z" transform="translate(-2929.365 502.33)" fill="#eba12d"/>
        <path id="Path_172202" data-name="Path 172202" d="M3017.841-336.318c-.145-2.2-.217-4.4-.217-6.635a102.246,102.246,0,0,1,85.616-100.872l10.856-33.829L3089-499.978a160.043,160.043,0,0,0-129.183,157.025A157.476,157.476,0,0,0,2961-323.515l20.845-23.947Z" transform="translate(-2959.812 502.97)" fill="#d6541e"/>
        <path id="Path_172203" data-name="Path 172203" d="M2961-323.515a157.476,157.476,0,0,1-1.191-19.438A160.043,160.043,0,0,1,3089-499.978l23.514,20.882a136.335,136.335,0,0,0-128.93,132.177l-1.731-.542Z" transform="translate(-2959.812 502.97)" fill="#ed5d22"/>
        <path id="Path_172204" data-name="Path 172204" d="M3137.658-219.533a156.99,156.99,0,0,1-18.537,1.083,160.025,160.025,0,0,1-156.7-127.488l20.666-23.73A136.359,136.359,0,0,0,3114.36-242.218l-.541,1.7Z" transform="translate(-2959.102 538.45)" fill="#23ade4"/>
        <path id="Path_172205" data-name="Path 172205" d="M3242.853-390.645a155.107,155.107,0,0,1,1.009,17.924,160,160,0,0,1-128.389,156.843L3091.85-236.65a136.315,136.315,0,0,0,128.21-130.806l1.73.578Z" transform="translate(-2923.861 532.739)" fill="#3ab54a"/>
        <path id="Path_172206" data-name="Path 172206" d="M3089.384-502.33a160.062,160.062,0,0,1,156.989,129.074l-20.882,23.514a136.358,136.358,0,0,0-130.7-128.786l.541-1.695-23.7-21.134a159.678,159.678,0,0,1,17.745-.973Z" transform="translate(-2929.365 502.33)" fill="#fbb03b"/>
        <path id="Path_172207" data-name="Path 172207" d="M3120.058-466.437l-2.091,5.445-2.958-1.118,5.771-15.219,5.3,2.02a5.125,5.125,0,0,1,3.065,2.7,5.229,5.229,0,0,1,0,4.04,5.33,5.33,0,0,1-2.67,3.029,5.089,5.089,0,0,1-4.11-.036Zm.9-2.38,2.31.865a1.745,1.745,0,0,0,1.73-.144,3,3,0,0,0,1.154-1.587,3.233,3.233,0,0,0,.216-1.985,1.688,1.688,0,0,0-1.189-1.262l-2.308-.9Zm10.027,10.6,5.373,2.6-1.117,2.308-8.223-4,7.1-14.641,2.848,1.406Zm13.884,6.888-3.607-2.38-2.633,2.453-2.668-1.767,12.766-11.108,2.741,1.8-5.084,16.157-2.705-1.767Zm-1.659-4.148,2.489,1.659,1.948-5.626-.073-.036Zm13.164,17.059-2.489-1.948,2.524-11.252-.073-.036-6.418,8.15-2.526-1.948,10.1-12.8,2.489,1.983-2.524,11.253h.072l6.419-8.151,2.488,1.948Zm12.982,2.885-3.823-3.9-3.282,3.21,4.508,4.58-1.838,1.8-6.709-6.888,11.613-11.4,6.708,6.853-1.8,1.767-4.508-4.545-2.885,2.813,3.823,3.894Zm4.075,10.314-2.741-3.318-3.245,1.551-2.019-2.489,15.471-6.817,2.091,2.561-9.628,13.884-2.056-2.489Zm-.36-4.436,1.911,2.308,3.5-4.8-.036-.036Zm8.042,9.882-5.3,3.643-1.8-2.6,13.38-9.233,2.992,4.364a5.24,5.24,0,0,1,1.119,3.823,4.675,4.675,0,0,1-2.128,3.137,3.918,3.918,0,0,1-2.128.757,3.982,3.982,0,0,1-2.165-.5,3.052,3.052,0,0,1-.144,2.271,4.772,4.772,0,0,1-1.695,1.84l-.937.649a5.556,5.556,0,0,0-1.118.975,2.147,2.147,0,0,0-.613,1.046l-.181.144-1.875-2.7a2.093,2.093,0,0,1,.686-1.046,9.011,9.011,0,0,1,1.3-1.01l.9-.649a2.835,2.835,0,0,0,1.262-1.478,1.638,1.638,0,0,0-.252-1.551Zm2.092-1.443,1.226,1.732a1.861,1.861,0,0,0,1.3.9,2.6,2.6,0,0,0,1.695-.576,2.5,2.5,0,0,0,1.154-1.407,1.628,1.628,0,0,0-.289-1.587l-1.189-1.767Z" transform="translate(-2917.555 509.137)" fill="#fff"/>
        <path id="Path_172208" data-name="Path 172208" d="M3171.862-323.792l1.551-2.777,5.915,3.246,2.453-4.4-5.915-3.283,1.551-2.776,14.246,7.861-1.551,2.813-6.1-3.389-2.452,4.4,6.094,3.389-1.551,2.777Zm-3.1,10.1,2.524-3.5-2.308-2.74,1.875-2.6,10.5,13.271-1.948,2.669-15.869-5.842,1.912-2.6Zm4.219-1.48-1.767,2.453,5.518,2.164.037-.037Zm-13.344,14.607h-.072a5.585,5.585,0,0,1-2.092-3.679,5.157,5.157,0,0,1,1.587-3.751,5.459,5.459,0,0,1,3.9-1.911A6.242,6.242,0,0,1,3167.21-308l3.535,3.283a6.155,6.155,0,0,1,2.235,4.075,5.249,5.249,0,0,1-1.514,3.931,5.153,5.153,0,0,1-3.715,1.911,5.8,5.8,0,0,1-3.931-1.8v-.037l2.092-2.271a3.7,3.7,0,0,0,1.983,1.262,2.019,2.019,0,0,0,1.7-.794,1.974,1.974,0,0,0,.5-1.8,4.48,4.48,0,0,0-1.479-2.128l-3.57-3.318a4.149,4.149,0,0,0-2.272-1.3,2.011,2.011,0,0,0-1.84.721,1.8,1.8,0,0,0-.612,1.622,3.65,3.65,0,0,0,1.406,1.84Zm-6.817,8.907,4.04-3.678-3.138-3.391L3149-294.4l-1.731-1.875,7.1-6.492,11,12.01-7.1,6.491-1.695-1.875,4.724-4.327-2.741-2.994-4.039,3.678Zm-5.662,3.571-3.75-5.266,2.6-1.84,9.413,13.235-4.328,3.1a5.525,5.525,0,0,1-3.823,1.154,4.612,4.612,0,0,1-3.137-2.092,4.247,4.247,0,0,1-.83-2.127,4.33,4.33,0,0,1,.505-2.164,3.258,3.258,0,0,1-2.272-.072,5.111,5.111,0,0,1-1.875-1.695l-.686-.938a8.32,8.32,0,0,0-.937-1.081,1.99,1.99,0,0,0-1.082-.578l-.144-.216,2.668-1.911a2.018,2.018,0,0,1,1.083.685c.361.4.685.83,1.009,1.262l.65.9a3.236,3.236,0,0,0,1.514,1.262,1.76,1.76,0,0,0,1.551-.289Zm1.479,2.055-1.731,1.226a1.827,1.827,0,0,0-.866,1.37,2.389,2.389,0,0,0,.578,1.659,2.953,2.953,0,0,0,1.406,1.154,1.726,1.726,0,0,0,1.588-.324l1.73-1.226Z" transform="translate(-2911.62 548.221)" fill="#fff"/>
        <path id="Path_172209" data-name="Path 172209" d="M3001.7-405.882l-1.84,3.86,2.778,2.271-1.334,2.921L2988.5-407.9l1.406-2.994,16.663,2.777-1.334,2.921Zm-3.858,2.2,1.262-2.7L2993.3-407.5l-.036.073Zm9.881-16.879h.071a5.572,5.572,0,0,1,2.886,3.139,5.024,5.024,0,0,1-.757,3.967,5.3,5.3,0,0,1-3.354,2.74,6.027,6.027,0,0,1-4.544-.865L2997.8-414a6.243,6.243,0,0,1-3.065-3.462,5.155,5.155,0,0,1,.576-4.183,5.292,5.292,0,0,1,3.175-2.7,5.985,5.985,0,0,1,4.219.865l.073.073-1.551,2.632a4.084,4.084,0,0,0-2.2-.757,1.958,1.958,0,0,0-1.478,1.191,1.863,1.863,0,0,0-.108,1.838,4.343,4.343,0,0,0,1.911,1.732l4.256,2.452a4.006,4.006,0,0,0,2.524.721,1.952,1.952,0,0,0,1.588-1.117,1.838,1.838,0,0,0,.252-1.732,3.9,3.9,0,0,0-1.8-1.443Zm.252-14.641-2.2,2.921,10.963,8.258-1.875,2.524-11-8.258-2.2,2.921-2.019-1.514,6.274-8.4Zm6.926-11.938,8.293,7.358a5.088,5.088,0,0,1,1.983,3.822,5.518,5.518,0,0,1-1.586,3.931,5.637,5.637,0,0,1-3.715,2.056,5.408,5.408,0,0,1-4-1.515l-8.3-7.356,2.092-2.38,8.3,7.358a3.327,3.327,0,0,0,2.056.973,2.32,2.32,0,0,0,1.695-.829,2.226,2.226,0,0,0,.649-1.767,3.428,3.428,0,0,0-1.262-1.911l-8.3-7.358Zm16.805,1.911-3.21,2.85,1.659,3.173-2.416,2.129-7.358-15.256,2.489-2.164,14.21,9.16-2.381,2.129Zm-4.4.505,2.236-1.984-4.905-3.354-.036.036Zm9.485-8.439,3.859,5.158-2.525,1.911-9.737-13.019,4.255-3.173a5.344,5.344,0,0,1,3.786-1.263,4.594,4.594,0,0,1,3.21,2.02,3.826,3.826,0,0,1,.829,2.092,3.893,3.893,0,0,1-.432,2.164,3.26,3.26,0,0,1,2.272.036,5.075,5.075,0,0,1,1.91,1.659l.722.9a6.6,6.6,0,0,0,.974,1.081,1.9,1.9,0,0,0,1.082.541l.144.216-2.633,1.948a2.088,2.088,0,0,1-1.082-.613c-.361-.4-.721-.83-1.045-1.262l-.686-.9a2.852,2.852,0,0,0-1.516-1.19,1.564,1.564,0,0,0-1.55.324Zm-1.515-2.055,1.7-1.263a1.886,1.886,0,0,0,.83-1.37,2.482,2.482,0,0,0-.614-1.622,2.93,2.93,0,0,0-1.479-1.154,1.8,1.8,0,0,0-1.551.36l-1.7,1.3Z" transform="translate(-2952.001 512.884)" fill="#fff"/>
        <path id="Path_172210" data-name="Path 172210" d="M3069.6-271.958l.108-.649h-.073l-.324.505-6.672,10.531-3.137-1.154,9.772-13.777,3.139,1.118-1.264,16.878-3.137-1.154ZM3052.826-276l4.906,2.416,2.055-4.111-5.77-2.85,1.118-2.308,8.618,4.293-7.248,14.569-8.584-4.254,1.118-2.272,5.77,2.849,1.767-3.643-4.867-2.416Zm-5.193-3.678,3.317-5.555,2.7,1.623-8.294,13.957-4.58-2.7a5.461,5.461,0,0,1-2.6-3.029,4.43,4.43,0,0,1,.649-3.715,3.734,3.734,0,0,1,1.586-1.587,3.732,3.732,0,0,1,2.2-.433,2.962,2.962,0,0,1-.83-2.129,4.943,4.943,0,0,1,.759-2.379l.613-1.01a6.123,6.123,0,0,0,.576-1.3,1.874,1.874,0,0,0,.108-1.225l.109-.216,2.85,1.659a1.839,1.839,0,0,1-.18,1.262,14.727,14.727,0,0,1-.757,1.478l-.542.938a2.9,2.9,0,0,0-.541,1.875,1.6,1.6,0,0,0,.865,1.3Zm-1.3,2.164-1.84-1.083a1.9,1.9,0,0,0-1.551-.252,2.54,2.54,0,0,0-1.3,1.19,2.769,2.769,0,0,0-.469,1.8,1.643,1.643,0,0,0,.9,1.3l1.84,1.118Zm-6.383-14.931,2.6,1.8-9.341,13.345-2.6-1.84Zm-13.092-1.911,4.256,3.5,4.292-5.229,2.453,2.02-10.314,12.585-7.5-6.13,1.624-1.985,5.012,4.112,2.813-3.426-4.255-3.5Zm.036-9.449,2.272,2.2-11.252,11.757-2.272-2.164Zm-12.622-5.95.036-.072a5.855,5.855,0,0,1,3.859-1.767,4.994,4.994,0,0,1,3.571,1.948,5.373,5.373,0,0,1,1.551,4.039,5.864,5.864,0,0,1-2.237,4.038l-3.605,3.282a6.139,6.139,0,0,1-4.256,1.84,5.2,5.2,0,0,1-3.787-1.875,5.219,5.219,0,0,1-1.587-3.823,6.105,6.105,0,0,1,2.127-3.786h.073l2.056,2.271a3.583,3.583,0,0,0-1.407,1.875,1.908,1.908,0,0,0,.65,1.767,1.791,1.791,0,0,0,1.73.65,4.33,4.33,0,0,0,2.236-1.263l3.643-3.246a4.471,4.471,0,0,0,1.514-2.2,2.114,2.114,0,0,0-.576-1.875,1.81,1.81,0,0,0-1.587-.757,4.375,4.375,0,0,0-1.948,1.226Zm-4.328-9.052,2.488,3.5,3.355-1.3,1.838,2.6-15.9,5.734-1.911-2.7,10.6-13.163,1.84,2.6Zm.037,4.472-1.731-2.453-3.823,4.545.037.036Zm-7.43-10.568,5.663-3.137,1.551,2.777-14.246,7.861-2.561-4.651a5.252,5.252,0,0,1-.722-3.9,4.553,4.553,0,0,1,2.418-2.921,4.224,4.224,0,0,1,2.2-.541,4.163,4.163,0,0,1,2.091.721,3.074,3.074,0,0,1,.36-2.237,4.829,4.829,0,0,1,1.875-1.695l1.01-.541a7.836,7.836,0,0,0,1.19-.829,2.113,2.113,0,0,0,.721-1.01l.18-.144,1.587,2.885a1.745,1.745,0,0,1-.757,1.009q-.649.433-1.406.866l-.938.541a2.987,2.987,0,0,0-1.407,1.335,1.578,1.578,0,0,0,.108,1.587Zm-2.2,1.227-1.046-1.875a1.866,1.866,0,0,0-1.227-1.01,2.754,2.754,0,0,0-1.73.4,2.819,2.819,0,0,0-1.3,1.3,1.677,1.677,0,0,0,.146,1.587l1.008,1.875Z" transform="translate(-2951.016 547.851)" fill="#fff"/>
      </g>
      <g id="Group_112178" data-name="Group 112178" transform="translate(3063.397 -371.787)">
        <path id="Path_172211" data-name="Path 172211" d="M3057.112-398.983l4.441,13.845,4.428-13.845h6.314v19.9h-4.81v-4.648l.464-9.512-4.811,14.159h-3.17l-4.824-14.173.464,9.526v4.648h-4.8v-19.9Z" transform="translate(-3038.62 399.926)" fill="#12263f"/>
        <path id="Path_172212" data-name="Path 172212" d="M3077.62-379.845a7.6,7.6,0,0,1-5.508-2.03,7.012,7.012,0,0,1-2.1-5.283v-.382a9.076,9.076,0,0,1,.841-4.005,6.145,6.145,0,0,1,2.453-2.686,7.407,7.407,0,0,1,3.826-.949,6.406,6.406,0,0,1,4.921,1.934,7.6,7.6,0,0,1,1.8,5.392v1.79h-9.158a3.318,3.318,0,0,0,1.08,1.954,3.21,3.21,0,0,0,2.159.711,4.139,4.139,0,0,0,3.417-1.532l2.1,2.488a5.874,5.874,0,0,1-2.439,1.892A8.249,8.249,0,0,1,3077.62-379.845Zm-.519-11.781q-2.023,0-2.406,2.678h4.648v-.355a2.285,2.285,0,0,0-.561-1.715A2.226,2.226,0,0,0,3077.1-391.626Z" transform="translate(-3033.393 400.961)" fill="#12263f"/>
        <path id="Path_172213" data-name="Path 172213" d="M3088.355-393.669v15.293a5.371,5.371,0,0,1-1.5,4.046,5.779,5.779,0,0,1-4.156,1.421,9.805,9.805,0,0,1-2.173-.233v-3.485a8.723,8.723,0,0,0,1.3.123,1.685,1.685,0,0,0,1.914-1.9v-15.266Zm-4.962-3.813a2.06,2.06,0,0,1,.711-1.613,2.681,2.681,0,0,1,1.845-.628,2.682,2.682,0,0,1,1.845.628,2.06,2.06,0,0,1,.711,1.613,2.057,2.057,0,0,1-.711,1.612,2.675,2.675,0,0,1-1.845.629,2.675,2.675,0,0,1-1.845-.629A2.058,2.058,0,0,1,3083.393-397.482Z" transform="translate(-3030.53 399.724)" fill="#12263f"/>
        <path id="Path_172214" data-name="Path 172214" d="M3088.709-387.649a8.732,8.732,0,0,1,.861-3.943,6.16,6.16,0,0,1,2.473-2.659,7.45,7.45,0,0,1,3.786-.929,6.8,6.8,0,0,1,5.234,2.057,7.888,7.888,0,0,1,1.914,5.6v.164a7.655,7.655,0,0,1-1.921,5.487,6.815,6.815,0,0,1-5.2,2.03,6.9,6.9,0,0,1-5.07-1.893,7.406,7.406,0,0,1-2.063-5.132Zm4.605.286a5.494,5.494,0,0,0,.643,3.008,2.139,2.139,0,0,0,1.9.957q2.46,0,2.516-3.786v-.464q0-3.977-2.542-3.977-2.309,0-2.5,3.43Z" transform="translate(-3028.301 400.961)" fill="#12263f"/>
        <path id="Path_172215" data-name="Path 172215" d="M3110.9-390.738l-1.516-.109q-2.174,0-2.789,1.366v9.363h-4.605v-14.788h4.319l.151,1.9a3.564,3.564,0,0,1,3.239-2.173,4.488,4.488,0,0,1,1.285.164Z" transform="translate(-3024.686 400.961)" fill="#12263f"/>
        <path id="Path_172216" data-name="Path 172216" d="M3118.887-380.119a5.25,5.25,0,0,1-.437-1.326,4.282,4.282,0,0,1-3.554,1.6,5.246,5.246,0,0,1-3.553-1.265,4.024,4.024,0,0,1-1.461-3.178,4.137,4.137,0,0,1,1.775-3.635,9.049,9.049,0,0,1,5.167-1.23h1.422v-.782q0-2.046-1.764-2.047a1.442,1.442,0,0,0-1.64,1.621h-4.605a4.124,4.124,0,0,1,1.826-3.48,7.656,7.656,0,0,1,4.653-1.338,6.727,6.727,0,0,1,4.469,1.38,4.8,4.8,0,0,1,1.681,3.785v6.547a6.711,6.711,0,0,0,.629,3.116v.233ZM3116-383.126a2.551,2.551,0,0,0,1.427-.369,2.3,2.3,0,0,0,.815-.833v-2.364h-1.34q-2.4,0-2.4,2.159a1.316,1.316,0,0,0,.424,1.018A1.531,1.531,0,0,0,3116-383.126Z" transform="translate(-3022.537 400.961)" fill="#12263f"/>
        <path id="Path_172217" data-name="Path 172217" d="M3048.063-357a2.046,2.046,0,0,0,1.5-.525,1.926,1.926,0,0,0,.519-1.47h4.32a5.118,5.118,0,0,1-1.742,3.991,6.486,6.486,0,0,1-4.49,1.557,6.564,6.564,0,0,1-5.086-2.022,7.979,7.979,0,0,1-1.858-5.6v-.191a9,9,0,0,1,.828-3.957,6.022,6.022,0,0,1,2.384-2.637,7.1,7.1,0,0,1,3.69-.922,6.4,6.4,0,0,1,4.579,1.6,5.67,5.67,0,0,1,1.695,4.332h-4.32a2.525,2.525,0,0,0-.56-1.763,1.935,1.935,0,0,0-1.5-.615q-1.791,0-2.091,2.282a16.122,16.122,0,0,0-.1,1.995,6.317,6.317,0,0,0,.533,3.089A1.844,1.844,0,0,0,3048.063-357Z" transform="translate(-3041.229 408.149)" fill="#12263f"/>
        <path id="Path_172218" data-name="Path 172218" d="M3053.1-361.249a8.728,8.728,0,0,1,.86-3.943,6.173,6.173,0,0,1,2.474-2.659,7.447,7.447,0,0,1,3.785-.929,6.8,6.8,0,0,1,5.235,2.056,7.9,7.9,0,0,1,1.912,5.6v.164a7.651,7.651,0,0,1-1.92,5.487,6.812,6.812,0,0,1-5.2,2.029,6.9,6.9,0,0,1-5.071-1.892,7.4,7.4,0,0,1-2.064-5.132Zm4.605.286a5.5,5.5,0,0,0,.643,3.008,2.139,2.139,0,0,0,1.9.955q2.461,0,2.514-3.785v-.464q0-3.977-2.542-3.977-2.309,0-2.5,3.43Z" transform="translate(-3037.997 408.149)" fill="#12263f"/>
        <path id="Path_172219" data-name="Path 172219" d="M3070.6-368.506l.15,1.735a5.014,5.014,0,0,1,4.223-2.009,4.223,4.223,0,0,1,3.452,1.38,6.574,6.574,0,0,1,1.182,4.154v9.527h-4.619v-9.335a2.5,2.5,0,0,0-.45-1.648,2.093,2.093,0,0,0-1.64-.525,2.2,2.2,0,0,0-2.01,1.066v10.442h-4.606v-14.788Z" transform="translate(-3034.408 408.149)" fill="#12263f"/>
        <path id="Path_172220" data-name="Path 172220" d="M3084.8-371.455v3.677h2.432v3.2H3084.8v6.766a1.733,1.733,0,0,0,.3,1.162,1.613,1.613,0,0,0,1.19.328,6.735,6.735,0,0,0,1.148-.083v3.294a8.523,8.523,0,0,1-2.6.4,4.824,4.824,0,0,1-3.512-1.12,4.592,4.592,0,0,1-1.135-3.4v-7.34h-1.885v-3.2h1.885v-3.677Z" transform="translate(-3031.132 407.421)" fill="#12263f"/>
        <path id="Path_172221" data-name="Path 172221" d="M3087.161-371.082a2.058,2.058,0,0,1,.711-1.613,2.681,2.681,0,0,1,1.845-.628,2.683,2.683,0,0,1,1.845.628,2.061,2.061,0,0,1,.711,1.613,2.058,2.058,0,0,1-.711,1.612,2.677,2.677,0,0,1-1.845.629,2.675,2.675,0,0,1-1.845-.629A2.056,2.056,0,0,1,3087.161-371.082Zm4.894,18.6h-4.62v-14.788h4.62Z" transform="translate(-3028.723 406.912)" fill="#12263f"/>
        <path id="Path_172222" data-name="Path 172222" d="M3097.925-368.506l.15,1.735a5.013,5.013,0,0,1,4.223-2.009,4.222,4.222,0,0,1,3.452,1.38,6.568,6.568,0,0,1,1.182,4.154v9.527h-4.62v-9.335a2.5,2.5,0,0,0-.45-1.648,2.091,2.091,0,0,0-1.64-.525,2.194,2.194,0,0,0-2.009,1.066v10.442h-4.607v-14.788Z" transform="translate(-3026.968 408.149)" fill="#12263f"/>
        <path id="Path_172223" data-name="Path 172223" d="M3115.347-355.377a4.746,4.746,0,0,1-3.949,1.872,4.656,4.656,0,0,1-3.683-1.414,5.947,5.947,0,0,1-1.251-4.066v-9.58h4.606v9.607a1.655,1.655,0,0,0,1.845,1.9,2.4,2.4,0,0,0,2.255-1.134v-10.373h4.633v14.788h-4.318Z" transform="translate(-3023.467 408.208)" fill="#12263f"/>
        <path id="Path_172224" data-name="Path 172224" d="M3127.845-353.719a5.251,5.251,0,0,1-.437-1.326,4.281,4.281,0,0,1-3.553,1.6,5.253,5.253,0,0,1-3.554-1.263,4.025,4.025,0,0,1-1.462-3.178,4.136,4.136,0,0,1,1.776-3.635,9.048,9.048,0,0,1,5.167-1.23h1.422v-.782q0-2.046-1.764-2.047a1.441,1.441,0,0,0-1.64,1.621h-4.606a4.127,4.127,0,0,1,1.826-3.481,7.664,7.664,0,0,1,4.653-1.337,6.728,6.728,0,0,1,4.469,1.38,4.8,4.8,0,0,1,1.68,3.785v6.547a6.714,6.714,0,0,0,.629,3.116v.233Zm-2.884-3.008a2.554,2.554,0,0,0,1.428-.369,2.3,2.3,0,0,0,.815-.833v-2.364h-1.34q-2.4,0-2.4,2.159a1.32,1.32,0,0,0,.423,1.018A1.532,1.532,0,0,0,3124.96-356.726Z" transform="translate(-3020.097 408.149)" fill="#12263f"/>
      </g>
    </g>
  </g>
</svg>
