<svg xmlns="http://www.w3.org/2000/svg" width="295" height="200" viewBox="0 0 295 200">
  <g id="t4-i14" transform="translate(-1821 5927)">
    <rect id="Rectángulo_36457" data-name="Rectángulo 36457" width="295" height="200" rx="10" transform="translate(1821 -5927)" fill="#e5f8f9"/>
    <g id="Group_115896" data-name="Group 115896" transform="translate(1500.022 -6136.822)">
      <g id="Group_115890" data-name="Group 115890" transform="translate(351.188 304.237)">
        <path id="Path_173738" data-name="Path 173738" d="M477.351,1407.624c-.587-.335-1.343.026-1.268.606l.714,5.508a2.5,2.5,0,0,0,2.505,1.952h0l-1.333-7.712Z" transform="translate(-467.743 -1383.505)" fill="#f0b976"/>
        <path id="Path_173739" data-name="Path 173739" d="M860.979,1404.581l-.619.353-1.333,7.712a2.5,2.5,0,0,0,2.506-1.952l.714-5.508C862.322,1404.607,861.566,1404.246,860.979,1404.581Z" transform="translate(-819.673 -1380.709)" fill="#f0b976"/>
        <path id="Path_173740" data-name="Path 173740" d="M618.686,1648.246c7.382,14.031,10.561,1.9,12.156,0v-5.088H618.686Z" transform="translate(-598.799 -1600.079)" fill="#dba465"/>
        <path id="Path_173741" data-name="Path 173741" d="M528.75,1159.6c-1.139-10.564-6.115-17.492-15.28-17.492s-14.142,6.928-15.28,17.492c-.1.907-.058,3.741-.061,4.679a42.683,42.683,0,0,0,1.339,8.308c.279,1.094,5.709,12.513,14,12.513s13.723-11.42,14-12.513a42.678,42.678,0,0,0,1.339-8.308C528.808,1163.341,528.847,1160.507,528.75,1159.6Z" transform="translate(-488.001 -1139.615)" fill="#f0b976"/>
        <path id="Path_173742" data-name="Path 173742" d="M373.172,1696.5a16.066,16.066,0,0,1,15.7-16.112l.3,0h3.885c6.078,11.2,12.156,0,12.156,0h2.672c.112,0,.225,0,.338.005a17.412,17.412,0,0,1,16.877,17.462v6.027H373.172Z" transform="translate(-373.172 -1634.289)" fill="#223650"/>
        <path id="Path_173743" data-name="Path 173743" d="M522.541,1128.283c.434-5.387-3.441-9.271-6.617-11.331a2.779,2.779,0,0,0-.122-.574,5.741,5.741,0,0,0-.726-1.469,5.845,5.845,0,0,0-3.122-2.241c-12.58-3.886-17.207,1.716-18.177,3.367-1,1.694-.067,2.047-.864,2.612a2.857,2.857,0,0,0-.864,2.784c.2.949,1.351,1.992.334,2.7a3.389,3.389,0,0,0-1,2.494,28.959,28.959,0,0,0,.694,10.513q.08.335.161.643l-.005,0,0,0h.3c.957-1.412,2.28-2.523,2.21-7.452-.087-6.115,4.92-7.173,6.843-7.353.652-.061,1.3-.134,1.952-.215,3.45-.428,13.22-1.068,15.615,4.991a77.83,77.83,0,0,0,2.821,10.029h.068c.093-.238.186-.492.278-.768C522.918,1135.226,522.235,1132.081,522.541,1128.283Z" transform="translate(-481.608 -1111.323)" fill="#5e4737"/>
      </g>
      <path id="Path_173744" data-name="Path 173744" d="M2735.636,1407.624c-.587-.335-1.343.026-1.268.606l.714,5.508a2.5,2.5,0,0,0,2.505,1.952h0l-1.332-7.712Z" transform="translate(-2191.917 -1079.268)" fill="#f0b976"/>
      <path id="Path_173745" data-name="Path 173745" d="M3119.265,1404.581l-.619.353-1.333,7.712a2.5,2.5,0,0,0,2.506-1.952l.714-5.508C3120.608,1404.607,3119.853,1404.246,3119.265,1404.581Z" transform="translate(-2543.848 -1076.472)" fill="#f0b976"/>
      <path id="Path_173746" data-name="Path 173746" d="M2876.97,1648.246c7.382,14.031,10.561,1.9,12.156,0v-5.088H2876.97Z" transform="translate(-2322.973 -1295.842)" fill="#dba465"/>
      <path id="Path_173747" data-name="Path 173747" d="M2787.034,1159.6c-1.139-10.564-6.115-17.492-15.28-17.492s-14.142,6.928-15.281,17.492c-.1.907-.058,3.741-.061,4.679a42.693,42.693,0,0,0,1.339,8.308c.279,1.094,5.709,12.513,14,12.513s13.723-11.42,14-12.513a42.637,42.637,0,0,0,1.339-8.308C2787.093,1163.341,2787.132,1160.507,2787.034,1159.6Z" transform="translate(-2212.175 -835.378)" fill="#f0b976"/>
      <path id="Path_173748" data-name="Path 173748" d="M2751.017,1115.571c-6.151-.7-5.076-3-14.046-1.472-4.168.711-6.428,2.393-7.513,4.206a5.166,5.166,0,0,0-.628,3.444c.007.043.014.085.021.128a6.006,6.006,0,0,0,.266.979,1.4,1.4,0,0,1,0,1.139c-.671.95-3.289,5.381.741,11.851,0,.309,0,.589,0,.814l-.02-.011c.074.694.35,3.9.931,7.254,1.141-2.744,2.236-8.278,1.606-11.507a6.013,6.013,0,0,1,.424-3.761,3.6,3.6,0,0,1,4.7-2.066c1.73.487,2.79.88,3.642,1.2a14.346,14.346,0,0,0,6.014,1.018,13.359,13.359,0,0,0,7.277-1.75,3.759,3.759,0,0,1,2.041-.678c1.541.194,2.962,2.488,2.562,6.355-.249,2.4-.459,8.264.919,10.94.731-4.27.982-6.924,1.34-7.456.943-1.756,3.051-6.308,1.8-9.94C2761.5,1121.655,2757.167,1116.27,2751.017,1115.571Z" transform="translate(-2185.762 -809.164)" fill="#9e3709"/>
      <path id="Path_173749" data-name="Path 173749" d="M2666.76,1680.388c-.113,0-.225,0-.338-.005h-2.672l-5.393,6.848-6.763-6.848h-3.885l-.3,0a16.045,16.045,0,0,0-15.677,16.158v7.334h51.907v-6.027A17.411,17.411,0,0,0,2666.76,1680.388Z" transform="translate(-2097.596 -1330.052)" fill="#085269"/>
      <path id="Path_173750" data-name="Path 173750" d="M2886.486,1703.878l2.64-23.495s-5.2,5.122-12.156,0l3.259,23.495Z" transform="translate(-2322.973 -1330.052)" fill="#15b6be"/>
      <g id="Group_115891" data-name="Group 115891" transform="translate(392.926 311.073)">
        <path id="Path_173751" data-name="Path 173751" d="M1230.047,1224.852c.328-4.421,4.828-11.971-1.424-21.184s-17.13-7.051-17.13-7.051l-1.062,56.243,16.847,1.651s4.819-9.74,4.846-13.728C1232.176,1233.212,1229.437,1233.077,1230.047,1224.852Z" transform="translate(-1184.35 -1196.341)" fill="#824b27"/>
        <path id="Path_173752" data-name="Path 173752" d="M1141.2,1739.578c7.583,14.413,10.848,1.948,12.487,0v-5.226H1141.2Z" transform="translate(-1120.724 -1690.722)" fill="#dba465"/>
        <path id="Path_173753" data-name="Path 173753" d="M941.836,1790.532a17.886,17.886,0,0,0-17.336-17.937q-.173,0-.347-.005h-2.745s-5.937,10.81-12.486,0h-3.99c-.1,0-.208,0-.311,0a16.555,16.555,0,0,0-16.171,16.6v7.232h53.387Z" transform="translate(-888.449 -1725.862)" fill="#f8203d"/>
        <path id="Path_173754" data-name="Path 173754" d="M996.019,1492.415c-.6-.344-1.379.026-1.3.622l.733,5.658a2.562,2.562,0,0,0,2.573,2.005h0l-1.369-7.922Z" transform="translate(-986.104 -1468.261)" fill="#f0b976"/>
        <path id="Path_173755" data-name="Path 173755" d="M1048.815,1237.648c-1.17-10.851-6.281-17.968-15.7-17.968s-14.526,7.117-15.7,17.968c-.1.931-.06,3.843-.062,4.806a43.825,43.825,0,0,0,1.376,8.534c.286,1.123,5.864,12.854,14.383,12.854s14.1-11.73,14.383-12.854a43.843,43.843,0,0,0,1.376-8.534C1048.875,1241.491,1048.915,1238.579,1048.815,1237.648Z" transform="translate(-1006.913 -1217.739)" fill="#f0b976"/>
        <path id="Path_173756" data-name="Path 173756" d="M1390.078,1489.289l-1.117.427-.887,7.858a2.563,2.563,0,0,0,2.574-2l.733-5.658C1391.458,1489.315,1390.681,1488.945,1390.078,1489.289Z" transform="translate(-1347.604 -1465.388)" fill="#f0b976"/>
        <path id="Path_173757" data-name="Path 173757" d="M1080.682,1760.238l6.992,8.558,4.153-3.75-6.243-5.9Z" transform="translate(-1065.111 -1713.51)" fill="#fff"/>
        <path id="Path_173758" data-name="Path 173758" d="M1218.273,1765.046l4.153,3.75,6.992-8.558-4.9-1.089Z" transform="translate(-1191.557 -1713.51)" fill="#fff"/>
        <path id="Path_173759" data-name="Path 173759" d="M1210.047,1879.217a.725.725,0,1,0,.725.725A.725.725,0,0,0,1210.047,1879.217Z" transform="translate(-1183.331 -1823.853)" fill="#dedede"/>
        <path id="Path_173760" data-name="Path 173760" d="M1210.047,1920.355a.725.725,0,1,0,.725.725A.725.725,0,0,0,1210.047,1920.355Z" transform="translate(-1183.331 -1861.659)" fill="#dedede"/>
        <path id="Path_173761" data-name="Path 173761" d="M1210.047,1961.492a.725.725,0,1,0,.725.725A.725.725,0,0,0,1210.047,1961.492Z" transform="translate(-1183.331 -1899.464)" fill="#dedede"/>
        <path id="Path_173762" data-name="Path 173762" d="M1238.216,1201.7h-2.783v9.837s12.25,1.038,13.745,14.511l1.235-3.532-1.642-14.684Z" transform="translate(-1207.327 -1201.213)" fill="#824b27"/>
        <path id="Path_173763" data-name="Path 173763" d="M987.417,1220.424l-2.3,20.84,2.616,1.714c-.642-.463-2.772-2.455.005-7.039,3.222-5.318,3.95-5.042,5.455-15.007,1.531-10.137,13.148-9.4,13.148-9.4V1201.7l-15.174,3.938Z" transform="translate(-977.282 -1201.213)" fill="#824b27"/>
        <path id="Path_173764" data-name="Path 173764" d="M949.815,1213.5a13.548,13.548,0,0,0,.311,3.329c.491,2.536,1.409,7.967.9,10.805-.683,3.784-4.387,5.866-2.328,16.451,1.358,6.981-1.021,10.986-.623,13.593,0,0,7.041,4.8,14.063,5.77,3.385.466,2-8.725,1.476-20.195v-3.1s-10.717-7.479-8.23-24.366,14.983-15.566,14.983-15.566l-.021-4.235S951.03,1192.107,949.815,1213.5Z" transform="translate(-943.2 -1195.716)" fill="#824b27"/>
      </g>
      <g id="Group_115893" data-name="Group 115893" transform="translate(490.961 310.992)">
        <path id="Path_173765" data-name="Path 173765" d="M2350.938,1740.272c7.583,14.413,10.848,1.948,12.487,0v-5.226h-12.487Z" transform="translate(-2330.51 -1691.28)" fill="#deab6d"/>
        <path id="Path_173766" data-name="Path 173766" d="M2205.761,1493.109c-.6-.344-1.379.026-1.3.622l.733,5.658a2.562,2.562,0,0,0,2.574,2h0l-1.369-7.922Z" transform="translate(-2195.891 -1468.818)" fill="#f0b976"/>
        <path id="Path_173767" data-name="Path 173767" d="M2258.557,1238.342c-1.17-10.852-6.281-17.968-15.7-17.968s-14.526,7.116-15.7,17.968c-.1.931-.06,3.843-.062,4.806a43.873,43.873,0,0,0,1.376,8.534c.286,1.123,5.864,12.854,14.382,12.854s14.1-11.73,14.383-12.854a43.818,43.818,0,0,0,1.376-8.534C2258.616,1242.185,2258.657,1239.273,2258.557,1238.342Z" transform="translate(-2216.701 -1218.296)" fill="#f0b976"/>
        <path id="Path_173768" data-name="Path 173768" d="M2599.82,1489.983l-.5.213-1.5,8.072a2.563,2.563,0,0,0,2.574-2l.733-5.658C2601.2,1490.009,2600.424,1489.639,2599.82,1489.983Z" transform="translate(-2557.391 -1465.945)" fill="#f0b976"/>
        <path id="Path_173769" data-name="Path 173769" d="M2262.956,1306.156a11.333,11.333,0,0,0-12.466,13.22l1.058,6.048c3.979-16.11,17.725-15.759,17.725-15.759C2269.1,1307.555,2266.386,1306.561,2262.956,1306.156Z" transform="translate(-2238.039 -1297.057)" fill="#5e361c"/>
        <g id="Group_115892" data-name="Group 115892" transform="translate(0 46.864)">
          <path id="Path_173770" data-name="Path 173770" d="M2141.5,1785.558l-.3-.114c-1.9,2.412-7.043,5.118-7.043,5.118a12.14,12.14,0,0,0-8.92.777c-3.536-1.9-9.275-1.367-9.275-1.367a9.432,9.432,0,0,1-6.513-4.829c-.1.035-.2.071-.3.108a15.943,15.943,0,0,0-10.388,15v7.708h53.341v-6.853A16.637,16.637,0,0,0,2141.5,1785.558Z" transform="translate(-2098.75 -1784.182)" fill="#ff52c0"/>
          <path id="Path_173771" data-name="Path 173771" d="M2252.979,1773.284s-5.343,5.226-12.486,0h-3.99a17.594,17.594,0,0,0-5.744.96,9.433,9.433,0,0,0,6.512,4.83s5.739-.53,9.275,1.367a12.138,12.138,0,0,1,8.919-.777s5.148-2.706,7.043-5.118a20.113,20.113,0,0,0-6.784-1.261Z" transform="translate(-2220.065 -1773.284)" fill="#deab6d"/>
        </g>
        <path id="Path_173772" data-name="Path 173772" d="M2173.039,1212.529l-.71,17.987a17.95,17.95,0,0,0,14.032,18.228h0l.247-3.372q.226-3.088.226-6.186s-11.683-7.9-6.8-24.258c3.628-12.166,17.56-7.6,17.56-7.6L2196.441,1195S2174.254,1191.135,2173.039,1212.529Z" transform="translate(-2166.356 -1194.724)" fill="#5e361c"/>
        <path id="Path_173773" data-name="Path 173773" d="M2419.969,1214.691c-1.215-21.394-21.491-17.3-21.491-17.3l6.955,12.1s5.627-.638,7.545,7.6c3.875,16.624-6.8,24.258-6.8,24.258q0,3.1.229,6.186l.25,3.373.25-.046a16.88,16.88,0,0,0,13.8-17.259Z" transform="translate(-2374.199 -1196.886)" fill="#5e361c"/>
      </g>
      <g id="Group_115894" data-name="Group 115894" transform="translate(439.224 315.49)">
        <path id="Path_173774" data-name="Path 173774" d="M1577.944,1574.119c-.665-.379-1.52.029-1.435.685l.808,6.235a2.824,2.824,0,0,0,2.836,2.209h0l-1.508-8.73Z" transform="translate(-1567.067 -1547.752)" fill="#f0b976"/>
        <path id="Path_173775" data-name="Path 173775" d="M2012.193,1570.675l-.7.4-1.508,8.73a2.824,2.824,0,0,0,2.836-2.209l.808-6.235C2013.713,1570.7,2012.858,1570.3,2012.193,1570.675Z" transform="translate(-1965.437 -1544.586)" fill="#f0b976"/>
        <path id="Path_173776" data-name="Path 173776" d="M1737.927,1846.491c8.356,15.883,11.954,2.147,13.76,0v-5.759h-13.76Z" transform="translate(-1715.416 -1792.903)" fill="#dba465"/>
        <path id="Path_173777" data-name="Path 173777" d="M1636.124,1293.369c-1.289-11.958-6.922-19.8-17.3-19.8s-16.008,7.842-17.3,19.8c-.111,1.026-.066,4.234-.069,5.3a48.3,48.3,0,0,0,1.516,9.4c.316,1.238,6.462,14.165,15.85,14.165s15.534-12.927,15.849-14.165a48.3,48.3,0,0,0,1.516-9.4C1636.189,1297.6,1636.234,1294.395,1636.124,1293.369Z" transform="translate(-1589.999 -1271.68)" fill="#f0b976"/>
        <path id="Path_173778" data-name="Path 173778" d="M1518.8,1902.459a19.54,19.54,0,0,0-17.084-19.435,20.776,20.776,0,0,0-2.4-.155h-3.025s-5.888,5.759-13.76,0h-4.4q-.172,0-.343,0a18.186,18.186,0,0,0-17.77,18.238v1.35Z" transform="translate(-1460.018 -1831.627)" fill="#242424"/>
        <path id="Path_173779" data-name="Path 173779" d="M1608.309,1252.3c-.152-.087-.3-.17-.457-.246a19.65,19.65,0,0,0-8.9-1.675c-.176-.03-.344-.052-.516-.08.17.045.344.081.514.128a63.389,63.389,0,0,0-6.917-.118c-.57.018-1.129.107-1.693.144-.554.086-1.115.15-1.655.277a12.485,12.485,0,0,0-3.1,1.021,7.973,7.973,0,0,0-4.152,4.443,10.958,10.958,0,0,0-.683,3.053l-.23-.15a1.181,1.181,0,0,0-.671-.1,5.466,5.466,0,0,0-3.613,1.474c-2.272,2.165-1.415,5.149-1.221,6.109.144.711.712,5.068,1.2,8.861.772,4.432,1.957,10.315,1.957,10.315,3.614-.3,1.666-3.5.866-11.349-.3-2.971,2.162-8.652,3.85-8.8s8.186,4.211,16.541-.383c0,0,4.722-1.923,7.264.043a3.49,3.49,0,0,1,.753.8,5.831,5.831,0,0,1,.524.993c1.244,2.919.877,10.187.517,13.121-.392,3.187-.9,5.3,1.885,5.3.527-2.5,1.412-7.652,1.662-10.257.2-1.3.417-2.81.63-4.553.168-1.379.36-2.641.546-3.861.207-1.358.4-2.608.512-3.768A11.063,11.063,0,0,0,1608.309,1252.3Z" transform="translate(-1565.402 -1250.255)" fill="#301303"/>
        <path id="Path_173780" data-name="Path 173780" d="M1682.326,1869.418c-1.208.81,7.45,9.168,7.45,9.168l3.827-6.61-6.88-3.743S1683.534,1868.607,1682.326,1869.418Z" transform="translate(-1664.213 -1818.176)" fill="#fff"/>
        <path id="Path_173781" data-name="Path 173781" d="M1834.143,1869.259c-1.208-.81-4.4-1.186-4.4-1.186l-6.88,3.743,4.241,6.623S1835.35,1870.069,1834.143,1869.259Z" transform="translate(-1793.474 -1818.03)" fill="#fff"/>
      </g>
      <g id="Group_115895" data-name="Group 115895" transform="translate(349.251 233.1)">
        <path id="Path_173782" data-name="Path 173782" d="M2594.681,281.877a35.4,35.4,0,0,0,9.376-1.245v13.653l9.689-18.119c6.714-4.645,10.557-11.435,10.557-18.677,0-13.448-13.289-24.388-29.623-24.388s-29.622,10.94-29.622,24.388S2578.348,281.877,2594.681,281.877Z" transform="translate(-2385.577 -233.1)" fill="#2099dc" opacity="0.7"/>
        <path id="Path_173783" data-name="Path 173783" d="M2110.356,360.556h-20.214a6.51,6.51,0,0,1-6.51-6.51V323.763a6.51,6.51,0,0,1,6.106-6.5l34.11-2.119a6.51,6.51,0,0,1,6.9,6.949l-2.25,32.4a6.51,6.51,0,0,1-6.494,6.059h0l-5.156,14.755Z" transform="translate(-1943.145 -308.489)" fill="#fe8000" opacity="0.7"/>
        <path id="Path_173784" data-name="Path 173784" d="M401.273,301.231l1.632-37.479c.082-1.89-1.716-3.46-3.964-3.46H353.218c-2.4,0-4.247,1.777-3.932,3.777l5.908,37.479a3.8,3.8,0,0,0,3.932,2.9h0l10.5,13.273-1.181-13.273H397.31A3.722,3.722,0,0,0,401.273,301.231Z" transform="translate(-349.251 -258.089)" fill="#15b6be" opacity="0.7"/>
        <path id="Path_173785" data-name="Path 173785" d="M953.184,359.223l1.021,13.629,6.042-12.9,14.884,1.531A11.041,11.041,0,0,0,987.3,350.5V326.175a11.04,11.04,0,0,0-11.721-11.02l-31.245,1.929a11.058,11.058,0,0,0-10.36,11.02v19.18a11.012,11.012,0,0,0,9.911,10.983Z" transform="translate(-886.613 -308.489)" fill="#fdcd02" opacity="0.7"/>
        <path id="Path_173786" data-name="Path 173786" d="M1459.587,405.139a38.3,38.3,0,0,0,6.789-.446,34.726,34.726,0,0,0,20.113-10.2c5.2-5.571,7.482-12.4,6.424-19.215s-5.3-12.631-11.945-16.364a36.336,36.336,0,0,0-42.372,6.576c-5.2,5.571-7.482,12.395-6.424,19.215,1.3,8.393,7.469,15.221,16.6,18.474l9.563,18.347Z" transform="translate(-1344.222 -344.963)" fill="#7dc31f" opacity="0.7"/>
      </g>
    </g>
  </g>
</svg>
