<svg xmlns="http://www.w3.org/2000/svg" width="134.975" height="100" viewBox="0 0 134.975 100">
  <g id="t5-ic4" transform="translate(-180 -4273)">
    <path id="Path_172182" data-name="Path 172182" d="M-76-845a20,20,0,0,0-20,20v80h85L19.345-845Z" transform="translate(276 5118)" fill="#c9f6f9" opacity="0.8"/>
    <g id="rompecabezas" transform="translate(234.923 4283)">
      <path id="Path_172054" data-name="Path 172054" d="M220.432,442.422H204.257v6.487a3.219,3.219,0,0,0,3.219,3.219h9.738a3.219,3.219,0,0,0,3.219-3.219Z" transform="translate(-172.28 -373.3)" fill="#d8ecfe"/>
      <path id="Path_172055" data-name="Path 172055" d="M212.159,452.125h-4.687a3.219,3.219,0,0,1-3.218-3.218v-6.488h4.687v6.488A3.219,3.219,0,0,0,212.159,452.125Z" transform="translate(-172.277 -373.297)" fill="#b3dafe"/>
      <path id="Path_172056" data-name="Path 172056" d="M200.207,416.112H180.795a2.426,2.426,0,0,1,0-4.853h19.412a2.426,2.426,0,0,1,0,4.853Z" transform="translate(-150.436 -347.006)" fill="#eaf6ff"/>
      <path id="Path_172057" data-name="Path 172057" d="M185.479,416.111h-4.687a2.426,2.426,0,1,1,0-4.853h4.687a2.426,2.426,0,1,0,0,4.853Z" transform="translate(-150.432 -347.005)" fill="#d8ecfe"/>
      <path id="Path_172058" data-name="Path 172058" d="M129.022,237.1a4.043,4.043,0,0,1-4.043,4.045v11.768h-8.088V250.54A4.019,4.019,0,0,0,114.6,246.9a24.268,24.268,0,0,1-13.891-21.938v-.028H108.8v.027a4.044,4.044,0,1,0,8.088,0v-.027h8.088v8.115a4.043,4.043,0,0,1,4.043,4.043Z" transform="translate(-84.914 -189.795)" fill="#f6bf28"/>
      <path id="Path_172059" data-name="Path 172059" d="M120.015,250.54v2.369h-3.125V250.54A4.019,4.019,0,0,0,114.6,246.9a24.268,24.268,0,0,1-13.891-21.938v-.028h3.125v.028A24.268,24.268,0,0,0,117.73,246.9,4.019,4.019,0,0,1,120.015,250.54Z" transform="translate(-84.914 -189.795)" fill="#f6bf28" style="mix-blend-mode: multiply;isolation: isolate"/>
      <path id="Path_172060" data-name="Path 172060" d="M280.289,203.236v.027A24.265,24.265,0,0,1,266.407,225.2a4.025,4.025,0,0,0-2.3,3.64v3.515h-8.088V219.439a4.044,4.044,0,0,0,0-8.088v-8.115h8.088a4.044,4.044,0,0,1,8.088,0Z" transform="translate(-215.959 -168.093)" fill="#c9f6f9"/>
      <path id="Path_172061" data-name="Path 172061" d="M258.452,94.036h-8.088a4.044,4.044,0,0,0-8.088,0h-8.088V85.975a4.044,4.044,0,0,1,0-8.088V69.8A24.264,24.264,0,0,1,258.452,94.036Z" transform="translate(-194.123 -58.893)" fill="#ffe9ac"/>
      <path id="Path_172062" data-name="Path 172062" d="M120.935,81.93a4.043,4.043,0,0,0,4.043,4.045v8.062h-8.088v.027a4.044,4.044,0,1,1-8.088,0v-.027h-8.088A24.218,24.218,0,0,1,124.979,69.8v8.088A4.042,4.042,0,0,0,120.935,81.93Z" transform="translate(-84.914 -58.893)" fill="#ff805a"/>
      <path id="Path_172063" data-name="Path 172063" d="M124.979,69.8V70a24.213,24.213,0,0,0-21.14,24.04h-3.125A24.218,24.218,0,0,1,124.979,69.8Z" transform="translate(-84.914 -58.893)" fill="#ff805a" style="mix-blend-mode: multiply;isolation: isolate"/>
      <g id="Group_112099" data-name="Group 112099" transform="translate(0.077)">
        <path id="Path_172064" data-name="Path 172064" d="M140.285,74.4a1.172,1.172,0,1,0-1.995,1.23,23.012,23.012,0,0,1,3.385,10.9h-5.85a5.216,5.216,0,0,0-10.154,0h-5.884v-6.89a1.172,1.172,0,0,0-1.172-1.172,2.872,2.872,0,1,1,0-5.744,1.172,1.172,0,0,0,1.172-1.172V64.668a22.88,22.88,0,0,1,15.506,7.089,1.172,1.172,0,1,0,1.692-1.621,25.223,25.223,0,0,0-18.353-7.84H118.6a25.44,25.44,0,0,0-16.758,6.288,1.172,1.172,0,0,0,1.544,1.763,23.08,23.08,0,0,1,14.058-5.677v5.847a5.216,5.216,0,0,0,0,10.166v5.851h-6.916a1.172,1.172,0,0,0-1.172,1.172v.027a2.873,2.873,0,0,1-5.746,0v-.027a1.172,1.172,0,0,0-1.172-1.172H95.554a22.893,22.893,0,0,1,4.531-12.613,1.172,1.172,0,0,0-1.879-1.4,25.263,25.263,0,0,0-5.027,15.186c-.234,9.664,5.933,18.937,14.561,23.026a2.857,2.857,0,0,1,1.616,2.577v2.336c-2.406,0-4.045,1.289-4.045,3.6s1.587,3.6,4.045,3.6v5.332a4.539,4.539,0,0,0,4.39,4.39h9.74a4.539,4.539,0,0,0,4.39-4.39V122.84c2.744,0,4.046-1.456,4.045-3.6,0-2.233-1.405-3.6-4.045-3.6v-2.336a2.865,2.865,0,0,1,1.625-2.581A25.862,25.862,0,0,0,144.052,87.7a25.376,25.376,0,0,0-3.768-13.3Zm-31.541,34.209A23.221,23.221,0,0,1,95.555,88.877h5.839a5.217,5.217,0,0,0,10.179,0h5.871V95.82a1.172,1.172,0,0,0,1.172,1.172,2.872,2.872,0,0,1,0,5.744,1.172,1.172,0,0,0-1.172,1.172v11.735H111.7v-2.336a5.21,5.21,0,0,0-2.956-4.694Zm14.742,21.605h-9.74a2.147,2.147,0,0,1-2.047-2.5h13.833C125.535,128.968,125.139,130.219,123.486,130.219Zm4.835-9.722h-7.243a1.172,1.172,0,0,0-1.172,1.172s0,.005,0,.008,0,.005,0,.008a1.172,1.172,0,0,0,1.172,1.172h4.454v2.52H111.7v-2.52h4.273a1.172,1.172,0,0,0,1.172-1.172s0-.005,0-.008,0-.005,0-.008a1.172,1.172,0,0,0-1.172-1.172h-7.062a1.263,1.263,0,1,1,0-2.509h19.411A1.256,1.256,0,1,1,128.321,120.5Zm.176-11.888a5.219,5.219,0,0,0-2.965,4.7v2.336h-5.745v-10.7a5.216,5.216,0,0,0,0-10.166v-5.9H126.7a1.172,1.172,0,0,0,1.172-1.164,2.873,2.873,0,0,1,5.746,0,1.172,1.172,0,0,0,1.172,1.164h6.884A23.22,23.22,0,0,1,128.5,108.608Z" transform="translate(-78.628 -52.562)"/>
        <g id="Group_112098" data-name="Group 112098" transform="translate(0)">
          <g id="Group_112086" data-name="Group 112086" transform="translate(38.816)">
            <path id="Path_172065" data-name="Path 172065" d="M249.7,7.2a1.172,1.172,0,0,1-1.172-1.172V1.172a1.172,1.172,0,0,1,2.344,0V6.025A1.172,1.172,0,0,1,249.7,7.2Z" transform="translate(-248.524)"/>
          </g>
          <g id="Group_112087" data-name="Group 112087" transform="translate(55.797 5.2)">
            <path id="Path_172066" data-name="Path 172066" d="M357.8,39.674a1.17,1.17,0,0,1-.429-1.6l2.427-4.2a1.172,1.172,0,1,1,2.029,1.172l-2.426,4.2A1.262,1.262,0,0,1,357.8,39.674Z" transform="translate(-357.213 -33.284)"/>
          </g>
          <g id="Group_112090" data-name="Group 112090" transform="translate(5.211 19.408)">
            <g id="Group_112088" data-name="Group 112088" transform="translate(63.018)">
              <path id="Path_172067" data-name="Path 172067" d="M436.941,128.406a1.172,1.172,0,0,1,.429-1.6l4.2-2.426a1.172,1.172,0,0,1,1.172,2.029l-4.2,2.426A1.22,1.22,0,0,1,436.941,128.406Z" transform="translate(-436.784 -124.222)"/>
            </g>
            <g id="Group_112089" data-name="Group 112089" transform="translate(0 36.39)">
              <path id="Path_172068" data-name="Path 172068" d="M33.576,361.322a1.19,1.19,0,0,1,.429-1.6l4.2-2.426a1.172,1.172,0,1,1,1.172,2.029l-4.2,2.426A1.1,1.1,0,0,1,33.576,361.322Z" transform="translate(-33.429 -357.138)"/>
            </g>
          </g>
          <g id="Group_112091" data-name="Group 112091" transform="translate(19.408 5.2)">
            <path id="Path_172069" data-name="Path 172069" d="M126.883,39.245l-2.426-4.2a1.172,1.172,0,0,1,2.029-1.172l2.426,4.2a1.189,1.189,0,0,1-.429,1.6A1.221,1.221,0,0,1,126.883,39.245Z" transform="translate(-124.299 -33.284)"/>
          </g>
          <g id="Group_112094" data-name="Group 112094" transform="translate(5.2 19.408)">
            <g id="Group_112092" data-name="Group 112092">
              <path id="Path_172070" data-name="Path 172070" d="M38.151,128.836l-4.2-2.426a1.172,1.172,0,1,1,1.172-2.029l4.2,2.426a1.116,1.116,0,0,1,.429,1.6A1.194,1.194,0,0,1,38.151,128.836Z" transform="translate(-33.362 -124.222)"/>
            </g>
            <g id="Group_112093" data-name="Group 112093" transform="translate(63.029 36.39)">
              <path id="Path_172071" data-name="Path 172071" d="M441.573,361.752l-4.2-2.427a1.172,1.172,0,0,1,1.172-2.029l4.2,2.426a1.153,1.153,0,0,1,.429,1.6A1.079,1.079,0,0,1,441.573,361.752Z" transform="translate(-436.784 -357.139)"/>
            </g>
          </g>
          <g id="Group_112097" data-name="Group 112097" transform="translate(0 38.816)">
            <g id="Group_112095" data-name="Group 112095">
              <path id="Path_172072" data-name="Path 172072" d="M6.1,250.791H1.249a1.172,1.172,0,0,1,0-2.344H6.1a1.172,1.172,0,1,1,0,2.344Z" transform="translate(-0.077 -248.447)"/>
            </g>
            <g id="Group_112096" data-name="Group 112096" transform="translate(72.779)">
              <path id="Path_172073" data-name="Path 172073" d="M471.933,250.791H467.08a1.172,1.172,0,0,1,0-2.344h4.853a1.172,1.172,0,0,1,0,2.344Z" transform="translate(-465.908 -248.447)"/>
            </g>
          </g>
        </g>
      </g>
    </g>
  </g>
</svg>
