<svg xmlns="http://www.w3.org/2000/svg" width="135" height="100" viewBox="0 0 135 100">
  <g id="t5-ic2" transform="translate(-180 -2544)">
    <path id="Path_172183" data-name="Path 172183" d="M-76-845a20,20,0,0,0-20,20v80h85L19.345-845Z" transform="translate(276 3389)" fill="#c9f6f9" opacity="0.8"/>
    <g id="examen" transform="translate(235 2554)">
      <g id="Group_112175" data-name="Group 112175" transform="translate(1.563 1.563)">
        <path id="Path_172184" data-name="Path 172184" d="M309.58,315.184a3.125,3.125,0,0,1,4.419,0l1.838,1.838,5.417-5.417a3.125,3.125,0,1,1,4.419,4.419l-7.627,7.627a3.125,3.125,0,0,1-4.419,0L309.58,319.6a3.125,3.125,0,0,1,0-4.419Zm23.671,2.443A15.625,15.625,0,0,0,302,317.419q0,.1,0,.208a15.625,15.625,0,1,0,31.25,0Z" transform="translate(-256.377 -256.377)" fill="#f6bf28" fill-rule="evenodd"/>
        <path id="Path_172185" data-name="Path 172185" d="M349.981,362.093a3.125,3.125,0,1,0-4.419,4.419l4.047,4.047a3.125,3.125,0,0,0,4.419,0l7.627-7.627a3.125,3.125,0,0,0-4.419-4.419l-5.417,5.417Z" transform="translate(-292.358 -303.286)" fill="#fff" fill-rule="evenodd"/>
        <path id="Path_172186" data-name="Path 172186" d="M159.844,410.044a15.554,15.554,0,0,1-2.97-9.167q0-.1,0-.208H136.249v3.125a6.25,6.25,0,0,1-6.25,6.25Z" transform="translate(-111.249 -339.627)" fill="#dee4f0" fill-rule="evenodd"/>
        <path id="Path_172187" data-name="Path 172187" d="M68.878,71.042H89.5a15.63,15.63,0,0,1,12.5-15.1V16.25A6.254,6.254,0,0,0,95.734,10H50.152a6.25,6.25,0,0,1,6.226,6.25V74.167a6.25,6.25,0,1,0,12.5,0Z" transform="translate(-43.878 -10)" fill="#fff" fill-rule="evenodd"/>
        <path id="Path_172188" data-name="Path 172188" d="M10,19.376H22.5V16.251A6.25,6.25,0,0,0,16.274,10H16.25A6.25,6.25,0,0,0,10,16.251Z" transform="translate(-10 -10.001)" fill="#d2e1f1" fill-rule="evenodd"/>
      </g>
      <g id="Group_112176" data-name="Group 112176" transform="translate(0 0)">
        <path id="Path_172189" data-name="Path 172189" d="M161.561,63.125h20.625a1.562,1.562,0,0,0,0-3.125H161.561a1.562,1.562,0,1,0,0,3.125Z" transform="translate(-134.999 -50.625)"/>
        <path id="Path_172190" data-name="Path 172190" d="M220.153,101.334H206.559a1.562,1.562,0,1,0,0,3.125h13.594a1.562,1.562,0,1,0,0-3.125Z" transform="translate(-172.965 -85.501)"/>
        <path id="Path_172191" data-name="Path 172191" d="M175,308H161.562a1.563,1.563,0,0,0,0,3.125H175A1.563,1.563,0,1,0,175,308Z" transform="translate(-135 -259.877)"/>
        <path id="Path_172192" data-name="Path 172192" d="M182.187,142.668H161.562a1.562,1.562,0,0,0,0,3.125h20.625a1.562,1.562,0,0,0,0-3.125Z" transform="translate(-134.999 -120.376)"/>
        <path id="Path_172193" data-name="Path 172193" d="M161.559,104.459a1.562,1.562,0,1,0,0-3.125h0a1.562,1.562,0,0,0,0,3.125Z" transform="translate(-134.997 -85.501)"/>
        <path id="Path_172194" data-name="Path 172194" d="M161.561,187.126H175A1.562,1.562,0,0,0,175,184H161.561a1.562,1.562,0,1,0,0,3.125Z" transform="translate(-134.999 -155.251)"/>
        <path id="Path_172195" data-name="Path 172195" d="M182.187,225.335H161.562a1.562,1.562,0,0,0,0,3.125h20.625a1.562,1.562,0,0,0,0-3.125Z" transform="translate(-134.999 -190.127)"/>
        <path id="Path_172196" data-name="Path 172196" d="M182.187,266.668H161.562a1.562,1.562,0,1,0,0,3.125h20.625a1.562,1.562,0,0,0,0-3.125Z" transform="translate(-134.999 -225.001)"/>
        <path id="Path_172197" data-name="Path 172197" d="M62.813,45.625c-.527,0-1.048.025-1.563.072V7.813a7.769,7.769,0,0,0-2.315-5.549A7.711,7.711,0,0,0,53.474,0H7.812A7.821,7.821,0,0,0,0,7.813v3.125A1.562,1.562,0,0,0,1.563,12.5H12.5V65.729a7.821,7.821,0,0,0,7.812,7.812H49.4A17.184,17.184,0,1,0,62.813,45.625ZM12.5,9.375H3.125V7.812A4.693,4.693,0,0,1,7.812,3.125h0A4.693,4.693,0,0,1,12.5,7.813ZM25,65.729a4.687,4.687,0,0,1-9.375,0V7.813a7.772,7.772,0,0,0-1.567-4.687H53.429a4.691,4.691,0,0,1,4.7,4.687V46.275a17.266,17.266,0,0,0-10.442,8.39,1.559,1.559,0,0,0-.495-.081H26.562a1.562,1.562,0,1,0,0,3.125H46.4a17.066,17.066,0,0,0-.683,3.333H26.562A1.563,1.563,0,0,0,25,62.6Zm1.559,4.687a7.772,7.772,0,0,0,1.566-4.687V64.167H45.678a17.058,17.058,0,0,0,1.723,6.25H26.559Zm36.254,6.458A14.062,14.062,0,1,1,76.875,62.813,14.078,14.078,0,0,1,62.813,76.875Z" transform="translate(0 0)"/>
        <path id="Path_172198" data-name="Path 172198" d="M354.334,348.983a4.693,4.693,0,0,0-6.629,0l-4.312,4.313-.733-.733a4.687,4.687,0,1,0-6.629,6.629l4.047,4.047a4.693,4.693,0,0,0,6.629,0l7.627-7.627a4.687,4.687,0,0,0,0-6.629Zm-2.21,4.419-7.627,7.627a1.564,1.564,0,0,1-2.209,0l-4.047-4.047a1.562,1.562,0,1,1,2.209-2.209l1.838,1.838a1.563,1.563,0,0,0,2.21,0l5.417-5.417a1.562,1.562,0,0,1,2.209,2.209Z" transform="translate(-282.37 -293.298)"/>
      </g>
    </g>
  </g>
</svg>
