<svg xmlns="http://www.w3.org/2000/svg" width="276" height="165.658" viewBox="0 0 276 165.658">
  <g id="t5-lt6" transform="translate(-199.08 -250.358)">
    <path id="Path_174856" data-name="Path 174856" d="M216.005,428.543s-33.91-39-5.735-81.231c25-37.467,54.145-34.906,75.529-19.7,9.108,6.476,35.366.8,57.716-37.326,30.479-51.991,136.128-20.458,116.865,59.531-9.322,38.709,28.371,40.116,9.165,78.81Z" transform="translate(0 -12.92)" fill="#ebf3fa"/>
    <g id="Group_116393" data-name="Group 116393" transform="translate(220.855 362.788)">
      <rect id="Rectangle_37527" data-name="Rectangle 37527" width="34.94" height="34.94" transform="matrix(0.736, -0.677, 0.677, 0.736, 0, 23.661)" fill="#dfebfd"/>
      <rect id="Rectangle_37528" data-name="Rectangle 37528" width="34.94" height="7.037" transform="matrix(0.736, -0.677, 0.677, 0.736, 0, 23.661)" fill="#bed7fb"/>
    </g>
    <g id="Group_116394" data-name="Group 116394" transform="translate(318.845 251.564)">
      <path id="Path_174857" data-name="Path 174857" d="M1417.752,308.718l17.629,2.515-11.7-7.974-.595,2.556-4.287.776Z" transform="translate(-1406.333 -298.771)" fill="#9ec3f6"/>
      <path id="Path_174858" data-name="Path 174858" d="M1340.718,308.637l-14.67-7.563-14.378-.723Z" transform="translate(-1311.671 -296.176)" fill="#cde0fb"/>
      <path id="Path_174859" data-name="Path 174859" d="M1472.841,266.053l11.7,7.974-9.056-12.462Z" transform="translate(-1455.492 -261.565)" fill="#cde0fb"/>
    </g>
    <g id="Group_116398" data-name="Group 116398" transform="translate(392.965 271.522)">
      <path id="Path_174860" data-name="Path 174860" d="M2179.763,658.194l-4.434,3.182-4.457-3.148a5.458,5.458,0,0,1,8.891-.035Z" transform="translate(-2152.504 -633.427)" fill="#fff"/>
      <g id="Group_116395" data-name="Group 116395" transform="translate(12.039 14.738)">
        <path id="Path_174861" data-name="Path 174861" d="M2122.858,583.886a13.177,13.177,0,0,0-10.787,5.606l2.815,1.976a9.747,9.747,0,0,1,15.9-.057l2.8-2.01A13.19,13.19,0,0,0,2122.858,583.886Z" transform="translate(-2112.071 -583.886)" fill="#fff"/>
      </g>
      <g id="Group_116396" data-name="Group 116396" transform="translate(0 0)">
        <path id="Path_174862" data-name="Path 174862" d="M2023.059,446.969a27.884,27.884,0,0,0-22.826,11.855l2.815,1.976a24.475,24.475,0,0,1,39.919-.149l2.792-2.01A27.886,27.886,0,0,0,2023.059,446.969Z" transform="translate(-2000.233 -446.969)" fill="#fff"/>
      </g>
      <g id="Group_116397" data-name="Group 116397" transform="translate(6.548 8.064)">
        <path id="Path_174863" data-name="Path 174863" d="M2077.341,521.884a19.946,19.946,0,0,0-16.278,8.409l2.814,1.976a16.536,16.536,0,0,1,26.857-.1l2.792-2A19.943,19.943,0,0,0,2077.341,521.884Z" transform="translate(-2061.063 -521.884)" fill="#fff"/>
      </g>
    </g>
    <path id="Path_174864" data-name="Path 174864" d="M370.271,313.442l-4.065-.093c1.306,1.693,1.6,3.252.786,4.572-.813,1.346-2.759,2.452-5.665,3.292a52.532,52.532,0,0,0-71.934-65.7l-.007,0c-2.258-.689-4.457-1.254-6.579-1.684-10.712-2.174-18.314-.671-21.4,4.23-2.938,4.662-1.339,11.68,4.492,19.865l0,0a52.872,52.872,0,0,0-3.479,8c-10.956.653-16.821,2.581-18.953,6.073-2.479,4.065.906,9.521,11.743,14.826,1.493.733,3.092,1.453,4.772,2.172a52.513,52.513,0,0,0,100.311,14.781c5.345-1.106,8.863-2.839,10.263-5.132A4.728,4.728,0,0,0,370.271,313.442Zm-12.542,8.6a80.956,80.956,0,0,1-13.182,1.066,193.126,193.126,0,0,1-27.023-1.82q1.229-2.675,2.406-5.491a74.3,74.3,0,0,0,8.751,2.379,44.328,44.328,0,0,0,8.738.971c6.117,0,10.5-1.766,12.664-5.2a8.983,8.983,0,0,0,.871-1.8h-3.118c-.052.095-.107.189-.164.28-1.608,2.552-5.2,3.871-10.246,3.87a41.609,41.609,0,0,1-8.179-.914,71.271,71.271,0,0,1-8.236-2.228q1.126-2.818,2.186-5.737c1.9-5.241,3.528-10.437,4.845-15.426a148.631,148.631,0,0,0,32.52.812,49.732,49.732,0,0,1,1.02,10.059A49.146,49.146,0,0,1,357.729,322.039Zm-64.968,26.028c-1.517-.55-2.286-2.727-2.665-4.456a39.059,39.059,0,0,1-.313-11.1c.2-2.29.519-4.726.95-7.273a135.059,135.059,0,0,1,18.367,6.355c-1.35,2.328-2.716,4.487-4.081,6.444a39.06,39.06,0,0,1-7.356,8.319C296.264,347.44,294.278,348.617,292.761,348.067Zm17.712-18.912a137.85,137.85,0,0,0-19.241-6.663q.345-1.774.755-3.607,2.718.618,5.51,1.195c5.444,1.113,10.876,2.059,16.192,2.824Q312.109,326.172,310.473,329.155ZM298.7,318.107q-3.155-.649-6.214-1.355c.959-3.991,2.137-8.152,3.513-12.391A121.609,121.609,0,0,0,317.3,314.87q-1.3,3.093-2.657,6.019C309.415,320.138,304.065,319.208,298.7,318.107Zm-17.463-53.872c3.974,8.143,11.634,14.852,19.876,19.3-2,4.351-3.9,9-5.648,13.817q-.489,1.349-.953,2.692c-10.446-6.8-19.289-14.6-25.091-22.152l0,0A49.685,49.685,0,0,1,281.233,264.235ZM325.9,256.7c1.517.55,2.286,2.727,2.665,4.456a39.061,39.061,0,0,1,.313,11.1,110.771,110.771,0,0,1-2.9,16.584,79.48,79.48,0,0,1-21.208-6.555,112.83,112.83,0,0,1,8.872-15.555A39.059,39.059,0,0,1,321,258.412a7.563,7.563,0,0,1,4.066-1.851A2.439,2.439,0,0,1,325.9,256.7Zm-.614,34.842c-1.282,4.824-2.862,9.849-4.7,14.923q-1.064,2.933-2.2,5.768a119.057,119.057,0,0,1-21.461-10.651q.559-1.635,1.155-3.279c1.71-4.714,3.565-9.25,5.51-13.5A81.928,81.928,0,0,0,325.284,291.542Zm21.809-23.657a49.3,49.3,0,0,1,12.821,22.173,145.128,145.128,0,0,1-31.183-.78,113.14,113.14,0,0,0,2.917-16.78c.483-5.555.424-12.135-1.828-15.838A49.16,49.16,0,0,1,347.093,267.885ZM312.132,253.4a49.541,49.541,0,0,1,10.089,1.029c-3.885,1.691-7.852,6.4-10.862,10.714a115.515,115.515,0,0,0-9.065,15.875c-7.844-4.262-15.252-10.8-18.794-18.492A49.284,49.284,0,0,1,312.132,253.4Zm-48.315,6.189c1.608-2.552,5.2-3.87,10.246-3.87a41.61,41.61,0,0,1,8.178.914q1.719.348,3.508.819h0a52.754,52.754,0,0,0-18.27,17.752l0,0C263.02,268.587,261.68,262.975,263.816,259.586Zm4.118,21.041v0c6.109,7.635,15.113,15.441,25.633,22.211-1.492,4.54-2.764,9-3.792,13.278a184.859,184.859,0,0,1-26.868-8.482,49.242,49.242,0,0,1,5.025-27Zm-10.3,24.631c-9.45-4.612-13.769-9.063-11.836-12.222,1.559-2.559,7.237-4.292,15.928-4.932a52.778,52.778,0,0,0-2,18.14C259,305.925,258.311,305.592,257.631,305.259Zm31.648,13q-.4,1.8-.746,3.553-.91-.221-1.82-.429a110.544,110.544,0,0,0-21.525-2.89,48.338,48.338,0,0,1-1.945-8.165A196.239,196.239,0,0,0,289.279,318.255Zm-23.058,3.055a111.367,111.367,0,0,1,19.874,2.781q.967.22,1.933.458c-.464,2.706-.806,5.291-1.017,7.721-.4,4.6-.429,9.912.855,13.7a49.722,49.722,0,0,1-21.645-24.662Zm30.913,28.7c3.659-1.917,7.335-6.322,10.166-10.38,1.46-2.093,2.919-4.409,4.36-6.909a139.762,139.762,0,0,1,23.793,13.765A49.533,49.533,0,0,1,297.135,350.008Zm49.958-12.174a49.089,49.089,0,0,1-9,7.13,142.687,142.687,0,0,0-25.072-14.68c1.206-2.21,2.394-4.544,3.555-6.98a213.654,213.654,0,0,0,22.8,1.868c1.839.053,3.625.053,5.358.04a95.33,95.33,0,0,0,11.916-.8A49.135,49.135,0,0,1,347.093,337.834Z" transform="translate(-38.917 0)" fill="#adcbf9"/>
    <g id="Group_116420" data-name="Group 116420" transform="translate(220.675 276.813)">
      <g id="Group_116399" data-name="Group 116399" transform="translate(0 0)">
        <path id="Path_174865" data-name="Path 174865" d="M1071.41,925.757l-7.26,86.329s-.761,5.233,3.132,5.242c6.4.015,31.855,0,31.855,0s-4.817-1.089-4.759-3.54c.069-2.889,8.486-88.848,8.486-88.848Z" transform="translate(-992.571 -878.78)" fill="#d86713"/>
        <path id="Path_174866" data-name="Path 174866" d="M1118.547,1002.776c-1.259,0-25.572.08-31.8,0-2.716-.034-3.193-2.415-3.215-3.956a7.725,7.725,0,0,1,.083-1.285l.189-2.244.481-5.719.425-5.053.546-6.493.46-5.48,5.159-61.342,31.454-.816s-3.545,35.973-6.053,62.159c-.28,2.918-.546,5.715-.792,8.327q-.12,1.251-.231,2.443c-.233,2.478-.445,4.752-.63,6.761-.1,1.059-.187,2.042-.269,2.944-.32,3.531-.508,5.786-.51,6.215a3.617,3.617,0,0,0,.061.7C1114.417,1002.686,1118.074,1002.776,1118.547,1002.776Z" transform="translate(-1009.915 -865.794)" fill="#f99746"/>
        <path id="Path_174867" data-name="Path 174867" d="M422.463,496.123l17.685,71.038,2.421,9.729,8.237,33.087H603.835l-30.36-113.854Z" transform="translate(-420.012 -496.123)" fill="#f99746"/>
        <path id="Path_174868" data-name="Path 174868" d="M402.142,496.122l-2.451.817,27.536,115.509,3.259-2.471Z" transform="translate(-399.691 -496.122)" fill="#ee9849"/>
        <path id="Path_174869" data-name="Path 174869" d="M655.5,1556.281H807.585l4.2-2.471H658.757Z" transform="translate(-627.962 -1439.955)" fill="#d86713"/>
        <rect id="Rectangle_37529" data-name="Rectangle 37529" width="32.929" height="1.565" transform="translate(113.874 138.581) rotate(180)" fill="#f1a34f"/>
        <path id="Path_174870" data-name="Path 174870" d="M594.392,589l-24.831-91.369H420.188v-1.505H571.445l24.748,92.672Z" transform="translate(-417.982 -496.122)" fill="#f1a34f"/>
        <path id="Path_174871" data-name="Path 174871" d="M1121.664,1576.76l-.17,1.2-30.968,6.256.425-5.053.2-2.4Z" transform="translate(-1016.161 -1460.435)" fill="#d86713"/>
        <path id="Path_174872" data-name="Path 174872" d="M1118.554,1687.787c-1.259,0-25.572.08-31.8,0-2.717-.034-3.193-2.415-3.215-3.957l30.822-5.8c-.32,3.531-.508,5.786-.51,6.215a3.6,3.6,0,0,0,.061.7C1114.424,1687.7,1118.082,1687.787,1118.554,1687.787Z" transform="translate(-1009.923 -1550.805)" fill="#d86713" opacity="0.4"/>
        <path id="Path_174873" data-name="Path 174873" d="M684.71,1256.47l-67.223,23.049-8.237-33.088Z" transform="translate(-586.692 -1165.664)" fill="#d86713" opacity="0.4"/>
        <path id="Path_174874" data-name="Path 174874" d="M422.46,496.122H573.473l24.5,91.5H444.462Z" transform="translate(-420.009 -496.122)" fill="#699dee"/>
      </g>
      <path id="Path_174875" data-name="Path 174875" d="M1366.256,1419.94a5.175,5.175,0,0,0-4.853-4.063,3.252,3.252,0,0,0-3.273,4.063,5.175,5.175,0,0,0,4.853,4.063A3.252,3.252,0,0,0,1366.256,1419.94Z" transform="translate(-1254.891 -1316.87)" fill="#d86713"/>
      <path id="Path_174876" data-name="Path 174876" d="M642.711,624.291H501.318L485.3,560.5l-1.227-4.891-1.048-4.173-.838-3.341-1.618-6.443H619.93l.1.355L621.7,548.1l.921,3.341,1.151,4.173,1.349,4.891Z" transform="translate(-471.868 -536.753)" fill="#e9f3fe"/>
      <path id="Path_174877" data-name="Path 174877" d="M642.711,626.317H501.318L485.3,562.529l-1.227-4.891-1.048-4.173-.838-3.34-1.618-6.443H619.93l.1.355,1.678,6.089.921,3.34,1.151,4.173,1.349,4.891Z" transform="translate(-471.868 -538.561)" fill="#e9f3fe"/>
      <path id="Path_174878" data-name="Path 174878" d="M621.7,548.1H482.192l-1.618-6.443h139.3l.151.355Z" transform="translate(-471.868 -536.753)" fill="#afcdfb"/>
      <g id="Group_116400" data-name="Group 116400" transform="translate(12.545 6.397)">
        <path id="Path_174879" data-name="Path 174879" d="M516.273,561.445a.924.924,0,0,1,.918-1.223,1.671,1.671,0,0,1,1.528,1.223.924.924,0,0,1-.918,1.223A1.671,1.671,0,0,1,516.273,561.445Z" transform="translate(-516.235 -559.719)" fill="#e9f3fe"/>
        <ellipse id="Ellipse_5620" data-name="Ellipse 5620" cx="1.08" cy="1.385" rx="1.08" ry="1.385" transform="translate(3.571 1.619) rotate(-48.551)" fill="#e9f3fe"/>
        <path id="Path_174880" data-name="Path 174880" d="M594.674,561.445a.924.924,0,0,1,.918-1.223,1.671,1.671,0,0,1,1.528,1.223.924.924,0,0,1-.918,1.223A1.671,1.671,0,0,1,594.674,561.445Z" transform="translate(-586.197 -559.719)" fill="#e9f3fe"/>
      </g>
      <g id="Group_116402" data-name="Group 116402" transform="translate(34.127 15.458)">
        <path id="Path_174881" data-name="Path 174881" d="M957.785,873.4H943.8c-.134-1.093-.252-2.248-.358-3.453-.188-2.161-.331-4.486-.437-6.9q-.038-.837-.068-1.687c-.027-.721-.05-1.451-.071-2.184-.034-1.245-.061-2.5-.08-3.772a.008.008,0,0,1,0,0c-.024-1.615-.036-3.242-.04-4.862h0q0-.607,0-1.212h0c0-.38,0-.758,0-1.135.012-3.488.065-6.909.139-10.09.161-7.038.422-12.9.56-15.722h0c.056-1.157.092-1.8.092-1.8h0c.032,0,.244.044.577.124.245.06.556.141.909.25h0c.319.1.671.216,1.042.356h0a12.182,12.182,0,0,1,1.947.94l.029.015a5.616,5.616,0,0,1,2.417,2.641c.369.964,1.233,6.143,2.277,13.021.029.2.058.393.089.593.552,3.652,1.149,7.751,1.748,11.935.635,4.435,1.269,8.964,1.853,13.161C956.936,867.213,957.4,870.567,957.785,873.4Z" transform="translate(-918.417 -801.106)" fill="#2b478b"/>
        <path id="Path_174882" data-name="Path 174882" d="M894.387,1192.954H878.113c-.312-1.342-.6-2.638-.864-3.852a42.034,42.034,0,0,1-1.16-7.565,2.206,2.206,0,0,1,.721-1.647,3.546,3.546,0,0,1,1.166-.688,13.856,13.856,0,0,1,5.41-.475c.7.044,1.413.112,2.115.2a61.662,61.662,0,0,1,7.458,1.427s.24.971.524,2.668c.213,1.273.451,2.957.627,4.945.1,1.155.185,2.413.231,3.755C894.356,1192.121,894.371,1192.534,894.387,1192.954Z" transform="translate(-858.934 -1120.656)" fill="#233862"/>
        <path id="Path_174883" data-name="Path 174883" d="M820.306,1188.529l-.162,1.176-.788,5.709-.134.974-.489,3.539h-16.96c-.132-2.339-.253-4.618-.277-6.605,0-.221,0-.436,0-.648,0-2.992.263-5.211,1.121-5.771.972-.635,4.2-.46,7.631-.04.342.041.687.086,1.032.133,2,.269,4,.6,5.615.888.836.149,1.565.285,2.133.394C819.827,1188.431,820.306,1188.529,820.306,1188.529Z" transform="translate(-792.368 -1127.629)" fill="#c65447"/>
        <path id="Path_174884" data-name="Path 174884" d="M801.494,816.25s9.317-6.024,16-2.943a12.524,12.524,0,0,1,3.149,2.819c2.416,2.662,7.136,44.944,7.136,44.944s-13.4,4.538-26.285-1.54Z" transform="translate(-792.369 -793.839)" fill="#fff"/>
        <path id="Path_174885" data-name="Path 174885" d="M955.055,819.159s9.432,3.865,10.71,6.836,5.43,21.209,5.43,23.348-7.229.478-8.393-2.971c-.966-2.864-4.226-11.664-5.945-17.23Z" transform="translate(-929.4 -799.844)" fill="#2b478b"/>
        <g id="Group_116401" data-name="Group 116401" transform="translate(12.281)">
          <path id="Path_174886" data-name="Path 174886" d="M876.354,776.664a10.613,10.613,0,0,1-7.3-1.486,21,21,0,0,0,1.556-5.494c.008-.065.015-.128.021-.188a5.607,5.607,0,0,0,.026-1.258h5.323s1.455.665,1.455,1.125q0,.369.006.706c.011.612.035,1.147.067,1.606a14.569,14.569,0,0,0,.273,2.2S878.434,776.256,876.354,776.664Z" transform="translate(-864.94 -754.403)" fill="#ffb27d"/>
          <path id="Path_174887" data-name="Path 174887" d="M889.47,779.809a7.357,7.357,0,0,1-6.9-1.99c-.075-.081-.113-.129-.113-.129.043-.021.087-.04.134-.06,1.5-.608,4.908-.125,6.811.573C889.414,778.816,889.438,779.35,889.47,779.809Z" transform="translate(-876.899 -762.539)" fill="#e2915a"/>
          <path id="Path_174888" data-name="Path 174888" d="M862.856,679.129c.721,3.879,5.725,3.751,7.888,3.507.609-.068.992-.145.992-.145.686-.183,1.069-1.264,1.247-2.68a22.056,22.056,0,0,0-.566-7.968c-.713-1.583-2.055-3.3-7.095-2.06S861.931,674.159,862.856,679.129Z" transform="translate(-858.502 -666.169)" fill="#ffb27d"/>
          <path id="Path_174889" data-name="Path 174889" d="M844.92,643.231a11.524,11.524,0,0,0-3.476-2.837c-2.85-1.542-6.5.049-6.513.055-4.117,1.81-5.192,4.96-3.009,9.866,2.308,5.188,4.505,4.6,4.505,4.6s-.466-.29-.424-1.907c0-.092.006-.169.01-.235a1.088,1.088,0,0,0-.343-.885c-.511-.456-.761-1.837-.332-2.221.517-.464,1.243.1,1.474.533a.632.632,0,0,0,.9.2c1.281-.81.449-2.43,1.673-3.421s3.709-.159,5.546-.949C847.339,645.138,845.439,643.95,844.92,643.231Z" transform="translate(-830.817 -639.722)" fill="#233862"/>
        </g>
        <path id="Path_174890" data-name="Path 174890" d="M799.8,872.274H779.515c.145-4.207.331-9.23.527-14.315.05-1.318.1-2.642.154-3.956.023-.557.044-1.11.066-1.663.448-11.293.893-21.491.987-22.041.213-1.243.414-2.3.632-3.22.637-2.675,1.429-4.142,3.156-5.4.168-.128,1.55-.824,2.767-1.43.994-.493,1.878-.925,1.905-.937h0a1.952,1.952,0,0,1,.657.793,13.226,13.226,0,0,1,.732,1.614,87.015,87.015,0,0,1,2.624,8.75.034.034,0,0,1,0,.008.009.009,0,0,1,0,0h0c.448,1.758.77,3.126.861,3.52.156.663.36,1.945.6,3.683v0c.328,2.37.719,5.585,1.133,9.233h0q.064.563.128,1.137.073.656.149,1.327h0c.016.144.032.287.046.431h0c.16,1.445.32,2.935.48,4.452a.007.007,0,0,0,0,0c.136,1.25,2.032,2.155,2.164,3.428.01.093.019.28.032.541.024.538.054,1.392.089,2.38.015.44.031.906.048,1.383.074,2.117.166,4.437.269,5.553,0,.052.01.119.013.2.012.223.022.551.031.962C799.791,869.6,799.8,870.848,799.8,872.274Z" transform="translate(-772.756 -799.976)" fill="#2b478b"/>
        <path id="Path_174891" data-name="Path 174891" d="M795.666,963.717c-.006.026-.323,11.42,8.248,12.8s2.876,1.75,2.876,1.75-16.126-.685-16.392-1.111S795.666,963.717,795.666,963.717Z" transform="translate(-782.459 -928.841)" fill="#233862"/>
        <path id="Path_174892" data-name="Path 174892" d="M781.243,1108.973s-.161.114-.469.313a.121.121,0,0,0-.016.01,40.244,40.244,0,0,1-10.838,4.636q-.89.241-1.838.453c.05-1.318.1-2.641.153-3.955a16.576,16.576,0,0,1-2.124-.294c.022-.174.046-.347.068-.52.719-.3,1.433-.579,2.122-.849.561-.219,1.1-.428,1.618-.622,2.321-.881,4.042-1.479,4.042-1.479l6.87,2.176Z" transform="translate(-760.795 -1056.402)" fill="#233862"/>
        <path id="Path_174893" data-name="Path 174893" d="M738.993,852.353s-.883.22-2.288.5a.037.037,0,0,0-.015,0,56.307,56.307,0,0,1-10.84,1.212c-.574-.006-1.138-.029-1.684-.071a16.576,16.576,0,0,1-2.124-.294,6.609,6.609,0,0,1-3.393-1.6c-5.789-5.9,3.159-27.058,5.04-29.117,2.2-2.4,6.205-3.247,8.419-3.537l.267-.034c.778-.093,1.278-.112,1.305-.113h0s-.174.558-.464,1.5c-.113.366-.244.791-.388,1.265-1.36,4.452-3.983,13.2-5.139,18.138a12.5,12.5,0,0,0-.547,3.487c.451,1.685,5.128,2.552,8.091,2.935,1.236.16,2.174.235,2.384.251a.291.291,0,0,1,.044,0l.171.7.41,1.685.4,1.656Z" transform="translate(-716.727 -799.972)" fill="#2b478b"/>
        <path id="Path_174894" data-name="Path 174894" d="M908.758,1008.23l-19.88-.838,4.033-24.776,19.88.838Z" transform="translate(-870.347 -945.705)" fill="#f99746"/>
        <path id="Path_174895" data-name="Path 174895" d="M902.044,1075.239s3.87-.27,4.064.632c.453,2.1-3.327,3.829-4.552,3.711S901.153,1075.1,902.044,1075.239Z" transform="translate(-881.108 -1028.324)" fill="#ffb27d"/>
        <path id="Path_174896" data-name="Path 174896" d="M1065.6,1031.944s-3.7-1.158-4.1-.325c-.927,1.941,2.351,4.495,3.57,4.663S1066.5,1032.013,1065.6,1031.944Z" transform="translate(-1024.24 -989.165)" fill="#ffb27d"/>
        <path id="Path_174897" data-name="Path 174897" d="M857.7,807.745a7.223,7.223,0,0,0-2.444,1.947s6.086,10.566,6.058,10.467S859.26,809.1,857.7,807.745Z" transform="translate(-840.347 -789.658)" fill="#233862"/>
        <path id="Path_174898" data-name="Path 174898" d="M948.381,809.129a4.641,4.641,0,0,1,1.8,1.838l.723,9.224s-1.545-6.77-2.331-9.83A5.181,5.181,0,0,1,948.381,809.129Z" transform="translate(-923.445 -790.893)" fill="#233862"/>
        <path id="Path_174899" data-name="Path 174899" d="M987.57,980.105a.9.9,0,0,1,1.062-.608c.905.08,5.989.33,5.989.33s.981-.016.89.612Z" transform="translate(-958.415 -942.917)" fill="#c65447"/>
        <path id="Path_174900" data-name="Path 174900" d="M933.4,763.705a2.122,2.122,0,0,0,1.724.415c.631-.111.985-.932.985-.932A4.768,4.768,0,0,0,933.4,763.705Z" transform="translate(-910.072 -749.871)" fill="#fff"/>
      </g>
      <g id="Group_116419" data-name="Group 116419" transform="translate(78.076 18.771)">
        <g id="Group_116406" data-name="Group 116406" transform="translate(54.131)">
          <path id="Path_174901" data-name="Path 174901" d="M1647.316,688.729l-14.685.054-4.762-18.231,14.685-.054Z" transform="translate(-1627.869 -670.498)" fill="#fff"/>
          <g id="Group_116405" data-name="Group 116405" transform="translate(4.04 2.126)">
            <path id="Path_174902" data-name="Path 174902" d="M1678.826,690.516l-6.157.023-.071-.27,6.158-.023Z" transform="translate(-1671.823 -690.246)" fill="#adcbf9"/>
            <path id="Path_174903" data-name="Path 174903" d="M1674.917,697.478l-7.731.029-.071-.27,7.731-.029Z" transform="translate(-1666.931 -696.459)" fill="#adcbf9"/>
            <g id="Group_116403" data-name="Group 116403" transform="translate(0 4.46)">
              <path id="Path_174904" data-name="Path 174904" d="M1675.51,731.946l-10.042.037-.07-.27,10.041-.037Z" transform="translate(-1665.398 -731.676)" fill="#adcbf9"/>
              <path id="Path_174905" data-name="Path 174905" d="M1677.666,740.2l-10.041.037-.071-.27,10.042-.037Z" transform="translate(-1667.322 -739.045)" fill="#adcbf9"/>
              <path id="Path_174906" data-name="Path 174906" d="M1679.823,748.462l-10.042.037-.071-.27,10.041-.037Z" transform="translate(-1669.247 -746.415)" fill="#adcbf9"/>
              <path id="Path_174907" data-name="Path 174907" d="M1681.98,756.72l-10.042.037-.07-.27,10.041-.037Z" transform="translate(-1671.172 -753.783)" fill="#adcbf9"/>
              <path id="Path_174908" data-name="Path 174908" d="M1684.137,764.978l-10.042.037-.07-.27,10.042-.037Z" transform="translate(-1673.097 -761.152)" fill="#adcbf9"/>
            </g>
            <g id="Group_116404" data-name="Group 116404" transform="translate(1.494 10.179)">
              <path id="Path_174909" data-name="Path 174909" d="M1689.386,785.073l-10.041.037-.071-.27,10.041-.037Z" transform="translate(-1679.275 -784.803)" fill="#adcbf9"/>
              <path id="Path_174910" data-name="Path 174910" d="M1691.543,793.331l-10.042.037-.071-.27,10.042-.037Z" transform="translate(-1681.199 -792.173)" fill="#adcbf9"/>
              <path id="Path_174911" data-name="Path 174911" d="M1693.7,801.589l-10.042.037-.071-.27,10.042-.037Z" transform="translate(-1683.124 -799.541)" fill="#adcbf9"/>
              <path id="Path_174912" data-name="Path 174912" d="M1695.857,809.847l-10.042.037-.07-.27,10.042-.037Z" transform="translate(-1685.049 -806.91)" fill="#adcbf9"/>
              <path id="Path_174913" data-name="Path 174913" d="M1698.014,818.1l-10.041.037-.071-.27,10.042-.037Z" transform="translate(-1686.974 -814.279)" fill="#adcbf9"/>
            </g>
          </g>
        </g>
        <g id="Group_116410" data-name="Group 116410" transform="translate(60.048 22.654)">
          <path id="Path_174914" data-name="Path 174914" d="M1702.288,899.184l-14.685.054-4.762-18.231,14.685-.054Z" transform="translate(-1682.841 -880.953)" fill="#fff"/>
          <g id="Group_116409" data-name="Group 116409" transform="translate(4.04 2.126)">
            <path id="Path_174915" data-name="Path 174915" d="M1733.8,900.971l-6.158.023-.07-.27,6.157-.023Z" transform="translate(-1726.795 -900.701)" fill="#adcbf9"/>
            <path id="Path_174916" data-name="Path 174916" d="M1729.889,907.933l-7.731.029-.071-.27,7.731-.029Z" transform="translate(-1721.903 -906.914)" fill="#adcbf9"/>
            <g id="Group_116407" data-name="Group 116407" transform="translate(0 4.46)">
              <path id="Path_174917" data-name="Path 174917" d="M1730.481,942.4l-10.041.037-.071-.27,10.042-.037Z" transform="translate(-1720.369 -942.131)" fill="#adcbf9"/>
              <path id="Path_174918" data-name="Path 174918" d="M1732.637,950.659l-10.042.037-.07-.27,10.042-.037Z" transform="translate(-1722.293 -949.5)" fill="#adcbf9"/>
              <path id="Path_174919" data-name="Path 174919" d="M1734.795,958.917l-10.041.037-.071-.27,10.041-.037Z" transform="translate(-1724.218 -956.869)" fill="#adcbf9"/>
              <path id="Path_174920" data-name="Path 174920" d="M1736.952,967.175l-10.041.037-.071-.27,10.042-.037Z" transform="translate(-1726.143 -964.238)" fill="#adcbf9"/>
              <path id="Path_174921" data-name="Path 174921" d="M1739.109,975.433l-10.042.037-.071-.27,10.042-.037Z" transform="translate(-1728.068 -971.607)" fill="#adcbf9"/>
            </g>
            <g id="Group_116408" data-name="Group 116408" transform="translate(1.494 10.179)">
              <path id="Path_174922" data-name="Path 174922" d="M1744.358,995.528l-10.042.037-.07-.27,10.042-.037Z" transform="translate(-1734.246 -995.258)" fill="#adcbf9"/>
              <path id="Path_174923" data-name="Path 174923" d="M1746.514,1003.786l-10.042.037-.071-.27,10.042-.037Z" transform="translate(-1736.17 -1002.628)" fill="#adcbf9"/>
              <path id="Path_174924" data-name="Path 174924" d="M1748.672,1012.044l-10.042.037-.071-.27,10.042-.037Z" transform="translate(-1738.095 -1009.997)" fill="#adcbf9"/>
              <path id="Path_174925" data-name="Path 174925" d="M1750.829,1020.3l-10.042.037-.071-.27,10.042-.037Z" transform="translate(-1740.02 -1017.365)" fill="#adcbf9"/>
              <path id="Path_174926" data-name="Path 174926" d="M1752.986,1028.56l-10.042.037-.071-.27,10.042-.037Z" transform="translate(-1741.945 -1024.734)" fill="#adcbf9"/>
            </g>
          </g>
        </g>
        <g id="Group_116414" data-name="Group 116414" transform="translate(66.006 45.461)">
          <path id="Path_174927" data-name="Path 174927" d="M1757.629,1111.055l-14.685.054-4.762-18.231,14.685-.054Z" transform="translate(-1738.182 -1092.823)" fill="#fff"/>
          <g id="Group_116413" data-name="Group 116413" transform="translate(4.04 2.126)">
            <path id="Path_174928" data-name="Path 174928" d="M1789.139,1112.841l-6.157.023-.071-.27,6.158-.023Z" transform="translate(-1782.136 -1112.571)" fill="#adcbf9"/>
            <path id="Path_174929" data-name="Path 174929" d="M1785.231,1119.8l-7.731.029-.07-.27,7.731-.029Z" transform="translate(-1777.245 -1118.784)" fill="#adcbf9"/>
            <g id="Group_116411" data-name="Group 116411" transform="translate(0 4.46)">
              <path id="Path_174930" data-name="Path 174930" d="M1785.822,1154.272l-10.041.037-.071-.27,10.042-.037Z" transform="translate(-1775.71 -1154.002)" fill="#adcbf9"/>
              <path id="Path_174931" data-name="Path 174931" d="M1787.979,1162.53l-10.042.037-.07-.27,10.042-.037Z" transform="translate(-1777.635 -1161.371)" fill="#adcbf9"/>
              <path id="Path_174932" data-name="Path 174932" d="M1790.136,1170.787l-10.042.037-.071-.27,10.042-.037Z" transform="translate(-1779.56 -1168.74)" fill="#adcbf9"/>
              <path id="Path_174933" data-name="Path 174933" d="M1792.294,1179.045l-10.042.037-.071-.27,10.042-.037Z" transform="translate(-1781.485 -1176.109)" fill="#adcbf9"/>
              <path id="Path_174934" data-name="Path 174934" d="M1794.45,1187.3l-10.042.037-.07-.27,10.041-.037Z" transform="translate(-1783.409 -1183.478)" fill="#adcbf9"/>
            </g>
            <g id="Group_116412" data-name="Group 116412" transform="translate(1.494 10.179)">
              <path id="Path_174935" data-name="Path 174935" d="M1799.7,1207.4l-10.042.037-.071-.27,10.042-.037Z" transform="translate(-1789.587 -1207.129)" fill="#adcbf9"/>
              <path id="Path_174936" data-name="Path 174936" d="M1801.856,1215.656l-10.042.037-.071-.27,10.042-.037Z" transform="translate(-1791.512 -1214.498)" fill="#adcbf9"/>
              <path id="Path_174937" data-name="Path 174937" d="M1804.013,1223.914l-10.042.037-.07-.27,10.041-.037Z" transform="translate(-1793.437 -1221.867)" fill="#adcbf9"/>
              <path id="Path_174938" data-name="Path 174938" d="M1806.171,1232.172l-10.042.037-.07-.27,10.041-.037Z" transform="translate(-1795.362 -1229.236)" fill="#adcbf9"/>
              <path id="Path_174939" data-name="Path 174939" d="M1808.327,1240.43l-10.042.037-.071-.27,10.042-.037Z" transform="translate(-1797.286 -1236.604)" fill="#adcbf9"/>
            </g>
          </g>
        </g>
        <g id="Group_116418" data-name="Group 116418" transform="translate(0 0.081)">
          <g id="Group_116417" data-name="Group 116417">
            <path id="Path_174940" data-name="Path 174940" d="M1191.146,735.017l-51.362.19L1125,678.615l6.691-7.2,42.8-.158Z" transform="translate(-1125.002 -671.252)" fill="#fff"/>
            <path id="Path_174941" data-name="Path 174941" d="M1301.528,753.524l-18.1.067-.207-.793,18.1-.067Z" transform="translate(-1266.188 -743.96)" fill="#adcbf9"/>
            <path id="Path_174942" data-name="Path 174942" d="M1290.039,773.99l-22.726.084-.207-.793,22.726-.084Z" transform="translate(-1251.809 -762.223)" fill="#adcbf9"/>
            <g id="Group_116415" data-name="Group 116415" transform="translate(14.752 21.881)">
              <path id="Path_174943" data-name="Path 174943" d="M1291.776,875.317l-29.519.109-.207-.793,29.519-.109Z" transform="translate(-1262.05 -874.524)" fill="#adcbf9"/>
              <path id="Path_174944" data-name="Path 174944" d="M1298.118,899.593l-29.519.109-.207-.793,29.519-.109Z" transform="translate(-1267.708 -896.187)" fill="#adcbf9"/>
              <path id="Path_174945" data-name="Path 174945" d="M1304.458,923.869l-29.519.109-.207-.793,29.519-.109Z" transform="translate(-1273.367 -917.85)" fill="#adcbf9"/>
              <path id="Path_174946" data-name="Path 174946" d="M1310.8,948.145l-29.519.109-.207-.793,29.519-.109Z" transform="translate(-1279.026 -939.513)" fill="#adcbf9"/>
              <path id="Path_174947" data-name="Path 174947" d="M1317.141,972.421l-29.519.109-.207-.793,29.519-.109Z" transform="translate(-1284.684 -961.175)" fill="#adcbf9"/>
            </g>
            <g id="Group_116416" data-name="Group 116416" transform="translate(19.144 38.693)">
              <path id="Path_174948" data-name="Path 174948" d="M1332.571,1031.5l-29.519.109-.207-.793,29.519-.109Z" transform="translate(-1302.845 -1030.703)" fill="#adcbf9"/>
              <path id="Path_174949" data-name="Path 174949" d="M1338.912,1055.772l-29.519.109-.207-.793,29.519-.109Z" transform="translate(-1308.503 -1052.366)" fill="#adcbf9"/>
              <path id="Path_174950" data-name="Path 174950" d="M1345.253,1080.048l-29.519.109-.207-.793,29.519-.109Z" transform="translate(-1314.162 -1074.029)" fill="#adcbf9"/>
              <path id="Path_174951" data-name="Path 174951" d="M1351.594,1104.324l-29.519.109-.207-.793,29.519-.109Z" transform="translate(-1319.82 -1095.692)" fill="#adcbf9"/>
              <path id="Path_174952" data-name="Path 174952" d="M1357.935,1128.6l-29.519.109-.207-.793,29.519-.109Z" transform="translate(-1325.479 -1117.355)" fill="#adcbf9"/>
            </g>
          </g>
          <path id="Path_174953" data-name="Path 174953" d="M1125,679.925l8.565-.032-1.874-7.173Z" transform="translate(-1125.002 -672.562)" fill="#adcbf9"/>
        </g>
      </g>
    </g>
    <g id="Group_116431" data-name="Group 116431" transform="translate(367.655 372.2)">
      <g id="Group_116422" data-name="Group 116422" transform="translate(0 16.845)">
        <g id="Group_116421" data-name="Group 116421">
          <path id="Rectangle_37530" data-name="Rectangle 37530" d="M0,0H40.551a7.3,7.3,0,0,1,7.3,7.3v0a7.467,7.467,0,0,1-7.467,7.467H0a0,0,0,0,1,0,0V0A0,0,0,0,1,0,0Z" transform="translate(2.22 0)" fill="#fcecdb"/>
          <path id="Path_174954" data-name="Path 174954" d="M1850.873,1544.813v2.222a6.469,6.469,0,0,1-6.471,6.47h-78.352a.938.938,0,0,1-.938-.937v-.333a.938.938,0,0,1,.938-.938h47.763a6.032,6.032,0,0,0,1.37-3.831v-2.824a5.879,5.879,0,0,0-1.3-3.7h-47.832a.938.938,0,0,1-.938-.939v-.332a.938.938,0,0,1,.938-.938H1844.8a6.072,6.072,0,0,1,6.076,6.076Z" transform="translate(-1765.112 -1538.737)" fill="#699dee"/>
          <path id="Path_174955" data-name="Path 174955" d="M1850.639,1543.139H1814.99a5.892,5.892,0,0,0-1.107-2.193h-47.832a.938.938,0,0,1-.938-.939v-.332a.938.938,0,0,1,.938-.938H1844.8A6.078,6.078,0,0,1,1850.639,1543.139Z" transform="translate(-1765.112 -1538.737)" fill="#548ee2"/>
        </g>
        <path id="Path_174956" data-name="Path 174956" d="M1785.736,1607.334l5.8.248-5.8.15Z" transform="translate(-1783.516 -1599.95)" fill="#f4d2b8"/>
        <path id="Path_174957" data-name="Path 174957" d="M1785.736,1628.859l13.8.248-13.8.15Z" transform="translate(-1783.516 -1619.158)" fill="#f4d2b8"/>
      </g>
      <g id="Group_116426" data-name="Group 116426" transform="translate(6.268 31.582)">
        <g id="Group_116424" data-name="Group 116424" transform="translate(0 0)">
          <g id="Group_116423" data-name="Group 116423">
            <path id="Rectangle_37531" data-name="Rectangle 37531" d="M0,0H44.512a5.924,5.924,0,0,1,5.924,5.924v0a5.563,5.563,0,0,1-5.563,5.563H0a0,0,0,0,1,0,0V0A0,0,0,0,1,0,0Z" transform="translate(50.436 11.487) rotate(-180)" fill="#2b478b"/>
            <path id="Rectangle_37532" data-name="Rectangle 37532" d="M0,0H50.635a5.808,5.808,0,0,1,5.808,5.808v0a5.679,5.679,0,0,1-5.679,5.679H0a0,0,0,0,1,0,0V0A0,0,0,0,1,0,0Z" transform="translate(98.538 11.487) rotate(180)" fill="#fcecdb"/>
            <path id="Path_174958" data-name="Path 174958" d="M2175.861,1768.109h61.584a.859.859,0,0,0,.859-.859h0a.859.859,0,0,0-.859-.859h-61.584a.859.859,0,0,0-.859.859h0A.859.859,0,0,0,2175.861,1768.109Z" transform="translate(-2137.147 -1756.622)" fill="#2b478b"/>
            <path id="Path_174959" data-name="Path 174959" d="M2175.861,1677.359h61.584a.859.859,0,0,0,.859-.859h0a.859.859,0,0,0-.859-.859h-61.584a.859.859,0,0,0-.859.859h0A.859.859,0,0,0,2175.861,1677.359Z" transform="translate(-2137.147 -1675.641)" fill="#2b478b"/>
          </g>
          <path id="Path_174960" data-name="Path 174960" d="M2682.016,1729l-6.843.193,6.843.116Z" transform="translate(-2583.478 -1723.252)" fill="#f4d2b8"/>
          <path id="Path_174961" data-name="Path 174961" d="M2603.786,1704.438l-16.28.193,16.28.116Z" transform="translate(-2505.248 -1701.338)" fill="#f4d2b8"/>
        </g>
        <g id="Group_116425" data-name="Group 116425" transform="translate(82.426 3.254)">
          <path id="Path_174962" data-name="Path 174962" d="M2589.062,1705.874a2.68,2.68,0,0,1,.929,1.3,1.857,1.857,0,0,1,.073.454c.039,1.078,0,3.517,0,3.517l2.06-1.22,2.054,1.22v-3.306a2.623,2.623,0,0,0-.5-1.632.78.78,0,0,0-.569-.338Z" transform="translate(-2589.062 -1705.874)" fill="#699dee"/>
          <path id="Path_174963" data-name="Path 174963" d="M2589.062,1705.874a2.68,2.68,0,0,1,.929,1.3l4.128.048s-.162-1.162-1.014-1.353Z" transform="translate(-2589.062 -1705.874)" fill="#568cdb"/>
        </g>
      </g>
      <g id="Group_116430" data-name="Group 116430" transform="translate(4.371 0)">
        <g id="Group_116428" data-name="Group 116428">
          <g id="Group_116427" data-name="Group 116427">
            <path id="Rectangle_37533" data-name="Rectangle 37533" d="M0,0H43.689a8.533,8.533,0,0,1,8.533,8.533v0a8.344,8.344,0,0,1-8.344,8.344H0a0,0,0,0,1,0,0V0A0,0,0,0,1,0,0Z" transform="translate(90.074 16.877) rotate(180)" fill="#fcecdb"/>
            <path id="Path_174964" data-name="Path 174964" d="M1844.641,1388.795v3.632a4.2,4.2,0,0,0,2.132,3.617,4.244,4.244,0,0,0,2.1.555h49.388a1.048,1.048,0,0,1,1.048,1.048v.429a1.048,1.048,0,0,1-1.048,1.048h-85.318a7.225,7.225,0,0,1-7.226-7.226v-2.866a6.781,6.781,0,0,1,6.785-6.785h85.76a1.048,1.048,0,0,1,1.048,1.047v.429a1.048,1.048,0,0,1-1.048,1.048h-49.539a4.091,4.091,0,0,0-3,1.31A4.016,4.016,0,0,0,1844.641,1388.795Z" transform="translate(-1805.718 -1382.247)" fill="#b5453c"/>
          </g>
          <path id="Path_174965" data-name="Path 174965" d="M2590.008,1460.637l-6.331.284,6.331.171Z" transform="translate(-2499.934 -1452.198)" fill="#f4d2b8"/>
          <path id="Path_174966" data-name="Path 174966" d="M2517.628,1424.556l-15.062.284,15.062.171Z" transform="translate(-2427.554 -1420.001)" fill="#f4d2b8"/>
        </g>
        <g id="Group_116429" data-name="Group 116429" transform="translate(75.167 4.782)">
          <path id="Path_174967" data-name="Path 174967" d="M2504.006,1426.668a3.163,3.163,0,0,1,1.323,1.415,1.585,1.585,0,0,1,.1.492c.055,1.169,0,3.814,0,3.814l2.935-1.323,2.927,1.323V1428.8a2.414,2.414,0,0,0-.718-1.769,1.213,1.213,0,0,0-.811-.367Z" transform="translate(-2504.006 -1426.668)" fill="#f99746"/>
          <path id="Path_174968" data-name="Path 174968" d="M2504.006,1426.668a3.163,3.163,0,0,1,1.323,1.415l5.882.052a1.877,1.877,0,0,0-1.445-1.467Z" transform="translate(-2504.006 -1426.668)" fill="#ed7d2b"/>
        </g>
      </g>
    </g>
    <g id="Group_116436" data-name="Group 116436" transform="translate(377.377 302.031)">
      <g id="Group_116435" data-name="Group 116435" transform="translate(0)">
        <path id="Path_174969" data-name="Path 174969" d="M2226.286,1317.962a16.9,16.9,0,0,0,5.877,6.279h13.621S2224.3,1314.506,2226.286,1317.962Z" transform="translate(-2186.249 -1254.051)" fill="#233862"/>
        <g id="Group_116432" data-name="Group 116432">
          <path id="Path_174970" data-name="Path 174970" d="M2230.391,1556.1a1.259,1.259,0,0,1,.225,1.347.012.012,0,0,1,0,.007,8.374,8.374,0,0,1-2.645,2.9c-.159.129-.3.246-.424.354-.032.028-.065.057-.1.085l-.073.066c-1.163,1.072-.725,1.318-2.814,3.492-2.381,2.478-4.021,2.522-4.488,2.3-.395-.192.407-1.507,1.3-2.984.043-.071.085-.143.129-.215.118-.2.236-.4.354-.593,1.041-1.778.774-2.612.527-5.258-.2-2.15-3.345-12.011-3.345-12.011l4.564-.786s1.375,7.852,2.889,9.062c.81.645,1.716.653,2.494,1.13q.082.05.162.1A6,6,0,0,1,2230.391,1556.1Z" transform="translate(-2179.893 -1457.136)" fill="#ffb27d"/>
          <path id="Path_174971" data-name="Path 174971" d="M2238.151,1640.59a1.259,1.259,0,0,1,.224,1.347.012.012,0,0,1,0,.007,9.693,9.693,0,0,1-2.649,2.892c-.157.131-.3.251-.42.363-.032.029-.065.057-.1.085l-.073.066c-1.163,1.072-.725,1.317-2.814,3.492-2.382,2.478-4.021,2.522-4.488,2.3-.395-.192.407-1.506,1.3-2.984a10.149,10.149,0,0,0,4.245-3.128c1.434-1.83,2.39-4.181,3.367-5.543q.082.05.162.1A6,6,0,0,1,2238.151,1640.59Z" transform="translate(-2187.653 -1541.625)" fill="#233862"/>
          <path id="Path_174972" data-name="Path 174972" d="M1869.123,1541.736c-.282,1.409-2.29,1.174-4.533.625s-1.71.1-4.9-.25-4.16-1.544-4.258-2.019c-.087-.421,1.49-.57,3.183-.765.213-.024.427-.05.64-.077,1.911-.24,3.31-1.472,5.045-2.485,1.644-.959,4.1-4.867,4.1-4.867l4.379.347s-2.3,3.49-3.187,5.008a5.291,5.291,0,0,0-.43,2.984A5.619,5.619,0,0,1,1869.123,1541.736Z" transform="translate(-1855.425 -1445.622)" fill="#ffb27d"/>
          <path id="Path_174973" data-name="Path 174973" d="M1864.589,1603.941c-2.243-.548-1.71.1-4.9-.25s-4.16-1.544-4.258-2.019c-.087-.421,1.49-.57,3.183-.765l.016.032a9,9,0,0,0,4.573,1.421c2.166.053,4.46-.568,5.957-.544a5.619,5.619,0,0,1-.034,1.5C1868.841,1604.725,1866.833,1604.49,1864.589,1603.941Z" transform="translate(-1855.425 -1507.201)" fill="#233862"/>
          <path id="Path_174974" data-name="Path 174974" d="M2138.567,1304.976l4.094,11.015,5.344,14.382a8.658,8.658,0,0,0,2.839-.259,12.308,12.308,0,0,0,2.746-1.337s-1.484-15.443-4.252-24.307a15.786,15.786,0,0,0-2.382-5.152C2142.664,1294.247,2138.567,1304.976,2138.567,1304.976Z" transform="translate(-2108.088 -1236.862)" fill="#233862"/>
          <path id="Path_174975" data-name="Path 174975" d="M1976.565,1182.421c2.682-.865,10.331.246,18.014,1.75l1.609-2.653,16.6-1.3s5.476,12.145,2.478,19.883a2.806,2.806,0,0,1-2.809,1.891h-.242s-9.878-.006-13.085-.006c-8.253,0-17.467-5.673-18.659-5.912-1.951-.39-2.731,3.512-4.682,7.608s-18.339,18.143-18.339,18.143a14.423,14.423,0,0,1-3.559-.365,3.5,3.5,0,0,1-1.528-.965S1970.518,1184.372,1976.565,1182.421Z" transform="translate(-1941.925 -1131.799)" fill="#2b478b"/>
          <path id="Path_174976" data-name="Path 174976" d="M2317.263,757.255c5.91,3.254,17.9,10,17.961,9.956,0,0,4.406,1.66,6.907,0,4.167-2.767,6.4-10.215-1.219-16.624-3.8-3.2-6.5-3.974-6.911-9.078-.223-2.769-4.008-11.907-10.3-11.062a17.5,17.5,0,0,0-5.887,1.338C2312.4,734.63,2308.4,756,2317.263,757.255Z" transform="translate(-2262.902 -730.392)" fill="#233862"/>
          <path id="Path_174977" data-name="Path 174977" d="M2400.2,877.176c-.026.017,2.908,1.018,4.87.15,1.846-.816,3.244-3.852,3.216-3.854-.839-.039-1.761-.773-2.471-5.589l-.357.128-6.01,2.163s.436,1.929.717,3.765C2400.4,875.482,2400.528,876.958,2400.2,877.176Z" transform="translate(-2340.885 -853.084)" fill="#ffb27d"/>
          <path id="Path_174978" data-name="Path 174978" d="M2399.446,871.239s.436,1.929.717,3.765c3.452-.621,4.808-4.061,5.293-5.928Z" transform="translate(-2340.885 -854.147)" fill="#ed975d"/>
          <path id="Path_174979" data-name="Path 174979" d="M2356.131,787.036s8.223-1.1,7.457-6.214-.221-8.695-5.5-8.206-6.008,2.591-6.167,4.359S2353.972,787.191,2356.131,787.036Z" transform="translate(-2298.465 -768.03)" fill="#ffb27d"/>
          <path id="Path_174980" data-name="Path 174980" d="M2354.768,770.428s5.264,4.537,8.845,4.9,4.936-.784,4.936-.784a13.985,13.985,0,0,1-3.381-4.58,2.517,2.517,0,0,0-2.075-1.484C2360.536,768.261,2355.689,768.161,2354.768,770.428Z" transform="translate(-2301.016 -764.285)" fill="#233862"/>
          <path id="Path_174981" data-name="Path 174981" d="M2350.091,775.529a12.96,12.96,0,0,0-2.315,2.966,9.952,9.952,0,0,0-.27,5.292s-2.744-5.335-1.19-7.928C2347.962,773.11,2350.091,775.529,2350.091,775.529Z" transform="translate(-2293.048 -769.792)" fill="#233862"/>
          <path id="Path_174982" data-name="Path 174982" d="M2342.1,934.014c.248,16.647.068,13.168,1.889,14.748a6.993,6.993,0,0,0,3.3.714c5.1.339,14.077-.5,14.418-1.445,1.177-3.264.346-4.278,1.328-9.275.1-.531.229-1.107.378-1.733.819-3.432,1.616-4.6-1.289-10.114-2.635-4.995-5.372-9.048-5.619-8.9-6.952,4.127-7.513.658-7.513.658S2341.982,925.894,2342.1,934.014Z" transform="translate(-2289.714 -897.807)" fill="#fff"/>
          <path id="Path_174983" data-name="Path 174983" d="M2176.595,1369.988l5.344,14.382a8.656,8.656,0,0,0,2.839-.26,12.311,12.311,0,0,0,2.746-1.336s-1.484-15.443-4.252-24.307Z" transform="translate(-2142.023 -1290.858)" fill="#2b478b"/>
          <path id="Path_174984" data-name="Path 174984" d="M2291.9,924.142s-7.153,1.213-7.993,4.293-5.783,21.186-5.783,21.186,3.636.653,5.316-1.027,5.846-15.586,5.846-15.586Z" transform="translate(-2232.624 -903.286)" fill="#fff"/>
          <path id="Path_174985" data-name="Path 174985" d="M2390.283,1064.043c5.1.339,14.077-.5,14.418-1.445,1.177-3.264.346-4.278,1.328-9.275l-2.462-6.932s.407,7.72-1.87,9.75-9.322,3.92-10.428,5.616A6.207,6.207,0,0,0,2390.283,1064.043Z" transform="translate(-2332.708 -1012.374)" fill="#ebf3ff"/>
          <path id="Path_174986" data-name="Path 174986" d="M2370.7,1173.758s-5.036-1.121-5.848-.674a11.823,11.823,0,0,0-3.047,2.641c-.249.566,1.809-.43,2.478-.609a5.958,5.958,0,0,1,2.139.469,7.111,7.111,0,0,0,3.833.385Z" transform="translate(-2307.277 -1125.337)" fill="#ffb27d"/>
          <path id="Path_174987" data-name="Path 174987" d="M2441.241,918s6.762.417,9.1,3.681c3.3,4.6,9.832,24.182,6.085,26.794-4.219,2.942-19.2.77-19.2.77s-.5-2.33.195-3.458,11.966-2.948,12.487-3.468-6.5-10.145-6.5-11.706S2441.241,918,2441.241,918Z" transform="translate(-2374.446 -897.808)" fill="#fff"/>
          <path id="Path_174988" data-name="Path 174988" d="M2371.683,1186.977a9.737,9.737,0,0,1-1.4,1.523,1.032,1.032,0,0,1-.569.122l.711-1.28Z" transform="translate(-2314.352 -1137.828)" fill="#ffb27d"/>
          <path id="Path_174989" data-name="Path 174989" d="M2364.852,1173.956l-3.068,1.49a.547.547,0,0,0,.508.2,7.328,7.328,0,0,0,1.331-.365Z" transform="translate(-2307.277 -1126.209)" fill="#ffb27d"/>
        </g>
        <g id="Group_116434" data-name="Group 116434" transform="translate(24.363 34.605)">
          <g id="Group_116433" data-name="Group 116433">
            <path id="Path_174990" data-name="Path 174990" d="M2113.321,1070.016h-24.267l-7.3-18.153h24.229Z" transform="translate(-2081.754 -1051.863)" fill="#f99746"/>
            <path id="Path_174991" data-name="Path 174991" d="M2146.926,1213.929h32.044v.707h-31.76Z" transform="translate(-2139.911 -1196.483)" fill="#ed7d2b"/>
          </g>
          <path id="Path_174992" data-name="Path 174992" d="M2206.087,1126.6a.841.841,0,0,1,.824-1.155,1.655,1.655,0,0,1,1.487,1.155.841.841,0,0,1-.824,1.155A1.656,1.656,0,0,1,2206.087,1126.6Z" transform="translate(-2192.662 -1117.526)" fill="#fff"/>
        </g>
      </g>
    </g>
    <g id="Group_116439" data-name="Group 116439" transform="translate(218.125 355.107)">
      <g id="Group_116437" data-name="Group 116437" transform="translate(0 0.276)">
        <path id="Path_174993" data-name="Path 174993" d="M381.441,1232.553l-.517.358a1.219,1.219,0,0,1-1.694-.307l-3.006-4.336a1.219,1.219,0,0,1,.307-1.694l.74-.513a.238.238,0,0,1,.271.392l-.74.513a.742.742,0,0,0-.187,1.031l3.006,4.336a.742.742,0,0,0,1.031.187l.517-.358a.742.742,0,0,0,.187-1.031l-2-2.879a.238.238,0,0,1,.392-.271l2,2.879A1.219,1.219,0,0,1,381.441,1232.553Z" transform="translate(-376.008 -1226.018)" fill="#afcdfb"/>
      </g>
      <g id="Group_116438" data-name="Group 116438" transform="translate(0.522 0)">
        <path id="Path_174994" data-name="Path 174994" d="M389.06,1234.539l-.927.642a1.971,1.971,0,0,1-2.718-.59l-4.519-6.519a.238.238,0,0,1,.392-.271l4.519,6.519a1.5,1.5,0,0,0,2.055.47l.927-.642a1.5,1.5,0,0,0,.281-2.09l-5.147-7.426a1.5,1.5,0,0,0-2.055-.47.238.238,0,1,1-.271-.392,1.972,1.972,0,0,1,2.718.59l5.147,7.426A1.972,1.972,0,0,1,389.06,1234.539Z" transform="translate(-380.854 -1223.452)" fill="#afcdfb"/>
      </g>
    </g>
    <g id="Group_116442" data-name="Group 116442" transform="translate(221.74 396.457)">
      <g id="Group_116440" data-name="Group 116440" transform="translate(0.017 2.212)">
        <path id="Path_174995" data-name="Path 174995" d="M421.056,1629.719l.112.919a1.793,1.793,0,0,1-1.562,1.994l-7.706.935a1.793,1.793,0,0,1-1.994-1.562l-.16-1.315a.35.35,0,0,1,.7-.084l.16,1.315a1.091,1.091,0,0,0,1.213.951l7.706-.935a1.091,1.091,0,0,0,.951-1.213l-.111-.918a1.092,1.092,0,0,0-1.213-.951l-5.115.621a.351.351,0,0,1-.085-.7l5.115-.621A1.793,1.793,0,0,1,421.056,1629.719Z" transform="translate(-409.744 -1628.144)" fill="#afcdfb"/>
      </g>
      <g id="Group_116441" data-name="Group 116441" transform="translate(0 0)">
        <path id="Path_174996" data-name="Path 174996" d="M428.745,1610.026l.2,1.646a2.9,2.9,0,0,1-2.634,3.132l-11.585,1.406a.35.35,0,1,1-.085-.7l11.585-1.406a2.2,2.2,0,0,0,2.022-2.352l-.2-1.646a2.2,2.2,0,0,0-2.526-1.8l-13.2,1.6a2.2,2.2,0,0,0-2.022,2.352.35.35,0,1,1-.7.084,2.9,2.9,0,0,1,2.634-3.133l13.2-1.6A2.9,2.9,0,0,1,428.745,1610.026Z" transform="translate(-409.59 -1607.591)" fill="#afcdfb"/>
      </g>
    </g>
    <circle id="Ellipse_5621" data-name="Ellipse 5621" cx="1.068" cy="1.068" r="1.068" transform="translate(364.158 291.997) rotate(-76.717)" fill="#f99746"/>
    <path id="Rectangle_37534" data-name="Rectangle 37534" d="M.414,0H269.771a.414.414,0,0,1,.414.414v0a.414.414,0,0,1-.414.414H.414A.414.414,0,0,1,0,.414v0A.414.414,0,0,1,.414,0Z" transform="translate(202.189 415.188)" fill="#2e3552"/>
  </g>
</svg>
