<svg xmlns="http://www.w3.org/2000/svg" width="276" height="202.069" viewBox="0 0 276 202.069">
  <g id="t5-lt7" transform="translate(-4731.149 403.619)">
    <g id="Group_116336" data-name="Group 116336" transform="translate(4731.149 -388.907)">
      <path id="Path_174723" data-name="Path 174723" d="M4768.981-206.7c-19.388-21.112-45.887-42.909-35.5-75.837,6.834-21.658,23.591-27.694,37.521-41.049,6.874-6.592,2.549-16.185,2.422-25.707-.292-24.384,26.922-43.3,51.938-42.909,27.1.427,38.829,27.671,61.56,29.132,8.926.137,16.918-5.1,24.817-9.263,23.4-12.33,60.531-4.468,62.407,25.351.485,16.1-17.842,42.01.52,50.479,14.635,6.75,29.42,9.237,32.058,33.379,3.452,31.6-14.8,48.943-38.578,57.076Z" transform="translate(-4731.149 392.212)" fill="#e3eaff"/>
      <g id="Group_116323" data-name="Group 116323" transform="translate(44.466 65.339)">
        <path id="Path_174724" data-name="Path 174724" d="M4771.672-341.551h26.98a6.048,6.048,0,0,1,6.047,6.048v12.577a6.048,6.048,0,0,1-6.047,6.046h-.2l2.165,7.255a.343.343,0,0,1-.538.371l-10-7.626h-18.411a6.046,6.046,0,0,1-6.046-6.046V-335.5A6.047,6.047,0,0,1,4771.672-341.551Z" transform="translate(-4765.626 341.551)" fill="#fff"/>
        <path id="Path_174725" data-name="Path 174725" d="M4797.714-332.017h-25.9a2.993,2.993,0,0,1-2.993-2.993h0a2.993,2.993,0,0,1,2.993-2.992h25.9a2.993,2.993,0,0,1,2.993,2.992h0A2.993,2.993,0,0,1,4797.714-332.017Z" transform="translate(-4764.7 342.579)" fill="#e3eaff"/>
        <path id="Path_174726" data-name="Path 174726" d="M4797.714-324.93h-25.9a2.993,2.993,0,0,1-2.993-2.992h0a2.993,2.993,0,0,1,2.993-2.993h25.9a2.993,2.993,0,0,1,2.993,2.993h0A2.993,2.993,0,0,1,4797.714-324.93Z" transform="translate(-4764.7 344.632)" fill="#e3eaff"/>
      </g>
      <g id="Group_116324" data-name="Group 116324" transform="translate(179.607 31.39)">
        <path id="Path_174727" data-name="Path 174727" d="M4906.426-367.873H4877a6.6,6.6,0,0,0-6.6,6.594v13.716a6.6,6.6,0,0,0,6.6,6.594h.218l-2.361,7.911a.375.375,0,0,0,.587.4l10.9-8.316h20.078a6.6,6.6,0,0,0,6.6-6.594v-13.716A6.6,6.6,0,0,0,4906.426-367.873Z" transform="translate(-4870.408 367.873)" fill="#fff"/>
        <rect id="Rectangle_37520" data-name="Rectangle 37520" width="34.946" height="5.986" rx="2.321" transform="translate(3.484 5.606)" fill="#e3eaff"/>
        <rect id="Rectangle_37521" data-name="Rectangle 37521" width="19.859" height="5.986" rx="2.321" transform="translate(4.443 14.656)" fill="#e3eaff"/>
      </g>
      <g id="Group_116325" data-name="Group 116325" transform="translate(18.381 131.753)">
        <path id="Path_174728" data-name="Path 174728" d="M4746.293-288.792a6.46,6.46,0,0,1,4.016-1.264c3.369,0,5.155,1.834,5.155,4.411a6.6,6.6,0,0,1-2.182,4.511c-1.86,1.958-3.2,2.925-4.041,2.925a1.4,1.4,0,0,1-1.412-1.414c0-.694.646-1.388,1.76-2.4a1.064,1.064,0,0,1,.2-.173c1.265-1.166,1.661-1.81,1.661-2.6a1.473,1.473,0,0,0-1.637-1.537,5.314,5.314,0,0,0-1.587.3,5.065,5.065,0,0,1-1.337.3,1.547,1.547,0,0,1-1.487-1.586A1.872,1.872,0,0,1,4746.293-288.792Zm3.395,16.532a2.462,2.462,0,0,1-2.527-2.528,2.424,2.424,0,0,1,2.527-2.331,2.376,2.376,0,0,1,2.331,2.331A2.406,2.406,0,0,1,4749.688-272.26Z" transform="translate(-4745.4 290.056)" fill="#fff"/>
      </g>
      <g id="Group_116326" data-name="Group 116326" transform="translate(221.169 76.57)">
        <path id="Path_174729" data-name="Path 174729" d="M4903.219-332.011a4.257,4.257,0,0,1,2.642-.832c2.217,0,3.391,1.206,3.391,2.9a4.338,4.338,0,0,1-1.436,2.966c-1.221,1.287-2.1,1.923-2.657,1.923a.918.918,0,0,1-.928-.929c0-.457.424-.913,1.157-1.581a.763.763,0,0,1,.13-.115c.832-.766,1.092-1.189,1.092-1.711a.968.968,0,0,0-1.076-1.01,3.492,3.492,0,0,0-1.043.195,3.314,3.314,0,0,1-.88.2,1.016,1.016,0,0,1-.978-1.043A1.231,1.231,0,0,1,4903.219-332.011Zm2.233,10.871a1.619,1.619,0,0,1-1.663-1.662,1.594,1.594,0,0,1,1.663-1.532,1.561,1.561,0,0,1,1.532,1.532A1.582,1.582,0,0,1,4905.453-321.14Z" transform="translate(-4902.633 332.843)" fill="#fff"/>
      </g>
      <g id="Group_116332" data-name="Group 116332" transform="translate(238.573 109.019)">
        <g id="Group_116327" data-name="Group 116327">
          <path id="Path_174730" data-name="Path 174730" d="M4948.064-279.064h-30.946a.99.99,0,0,1-.991-.99v-26.638a.99.99,0,0,1,.991-.991.991.991,0,0,1,.991.991v25.648h29.955a.991.991,0,0,1,.991.991A.991.991,0,0,1,4948.064-279.064Z" transform="translate(-4916.127 307.683)" fill="#fff"/>
        </g>
        <g id="Group_116331" data-name="Group 116331" transform="translate(2.342 4.273)">
          <g id="Group_116328" data-name="Group 116328" transform="translate(0 2.595)">
            <path id="Path_174731" data-name="Path 174731" d="M4918.934-287.117a.988.988,0,0,1-.688-.279.99.99,0,0,1-.023-1.4l10-10.346a.99.99,0,0,1,1.25-.143l4.729,3.068,4.987-5.795a.991.991,0,0,1,1.4-.106.991.991,0,0,1,.1,1.4l-5.551,6.45a.991.991,0,0,1-1.29.186l-4.771-3.1-9.435,9.759A.986.986,0,0,1,4918.934-287.117Z" transform="translate(-4917.944 302.357)" fill="#fff"/>
          </g>
          <g id="Group_116330" data-name="Group 116330" transform="translate(18.323)">
            <g id="Group_116329" data-name="Group 116329">
              <path id="Path_174732" data-name="Path 174732" d="M4936.6-297.182l-1.411-2.859-3.037-.969,6.762-3.359Z" transform="translate(-4932.151 304.37)" fill="#fff"/>
            </g>
          </g>
        </g>
      </g>
      <g id="Group_116333" data-name="Group 116333" transform="translate(56.613 29.051)">
        <path id="Path_174733" data-name="Path 174733" d="M4781.038-357.7a6,6,0,0,1-5.994-5.995,6,6,0,0,1,5.994-5.995,6,6,0,0,1,6,5.995A6,6,0,0,1,4781.038-357.7Zm0-10.339a4.348,4.348,0,0,0-4.343,4.344,4.348,4.348,0,0,0,4.343,4.344,4.348,4.348,0,0,0,4.343-4.344A4.348,4.348,0,0,0,4781.038-368.036Z" transform="translate(-4775.044 369.687)" fill="#fff"/>
      </g>
      <g id="Group_116334" data-name="Group 116334" transform="translate(241.099 79.971)">
        <path id="Path_174734" data-name="Path 174734" d="M4922.479-321.424a4.4,4.4,0,0,1-4.392-4.392,4.4,4.4,0,0,1,4.392-4.39,4.4,4.4,0,0,1,4.39,4.39A4.4,4.4,0,0,1,4922.479-321.424Zm0-7.573a3.186,3.186,0,0,0-3.182,3.182,3.186,3.186,0,0,0,3.182,3.182,3.185,3.185,0,0,0,3.18-3.182A3.185,3.185,0,0,0,4922.479-329Z" transform="translate(-4918.087 330.206)" fill="#e3eaff"/>
      </g>
      <g id="Group_116335" data-name="Group 116335" transform="translate(11.039 104.937)">
        <path id="Path_174735" data-name="Path 174735" d="M4743.65-302.964a3.947,3.947,0,0,1-3.942-3.943,3.946,3.946,0,0,1,3.942-3.941,3.946,3.946,0,0,1,3.942,3.941A3.947,3.947,0,0,1,4743.65-302.964Zm0-6.8a2.86,2.86,0,0,0-2.856,2.857,2.859,2.859,0,0,0,2.856,2.857,2.86,2.86,0,0,0,2.856-2.857A2.861,2.861,0,0,0,4743.65-309.763Z" transform="translate(-4739.708 310.848)" fill="#fff"/>
      </g>
      <circle id="Ellipse_5619" data-name="Ellipse 5619" cx="2.145" cy="2.145" r="2.145" transform="translate(222.03 21.41)" fill="#fff"/>
      <path id="Path_174736" data-name="Path 174736" d="M4762.751-342.211a4.217,4.217,0,0,1-4.216,4.217,4.219,4.219,0,0,1-4.219-4.217,4.219,4.219,0,0,1,4.219-4.217A4.217,4.217,0,0,1,4762.751-342.211Z" transform="translate(-4724.436 405.477)" fill="#e3eaff"/>
      <path id="Path_174737" data-name="Path 174737" d="M4917.989-379.684a3.171,3.171,0,0,1-3.17,3.17,3.171,3.171,0,0,1-3.172-3.17,3.172,3.172,0,0,1,3.172-3.171A3.171,3.171,0,0,1,4917.989-379.684Z" transform="translate(-4678.853 394.923)" fill="#e3eaff"/>
      <path id="Path_174738" data-name="Path 174738" d="M4929.811-320.76a2.708,2.708,0,0,1-2.706,2.707,2.708,2.708,0,0,1-2.708-2.707,2.707,2.707,0,0,1,2.708-2.706A2.707,2.707,0,0,1,4929.811-320.76Z" transform="translate(-4675.159 412.129)" fill="#e3eaff"/>
      <path id="Path_174739" data-name="Path 174739" d="M4911.947-366.927a3.375,3.375,0,0,1-3.374,3.375,3.375,3.375,0,0,1-3.374-3.375,3.374,3.374,0,0,1,3.374-3.374A3.374,3.374,0,0,1,4911.947-366.927Z" transform="translate(-4680.721 398.56)" fill="#fff"/>
      <path id="Path_174740" data-name="Path 174740" d="M4791.649-371.667a3.423,3.423,0,0,1-3.423,3.423,3.422,3.422,0,0,1-3.422-3.423,3.422,3.422,0,0,1,3.422-3.422A3.422,3.422,0,0,1,4791.649-371.667Z" transform="translate(-4715.603 397.173)" fill="#fff"/>
    </g>
    <path id="Path_174741" data-name="Path 174741" d="M4961.381-246.405H4758.8a1.2,1.2,0,0,1-1.2-1.2h0a1.2,1.2,0,0,1,1.2-1.2h202.58a1.2,1.2,0,0,1,1.2,1.2h0A1.2,1.2,0,0,1,4961.381-246.405Z" transform="translate(7.665 44.856)" fill="#201d40"/>
    <g id="Group_116385" data-name="Group 116385" transform="translate(4754.46 -329.175)">
      <g id="Group_116343" data-name="Group 116343" transform="translate(67.471 5.751)">
        <path id="v-2" d="M4811.316-328.2h0l3.11.011.7,7.344-3.63,1.917-3.871-1.895.626-7.366Z" transform="translate(-4799.771 345.276)" fill="#f37a50"/>
        <g id="Group_116342" data-name="Group 116342">
          <path id="Path_174742" data-name="Path 174742" d="M4804.053-328.059c1.914,4.782,6.51,7.44,10.266,5.938s5.249-6.6,3.335-11.381-6.509-7.44-10.266-5.938S4802.139-332.841,4804.053-328.059Z" transform="translate(-4801.05 341.897)" fill="#f37a50"/>
          <path id="Path_174743" data-name="Path 174743" d="M4813.174-333.464a.7.7,0,0,0,.979.175.7.7,0,0,0,.177-.979.7.7,0,0,0-.98-.177A.705.705,0,0,0,4813.174-333.464Z" transform="translate(-4798.202 343.429)"/>
          <path id="Path_174744" data-name="Path 174744" d="M4809.09-331.777a.761.761,0,0,0,1.06.191.761.761,0,0,0,.19-1.06.761.761,0,0,0-1.06-.191A.762.762,0,0,0,4809.09-331.777Z" transform="translate(-4799.388 343.892)"/>
          <path id="Path_174745" data-name="Path 174745" d="M4812.316-332.843c.953.751,2.142,1.655,2.142,1.655a1.847,1.847,0,0,1-1.327,1.644c.485-.44.909-1.025.4-1.7S4812.316-332.843,4812.316-332.843Z" transform="translate(-4798.414 343.93)" fill="#de623c"/>
          <g id="Group_116337" data-name="Group 116337" transform="translate(7.964 9.729)">
            <path id="Path_174746" data-name="Path 174746" d="M4808.063-331.968a.35.35,0,0,1-.081-.01.348.348,0,0,1-.26-.422,1.871,1.871,0,0,1,1.708-1.5.352.352,0,0,1,.352.35.351.351,0,0,1-.35.353c-.792,0-1.026.947-1.029.956A.35.35,0,0,1,4808.063-331.968Z" transform="translate(-4807.712 333.896)" fill="#201d40"/>
          </g>
          <g id="Group_116338" data-name="Group 116338" transform="translate(13.943 7.372)">
            <path id="Path_174747" data-name="Path 174747" d="M4812.641-334.619a.287.287,0,0,1-.148-.041.292.292,0,0,1-.1-.4,1.444,1.444,0,0,1,.9-.644,1.5,1.5,0,0,1,1.219.386.293.293,0,0,1,.047.411.291.291,0,0,1-.411.045.955.955,0,0,0-.747-.267.849.849,0,0,0-.5.365A.291.291,0,0,1,4812.641-334.619Z" transform="translate(-4812.348 335.723)" fill="#201d40"/>
          </g>
          <path id="Path_174748" data-name="Path 174748" d="M4801.927-331.173a6.328,6.328,0,0,1,2.324-7.259s-1.058-.094-1.184-1.58a3.9,3.9,0,0,0,2.459-.053c5.256-1.9,8.875-1.878,8.875.371,0,.8,3.471.251,3.179,5.636.021-.38-1.221-2.594-2.392-2.814s-.114,1.345-2.564,1.682c-2.471.339-4.288-.261-5.8,1.132-1.182,1.216-1.475,7.4-1.295,7.773C4805.122-327.137,4802.638-329.148,4801.927-331.173Z" transform="translate(-4801.537 341.439)" fill="#201d40"/>
          <path id="Path_174749" data-name="Path 174749" d="M4817.97-332.843a12.134,12.134,0,0,1-.182,3.674c-.42-1.126-1.324.067-2.174.179-2.052.271-5.753-.413-6.121,2.665-2.507.794-4.855-4.573-4.855-4.573-.145,6,4.244,9.4,10.559,8.4C4819.356-323.152,4819.742-328.944,4817.97-332.843Z" transform="translate(-4800.641 343.93)" fill="#201d40"/>
          <g id="Group_116339" data-name="Group 116339" transform="translate(11.613 15.175)">
            <path id="Path_174750" data-name="Path 174750" d="M4811.933-328.012a5.3,5.3,0,0,1-1.267-.5.234.234,0,0,1-.1-.317.235.235,0,0,1,.317-.1,3.394,3.394,0,0,0,2.588.44,2.449,2.449,0,0,0,1.348-1.067.234.234,0,0,1,.316-.1.234.234,0,0,1,.1.315,2.873,2.873,0,0,1-1.617,1.295A3.17,3.17,0,0,1,4811.933-328.012Z" transform="translate(-4810.542 329.673)" fill="#de623c"/>
          </g>
          <g id="Group_116341" data-name="Group 116341" transform="translate(0.953 12.737)">
            <path id="Path_174751" data-name="Path 174751" d="M4805.26-331.23a2.023,2.023,0,0,1,1.033,2.639,2.024,2.024,0,0,1-2.791.491,2.025,2.025,0,0,1-1.034-2.639A2.025,2.025,0,0,1,4805.26-331.23Z" transform="translate(-4802.276 331.563)" fill="#f37a50"/>
            <g id="Group_116340" data-name="Group 116340" transform="translate(1.178 0.978)">
              <path id="Path_174752" data-name="Path 174752" d="M4804.835-328.86a.269.269,0,0,0,.08-.092,1.2,1.2,0,0,0-.126-1.465,1.28,1.28,0,0,0-1.456-.267.265.265,0,0,0-.116.356.264.264,0,0,0,.356.117.753.753,0,0,1,.834.164.677.677,0,0,1,.042.844.263.263,0,0,0,.107.359A.266.266,0,0,0,4804.835-328.86Z" transform="translate(-4803.189 330.805)" fill="#de623c"/>
            </g>
          </g>
        </g>
      </g>
      <path id="Path_174753" data-name="Path 174753" d="M4813.994-251.7a2.872,2.872,0,0,1,2.076-2c2.75,3.793,9.5,1.465,9.278,6.6-10.267-.067-14.535,0-14.535,0a37.734,37.734,0,0,1,.454-5.071l.535.1Z" transform="translate(-4731.379 372.612)"/>
      <path id="Path_174754" data-name="Path 174754" d="M4802.083-251.624a2.871,2.871,0,0,1,2.075-2c2.75,3.793,9.5,1.465,9.278,6.6-10.268-.066-14.536,0-14.536,0a37.734,37.734,0,0,1,.454-5.071l.536.1Z" transform="translate(-4734.83 372.634)"/>
      <path id="Path_174755" data-name="Path 174755" d="M4821.551-298.6s1.667,24.314.989,29.719-3.075,12.335-2.8,30.214c-3.347.838-8.2,0-8.2,0s-.718-20.217,2.819-29.246c-1.438-8.771-6.055-28.862-6.055-28.862Z" transform="translate(-4732.106 359.602)" fill="#201d40"/>
      <path id="Path_174756" data-name="Path 174756" d="M4818.044-298.086s-3.366,27.3-5.015,32.473-4.861,9.554-7.845,27.168c-3.439.172-6.643,0-6.643,0s.464-22.342,5.822-27.422c.181-8.9-.867-32.043-.867-32.043Z" transform="translate(-4734.935 359.751)" fill="#2c2858"/>
      <g id="v" transform="translate(66.82 29.332)">
        <path id="h-5" d="M4801.8-321.8s5.847-2.047,7.8-1.108c6.057,2.917,7.447,0,7.447,0,1.936.168,7.778,1.108,7.778,1.108,0,6.526.436,13.074.317,18.012-.083,4.3.736,16,.736,16a59.041,59.041,0,0,1-12.544,1.735,57.4,57.4,0,0,1-12.3-1.665s.325-11.854.6-16.26C4801.541-308.915,4801.8-315.294,4801.8-321.8Z" transform="translate(-4801.033 323.156)" fill="#e62552"/>
      </g>
      <g id="c" transform="translate(88.952 30.686)">
        <path id="c-2" data-name="c" d="M4830.247-312.407c-2.413-5.757-9.574-9.419-10.394-9.7l-1.661,7.391a43.2,43.2,0,0,1,5.938,4.235c-.423,2.058-.354,4.077-1.544,6.68,0,0,1.034-1.428,2.312-.583,1.24.822,3.522-.855,3.522-.855A6.115,6.115,0,0,0,4830.247-312.407Z" transform="translate(-4818.192 322.106)" fill="#c4204a"/>
      </g>
      <g id="c-3" data-name="c" transform="translate(59.018 30.686)">
        <g id="c-4" data-name="c" transform="translate(23.901 2.231)">
          <g id="c-5" data-name="c">
            <path id="c-6" data-name="c" d="M4830.118-298.358a.615.615,0,0,0,.126.025h.137a.655.655,0,0,0,.556-.455l6.433-20.741a.734.734,0,0,0,.026-.125.564.564,0,0,0,0-.081c0-.017,0-.034,0-.05s-.005-.027-.008-.043a.653.653,0,0,0-.447-.517.566.566,0,0,0-.123-.026.557.557,0,0,0-.139,0h-16.2l-6.489,22.039h16.135Z" transform="translate(-4813.377 320.377)" fill="#95a6db"/>
            <path id="c-7" data-name="c" d="M4820.77-320.347a.655.655,0,0,0-.818.431l-6.394,20.69-.014.048a.653.653,0,0,0,.428.815h0a.653.653,0,0,0,.817-.429l6.41-20.738A.654.654,0,0,0,4820.77-320.347Z" transform="translate(-4813.515 320.376)" fill="#768fdb"/>
          </g>
        </g>
        <path id="c-8" data-name="c" d="M4828.7-309.183a.664.664,0,0,1,.193-.084l-.02-.031a1.179,1.179,0,0,1,.059-1.622.712.712,0,0,1,.232-.1.977.977,0,0,1,.3-1.086.737.737,0,0,1,.417-.116.976.976,0,0,1,.319-1.138,1.05,1.05,0,0,1,1.413.417,1.048,1.048,0,0,1-.167,1.463.824.824,0,0,1-.361.13,1.111,1.111,0,0,1-.163,1.446.707.707,0,0,1-.232.1.974.974,0,0,1-.3,1.086.724.724,0,0,1-.385.117.833.833,0,0,1-.254,1.006.886.886,0,0,1-1.191-.351A.885.885,0,0,1,4828.7-309.183Z" transform="translate(-4785.309 324.601)" fill="#f37a50"/>
        <path id="Path_174757" data-name="Path 174757" d="M4813.19-310.493l1.475-.856a2.789,2.789,0,0,1,2.779-2.144c-.271.878-.663,2.144-.663,2.144s1.167.907,3.935-.644c2.706-.609,1.551,1.365,2.447,1.506,1.324.209-.965,2.809-3.665,3.206-3.5.515-3.911-.2-3.911-.2l-1.979.691Z" transform="translate(-4789.709 324.601)" fill="#f37a50"/>
        <path id="c-9" data-name="c" d="M4804.8-305.761c4.933-.344,13.351-2.782,13.351-2.782a7.958,7.958,0,0,1,.974,4.811c-7.662,6.718-19.2,8.89-22.732,7.273-3.231-1.477-.951-21.141,7.16-25.646h0C4806.337-317.4,4804.8-305.761,4804.8-305.761Z" transform="translate(-4794.984 322.106)" fill="#8a284c"/>
      </g>
      <g id="Group_116352" data-name="Group 116352" transform="translate(121.022)">
        <path id="Path_174758" data-name="Path 174758" d="M4866.343-253.564c-2.75,3.667-9.5,1.417-9.278,6.376,10.268-.063,14.535,0,14.535,0a35.123,35.123,0,0,0-.454-4.9Z" transform="translate(-4839.002 372.65)"/>
        <path id="Path_174759" data-name="Path 174759" d="M4878.254-253.49c-2.75,3.668-9.5,1.417-9.278,6.378,10.268-.063,14.536,0,14.536,0a35.309,35.309,0,0,0-.454-4.9Z" transform="translate(-4835.551 372.672)"/>
        <path id="Path_174760" data-name="Path 174760" d="M4860.83-296.974s-1.666,23.5-.989,28.73,3.075,11.925,2.8,29.21c3.347.81,8.2,0,8.2,0s.719-19.545-2.819-28.275c1.438-8.479,6.055-27.9,6.055-27.9Z" transform="translate(-4838.243 360.073)" fill="#201d40"/>
        <path id="Path_174761" data-name="Path 174761" d="M4865.484-296.476s3.367,26.388,5.014,31.393,4.861,9.237,7.844,26.264a35.71,35.71,0,0,0,7.538-.681s-1.359-20.918-6.717-25.829c-.18-8.6.867-30.978.867-30.978Z" transform="translate(-4836.561 360.218)" fill="#2c2858"/>
        <g id="Group_116349" data-name="Group 116349" transform="translate(27.573 6.063)">
          <g id="Group_116348" data-name="Group 116348">
            <g id="Group_116347" data-name="Group 116347">
              <path id="Path_174762" data-name="Path 174762" d="M4879.205-327.423c-1.823,4.559-6.206,7.094-9.786,5.661s-5.006-6.29-3.181-10.849,6.206-7.094,9.788-5.661S4881.03-331.982,4879.205-327.423Z" transform="translate(-4864.146 341.929)" fill="#f37a50"/>
              <path id="Path_174763" data-name="Path 174763" d="M4867.541-332.576a.671.671,0,0,1-.934.168.672.672,0,0,1-.167-.934.671.671,0,0,1,.934-.168A.671.671,0,0,1,4867.541-332.576Z" transform="translate(-4863.892 343.39)"/>
              <path id="Path_174764" data-name="Path 174764" d="M4871.46-330.967a.728.728,0,0,1-1.012.182.728.728,0,0,1-.182-1.011.728.728,0,0,1,1.011-.182A.728.728,0,0,1,4871.46-330.967Z" transform="translate(-4862.786 343.831)"/>
              <path id="Path_174765" data-name="Path 174765" d="M4868.516-331.983c-.907.715-2.041,1.577-2.041,1.577a1.759,1.759,0,0,0,1.266,1.567c-.462-.419-.868-.978-.388-1.621S4868.516-331.983,4868.516-331.983Z" transform="translate(-4863.847 343.867)" fill="#de623c"/>
              <g id="Group_116344" data-name="Group 116344" transform="translate(8.356 10.589)">
                <path id="Path_174766" data-name="Path 174766" d="M4872.557-331.149a.335.335,0,0,1-.326-.257c-.009-.036-.234-.908-.98-.912a.335.335,0,0,1-.334-.337.336.336,0,0,1,.336-.333,1.785,1.785,0,0,1,1.629,1.425.333.333,0,0,1-.247.4A.314.314,0,0,1,4872.557-331.149Z" transform="translate(-4870.916 332.987)"/>
              </g>
              <g id="Group_116345" data-name="Group 116345" transform="translate(2.465 8.342)">
                <path id="Path_174767" data-name="Path 174767" d="M4868.235-333.676a.278.278,0,0,1-.24-.137.815.815,0,0,0-.485-.35.914.914,0,0,0-.708.255.279.279,0,0,1-.392-.043.277.277,0,0,1,.044-.392,1.428,1.428,0,0,1,1.162-.369,1.379,1.379,0,0,1,.859.614.278.278,0,0,1-.1.382A.277.277,0,0,1,4868.235-333.676Z" transform="translate(-4866.349 334.73)"/>
              </g>
              <path id="Path_174768" data-name="Path 174768" d="M4878.224-326.215c-1.319-4.242.35-6.5.35-6.5-1.132-.226-1.573.165-1.573.165a2.518,2.518,0,0,1-.14-2.177c-2.341-.913-3.507.6-5.619,1.114-2.893.7-6.467-.455-6.8-3.987a.6.6,0,0,1,.94-.556,2.665,2.665,0,0,0,1.576.46,2.839,2.839,0,0,1-.638-1.629.6.6,0,0,1,1-.469,4.3,4.3,0,0,0,3.706.6c1.323-.249,4.354-2.369,6.242-1.955a4.65,4.65,0,0,1,3.3,3.533,4.851,4.851,0,0,1,4.175,4.568c.374,4.1-4.378,7.25-4.378,7.25Z" transform="translate(-4864.438 341.197)"/>
              <path id="Path_174769" data-name="Path 174769" d="M4874.987-330.056a1.928,1.928,0,0,0-.975,2.519,1.928,1.928,0,0,0,2.662.458,1.93,1.93,0,0,0,.976-2.519A1.929,1.929,0,0,0,4874.987-330.056Z" transform="translate(-4861.718 344.332)" fill="#f37a50"/>
              <g id="Group_116346" data-name="Group 116346" transform="translate(13.172 14.885)">
                <path id="Path_174770" data-name="Path 174770" d="M4874.91-327.8a.263.263,0,0,1-.078-.086,1.144,1.144,0,0,1,.116-1.4,1.219,1.219,0,0,1,1.386-.259.252.252,0,0,1,.112.339.25.25,0,0,1-.338.112.721.721,0,0,0-.8.159.647.647,0,0,0-.036.806.252.252,0,0,1-.1.342A.252.252,0,0,1,4874.91-327.8Z" transform="translate(-4874.651 329.656)" fill="#de623c"/>
              </g>
              <path id="Path_174771" data-name="Path 174771" d="M4866.644-328.342a.213.213,0,0,1,.225-.321,18.184,18.184,0,0,0,1.993.312,17.879,17.879,0,0,0,2.017.045.214.214,0,0,1,.165.357,2.739,2.739,0,0,1-2.3.971A2.735,2.735,0,0,1,4866.644-328.342Z" transform="translate(-4863.808 344.828)" fill="#fff"/>
            </g>
          </g>
        </g>
        <path id="Path_174772" data-name="Path 174772" d="M4867.069-323.7s.172-.464-14.6-.346l-3.962,4.683c4.1,3.288,17.832,3.872,17.832,3.872Z" transform="translate(-4841.481 352.224)" fill="#201d40"/>
        <path id="Path_174773" data-name="Path 174773" d="M4867.063-323.981l4.66-.435,4.508,1.257-5.08,5.228Z" transform="translate(-4836.104 352.123)" fill="#95a6db"/>
        <path id="Path_174774" data-name="Path 174774" d="M4868.315-320.832c1.9,1.559,2.288,2.636,6.322.552l.605-6.2-6.569-.518Z" transform="translate(-4835.741 351.374)" fill="#f37a50"/>
        <path id="Path_174775" data-name="Path 174775" d="M4879.232-320.759h0l-1.381-.547.186-1.95-3.832,3.077-1.083.172-1.033-.362-3.223-3.709-.165,1.953-1.219.245h0l-4.394.712-.524,24.391-1.733,8.3a41.839,41.839,0,0,0,18.763,1.54l-.215-8.332,4.554-23.838Z" transform="translate(-4837.909 352.22)" fill="#95a6db"/>
        <path id="Path_174776" data-name="Path 174776" d="M4870.328-319.011l-2.753,18.624,1.525,2.118,1.987-1.527.676-19.06Z" transform="translate(-4835.955 353.688)" fill="#2c2858"/>
        <path id="Path_174777" data-name="Path 174777" d="M4869.582-320.657l1.006-.265,1.025.447-.433,2.208-1.443-.129Z" transform="translate(-4835.374 353.135)" fill="#2c2858"/>
        <g id="Group_116350" data-name="Group 116350" transform="translate(19.624 28.297)">
          <path id="Path_174778" data-name="Path 174778" d="M4869.545-323.958l-.691,22.5-2.977,14.486s-4.71-.475-7.6-3.228l3.708-10.906,1.268-22.79Z" transform="translate(-4858.274 323.958)" fill="#2c2858"/>
          <path id="Path_174779" data-name="Path 174779" d="M4867.937-323.958l-.687,22.2-3.428-17.01Z" transform="translate(-4856.666 323.958)" fill="#494c7f"/>
        </g>
        <g id="Group_116351" data-name="Group 116351" transform="translate(34.365 29.737)">
          <path id="Path_174780" data-name="Path 174780" d="M4875.818-322.842,4869.7-286.37s8.113,1,11.45-1.2l-1.811-11.989,2.213-20.355Z" transform="translate(-4869.704 322.842)" fill="#2c2858"/>
          <path id="Path_174781" data-name="Path 174781" d="M4875.248-322.842l-3.574,21.377,6.4-16.128Z" transform="translate(-4869.133 322.842)" fill="#494c7f"/>
        </g>
        <path id="Path_174782" data-name="Path 174782" d="M4843.131-337.61c.325,1.138.423,2.365,1.866,2.978,0,0-.214,3.776-.054,6.874l3.492-3.941a20.7,20.7,0,0,1-.17-4.95c.05-.348.119-.7.173-1.043a3.913,3.913,0,0,0-.117-2.735c-1.993-3.949-1.323-5.249-1.6-5.441-.446-.2-1.495.6-.9,2.538a7.1,7.1,0,0,1,.432,2.8s-1.506-.285-2.042.242C4843.971-340.05,4842.75-338.941,4843.131-337.61Z" transform="translate(-4843.058 345.898)" fill="#f37a50"/>
        <path id="Path_174783" data-name="Path 174783" d="M4843.743-335.124a13.408,13.408,0,0,1,4.69-.984c3.743,11.152,6.41,15.354,5.3,18.557-.927,2.67-3.862,2.456-5.3.455C4846.541-319.734,4844.865-329.759,4843.743-335.124Z" transform="translate(-4842.86 348.735)" fill="#201d40"/>
        <path id="Path_174784" data-name="Path 174784" d="M4879.392-320.57l11.791,18.446,14,7.907-4.315,4.3-14.05-6.158-9.642-13.6Z" transform="translate(-4833.173 353.237)" fill="#201d40"/>
        <path id="Path_174785" data-name="Path 174785" d="M4871.533-320.007a9.671,9.671,0,0,1-3.329,2.2l-1.886-4.986.958-1.285Z" transform="translate(-4836.319 352.22)" fill="#fff"/>
        <path id="Path_174786" data-name="Path 174786" d="M4870.361-320.192a8.358,8.358,0,0,0,2.886,2.756l2.744-4.557-.716-1.448Z" transform="translate(-4835.147 352.405)" fill="#fff"/>
      </g>
      <g id="с" transform="translate(61.738 78.83)">
        <path id="с-2" data-name="с" d="M4904.424-278.88H4801.475c-2.42,0-4.382-1.319-4.382-2.948h0c0-1.628,1.962-2.948,4.382-2.948h102.949c2.42,0,4.382,1.321,4.382,2.948h0C4908.806-280.2,4906.844-278.88,4904.424-278.88Z" transform="translate(-4797.093 284.777)" fill="#95a6db"/>
        <g id="Group_116353" data-name="Group 116353" transform="translate(41.575 3.634)">
          <path id="Path_174787" data-name="Path 174787" d="M4830.72-238.155h0a1.389,1.389,0,0,1-1.164-2.147l27.183-41.657,2.326,1.519-27.182,41.656A1.388,1.388,0,0,1,4830.72-238.155Z" transform="translate(-4829.328 281.959)" fill="#95a6db"/>
        </g>
        <g id="Group_116354" data-name="Group 116354" transform="translate(40.401 3.634)">
          <path id="Path_174788" data-name="Path 174788" d="M4856.763-238.155h0a1.388,1.388,0,0,0,1.163-2.147l-27.182-41.657-2.327,1.519,27.183,41.656A1.387,1.387,0,0,0,4856.763-238.155Z" transform="translate(-4828.417 281.959)" fill="#95a6db"/>
        </g>
      </g>
      <g id="с-3" data-name="с" transform="translate(168.22 62.529)">
        <path id="с-4" data-name="с" d="M4883.79-242.91h0a1.331,1.331,0,0,1-1.332-1.331V-267.82h2.661v23.579A1.329,1.329,0,0,1,4883.79-242.91Z" transform="translate(-4878.841 305.991)" fill="#768fdb"/>
        <path id="с-5" data-name="с" d="M4891.03-242.91h0a1.331,1.331,0,0,1-1.331-1.331V-267.82h2.662v23.579A1.331,1.331,0,0,1,4891.03-242.91Z" transform="translate(-4876.743 305.991)" fill="#768fdb"/>
        <path id="с-6" data-name="с" d="M4900.53-242.91h0a1.331,1.331,0,0,1-1.33-1.331V-267.82h2.66v23.579A1.331,1.331,0,0,1,4900.53-242.91Z" transform="translate(-4873.991 305.991)" fill="#768fdb"/>
        <path id="с-7" data-name="с" d="M4907.771-242.91h0a1.331,1.331,0,0,1-1.331-1.331V-267.82h2.662v23.579A1.331,1.331,0,0,1,4907.771-242.91Z" transform="translate(-4871.893 305.991)" fill="#768fdb"/>
        <path id="с-8" data-name="с" d="M4900.807-294.238v28.059a.578.578,0,0,1-.578.578h-17.4a3.178,3.178,0,0,0-3.178,3.178h0a3.178,3.178,0,0,0,3.178,3.178h21.153a3.179,3.179,0,0,0,3.179-3.178v-31.815a3.179,3.179,0,0,0-3.179-3.178h0A3.178,3.178,0,0,0,4900.807-294.238Z" transform="translate(-4879.654 297.416)" fill="#95a6db"/>
        <rect id="с-9" data-name="с" width="13.755" height="32.33" transform="translate(24.332)" fill="#95a6db"/>
        <path id="с-10" data-name="с" d="M4911.472-294.238v28.059a.578.578,0,0,1-.578.578h-17.4a3.178,3.178,0,0,0-3.179,3.178h0a3.178,3.178,0,0,0,3.179,3.178h21.152a3.178,3.178,0,0,0,3.178-3.178v-31.815a3.178,3.178,0,0,0-3.178-3.178h0A3.178,3.178,0,0,0,4911.472-294.238Z" transform="translate(-4876.563 297.416)" fill="#768fdb"/>
      </g>
      <g id="с-11" data-name="с" transform="translate(24.403 62.529)">
        <path id="с-12" data-name="с" d="M4796.6-242.91h0a1.331,1.331,0,0,0,1.331-1.331V-267.82h-2.661v23.579A1.331,1.331,0,0,0,4796.6-242.91Z" transform="translate(-4760.285 305.991)" fill="#768fdb"/>
        <path id="с-13" data-name="с" d="M4789.361-242.91h0a1.331,1.331,0,0,0,1.331-1.331V-267.82h-2.663v23.579A1.332,1.332,0,0,0,4789.361-242.91Z" transform="translate(-4762.383 305.991)" fill="#768fdb"/>
        <path id="с-14" data-name="с" d="M4779.859-242.91h0a1.331,1.331,0,0,0,1.331-1.331V-267.82h-2.661v23.579A1.331,1.331,0,0,0,4779.859-242.91Z" transform="translate(-4765.136 305.991)" fill="#768fdb"/>
        <path id="с-15" data-name="с" d="M4772.619-242.91h0a1.331,1.331,0,0,0,1.332-1.331V-267.82h-2.662v23.579A1.331,1.331,0,0,0,4772.619-242.91Z" transform="translate(-4767.234 305.991)" fill="#768fdb"/>
        <path id="с-16" data-name="с" d="M4785.166-294.238v28.059a.579.579,0,0,0,.578.578h17.4a3.178,3.178,0,0,1,3.179,3.178h0a3.178,3.178,0,0,1-3.179,3.178h-21.152a3.177,3.177,0,0,1-3.178-3.178v-31.815a3.177,3.177,0,0,1,3.178-3.178h0A3.178,3.178,0,0,1,4785.166-294.238Z" transform="translate(-4765.055 297.416)" fill="#95a6db"/>
        <rect id="с-17" data-name="с" width="13.755" height="32.33" transform="translate(16.933 32.33) rotate(180)" fill="#95a6db"/>
        <path id="с-18" data-name="с" d="M4774.5-294.238v28.059a.578.578,0,0,0,.577.578h17.4a3.178,3.178,0,0,1,3.178,3.178h0a3.178,3.178,0,0,1-3.178,3.178h-21.153a3.177,3.177,0,0,1-3.177-3.178v-31.815a3.177,3.177,0,0,1,3.177-3.178h0A3.178,3.178,0,0,1,4774.5-294.238Z" transform="translate(-4768.145 297.416)" fill="#768fdb"/>
      </g>
      <g id="Group_116359" data-name="Group 116359" transform="translate(128.79 31.539)">
        <path id="Path_174789" data-name="Path 174789" d="M4891.79-298c-2.936-1.059-7.47-3.374-4.456-7.606s2.937-2.383,1.852-7.522,2.569-9.182,6.053-8.159,4.372,3.842,8.643,3.129,7.818,3.28,6.211,6.743-2.293,5.131-.79,7.047,8.274,3.981,5.45,8.574-4.119,4.31-3.138,6.664-1.282,5.035-5.208,4.669-7.479-1.851-8.92-6.233S4891.79-298,4891.79-298Z" transform="translate(-4838.287 321.444)" fill="#2c2858"/>
        <path id="Path_174790" data-name="Path 174790" d="M4883.489-250.52l-2.319.693-1.748-1.785a8.584,8.584,0,0,0-.267-2.595l4.334-.72A37.592,37.592,0,0,1,4883.489-250.52Z" transform="translate(-4840.369 340.716)" fill="#f37a50"/>
        <path id="Path_174791" data-name="Path 174791" d="M4882.856-250.934a2.377,2.377,0,0,0-1.73-1.61c-2.291,3.057-7.918,1.181-7.732,5.315,8.557-.053,12.113,0,12.113,0a29.242,29.242,0,0,0-.378-4.085l-.445.079Z" transform="translate(-4842.04 341.407)" fill="#e62552"/>
        <path id="Path_174792" data-name="Path 174792" d="M4871.408-250.154l-2.414.166-1.39-1.479a14.081,14.081,0,0,0,.388-3.237l4.071.181A37.269,37.269,0,0,1,4871.408-250.154Z" transform="translate(-4843.715 340.781)" fill="#f37a50"/>
        <path id="Path_174793" data-name="Path 174793" d="M4871.011-250.934a2.372,2.372,0,0,0-1.729-1.61c-2.291,3.057-7.919,1.181-7.731,5.315,8.556-.053,12.113,0,12.113,0a29.39,29.39,0,0,0-.378-4.085l-.446.079Z" transform="translate(-4845.471 341.407)" fill="#e62552"/>
        <path id="Path_174794" data-name="Path 174794" d="M4895.831-282.445c-6.592.887-25.164,7.769-26.2,9.015-2.137,2.572-1.009,16.565-2.026,28.114l5.4.319c2.584-9.4,2.38-13.462,3.548-24.249,0,0,21.217,1.59,28.885-3.585C4913.341-278.168,4901.162-283.709,4895.831-282.445Z" transform="translate(-4843.715 332.691)" fill="#0e6a41"/>
        <path id="Path_174795" data-name="Path 174795" d="M4886.206-293.116c1.558.266,2.157,1.515,2.533,3.819-5.936,3.5-14.753,3.745-14.753,3.745l-2.811-1.39S4878.246-289.489,4886.206-293.116Z" transform="translate(-4842.681 329.652)" fill="#de623c"/>
        <path id="Path_174796" data-name="Path 174796" d="M4899.05-296.613c-2.6,3.775-12.549,11.891-14.2,12.148l-1.995-5.584s9.715-10.516,11.484-12.375C4897.4-305.648,4903.3-302.767,4899.05-296.613Z" transform="translate(-4839.296 326.568)" fill="#de623c"/>
        <path id="Path_174797" data-name="Path 174797" d="M4886.928-297.121c2.083-2.244,4.8-7.31,8.326-6.95s3.785,4.107,2.722,6.124-4.739,6.989-4.739,6.989Z" transform="translate(-4838.116 326.473)" fill="#ff4f78"/>
        <path id="Path_174798" data-name="Path 174798" d="M4891.588-291.324c1.5.516,2.35,5.23,1.931,5.59-6.416,2.541-19.762-.206-19.762-.206l-.708-2.418A105.035,105.035,0,0,0,4891.588-291.324Z" transform="translate(-4842.138 330.171)" fill="#f37a50"/>
        <path id="Path_174799" data-name="Path 174799" d="M4908.37-272c-1.467-7.568-2.1-10.251-2.708-13.813-1.505-8.8,2.922-14.989-4.669-19.208l-5.533.891c-4.474,4.707-7.228,8.979-7.463,11.93-.325,3.807,3.453,5.873,3.453,5.873l-1.521,10.364s-.357.846,5.881,2.025S4908.37-272,4908.37-272Z" transform="translate(-4837.812 326.204)" fill="#e62552"/>
        <path id="Path_174800" data-name="Path 174800" d="M4903.983-295.761c-2.6,3.818-13.7,13.522-15.365,13.608l-1.195-5.791s10.083-11.816,11.852-13.7C4902.33-304.9,4908.235-301.986,4903.983-295.761Z" transform="translate(-4837.973 326.791)" fill="#f37a50"/>
        <path id="Path_174801" data-name="Path 174801" d="M4892.035-295.638c1.938-2.821,5.849-8.025,9.379-7.664s3.786,4.107,2.721,6.124-4.738,6.988-4.738,6.988Z" transform="translate(-4836.637 326.696)" fill="#ff4f78"/>
        <path id="Path_174802" data-name="Path 174802" d="M4874.905-288.884c-2.042-.5-6.479-1.991-8.264,2.681.447.858,2.09-1.26,2.8-1.456a3.05,3.05,0,0,1,2.929,1.087c1.215,1.162,3.248.106,3.248.106Z" transform="translate(-4843.995 330.696)" fill="#f37a50"/>
        <g id="Group_116355" data-name="Group 116355" transform="translate(0 27.596)">
          <path id="Path_174803" data-name="Path 174803" d="M4876.123-284.237h-19.169v-2.574H4878.7A2.574,2.574,0,0,1,4876.123-284.237Z" transform="translate(-4846.801 303.883)" fill="#ff4f78"/>
          <path id="Path_174804" data-name="Path 174804" d="M4849.377-296.571l9.858,16.169,2.279-1.2-11.056-18.448h0A2.577,2.577,0,0,0,4849.377-296.571Z" transform="translate(-4849.082 300.048)" fill="#ff4f78"/>
        </g>
        <path id="Path_174805" data-name="Path 174805" d="M4902.577-308.7c-.933,3.892-4.167,6.455-7.224,5.724s-4.781-4.482-3.849-8.375,4.168-6.455,7.224-5.723S4903.508-312.592,4902.577-308.7Z" transform="translate(-4836.865 322.675)" fill="#f37a50"/>
        <path id="Path_174806" data-name="Path 174806" d="M4900.193-309.018l-5.081,3.15s-.451,2.245-.676,2.974c-.464,1.5,1.314,2.16,2.819,1.224a4.4,4.4,0,0,0,1.887-2.187Z" transform="translate(-4835.963 325.045)" fill="#f37a50"/>
        <path id="Path_174807" data-name="Path 174807" d="M4891.175-312.62c1.444.124,4.573-.128,5.713-1.479.813,2.746,4.271,5.361,7.13,6.587.115-2.818.095-8-4.958-10.157C4895.091-319.362,4891.175-312.62,4891.175-312.62Z" transform="translate(-4836.886 322.459)" fill="#2c2858"/>
        <path id="Path_174808" data-name="Path 174808" d="M4892.791-311.693a.548.548,0,0,1-.734.246.548.548,0,0,1-.245-.734.548.548,0,0,1,.734-.245A.547.547,0,0,1,4892.791-311.693Z" transform="translate(-4836.719 324.041)"/>
        <path id="Path_174809" data-name="Path 174809" d="M4896.14-310.857a.593.593,0,0,1-.795.266.594.594,0,0,1-.266-.795.594.594,0,0,1,.794-.266A.593.593,0,0,1,4896.14-310.857Z" transform="translate(-4835.772 324.264)"/>
        <g id="Group_116356" data-name="Group 116356" transform="translate(59.644 11.644)">
          <path id="Path_174810" data-name="Path 174810" d="M4896.7-311.143a.206.206,0,0,1-.095-.1,1.57,1.57,0,0,0-1.106-.766.207.207,0,0,1-.174-.233.206.206,0,0,1,.232-.174,1.959,1.959,0,0,1,1.421,1,.206.206,0,0,1-.1.273A.208.208,0,0,1,4896.7-311.143Z" transform="translate(-4895.327 312.417)" fill="#2c2858"/>
        </g>
        <g id="Group_116357" data-name="Group 116357" transform="translate(54.766 10.81)">
          <path id="Path_174811" data-name="Path 174811" d="M4891.658-312.318a.239.239,0,0,1-.054-.04.207.207,0,0,1,0-.292,1.445,1.445,0,0,1,1.436-.351.2.2,0,0,1,.126.261.2.2,0,0,1-.261.128,1.034,1.034,0,0,0-1.011.255A.207.207,0,0,1,4891.658-312.318Z" transform="translate(-4891.544 313.063)" fill="#2c2858"/>
        </g>
        <path id="Path_174812" data-name="Path 174812" d="M4893.044-310.942a5.546,5.546,0,0,1-.85.807.216.216,0,0,0-.071.289,2.961,2.961,0,0,0,1.321.923.057.057,0,0,0,.06-.1,2.815,2.815,0,0,1-.673-.784.261.261,0,0,1,0-.235c.085-.169.258-.515.372-.8A.1.1,0,0,0,4893.044-310.942Z" transform="translate(-4836.62 324.479)" fill="#de623c"/>
        <path id="Path_174813" data-name="Path 174813" d="M4899.057-310.5a1.573,1.573,0,0,0-.488,2.147,1.572,1.572,0,0,0,2.2.054,1.574,1.574,0,0,0,.489-2.147A1.576,1.576,0,0,0,4899.057-310.5Z" transform="translate(-4834.817 324.496)" fill="#f37a50"/>
        <g id="Group_116358" data-name="Group 116358" transform="translate(64.356 14.354)">
          <path id="Path_174814" data-name="Path 174814" d="M4899.288-308.7a.193.193,0,0,1-.072-.061.93.93,0,0,1-.072-1.14.993.993,0,0,1,1.087-.373.2.2,0,0,1,.13.259.205.205,0,0,1-.259.132.587.587,0,0,0-.623.222.527.527,0,0,0,.065.654.2.2,0,0,1-.041.288A.2.2,0,0,1,4899.288-308.7Z" transform="translate(-4898.981 310.315)" fill="#de623c"/>
        </g>
        <path id="Path_174815" data-name="Path 174815" d="M4901.224-281.45c-6.593.887-25.192,6.916-26.228,8.16-2.139,2.572,2.622,13.586,4.144,27.765h6.365c-.066-10.1.741-19.4-2.369-22.691,0,0,17.828-1.189,26.715-1.189C4914.382-269.406,4916.889-284.715,4901.224-281.45Z" transform="translate(-4841.731 332.9)" fill="#3f964f"/>
        <path id="Path_174816" data-name="Path 174816" d="M4892.623-308.349a.167.167,0,0,1,.152-.267,14.211,14.211,0,0,0,1.579.107,14.289,14.289,0,0,0,1.579-.1.167.167,0,0,1,.152.267,2.144,2.144,0,0,1-1.732.917A2.148,2.148,0,0,1,4892.623-308.349Z" transform="translate(-4836.477 325.161)" fill="#fff"/>
      </g>
      <g id="Group_116384" data-name="Group 116384" transform="translate(0 34.462)">
        <g id="Group_116360" data-name="Group 116360" transform="translate(42.679 22.879)">
          <path id="Path_174817" data-name="Path 174817" d="M4794.653-289.677c-1.259.838-.911,5.4-.435,5.636,6.545.8,17.6-4.624,17.6-4.624l.433-2.426A113.538,113.538,0,0,1,4794.653-289.677Z" transform="translate(-4778.992 304.437)" fill="#f37a50"/>
          <path id="Path_174818" data-name="Path 174818" d="M4783.592-294.595c2.341,3.742,12.583,13.418,14.174,13.563l1.354-5.487s-9.2-11.658-10.815-13.518C4785.507-303.265,4779.76-300.7,4783.592-294.595Z" transform="translate(-4782.314 301.439)" fill="#f37a50"/>
        </g>
        <path id="Path_174819" data-name="Path 174819" d="M4792.735-309.452c.281-3.832-.827-7.216-3.882-8.94-3.1-1.748-6.975-.034-6.975-.034h0s-3.284-1.168-6.259,2.11-.725,6.162-1.942,8.552c-.721,1.416-4.388,1.708-3.44,6.32.272,1.33,1.872,2.225,3.227,2.314,2.38.156,4.6-.764,5.561.156,3.179,3.032,10.226,1.936,11.211-.838.306-.859,6.645.8,6.012-5.053C4795.928-307.833,4792.483-306.028,4792.735-309.452Z" transform="translate(-4743.18 319.178)" fill="#2c2858"/>
        <g id="Group_116363" data-name="Group 116363" transform="translate(36.827 21.183)">
          <g id="Group_116362" data-name="Group 116362">
            <g id="Group_116361" data-name="Group 116361">
              <path id="Path_174820" data-name="Path 174820" d="M4784.7-301.825l-5.032-.929-1.888,2.511,4.01,8.222,5.9-5.006Z" transform="translate(-4777.777 302.754)" fill="#f37a50"/>
            </g>
          </g>
        </g>
        <g id="Group_116366" data-name="Group 116366" transform="translate(30.771 21.176)">
          <g id="Group_116365" data-name="Group 116365">
            <g id="Group_116364" data-name="Group 116364">
              <path id="Path_174821" data-name="Path 174821" d="M4792.58-282c-.086-1.564,2.442-7.99,1.111-11.223-.969-2.6-2.588-6.967-4.57-7.7-.937-.344-1.9-.583-3.063-.905,0,0,.657,3.277-.713,3.387-2.638.212-4.319-4.317-4.319-4.317-1.423-.135-7.946,2.008-7.943,2.543.016,4.2,3.425,10.318,4.54,14.855.438,4.9-1.271,10.763-1.277,11.32,0,0,10.494,2.95,16.717-.475C4793.191-274.986,4792.7-279.839,4792.58-282Z" transform="translate(-4773.082 302.759)" fill="#3f964f"/>
            </g>
          </g>
        </g>
        <path id="Path_174822" data-name="Path 174822" d="M4777.5-284.39a58.184,58.184,0,0,0-2.881,9.525c-.565,3.68,2.624,6.04,2.624,6.04h26.515s2.839-4.6,2.021-7.782-2.7-3.685-2.7-3.685Z" transform="translate(-4741.886 329.257)" fill="#3f964f"/>
        <path id="Path_174823" data-name="Path 174823" d="M4801.38-281.33c-3.386-.477-13.211,3.339-17.4,11.629H4795.7Z" transform="translate(-4739.154 330.132)" fill="#de623c"/>
        <g id="Group_116367" data-name="Group 116367" transform="translate(58.513 48.663)">
          <path id="Path_174824" data-name="Path 174824" d="M4794.592-278.256a9.411,9.411,0,0,0,1.184-1.684,2.925,2.925,0,0,1,4.716-.553c4.887,5.388,15.3,17.671,17.627,19.2.656.432,4.485,2.637,8.125,2.2,0,0,1.8.684.6,2.11-.616.735-9.866,1.493-9.866,1.493l-.721-2.716c-5.385-3.985-12.088-3.7-17.771-10.985A21.9,21.9,0,0,1,4794.592-278.256Z" transform="translate(-4794.592 281.447)" fill="#de623c"/>
          <path id="Path_174825" data-name="Path 174825" d="M4814.086-258.636l3.722,2.416.513-.61-3.02-2.815c1.714-1.353,5.688-.224,5.688-.224,1.3-.84,3.837-3.566,4.1-5.026-.833-1.038-3.608,1.1-3.608,1.1a3.4,3.4,0,0,1-1.472,2.338,12.975,12.975,0,0,1-8.516-1.459S4809.431-259.8,4814.086-258.636Z" transform="translate(-4789.827 286.159)" fill="#e62552"/>
        </g>
        <g id="Group_116368" data-name="Group 116368" transform="translate(56.441 52.529)">
          <path id="Path_174826" data-name="Path 174826" d="M4795-278.394a1.752,1.752,0,0,0-1.281,1.446c-.265,1.88-1.634,5.689.218,9.677,4.547,9.792,7.232,16.243,7.71,18.769-1.187,2.225,3.548,8.3,3.619,8.7l3.409-1.067s-1.957-2.911-2.661-4.05c-1.676-2.714-1.951-6.042-2.223-8.623-1.164-11.018.837-17.975-7.135-24.438A1.866,1.866,0,0,0,4795-278.394Z" transform="translate(-4792.985 278.449)" fill="#f37a50"/>
          <path id="Path_174827" data-name="Path 174827" d="M4798.511-250.569l.335,4.425.8.037.409-4.109c2.115.544,3.626,4.388,3.626,4.388,1.458.525,5.163.889,6.482.212.321-1.292-3.061-2.2-3.061-2.2a3.4,3.4,0,0,1-2.752.248,13.172,13.172,0,0,1-4.137-7.656S4796.612-254.975,4798.511-250.569Z" transform="translate(-4791.546 285.177)" fill="#e62552"/>
        </g>
        <g id="Group_116371" data-name="Group 116371" transform="translate(38.389 17.391)">
          <g id="Group_116370" data-name="Group 116370">
            <g id="Group_116369" data-name="Group 116369">
              <path id="Path_174828" data-name="Path 174828" d="M4783.075-305.083l-4.086-.611.326,3.792s.781,1.719,1.689,1.835l3.343-.905Z" transform="translate(-4778.989 305.694)" fill="#f37a50"/>
            </g>
          </g>
        </g>
        <g id="Group_116375" data-name="Group 116375" transform="translate(33.5 2.901)">
          <path id="Path_174829" data-name="Path 174829" d="M4776.121-307.312c1.055,4.406,4.715,7.3,8.176,6.477s5.409-5.071,4.354-9.477-4.714-7.305-8.174-6.476S4775.068-311.716,4776.121-307.312Z" transform="translate(-4775.013 316.929)" fill="#f37a50"/>
          <path id="Path_174830" data-name="Path 174830" d="M4784.529-310.7a.618.618,0,0,0,.83.279.618.618,0,0,0,.278-.829.62.62,0,0,0-.83-.279A.619.619,0,0,0,4784.529-310.7Z" transform="translate(-4772.512 318.474)"/>
          <path id="Path_174831" data-name="Path 174831" d="M4780.763-309.753a.67.67,0,0,0,.9.3.669.669,0,0,0,.3-.9.669.669,0,0,0-.9-.3A.669.669,0,0,0,4780.763-309.753Z" transform="translate(-4773.606 318.727)"/>
          <g id="Group_116372" data-name="Group 116372" transform="translate(6.08 6.979)">
            <path id="Path_174832" data-name="Path 174832" d="M4780.248-310.077a.236.236,0,0,0,.107-.111,1.778,1.778,0,0,1,1.252-.867.231.231,0,0,0,.2-.263.231.231,0,0,0-.262-.2,2.21,2.21,0,0,0-1.607,1.131.232.232,0,0,0,.113.31A.228.228,0,0,0,4780.248-310.077Z" transform="translate(-4779.912 311.518)" fill="#2c2858"/>
          </g>
          <g id="Group_116373" data-name="Group 116373" transform="translate(11.646 6.035)">
            <path id="Path_174833" data-name="Path 174833" d="M4785.948-311.407a.216.216,0,0,0,.061-.045.23.23,0,0,0,0-.329,1.637,1.637,0,0,0-1.624-.4.234.234,0,0,0-.144.3.232.232,0,0,0,.294.144,1.17,1.17,0,0,1,1.146.289A.232.232,0,0,0,4785.948-311.407Z" transform="translate(-4784.228 312.249)" fill="#2c2858"/>
          </g>
          <path id="Path_174834" data-name="Path 174834" d="M4784.329-309.849a6.292,6.292,0,0,0,.961.913.245.245,0,0,1,.082.326,3.378,3.378,0,0,1-1.5,1.046.066.066,0,0,1-.07-.11,3.186,3.186,0,0,0,.763-.889.293.293,0,0,0,0-.264c-.1-.192-.291-.583-.421-.907A.11.11,0,0,1,4784.329-309.849Z" transform="translate(-4772.709 318.97)" fill="#de623c"/>
          <path id="Path_174835" data-name="Path 174835" d="M4777.971-309.344a1.78,1.78,0,0,1,.553,2.43,1.779,1.779,0,0,1-2.491.062,1.78,1.78,0,0,1-.553-2.43A1.779,1.779,0,0,1,4777.971-309.344Z" transform="translate(-4775.197 318.989)" fill="#f37a50"/>
          <g id="Group_116374" data-name="Group 116374" transform="translate(1.069 10.045)">
            <path id="Path_174836" data-name="Path 174836" d="M4777.252-307.31a.216.216,0,0,0,.083-.068,1.053,1.053,0,0,0,.081-1.291,1.124,1.124,0,0,0-1.229-.422.231.231,0,0,0-.147.294.232.232,0,0,0,.294.148.665.665,0,0,1,.705.252.6.6,0,0,1-.076.739.233.233,0,0,0,.047.326A.229.229,0,0,0,4777.252-307.31Z" transform="translate(-4776.026 309.14)" fill="#de623c"/>
          </g>
          <path id="Path_174837" data-name="Path 174837" d="M4781.249-307.067a.185.185,0,0,1,.17-.3,15.669,15.669,0,0,0,1.749.116,15.687,15.687,0,0,0,1.749-.116.185.185,0,0,1,.17.3,2.379,2.379,0,0,1-1.919,1.019A2.38,2.38,0,0,1,4781.249-307.067Z" transform="translate(-4773.455 319.7)" fill="#fff"/>
        </g>
        <path id="Path_174838" data-name="Path 174838" d="M4776.13-307.513c4.129-.553,9.909-4.76,10.382-6.919-.8-2.594-5.055-3.9-7.459-2.7S4774.38-310.777,4776.13-307.513Z" transform="translate(-4741.607 319.641)" fill="#2c2858"/>
        <path id="Path_174839" data-name="Path 174839" d="M4806.109-280.714h0a1.047,1.047,0,0,1-.671-1.319l6.375-19.528a1.046,1.046,0,0,1,1.319-.671h0a1.048,1.048,0,0,1,.671,1.321l-6.375,19.528A1.045,1.045,0,0,1,4806.109-280.714Z" transform="translate(-4732.951 324.073)" fill="#fff"/>
        <path id="Path_174840" data-name="Path 174840" d="M4808.773-290.092l1.3-3.979a5.379,5.379,0,0,1,0,4.461c-1.126,2.173-2.2,2.27-2.2,2.27Z" transform="translate(-4732.23 326.452)" fill="#f37a50"/>
        <path id="Path_174841" data-name="Path 174841" d="M4807.282-291.206c-.329-.771-1.1-2.7-.329-2.7s.9.948.9.948Z" transform="translate(-4732.594 326.501)" fill="#f37a50"/>
        <g id="Group_116383" data-name="Group 116383" transform="translate(0 17.725)">
          <g id="Group_116378" data-name="Group 116378" transform="translate(10.829 2.356)">
            <g id="Group_116377" data-name="Group 116377">
              <g id="Group_116376" data-name="Group 116376">
                <path id="Path_174842" data-name="Path 174842" d="M4757.62-300.022a2.894,2.894,0,0,0,.6-3.582c.962-.206,6.038,7.482,8.226,12.367,3.816-3.847,10.544-9.042,12.362-9.345,0,0,2.454-.66,3.335,2.306.787,2.648-2.283,4.524-2.283,4.524s-13.128,9.269-15.07,8.445C4761.772-286.589,4759.039-297.621,4757.62-300.022Z" transform="translate(-4757.62 303.608)" fill="#f37a50"/>
              </g>
            </g>
          </g>
          <g id="Group_116382" data-name="Group 116382">
            <g id="Group_116381" data-name="Group 116381">
              <g id="Group_116380" data-name="Group 116380">
                <g id="Group_116379" data-name="Group 116379">
                  <path id="Path_174843" data-name="Path 174843" d="M4757.312-299.711c1.072.065,2.4-.464,2.809.5l2.114-1.032.128-1.274c-1.816-2.912-6.245-3.738-6.684-3.776-1.139-.1-1.667-.218-1.756-.064s-.369,1.166,1.284,1.365c2.074.249.7,1.908-3.512.329-1.052-.4-3.036.117-2.319.887C4750.167-301.932,4752.436-300.009,4757.312-299.711Z" transform="translate(-4749.223 305.435)" fill="#f37a50"/>
                </g>
              </g>
            </g>
          </g>
        </g>
      </g>
    </g>
    <g id="Group_116387" data-name="Group 116387" transform="translate(4813.826 -403.619)">
      <path id="Path_174844" data-name="Path 174844" d="M4850.313-346.961a8.416,8.416,0,0,1-.475,2.787c-1.553,4.457-6.734,7.731-12.89,7.731s-11.336-3.273-12.889-7.731a8.416,8.416,0,0,1-.475-2.787Z" transform="translate(-4787.044 420.034)" fill="#3f964f"/>
      <path id="Path_174845" data-name="Path 174845" d="M4850.313-346.961a8.416,8.416,0,0,1-.475,2.787H4824.06a8.416,8.416,0,0,1-.475-2.787Z" transform="translate(-4787.044 420.034)" fill="#0e6a41"/>
      <path id="Path_174846" data-name="Path 174846" d="M4868.221-375.631a27.986,27.986,0,0,0-27.947-27.987,28.043,28.043,0,0,0-28.023,27.474,27.874,27.874,0,0,0,5.863,17.659,35.035,35.035,0,0,1,7.427,21.474v.137h29.387v-.137a35.138,35.138,0,0,1,7.446-21.5A27.859,27.859,0,0,0,4868.221-375.631Z" transform="translate(-4790.33 403.619)" fill="#ffe91d"/>
      <g id="Group_116386" data-name="Group 116386" transform="translate(36.938 20.535)">
        <path id="Path_174847" data-name="Path 174847" d="M4841.094-344.655a.724.724,0,0,1-.236-.04.714.714,0,0,1-.439-.911c.033-.1,3.333-9.6,5.731-19.287,4.25-17.161,2.063-19.951.925-20.354-3.345-1.184-6.009.569-7.654,2.247a14.234,14.234,0,0,0-1.384,1.656,26.982,26.982,0,0,1,1.9,4.043c1.482,3.959,1.877,7.658,1.054,9.893a3.512,3.512,0,0,1-3.8,2.462,4.055,4.055,0,0,1-3.621-2.866c-.754-2-.656-4.946.267-8.078a21.582,21.582,0,0,1,2.513-5.519,13.885,13.885,0,0,0-3.37-3.809c-1.841-1.343-3.571-1.4-5.141-.174-3.242,2.534-3.365,10.154-.359,22.036a157.669,157.669,0,0,0,5.752,17.716.715.715,0,0,1-.4.931.716.716,0,0,1-.932-.4,159.385,159.385,0,0,1-5.809-17.887c-3.2-12.659-2.915-20.575.861-23.527,2.074-1.621,4.513-1.57,6.866.144a14.848,14.848,0,0,1,3.4,3.725A14.759,14.759,0,0,1,4838.4-384c2.737-2.792,5.988-3.713,9.152-2.594,1.97.7,2.779,3.351,2.471,8.109a83.935,83.935,0,0,1-2.487,13.948c-2.415,9.745-5.734,19.309-5.767,19.4A.717.717,0,0,1,4841.094-344.655Zm-3.927-35.35a20.282,20.282,0,0,0-1.955,4.522c-.826,2.8-.938,5.476-.3,7.168a2.646,2.646,0,0,0,2.39,1.942,2.082,2.082,0,0,0,2.346-1.528C4840.594-370.479,4839.444-375.744,4837.167-380.005Z" transform="translate(-4823.893 387.697)" fill="#fff"/>
      </g>
      <rect id="Rectangle_37522" data-name="Rectangle 37522" width="34.977" height="10.768" rx="4.175" transform="translate(32.416 63.221)" fill="#3f964f"/>
      <path id="Path_174848" data-name="Path 174848" d="M4873.4-379.966h-9.15a2.358,2.358,0,0,1-2.357-2.359h0a2.357,2.357,0,0,1,2.357-2.358h9.15a2.358,2.358,0,0,1,2.359,2.358h0A2.359,2.359,0,0,1,4873.4-379.966Z" transform="translate(-4775.946 409.105)" fill="#ffe91d"/>
      <path id="Path_174849" data-name="Path 174849" d="M4806.762-379.966h-9.151a2.358,2.358,0,0,1-2.358-2.359h0a2.357,2.357,0,0,1,2.358-2.358h9.151a2.358,2.358,0,0,1,2.358,2.358h0A2.359,2.359,0,0,1,4806.762-379.966Z" transform="translate(-4795.252 409.105)" fill="#ffe91d"/>
      <path id="Path_174850" data-name="Path 174850" d="M4810.531-393.842l-7.283-5.542a2.359,2.359,0,0,1-.449-3.3h0a2.359,2.359,0,0,1,3.306-.449l7.282,5.542a2.357,2.357,0,0,1,.449,3.3h0A2.357,2.357,0,0,1,4810.531-393.842Z" transform="translate(-4793.206 403.619)" fill="#ffe91d"/>
      <path id="Path_174851" data-name="Path 174851" d="M4859.7-393.842l7.283-5.542a2.358,2.358,0,0,0,.447-3.3h0a2.357,2.357,0,0,0-3.3-.449l-7.282,5.542a2.357,2.357,0,0,0-.448,3.3h0A2.357,2.357,0,0,0,4859.7-393.842Z" transform="translate(-4777.678 403.619)" fill="#ffe91d"/>
      <path id="Path_174852" data-name="Path 174852" d="M4810.531-367.3l-7.283,5.542a2.359,2.359,0,0,0-.449,3.3h0a2.358,2.358,0,0,0,3.306.449l7.282-5.541a2.358,2.358,0,0,0,.449-3.306h0A2.358,2.358,0,0,0,4810.531-367.3Z" transform="translate(-4793.206 414.003)" fill="#ffe91d"/>
      <path id="Path_174853" data-name="Path 174853" d="M4859.7-367.3l7.283,5.542a2.358,2.358,0,0,1,.447,3.3h0a2.356,2.356,0,0,1-3.3.449l-7.282-5.541a2.358,2.358,0,0,1-.448-3.306h0A2.358,2.358,0,0,1,4859.7-367.3Z" transform="translate(-4777.678 414.003)" fill="#ffe91d"/>
    </g>
    <g id="Group_116388" data-name="Group 116388" transform="translate(4864.73 -279.144)">
      <path id="Vector_25" data-name="Vector 25" d="M4839.461-288.224a34.493,34.493,0,0,1-2.945-8.182,46.47,46.47,0,0,1-.609-10.191.528.528,0,0,1,.979-.255c1.325,2.167,3.72,6.518,4.258,10.449a81.72,81.72,0,0,1,.745,8.182Z" transform="translate(-4834.392 307.106)" fill="#3f964f"/>
      <path id="Vector_26" data-name="Vector 26" d="M4840.359-289.155a65.4,65.4,0,0,1,2.946-8.092,30.072,30.072,0,0,1,4.985-6.536.36.36,0,0,1,.614.315,30.757,30.757,0,0,1-2.386,7.75,36.584,36.584,0,0,1-4.713,6.563Z" transform="translate(-4833.088 308.036)" fill="#3f964f"/>
      <path id="Vector_27" data-name="Vector 27" d="M4834.777-295.644a.491.491,0,0,1,.595-.689,8.383,8.383,0,0,1,2.886,1.673,6,6,0,0,1,1.863,3.052l-.541.182S4836.656-291.959,4834.777-295.644Z" transform="translate(-4834.722 310.219)" fill="#0e6a41"/>
      <path id="Vector_28" data-name="Vector 28" d="M4844.362-304.493a.539.539,0,0,0-.975-.276,20.175,20.175,0,0,0-3.536,8.212,19.517,19.517,0,0,0,.124,7.723h.62a53.518,53.518,0,0,0,3.174-7.26A25.652,25.652,0,0,0,4844.362-304.493Z" transform="translate(-4833.324 307.718)" fill="#0e6a41"/>
      <path id="Vector_29" data-name="Vector 29" d="M4841.481-291.1a10.077,10.077,0,0,1,5.809-6.042.322.322,0,0,1,.408.424c-.592,1.447-2.281,4.9-5.134,5.617Z" transform="translate(-4832.763 309.986)" fill="#0e6a41"/>
      <path id="Vector_23" data-name="Vector 23" d="M4846.9-293.04h-10.4l1.336,10.66h7.733Z" transform="translate(-4834.207 311.181)" fill="#768fdb"/>
    </g>
    <g id="Group_116391" data-name="Group 116391" transform="translate(4846.127 -261.094)">
      <g id="Group_116389" data-name="Group 116389" transform="translate(2.351 7.694)">
        <path id="Path_174854" data-name="Path 174854" d="M4839.884-286.412v1.53h.417a.366.366,0,0,1,.365.366v.062a.366.366,0,0,1-.365.366h-17.753a.427.427,0,0,1-.427-.427v-2.2a.426.426,0,0,1,.427-.427H4840.3a.366.366,0,0,1,.365.366h0a.366.366,0,0,1-.365.366Z" transform="translate(-4822.121 287.145)" fill="#e62552"/>
        <path id="Rectangle_37523" data-name="Rectangle 37523" d="M.593,0H15.838a0,0,0,0,1,0,0V1.53a0,0,0,0,1,0,0H.593A.593.593,0,0,1,0,.937V.593A.593.593,0,0,1,.593,0Z" transform="translate(1.977 0.733)" fill="#fff"/>
      </g>
      <g id="Group_116390" data-name="Group 116390" transform="translate(0 4.314)">
        <path id="Path_174855" data-name="Path 174855" d="M4821.079-288.956v1.692h-.416a.387.387,0,0,0-.365.4v.068a.386.386,0,0,0,.365.4h17.753a.451.451,0,0,0,.427-.471V-289.3a.45.45,0,0,0-.427-.471h-17.753a.386.386,0,0,0-.365.4h0a.387.387,0,0,0,.365.4Z" transform="translate(-4820.298 289.766)" fill="#3f964f"/>
        <path id="Rectangle_37524" data-name="Rectangle 37524" d="M.656,0H15.838a0,0,0,0,1,0,0V1.693a0,0,0,0,1,0,0H.656A.656.656,0,0,1,0,1.036V.656A.656.656,0,0,1,.656,0Z" transform="translate(16.567 2.502) rotate(-180)" fill="#fff"/>
      </g>
      <rect id="Rectangle_37525" data-name="Rectangle 37525" width="17.483" height="2.745" rx="1.064" transform="translate(1.447)" fill="#e62552"/>
      <rect id="Rectangle_37526" data-name="Rectangle 37526" width="17.483" height="1.569" rx="0.608" transform="translate(2.589 2.745)" fill="#768fdb"/>
    </g>
  </g>
</svg>
