<svg xmlns="http://www.w3.org/2000/svg" xmlns:xlink="http://www.w3.org/1999/xlink" width="276" height="204.22" viewBox="0 0 276 204.22">
  <defs>
    <clipPath id="clip-path">
      <path id="Path_175512" data-name="Path 175512" d="M4897.876-571.314a9.883,9.883,0,0,0-9.882-9.882,9.882,9.882,0,0,0-9.882,9.882,9.882,9.882,0,0,0,9.882,9.882A9.883,9.883,0,0,0,4897.876-571.314Z" transform="translate(-4878.112 581.196)" fill="none"/>
    </clipPath>
  </defs>
  <g id="t5-lt2" transform="translate(-4727.225 606.302)">
    <g id="Group_116483" data-name="Group 116483" transform="translate(4727.225 -606.302)">
      <path id="Path_175492" data-name="Path 175492" d="M4936.157-516.211c-1.646,3.769-3.377,7.5-5.264,11.152q-2.792,5.5-5.95,10.8c-2.071,3.549-4.3,7-6.637,10.382-2.321,3.391-4.793,6.676-7.352,9.894A163.161,163.161,0,0,1,4894.032-456a122.39,122.39,0,0,0,17.923-17.154,146.055,146.055,0,0,0,14.427-20.256c2.095-3.58,4.093-7.22,5.927-10.938,1.817-3.727,3.541-7.505,5.056-11.367,1.534-3.852,2.869-7.784,4.024-11.763.559-2,1.076-4,1.529-6.02.479-2.013.847-4.051,1.184-6.09A149.887,149.887,0,0,1,4936.157-516.211Z" transform="translate(-4668.103 629.949)" fill="#f8dfeb"/>
      <path id="Path_175493" data-name="Path 175493" d="M4801.322-430.281c-4.771-1.75-9.482-3.653-14.146-5.667s-9.253-4.2-13.783-6.493q-3.4-1.719-6.716-3.57c-2.188-1.268-4.364-2.56-6.454-3.981a86.05,86.05,0,0,1-11.817-9.43,63.878,63.878,0,0,1-16.491-24.951,57.664,57.664,0,0,1-3.09-14.727,61.793,61.793,0,0,1-.115-7.548l.037-.945.084-.941.176-1.883.176-1.884c.072-.626.2-1.245.3-1.868l.313-1.866c.106-.622.188-1.249.356-1.858l.888-3.683a73.881,73.881,0,0,1,2.42-7.18,71.174,71.174,0,0,1,7-13.436,63.592,63.592,0,0,1,9.843-11.544c.9-.9,1.92-1.654,2.9-2.46.962-.836,2.048-1.5,3.084-2.231l.785-.543.825-.473,1.656-.948a15.8,15.8,0,0,1,1.713-.834l1.741-.788a42.127,42.127,0,0,0-13,7.948,64.224,64.224,0,0,0-10.222,11.414,71.273,71.273,0,0,0-7.31,13.5,75.1,75.1,0,0,0-2.565,7.258l-.959,3.733c-.179.618-.272,1.256-.392,1.887l-.348,1.9a60.5,60.5,0,0,0,2.263,30.5,65.49,65.49,0,0,0,16.772,25.66,100.657,100.657,0,0,0,25.457,17.132,236.129,236.129,0,0,0,28.183,12.013A213.129,213.129,0,0,0,4830.425-421a176.761,176.761,0,0,0,30.4,3.225,187.221,187.221,0,0,1-30.233-4.029A213.7,213.7,0,0,1,4801.322-430.281Z" transform="translate(-4727.226 622)" fill="#f8dfeb"/>
      <path id="Path_175494" data-name="Path 175494" d="M4868.607-603.761a79.787,79.787,0,0,1,13.717-.956,99.923,99.923,0,0,1,13.7,1.349,125.607,125.607,0,0,1,13.45,3.115l1.665.467.833.233.819.267,3.282,1.07c2.168.771,4.318,1.59,6.438,2.489a80.365,80.365,0,0,1,23.2,14.857,60.772,60.772,0,0,0-5.022-4.826,69.379,69.379,0,0,0-5.507-4.295q-2.871-2-5.915-3.734c-2.029-1.153-4.116-2.2-6.232-3.191s-4.281-1.868-6.471-2.678l-3.312-1.142-.828-.284-.836-.251-1.676-.5c-1.117-.329-2.231-.676-3.358-.972l-3.4-.841c-.567-.137-1.132-.287-1.7-.413l-1.717-.343c-1.146-.225-2.288-.467-3.438-.677a98.334,98.334,0,0,0-13.96-1.284,75.438,75.438,0,0,0-13.968,1.254A65.694,65.694,0,0,0,4854.988-601a81.55,81.55,0,0,0-12.315,6.512,93.021,93.021,0,0,1,12.614-5.748A70.6,70.6,0,0,1,4868.607-603.761Z" transform="translate(-4686.306 606.302)" fill="#f8dfeb"/>
      <path id="Path_175495" data-name="Path 175495" d="M4984.45-480.963c32.138-61.069,11.511-102.75-33.689-116.816s-68.059,2.576-99.9,32.455-55.76,9.542-87.7,21.445c-28.468,10.609-59.085,76.633,6.734,111.2C4850.289-390.467,4940.065-396.619,4984.45-480.963Z" transform="translate(-4726.019 607.527)" fill="#f8dfeb"/>
      <path id="Path_175496" data-name="Path 175496" d="M4757.717-561.608a3.031,3.031,0,0,0,3.879-1.823,3.03,3.03,0,0,0-1.824-3.878,3.03,3.03,0,0,0-3.877,1.823A3.03,3.03,0,0,0,4757.717-561.608Z" transform="translate(-4717.127 620.059)" fill="#f8dfeb"/>
      <path id="Path_175497" data-name="Path 175497" d="M4764.428-562.462a5.743,5.743,0,0,0,7.349-3.454,5.744,5.744,0,0,0-3.453-7.349,5.743,5.743,0,0,0-7.35,3.454A5.74,5.74,0,0,0,4764.428-562.462Z" transform="translate(-4715.385 617.89)" fill="#f8dfeb"/>
      <path id="Path_175498" data-name="Path 175498" d="M4830.816-595.505a4.875,4.875,0,0,0,2.933,6.24,4.876,4.876,0,0,0,6.241-2.932,4.878,4.878,0,0,0-2.933-6.241A4.878,4.878,0,0,0,4830.816-595.505Z" transform="translate(-4690.611 608.986)" fill="#f8dfeb"/>
      <path id="Path_175499" data-name="Path 175499" d="M4837.724-597.225A2.946,2.946,0,0,0,4841.5-599a2.948,2.948,0,0,0-1.773-3.773A2.949,2.949,0,0,0,4835.95-601,2.949,2.949,0,0,0,4837.724-597.225Z" transform="translate(-4688.751 607.491)" fill="#f8dfeb"/>
      <path id="Path_175500" data-name="Path 175500" d="M4831.546-597.946a3.525,3.525,0,0,0,4.513-2.12,3.526,3.526,0,0,0-2.121-4.512,3.525,3.525,0,0,0-4.512,2.12A3.523,3.523,0,0,0,4831.546-597.946Z" transform="translate(-4691.076 606.839)" fill="#f8dfeb"/>
    </g>
    <g id="Group_116559" data-name="Group 116559" transform="translate(4777.321 -588.628)">
      <g id="Group_116509" data-name="Group 116509" transform="translate(16.454)">
        <g id="Group_116487" data-name="Group 116487" transform="translate(74.839 102.432)">
          <path id="Rectangle_37591" data-name="Rectangle 37591" d="M3.885,0H50.414A3.886,3.886,0,0,1,54.3,3.886V23.114A3.885,3.885,0,0,1,50.415,27H3.885A3.885,3.885,0,0,1,0,23.113V3.885A3.885,3.885,0,0,1,3.885,0Z" fill="#f27eff"/>
          <g id="Group_116486" data-name="Group 116486" transform="translate(3.135 3.107)">
            <g id="Group_116484" data-name="Group 116484" transform="translate(27.554)">
              <path id="Path_175501" data-name="Path 175501" d="M4872.162-500.9h-14.994a2.878,2.878,0,0,1-2.047-.848,2.878,2.878,0,0,1-.849-2.047v-8.645a2.9,2.9,0,0,1,2.9-2.9h14.994a2.9,2.9,0,0,1,2.895,2.9v8.644A2.9,2.9,0,0,1,4872.162-500.9Zm-14.994-13.241a1.7,1.7,0,0,0-1.7,1.7v8.645a1.683,1.683,0,0,0,.5,1.2,1.69,1.69,0,0,0,1.2.5h14.994a1.7,1.7,0,0,0,1.7-1.7v-8.644a1.7,1.7,0,0,0-1.7-1.7Z" transform="translate(-4854.272 515.332)" fill="#fff"/>
              <path id="Path_175502" data-name="Path 175502" d="M4864.272-506.784a.6.6,0,0,1-.367-.126l-8.812-6.875a.6.6,0,0,1-.1-.838.6.6,0,0,1,.838-.1l8.437,6.583,8.443-6.833a.6.6,0,0,1,.84.088.6.6,0,0,1-.088.84l-8.814,7.132A.6.6,0,0,1,4864.272-506.784Z" transform="translate(-4854.063 515.41)" fill="#fff"/>
            </g>
            <g id="Group_116485" data-name="Group 116485" transform="translate(0 3.864)">
              <path id="Path_175503" data-name="Path 175503" d="M4859.552-511.283h-25.026a.6.6,0,0,1-.6-.6.6.6,0,0,1,.6-.6h25.026a.6.6,0,0,1,.6.6A.6.6,0,0,1,4859.552-511.283Z" transform="translate(-4833.929 512.479)" fill="#fff"/>
              <path id="Path_175504" data-name="Path 175504" d="M4856.4-507.674h-12.98a.6.6,0,0,1-.6-.6.6.6,0,0,1,.6-.6h12.98a.6.6,0,0,1,.6.6A.6.6,0,0,1,4856.4-507.674Z" transform="translate(-4830.777 513.758)" fill="#fff"/>
            </g>
          </g>
        </g>
        <g id="Group_116508" data-name="Group 116508">
          <g id="Group_116493" data-name="Group 116493" transform="translate(78.648)">
            <g id="Group_116489" data-name="Group 116489">
              <path id="Path_175505" data-name="Path 175505" d="M4834.427-586.446a6.962,6.962,0,0,1,7.109-6.807h68.772a6.963,6.963,0,0,1,7.11,6.807v5.731h-82.992Z" transform="translate(-4834.427 593.253)" fill="#0019ae" fill-rule="evenodd"/>
              <path id="Path_175506" data-name="Path 175506" d="M4917.419-584v44.505a6.966,6.966,0,0,1-7.11,6.809h-68.772a6.964,6.964,0,0,1-7.109-6.809V-584Z" transform="translate(-4834.427 596.534)" fill="#fbc0de" fill-rule="evenodd"/>
              <g id="Group_116488" data-name="Group 116488" transform="translate(61.707 4.352)">
                <path id="Path_175507" data-name="Path 175507" d="M4889.732-587.937a2.1,2.1,0,0,0,2.1,2.1,2.1,2.1,0,0,0,2.1-2.1,2.1,2.1,0,0,0-2.1-2.1A2.1,2.1,0,0,0,4889.732-587.937Z" transform="translate(-4876.532 590.04)" fill="#fff"/>
                <path id="Path_175508" data-name="Path 175508" d="M4884.86-587.937a2.1,2.1,0,0,0,2.1,2.1,2.1,2.1,0,0,0,2.1-2.1,2.1,2.1,0,0,0-2.1-2.1A2.1,2.1,0,0,0,4884.86-587.937Z" transform="translate(-4878.258 590.04)" fill="#fff"/>
                <path id="Path_175509" data-name="Path 175509" d="M4879.986-587.937a2.105,2.105,0,0,0,2.1,2.1,2.1,2.1,0,0,0,2.1-2.1,2.1,2.1,0,0,0-2.1-2.1A2.1,2.1,0,0,0,4879.986-587.937Z" transform="translate(-4879.986 590.04)" fill="#fff"/>
              </g>
            </g>
            <g id="Group_116492" data-name="Group 116492" transform="translate(59.17 16.33)">
              <path id="Path_175510" data-name="Path 175510" d="M4897.876-571.314a9.883,9.883,0,0,0-9.882-9.882,9.882,9.882,0,0,0-9.882,9.882,9.882,9.882,0,0,0,9.882,9.882A9.883,9.883,0,0,0,4897.876-571.314Z" transform="translate(-4878.112 581.196)" fill="#fff"/>
              <g id="Group_116491" data-name="Group 116491">
                <g id="Group_116490" data-name="Group 116490" clip-path="url(#clip-path)">
                  <path id="Path_175511" data-name="Path 175511" d="M4896.512-561.6c-6.582-.057-11.033-.061-17.6,0-.048-2.487.441-3.963,2.291-4.767,1.351-.585,3.248-.513,3.666-1.648.593-1.612-.756-3.154-1.19-4.583-.943-3.092.694-6.7,3.666-6.966,3.108-.272,5.189,3.278,4.4,6.508-.408,1.665-1.757,3.218-1.284,4.857.28.964,1.431,1.231,2.566,1.559C4895.485-565.938,4896.5-564.994,4896.512-561.6Z" transform="translate(-4877.831 581.767)" fill="#8686f5" fill-rule="evenodd"/>
                </g>
              </g>
            </g>
          </g>
          <g id="Group_116505" data-name="Group 116505" transform="translate(0 18.399)">
            <g id="Group_116494" data-name="Group 116494">
              <path id="Path_175513" data-name="Path 175513" d="M4873.815-568.8v52.262a8.175,8.175,0,0,1-8.349,8H4784.71a8.176,8.176,0,0,1-8.349-8V-568.8Z" transform="translate(-4776.359 583.523)" fill="#f27eff" fill-rule="evenodd"/>
              <path id="Path_175514" data-name="Path 175514" d="M4776.36-571.672a8.177,8.177,0,0,1,8.35-8h80.757a8.175,8.175,0,0,1,8.349,8v6.73H4776.36Z" transform="translate(-4776.36 579.669)" fill="#0019ae" fill-rule="evenodd"/>
              <path id="Path_175515" data-name="Path 175515" d="M4787.448-573.576a3.194,3.194,0,0,0,3.193,3.2,3.2,3.2,0,0,0,3.2-3.2,3.2,3.2,0,0,0-3.2-3.2,3.194,3.194,0,0,0-3.193,3.2" transform="translate(-4772.43 580.696)" fill="#fafbff"/>
              <path id="Path_175516" data-name="Path 175516" d="M4785-570.41h-3.657l1.829-3.167,1.828-3.167,1.827,3.167,1.828,3.167Z" transform="translate(-4774.594 580.706)" fill="#fafbff"/>
            </g>
            <g id="Group_116504" data-name="Group 116504" transform="translate(5.942 19.84)">
              <g id="Group_116495" data-name="Group 116495" transform="translate(45.173)">
                <path id="Rectangle_37592" data-name="Rectangle 37592" d="M2.031,0H38.725a2.031,2.031,0,0,1,2.031,2.031V46.545a2.031,2.031,0,0,1-2.031,2.031H2.03A2.03,2.03,0,0,1,0,46.545V2.031A2.031,2.031,0,0,1,2.031,0Z" fill="#fff" opacity="0.3"/>
              </g>
              <g id="Group_116503" data-name="Group 116503">
                <path id="Rectangle_37593" data-name="Rectangle 37593" d="M2.031,0H38.725a2.031,2.031,0,0,1,2.031,2.031V46.545a2.031,2.031,0,0,1-2.031,2.031H2.03A2.03,2.03,0,0,1,0,46.545V2.031A2.031,2.031,0,0,1,2.031,0Z" fill="#fff" opacity="0.3"/>
                <g id="Group_116502" data-name="Group 116502" transform="translate(2.609 3.681)">
                  <path id="Path_175517" data-name="Path 175517" d="M4804.209-537.925a10.432,10.432,0,0,0-10.432-10.432,10.43,10.43,0,0,0-10.43,10.432,10.429,10.429,0,0,0,10.43,10.432A10.431,10.431,0,0,0,4804.209-537.925Z" transform="translate(-4782.435 567.246)" fill="#fff"/>
                  <path id="Path_175518" data-name="Path 175518" d="M4782.673-539.823a11.555,11.555,0,0,1,11.343-9.362,11.558,11.558,0,0,1,2.851.356l-2.851,12.094Z" transform="translate(-4782.673 566.952)" fill="#0019ae"/>
                  <g id="Group_116501" data-name="Group 116501" transform="translate(1.556)">
                    <g id="Group_116496" data-name="Group 116496">
                      <path id="Path_175519" data-name="Path 175519" d="M4784.487-550.307h32.187a.664.664,0,0,0,.665-.664.665.665,0,0,0-.665-.665h-32.187a.666.666,0,0,0-.666.665A.664.664,0,0,0,4784.487-550.307Z" transform="translate(-4783.822 566.084)" fill="#fff"/>
                      <path id="Path_175520" data-name="Path 175520" d="M4784.487-555.64h32.187a.665.665,0,0,0,.665-.665.665.665,0,0,0-.665-.665h-32.187a.666.666,0,0,0-.666.665A.666.666,0,0,0,4784.487-555.64Z" transform="translate(-4783.822 564.193)" fill="#fff"/>
                      <path id="Path_175521" data-name="Path 175521" d="M4784.487-560.974h32.187a.664.664,0,0,0,.665-.665.664.664,0,0,0-.665-.664h-32.187a.665.665,0,0,0-.666.664A.665.665,0,0,0,4784.487-560.974Z" transform="translate(-4783.822 562.303)" fill="#fff"/>
                    </g>
                    <g id="Group_116497" data-name="Group 116497" transform="translate(22.155 21.687)">
                      <path id="Path_175522" data-name="Path 175522" d="M4800.844-539.628h10.033a.664.664,0,0,0,.665-.664.664.664,0,0,0-.665-.665h-10.033a.663.663,0,0,0-.665.665A.663.663,0,0,0,4800.844-539.628Z" transform="translate(-4800.179 548.182)" fill="#fff"/>
                      <path id="Path_175523" data-name="Path 175523" d="M4800.844-544.961h10.033a.665.665,0,0,0,.665-.665.665.665,0,0,0-.665-.665h-10.033a.664.664,0,0,0-.665.665A.664.664,0,0,0,4800.844-544.961Z" transform="translate(-4800.179 546.291)" fill="#fff"/>
                    </g>
                    <g id="Group_116498" data-name="Group 116498" transform="translate(22.155 36.148)">
                      <path id="Path_175524" data-name="Path 175524" d="M4800.844-534.285h10.033a.664.664,0,0,0,.665-.664.664.664,0,0,0-.665-.665h-10.033a.663.663,0,0,0-.665.665A.663.663,0,0,0,4800.844-534.285Z" transform="translate(-4800.179 535.614)" fill="#fff"/>
                    </g>
                    <g id="Group_116499" data-name="Group 116499" transform="translate(44.628)">
                      <path id="Path_175525" data-name="Path 175525" d="M4817.437-550.307h32.185a.665.665,0,0,0,.667-.664.666.666,0,0,0-.667-.665h-32.185a.665.665,0,0,0-.666.665A.664.664,0,0,0,4817.437-550.307Z" transform="translate(-4816.771 566.084)" fill="#fff"/>
                      <path id="Path_175526" data-name="Path 175526" d="M4817.437-555.64h32.185a.666.666,0,0,0,.667-.665.666.666,0,0,0-.667-.665h-32.185a.665.665,0,0,0-.666.665A.665.665,0,0,0,4817.437-555.64Z" transform="translate(-4816.771 564.193)" fill="#fff"/>
                      <path id="Path_175527" data-name="Path 175527" d="M4817.437-560.974h32.185a.665.665,0,0,0,.667-.665.665.665,0,0,0-.667-.664h-32.185a.664.664,0,0,0-.666.664A.664.664,0,0,0,4817.437-560.974Z" transform="translate(-4816.771 562.303)" fill="#fff"/>
                    </g>
                    <g id="Group_116500" data-name="Group 116500" transform="translate(44.628 21.686)">
                      <path id="Path_175528" data-name="Path 175528" d="M4817.437-539.628h32.185a.666.666,0,0,0,.667-.665.666.666,0,0,0-.667-.665h-32.185a.665.665,0,0,0-.666.665A.665.665,0,0,0,4817.437-539.628Z" transform="translate(-4816.771 548.183)" fill="#fff"/>
                      <path id="Path_175529" data-name="Path 175529" d="M4817.437-544.961h32.185a.666.666,0,0,0,.667-.665.667.667,0,0,0-.667-.666h-32.185a.665.665,0,0,0-.666.666A.665.665,0,0,0,4817.437-544.961Z" transform="translate(-4816.771 546.292)" fill="#fff"/>
                    </g>
                  </g>
                </g>
              </g>
            </g>
          </g>
          <g id="Group_116507" data-name="Group 116507" transform="translate(63.641 23.445)">
            <path id="Path_175530" data-name="Path 175530" d="M4890.976-569.631a5.581,5.581,0,0,1-5.587,5.578l-56.466-.05a5.581,5.581,0,0,1-5.576-5.586v-.677a5.58,5.58,0,0,1,5.587-5.576l56.466.047a5.583,5.583,0,0,1,5.577,5.587Z" transform="translate(-4823.347 575.943)" fill="#8686f5"/>
            <g id="Group_116506" data-name="Group 116506" transform="translate(4.266 2.651)">
              <path id="Path_175531" data-name="Path 175531" d="M4833.69-567.914l-5.847-.005a1.348,1.348,0,0,1-1.347-1.349l0-3.371a1.349,1.349,0,0,1,1.349-1.346l5.846.005a1.351,1.351,0,0,1,1.348,1.349l0,3.371A1.349,1.349,0,0,1,4833.69-567.914Zm-5.843-5.168a.445.445,0,0,0-.444.444l0,3.371a.443.443,0,0,0,.443.444l5.847.005a.445.445,0,0,0,.444-.444l0-3.371a.445.445,0,0,0-.444-.444Z" transform="translate(-4826.497 573.986)" fill="#fff"/>
              <path id="Path_175532" data-name="Path 175532" d="M4830.72-570.213a.445.445,0,0,1-.283-.1L4827-573.1a.451.451,0,0,1-.066-.635.453.453,0,0,1,.636-.066l3.155,2.557,3.156-2.457a.449.449,0,0,1,.632.08.45.45,0,0,1-.079.634L4831-570.308A.455.455,0,0,1,4830.72-570.213Z" transform="translate(-4826.377 574.017)" fill="#fff"/>
            </g>
            <path id="Path_175533" data-name="Path 175533" d="M4852.825-569.249l-18.926-.016a.452.452,0,0,1-.452-.452.453.453,0,0,1,.452-.451l18.926.016a.453.453,0,0,1,.453.454A.453.453,0,0,1,4852.825-569.249Z" transform="translate(-4819.768 577.99)" fill="#fff"/>
            <path id="Path_175534" data-name="Path 175534" d="M4855.055-573.264a3.393,3.393,0,0,0-2.473-1.032,3.4,3.4,0,0,0-2.483,1.028,3.408,3.408,0,0,0-1.028,2.477,3.4,3.4,0,0,0,1.024,2.479,3.407,3.407,0,0,0,2.48,1.032,3.446,3.446,0,0,0,1.438-.3.362.362,0,0,0,.192-.148.415.415,0,0,0,.075-.236.4.4,0,0,0-.118-.293.384.384,0,0,0-.29-.122.365.365,0,0,0-.19.051,2.726,2.726,0,0,1-1.106.226,2.6,2.6,0,0,1-1.9-.792,2.594,2.594,0,0,1-.782-1.9,2.594,2.594,0,0,1,.786-1.9,2.607,2.607,0,0,1,1.9-.788,2.662,2.662,0,0,1,1.032.2,2.8,2.8,0,0,1,.864.593,2.683,2.683,0,0,1,.591.859,2.709,2.709,0,0,1,.195,1.039c0,.926-.21,1.4-.623,1.4-.075,0-.1-.028-.1-.1v-1.292a1.89,1.89,0,0,0-.575-1.384,1.886,1.886,0,0,0-1.382-.577,1.894,1.894,0,0,0-1.385.574,1.894,1.894,0,0,0-.576,1.384,1.9,1.9,0,0,0,.573,1.386,1.9,1.9,0,0,0,1.384.576,1.935,1.935,0,0,0,1.167-.382.8.8,0,0,0,.9.642c.956,0,1.442-.745,1.442-2.216A3.4,3.4,0,0,0,4855.055-573.264Zm-1.674,3.274a1.111,1.111,0,0,1-.36.245,1.148,1.148,0,0,1-.886,0,1.158,1.158,0,0,1-.363-.24,1.163,1.163,0,0,1-.242-.362,1.079,1.079,0,0,1-.09-.443,1.108,1.108,0,0,1,.09-.443,1.168,1.168,0,0,1,.243-.36,1.183,1.183,0,0,1,.363-.24,1.133,1.133,0,0,1,.443-.088,1.086,1.086,0,0,1,.442.091,1.116,1.116,0,0,1,.36.245,1.167,1.167,0,0,1,.241.362,1.1,1.1,0,0,1,.088.436,1.078,1.078,0,0,1-.089.435A1.149,1.149,0,0,1,4853.381-569.99Z" transform="translate(-4814.23 576.527)" fill="#fff"/>
            <path id="Path_175535" data-name="Path 175535" d="M4874.2-569.379l-18.925-.016a.451.451,0,0,1-.451-.452.451.451,0,0,1,.451-.451l18.927.016a.451.451,0,0,1,.451.452A.451.451,0,0,1,4874.2-569.379Z" transform="translate(-4812.191 577.943)" fill="#fff"/>
          </g>
        </g>
      </g>
      <g id="Group_116558" data-name="Group 116558" transform="translate(0 39.689)">
        <g id="Group_116536" data-name="Group 116536">
          <path id="Path_175536" data-name="Path 175536" d="M4790.381-520.362c-.009-.041.018-.046.048-.047,1.957.206,3.051,1.51,4.4,2.579a104.087,104.087,0,0,1,8.5,7.978c3.085-2.727,6.282-5.342,9.507-7.93,1.035,1.02,1.95,2.159,2.915,3.249-3.157,3.941-6.447,8.236-10.7,11.37-1.178.867-2.728,1.773-4.491.906a11.379,11.379,0,0,1-2.149-1.766,64.685,64.685,0,0,1-5.542-6.068C4793.559-514.233,4792.436-518.218,4790.381-520.362Z" transform="translate(-4754.937 579.383)" fill="#dd87b8" fill-rule="evenodd"/>
          <g id="Group_116514" data-name="Group 116514" transform="translate(48.703)">
            <g id="Group_116510" data-name="Group 116510" transform="translate(20.16 63.509)">
              <path id="Path_175537" data-name="Path 175537" d="M4817.908-510.163a4.306,4.306,0,0,1-.8-2.736l-.973-1.349,2.759-1.994a4.354,4.354,0,0,1,6.076.993l18.075,25.1a4.357,4.357,0,0,1-.988,6.075l-2.76,1.987-.975-1.354a4.349,4.349,0,0,1-2.343-1.621Z" transform="translate(-4814.673 517.061)" fill="#0019ae" fill-rule="evenodd"/>
              <path id="Path_175538" data-name="Path 175538" d="M4833.948-483.782a4.35,4.35,0,0,0,6.074.989,4.357,4.357,0,0,0,.99-6.076l-18.073-25.1a4.348,4.348,0,0,0-6.074-.985,4.352,4.352,0,0,0-.993,6.069Z" transform="translate(-4815.055 517.515)" fill="#5757d0" fill-rule="evenodd"/>
            </g>
            <g id="Group_116511" data-name="Group 116511" transform="translate(0 36.095)">
              <path id="Path_175539" data-name="Path 175539" d="M4813.435-519.114c-4.888-7.619-6.165-15.516-2.856-17.652l.012-.01.005,0c.046-.027.1-.052.141-.077,3.365-1.917,9.9,2.521,14.721,10.031,4.888,7.627,6.164,15.529,2.85,17.658a3.1,3.1,0,0,1-.4.215c-3.431,1.575-9.77-2.823-14.478-10.162" transform="translate(-4797.133 537.301)" fill="#0019ae"/>
              <path id="Path_175540" data-name="Path 175540" d="M4800.171-517.837a7.77,7.77,0,0,0,7.837,7.7,7.768,7.768,0,0,0,8.042-7.481,7.773,7.773,0,0,0-7.834-7.705,7.771,7.771,0,0,0-8.045,7.489" transform="translate(-4800.171 541.545)" fill="#5757d0" fill-rule="evenodd"/>
              <path id="Path_175541" data-name="Path 175541" d="M4802.3-529.61l.007-.01.077-.056a1.247,1.247,0,0,1,.13-.089.9.9,0,0,0,.083-.05c1.5-.986,8.42-5.559,10.837-7.092-3.308,2.136-2.032,10.034,2.856,17.652,4.708,7.34,11.046,11.738,14.478,10.162l-10.033,6.519a2.752,2.752,0,0,1-.508.414,3.862,3.862,0,0,1-.551.279l0,.007,0,0c-3.47,1.363-9.68-3.014-14.31-10.231-4.787-7.449-6.107-15.177-3.06-17.5" transform="translate(-4799.993 537.441)" fill="#8686f5"/>
              <path id="Path_175542" data-name="Path 175542" d="M4822.212-516.34l-10.368,7.486a21.1,21.1,0,0,1-4.305-3.392l10.165-7.946a23.742,23.742,0,0,0,4.508,3.852" transform="translate(-4797.559 543.365)" fill="#5757d0"/>
              <path id="Path_175543" data-name="Path 175543" d="M4815.237-523.441q.725,1.1,1.5,2.1l-10.421,7.781c-.528-.657-1.049-1.329-1.553-2.055Z" transform="translate(-4798.543 542.213)" fill="#5757d0"/>
            </g>
            <g id="Group_116512" data-name="Group 116512" transform="translate(38.979)">
              <path id="Path_175544" data-name="Path 175544" d="M4857.556-510.111c.121-.009.239-.022.356-.037.457-.165.949-.268,1.4-.424.1-.047.211-.091.318-.135a4.768,4.768,0,0,0,.586-.385c5.209-3.991,3.044-18.839-4.835-33.165s-18.491-22.685-23.7-18.7a5.589,5.589,0,0,0-1.428,1.9c-3.062,5.648-.682,18.648,6.26,31.26C4843.229-517.6,4851.912-509.731,4857.556-510.111Z" transform="translate(-4828.949 563.95)" fill="#0019ae"/>
              <path id="Path_175545" data-name="Path 175545" d="M4831.858-543.812a4.056,4.056,0,0,1,3.94-.848c6.237,1.423,10.868,13.456,5.429,18.1a74.614,74.614,0,0,1-5.334-8.538,80.41,80.41,0,0,1-4.035-8.709" transform="translate(-4827.918 570.732)" fill="#b0b0ea"/>
            </g>
            <g id="Group_116513" data-name="Group 116513" transform="translate(14.546 1.414)">
              <path id="Path_175546" data-name="Path 175546" d="M4864.148-510.495c.024,0,.064,0,.114-.007.435-.161.9-.264,1.341-.406-4.876-1.3-10.434-5.071-15.543-10.649a61.044,61.044,0,0,1-6.354-8.276,50.842,50.842,0,0,1-4.6-8.574c-3.764-9.5-5.247-19.3-1.69-24.2,0-.083.236-.3.216-.3a15.4,15.4,0,0,0-2.506,5.98,59.8,59.8,0,0,1-10.653,22.4,47.4,47.4,0,0,1-10.356,9.94c-.909.637-2.166,1.628-2.166,1.628a.035.035,0,0,0-.01.027c-1.985,1.739-1.041,7.042,2.252,12.166,3.3,5.14,7.743,8.22,10.149,7.118h0a11.791,11.791,0,0,0,1.676-.868c7.815-4.409,19.584-7.115,31.782-6.377,2.036.127,4.015.3,6,.427A2.957,2.957,0,0,1,4864.148-510.495Z" transform="translate(-4810.909 562.906)" fill="#8686f5"/>
              <path id="Path_175547" data-name="Path 175547" d="M4814.869-521.728c-.906.639-2.172,1.636-2.172,1.636s0,.012,0,.024c-.945.822-1.222,2.468-.9,4.51-1.2-3.325-1.214-6.19.145-7.376a.037.037,0,0,1,.01-.027s1.257-.991,2.166-1.628a47.047,47.047,0,0,0,10.352-9.95,59.64,59.64,0,0,0,10.657-22.385c.527-2.079.981-4.394,2.507-5.98.014-.014-.267.3-.27.379-1.8,2.47-2.16,5.779-1.872,10.057a59.347,59.347,0,0,1-10.27,20.8,46.874,46.874,0,0,1-10.353,9.942" transform="translate(-4810.909 562.907)" fill="#5757d0"/>
              <path id="Path_175548" data-name="Path 175548" d="M4862.226-523.166c.024,0,.064,0,.114-.007.439-.162.914-.265,1.356-.412a24.4,24.4,0,0,1-6.688-3.061c-1.965-.123-3.937-.294-5.949-.419a63.471,63.471,0,0,0-32.737,7.489,11.112,11.112,0,0,1-1.67.868h0a1.644,1.644,0,0,1-.314.1c2.305,2.045,4.589,2.98,6.085,2.286h0a11.529,11.529,0,0,0,1.674-.87c7.818-4.407,19.586-7.114,31.785-6.375,2.036.127,4.015.3,6,.427A2.99,2.99,0,0,1,4862.226-523.166Z" transform="translate(-4808.987 575.577)" fill="#5757d0"/>
            </g>
          </g>
          <g id="Group_116535" data-name="Group 116535" transform="translate(0 44.537)">
            <g id="Group_116523" data-name="Group 116523" transform="translate(0 36.457)">
              <g id="Group_116517" data-name="Group 116517" transform="translate(0 45.622)">
                <g id="Group_116515" data-name="Group 116515" transform="translate(1.95)">
                  <path id="Path_175549" data-name="Path 175549" d="M4769.994-470.468l2.449,3.335-3.894,3.423-2.9-4.078Z" transform="translate(-4765.652 470.468)" fill="#ffa9a0" fill-rule="evenodd"/>
                </g>
                <g id="Group_116516" data-name="Group 116516" transform="translate(0 1.409)">
                  <path id="Path_175550" data-name="Path 175550" d="M4771.1-465.737c-.121-.156-.513-.735-.872-.8s-.684.241-1.146.544c-.718-1.116.147-2.158-1.1-3.438a27.7,27.7,0,0,0-3.772,2.41c1.994,2.931,4.173,5.894,6.238,8.838a3.25,3.25,0,0,0,.586-.8,3.241,3.241,0,0,0,0-2.42c-.341-1.115-.819-2.366-.43-3.413A6.924,6.924,0,0,1,4771.1-465.737Z" transform="translate(-4764.212 469.428)" fill="#8686f5" fill-rule="evenodd"/>
                  <path id="Path_175551" data-name="Path 175551" d="M4769.845-464.142c.1.332.205.662.3.981a3.241,3.241,0,0,1,0,2.42,3.25,3.25,0,0,1-.586.8c-.928-1.323-1.878-2.648-2.824-3.975A3.129,3.129,0,0,1,4769.845-464.142Z" transform="translate(-4763.318 471.191)" fill="#5757d0"/>
                  <path id="Path_175552" data-name="Path 175552" d="M4765.452-465.422q-.627-.9-1.24-1.8c.811-.584,1.619-1.155,2.411-1.647A3.582,3.582,0,0,1,4765.452-465.422Z" transform="translate(-4764.212 469.628)" fill="#5757d0"/>
                </g>
              </g>
              <g id="Group_116520" data-name="Group 116520" transform="translate(48.898 49.632)">
                <g id="Group_116518" data-name="Group 116518">
                  <path id="Path_175553" data-name="Path 175553" d="M4800.313-465.861l3.8-1.646,2.47,4.56-4.621,1.915Z" transform="translate(-4800.313 467.507)" fill="#ffa9a0" fill-rule="evenodd"/>
                </g>
                <g id="Group_116519" data-name="Group 116519" transform="translate(0.813 2.197)">
                  <path id="Path_175554" data-name="Path 175554" d="M4805.206-465.885c-.178.085-.83.339-.974.673s.085.722.278,1.238c-1.247.451-2.069-.623-3.6.307a27.653,27.653,0,0,0,1.51,4.214c3.3-1.291,6.675-2.756,10-4.113a3.253,3.253,0,0,0-.647-.748,3.26,3.26,0,0,0-2.36-.546c-1.162.087-2.488.272-3.421-.339A6.814,6.814,0,0,1,4805.206-465.885Z" transform="translate(-4800.914 465.885)" fill="#8686f5" fill-rule="evenodd"/>
                  <path id="Path_175555" data-name="Path 175555" d="M4806.619-465.045c.345-.02.691-.053,1.021-.079a3.26,3.26,0,0,1,2.36.546,3.253,3.253,0,0,1,.647.748c-1.5.61-3,1.241-4.5,1.869A3.124,3.124,0,0,1,4806.619-465.045Z" transform="translate(-4799.133 466.149)" fill="#5757d0"/>
                  <path id="Path_175556" data-name="Path 175556" d="M4804.335-461.233q-1.017.412-2.026.809c-.388-.92-.765-1.834-1.07-2.718A3.592,3.592,0,0,1,4804.335-461.233Z" transform="translate(-4800.799 466.857)" fill="#5757d0"/>
                </g>
              </g>
              <g id="Group_116522" data-name="Group 116522" transform="translate(4.726)">
                <path id="Path_175557" data-name="Path 175557" d="M4817.719-454.691a61.451,61.451,0,0,1-8.268,3.335c-1.2-2.637-2.281-5.339-3.425-8.166-1.667-4.119-2.581-9.088-3.405-14.1a36.9,36.9,0,0,0-.983-4.883c-.907-2.946-2.388-5.479-3.424-8.12.306,2.17.728,4.531,1.022,6.841a18.922,18.922,0,0,1,.26,3.67c-.234,3.251-2.16,5.416-3.972,7.4a37.565,37.565,0,0,1-4.093,3.627c-2.83,2.305-5.968,4.361-9.085,6.432s-6.286,4.18-9.536,5.973a3.21,3.21,0,0,1-.709-.875,65.346,65.346,0,0,1-4.4-6.4,31.238,31.238,0,0,1,2.48-2.311,225.012,225.012,0,0,1,18.407-15.026c-1.17-3.768-2.152-8.19-3.043-12.442-.833-3.975-2.146-9.449-.34-12.944,3.984-.465,8.416-.948,12.323-1.413.082-.01.1-.062.188-.056.317.023.769.6,1.1,1.051a39.6,39.6,0,0,1,2.475,4c1.037,1.85,2.021,3.813,3.024,5.6a87.955,87.955,0,0,1,5.866,11.406C4813.4-473.765,4815.53-464.077,4817.719-454.691Z" transform="translate(-4767.701 504.151)" fill="#0019ae" fill-rule="evenodd"/>
                <g id="Group_116521" data-name="Group 116521" transform="translate(0 1.207)">
                  <path id="Path_175558" data-name="Path 175558" d="M4777.751-465.46c1.634-1.378,3.339-2.7,4.981-4.1.817-.692,1.644-1.364,2.491-2.025,1.651-1.284,3.526-2.768,4.433-4.6,1.073-2.16.387-5.3-.111-7.838-.771-3.913-1.652-7.612-2.295-11.709a22.875,22.875,0,0,1-.334-4.29,12.888,12.888,0,0,1,.561-3.245c-.768.088-1.529.175-2.272.261-1.806,3.5-.494,8.969.34,12.944.892,4.252,1.873,8.674,3.043,12.442a225.012,225.012,0,0,0-18.407,15.026,31.238,31.238,0,0,0-2.48,2.311c.483.842,1,1.661,1.542,2.454,1.258-1.109,2.488-2.246,3.725-3.359C4774.558-462.609,4776.112-464.076,4777.751-465.46Z" transform="translate(-4767.701 503.26)" fill="#00197d"/>
                  <path id="Path_175559" data-name="Path 175559" d="M4794.867-476.408c.825,5.01,1.738,9.979,3.405,14.1,1.144,2.827,2.229,5.529,3.425,8.166.837-.261,1.653-.544,2.452-.84-.973-3.029-2.234-6-3.234-9.18a69.948,69.948,0,0,1-2.864-11.589,34,34,0,0,0-1.223-5.97c-.58-1.717-1.337-3.382-2.092-5.071-1.085-2.43-2.074-5.043-3.251-7.459-.329-.677-.928-2.013-1.526-2.036a.2.2,0,0,0-.185.1c-.424.465-.046,2.143.089,3.057.192,1.313.367,2.592.615,3.763,1.036,2.626,2.5,5.146,3.406,8.074A36.9,36.9,0,0,1,4794.867-476.408Z" transform="translate(-4759.948 505.731)" fill="#00197d"/>
                </g>
              </g>
            </g>
            <g id="Group_116534" data-name="Group 116534" transform="translate(20.399)">
              <path id="Path_175560" data-name="Path 175560" d="M4796.133-495.489a31.442,31.442,0,0,1-7.167,2.771,33.878,33.878,0,0,1-4.443.526,22.214,22.214,0,0,1-4.682-.047c-1.151-6.467-.513-13.849,1.529-18.871a18.958,18.958,0,0,1,4.3-6.5c1.8-1.8,3.977-3.494,7.071-3.677,3.653-.217,5.154,3.171,5.351,6.5a18.641,18.641,0,0,1-.669,5.3c-.787,3.314-1.888,6.608-1.911,10.032A12.735,12.735,0,0,0,4796.133-495.489Z" transform="translate(-4779.272 534.532)" fill="#eda2ca" fill-rule="evenodd"/>
              <g id="Group_116531" data-name="Group 116531" transform="translate(2.298)">
                <g id="Group_116527" data-name="Group 116527" transform="translate(10.236)">
                  <g id="Group_116526" data-name="Group 116526" transform="translate(0.036 1.231)">
                    <path id="Path_175561" data-name="Path 175561" d="M4790.467-522.4c-.429,1.036-1.9,4.355-1.9,4.355-.312,1.054,4.752,4.012,5.3,2.572.389-1.027.928-2.26,1.322-3.252,1.174.581,2.424.622,3.124-.11a2.277,2.277,0,0,0,.482-1.036,7.592,7.592,0,0,0-.041-2.355,24.723,24.723,0,0,0-.856-4.346,4.276,4.276,0,0,0-2.592-3.134,4.589,4.589,0,0,0-2.627-.4,4.359,4.359,0,0,0-3.328,3.371C4788.859-524.924,4789.65-523.712,4790.467-522.4Z" transform="translate(-4788.553 530.159)" fill="#ffa9a0" fill-rule="evenodd"/>
                    <g id="Group_116524" data-name="Group 116524" transform="translate(5.246 10.469)">
                      <path id="Path_175562" data-name="Path 175562" d="M4793.813-521.467l-1.387-.963.864,2.293Z" transform="translate(-4792.426 522.43)" fill="#eb6e66" fill-rule="evenodd"/>
                    </g>
                    <g id="Group_116525" data-name="Group 116525" transform="translate(6.1 4.575)">
                      <path id="Path_175563" data-name="Path 175563" d="M4796.537-526.5c-.005.13-.413.215-.909.192s-.893-.145-.89-.275.416-.215.912-.194.892.146.887.276" transform="translate(-4792.461 526.781)" fill="#0019ae" fill-rule="evenodd"/>
                      <path id="Path_175564" data-name="Path 175564" d="M4794.809-526.573c.031.126-.336.32-.82.435s-.9.1-.93-.023.34-.32.823-.433.9-.106.927.022" transform="translate(-4793.057 526.819)" fill="#0019ae" fill-rule="evenodd"/>
                      <path id="Path_175565" data-name="Path 175565" d="M4795.944-525.454c.017.222-.1.41-.264.423s-.306-.159-.321-.382.1-.409.264-.421.306.16.321.381" transform="translate(-4792.241 527.117)" fill="#0019ae" fill-rule="evenodd"/>
                      <path id="Path_175566" data-name="Path 175566" d="M4794.045-525.222c.013.222-.1.41-.265.423s-.305-.159-.322-.381.1-.409.265-.423.3.16.321.381" transform="translate(-4792.915 527.199)" fill="#0019ae" fill-rule="evenodd"/>
                      <path id="Path_175567" data-name="Path 175567" d="M4794.87-522.761a.084.084,0,0,0,.026-.005.707.707,0,0,0,.478-.324c.186-.32.057-.769-.1-1.339a7.764,7.764,0,0,1-.273-1.218.151.151,0,0,0-.168-.129.146.146,0,0,0-.128.165,8.224,8.224,0,0,0,.283,1.262c.136.482.255.9.134,1.109a.431.431,0,0,1-.293.186.149.149,0,0,0-.107.181.148.148,0,0,0,.155.111" transform="translate(-4792.475 527.137)" fill="#eb6e66"/>
                      <path id="Path_175568" data-name="Path 175568" d="M4795.155-522.45a1.989,1.989,0,0,0,.5-.107.151.151,0,0,0,.091-.191.147.147,0,0,0-.188-.091c-.828.287-1.133-.183-1.147-.2a.149.149,0,0,0-.2-.049.149.149,0,0,0-.05.2,1.062,1.062,0,0,0,1,.436" transform="translate(-4792.676 528.082)" fill="#eb6e66"/>
                    </g>
                  </g>
                  <path id="Path_175569" data-name="Path 175569" d="M4797.466-529.971a9.669,9.669,0,0,1,1.608-.489c.517-.13,1.2-.464,1.659-.065-.054.593-.566.684-.892.981a8.527,8.527,0,0,1,2.125-.218c.9.169.444.935-.026,1.337a8.486,8.486,0,0,1-2.959,1.518c-1.7.492-3.744.191-5.5.133-.146.543-.31,2.125-.458,2.666-.042.141-.132-.072-.137-.074a1.048,1.048,0,0,0-.654-.314c-1.218-.03-.878,2.3.358,2.13-.34.783-.6,1.722-1.8,1.536a1.84,1.84,0,0,1-1.1-.578c-1.62-2.173-1.4-6.5-.266-7.594a2.908,2.908,0,0,1,2.007-.752,7.744,7.744,0,0,1,.632-.712C4793.441-531.525,4796.438-531.076,4797.466-529.971Z" transform="translate(-4788.527 531.068)" fill="#0019ae" fill-rule="evenodd"/>
                </g>
                <g id="Group_116530" data-name="Group 116530" transform="translate(0 11.656)">
                  <g id="Group_116529" data-name="Group 116529">
                    <g id="Group_116528" data-name="Group 116528">
                      <path id="Path_175570" data-name="Path 175570" d="M4786.73-522.419c3.517-.539,9.413,4.093,9.388,4.6-.022.528-4.61-1.3-8.479.748-1.483.786-2.995,1.681-4.683,2.484-.439.21-1.4.692-1.768.382C4779.929-515.252,4784.4-522.062,4786.73-522.419Z" transform="translate(-4780.969 522.462)" fill="#dd87b8" fill-rule="evenodd"/>
                    </g>
                    <path id="Path_175571" data-name="Path 175571" d="M4791.176-520.6c-1.883-1.117-4.16-2.083-5.873-1.82a1.6,1.6,0,0,0-.312.085,12.767,12.767,0,0,0,4.26,1.426C4789.933-520.772,4790.585-520.669,4791.176-520.6Z" transform="translate(-4779.542 522.462)" fill="#eda2ca"/>
                  </g>
                  <path id="Path_175572" data-name="Path 175572" d="M4792.163-518.744c-.2-.261.515-1.113.714-1.1.219.012.129.7,0,.876C4792.766-518.816,4792.276-518.6,4792.163-518.744Z" transform="translate(-4777.013 523.39)" fill="#dd87b8" fill-rule="evenodd"/>
                </g>
              </g>
              <g id="Group_116533" data-name="Group 116533" transform="translate(9.419 15.708)">
                <g id="Group_116532" data-name="Group 116532">
                  <path id="Path_175573" data-name="Path 175573" d="M4808.875-510.249c-.109.022-1.678.966-3.107,1.81a3.917,3.917,0,0,0-.528-2.863,15.068,15.068,0,0,0,3.7-2.215,12.107,12.107,0,0,1,1.338-1.423c.378-.3.849-.427,1.349-.767.362-.245,1.048-.918,1.349-.679.318.253-.05.81-.443,1.214a4.551,4.551,0,0,0-1.034,1.245c.191.06.394.123.595.188a2.722,2.722,0,0,0,1.186.157c1.022-.065,1.972-.234,2.957-.286a4.334,4.334,0,0,1,1.188.07c.088.035.219.214-.039.44a2.38,2.38,0,0,1-.96.321c-.692.145-1.3.2-1.926.291a1.8,1.8,0,0,0-.917.234c.141.156.362.106.529.123.954.094,1.77.167,2.745.2.21.007,1.274.125,1.217.444-.07.423-.943.385-1.207.389-1.027.016-2.205-.057-3.037,0-.018-.005-.038,0-.057-.019l-.021.026a.725.725,0,0,1,.077-.007l.011,0c.947.217,1.8.5,2.862.7.308.058.834.251.9.4.219.475-.7.429-1.045.409-1.2-.066-2.507-.347-3.562-.428.715.639,1.512,1.214,2.2,1.743.247.191.68.467.625.692-.112.45-.734.149-1.009.015-.346-.168-.708-.428-1.019-.6s-.677-.347-1.017-.554a8.172,8.172,0,0,0-1.019-.643,4.126,4.126,0,0,0-.7-.121c-.481-.1-.992-.251-1.454-.374A2.22,2.22,0,0,0,4808.875-510.249Z" transform="translate(-4779.488 520.546)" fill="#ffa9a0" fill-rule="evenodd"/>
                  <path id="Path_175574" data-name="Path 175574" d="M4800.7-507.027a109.646,109.646,0,0,1,13.19-4.967c.584,1.322,1.172,2.64,1.688,4.054-3.691,2.083-6.324,4.207-10.245,6a15.261,15.261,0,0,1-4.25,1.329,7.757,7.757,0,0,1-5.851-1.773,22.589,22.589,0,0,1-4.058-4.1,25.213,25.213,0,0,1-3.248-5.183,21.18,21.18,0,0,1-1.262-3.1,5.9,5.9,0,0,1-.255-3.486,2.638,2.638,0,0,1,1.291-1.1,3.641,3.641,0,0,1,2.3.2,9.17,9.17,0,0,1,3.108,2.5C4795.719-513.739,4798.374-510.033,4800.7-507.027Z" transform="translate(-4786.226 519.471)" fill="#fbc0de" fill-rule="evenodd"/>
                </g>
                <path id="Path_175575" data-name="Path 175575" d="M4797.408-510.075l-1.9.511,1.286-1.305Z" transform="translate(-4782.935 522.519)" fill="#eda2ca" fill-rule="evenodd"/>
              </g>
            </g>
          </g>
        </g>
        <g id="Group_116538" data-name="Group 116538" transform="translate(98.337 2.538)">
          <path id="Path_175576" data-name="Path 175576" d="M4861.245-541.288a19.846,19.846,0,0,0-7.276-.612,31.582,31.582,0,0,1,14.232-11.43c1.074-.5.676-1.988-.61-1.461a33,33,0,0,0-15.663,13.134c-4.171.634-9.714,3.179-14.666,6.088-1.005.753-.134,1.847.879,1.288,4.455-2.655,9.315-4.983,12.912-5.6a11.987,11.987,0,0,0-.988,8.469,7.042,7.042,0,0,0,5.533,4.9,9.3,9.3,0,0,0,6.966-1.586,8.657,8.657,0,0,0,3.932-6.058C4866.913-537.733,4864.486-540.174,4861.245-541.288Zm3.612,7.306a7.253,7.253,0,0,1-3.108,4.562,8.024,8.024,0,0,1-5.189,1.44,5.726,5.726,0,0,1-4.264-2.372,6.8,6.8,0,0,1-1.015-4.621,14,14,0,0,1,1.681-5.223c2.672-.282,6.728-.47,9.454,1.176A4.618,4.618,0,0,1,4864.857-533.982Z" transform="translate(-4836.816 564.619)" fill="#f27eff" fill-rule="evenodd"/>
          <g id="Group_116537" data-name="Group 116537" transform="translate(34.309)">
            <path id="Path_175577" data-name="Path 175577" d="M4886.924-560.708l-24.777-1.369,4.785,7.8,1.109,8.4Z" transform="translate(-4862.147 562.076)" fill="#fff" fill-rule="evenodd"/>
            <path id="Path_175578" data-name="Path 175578" d="M4886.887-561.066l-20.833,5.056-3.8,2.883,4.8.05Z" transform="translate(-4862.11 562.434)" fill="#b0b0ea" fill-rule="evenodd"/>
          </g>
        </g>
        <g id="Group_116540" data-name="Group 116540" transform="translate(8.873 37.039)">
          <path id="Path_175579" data-name="Path 175579" d="M4850.659-466.474a2.41,2.41,0,0,0,1.749-.274l.063-.026a12.425,12.425,0,0,0,4.78-3.218,11.866,11.866,0,0,0,1.18-1.529,14.4,14.4,0,0,0,1.911-5.11,18.95,18.95,0,0,0,8.375.863,17.1,17.1,0,0,0,8.7-3.266,18.82,18.82,0,0,0,3.938-4.273,19.892,19.892,0,0,0,3.632-9,11.44,11.44,0,0,0-.075-3.373c-.007-.035-.013-.075-.018-.115-.048-.325-.16-1.084-.913-1.162a.473.473,0,0,0-.323.085.843.843,0,0,0-.223.23,1.139,1.139,0,0,0-.044.974.909.909,0,0,1,.032.122,13.141,13.141,0,0,1-.641,6.187,18.846,18.846,0,0,1-1.658,3.637,21.884,21.884,0,0,1-2.66,3.672,14.4,14.4,0,0,1-8.943,4.662,17.512,17.512,0,0,1-8.958-.786c.006-.091.021-.191.039-.3a4.691,4.691,0,0,0,.057-.482,19.6,19.6,0,0,0-.163-3.39,7.913,7.913,0,0,0-1.883-4.605,4.749,4.749,0,0,0-3.627-1.586,2.482,2.482,0,0,0-1.908,1.163,3.115,3.115,0,0,0-.22.4,2.538,2.538,0,0,0-.169.605c-.009.046-.018.093-.027.138-.677,3.222,2.765,7.4,6.272,9.006-.011.054-.027.111-.044.171-.02.077-.039.153-.056.229a12.458,12.458,0,0,1-1.678,4.463,10.336,10.336,0,0,1-.763,1.029,10.786,10.786,0,0,1-5.2,3.377l-.068.02a1.227,1.227,0,0,0-.739.444.711.711,0,0,0-.085.582A.667.667,0,0,0,4850.659-466.474Zm3.394-18.835a2.557,2.557,0,0,1,.208-1.094,1.1,1.1,0,0,1,.859-.628,3.083,3.083,0,0,1,2.171.9,6.128,6.128,0,0,1,1.708,3.887,14.651,14.651,0,0,1,.121,3.072c0,.089-.006.18-.007.272,0,.033,0,.065,0,.1C4856.516-480.151,4854.129-483.17,4854.053-485.309Z" transform="translate(-4742.581 550.655)" fill="#0019ae"/>
          <path id="Path_175580" data-name="Path 175580" d="M4785.4-536.225c1.041-.935,1.926.045,1.1.932a60.033,60.033,0,0,0-4.735,5.316,46.511,46.511,0,0,0-6.951,13.635,50.347,50.347,0,0,0-2.093,8.523,47.529,47.529,0,0,0,.825,17.379,50.1,50.1,0,0,0,8.98,19.768,47.2,47.2,0,0,0,4.534,5.327,41.26,41.26,0,0,0,19.64,11.085,50.805,50.805,0,0,0,9.278,1.306c6.29.364,11.727-.274,16.269-2.141a14.425,14.425,0,0,1-1.97-5.057c-.713-4.322,1.105-8.918,3.9-10.639a6.088,6.088,0,0,1,5.672-.512,6.037,6.037,0,0,1,3.386,3.909,7.927,7.927,0,0,1-.768,5.972,17.443,17.443,0,0,1-7.686,6.882,10.173,10.173,0,0,0,2.321,2.164,27.272,27.272,0,0,0,2.8,1.734,21.733,21.733,0,0,0,6.852,2.445,21.208,21.208,0,0,0,7.716-.3,32.265,32.265,0,0,0,6.275-2.129c1.415-.507,1.614.887.522,1.447-.188.256-.543.283-.81.4a28.621,28.621,0,0,1-6.06,1.912,23.012,23.012,0,0,1-8.472.171,23.879,23.879,0,0,1-7.247-2.824,20.478,20.478,0,0,1-5.46-4.269c-4.7,2.051-10.248,2.714-16.688,2.481a47.26,47.26,0,0,1-17.831-4.027c-9.607-4.441-16.4-11.719-21.19-20.132a50.341,50.341,0,0,1-5.422-14.306,53.224,53.224,0,0,1-.973-17.778,45.139,45.139,0,0,1,2.09-8.957,55.026,55.026,0,0,1,3.105-7.647A38.666,38.666,0,0,1,4785.4-536.225Zm53.177,77.132a9.818,9.818,0,0,0,3.274-5.133,5.034,5.034,0,0,0-.417-3.358,4.016,4.016,0,0,0-3.952-2.624,4.818,4.818,0,0,0-3.7,1.87,10.652,10.652,0,0,0-1.747,8.9,9.69,9.69,0,0,0,1.78,3.643A17.958,17.958,0,0,0,4838.573-459.092Z" transform="translate(-4770.763 536.604)" fill="#8686f5" fill-rule="evenodd"/>
          <g id="Group_116539" data-name="Group 116539" transform="translate(92.118 71.975)">
            <path id="Path_175581" data-name="Path 175581" d="M4848.29-465.524c0,.577-1.657,1.044-3.7,1.044s-3.7-.467-3.7-1.044,1.657-1.044,3.7-1.044S4848.29-466.1,4848.29-465.524Z" transform="translate(-4838.024 489.453)" fill="#0019ae"/>
            <path id="Path_175582" data-name="Path 175582" d="M4851.75-476.709a6.758,6.758,0,0,0-6.485-6.755,6.758,6.758,0,0,0-6.486,6.755c-.18,6.463,5.756,16.818,6.486,16.849C4845.994-459.891,4851.93-470.246,4851.75-476.709Zm-6.485,4.034a3.147,3.147,0,0,1-2.966-3.318,3.145,3.145,0,0,1,2.966-3.173,3.144,3.144,0,0,1,2.965,3.173A3.147,3.147,0,0,1,4845.265-472.676Z" transform="translate(-4838.775 483.464)" fill="#ff4116"/>
          </g>
        </g>
        <g id="Group_116557" data-name="Group 116557" transform="translate(129.671 28.207)">
          <g id="Group_116547" data-name="Group 116547" transform="translate(24.286 48.472)">
            <g id="Group_116542" data-name="Group 116542" transform="translate(22.774 43.283)">
              <g id="Group_116541" data-name="Group 116541" transform="translate(0.134)">
                <path id="Path_175583" data-name="Path 175583" d="M4894.794-474.177s2.167,5.61,1.849,6.451c0,0,1.491.294,3.046-2.174l-1.59-5.48Z" transform="translate(-4894.794 475.38)" fill="#ffa9a0" fill-rule="evenodd"/>
                <path id="Path_175584" data-name="Path 175584" d="M4898.1-475.277c-.032.806-1.769,2.117-3.2,1.493Z" transform="translate(-4894.755 475.416)" fill="#e9b090" fill-rule="evenodd"/>
              </g>
              <path id="Path_175585" data-name="Path 175585" d="M4903.046-466.468c-.9-2.227-3.246-7.218-3.485-7.5-.748.2-3.752,1.452-4.491,1.69l-.067.05c.586,1.843,1.683,3.962,1.476,5.69-.14,1.17-1.3,2.22-1.756,3.421a1.479,1.479,0,0,0,.284,1.124l5.977-2.787a12.261,12.261,0,0,0-.262-1.346,2.613,2.613,0,0,1,.092-2.034c.245.582.542,1.132.8,1.713.164.372.307.772.506,1.138l1.117-.521A2.706,2.706,0,0,0,4903.046-466.468Z" transform="translate(-4894.695 475.879)" fill="#0019ae"/>
            </g>
            <g id="Group_116544" data-name="Group 116544" transform="translate(0 45.761)">
              <g id="Group_116543" data-name="Group 116543" transform="translate(4.227)">
                <path id="Path_175586" data-name="Path 175586" d="M4882.125-473.55s-.471,5.995-1.123,6.614c0,0,1.219.91,3.687-.642l.937-5.629Z" transform="translate(-4881.002 473.55)" fill="#ffa9a0" fill-rule="evenodd"/>
                <path id="Path_175587" data-name="Path 175587" d="M4885.32-473.181c-.376.712-2.51,1.145-3.528-.036Z" transform="translate(-4880.722 473.668)" fill="#e9b090" fill-rule="evenodd"/>
              </g>
              <path id="Path_175588" data-name="Path 175588" d="M4887.091-463.188c.147-2.4.194-7.913.1-8.276-.758-.146-4.01-.313-4.779-.419-.027.007-.054.011-.082.016-.27,1.917-.2,4.3-1.131,5.77-.631.994-2.129,1.44-3.061,2.324a1.482,1.482,0,0,0-.231,1.138l6.595.07a12.2,12.2,0,0,0,.345-1.326c.218-.76.284-1.341.963-1.8-.031.633,0,1.256-.02,1.891-.012.406-.057.829-.037,1.245l1.234.012A2.687,2.687,0,0,0,4887.091-463.188Z" transform="translate(-4877.881 474.141)" fill="#0019ae"/>
            </g>
            <g id="Group_116546" data-name="Group 116546" transform="translate(1.075)">
              <path id="Path_175589" data-name="Path 175589" d="M4897.243-507.335c.213.061.087.274.188.446a13.253,13.253,0,0,1,1.778,7.594c-.066,1.047-.224,2.074-.21,3.148.059,4.317-.1,8.884.188,12.938a9,9,0,0,0,.558,2.77c.924,2.327,1.93,4.795,2.83,7.146a90.528,90.528,0,0,1,3.183,10.109c-2.073.665-4.1,1.387-6.165,2.059a2.665,2.665,0,0,1-.5-.775c-1.026-1.85-2.069-3.832-3.069-5.755-1.143-2.2-2.24-4.459-3.235-6.837a22.434,22.434,0,0,1-2.211-7.807c-.161-2.961-.651-8.487-.774-11.808a56.871,56.871,0,0,0-2.086,8.572,20.846,20.846,0,0,0,.026,3.275c.168,3.125.52,6.08.693,9.2.24,4.273.033,8.656.023,13.133-2.48-.051-4.926-.068-7.3-.009-.689-7.569-1.805-15.251-2.415-22.981a33.217,33.217,0,0,1,.22-6.22c.646-5.885,1.745-11.636,2.182-17.619,5.175-.328,10.529-.463,15.979-.5C4897.164-507.28,4897.166-507.348,4897.243-507.335Z" transform="translate(-4878.674 507.336)" fill="#f27eff" fill-rule="evenodd"/>
              <g id="Group_116545" data-name="Group 116545" transform="translate(6.446)">
                <path id="Path_175590" data-name="Path 175590" d="M4898.377-473.293c-.9-2.351-1.906-4.819-2.83-7.146a9,9,0,0,1-.558-2.77c-.288-4.054-.129-8.621-.188-12.938-.014-1.074.144-2.1.21-3.148a13.253,13.253,0,0,0-1.778-7.594c-.1-.172.026-.385-.187-.446-.077-.014-.079.054-.12.077q-1.208.008-2.409.024a9.794,9.794,0,0,0,.341,1.073c.165.482.3.971.479,1.411a27.365,27.365,0,0,1,1.038,2.785,19.461,19.461,0,0,1,.318,6.993c-.129,1.207-.323,2.328-.459,3.459a20.81,20.81,0,0,0,.015,3.675c.132,2.316.4,4.6.722,6.845a14.039,14.039,0,0,0,.711,3.053,26.891,26.891,0,0,0,1.2,2.629c.866,1.689,1.751,3.375,2.526,5.141a69.419,69.419,0,0,1,2.7,7.457c.481-.158.962-.317,1.446-.473A90.528,90.528,0,0,0,4898.377-473.293Z" transform="translate(-4880.923 507.336)" fill="#d85ff0"/>
                <path id="Path_175591" data-name="Path 175591" d="M4888.066-501.4c-.051.016-4.184,12.064-4.564,15.646a24.776,24.776,0,0,0,.246,5.437,103.746,103.746,0,0,1,.934,10.524c.052,1.759.13,3.631.285,5.437a19.09,19.09,0,0,0,.276,2.3c.511.007,1.02.016,1.532.026.01-4.476.217-8.859-.023-13.133-.173-3.119-.525-6.075-.693-9.2a20.846,20.846,0,0,1-.026-3.275,56.871,56.871,0,0,1,2.086-8.572S4888.1-501.409,4888.066-501.4Z" transform="translate(-4883.433 509.44)" fill="#d85ff0"/>
              </g>
            </g>
          </g>
          <g id="Group_116556" data-name="Group 116556">
            <g id="Group_116551" data-name="Group 116551" transform="translate(32.237 11.962)">
              <path id="Path_175592" data-name="Path 175592" d="M4896.391-533.272a3.884,3.884,0,0,1-.906.6,30.05,30.05,0,0,0-2.619,1.93,15.916,15.916,0,0,0-1.651,1.5,6.036,6.036,0,0,0-1.388,1.941,21.687,21.687,0,0,0-.946,4.325c-.224,1.375-.366,2.736-.677,4.153a1.328,1.328,0,0,1-1,.171,31.293,31.293,0,0,1-3.457-.576c.05-.855,1-1.276.985-2.171-.014-.614-.818-1.021-.636-1.862.2-.894,1.18-1.319,1.421-2.293.168-.676-.129-1.41.233-2.326a6.894,6.894,0,0,1,1.917-2.252,29.377,29.377,0,0,1,4.39-3.463,3.3,3.3,0,0,1,3.632-.244C4895.949-533.682,4896.111-533.438,4896.391-533.272Z" transform="translate(-4883.751 534.293)" fill="#0019ae" fill-rule="evenodd"/>
              <g id="Group_116550" data-name="Group 116550" transform="translate(1.402 0.878)">
                <path id="Path_175593" data-name="Path 175593" d="M4893.825-524.7c-.694,2.462-1.19,4.818-2.006,7.344-.032.2-.135-.047-.207.084a57.539,57.539,0,0,1-4.114,4.708c-.2.2-.479.429-.75.681-.246.227-.526.622-.786.561-.345-.08-.458-.9-.476-1.307a23.927,23.927,0,0,1,.521-4.961c.188-1.1.374-2.286.694-3.493.328-1.231.753-2.468,1.108-3.658-1.289-.274-2.3-1.02-2.4-2.034a2.28,2.28,0,0,1,.266-1.117,7.626,7.626,0,0,1,1.5-1.834,24.737,24.737,0,0,1,3.384-2.9,4.305,4.305,0,0,1,4-.859,4.627,4.627,0,0,1,2.323,1.322,4.383,4.383,0,0,1,.527,4.735C4896.667-525.682,4895.287-525.221,4893.825-524.7Z" transform="translate(-4884.565 533.645)" fill="#ffa9a0" fill-rule="evenodd"/>
                <path id="Path_175594" data-name="Path 175594" d="M4885.241-513.237c.4.15.925-.209,1.264-.452a10.591,10.591,0,0,0,1.064-.876,54.959,54.959,0,0,0,5.241-6.336q-.463-.207-.965-.4a64.91,64.91,0,0,1-4.883,5.5,1.576,1.576,0,0,1-.92.52,3.932,3.932,0,0,1-.2-1.876,47.07,47.07,0,0,1,.688-5.89c-.275-.065-.432-.1-.693-.144a49.093,49.093,0,0,0-1.026,7.647C4884.8-514.968,4884.647-513.466,4885.241-513.237Z" transform="translate(-4884.786 537.349)" fill="#ffce78"/>
                <g id="Group_116548" data-name="Group 116548" transform="translate(2.829 8.907)">
                  <path id="Path_175595" data-name="Path 175595" d="M4887.291-527.068l1.7.105-2.112,1.27Z" transform="translate(-4886.874 527.068)" fill="#eb6e66" fill-rule="evenodd"/>
                </g>
                <g id="Group_116549" data-name="Group 116549" transform="translate(2.26 1.262)">
                  <path id="Path_175596" data-name="Path 175596" d="M4888.085-532.679c-.076.106.191.427.6.718s.8.442.872.336-.191-.428-.6-.719-.8-.44-.872-.335" transform="translate(-4885.881 532.713)" fill="#0019ae" fill-rule="evenodd"/>
                  <path id="Path_175597" data-name="Path 175597" d="M4887.749-531.5a.363.363,0,0,0-.054.5.362.362,0,0,0,.491-.1.36.36,0,0,0,.054-.5.361.361,0,0,0-.491.1" transform="translate(-4886.042 533.085)" fill="#0019ae" fill-rule="evenodd"/>
                  <path id="Path_175598" data-name="Path 175598" d="M4888.956-530.327a.363.363,0,0,0-.056.5.365.365,0,0,0,.492-.1.361.361,0,0,0,.053-.5.361.361,0,0,0-.489.1" transform="translate(-4885.615 533.502)" fill="#0019ae" fill-rule="evenodd"/>
                  <path id="Path_175599" data-name="Path 175599" d="M4887.222-528.729a.111.111,0,0,1-.02-.019.72.72,0,0,1-.175-.554c.054-.367.436-.643.919-.993a7.919,7.919,0,0,0,.975-.79.149.149,0,0,1,.212,0,.15.15,0,0,1,0,.213,8.276,8.276,0,0,1-1.011.819c-.407.3-.762.551-.8.792a.445.445,0,0,0,.118.328.153.153,0,0,1-.028.211.15.15,0,0,1-.191-.01" transform="translate(-4886.254 533.275)" fill="#eb6e66"/>
                  <path id="Path_175600" data-name="Path 175600" d="M4886.8-528.591a1.9,1.9,0,0,1-.324-.4.15.15,0,0,1,.046-.207.149.149,0,0,1,.207.047c.471.742,1.006.562,1.029.554a.151.151,0,0,1,.191.089.148.148,0,0,1-.087.191,1.063,1.063,0,0,1-1.062-.279" transform="translate(-4886.455 533.952)" fill="#eb6e66"/>
                  <path id="Path_175601" data-name="Path 175601" d="M4889.584-531.51c-.1.081.066.463.378.855s.644.645.746.562-.068-.463-.378-.855-.644-.643-.746-.562" transform="translate(-4885.356 533.134)" fill="#0019ae" fill-rule="evenodd"/>
                </g>
              </g>
              <path id="Path_175602" data-name="Path 175602" d="M4901.193-510.359c-2.16-.446-9.35-1.953-9.35-1.953a19.105,19.105,0,0,0-1.847-4.731c-.952-1.651-2.047-2.4-1.573-4.352a14.467,14.467,0,0,1,1.368-3.072,14.01,14.01,0,0,1,1.634-2.519c.007-.188-.145-.306-.222-.466a5.657,5.657,0,0,1-.5-1.46,6.3,6.3,0,0,1,1.32-4.72c.545.019,1.073-.072,1.647-.045a10.893,10.893,0,0,1,1.954.264,4.006,4.006,0,0,1,3.375,3.6c.172,1.506-.73,2.844-1.429,4a2.931,2.931,0,0,0-.661,1.944c.181.731,2.584,1.86,2.741,4.222a8.559,8.559,0,0,1-.338,2.076,2.842,2.842,0,0,0,.249,2.29c.447.554,1.188.822,1.63,1.33C4902.015-513.012,4901.886-511.845,4901.193-510.359Z" transform="translate(-4882.135 534.509)" fill="#0019ae" fill-rule="evenodd"/>
            </g>
            <g id="Group_116552" data-name="Group 116552" transform="translate(0 6.774)">
              <path id="Path_175603" data-name="Path 175603" d="M4867.267-530.338c.079.08.831,1.75,1.526,3.256a3.928,3.928,0,0,1,2.063-2.053,15.2,15.2,0,0,1-1.779-3.925,12.169,12.169,0,0,0-.29-1.933c-.137-.463-.455-.834-.673-1.4-.157-.406-.339-1.352-.724-1.325-.4.027-.42.692-.326,1.247a4.621,4.621,0,0,1,.143,1.613c-.191-.058-.395-.123-.6-.184a2.748,2.748,0,0,1-1.067-.546c-.8-.635-1.486-1.314-2.27-1.918a4.245,4.245,0,0,0-1.015-.616c-.093-.024-.3.049-.218.382a2.342,2.342,0,0,0,.606.811c.485.512.958.906,1.417,1.336.244.229.532.41.624.715-.208.047-.359-.118-.507-.2-.836-.465-1.551-.869-2.369-1.4-.18-.114-1.12-.622-1.257-.329-.183.389.557.855.771,1.008.836.6,1.847,1.208,2.5,1.727.018.005.029.02.057.016l0,.031a.738.738,0,0,0-.061-.047l-.01,0c-.9-.363-1.762-.615-2.755-1.052a1.824,1.824,0,0,0-.975-.184c-.448.267.332.753.628.935,1.026.629,2.26,1.141,3.172,1.673-.952.119-1.934.137-2.8.184-.312.016-.825,0-.907.214-.165.432.518.538.821.585.38.058.826.052,1.179.087s.754.1,1.15.123a8.339,8.339,0,0,1,1.205.05,4.322,4.322,0,0,1,.646.3c.452.191.958.359,1.407.521A2.184,2.184,0,0,1,4867.267-530.338Z" transform="translate(-4859.95 538.123)" fill="#ffa9a0" fill-rule="evenodd"/>
              <path id="Path_175604" data-name="Path 175604" d="M4863.176-532.795a1.375,1.375,0,0,1-.24-.494,2.923,2.923,0,0,1,.97-2.678A4.261,4.261,0,0,0,4863.176-532.795Z" transform="translate(-4858.91 538.887)" fill="#eb6e66" fill-rule="evenodd"/>
              <path id="Path_175605" data-name="Path 175605" d="M4865.394-535.71a4.76,4.76,0,0,0,.53,2.992C4865.037-533.088,4864.793-535.03,4865.394-535.71Z" transform="translate(-4858.138 538.978)" fill="#eb6e66" fill-rule="evenodd"/>
            </g>
            <path id="Path_175606" data-name="Path 175606" d="M4873.118-534.843c.071.087.641,1.827,1.169,3.4a3.928,3.928,0,0,1,2.272-1.82,15.1,15.1,0,0,1-1.349-4.093,12.26,12.26,0,0,0-.082-1.953c-.089-.475-.364-.878-.521-1.461-.112-.421-.192-1.38-.577-1.4-.406-.016-.493.645-.459,1.208a4.531,4.531,0,0,1-.031,1.616c-.183-.077-.378-.164-.573-.245a2.7,2.7,0,0,1-1-.657c-.731-.716-1.341-1.467-2.052-2.15a4.32,4.32,0,0,0-.944-.722c-.091-.033-.306.018-.258.358a2.342,2.342,0,0,0,.517.871c.43.562.854,1,1.266,1.479.22.255.487.465.543.777-.211.026-.345-.157-.481-.253-.783-.551-1.449-1.029-2.208-1.642-.163-.133-1.047-.738-1.214-.462-.222.367.464.909.66,1.085.767.683,1.706,1.4,2.3,1.983.017.008.027.026.054.023v.032a.532.532,0,0,0-.054-.056l-.011,0c-.857-.456-1.685-.8-2.625-1.34a1.8,1.8,0,0,0-.949-.286c-.476.215.25.783.524.994.953.736,2.125,1.376,2.974,2-.959.016-1.937-.069-2.8-.116-.31-.018-.819-.092-.925.115-.208.414.458.592.755.672.371.1.816.138,1.162.211s.739.181,1.132.247a8.162,8.162,0,0,1,1.19.179,4.2,4.2,0,0,1,.612.368c.43.236.913.46,1.344.668A2.169,2.169,0,0,1,4873.118-534.843Z" transform="translate(-4857.72 543.124)" fill="#ffa9a0" fill-rule="evenodd"/>
            <g id="Group_116555" data-name="Group 116555" transform="translate(6.389 6.557)">
              <g id="Group_116554" data-name="Group 116554">
                <g id="Group_116553" data-name="Group 116553">
                  <path id="Path_175607" data-name="Path 175607" d="M4877.744-538.257a40.451,40.451,0,0,0,7.967,8.93c4.522,3.971,9.54,7.386,12.442,12.929a39.842,39.842,0,0,1,2.425,5.938,38.738,38.738,0,0,1,1.894,10.55c.029.668.017,1.34.02,2.037,0,.631-.06,1.4-.1,1.953a65.358,65.358,0,0,1-7.876.531c-2.741.1-5.575.046-8.419-.122-.027-3.01-.064-6.011-.089-9.023-.009-1.093-1.121-2.042-1.125-3.14s1.1-2.368,1.1-3.484c0,0-1.1-.543-1.693-.809-1.658-.739-3.4-1.521-4.96-2.416a42.15,42.15,0,0,1-5.752-4.037,40.381,40.381,0,0,1-8.917-10.551,6.088,6.088,0,0,1,1.1-.809c1.08-.729,2.209-1.522,3.336-2.258a31.077,31.077,0,0,0,12.919,10.227,67.778,67.778,0,0,1-9.729-12.852,12.95,12.95,0,0,1,1.3-.92c1.293-.874,2.684-1.824,4.028-2.638C4877.646-538.234,4877.7-538.328,4877.744-538.257Z" transform="translate(-4864.667 538.283)" fill="#8686f5" fill-rule="evenodd"/>
                </g>
                <path id="Path_175608" data-name="Path 175608" d="M4893.157-505.186c0-.7.01-1.369-.02-2.037a38.785,38.785,0,0,0-1.854-10.428c0,.023.008.046.014.068a38.76,38.76,0,0,1,.344,10.716c-.066.664-.174,1.326-.275,2.018-.085.607-.25,1.33-.366,1.868.7-.064,1.39-.142,2.062-.252C4893.1-503.787,4893.159-504.555,4893.157-505.186Z" transform="translate(-4855.333 545.596)" fill="#5757d0"/>
                <path id="Path_175609" data-name="Path 175609" d="M4878.088-525.823q-1.194-.538-2.32-1.14c.281.406.556.822.8,1.257.686,1.216,1.359,2.466,2.006,3.809a53.364,53.364,0,0,1,2.481,6.243c.5.241,1,.485,1,.485.043-.488.062-.7.073-1.158C4882.269-521.254,4880.679-523.451,4878.088-525.823Z" transform="translate(-4860.732 542.295)" fill="#5757d0"/>
              </g>
              <path id="Path_175610" data-name="Path 175610" d="M4882.933-513.213c3.244,1.994,5.594-2.064,5.594-2.064C4885.379-512.66,4882.933-513.213,4882.933-513.213Z" transform="translate(-4858.192 546.437)" fill="#5757d0" fill-rule="evenodd"/>
            </g>
          </g>
        </g>
      </g>
    </g>
  </g>
</svg>
