<svg xmlns="http://www.w3.org/2000/svg" xmlns:xlink="http://www.w3.org/1999/xlink" width="276" height="201" viewBox="0 0 276 201">
  <defs>
    <linearGradient id="linear-gradient" x1="0.021" y1="0.942" x2="0.652" y2="-0.068" gradientUnits="objectBoundingBox">
      <stop offset="0" stop-color="#98f2f9"/>
      <stop offset="1" stop-color="#ff805a"/>
    </linearGradient>
    <linearGradient id="linear-gradient-2" x1="0.963" y1="0.032" x2="0.394" y2="1.005" xlink:href="#linear-gradient"/>
  </defs>
  <g id="t5-lt3" transform="translate(-4852 884)">
    <rect id="Rectángulo_37594" data-name="Rectángulo 37594" width="276" height="201" transform="translate(4852 -884)" fill="none"/>
    <g id="Group_116561" data-name="Group 116561">
      <path id="Path_175611" data-name="Path 175611" d="M4938.771-864.294l3.054,9.517,3.044-9.517h4.34v13.679H4945.9v-3.194l.319-6.539-3.307,9.733h-2.179l-3.317-9.742.32,6.548v3.194h-3.3v-13.679Z" fill="#12263f"/>
      <path id="Path_175612" data-name="Path 175612" d="M4956.462-850.427a5.225,5.225,0,0,1-3.786-1.4,4.816,4.816,0,0,1-1.447-3.631v-.263a6.258,6.258,0,0,1,.577-2.753,4.232,4.232,0,0,1,1.687-1.846,5.093,5.093,0,0,1,2.631-.653,4.4,4.4,0,0,1,3.382,1.329,5.224,5.224,0,0,1,1.24,3.707v1.23h-6.295a2.287,2.287,0,0,0,.743,1.344,2.205,2.205,0,0,0,1.484.488,2.844,2.844,0,0,0,2.349-1.052l1.447,1.71a4.035,4.035,0,0,1-1.678,1.3A5.651,5.651,0,0,1,4956.462-850.427Zm-.357-8.1q-1.39,0-1.654,1.841h3.195v-.244a1.573,1.573,0,0,0-.385-1.179A1.534,1.534,0,0,0,4956.1-858.525Z" fill="#12263f"/>
      <path id="Path_175613" data-name="Path 175613" d="M4966.091-863.307v2.527h1.672v2.2h-1.672v4.651a1.192,1.192,0,0,0,.206.8,1.109,1.109,0,0,0,.818.226,4.7,4.7,0,0,0,.789-.056v2.264a5.862,5.862,0,0,1-1.785.272,3.32,3.32,0,0,1-2.415-.77,3.163,3.163,0,0,1-.779-2.34v-5.045h-1.3v-2.2h1.3v-2.527Z" fill="#12263f"/>
      <path id="Path_175614" data-name="Path 175614" d="M4968.712-855.791a6,6,0,0,1,.592-2.711,4.231,4.231,0,0,1,1.7-1.827,5.122,5.122,0,0,1,2.6-.639,4.673,4.673,0,0,1,3.6,1.414,5.426,5.426,0,0,1,1.315,3.847v.113a5.267,5.267,0,0,1-1.319,3.772,4.69,4.69,0,0,1-3.575,1.4,4.743,4.743,0,0,1-3.486-1.3,5.087,5.087,0,0,1-1.419-3.528Zm3.166.2a3.78,3.78,0,0,0,.442,2.067,1.47,1.47,0,0,0,1.306.657q1.69,0,1.728-2.6v-.319q0-2.734-1.747-2.734-1.589,0-1.72,2.358Z" fill="#12263f"/>
      <path id="Path_175615" data-name="Path 175615" d="M4979.9-855.773a6.214,6.214,0,0,1,1.043-3.8,3.433,3.433,0,0,1,2.913-1.39,2.919,2.919,0,0,1,2.292,1.071v-5.148h3.176v14.43h-2.847l-.16-1.09a3,3,0,0,1-2.48,1.278,3.426,3.426,0,0,1-2.875-1.39A6.407,6.407,0,0,1,4979.9-855.773Zm3.167.2q0,2.706,1.578,2.705a1.558,1.558,0,0,0,1.5-.883v-3.87a1.515,1.515,0,0,0-1.484-.9q-1.466,0-1.588,2.367Z" fill="#12263f"/>
      <path id="Path_175616" data-name="Path 175616" d="M4991.109-855.791a6.01,6.01,0,0,1,.591-2.711,4.239,4.239,0,0,1,1.7-1.827,5.121,5.121,0,0,1,2.6-.639,4.675,4.675,0,0,1,3.6,1.414,5.426,5.426,0,0,1,1.315,3.847v.113a5.272,5.272,0,0,1-1.319,3.772,4.694,4.694,0,0,1-3.576,1.4,4.74,4.74,0,0,1-3.485-1.3,5.087,5.087,0,0,1-1.419-3.528Zm3.166.2a3.79,3.79,0,0,0,.441,2.067,1.473,1.473,0,0,0,1.306.657q1.692,0,1.729-2.6v-.319q0-2.734-1.748-2.734-1.587,0-1.719,2.358Z" fill="#12263f"/>
      <path id="Path_175617" data-name="Path 175617" d="M5006.037-850.615h-3.175v-14.43h3.175Z" fill="#12263f"/>
      <path id="Path_175618" data-name="Path 175618" d="M5007.972-855.791a6.01,6.01,0,0,1,.591-2.711,4.237,4.237,0,0,1,1.7-1.827,5.12,5.12,0,0,1,2.6-.639,4.674,4.674,0,0,1,3.6,1.414,5.426,5.426,0,0,1,1.315,3.847v.113a5.268,5.268,0,0,1-1.32,3.772,4.689,4.689,0,0,1-3.575,1.4,4.739,4.739,0,0,1-3.485-1.3,5.087,5.087,0,0,1-1.419-3.528Zm3.166.2a3.79,3.79,0,0,0,.441,2.067,1.472,1.472,0,0,0,1.306.657q1.693,0,1.729-2.6v-.319q0-2.734-1.748-2.734-1.587,0-1.719,2.358Z" fill="#12263f"/>
      <path id="Path_175619" data-name="Path 175619" d="M5019.189-855.773a6.85,6.85,0,0,1,.508-2.724,4.083,4.083,0,0,1,1.456-1.827,3.838,3.838,0,0,1,2.208-.644,3.052,3.052,0,0,1,2.48,1.071l.113-.883h2.874V-851a4.283,4.283,0,0,1-.625,2.335,4.005,4.005,0,0,1-1.808,1.522,6.643,6.643,0,0,1-2.743.531,5.729,5.729,0,0,1-2.165-.423,3.91,3.91,0,0,1-1.6-1.1l1.325-1.861a2.9,2.9,0,0,0,2.33,1.043,1.886,1.886,0,0,0,2.1-2.161v-.319a2.975,2.975,0,0,1-2.3,1.005,3.676,3.676,0,0,1-3.007-1.423,5.9,5.9,0,0,1-1.146-3.81Zm3.176.2a3.615,3.615,0,0,0,.469,1.977,1.482,1.482,0,0,0,1.316.728,1.684,1.684,0,0,0,1.494-.685v-4.275a1.639,1.639,0,0,0-1.475-.7,1.491,1.491,0,0,0-1.325.756A4.115,4.115,0,0,0,5022.365-855.575Z" fill="#12263f"/>
      <path id="Path_175620" data-name="Path 175620" d="M5034.465-850.615h-3.184V-860.78h3.184Zm-1.183-14.243h3.344l-2.611,2.951-2.584-.005Z" fill="#12263f"/>
      <path id="Path_175621" data-name="Path 175621" d="M5042.61-850.615a3.566,3.566,0,0,1-.3-.911,2.941,2.941,0,0,1-2.442,1.1,3.6,3.6,0,0,1-2.443-.869,2.765,2.765,0,0,1-1-2.184,2.842,2.842,0,0,1,1.221-2.5,6.218,6.218,0,0,1,3.551-.846h.977v-.538q0-1.407-1.212-1.407a.991.991,0,0,0-1.127,1.114h-3.166a2.837,2.837,0,0,1,1.254-2.392,5.274,5.274,0,0,1,3.2-.92,4.616,4.616,0,0,1,3.072.949,3.3,3.3,0,0,1,1.156,2.6v4.5a4.6,4.6,0,0,0,.432,2.142v.159Zm-1.982-2.067a1.77,1.77,0,0,0,.982-.253,1.583,1.583,0,0,0,.558-.573v-1.626h-.92q-1.655,0-1.654,1.485a.908.908,0,0,0,.291.7A1.06,1.06,0,0,0,5040.628-852.682Z" fill="#12263f"/>
    </g>
    <g id="Group_116562" data-name="Group 116562">
      <path id="Path_175622" data-name="Path 175622" d="M4906.985-759.271q0,9.841-4.42,15.179t-12.461,5.337q-8.106,0-12.543-5.371t-4.438-15.145v-8.874q0-9.841,4.421-15.18t12.493-5.338q8.074,0,12.511,5.372t4.437,15.179Zm-11.243-10.309q0-5.238-1.367-7.823a4.576,4.576,0,0,0-4.338-2.585,4.461,4.461,0,0,0-4.219,2.4q-1.318,2.4-1.419,7.272v12.41q0,5.439,1.369,7.957a4.588,4.588,0,0,0,4.336,2.519,4.529,4.529,0,0,0,4.237-2.452q1.367-2.453,1.4-7.69Z" fill="#12263f"/>
    </g>
    <g id="Group_116563" data-name="Group 116563">
      <path id="Path_175623" data-name="Path 175623" d="M4985.613-757.5l-4.8,5.271v12.81H4969.1v-48.573h11.71v21.418l4.07-6.172,10.475-15.246h14.478l-16.413,21.484,16.413,27.089h-13.877Z" fill="#12263f"/>
    </g>
    <g id="Group_116564" data-name="Group 116564">
      <path id="Path_175624" data-name="Path 175624" d="M5088.412-756.6h-6.338v17.181h-11.711v-48.573h19.116q8.64,0,13.511,3.832t4.871,10.831a15.776,15.776,0,0,1-2.051,8.4,14.564,14.564,0,0,1-6.422,5.4l10.141,19.612v.5h-12.543Zm-6.338-9.007h7.4a6.646,6.646,0,0,0,5.021-1.756,6.788,6.788,0,0,0,1.685-4.9,6.863,6.863,0,0,0-1.7-4.932,6.581,6.581,0,0,0-5-1.79h-7.4Z" fill="#12263f"/>
    </g>
    <g id="Group_116565" data-name="Group 116565">
      <path id="Path_175625" data-name="Path 175625" d="M4870.722-827.812a5.3,5.3,0,0,1-.928,3.354,3.166,3.166,0,0,1-2.638,1.176,3.2,3.2,0,0,1-2.6-1.143,5.048,5.048,0,0,1-.991-3.234v-2a5.315,5.315,0,0,1,.943-3.343,3.146,3.146,0,0,1,2.631-1.209,3.188,3.188,0,0,1,2.62,1.158,5.222,5.222,0,0,1,.96,3.307Zm-1.337-1.863a4.554,4.554,0,0,0-.552-2.51,1.9,1.9,0,0,0-1.691-.822,1.889,1.889,0,0,0-1.671.833,4.432,4.432,0,0,0-.573,2.455v1.907a4.5,4.5,0,0,0,.567,2.484,1.893,1.893,0,0,0,1.691.855,1.878,1.878,0,0,0,1.666-.789,4.433,4.433,0,0,0,.563-2.418Z" fill="#12263f"/>
      <path id="Path_175626" data-name="Path 175626" d="M4878.336-827a4.8,4.8,0,0,1-.665,2.784,2.217,2.217,0,0,1-1.929.935,2.044,2.044,0,0,1-1.885-1.081l-.066.935h-1.176v-11.224h1.286v4.187a2.034,2.034,0,0,1,1.827-1.015,2.233,2.233,0,0,1,1.951.92,4.872,4.872,0,0,1,.657,2.777Zm-1.286-.741a3.8,3.8,0,0,0-.39-2,1.406,1.406,0,0,0-1.269-.6,1.585,1.585,0,0,0-1.49,1.08v3.759a1.583,1.583,0,0,0,1.5,1.065,1.363,1.363,0,0,0,1.257-.613,3.748,3.748,0,0,0,.387-1.905Z" fill="#12263f"/>
      <path id="Path_175627" data-name="Path 175627" d="M4881.31-831.334v8.9q-.021,2.2-1.739,2.2a1.837,1.837,0,0,1-.709-.131l-.007-1.075a1.815,1.815,0,0,0,.5.058.556.556,0,0,0,.493-.244,1.6,1.6,0,0,0,.165-.853v-8.855Zm.059-2.1a.826.826,0,0,1-.183.548.683.683,0,0,1-.555.219.665.665,0,0,1-.545-.219.839.839,0,0,1-.179-.548.871.871,0,0,1,.179-.556.657.657,0,0,1,.545-.226.667.667,0,0,1,.551.23A.846.846,0,0,1,4881.369-833.431Z" fill="#12263f"/>
      <path id="Path_175628" data-name="Path 175628" d="M4886.162-823.282a2.883,2.883,0,0,1-2.265-.88,3.81,3.81,0,0,1-.8-2.583v-.957a4.446,4.446,0,0,1,.772-2.773,2.554,2.554,0,0,1,2.151-1.005,2.464,2.464,0,0,1,2.075.884,4.53,4.53,0,0,1,.7,2.755v.847h-4.414v.183a2.886,2.886,0,0,0,.479,1.849,1.69,1.69,0,0,0,1.377.577,2.253,2.253,0,0,0,1.006-.215,2.522,2.522,0,0,0,.814-.684l.672.819A2.934,2.934,0,0,1,4886.162-823.282Zm-.146-7.088a1.356,1.356,0,0,0-1.191.552,3.271,3.271,0,0,0-.438,1.714h3.113v-.176a3.032,3.032,0,0,0-.406-1.607A1.25,1.25,0,0,0,4886.016-830.37Z" fill="#12263f"/>
      <path id="Path_175629" data-name="Path 175629" d="M4893.09-824.385a1.369,1.369,0,0,0,1.03-.4,1.69,1.69,0,0,0,.424-1.136h1.22a2.688,2.688,0,0,1-.808,1.888,2.559,2.559,0,0,1-1.866.749,2.75,2.75,0,0,1-2.241-.924,4.215,4.215,0,0,1-.77-2.751v-.87a4.2,4.2,0,0,1,.767-2.722,2.73,2.73,0,0,1,2.236-.931,2.5,2.5,0,0,1,1.926.767,3.125,3.125,0,0,1,.756,2.1h-1.22a2.144,2.144,0,0,0-.421-1.315,1.3,1.3,0,0,0-1.041-.439,1.482,1.482,0,0,0-1.279.567,3.266,3.266,0,0,0-.431,1.859v1.009a3.517,3.517,0,0,0,.413,1.973A1.5,1.5,0,0,0,4893.09-824.385Z" fill="#12263f"/>
      <path id="Path_175630" data-name="Path 175630" d="M4898.95-833.249v1.915h1.191v1.045h-1.191v4.909a1.34,1.34,0,0,0,.153.71.576.576,0,0,0,.527.241,1.642,1.642,0,0,0,.518-.087l-.014,1.089a2.838,2.838,0,0,1-.9.145,1.358,1.358,0,0,1-1.169-.548,2.573,2.573,0,0,1-.4-1.549v-4.91h-1.206v-1.045h1.206v-1.915Z" fill="#12263f"/>
      <path id="Path_175631" data-name="Path 175631" d="M4903.174-833.431a.828.828,0,0,1-.183.548.683.683,0,0,1-.556.219.674.674,0,0,1-.548-.219.825.825,0,0,1-.182-.548.857.857,0,0,1,.182-.556.666.666,0,0,1,.548-.226.668.668,0,0,1,.552.23A.846.846,0,0,1,4903.174-833.431Zm-.1,10h-1.293v-7.906h1.293Z" fill="#12263f"/>
      <path id="Path_175632" data-name="Path 175632" d="M4907.346-825.393l1.5-5.941h1.315l-2.345,7.906h-.965l-2.375-7.906h1.315Z" fill="#12263f"/>
      <path id="Path_175633" data-name="Path 175633" d="M4914.237-823.282a2.885,2.885,0,0,1-2.266-.88,3.8,3.8,0,0,1-.8-2.583v-.957a4.446,4.446,0,0,1,.771-2.773,2.557,2.557,0,0,1,2.152-1.005,2.467,2.467,0,0,1,2.075.884,4.54,4.54,0,0,1,.7,2.755v.847h-4.413v.183a2.877,2.877,0,0,0,.479,1.849,1.688,1.688,0,0,0,1.377.577,2.245,2.245,0,0,0,1-.215,2.5,2.5,0,0,0,.814-.684l.672.819A2.932,2.932,0,0,1,4914.237-823.282Zm-.146-7.088a1.358,1.358,0,0,0-1.192.552,3.29,3.29,0,0,0-.438,1.714h3.113v-.176a3.032,3.032,0,0,0-.405-1.607A1.25,1.25,0,0,0,4914.091-830.37Z" fill="#12263f"/>
    </g>
    <g id="Group_116566" data-name="Group 116566">
      <path id="Path_175634" data-name="Path 175634" d="M4982.439-828.331l-1.045,1.264v3.639h-1.337v-10.639h1.337v5.137l.877-1.162,2.864-3.975h1.608l-3.456,4.684,3.726,5.955h-1.6Z" fill="#12263f"/>
      <path id="Path_175635" data-name="Path 175635" d="M4990.667-823.282a2.884,2.884,0,0,1-2.265-.88,3.8,3.8,0,0,1-.8-2.583v-.957a4.452,4.452,0,0,1,.771-2.773,2.557,2.557,0,0,1,2.152-1.005,2.465,2.465,0,0,1,2.075.884,4.543,4.543,0,0,1,.7,2.755v.847h-4.414v.183a2.886,2.886,0,0,0,.479,1.849,1.691,1.691,0,0,0,1.377.577,2.245,2.245,0,0,0,1-.215,2.505,2.505,0,0,0,.815-.684l.672.819A2.936,2.936,0,0,1,4990.667-823.282Zm-.146-7.088a1.355,1.355,0,0,0-1.191.552,3.279,3.279,0,0,0-.439,1.714H4992v-.176a3.019,3.019,0,0,0-.4-1.607A1.252,1.252,0,0,0,4990.521-830.37Z" fill="#12263f"/>
      <path id="Path_175636" data-name="Path 175636" d="M4996.915-825.576l1.439-5.758h1.374l-2.587,9.024a3.522,3.522,0,0,1-.825,1.546,1.678,1.678,0,0,1-1.213.53,2.6,2.6,0,0,1-.673-.117v-1.1l.285.029a1.327,1.327,0,0,0,.88-.267,1.9,1.9,0,0,0,.516-.924l.256-.884-2.324-7.841h1.41Z" fill="#12263f"/>
    </g>
    <g id="Group_116567" data-name="Group 116567">
      <path id="Path_175637" data-name="Path 175637" d="M5072.475-827.732H5070.6v4.3h-1.345v-10.639h2.982a3.176,3.176,0,0,1,2.367.815,3.258,3.258,0,0,1,.8,2.386,3.31,3.31,0,0,1-.435,1.72,2.739,2.739,0,0,1-1.231,1.107l2.061,4.524v.087h-1.44Zm-1.871-1.147h1.622a1.734,1.734,0,0,0,1.341-.542,2.053,2.053,0,0,0,.5-1.449q0-2.051-1.856-2.05H5070.6Z" fill="#12263f"/>
      <path id="Path_175638" data-name="Path 175638" d="M5079.848-823.282a2.884,2.884,0,0,1-2.266-.88,3.81,3.81,0,0,1-.8-2.583v-.957a4.449,4.449,0,0,1,.772-2.773,2.556,2.556,0,0,1,2.151-1.005,2.468,2.468,0,0,1,2.076.884,4.537,4.537,0,0,1,.7,2.755v.847h-4.413v.183a2.88,2.88,0,0,0,.479,1.849,1.686,1.686,0,0,0,1.377.577,2.243,2.243,0,0,0,1-.215,2.519,2.519,0,0,0,.814-.684l.672.819A2.933,2.933,0,0,1,5079.848-823.282Zm-.147-7.088a1.357,1.357,0,0,0-1.191.552,3.28,3.28,0,0,0-.438,1.714h3.113v-.176a3.028,3.028,0,0,0-.405-1.607A1.251,1.251,0,0,0,5079.7-830.37Z" fill="#12263f"/>
      <path id="Path_175639" data-name="Path 175639" d="M5087.871-825.452a.958.958,0,0,0-.314-.716,4.635,4.635,0,0,0-1.213-.7,8.037,8.037,0,0,1-1.473-.738,2.116,2.116,0,0,1-.639-.7,1.931,1.931,0,0,1-.212-.932,2.075,2.075,0,0,1,.705-1.6,2.579,2.579,0,0,1,1.8-.639,2.569,2.569,0,0,1,1.856.672,2.282,2.282,0,0,1,.7,1.725H5087.8a1.27,1.27,0,0,0-.358-.91,1.206,1.206,0,0,0-.914-.377,1.287,1.287,0,0,0-.9.295,1.02,1.02,0,0,0-.325.791.863.863,0,0,0,.237.634,4.258,4.258,0,0,0,1.144.633,5.744,5.744,0,0,1,1.958,1.1,1.883,1.883,0,0,1,.519,1.365,2.078,2.078,0,0,1-.709,1.65,2.786,2.786,0,0,1-1.9.618,2.836,2.836,0,0,1-2-.708,2.343,2.343,0,0,1-.767-1.8h1.3a1.442,1.442,0,0,0,.4,1.03,1.457,1.457,0,0,0,1.067.373,1.462,1.462,0,0,0,.979-.289A.974.974,0,0,0,5087.871-825.452Z" fill="#12263f"/>
      <path id="Path_175640" data-name="Path 175640" d="M5094.878-824.122a2.219,2.219,0,0,1-1.878.84,1.891,1.891,0,0,1-1.622-.741,3.634,3.634,0,0,1-.555-2.159v-5.152h1.286v5.057q0,1.848,1.111,1.848a1.621,1.621,0,0,0,1.622-1.052v-5.853h1.293v7.906h-1.227Z" fill="#12263f"/>
      <path id="Path_175641" data-name="Path 175641" d="M5099.475-823.428h-1.294v-11.224h1.294Z" fill="#12263f"/>
      <path id="Path_175642" data-name="Path 175642" d="M5103.2-833.249v1.915h1.191v1.045H5103.2v4.909a1.339,1.339,0,0,0,.154.71.574.574,0,0,0,.526.241,1.652,1.652,0,0,0,.519-.087l-.015,1.089a2.834,2.834,0,0,1-.9.145,1.359,1.359,0,0,1-1.169-.548,2.58,2.58,0,0,1-.4-1.549v-4.91h-1.205v-1.045h1.205v-1.915Z" fill="#12263f"/>
      <path id="Path_175643" data-name="Path 175643" d="M5109.771-825.452a.956.956,0,0,0-.315-.716,4.6,4.6,0,0,0-1.213-.7,8.071,8.071,0,0,1-1.473-.738,2.112,2.112,0,0,1-.638-.7,1.936,1.936,0,0,1-.212-.932,2.077,2.077,0,0,1,.7-1.6,2.582,2.582,0,0,1,1.8-.639,2.574,2.574,0,0,1,1.856.672,2.283,2.283,0,0,1,.7,1.725H5109.7a1.27,1.27,0,0,0-.358-.91,1.2,1.2,0,0,0-.913-.377,1.291,1.291,0,0,0-.9.295,1.019,1.019,0,0,0-.324.791.865.865,0,0,0,.237.634,4.224,4.224,0,0,0,1.144.633,5.739,5.739,0,0,1,1.958,1.1,1.883,1.883,0,0,1,.519,1.365,2.078,2.078,0,0,1-.709,1.65,2.789,2.789,0,0,1-1.9.618,2.836,2.836,0,0,1-2-.708,2.343,2.343,0,0,1-.767-1.8h1.3a1.444,1.444,0,0,0,.4,1.03,1.458,1.458,0,0,0,1.067.373,1.46,1.46,0,0,0,.979-.289A.97.97,0,0,0,5109.771-825.452Z" fill="#12263f"/>
    </g>
    <path id="Path_175644" data-name="Path 175644" d="M5028.054-790.027V-803.1A13.064,13.064,0,0,0,5015-816.15H4965a13.064,13.064,0,0,0-13.049,13.049v16.689l-26.189,48.1v21.565a10.709,10.709,0,0,1-10.7,10.7h-50.01a10.709,10.709,0,0,1-10.7-10.7V-803.1a10.709,10.709,0,0,1,10.7-10.7h50.01a10.709,10.709,0,0,1,10.7,10.7v12.9a4.262,4.262,0,0,0-3.1,4.092,4.275,4.275,0,0,0,4.275,4.275,4.275,4.275,0,0,0,4.276-4.275,4.262,4.262,0,0,0-3.1-4.092v-12.9a13.063,13.063,0,0,0-13.049-13.049h-50.01A13.063,13.063,0,0,0,4852-803.1v86.356a13.063,13.063,0,0,0,13.049,13.048h50.01a13.063,13.063,0,0,0,13.049-13.048V-737.71l26.189-48.1V-803.1a10.709,10.709,0,0,1,10.7-10.7H5015a10.709,10.709,0,0,1,10.7,10.7v12.778a4.264,4.264,0,0,0-3.635,4.211,4.276,4.276,0,0,0,4.276,4.275,4.276,4.276,0,0,0,4.276-4.275A4.273,4.273,0,0,0,5028.054-790.027Z" fill="url(#linear-gradient)"/>
    <path id="Path_175645" data-name="Path 175645" d="M5114.951-816.15h-50.01a13.063,13.063,0,0,0-13.049,13.049v20.965l-26.189,48.1v17.289a10.709,10.709,0,0,1-10.7,10.7H4965a10.709,10.709,0,0,1-10.7-10.7v-12.778a4.264,4.264,0,0,0,3.635-4.211,4.276,4.276,0,0,0-4.276-4.276,4.276,4.276,0,0,0-4.276,4.276,4.274,4.274,0,0,0,2.566,3.915v13.074A13.063,13.063,0,0,0,4965-703.7H5015a13.063,13.063,0,0,0,13.049-13.048v-16.69l26.189-48.1V-803.1a10.709,10.709,0,0,1,10.7-10.7h50.01a10.709,10.709,0,0,1,10.7,10.7v86.356a10.709,10.709,0,0,1-10.7,10.7h-50.01a10.709,10.709,0,0,1-10.7-10.7v-12.9a4.261,4.261,0,0,0,3.1-4.091,4.275,4.275,0,0,0-4.275-4.276,4.275,4.275,0,0,0-4.276,4.276,4.261,4.261,0,0,0,3.1,4.091v12.9a13.063,13.063,0,0,0,13.049,13.048h50.01A13.063,13.063,0,0,0,5128-716.745V-803.1A13.063,13.063,0,0,0,5114.951-816.15Z" fill="url(#linear-gradient-2)"/>
  </g>
</svg>
